<svg width="82" height="83" viewBox="0 0 82 83" fill="none" xmlns="http://www.w3.org/2000/svg">
<path d="M21.7676 6.15625H24.4863V8.875H21.7676V6.15625Z" fill="#059BC7"/>
<path d="M27.2051 6.15625H38.0801V8.875H27.2051V6.15625Z" fill="#059BC7"/>
<path d="M53.0333 59.1719C53.0311 60.9739 52.3143 62.7014 51.0401 63.9756C49.7659 65.2498 48.0384 65.9666 46.2364 65.9688H21.4033L26.0769 57.875C25.929 58.2917 25.851 58.7298 25.8458 59.1719C25.8458 60.2535 26.2754 61.2907 27.0402 62.0555C27.805 62.8203 28.8423 63.25 29.9239 63.25H35.3614C36.443 63.25 37.4803 62.8203 38.2451 62.0555C39.0099 61.2907 39.4395 60.2535 39.4395 59.1719C39.4395 58.0903 39.0099 57.053 38.2451 56.2882C37.4803 55.5234 36.443 55.0938 35.3614 55.0938H29.9239C29.2766 55.095 28.639 55.2506 28.064 55.5478C27.489 55.845 26.9932 56.2752 26.6179 56.8025C27.1577 55.5307 27.1919 54.1009 26.7134 52.8048C26.235 51.5087 25.2799 50.444 24.0432 49.8281C22.8065 49.2121 21.3813 49.0914 20.0586 49.4904C18.7359 49.8895 17.6153 50.7782 16.9255 51.9753L12.3037 59.9848C12.2701 59.7151 12.2529 59.4436 12.252 59.1719V10.2344C12.2542 8.43239 12.971 6.70484 14.2452 5.43064C15.5194 4.15645 17.2469 3.43966 19.0489 3.4375H46.2364C47.4289 3.44027 48.5999 3.7555 49.6326 4.35178C50.6654 4.94805 51.5239 5.80455 52.1225 6.83594L54.4756 5.47656C53.6376 4.03282 52.436 2.83385 50.9904 1.99907C49.5448 1.1643 47.9057 0.722867 46.2364 0.71875H19.0489C16.5261 0.721628 14.1074 1.72509 12.3235 3.50899C10.5396 5.29289 9.53615 7.71156 9.53327 10.2344V36.4703C8.66819 36.8729 7.97166 37.5661 7.56489 38.4292L1.39469 51.8149C0.481279 53.7784 0.0111459 55.9188 0.0176446 58.0844V82.2812H2.73639V58.0844C2.73033 56.3137 3.11463 54.5634 3.86196 52.9582L9.53327 40.6531V59.1719C9.53234 60.7955 9.94846 62.3921 10.7418 63.8087C10.8441 64.0379 11.0079 64.2343 11.215 64.3761C11.4221 64.5179 11.6645 64.5996 11.9152 64.6121C12.1658 64.6246 12.4151 64.5675 12.6353 64.4471C12.8555 64.3266 13.0381 64.1475 13.1628 63.9297L19.28 53.3347C19.6431 52.7154 20.2364 52.2648 20.9305 52.0813C21.6246 51.8978 22.3631 51.9962 22.9848 52.3552C23.6066 52.7142 24.0611 53.3045 24.2492 53.9974C24.4373 54.6902 24.3437 55.4294 23.9889 56.0535L17.8717 66.6484C17.7501 66.8587 17.6872 67.0978 17.6893 67.3407C17.6915 67.5836 17.7587 67.8214 17.8839 68.0296L20.7957 72.8689C21.4308 73.9276 21.7668 75.1388 21.7676 76.3734V82.2677H24.4864V76.3734C24.4862 74.6455 24.0163 72.9502 23.127 71.4688L21.4536 68.6875H46.2364C48.7592 68.6846 51.1779 67.6812 52.9618 65.8973C54.7457 64.1134 55.7491 61.6947 55.752 59.1719V52.375H53.0333V59.1719ZM29.9239 57.8125H35.3614C35.7219 57.8125 36.0677 57.9557 36.3226 58.2107C36.5775 58.4656 36.7208 58.8113 36.7208 59.1719C36.7208 59.5324 36.5775 59.8782 36.3226 60.1331C36.0677 60.388 35.7219 60.5312 35.3614 60.5312H29.9239C29.5634 60.5312 29.2176 60.388 28.9627 60.1331C28.7077 59.8782 28.5645 59.5324 28.5645 59.1719C28.5645 58.8113 28.7077 58.4656 28.9627 58.2107C29.2176 57.9557 29.5634 57.8125 29.9239 57.8125Z" fill="#059BC7"/>
<path d="M77.6517 16.7868C74.5945 12.4108 70.0348 9.31188 64.8407 8.08014C59.6466 6.84839 54.1809 7.56981 49.4842 10.107C44.7876 12.6443 41.188 16.8201 39.3709 21.8395C37.5538 26.8588 37.646 32.3711 39.63 37.3269L35.0353 45.1161C34.9028 45.3403 34.8375 45.5979 34.8471 45.8582C34.8568 46.1184 34.941 46.3705 35.0897 46.5843C35.2423 46.7976 35.4524 46.9633 35.6954 47.062C35.9385 47.1606 36.2045 47.1882 36.4627 47.1416L45.3394 45.4832C48.3536 48.1852 52.0644 49.9888 56.0513 50.6896C57.3041 50.905 58.5728 51.0141 59.8439 51.0158C63.8228 51.0147 67.725 49.9222 71.126 47.8572C74.5271 45.7922 77.2964 42.8338 79.1328 39.3041C80.9691 35.7744 81.8021 31.8086 81.5409 27.8383C81.2798 23.8681 79.9346 20.0455 77.6517 16.7868ZM78.5761 32.5691C77.9782 35.9602 76.4715 39.1256 74.2165 41.7279C71.9615 44.3302 69.0427 46.2719 65.7711 47.3462C62.4996 48.4204 58.9979 48.5869 55.6391 47.8279C52.2804 47.0689 49.1905 45.4129 46.6988 43.0363C46.4438 42.7997 46.1087 42.6685 45.7608 42.6693C45.679 42.667 45.5972 42.6716 45.5161 42.6829L38.896 43.9199L42.3216 38.129C42.4281 37.9424 42.4908 37.7341 42.5049 37.5198C42.519 37.3055 42.4842 37.0908 42.4032 36.8919C40.887 33.4609 40.4279 29.6557 41.0846 25.9625C41.9606 20.9909 44.7758 16.5708 48.9108 13.6748C50.9583 12.2408 53.2681 11.2242 55.7085 10.6829C58.1488 10.1416 60.6719 10.0863 63.1336 10.52C65.5954 10.9538 67.9475 11.8683 70.0559 13.2111C72.1642 14.5539 73.9874 16.2989 75.4214 18.3463C76.8554 20.3938 77.872 22.7036 78.4133 25.144C78.9546 27.5843 79.0099 30.1074 78.5761 32.5691Z" fill="#059BC7"/>
<path d="M69.3457 21.1094H65.2676V19.75C65.2676 18.3079 64.6947 16.9248 63.675 15.9051C62.6552 14.8854 61.2722 14.3125 59.8301 14.3125C58.388 14.3125 57.0049 14.8854 55.9852 15.9051C54.9655 16.9248 54.3926 18.3079 54.3926 19.75V21.1094H50.3145C49.9539 21.1094 49.6082 21.2526 49.3532 21.5075C49.0983 21.7625 48.9551 22.1082 48.9551 22.4688V38.7812C48.9583 39.8618 49.389 40.8973 50.1531 41.6614C50.9172 42.4255 51.9526 42.8561 53.0332 42.8594H66.627C67.7076 42.8561 68.743 42.4255 69.5071 41.6614C70.2712 40.8973 70.7019 39.8618 70.7051 38.7812V22.4688C70.7051 22.1082 70.5619 21.7625 70.3069 21.5075C70.052 21.2526 69.7062 21.1094 69.3457 21.1094ZM57.1113 19.75C57.1113 19.0289 57.3978 18.3374 57.9076 17.8276C58.4175 17.3177 59.109 17.0312 59.8301 17.0312C60.5511 17.0312 61.2427 17.3177 61.7525 17.8276C62.2624 18.3374 62.5488 19.0289 62.5488 19.75V21.1094H57.1113V19.75ZM67.9863 38.7812C67.9863 39.1418 67.8431 39.4875 67.5882 39.7425C67.3332 39.9974 66.9875 40.1406 66.627 40.1406H53.0332C52.6727 40.1406 52.3269 39.9974 52.072 39.7425C51.817 39.4875 51.6738 39.1418 51.6738 38.7812V37.4219H67.9863V38.7812ZM67.9863 34.7031H51.6738V23.8281H54.3926V26.5469H57.1113V23.8281H62.5488V26.5469H65.2676V23.8281H67.9863V34.7031Z" fill="#059BC7"/>
<path d="M27.6036 18.7891L25.5101 20.8825C24.101 19.9498 22.3958 19.5738 20.7251 19.8272C19.0544 20.0806 17.5373 20.9455 16.4682 22.254C15.3991 23.5626 14.854 25.2216 14.9388 26.9093C15.0235 28.5969 15.732 30.193 16.9269 31.3879C18.1218 32.5827 19.7178 33.2913 21.4055 33.376C23.0932 33.4608 24.7522 32.9157 26.0608 31.8466C27.3693 30.7774 28.2342 29.2604 28.4876 27.5897C28.741 25.919 28.3649 24.2138 27.4323 22.8047L29.5257 20.7112L27.6036 18.7891ZM25.8459 26.547C25.8459 27.3536 25.6067 28.1421 25.1586 28.8127C24.7105 29.4833 24.0736 30.006 23.3284 30.3147C22.5832 30.6234 21.7632 30.7041 20.9722 30.5468C20.1811 30.3894 19.4544 30.001 18.8841 29.4307C18.3138 28.8603 17.9254 28.1337 17.768 27.3426C17.6106 26.5515 17.6914 25.7316 18.0001 24.9864C18.3087 24.2412 18.8314 23.6043 19.5021 23.1562C20.1727 22.7081 20.9612 22.4689 21.7678 22.4689C22.3734 22.4712 22.9705 22.6107 23.5146 22.8767L19.4473 26.944L21.3695 28.8661L25.4381 24.8002C25.7041 25.3442 25.8436 25.9414 25.8459 26.547Z" fill="#059BC7"/>
<path d="M31.2832 22.4688H36.7207V25.1875H31.2832V22.4688Z" fill="#059BC7"/>
<path d="M31.2832 27.9062H36.7207V30.625H31.2832V27.9062Z" fill="#059BC7"/>
</svg>
