<svg width="88" height="87" viewBox="0 0 88 87" fill="none" xmlns="http://www.w3.org/2000/svg">
<g clip-path="url(#clip0)">
<path d="M34.5089 61.0106C33.8053 61.0106 33.2345 61.5814 33.2345 62.285V63.8309C33.2345 64.5345 33.8053 65.1053 34.5089 65.1053C35.2131 65.1053 35.7833 64.5345 35.7833 63.8309V62.285C35.7833 61.5814 35.2131 61.0106 34.5089 61.0106ZM38.5074 49.7997C37.8031 49.7997 37.2329 50.3706 37.2329 51.0741C37.2329 51.7777 37.8031 52.3485 38.5074 52.3485H39.8627V53.315C39.8627 54.0186 40.4329 54.5894 41.1372 54.5894C41.8414 54.5894 42.4116 54.0186 42.4116 53.315V52.3485H43.8984V53.2227C43.8984 53.9263 44.4692 54.4971 45.1728 54.4971C45.8771 54.4971 46.4472 53.9263 46.4472 53.2227V52.33C48.8606 52.1249 50.7623 50.0964 50.7623 47.6306C50.7623 46.2732 50.1855 45.0485 49.2642 44.187C50.1848 43.3254 50.7623 42.1008 50.7623 40.7434C50.7623 38.2782 48.8606 36.2491 46.4472 36.044V35.1513C46.4472 34.4477 45.8771 33.8768 45.1728 33.8768C44.4692 33.8768 43.8984 34.4477 43.8984 35.1513V36.0254H42.4116V35.0597C42.4116 34.3554 41.8414 33.7852 41.1372 33.7852C40.4329 33.7852 39.8627 34.3554 39.8627 35.0597V36.0254H38.5074C37.8031 36.0254 37.2329 36.5963 37.2329 37.2998C37.2329 38.0041 37.8031 38.5743 38.5074 38.5743H39.8627V42.9126H38.5074C37.8031 42.9126 37.2329 43.4834 37.2329 44.187C37.2329 44.8912 37.8031 45.4614 38.5074 45.4614H39.8627V49.7997H38.5074ZM42.4116 38.5743H46.0443C47.2404 38.5743 48.2135 39.5473 48.2135 40.7434C48.2135 41.9395 47.2404 42.9126 46.0443 42.9126H42.4116V38.5743ZM42.4116 45.4614H46.0443C47.2404 45.4614 48.2135 46.4345 48.2135 47.6306C48.2135 48.8267 47.2404 49.7997 46.0443 49.7997H42.4116V45.4614ZM53.1293 61.0106C52.4257 61.0106 51.8549 61.5814 51.8549 62.285V63.8309C51.8549 64.5345 52.4257 65.1053 53.1293 65.1053C53.8335 65.1053 54.4037 64.5345 54.4037 63.8309V62.285C54.4037 61.5814 53.8335 61.0106 53.1293 61.0106ZM47.111 62.9388C46.5806 62.4762 45.7755 62.5312 45.3129 63.0616C44.9358 63.495 44.3916 63.7433 43.8194 63.7433C43.2472 63.7433 42.703 63.495 42.3253 63.0616C41.8626 62.5312 41.0575 62.4762 40.5272 62.9388C39.9968 63.4008 39.9417 64.2059 40.4037 64.7363C41.2653 65.7253 42.5098 66.2921 43.8194 66.2921C45.1283 66.2921 46.3729 65.7253 47.2344 64.7363C47.6971 64.2059 47.642 63.4008 47.111 62.9388ZM20.2554 12.2477V70.3065C20.2554 72.6834 22.1895 74.6183 24.5671 74.6183H63.071C65.4486 74.6183 67.3835 72.6834 67.3835 70.3065V12.2477C67.3835 9.87007 65.4486 7.93588 63.071 7.93588H24.5671C22.1895 7.93588 20.2554 9.87007 20.2554 12.2477ZM64.8346 12.2477V70.3065C64.8346 71.2782 64.0434 72.0694 63.071 72.0694H24.5671C23.5947 72.0694 22.8042 71.2782 22.8042 70.3065V12.2477C22.8042 11.2752 23.5947 10.4847 24.5671 10.4847H63.071C64.0434 10.4847 64.8346 11.2752 64.8346 12.2477ZM71.3229 35.0324C70.6186 35.0324 70.0484 35.6033 70.0484 36.3069V76.1316C70.0484 80.7189 66.3161 84.4512 61.7289 84.4512H28.1541C27.4505 84.4512 26.8797 85.022 26.8797 85.7256C26.8797 86.4292 27.4505 87 28.1541 87H61.7296C67.722 87 72.5973 82.1247 72.5973 76.1316V36.3069C72.5973 35.6033 72.0264 35.0324 71.3229 35.0324ZM29.092 44.187C29.092 52.3074 35.699 58.9144 43.8194 58.9144C51.9398 58.9144 58.5462 52.3074 58.5462 44.187C58.5462 38.186 54.938 33.0126 49.7773 30.7207V26.1228H52.0049C53.1552 26.1228 54.1468 25.4219 54.5305 24.3373C54.9148 23.2527 54.5849 22.0839 53.6908 21.3604L46.8256 15.8034C45.0832 14.3936 42.5549 14.3936 40.8132 15.8034L33.948 21.3604C33.0533 22.0839 32.724 23.2527 33.1077 24.3373C33.492 25.4219 34.4837 26.1228 35.6339 26.1228H37.8609V30.7207C32.7008 33.0126 29.092 38.186 29.092 44.187ZM35.6333 23.5733C35.5948 23.5733 35.541 23.5733 35.5105 23.4864C35.4793 23.3994 35.5211 23.3656 35.551 23.341L42.4162 17.784C43.2293 17.1269 44.4088 17.1269 45.2213 17.784L52.0872 23.341C52.117 23.3656 52.1589 23.3994 52.1277 23.4864C52.0971 23.5733 52.0434 23.5733 52.0049 23.5733H48.5029C47.7986 23.5733 47.2285 24.1442 47.2285 24.8478V29.8591C46.1339 29.5989 44.9923 29.4602 43.8187 29.4602C42.6459 29.4602 41.5042 29.5989 40.4097 29.8591V24.8478C40.4097 24.1442 39.8395 23.5733 39.1353 23.5733H35.6333ZM43.8194 32.009C50.5346 32.009 55.9974 37.4718 55.9974 44.187C55.9974 50.9022 50.5346 56.3656 43.8194 56.3656C37.1042 56.3656 31.6408 50.9022 31.6408 44.187C31.6408 37.4718 37.1042 32.009 43.8194 32.009ZM28.7329 78.3731C28.0286 78.3731 27.4585 78.944 27.4585 79.6476C27.4585 80.3511 28.0286 80.922 28.7329 80.922H32.6258C33.33 80.922 33.9002 80.3511 33.9002 79.6476C33.9002 78.944 33.33 78.3731 32.6258 78.3731H28.7329ZM73.571 12.9293H72.5973V10.8684C72.5973 4.8753 67.722 0 61.7289 0H25.9092C19.9162 0 15.0415 4.8753 15.0415 10.8684V12.9293H14.0671C12.5657 12.9293 11.3438 14.1513 11.3438 15.6527V23.6656C11.3438 25.167 12.5657 26.389 14.0671 26.389H15.0415V28.2993H14.0671C12.5657 28.2993 11.3438 29.5213 11.3438 31.0234V39.0356C11.3438 40.537 12.5657 41.759 14.0671 41.759H15.0415V76.1316C15.0415 80.6299 17.7457 84.6005 21.9307 86.248C22.084 86.3084 22.242 86.3369 22.3973 86.3369C22.9051 86.3369 23.3856 86.0303 23.5828 85.5291C23.841 84.874 23.5191 84.1339 22.8639 83.8764C19.66 82.6152 17.5904 79.5752 17.5904 76.1316V10.8684C17.5904 6.28114 21.322 2.54883 25.9092 2.54883H61.7296C66.3168 2.54883 70.0484 6.28114 70.0484 10.8684V30.4452C70.0484 31.1488 70.6193 31.7196 71.3229 31.7196C72.0264 31.7196 72.5973 31.1488 72.5973 30.4452V26.389H73.571C75.0731 26.389 76.2951 25.167 76.2951 23.6656V15.6534C76.2951 14.1513 75.0731 12.9293 73.571 12.9293ZM15.0415 39.2108H14.0671C13.9709 39.2108 13.8926 39.1325 13.8926 39.0356V31.0234C13.8926 30.9271 13.9709 30.8488 14.0671 30.8488H15.0415V39.2108ZM15.0415 23.8402H14.0671C13.9709 23.8402 13.8926 23.7618 13.8926 23.6656V15.6534C13.8926 15.5571 13.9709 15.4782 14.0671 15.4782H15.0415V23.8402ZM73.7462 23.6656C73.7462 23.7618 73.6672 23.8402 73.571 23.8402H72.5973V15.4782H73.571C73.6672 15.4782 73.7462 15.5565 73.7462 15.6527V23.6656ZM55.0123 78.3731C54.3081 78.3731 53.7379 78.944 53.7379 79.6476C53.7379 80.3511 54.3081 80.922 55.0123 80.922H58.9053C59.6095 80.922 60.1797 80.3511 60.1797 79.6476C60.1797 78.944 59.6095 78.3731 58.9053 78.3731H55.0123ZM46.6032 6.5858C47.3074 6.5858 47.8776 6.01497 47.8776 5.31139C47.8776 4.6078 47.3074 4.03697 46.6032 4.03697H41.0349C40.3314 4.03697 39.7605 4.6078 39.7605 5.31139C39.7605 6.01497 40.3314 6.5858 41.0349 6.5858H46.6032Z" fill="#059BC7"/>
</g>
<defs>
<clipPath id="clip0">
<rect width="87" height="87" fill="white" transform="translate(0.298828)"/>
</clipPath>
</defs>
</svg>
