<svg width="88" height="87" viewBox="0 0 88 87" fill="none" xmlns="http://www.w3.org/2000/svg">
<g clip-path="url(#clip0)">
<path d="M72.7986 62.692L69.1057 60.4794C67.9799 59.8061 66.6921 59.4507 65.3801 59.45H59.8223C58.6845 59.4479 57.5517 59.5944 56.4515 59.8847L39.7057 64.3799C37.8747 64.8854 36.4042 66.249 35.7628 68.0367L21.0334 60.0681C19.839 59.3884 18.4406 59.1576 17.0912 59.4167C16.5821 59.5066 16.0886 59.6688 15.6249 59.8982C14.5778 60.3994 13.709 61.2094 13.1341 62.2183C12.6314 63.0969 12.3674 64.0917 12.3674 65.1034C12.3518 67.1694 13.4464 69.0839 15.2334 70.119L41.6321 85.9139C42.7791 86.624 44.1003 87 45.449 87H65.8793C66.7919 87.0007 67.696 86.8279 68.5442 86.4924L72.7986 84.8123V87H87.2986V58H72.7986V62.692ZM67.4787 83.7956C66.971 83.9959 66.4294 84.0993 65.8835 84.1H45.449C44.632 84.0993 43.8312 83.8692 43.1388 83.4359L16.7039 67.6225C15.8054 67.1036 15.2553 66.1421 15.2624 65.1049C15.2645 64.5965 15.3983 64.0967 15.6511 63.6549C15.94 63.1543 16.3747 62.7529 16.8965 62.5051C17.1266 62.3932 17.3701 62.3139 17.6215 62.27C17.8049 62.236 17.9911 62.2183 18.1773 62.2183C18.6757 62.2169 19.1656 62.3472 19.5982 62.595L35.5702 71.2256C35.5886 71.3141 35.5886 71.4012 35.612 71.4897C36.2987 74.0208 38.5948 75.7788 41.218 75.7816C42.0251 75.708 42.8244 75.565 43.6075 75.3554L58.6725 71.324L57.9248 68.5224L42.9087 72.5361C42.2474 72.6883 41.3943 72.8625 41.218 72.8774C39.9081 72.8795 38.7598 72.0044 38.415 70.7413C38.3682 70.5657 38.3406 70.3859 38.3307 70.2046C38.3307 70.2046 38.3194 69.8535 38.3307 69.7303C38.4412 68.5175 39.2908 67.4993 40.4639 67.1729L57.2026 62.6948C58.0572 62.4661 58.938 62.35 59.8223 62.35H65.3801C66.1674 62.35 66.9399 62.5638 67.6146 62.9681L72.7986 66.072V81.6928L67.4787 83.7956ZM75.6986 60.9H84.3986V84.1H75.6986V60.9Z" fill="#059BC7"/>
<path d="M60.1028 11.6001L52.3247 3.82259C49.8827 1.36651 46.5601 -0.00985894 43.0972 5.31688e-05H24.8674C23.7424 0.00146918 22.6329 0.26414 21.6254 0.765409L18.3757 2.391C17.7243 2.7188 17.0007 2.87527 16.2722 2.84624L14.7988 2.79456V5.31688e-05H0.298828V31.9001H14.7988V27.5501H17.2641L18.1413 28.1299C20.596 29.7597 23.4542 30.6802 26.3988 30.7878V49.3001H87.2988V11.6001H60.1028ZM11.8988 29.0001H3.19883V2.90005H11.8988V29.0001ZM19.7464 25.717L18.1335 24.6501H14.7988V5.69598L16.166 5.74483C17.3802 5.78802 18.5853 5.52676 19.672 4.98514L22.919 3.35955C23.5236 3.05723 24.1913 2.90005 24.8674 2.90005H43.0972C45.7905 2.89227 48.3754 3.96277 50.2743 5.87227L56.0021 11.6001H44.0367L40.5172 8.08125L38.4675 10.1309L48.7103 20.3744C49.848 21.5072 49.8516 23.348 48.7188 24.4865C47.5853 25.6243 45.7444 25.6278 44.6067 24.495L36.0518 15.9401L35.0365 16.8103C32.2335 19.1906 28.1363 19.2515 25.2632 16.9547L24.4228 16.2736L22.5954 18.5265L23.445 19.2154C24.3336 19.9255 25.3312 20.4877 26.3988 20.8799V27.8864C24.0256 27.7809 21.7253 27.0311 19.7464 25.717ZM40.3728 24.3598L42.5605 26.5482C44.8318 28.7855 48.4781 28.7891 50.7529 26.5553C48.6246 29.8511 49.4643 34.2372 52.6595 36.5134C55.8548 38.7897 60.2749 38.1503 62.6941 35.0627C65.1134 31.9744 64.6766 27.5295 61.7015 24.9722C58.7272 22.4149 54.2667 22.6492 51.577 25.5039C52.5675 23.9484 52.7445 22.0099 52.0521 20.3001H71.4692C72.0929 23.9484 74.9505 26.8059 78.5988 27.4297V33.4704C74.9505 34.0942 72.0929 36.9517 71.4692 40.6001H42.2285C41.6047 36.9517 38.7472 34.0942 35.0988 33.4704V27.4297C37.1712 27.0806 39.0453 25.9896 40.3728 24.3598ZM52.4988 30.4501C52.4988 28.0478 54.4466 26.1001 56.8488 26.1001C59.2511 26.1001 61.1988 28.0478 61.1988 30.4501C61.1988 32.8523 59.2511 34.8001 56.8488 34.8001C54.4466 34.8001 52.4988 32.8523 52.4988 30.4501ZM84.3988 46.4001H29.2988V21.4874C31.5977 21.6601 33.8896 21.0739 35.8238 19.82L38.2976 22.2938C37.2094 23.7721 35.4847 24.6465 33.6488 24.6501H32.1988V36.25H33.6488C36.8519 36.25 39.4488 38.847 39.4488 42.05V43.5H74.2488V42.05C74.2488 38.847 76.8458 36.25 80.0488 36.25H81.4988V24.6501H80.0488C76.8458 24.6501 74.2488 22.0531 74.2488 18.8501V17.4001H49.8367L46.9367 14.5001H84.3988V46.4001Z" fill="#059BC7"/>
</g>
<defs>
<clipPath id="clip0">
<rect width="87" height="87" fill="white" transform="translate(0.298828)"/>
</clipPath>
</defs>
</svg>
