<svg width="88" height="87" viewBox="0 0 88 87" fill="none" xmlns="http://www.w3.org/2000/svg">
<g clip-path="url(#clip0)">
<path d="M80.7628 45.4617C79.8025 45.4617 78.9159 45.6958 78.1295 46.0487C76.9339 44.5198 75.0782 43.5302 72.9863 43.5281C71.9052 43.5281 70.9109 43.8149 70.0565 44.2447L69.9671 44.2943L67.2959 45.8786C66.0985 44.4467 64.305 43.5291 62.2927 43.5281C61.2117 43.5281 60.2173 43.8149 59.3629 44.2447L59.2561 44.305L49.0289 50.5688C46.7194 49.8864 44.1551 49.1379 41.6773 48.4351C39.0634 47.6934 36.5495 47.0042 34.5346 46.4958C33.5256 46.2411 32.643 46.0321 31.9217 45.8834C31.5601 45.8085 31.2393 45.7493 30.9545 45.7057C30.6658 45.6628 30.4247 45.6328 30.1526 45.6318C29.9426 45.6328 29.7608 45.6511 29.5538 45.6764C28.8006 45.7757 27.7292 46.0051 26.4655 46.3014C23.8837 46.908 20.5886 47.7906 18.7678 48.2863V45.2047C18.7678 43.0663 17.0182 41.3164 14.8795 41.3164H4.18716C2.04852 41.3167 0.298828 43.0664 0.298828 45.2051V75.3389C0.298828 77.4774 2.04852 79.2272 4.18716 79.2272H14.8797C17.0182 79.2272 18.768 77.4775 18.768 75.3389V72.9992C21.0757 73.5017 26.1975 74.6079 31.5973 75.717C35.2494 76.4665 39.0238 77.2169 42.1412 77.7826C43.7004 78.0655 45.0953 78.3017 46.2375 78.4689C47.3894 78.6352 48.2477 78.7382 48.9019 78.7421C49.4111 78.7402 49.8933 78.6439 50.4143 78.5C51.3836 78.2267 52.4867 77.7632 53.7494 77.1498C58.1439 75.0074 64.4555 70.9937 70.4094 67.0219C76.3526 63.0549 81.9118 59.1377 84.6355 57.2616C86.3405 56.0864 87.299 54.1005 87.299 51.9989C87.2961 48.3894 84.3729 45.4635 80.7628 45.4617ZM15.8516 75.3386C15.8516 75.8653 15.4064 76.3105 14.8797 76.3105H4.18716C3.6604 76.3105 3.2152 75.8653 3.2152 75.3386V45.2051C3.2152 44.6783 3.6604 44.2331 4.18716 44.2331H14.8797C15.4064 44.2331 15.8516 44.6783 15.8516 45.2051V75.3386ZM82.982 54.8594C79.6323 57.1671 72.1367 62.4598 64.8813 67.1724C61.2566 69.5267 57.6921 71.7343 54.7691 73.3343C53.3091 74.1343 52.0065 74.7807 50.9654 75.2133C50.4454 75.429 49.9904 75.5914 49.6296 75.6915C49.2709 75.7934 49.0006 75.8276 48.9025 75.8256C48.5846 75.8284 47.743 75.7448 46.6611 75.5834C42.8312 75.0225 35.6624 73.5906 29.4896 72.3027C26.4004 71.6582 23.5551 71.0497 21.4818 70.6025C20.2774 70.343 19.3481 70.1398 18.7687 70.0144V51.3104C19.0537 51.2315 19.4268 51.1296 19.8749 51.0081C21.4118 50.5911 23.7573 49.966 25.8609 49.448C26.9117 49.1884 27.9042 48.9573 28.6925 48.7928C29.0852 48.7112 29.4284 48.6462 29.6918 48.6042C29.9503 48.5614 30.1514 48.5459 30.1535 48.5488C30.1584 48.5478 30.311 48.5575 30.519 48.5898C31.3239 48.7102 32.9733 49.0961 34.9825 49.622C41.0375 51.2037 50.5849 54.0624 54.4422 55.2337C55.7767 55.6361 56.9851 56.2427 57.7782 56.9786C58.1769 57.3462 58.4763 57.7389 58.6775 58.1635C58.8787 58.5902 58.9923 59.052 58.9944 59.6167C58.9934 60.7608 58.5346 61.7834 57.7852 62.5349C57.0406 63.2766 56.0296 63.7305 54.9011 63.7412L51.1382 63.3728L38.2963 61.7241C37.4972 61.6221 36.7662 62.1857 36.6632 62.9847C36.5601 63.7839 37.1259 64.5137 37.9239 64.6168L50.8074 66.2702L54.7948 66.6608H54.8666C58.7558 66.6598 61.9082 63.5074 61.9102 59.6172C61.9121 58.6384 61.6955 57.7178 61.3114 56.912C60.7332 55.6979 59.8029 54.7579 58.751 54.0424C57.6953 53.325 56.5037 52.8138 55.2906 52.4444C54.6141 52.2393 53.7616 51.9807 52.7876 51.6881L60.7011 46.8404C61.2142 46.5877 61.7393 46.4448 62.2953 46.4438C63.2382 46.4428 64.0897 46.8083 64.7333 47.3994L60.8238 49.7179C60.1317 50.1282 59.9033 51.0234 60.3145 51.7155C60.7257 52.4076 61.62 52.637 62.313 52.2259L71.3882 46.8436C71.9042 46.5879 72.4322 46.4441 72.9902 46.4441C73.9963 46.4431 74.9013 46.8622 75.5574 47.5271L64.9903 53.794C64.2971 54.2043 64.0698 55.0995 64.481 55.7924C64.8922 56.4845 65.7865 56.7129 66.4795 56.3017L77.906 49.5245C78.0168 49.506 78.1286 49.4788 78.2376 49.4321C78.4717 49.3328 78.6624 49.1755 78.809 48.9887L79.1657 48.7768C79.6817 48.5211 80.2097 48.3774 80.7675 48.3774C81.7697 48.3784 82.6659 48.7809 83.326 49.438C83.9831 50.0982 84.3855 50.9952 84.3867 51.9984C84.3818 53.2205 83.8219 54.2878 82.982 54.8594Z" fill="#059BC7"/>
<path d="M52.9881 24.3742C51.7079 23.4352 50.2244 22.9189 48.7519 22.502C48.5517 22.4455 48.3553 22.4 48.1551 22.3473V13.4465C49.5772 13.6594 50.6289 14.1027 51.3288 14.6498C51.8244 15.0349 52.1658 15.4665 52.4 15.9515C52.6304 16.4366 52.7539 16.9837 52.7548 17.6116C52.7548 18.4165 53.4079 19.0697 54.2129 19.0697C55.0178 19.0697 55.671 18.4165 55.671 17.6116C55.672 16.5938 55.463 15.5975 55.0314 14.6945C54.386 13.3347 53.237 12.2208 51.7429 11.4956C50.7096 10.9919 49.5041 10.6721 48.156 10.5138V9.23154C48.156 8.4256 47.5028 7.77344 46.6979 7.77344C45.8919 7.77344 45.2398 8.4256 45.2398 9.23154V10.4331C44.1832 10.5146 43.2344 10.7218 42.3946 11.0416C40.744 11.6657 39.5358 12.7309 38.7882 13.9275C38.0378 15.125 37.7248 16.4266 37.7238 17.6116C37.7199 18.8587 38.0201 19.9815 38.5851 20.8962C39.0758 21.6972 39.7428 22.3193 40.4699 22.7966C41.748 23.6316 43.2082 24.0807 44.6632 24.4695C44.8547 24.5191 45.0471 24.5677 45.2388 24.6153V34.1901C43.8202 34.0336 42.7326 33.5785 42.0028 32.9583C41.1074 32.1884 40.6488 31.2076 40.639 29.9556C40.639 29.1497 39.9858 28.4975 39.1809 28.4975C38.3759 28.4975 37.7228 29.1497 37.7228 29.9556C37.712 31.994 38.581 33.8954 40.1188 35.1843C41.4379 36.3001 43.1973 36.969 45.2386 37.1343V38.4007C45.2386 39.2056 45.8907 39.8588 46.6967 39.8588C47.5016 39.8588 48.1548 39.2056 48.1548 38.4007V37.0816C49.8054 36.9153 51.3469 36.5081 52.6652 35.6917C53.5653 35.1297 54.3459 34.3522 54.8728 33.3695C55.4037 32.3896 55.672 31.231 55.6698 29.9556C55.6716 28.6248 55.386 27.4448 54.8436 26.461C54.3714 25.6 53.7162 24.9106 52.9881 24.3742ZM45.2377 21.6009C43.8185 21.2207 42.5949 20.7757 41.8473 20.2021C41.4449 19.8977 41.1667 19.5779 40.9674 19.1881C40.77 18.7954 40.6408 18.3083 40.6388 17.6114C40.6378 16.7153 40.9674 15.642 41.7722 14.8247C42.1776 14.4116 42.7062 14.0432 43.4304 13.7671C43.9292 13.5776 44.5317 13.4375 45.2376 13.3647V21.6009H45.2377ZM52.3065 31.9836C52.1004 32.3627 51.8351 32.6749 51.489 32.9547C50.9718 33.3709 50.2545 33.7061 49.3602 33.9287C48.9869 34.022 48.5796 34.091 48.1548 34.1445V25.3679C49.0462 25.6253 49.8628 25.9094 50.5238 26.2649C51.2616 26.6555 51.7933 27.0989 52.1549 27.6453C52.5126 28.1945 52.7488 28.8837 52.7537 29.9549C52.7517 30.8366 52.5767 31.4789 52.3065 31.9836Z" fill="#059BC7"/>
</g>
<defs>
<clipPath id="clip0">
<rect width="87" height="87" fill="white" transform="translate(0.298828)"/>
</clipPath>
</defs>
</svg>
