<svg width="188" height="52" viewBox="0 0 188 52" fill="none" xmlns="http://www.w3.org/2000/svg">
<g clip-path="url(#clip0)">
<path d="M22.6806 20.2686C19.8752 25.7992 21.4783 33.8823 24.6845 38.9875C26.2877 41.5401 27.8908 43.6672 30.2955 43.6672C31.4978 43.6672 32.2994 43.2418 32.7002 42.8164C33.5017 42.3909 34.3033 41.9655 35.9064 41.9655C37.1088 41.9655 37.9104 42.3909 38.7119 42.8164C39.5135 43.2418 40.315 43.6672 41.5174 43.6672C43.9221 43.6672 45.5252 41.1146 47.1283 38.9875C48.3307 36.4349 49.1322 34.3078 49.533 33.4569V33.0315C49.1322 33.0315 45.1244 30.9043 45.1244 25.7992C45.1244 21.5449 47.9299 19.4177 48.7315 18.9923C48.7315 18.9923 48.7315 18.9923 48.7315 18.5669C46.3268 16.0143 43.1205 15.5889 41.9182 15.5889H41.5174C39.9143 15.5889 38.7119 16.0143 37.5096 16.8652C36.708 16.8652 35.9064 16.8652 35.5057 16.8652C35.1049 16.8652 34.3033 16.4397 33.5017 16.4397C32.2994 16.0143 31.0971 15.5889 29.8947 15.5889C26.6885 15.5889 23.883 17.2906 22.6806 20.2686Z" fill="black"/>
<path d="M41.9185 6.65527C40.3154 6.65527 37.9107 7.93156 36.7084 9.63328C35.506 10.9096 34.7044 13.0367 35.1052 15.1639C35.1052 15.1639 35.1052 15.5893 35.506 15.5893H35.9068C37.5099 15.5893 39.5138 14.7384 40.7162 13.0367C41.9185 11.335 42.3193 8.78242 41.9185 6.65527C42.3193 6.65527 42.3193 6.65527 41.9185 6.65527Z" fill="black"/>
</g>
<rect x="0.5" y="0.50293" width="186.596" height="50" rx="3.5" stroke="black"/>
<path d="M66.452 18.4385L70.526 8.63848H71.828L75.846 18.4385H74.67L73.438 15.3585H68.818L67.572 18.4385H66.452ZM69.196 14.4345H73.06L71.142 9.64648L69.196 14.4345ZM77.7208 18.4385L74.6828 11.4245H75.8308L78.2248 17.0945L80.6188 11.4245H81.7248L78.7008 18.4385H77.7208ZM84.8845 18.5645C84.1192 18.5645 83.4939 18.3685 83.0085 17.9765C82.5325 17.5845 82.2945 17.0758 82.2945 16.4505C82.2945 15.7971 82.5465 15.2791 83.0505 14.8965C83.5545 14.5045 84.2359 14.3085 85.0945 14.3085C85.4679 14.3085 85.8272 14.3505 86.1725 14.4345C86.5272 14.5185 86.8539 14.6351 87.1525 14.7845V13.8605C87.1525 13.3005 86.9939 12.8805 86.6765 12.6005C86.3592 12.3111 85.8972 12.1665 85.2905 12.1665C84.9452 12.1665 84.5952 12.2178 84.2405 12.3205C83.8952 12.4138 83.5125 12.5678 83.0925 12.7825L82.7005 11.9845C83.2045 11.7418 83.6712 11.5645 84.1005 11.4525C84.5299 11.3405 84.9592 11.2845 85.3885 11.2845C86.2752 11.2845 86.9565 11.4945 87.4325 11.9145C87.9179 12.3345 88.1605 12.9365 88.1605 13.7205V18.4385H87.1525V17.7525C86.8352 18.0231 86.4852 18.2285 86.1025 18.3685C85.7292 18.4991 85.3232 18.5645 84.8845 18.5645ZM83.2885 16.4225C83.2885 16.8145 83.4519 17.1365 83.7785 17.3885C84.1145 17.6311 84.5439 17.7525 85.0665 17.7525C85.4865 17.7525 85.8692 17.6871 86.2145 17.5565C86.5599 17.4258 86.8725 17.2205 87.1525 16.9405V15.6245C86.8632 15.4285 86.5505 15.2885 86.2145 15.2045C85.8879 15.1111 85.5239 15.0645 85.1225 15.0645C84.5625 15.0645 84.1145 15.1905 83.7785 15.4425C83.4519 15.6851 83.2885 16.0118 83.2885 16.4225ZM90.4093 10.0805C90.2226 10.0805 90.0593 10.0105 89.9193 9.87048C89.7793 9.73048 89.7093 9.56714 89.7093 9.38048C89.7093 9.18448 89.7793 9.02114 89.9193 8.89048C90.0593 8.75048 90.2226 8.68048 90.4093 8.68048C90.6053 8.68048 90.7686 8.75048 90.8993 8.89048C91.0393 9.02114 91.1093 9.18448 91.1093 9.38048C91.1093 9.56714 91.0393 9.73048 90.8993 9.87048C90.7686 10.0105 90.6053 10.0805 90.4093 10.0805ZM90.9273 11.4245V18.4385H89.8913V11.4245H90.9273ZM93.73 8.40048V18.4385H92.694V8.63848L93.73 8.40048ZM97.7087 18.5645C96.9434 18.5645 96.3181 18.3685 95.8327 17.9765C95.3567 17.5845 95.1187 17.0758 95.1187 16.4505C95.1187 15.7971 95.3707 15.2791 95.8747 14.8965C96.3787 14.5045 97.0601 14.3085 97.9187 14.3085C98.2921 14.3085 98.6514 14.3505 98.9967 14.4345C99.3514 14.5185 99.6781 14.6351 99.9767 14.7845V13.8605C99.9767 13.3005 99.8181 12.8805 99.5007 12.6005C99.1834 12.3111 98.7214 12.1665 98.1147 12.1665C97.7694 12.1665 97.4194 12.2178 97.0647 12.3205C96.7194 12.4138 96.3367 12.5678 95.9167 12.7825L95.5247 11.9845C96.0287 11.7418 96.4954 11.5645 96.9247 11.4525C97.3541 11.3405 97.7834 11.2845 98.2127 11.2845C99.0994 11.2845 99.7807 11.4945 100.257 11.9145C100.742 12.3345 100.985 12.9365 100.985 13.7205V18.4385H99.9767V17.7525C99.6594 18.0231 99.3094 18.2285 98.9267 18.3685C98.5534 18.4991 98.1474 18.5645 97.7087 18.5645ZM96.1127 16.4225C96.1127 16.8145 96.2761 17.1365 96.6027 17.3885C96.9387 17.6311 97.3681 17.7525 97.8907 17.7525C98.3107 17.7525 98.6934 17.6871 99.0387 17.5565C99.3841 17.4258 99.6967 17.2205 99.9767 16.9405V15.6245C99.6874 15.4285 99.3747 15.2885 99.0387 15.2045C98.7121 15.1111 98.3481 15.0645 97.9467 15.0645C97.3867 15.0645 96.9387 15.1905 96.6027 15.4425C96.2761 15.6851 96.1127 16.0118 96.1127 16.4225ZM109.533 14.9245C109.533 15.4285 109.44 15.9045 109.253 16.3525C109.076 16.8005 108.829 17.1878 108.511 17.5145C108.194 17.8318 107.816 18.0838 107.377 18.2705C106.948 18.4571 106.486 18.5505 105.991 18.5505C105.581 18.5505 105.179 18.4805 104.787 18.3405C104.405 18.2005 104.055 17.9998 103.737 17.7385V18.4385H102.715V8.63848L103.751 8.40048V12.1665C104.041 11.8865 104.377 11.6765 104.759 11.5365C105.151 11.3871 105.567 11.3125 106.005 11.3125C106.5 11.3125 106.962 11.4058 107.391 11.5925C107.821 11.7791 108.194 12.0358 108.511 12.3625C108.829 12.6798 109.076 13.0625 109.253 13.5105C109.44 13.9491 109.533 14.4205 109.533 14.9245ZM105.907 12.2225C105.469 12.2225 105.058 12.3111 104.675 12.4885C104.302 12.6565 103.994 12.8945 103.751 13.2025V16.6745C103.994 16.9731 104.307 17.2111 104.689 17.3885C105.072 17.5565 105.478 17.6405 105.907 17.6405C106.645 17.6405 107.261 17.3838 107.755 16.8705C108.259 16.3478 108.511 15.7038 108.511 14.9385C108.511 14.5558 108.441 14.2011 108.301 13.8745C108.171 13.5385 107.989 13.2491 107.755 13.0065C107.522 12.7638 107.247 12.5725 106.929 12.4325C106.612 12.2925 106.271 12.2225 105.907 12.2225ZM112.009 8.40048V18.4385H110.973V8.63848L112.009 8.40048ZM119.684 17.6965C119.292 17.9858 118.881 18.2051 118.452 18.3545C118.032 18.4945 117.57 18.5645 117.066 18.5645C116.562 18.5645 116.086 18.4711 115.638 18.2845C115.199 18.0978 114.817 17.8411 114.49 17.5145C114.173 17.1878 113.921 16.8051 113.734 16.3665C113.547 15.9185 113.454 15.4378 113.454 14.9245C113.454 14.4205 113.543 13.9491 113.72 13.5105C113.907 13.0718 114.154 12.6891 114.462 12.3625C114.77 12.0358 115.134 11.7791 115.554 11.5925C115.983 11.4058 116.436 11.3125 116.912 11.3125C117.379 11.3125 117.813 11.4058 118.214 11.5925C118.625 11.7791 118.975 12.0358 119.264 12.3625C119.563 12.6891 119.796 13.0718 119.964 13.5105C120.141 13.9491 120.23 14.4205 120.23 14.9245V15.2465H114.476C114.551 15.9371 114.835 16.5111 115.33 16.9685C115.825 17.4258 116.417 17.6545 117.108 17.6545C117.472 17.6545 117.827 17.5985 118.172 17.4865C118.517 17.3745 118.807 17.2158 119.04 17.0105L119.684 17.6965ZM116.884 12.2225C116.277 12.2225 115.75 12.4278 115.302 12.8385C114.863 13.2491 114.597 13.7765 114.504 14.4205H119.194C119.101 13.8045 118.835 13.2865 118.396 12.8665C117.967 12.4371 117.463 12.2225 116.884 12.2225ZM124.364 14.9245C124.364 14.4205 124.458 13.9445 124.644 13.4965C124.831 13.0485 125.083 12.6611 125.4 12.3345C125.727 12.0078 126.11 11.7511 126.548 11.5645C126.987 11.3778 127.454 11.2845 127.948 11.2845C128.443 11.2845 128.905 11.3778 129.334 11.5645C129.773 11.7511 130.151 12.0078 130.468 12.3345C130.795 12.6611 131.052 13.0485 131.238 13.4965C131.425 13.9445 131.518 14.4205 131.518 14.9245C131.518 15.4378 131.425 15.9185 131.238 16.3665C131.052 16.8145 130.795 17.2018 130.468 17.5285C130.151 17.8551 129.773 18.1118 129.334 18.2985C128.905 18.4851 128.443 18.5785 127.948 18.5785C127.454 18.5785 126.987 18.4851 126.548 18.2985C126.11 18.1118 125.727 17.8551 125.4 17.5285C125.083 17.2018 124.831 16.8145 124.644 16.3665C124.458 15.9185 124.364 15.4378 124.364 14.9245ZM127.948 17.6545C128.303 17.6545 128.634 17.5845 128.942 17.4445C129.26 17.3045 129.53 17.1131 129.754 16.8705C129.988 16.6185 130.17 16.3291 130.3 16.0025C130.431 15.6665 130.496 15.3071 130.496 14.9245C130.496 14.5418 130.431 14.1871 130.3 13.8605C130.17 13.5245 129.988 13.2351 129.754 12.9925C129.53 12.7498 129.26 12.5585 128.942 12.4185C128.634 12.2785 128.303 12.2085 127.948 12.2085C127.594 12.2085 127.258 12.2785 126.94 12.4185C126.632 12.5585 126.362 12.7498 126.128 12.9925C125.904 13.2351 125.722 13.5245 125.582 13.8605C125.452 14.1871 125.386 14.5418 125.386 14.9245C125.386 15.3071 125.452 15.6665 125.582 16.0025C125.713 16.3291 125.89 16.6185 126.114 16.8705C126.348 17.1131 126.623 17.3045 126.94 17.4445C127.258 17.5845 127.594 17.6545 127.948 17.6545ZM132.958 18.4385V11.4245H133.994V12.2505C134.264 11.9331 134.586 11.6951 134.96 11.5365C135.333 11.3685 135.748 11.2845 136.206 11.2845C136.999 11.2845 137.648 11.5365 138.152 12.0405C138.656 12.5445 138.908 13.1978 138.908 14.0005V18.4385H137.886V14.2105C137.886 13.5945 137.708 13.1045 137.354 12.7405C136.999 12.3765 136.523 12.1945 135.926 12.1945C135.506 12.1945 135.128 12.2878 134.792 12.4745C134.465 12.6611 134.199 12.9271 133.994 13.2725V18.4385H132.958ZM144.517 16.8705V12.3065H143.005V11.4245H144.517V9.64648L145.539 9.38048V11.4245H147.653V12.3065H145.539V16.6045C145.539 16.9778 145.623 17.2485 145.791 17.4165C145.959 17.5751 146.234 17.6545 146.617 17.6545C146.813 17.6545 146.986 17.6405 147.135 17.6125C147.294 17.5845 147.462 17.5378 147.639 17.4725V18.3825C147.462 18.4478 147.261 18.4945 147.037 18.5225C146.822 18.5505 146.612 18.5645 146.407 18.5645C145.8 18.5645 145.334 18.4198 145.007 18.1305C144.68 17.8411 144.517 17.4211 144.517 16.8705ZM148.762 18.4385V8.63848L149.798 8.40048V12.2505C150.069 11.9331 150.391 11.6951 150.764 11.5365C151.138 11.3685 151.553 11.2845 152.01 11.2845C152.804 11.2845 153.452 11.5365 153.956 12.0405C154.46 12.5445 154.712 13.1978 154.712 14.0005V18.4385H153.69V14.2105C153.69 13.5945 153.513 13.1045 153.158 12.7405C152.804 12.3765 152.328 12.1945 151.73 12.1945C151.31 12.1945 150.932 12.2878 150.596 12.4745C150.27 12.6611 150.004 12.9271 149.798 13.2725V18.4385H148.762ZM162.354 17.6965C161.962 17.9858 161.551 18.2051 161.122 18.3545C160.702 18.4945 160.24 18.5645 159.736 18.5645C159.232 18.5645 158.756 18.4711 158.308 18.2845C157.869 18.0978 157.487 17.8411 157.16 17.5145C156.843 17.1878 156.591 16.8051 156.404 16.3665C156.217 15.9185 156.124 15.4378 156.124 14.9245C156.124 14.4205 156.213 13.9491 156.39 13.5105C156.577 13.0718 156.824 12.6891 157.132 12.3625C157.44 12.0358 157.804 11.7791 158.224 11.5925C158.653 11.4058 159.106 11.3125 159.582 11.3125C160.049 11.3125 160.483 11.4058 160.884 11.5925C161.295 11.7791 161.645 12.0358 161.934 12.3625C162.233 12.6891 162.466 13.0718 162.634 13.5105C162.811 13.9491 162.9 14.4205 162.9 14.9245V15.2465H157.146C157.221 15.9371 157.505 16.5111 158 16.9685C158.495 17.4258 159.087 17.6545 159.778 17.6545C160.142 17.6545 160.497 17.5985 160.842 17.4865C161.187 17.3745 161.477 17.2158 161.71 17.0105L162.354 17.6965ZM159.554 12.2225C158.947 12.2225 158.42 12.4278 157.972 12.8385C157.533 13.2491 157.267 13.7765 157.174 14.4205H161.864C161.771 13.8045 161.505 13.2865 161.066 12.8665C160.637 12.4371 160.133 12.2225 159.554 12.2225Z" fill="black"/>
<path d="M82.1486 39.5029L86.1806 29.7029H88.5326L92.5086 39.5029H90.3106L89.3166 36.9269H85.2706L84.2626 39.5029H82.1486ZM85.9006 35.3029H88.7006L87.3146 31.6909L85.9006 35.3029ZM93.2145 42.4289V32.2089H95.1045V32.8109C95.3938 32.5776 95.7158 32.4049 96.0705 32.2929C96.4252 32.1716 96.7938 32.1109 97.1765 32.1109C97.6898 32.1109 98.1705 32.2089 98.6185 32.4049C99.0758 32.6009 99.4725 32.8669 99.8085 33.2029C100.144 33.5389 100.406 33.9356 100.592 34.3929C100.788 34.8503 100.886 35.3403 100.886 35.8629C100.886 36.3856 100.788 36.8756 100.592 37.3329C100.396 37.7903 100.13 38.1869 99.7945 38.5229C99.4585 38.8589 99.0572 39.1249 98.5905 39.3209C98.1332 39.5076 97.6432 39.6009 97.1205 39.6009C96.7658 39.6009 96.4158 39.5543 96.0705 39.4609C95.7345 39.3583 95.4218 39.2136 95.1325 39.0269V42.4289H93.2145ZM96.8685 33.7489C96.5232 33.7489 96.2012 33.8096 95.9025 33.9309C95.6038 34.0429 95.3472 34.2109 95.1325 34.4349V37.3049C95.3378 37.5103 95.5898 37.6736 95.8885 37.7949C96.1965 37.9163 96.5232 37.9769 96.8685 37.9769C97.4658 37.9769 97.9698 37.7763 98.3805 37.3749C98.7912 36.9643 98.9965 36.4603 98.9965 35.8629C98.9965 35.2656 98.7865 34.7663 98.3665 34.3649C97.9558 33.9543 97.4565 33.7489 96.8685 33.7489ZM102.06 42.4289V32.2089H103.95V32.8109C104.24 32.5776 104.562 32.4049 104.916 32.2929C105.271 32.1716 105.64 32.1109 106.022 32.1109C106.536 32.1109 107.016 32.2089 107.464 32.4049C107.922 32.6009 108.318 32.8669 108.654 33.2029C108.99 33.5389 109.252 33.9356 109.438 34.3929C109.634 34.8503 109.732 35.3403 109.732 35.8629C109.732 36.3856 109.634 36.8756 109.438 37.3329C109.242 37.7903 108.976 38.1869 108.64 38.5229C108.304 38.8589 107.903 39.1249 107.436 39.3209C106.979 39.5076 106.489 39.6009 105.966 39.6009C105.612 39.6009 105.262 39.5543 104.916 39.4609C104.58 39.3583 104.268 39.2136 103.978 39.0269V42.4289H102.06ZM105.714 33.7489C105.369 33.7489 105.047 33.8096 104.748 33.9309C104.45 34.0429 104.193 34.2109 103.978 34.4349V37.3049C104.184 37.5103 104.436 37.6736 104.734 37.7949C105.042 37.9163 105.369 37.9769 105.714 37.9769C106.312 37.9769 106.816 37.7763 107.226 37.3749C107.637 36.9643 107.842 36.4603 107.842 35.8629C107.842 35.2656 107.632 34.7663 107.212 34.3649C106.802 33.9543 106.302 33.7489 105.714 33.7489ZM113.008 37.9489L114.17 36.4929C114.74 36.9876 115.286 37.3516 115.808 37.5849C116.34 37.8089 116.9 37.9209 117.488 37.9209C118.095 37.9209 118.58 37.8089 118.944 37.5849C119.308 37.3609 119.49 37.0623 119.49 36.6889C119.49 36.3529 119.364 36.0916 119.112 35.9049C118.87 35.7183 118.459 35.5783 117.88 35.4849L115.934 35.1489C115.094 35.0089 114.455 34.7149 114.016 34.2669C113.587 33.8189 113.372 33.2403 113.372 32.5309C113.372 31.6163 113.718 30.8929 114.408 30.3609C115.108 29.8289 116.051 29.5629 117.236 29.5629C117.946 29.5629 118.66 29.6843 119.378 29.9269C120.106 30.1696 120.741 30.5056 121.282 30.9349L120.19 32.4469C119.668 32.0456 119.154 31.7516 118.65 31.5649C118.146 31.3689 117.628 31.2709 117.096 31.2709C116.555 31.2709 116.121 31.3736 115.794 31.5789C115.468 31.7749 115.304 32.0409 115.304 32.3769C115.304 32.6756 115.412 32.9089 115.626 33.0769C115.841 33.2449 116.2 33.3663 116.704 33.4409L118.552 33.7489C119.523 33.9076 120.251 34.2203 120.736 34.6869C121.231 35.1443 121.478 35.7509 121.478 36.5069C121.478 37.4589 121.1 38.2196 120.344 38.7889C119.598 39.3583 118.599 39.6429 117.348 39.6429C116.564 39.6429 115.79 39.4936 115.024 39.1949C114.268 38.8963 113.596 38.4809 113.008 37.9489ZM123.289 37.4449V33.8189H121.791V32.2089H123.289V30.3469L125.207 29.9129V32.2089H127.279V33.8189H125.207V37.0529C125.207 37.3983 125.281 37.6409 125.431 37.7809C125.58 37.9209 125.841 37.9909 126.215 37.9909C126.392 37.9909 126.56 37.9816 126.719 37.9629C126.877 37.9349 127.05 37.8883 127.237 37.8229V39.3909C127.031 39.4563 126.784 39.5076 126.495 39.5449C126.205 39.5916 125.958 39.6149 125.753 39.6149C124.941 39.6149 124.325 39.4329 123.905 39.0689C123.494 38.6956 123.289 38.1543 123.289 37.4449ZM127.824 35.8629C127.824 35.3309 127.922 34.8363 128.118 34.3789C128.323 33.9123 128.598 33.5109 128.944 33.1749C129.298 32.8296 129.714 32.5589 130.19 32.3629C130.666 32.1669 131.174 32.0689 131.716 32.0689C132.257 32.0689 132.766 32.1669 133.242 32.3629C133.718 32.5589 134.128 32.8296 134.474 33.1749C134.828 33.5109 135.104 33.9123 135.3 34.3789C135.505 34.8363 135.608 35.3309 135.608 35.8629C135.608 36.3949 135.505 36.8943 135.3 37.3609C135.104 37.8183 134.828 38.2149 134.474 38.5509C134.128 38.8869 133.718 39.1529 133.242 39.3489C132.766 39.5449 132.257 39.6429 131.716 39.6429C131.174 39.6429 130.666 39.5449 130.19 39.3489C129.714 39.1529 129.298 38.8869 128.944 38.5509C128.598 38.2149 128.323 37.8183 128.118 37.3609C127.922 36.8943 127.824 36.3949 127.824 35.8629ZM131.716 37.9769C132.276 37.9769 132.752 37.7716 133.144 37.3609C133.536 36.9503 133.732 36.4509 133.732 35.8629C133.732 35.2656 133.536 34.7616 133.144 34.3509C132.752 33.9403 132.276 33.7349 131.716 33.7349C131.156 33.7349 130.68 33.9403 130.288 34.3509C129.896 34.7616 129.7 35.2656 129.7 35.8629C129.7 36.4509 129.896 36.9503 130.288 37.3609C130.68 37.7716 131.156 37.9769 131.716 37.9769ZM136.787 39.5029V32.2089H138.705V33.0069C138.938 32.6896 139.218 32.4516 139.545 32.2929C139.881 32.1249 140.249 32.0409 140.651 32.0409C140.837 32.0503 140.991 32.0689 141.113 32.0969C141.243 32.1156 141.355 32.1529 141.449 32.2089V33.8889C141.309 33.8236 141.155 33.7769 140.987 33.7489C140.819 33.7116 140.646 33.6929 140.469 33.6929C140.095 33.6929 139.75 33.7863 139.433 33.9729C139.125 34.1596 138.882 34.4303 138.705 34.7849V39.5029H136.787ZM148.67 38.5929C148.222 38.9569 147.76 39.2229 147.284 39.3909C146.818 39.5589 146.295 39.6429 145.716 39.6429C145.166 39.6429 144.648 39.5449 144.162 39.3489C143.686 39.1529 143.271 38.8869 142.916 38.5509C142.571 38.2149 142.296 37.8183 142.09 37.3609C141.894 36.8943 141.796 36.3949 141.796 35.8629C141.796 35.3403 141.89 34.8503 142.076 34.3929C142.272 33.9263 142.538 33.5249 142.874 33.1889C143.21 32.8436 143.607 32.5729 144.064 32.3769C144.531 32.1809 145.026 32.0829 145.548 32.0829C146.062 32.0829 146.538 32.1856 146.976 32.3909C147.424 32.5869 147.807 32.8576 148.124 33.2029C148.451 33.5483 148.703 33.9636 148.88 34.4489C149.067 34.9249 149.16 35.4429 149.16 36.0029V36.5069H143.728C143.859 36.9643 144.111 37.3329 144.484 37.6129C144.858 37.8929 145.296 38.0329 145.8 38.0329C146.118 38.0329 146.416 37.9816 146.696 37.8789C146.976 37.7763 147.214 37.6316 147.41 37.4449L148.67 38.5929ZM145.506 33.6649C145.068 33.6649 144.69 33.8003 144.372 34.0709C144.055 34.3323 143.836 34.6869 143.714 35.1349H147.284C147.163 34.7056 146.939 34.3556 146.612 34.0849C146.295 33.8049 145.926 33.6649 145.506 33.6649Z" fill="black"/>
<defs>
<clipPath id="clip0">
<rect width="28.4555" height="36.587" fill="white" transform="translate(21.0781 6.65527)"/>
</clipPath>
</defs>
</svg>
