<svg width="188" height="52" viewBox="0 0 188 52" fill="none" xmlns="http://www.w3.org/2000/svg">
<g clip-path="url(#clip0)">
<path d="M49.2189 24.3719L43.1062 20.5977L38.0723 25.5042L42.7467 30.4108L49.2189 26.2591C49.5785 25.8817 49.938 25.5042 49.938 25.1268C49.938 24.7494 49.5785 24.3719 49.2189 24.3719Z" fill="black"/>
<path d="M42.0272 19.8424L35.1954 15.6906L20.4531 7.76465L37.3529 24.7489L42.0272 19.8424Z" fill="black"/>
<path d="M20.4531 43.2426L35.1954 34.9392L41.6677 31.1649L37.3529 26.6357L20.4531 43.2426Z" fill="black"/>
<path d="M19.3745 8.51953V42.8655L36.2742 25.5038L19.3745 8.51953Z" fill="black"/>
</g>
<rect x="0.904297" y="0.50293" width="186.596" height="50" rx="3.5" stroke="black"/>
<path d="M66.8568 18.4385L70.9308 8.63848H72.2328L76.2508 18.4385H75.0748L73.8428 15.3585H69.2228L67.9768 18.4385H66.8568ZM69.6008 14.4345H73.4648L71.5468 9.64648L69.6008 14.4345ZM78.1256 18.4385L75.0876 11.4245H76.2356L78.6296 17.0945L81.0236 11.4245H82.1296L79.1056 18.4385H78.1256ZM85.2893 18.5645C84.524 18.5645 83.8986 18.3685 83.4133 17.9765C82.9373 17.5845 82.6993 17.0758 82.6993 16.4505C82.6993 15.7971 82.9513 15.2791 83.4553 14.8965C83.9593 14.5045 84.6406 14.3085 85.4993 14.3085C85.8726 14.3085 86.232 14.3505 86.5773 14.4345C86.932 14.5185 87.2586 14.6351 87.5573 14.7845V13.8605C87.5573 13.3005 87.3986 12.8805 87.0813 12.6005C86.764 12.3111 86.302 12.1665 85.6953 12.1665C85.35 12.1665 85 12.2178 84.6453 12.3205C84.3 12.4138 83.9173 12.5678 83.4973 12.7825L83.1053 11.9845C83.6093 11.7418 84.076 11.5645 84.5053 11.4525C84.9346 11.3405 85.364 11.2845 85.7933 11.2845C86.68 11.2845 87.3613 11.4945 87.8373 11.9145C88.3226 12.3345 88.5653 12.9365 88.5653 13.7205V18.4385H87.5573V17.7525C87.24 18.0231 86.89 18.2285 86.5073 18.3685C86.134 18.4991 85.728 18.5645 85.2893 18.5645ZM83.6933 16.4225C83.6933 16.8145 83.8566 17.1365 84.1833 17.3885C84.5193 17.6311 84.9486 17.7525 85.4713 17.7525C85.8913 17.7525 86.274 17.6871 86.6193 17.5565C86.9646 17.4258 87.2773 17.2205 87.5573 16.9405V15.6245C87.268 15.4285 86.9553 15.2885 86.6193 15.2045C86.2926 15.1111 85.9286 15.0645 85.5273 15.0645C84.9673 15.0645 84.5193 15.1905 84.1833 15.4425C83.8566 15.6851 83.6933 16.0118 83.6933 16.4225ZM90.8141 10.0805C90.6274 10.0805 90.4641 10.0105 90.3241 9.87048C90.1841 9.73048 90.1141 9.56714 90.1141 9.38048C90.1141 9.18448 90.1841 9.02114 90.3241 8.89048C90.4641 8.75048 90.6274 8.68048 90.8141 8.68048C91.0101 8.68048 91.1734 8.75048 91.3041 8.89048C91.4441 9.02114 91.5141 9.18448 91.5141 9.38048C91.5141 9.56714 91.4441 9.73048 91.3041 9.87048C91.1734 10.0105 91.0101 10.0805 90.8141 10.0805ZM91.3321 11.4245V18.4385H90.2961V11.4245H91.3321ZM94.1348 8.40048V18.4385H93.0988V8.63848L94.1348 8.40048ZM98.1135 18.5645C97.3482 18.5645 96.7229 18.3685 96.2375 17.9765C95.7615 17.5845 95.5235 17.0758 95.5235 16.4505C95.5235 15.7971 95.7755 15.2791 96.2795 14.8965C96.7835 14.5045 97.4649 14.3085 98.3235 14.3085C98.6969 14.3085 99.0562 14.3505 99.4015 14.4345C99.7562 14.5185 100.083 14.6351 100.382 14.7845V13.8605C100.382 13.3005 100.223 12.8805 99.9055 12.6005C99.5882 12.3111 99.1262 12.1665 98.5195 12.1665C98.1742 12.1665 97.8242 12.2178 97.4695 12.3205C97.1242 12.4138 96.7415 12.5678 96.3215 12.7825L95.9295 11.9845C96.4335 11.7418 96.9002 11.5645 97.3295 11.4525C97.7589 11.3405 98.1882 11.2845 98.6175 11.2845C99.5042 11.2845 100.186 11.4945 100.662 11.9145C101.147 12.3345 101.39 12.9365 101.39 13.7205V18.4385H100.382V17.7525C100.064 18.0231 99.7142 18.2285 99.3315 18.3685C98.9582 18.4991 98.5522 18.5645 98.1135 18.5645ZM96.5175 16.4225C96.5175 16.8145 96.6809 17.1365 97.0075 17.3885C97.3435 17.6311 97.7729 17.7525 98.2955 17.7525C98.7155 17.7525 99.0982 17.6871 99.4435 17.5565C99.7889 17.4258 100.102 17.2205 100.382 16.9405V15.6245C100.092 15.4285 99.7795 15.2885 99.4435 15.2045C99.1169 15.1111 98.7529 15.0645 98.3515 15.0645C97.7915 15.0645 97.3435 15.1905 97.0075 15.4425C96.6809 15.6851 96.5175 16.0118 96.5175 16.4225ZM109.938 14.9245C109.938 15.4285 109.845 15.9045 109.658 16.3525C109.481 16.8005 109.234 17.1878 108.916 17.5145C108.599 17.8318 108.221 18.0838 107.782 18.2705C107.353 18.4571 106.891 18.5505 106.396 18.5505C105.986 18.5505 105.584 18.4805 105.192 18.3405C104.81 18.2005 104.46 17.9998 104.142 17.7385V18.4385H103.12V8.63848L104.156 8.40048V12.1665C104.446 11.8865 104.782 11.6765 105.164 11.5365C105.556 11.3871 105.972 11.3125 106.41 11.3125C106.905 11.3125 107.367 11.4058 107.796 11.5925C108.226 11.7791 108.599 12.0358 108.916 12.3625C109.234 12.6798 109.481 13.0625 109.658 13.5105C109.845 13.9491 109.938 14.4205 109.938 14.9245ZM106.312 12.2225C105.874 12.2225 105.463 12.3111 105.08 12.4885C104.707 12.6565 104.399 12.8945 104.156 13.2025V16.6745C104.399 16.9731 104.712 17.2111 105.094 17.3885C105.477 17.5565 105.883 17.6405 106.312 17.6405C107.05 17.6405 107.666 17.3838 108.16 16.8705C108.664 16.3478 108.916 15.7038 108.916 14.9385C108.916 14.5558 108.846 14.2011 108.706 13.8745C108.576 13.5385 108.394 13.2491 108.16 13.0065C107.927 12.7638 107.652 12.5725 107.334 12.4325C107.017 12.2925 106.676 12.2225 106.312 12.2225ZM112.414 8.40048V18.4385H111.378V8.63848L112.414 8.40048ZM120.089 17.6965C119.697 17.9858 119.286 18.2051 118.857 18.3545C118.437 18.4945 117.975 18.5645 117.471 18.5645C116.967 18.5645 116.491 18.4711 116.043 18.2845C115.604 18.0978 115.221 17.8411 114.895 17.5145C114.577 17.1878 114.325 16.8051 114.139 16.3665C113.952 15.9185 113.859 15.4378 113.859 14.9245C113.859 14.4205 113.947 13.9491 114.125 13.5105C114.311 13.0718 114.559 12.6891 114.867 12.3625C115.175 12.0358 115.539 11.7791 115.959 11.5925C116.388 11.4058 116.841 11.3125 117.317 11.3125C117.783 11.3125 118.217 11.4058 118.619 11.5925C119.029 11.7791 119.379 12.0358 119.669 12.3625C119.967 12.6891 120.201 13.0718 120.369 13.5105C120.546 13.9491 120.635 14.4205 120.635 14.9245V15.2465H114.881C114.955 15.9371 115.24 16.5111 115.735 16.9685C116.229 17.4258 116.822 17.6545 117.513 17.6545C117.877 17.6545 118.231 17.5985 118.577 17.4865C118.922 17.3745 119.211 17.2158 119.445 17.0105L120.089 17.6965ZM117.289 12.2225C116.682 12.2225 116.155 12.4278 115.707 12.8385C115.268 13.2491 115.002 13.7765 114.909 14.4205H119.599C119.505 13.8045 119.239 13.2865 118.801 12.8665C118.371 12.4371 117.867 12.2225 117.289 12.2225ZM124.769 14.9245C124.769 14.4205 124.862 13.9445 125.049 13.4965C125.236 13.0485 125.488 12.6611 125.805 12.3345C126.132 12.0078 126.514 11.7511 126.953 11.5645C127.392 11.3778 127.858 11.2845 128.353 11.2845C128.848 11.2845 129.31 11.3778 129.739 11.5645C130.178 11.7511 130.556 12.0078 130.873 12.3345C131.2 12.6611 131.456 13.0485 131.643 13.4965C131.83 13.9445 131.923 14.4205 131.923 14.9245C131.923 15.4378 131.83 15.9185 131.643 16.3665C131.456 16.8145 131.2 17.2018 130.873 17.5285C130.556 17.8551 130.178 18.1118 129.739 18.2985C129.31 18.4851 128.848 18.5785 128.353 18.5785C127.858 18.5785 127.392 18.4851 126.953 18.2985C126.514 18.1118 126.132 17.8551 125.805 17.5285C125.488 17.2018 125.236 16.8145 125.049 16.3665C124.862 15.9185 124.769 15.4378 124.769 14.9245ZM128.353 17.6545C128.708 17.6545 129.039 17.5845 129.347 17.4445C129.664 17.3045 129.935 17.1131 130.159 16.8705C130.392 16.6185 130.574 16.3291 130.705 16.0025C130.836 15.6665 130.901 15.3071 130.901 14.9245C130.901 14.5418 130.836 14.1871 130.705 13.8605C130.574 13.5245 130.392 13.2351 130.159 12.9925C129.935 12.7498 129.664 12.5585 129.347 12.4185C129.039 12.2785 128.708 12.2085 128.353 12.2085C127.998 12.2085 127.662 12.2785 127.345 12.4185C127.037 12.5585 126.766 12.7498 126.533 12.9925C126.309 13.2351 126.127 13.5245 125.987 13.8605C125.856 14.1871 125.791 14.5418 125.791 14.9245C125.791 15.3071 125.856 15.6665 125.987 16.0025C126.118 16.3291 126.295 16.6185 126.519 16.8705C126.752 17.1131 127.028 17.3045 127.345 17.4445C127.662 17.5845 127.998 17.6545 128.353 17.6545ZM133.362 18.4385V11.4245H134.398V12.2505C134.669 11.9331 134.991 11.6951 135.364 11.5365C135.738 11.3685 136.153 11.2845 136.61 11.2845C137.404 11.2845 138.052 11.5365 138.556 12.0405C139.06 12.5445 139.312 13.1978 139.312 14.0005V18.4385H138.29V14.2105C138.29 13.5945 138.113 13.1045 137.758 12.7405C137.404 12.3765 136.928 12.1945 136.33 12.1945C135.91 12.1945 135.532 12.2878 135.196 12.4745C134.87 12.6611 134.604 12.9271 134.398 13.2725V18.4385H133.362ZM144.922 16.8705V12.3065H143.41V11.4245H144.922V9.64648L145.944 9.38048V11.4245H148.058V12.3065H145.944V16.6045C145.944 16.9778 146.028 17.2485 146.196 17.4165C146.364 17.5751 146.639 17.6545 147.022 17.6545C147.218 17.6545 147.391 17.6405 147.54 17.6125C147.699 17.5845 147.867 17.5378 148.044 17.4725V18.3825C147.867 18.4478 147.666 18.4945 147.442 18.5225C147.227 18.5505 147.017 18.5645 146.812 18.5645C146.205 18.5645 145.739 18.4198 145.412 18.1305C145.085 17.8411 144.922 17.4211 144.922 16.8705ZM149.167 18.4385V8.63848L150.203 8.40048V12.2505C150.474 11.9331 150.796 11.6951 151.169 11.5365C151.542 11.3685 151.958 11.2845 152.415 11.2845C153.208 11.2845 153.857 11.5365 154.361 12.0405C154.865 12.5445 155.117 13.1978 155.117 14.0005V18.4385H154.095V14.2105C154.095 13.5945 153.918 13.1045 153.563 12.7405C153.208 12.3765 152.732 12.1945 152.135 12.1945C151.715 12.1945 151.337 12.2878 151.001 12.4745C150.674 12.6611 150.408 12.9271 150.203 13.2725V18.4385H149.167ZM162.759 17.6965C162.367 17.9858 161.956 18.2051 161.527 18.3545C161.107 18.4945 160.645 18.5645 160.141 18.5645C159.637 18.5645 159.161 18.4711 158.713 18.2845C158.274 18.0978 157.891 17.8411 157.565 17.5145C157.247 17.1878 156.995 16.8051 156.809 16.3665C156.622 15.9185 156.529 15.4378 156.529 14.9245C156.529 14.4205 156.617 13.9491 156.795 13.5105C156.981 13.0718 157.229 12.6891 157.537 12.3625C157.845 12.0358 158.209 11.7791 158.629 11.5925C159.058 11.4058 159.511 11.3125 159.987 11.3125C160.453 11.3125 160.887 11.4058 161.289 11.5925C161.699 11.7791 162.049 12.0358 162.339 12.3625C162.637 12.6891 162.871 13.0718 163.039 13.5105C163.216 13.9491 163.305 14.4205 163.305 14.9245V15.2465H157.551C157.625 15.9371 157.91 16.5111 158.405 16.9685C158.899 17.4258 159.492 17.6545 160.183 17.6545C160.547 17.6545 160.901 17.5985 161.247 17.4865C161.592 17.3745 161.881 17.2158 162.115 17.0105L162.759 17.6965ZM159.959 12.2225C159.352 12.2225 158.825 12.4278 158.377 12.8385C157.938 13.2491 157.672 13.7765 157.579 14.4205H162.269C162.175 13.8045 161.909 13.2865 161.471 12.8665C161.041 12.4371 160.537 12.2225 159.959 12.2225Z" fill="black"/>
<path d="M86.8981 34.6169C86.8981 35.3356 86.7721 36.0076 86.5201 36.6329C86.2775 37.2489 85.9368 37.7809 85.4981 38.2289C85.0688 38.6676 84.5508 39.0176 83.9441 39.2789C83.3375 39.5309 82.6841 39.6569 81.9841 39.6569C81.2561 39.6569 80.5748 39.5263 79.9401 39.2649C79.3055 39.0036 78.7548 38.6489 78.2881 38.2009C77.8308 37.7436 77.4668 37.2069 77.1961 36.5909C76.9255 35.9749 76.7901 35.3123 76.7901 34.6029C76.7901 33.8936 76.9208 33.2309 77.1821 32.6149C77.4528 31.9989 77.8168 31.4669 78.2741 31.0189C78.7408 30.5616 79.2915 30.2023 79.9261 29.9409C80.5608 29.6796 81.2375 29.5489 81.9561 29.5489C82.7681 29.5489 83.5335 29.7123 84.2521 30.0389C84.9708 30.3656 85.5635 30.8136 86.0301 31.3829L84.6161 32.6849C84.2708 32.2743 83.8695 31.9616 83.4121 31.7469C82.9641 31.5229 82.4788 31.4109 81.9561 31.4109C81.5175 31.4109 81.1068 31.4949 80.7241 31.6629C80.3508 31.8216 80.0241 32.0456 79.7441 32.3349C79.4735 32.6149 79.2588 32.9509 79.1001 33.3429C78.9508 33.7256 78.8761 34.1456 78.8761 34.6029C78.8761 35.0603 78.9555 35.4849 79.1141 35.8769C79.2728 36.2689 79.4921 36.6096 79.7721 36.8989C80.0521 37.1789 80.3835 37.4029 80.7661 37.5709C81.1581 37.7296 81.5735 37.8089 82.0121 37.8089C82.7028 37.8089 83.2955 37.6176 83.7901 37.2349C84.2941 36.8523 84.6068 36.3623 84.7281 35.7649H81.8301V34.0009H86.8981V34.6169ZM87.8214 35.8629C87.8214 35.3309 87.9194 34.8363 88.1154 34.3789C88.3207 33.9123 88.596 33.5109 88.9414 33.1749C89.296 32.8296 89.7114 32.5589 90.1874 32.3629C90.6634 32.1669 91.172 32.0689 91.7134 32.0689C92.2547 32.0689 92.7634 32.1669 93.2394 32.3629C93.7154 32.5589 94.126 32.8296 94.4714 33.1749C94.826 33.5109 95.1014 33.9123 95.2974 34.3789C95.5027 34.8363 95.6054 35.3309 95.6054 35.8629C95.6054 36.3949 95.5027 36.8943 95.2974 37.3609C95.1014 37.8183 94.826 38.2149 94.4714 38.5509C94.126 38.8869 93.7154 39.1529 93.2394 39.3489C92.7634 39.5449 92.2547 39.6429 91.7134 39.6429C91.172 39.6429 90.6634 39.5449 90.1874 39.3489C89.7114 39.1529 89.296 38.8869 88.9414 38.5509C88.596 38.2149 88.3207 37.8183 88.1154 37.3609C87.9194 36.8943 87.8214 36.3949 87.8214 35.8629ZM91.7134 37.9769C92.2734 37.9769 92.7494 37.7716 93.1414 37.3609C93.5334 36.9503 93.7294 36.4509 93.7294 35.8629C93.7294 35.2656 93.5334 34.7616 93.1414 34.3509C92.7494 33.9403 92.2734 33.7349 91.7134 33.7349C91.1534 33.7349 90.6774 33.9403 90.2854 34.3509C89.8934 34.7616 89.6974 35.2656 89.6974 35.8629C89.6974 36.4509 89.8934 36.9503 90.2854 37.3609C90.6774 37.7716 91.1534 37.9769 91.7134 37.9769ZM96.503 35.8629C96.503 35.3309 96.601 34.8363 96.797 34.3789C97.0023 33.9123 97.2777 33.5109 97.623 33.1749C97.9777 32.8296 98.393 32.5589 98.869 32.3629C99.345 32.1669 99.8537 32.0689 100.395 32.0689C100.936 32.0689 101.445 32.1669 101.921 32.3629C102.397 32.5589 102.808 32.8296 103.153 33.1749C103.508 33.5109 103.783 33.9123 103.979 34.3789C104.184 34.8363 104.287 35.3309 104.287 35.8629C104.287 36.3949 104.184 36.8943 103.979 37.3609C103.783 37.8183 103.508 38.2149 103.153 38.5509C102.808 38.8869 102.397 39.1529 101.921 39.3489C101.445 39.5449 100.936 39.6429 100.395 39.6429C99.8537 39.6429 99.345 39.5449 98.869 39.3489C98.393 39.1529 97.9777 38.8869 97.623 38.5509C97.2777 38.2149 97.0023 37.8183 96.797 37.3609C96.601 36.8943 96.503 36.3949 96.503 35.8629ZM100.395 37.9769C100.955 37.9769 101.431 37.7716 101.823 37.3609C102.215 36.9503 102.411 36.4509 102.411 35.8629C102.411 35.2656 102.215 34.7616 101.823 34.3509C101.431 33.9403 100.955 33.7349 100.395 33.7349C99.835 33.7349 99.359 33.9403 98.967 34.3509C98.575 34.7616 98.379 35.2656 98.379 35.8629C98.379 36.4509 98.575 36.9503 98.967 37.3609C99.359 37.7716 99.835 37.9769 100.395 37.9769ZM108.881 39.5449C108.367 39.5449 107.882 39.4469 107.425 39.2509C106.977 39.0549 106.585 38.7889 106.249 38.4529C105.922 38.1169 105.661 37.7249 105.465 37.2769C105.278 36.8196 105.185 36.3296 105.185 35.8069C105.185 35.2936 105.283 34.8129 105.479 34.3649C105.675 33.9076 105.941 33.5109 106.277 33.1749C106.613 32.8389 107.009 32.5776 107.467 32.3909C107.924 32.1949 108.414 32.0969 108.937 32.0969C109.301 32.0969 109.646 32.1483 109.973 32.2509C110.309 32.3536 110.621 32.4983 110.911 32.6849V32.2089H112.801V39.5029C112.801 40.4643 112.488 41.2063 111.863 41.7289C111.247 42.2516 110.355 42.5129 109.189 42.5129C108.629 42.5129 108.087 42.4569 107.565 42.3449C107.051 42.2329 106.58 42.0696 106.151 41.8549L106.823 40.3569C107.224 40.5529 107.616 40.6976 107.999 40.7909C108.381 40.8936 108.764 40.9449 109.147 40.9449C109.716 40.9449 110.145 40.8189 110.435 40.5669C110.733 40.3243 110.883 39.9649 110.883 39.4889V38.8869C110.593 39.1016 110.276 39.2649 109.931 39.3769C109.595 39.4889 109.245 39.5449 108.881 39.5449ZM107.075 35.8069C107.075 36.3949 107.275 36.8943 107.677 37.3049C108.087 37.7156 108.587 37.9209 109.175 37.9209C109.52 37.9209 109.837 37.8649 110.127 37.7529C110.416 37.6316 110.668 37.4683 110.883 37.2629V34.3929C110.677 34.1876 110.425 34.0289 110.127 33.9169C109.828 33.7956 109.515 33.7349 109.189 33.7349C108.601 33.7349 108.101 33.9356 107.691 34.3369C107.28 34.7383 107.075 35.2283 107.075 35.8069ZM116.23 29.2829V39.5029H114.312V29.7029L116.23 29.2829ZM124.268 38.5929C123.82 38.9569 123.358 39.2229 122.882 39.3909C122.415 39.5589 121.892 39.6429 121.314 39.6429C120.763 39.6429 120.245 39.5449 119.76 39.3489C119.284 39.1529 118.868 38.8869 118.514 38.5509C118.168 38.2149 117.893 37.8183 117.688 37.3609C117.492 36.8943 117.394 36.3949 117.394 35.8629C117.394 35.3403 117.487 34.8503 117.674 34.3929C117.87 33.9263 118.136 33.5249 118.472 33.1889C118.808 32.8436 119.204 32.5729 119.662 32.3769C120.128 32.1809 120.623 32.0829 121.146 32.0829C121.659 32.0829 122.135 32.1856 122.574 32.3909C123.022 32.5869 123.404 32.8576 123.722 33.2029C124.048 33.5483 124.3 33.9636 124.478 34.4489C124.664 34.9249 124.758 35.4429 124.758 36.0029V36.5069H119.326C119.456 36.9643 119.708 37.3329 120.082 37.6129C120.455 37.8929 120.894 38.0329 121.398 38.0329C121.715 38.0329 122.014 37.9816 122.294 37.8789C122.574 37.7763 122.812 37.6316 123.008 37.4449L124.268 38.5929ZM121.104 33.6649C120.665 33.6649 120.287 33.8003 119.97 34.0709C119.652 34.3323 119.433 34.6869 119.312 35.1349H122.882C122.76 34.7056 122.536 34.3556 122.21 34.0849C121.892 33.8049 121.524 33.6649 121.104 33.6649ZM128.875 39.5029V29.7029H133.789C134.265 29.7029 134.704 29.7823 135.105 29.9409C135.516 30.0903 135.866 30.3003 136.155 30.5709C136.444 30.8416 136.668 31.1683 136.827 31.5509C136.995 31.9243 137.079 32.3349 137.079 32.7829C137.079 33.2216 136.995 33.6276 136.827 34.0009C136.668 34.3649 136.44 34.6823 136.141 34.9529C135.852 35.2236 135.506 35.4336 135.105 35.5829C134.704 35.7323 134.265 35.8069 133.789 35.8069H130.905V39.5029H128.875ZM133.565 31.4529H130.905V34.1269H133.565C134.004 34.1269 134.354 34.0056 134.615 33.7629C134.886 33.5203 135.021 33.1983 135.021 32.7969C135.021 32.3956 134.886 32.0736 134.615 31.8309C134.354 31.5789 134.004 31.4529 133.565 31.4529ZM140.196 29.2829V39.5029H138.278V29.7029L140.196 29.2829ZM144.006 39.6289C143.222 39.6289 142.583 39.4236 142.088 39.0129C141.594 38.5929 141.346 38.0516 141.346 37.3889C141.346 36.6983 141.612 36.1569 142.144 35.7649C142.676 35.3729 143.409 35.1769 144.342 35.1769C144.641 35.1769 144.94 35.2003 145.238 35.2469C145.537 35.2936 145.831 35.3636 146.12 35.4569V34.9389C146.12 34.5189 145.99 34.2016 145.728 33.9869C145.467 33.7723 145.084 33.6649 144.58 33.6649C144.272 33.6649 143.936 33.7163 143.572 33.8189C143.218 33.9123 142.812 34.0616 142.354 34.2669L141.654 32.8529C142.224 32.5916 142.774 32.3956 143.306 32.2649C143.848 32.1343 144.38 32.0689 144.902 32.0689C145.882 32.0689 146.643 32.3069 147.184 32.7829C147.735 33.2496 148.01 33.9123 148.01 34.7709V39.5029H146.12V38.9989C145.812 39.2136 145.486 39.3723 145.14 39.4749C144.804 39.5776 144.426 39.6289 144.006 39.6289ZM143.18 37.3469C143.18 37.6269 143.302 37.8509 143.544 38.0189C143.787 38.1776 144.109 38.2569 144.51 38.2569C144.828 38.2569 145.117 38.2196 145.378 38.1449C145.649 38.0609 145.896 37.9443 146.12 37.7949V36.7029C145.887 36.6096 145.64 36.5443 145.378 36.5069C145.126 36.4603 144.86 36.4369 144.58 36.4369C144.142 36.4369 143.796 36.5209 143.544 36.6889C143.302 36.8476 143.18 37.0669 143.18 37.3469ZM151.299 39.8389L151.411 39.5729L148.569 32.2089H150.683L152.489 37.1789L154.561 32.2089H156.633L153.273 40.0769C152.9 40.9543 152.466 41.5796 151.971 41.9529C151.477 42.3263 150.833 42.5129 150.039 42.5129C149.871 42.5129 149.708 42.5036 149.549 42.4849C149.4 42.4756 149.279 42.4569 149.185 42.4289V40.7769C149.279 40.7956 149.377 40.8096 149.479 40.8189C149.582 40.8283 149.708 40.8329 149.857 40.8329C150.203 40.8329 150.492 40.7489 150.725 40.5809C150.968 40.4129 151.159 40.1656 151.299 39.8389Z" fill="black"/>
<defs>
<clipPath id="clip0">
<rect width="30.5633" height="35.4783" fill="white" transform="translate(19.3745 7.76465)"/>
</clipPath>
</defs>
</svg>
