<?xml version="1.0" encoding="utf-8"?>
<!-- Generator: Adobe Illustrator 16.0.2, SVG Export Plug-In . SVG Version: 6.00 Build 0)  -->
<!DOCTYPE svg PUBLIC "-//W3C//DTD SVG 1.1//EN" "http://www.w3.org/Graphics/SVG/1.1/DTD/svg11.dtd">
<svg version="1.1" id="Layer_1" xmlns="http://www.w3.org/2000/svg" xmlns:xlink="http://www.w3.org/1999/xlink" x="0px" y="0px"
	 width="720px" height="631px" viewBox="0 0 720 631" enable-background="new 0 0 720 631" xml:space="preserve">
<g>
	<g>
		<g>
			<defs>
				<rect id="SVGID_1_" x="3.658" y="1" width="716.342" height="498.086"/>
			</defs>
			<clipPath id="SVGID_2_">
				<use xlink:href="#SVGID_1_"  overflow="visible"/>
			</clipPath>
			<g clip-path="url(#SVGID_2_)">
				<path fill="#EBF5F7" d="M318.067,499.086c137.087,0,248.217-111.01,248.217-247.948C566.284,114.2,455.154,3.19,318.067,3.19
					C180.98,3.19,69.849,114.2,69.849,251.138C69.849,388.076,180.98,499.086,318.067,499.086z"/>
				<path fill="#EBF5F7" d="M507.071,333.589c91.94,0,166.475-74.453,166.475-166.295C673.546,75.453,599.013,1,507.071,1
					c-91.942,0-166.477,74.453-166.477,166.294C340.596,259.136,415.129,333.589,507.071,333.589z"/>
				<path fill="#EBF5F7" d="M489.727,490.125c80.271,0,145.343-65.001,145.343-145.184c0-80.185-65.072-145.186-145.343-145.186
					s-145.343,65.001-145.343,145.186C344.384,425.124,409.456,490.125,489.727,490.125z"/>
				<path fill="#EBF5F7" d="M572.266,407.476c81.701,0,147.935-66.161,147.935-147.771c0-81.613-66.232-147.773-147.935-147.773
					c-81.701,0-147.934,66.16-147.934,147.773C424.332,341.314,490.564,407.476,572.266,407.476z"/>
				<path fill="#EBF5F7" d="M86.995,291.567c46.026,0,83.337-37.271,83.337-83.247c0-45.977-37.311-83.247-83.337-83.247
					c-46.026,0-83.337,37.271-83.337,83.247C3.658,254.296,40.969,291.567,86.995,291.567z"/>
			</g>
		</g>
	</g>
	<g opacity="0.35">
		<path opacity="0.35" fill="#A3BCD3" enable-background="new    " d="M26.631,469.653h83.289c6.527,0,12.01-5.483,12.01-12.013
			v-83.289c0-6.528-5.483-12.013-12.01-12.013H26.631c-6.527,0-12.01,5.483-12.01,12.013v83.289
			C14.621,464.17,20.104,469.653,26.631,469.653z"/>
		<path opacity="0.35" fill="#A3BCD3" enable-background="new    " d="M19.321,469.654h83.289c6.527,0,12.01-5.483,12.01-12.013
			v-83.29c0-6.527-5.483-12.012-12.01-12.012H19.321c-6.527,0-12.01,5.483-12.01,12.012v83.29
			C7.311,464.171,12.793,469.654,19.321,469.654z"/>
		<path opacity="0.35" fill="#A3BCD3" enable-background="new    " d="M88.25,446.415L82.767,404.9c-0.261-2.352-2.35-4.18-4.7-4.18
			h-3.133v-7.049c0-7.313-6.005-13.316-13.315-13.316s-13.316,6.006-13.316,13.316v7.049h-4.7c-2.35,0-4.438,1.828-4.7,4.18
			l-4.7,41.515c-0.261,2.873,1.828,5.222,4.7,5.222H83.55C86.422,451.899,88.511,449.288,88.25,446.415z M50.652,393.412
			c0-5.745,4.699-10.706,10.705-10.706c5.744,0,10.705,4.7,10.705,10.706v7.049h-21.41V393.412z"/>
	</g>
	<path fill="#E86352" d="M19.321,459.732h83.289c6.527,0,12.01-5.483,12.01-12.013v-83.29c0-6.527-5.483-12.011-12.01-12.011H19.321
		c-6.527,0-12.01,5.483-12.01,12.011v83.291C7.311,454.51,12.793,459.732,19.321,459.732z"/>
	<path fill="#F77B63" d="M12.01,459.733h83.289c6.527,0,12.01-5.483,12.01-12.013v-83.289c0-6.528-5.483-12.013-12.01-12.013H12.01
		C5.483,352.42,0,357.903,0,364.432v83.29C0,454.511,5.483,459.733,12.01,459.733z"/>
	<path fill="#FFFFFF" d="M80.939,436.495l-5.483-41.517c-0.261-2.351-2.35-4.178-4.7-4.178h-3.133v-7.05
		c0-7.312-6.005-13.315-13.315-13.315s-13.316,6.006-13.316,13.315v7.05h-4.7c-2.35,0-4.438,1.827-4.7,4.178l-4.7,41.517
		c-0.261,2.872,1.828,5.222,4.7,5.222H76.5C79.111,441.979,81.2,439.367,80.939,436.495z M43.341,383.752
		c0-5.744,4.7-10.705,10.705-10.705c5.744,0,10.705,4.699,10.705,10.705v7.05h-21.41V383.752z"/>
	<rect x="156.022" y="39.171" fill="none" width="316.595" height="591.36"/>
	<defs>
		<filter id="Adobe_OpacityMaskFilter" filterUnits="userSpaceOnUse" x="156.022" y="39.171" width="316.595" height="591.36">
			<feColorMatrix  type="matrix" values="1 0 0 0 0  0 1 0 0 0  0 0 1 0 0  0 0 0 1 0"/>
		</filter>
	</defs>
	<mask maskUnits="userSpaceOnUse" x="156.022" y="39.171" width="316.595" height="591.36" id="mask0">
		<rect x="156.022" y="39.171" fill="none" filter="url(#Adobe_OpacityMaskFilter)" width="316.595" height="591.36"/>
	</mask>
	<g mask="url(#mask0)">
		<rect x="156.022" y="39.171" opacity="0.5" fill="#092348" enable-background="new    " width="316.595" height="591.36"/>
	</g>
	<path fill="#FEFEFE" d="M150.744,308.235c0.001-80.18-0.016-160.359,0.018-240.538c0.006-12.837,5.042-23.551,14.422-32.21
		c4.787-4.418,10.416-7.31,16.914-8.296c1.684-0.255,3.405-0.367,5.109-0.368c51.518-0.02,103.035-0.015,154.553-0.014
		c16.224,0,32.445,0.128,48.666-0.046c10.555-0.114,19.148,3.881,26.172,11.502c6.713,7.283,10.54,15.915,11.491,25.789
		c0.123,1.286,0.08,2.589,0.08,3.884c0.003,98.837,0.003,197.676,0.003,296.514c0.001,61.469-0.079,122.938,0.057,184.407
		c0.033,15.208-10.147,31.102-24.105,37.466c-4.405,2.009-9.011,2.973-13.861,2.971c-55.353-0.018-110.706-0.012-166.059-0.012
		c-11.558,0-23.117-0.111-34.673,0.036c-9.119,0.117-16.96-2.979-23.754-8.85c-7.704-6.653-12.701-14.964-14.486-25.053
		c-0.403-2.28-0.522-4.636-0.524-6.958c-0.031-38.405-0.022-76.81-0.022-115.215C150.743,391.575,150.743,349.905,150.744,308.235z"
		/>
	<g>
		<rect x="150.584" y="26.605" fill="none" width="277.875" height="562.748"/>
	</g>
	<g>
		<rect x="150.584" y="26.605" fill="none" width="277.875" height="562.748"/>
	</g>
	<path fill="#E2F6D7" d="M412.443,65.001v484.533c-0.102,0.76-0.205,1.52-0.302,2.281c-0.075,0.61-0.068,1.242-0.221,1.836
		c-2.526,9.939-8.584,16.486-18.586,19.175c-1.585,0.426-3.225,0.647-4.84,0.966H191.947c-0.504-0.091-1.005-0.204-1.512-0.269
		c-10.577-1.368-17.832-6.979-21.594-16.986c-1.33-3.538-1.557-7.253-1.557-11.007c0.012-152.104,0.011-304.205,0.008-456.309
		c0-2.954-0.023-5.908-0.054-8.862c-0.005-0.455-0.112-0.909-0.171-1.364v-5.287c0.068-0.713,0.157-1.426,0.202-2.141
		c0.184-2.893,0.088-5.831,0.576-8.67c1.987-11.577,11.522-20.299,23.236-20.825c8.894-0.4,17.818-0.161,26.729-0.136
		c2.188,0.006,3.321,1.352,3.434,3.592c0.075,1.499,0.091,3.017,0.353,4.486c1.214,6.797,6.883,11.499,13.817,11.508
		c13.212,0.017,26.424,0.018,39.636,0.02c22.953,0.001,45.905,0,68.858-0.007c0.772,0,1.56-0.009,2.322-0.128
		c7.241-1.137,12.032-6.717,12.15-14.088c0.016-0.928,0.109-1.859,0.233-2.78c0.124-0.922,0.592-1.737,1.439-2.087
		c0.788-0.325,1.689-0.517,2.542-0.521c7.409-0.039,14.818-0.035,22.229-0.015c2.69,0.007,5.377,0.098,8.031,0.673
		c10.287,2.229,18.248,11.075,19.343,21.538C412.23,64.424,412.36,64.71,412.443,65.001z"/>
	<defs>
		<filter id="Adobe_OpacityMaskFilter_1_" filterUnits="userSpaceOnUse" x="150.584" y="26.605" width="277.875" height="562.748">
			<feColorMatrix  type="matrix" values="1 0 0 0 0  0 1 0 0 0  0 0 1 0 0  0 0 0 1 0"/>
		</filter>
	</defs>
	<mask maskUnits="userSpaceOnUse" x="150.584" y="26.605" width="277.875" height="562.748" id="mask1">
		<path fill="#FFFFFF" filter="url(#Adobe_OpacityMaskFilter_1_)" d="M412.443,65.001v484.533c-0.102,0.76-0.205,1.52-0.302,2.281
			c-0.075,0.61-0.068,1.242-0.221,1.836c-2.526,9.939-8.584,16.486-18.586,19.175c-1.585,0.426-3.225,0.647-4.84,0.966H191.947
			c-0.504-0.091-1.005-0.204-1.512-0.269c-10.577-1.368-17.832-6.979-21.594-16.986c-1.33-3.538-1.557-7.253-1.557-11.007
			c0.012-152.104,0.011-304.205,0.008-456.309c0-2.954-0.023-5.908-0.054-8.862c-0.005-0.455-0.112-0.909-0.171-1.364v-5.287
			c0.068-0.713,0.157-1.426,0.202-2.141c0.184-2.893,0.088-5.831,0.576-8.67c1.987-11.577,11.522-20.299,23.236-20.825
			c8.894-0.4,17.818-0.161,26.729-0.136c2.188,0.006,3.321,1.352,3.434,3.592c0.075,1.499,0.091,3.017,0.353,4.486
			c1.214,6.797,6.883,11.499,13.817,11.508c13.212,0.017,26.424,0.018,39.636,0.02c22.953,0.001,45.905,0,68.858-0.007
			c0.772,0,1.56-0.009,2.322-0.128c7.241-1.137,12.032-6.717,12.15-14.088c0.016-0.928,0.109-1.859,0.233-2.78
			c0.124-0.922,0.592-1.737,1.439-2.087c0.788-0.325,1.689-0.517,2.542-0.521c7.409-0.039,14.818-0.035,22.229-0.015
			c2.69,0.007,5.377,0.098,8.031,0.673c10.287,2.229,18.248,11.075,19.343,21.538C412.23,64.424,412.36,64.71,412.443,65.001z"/>
	</mask>
	<g mask="url(#mask1)">
		<path fill="#D8D8D8" d="M166.868,574.325V41.253h245.975v533.072H166.868z"/>
		<path fill="none" d="M166.868,574.325V41.253h245.975v533.072H166.868z"/>
		<g>
			<rect x="150.584" y="26.605" fill="none" width="277.875" height="562.748"/>
		</g>
		<g>
			<rect x="150.584" y="26.605" fill="none" width="277.875" height="562.748"/>
		</g>
	</g>
	<path fill="none" stroke="#C4D1D7" stroke-width="2" stroke-linejoin="round" stroke-opacity="0.38" d="M167.406,307.898
		c0-73.387,0.001-146.774,0.003-220.16c0-7.203-0.099-14.41,0.078-21.61c0.278-11.264,8.744-21.253,19.75-23.597
		c1.976-0.425,3.992-0.64,6.013-0.642c8.033,0.001,16.065,0,24.096-0.006c1.191-0.003,2.269,0.201,3.096,1.135
		c0.614,0.695,0.836,1.521,0.854,2.435c0.034,1.71,0.065,3.429,0.435,5.104c1.403,6.343,6.853,10.878,13.368,10.93
		c9.896,0.08,19.795,0.028,29.693,0.03c26.117,0.001,52.235,0.001,78.353,0c1.346,0,2.688,0.009,4.022-0.271
		c6.271-1.279,10.874-6.649,11.179-13.042c0.051-0.983,0.04-1.971,0.112-2.952c0.152-2.09,1.424-3.345,3.528-3.35
		c8.602-0.019,17.207-0.151,25.806,0.048c11.349,0.265,20.635,7.598,23.83,18.49c0.597,2.041,0.897,4.157,0.891,6.284
		c-0.01,17.312-0.009,34.623,0.002,51.932c0,142.626,0.005,285.256,0.017,427.889c0,3.592-0.185,7.138-1.539,10.528
		c-3.649,9.11-10.303,14.544-19.958,16.296c-1.692,0.311-3.404,0.311-5.113,0.311h-187.02c-2.28,0-4.563,0.031-6.841-0.047
		c-12.213-0.389-22.227-9.128-24.315-21.179c-0.303-1.757-0.333-3.514-0.333-5.271c-0.004-53.646-0.005-107.288-0.003-160.925
		v-78.361L167.406,307.898L167.406,307.898z"/>
	<rect x="31.702" y="123.541" fill="none" width="200.576" height="98.154"/>
	<g opacity="0.35">
		<path opacity="0.35" fill="#A3BCD3" enable-background="new    " d="M539.355,90.605c22.586,0,40.895-18.309,40.895-40.895
			S561.941,8.814,539.355,8.814c-22.584,0-40.895,18.31-40.895,40.896S516.771,90.605,539.355,90.605z"/>
		<path opacity="0.35" fill="#A3BCD3" enable-background="new    " d="M534.686,90.605c22.586,0,40.896-18.309,40.896-40.895
			s-18.31-40.896-40.896-40.896c-22.584,0-40.894,18.31-40.894,40.896S512.102,90.605,534.686,90.605z"/>
		<path opacity="0.35" fill="#A3BCD3" enable-background="new    " d="M569.637,49.711c0,18.962-14.999,34.244-33.817,34.952
			c-0.425,0-0.707,0-1.134,0c-19.242,0-34.949-15.708-34.949-34.952c0-19.245,15.707-34.952,34.949-34.952c0.427,0,0.709,0,1.134,0
			C554.638,15.325,569.637,30.749,569.637,49.711z"/>
		<path opacity="0.35" fill="#A3BCD3" enable-background="new    " d="M569.637,49.711c0,18.962-15,34.244-33.817,34.952
			C516.999,83.955,502,68.531,502,49.711c0-18.962,14.999-34.386,33.819-34.952C554.637,15.325,569.637,30.749,569.637,49.711z"/>
		<path opacity="0.35" fill="#A3BCD3" enable-background="new    " d="M535.393,23.391l-1.979,25.896
			c0,0.142,0.142,0.283,0.283,0.283h4.104c0.142,0,0.283-0.142,0.283-0.283l-2.123-25.896
			C535.959,22.966,535.393,22.966,535.393,23.391z"/>
		<path opacity="0.35" fill="#A3BCD3" enable-background="new    " d="M553.788,49.285l-17.829-1.981
			c-0.141,0-0.424,0.143-0.424,0.283v3.962c0,0.142,0.141,0.425,0.424,0.283l17.829-1.84
			C554.213,49.992,554.213,49.285,553.788,49.285z"/>
		<path opacity="0.35" fill="#A3BCD3" enable-background="new    " d="M535.676,51.973c1.329,0,2.406-1.077,2.406-2.405
			c0-1.328-1.077-2.406-2.406-2.406s-2.404,1.077-2.404,2.406C533.271,50.897,534.347,51.973,535.676,51.973z"/>
		<path opacity="0.35" fill="#A3BCD3" enable-background="new    " d="M535.818,21.125h-0.283c-0.144,0-0.425-0.141-0.425-0.424
			v-2.547c0-0.143,0.142-0.425,0.425-0.425h0.283c0.141,0,0.424,0.142,0.424,0.425v2.547
			C536.102,20.984,535.959,21.125,535.818,21.125z"/>
		<path opacity="0.35" fill="#A3BCD3" enable-background="new    " d="M521.526,24.946l-0.283,0.142
			c-0.143,0.142-0.424,0-0.566-0.142l-1.271-2.123c-0.144-0.142,0-0.424,0.141-0.566l0.283-0.142c0.142-0.142,0.425,0,0.565,0.142
			l1.273,2.123C521.809,24.663,521.668,24.946,521.526,24.946z"/>
		<path opacity="0.35" fill="#A3BCD3" enable-background="new    " d="M511.055,35.419l-0.141,0.283
			c-0.143,0.142-0.283,0.283-0.566,0.142l-2.123-1.272c-0.141-0.143-0.281-0.283-0.141-0.566l0.141-0.283
			c0.144-0.142,0.283-0.283,0.566-0.142l2.123,1.273C511.055,35.136,511.197,35.277,511.055,35.419z"/>
		<path opacity="0.35" fill="#A3BCD3" enable-background="new    " d="M507.235,49.71v0.283c0,0.142-0.144,0.424-0.425,0.424h-2.549
			c-0.141,0-0.424-0.141-0.424-0.424V49.71c0-0.142,0.143-0.425,0.424-0.425h2.549C507.093,49.427,507.235,49.568,507.235,49.71z"/>
		<path opacity="0.35" fill="#A3BCD3" enable-background="new    " d="M511.055,64.002l0.144,0.283c0.141,0.141,0,0.424-0.144,0.566
			l-2.122,1.273c-0.142,0.142-0.425,0-0.564-0.142l-0.144-0.283c-0.141-0.142,0-0.425,0.144-0.566l2.122-1.273
			C510.771,63.86,511.055,63.86,511.055,64.002z"/>
		<path opacity="0.35" fill="#A3BCD3" enable-background="new    " d="M521.527,74.474l0.283,0.142
			c0.141,0.142,0.281,0.283,0.141,0.566l-1.273,2.123c-0.142,0.142-0.283,0.283-0.564,0.142l-0.283-0.142
			c-0.143-0.142-0.283-0.283-0.143-0.566l1.273-2.123C521.102,74.474,521.385,74.474,521.527,74.474z"/>
		<path opacity="0.35" fill="#A3BCD3" enable-background="new    " d="M535.818,78.294h0.283c0.142,0,0.425,0.142,0.425,0.425v2.405
			c0,0.142-0.144,0.425-0.425,0.425h-0.283c-0.143,0-0.424-0.142-0.424-0.425v-2.547C535.535,78.436,535.677,78.294,535.818,78.294z
			"/>
		<path opacity="0.35" fill="#A3BCD3" enable-background="new    " d="M550.11,74.475l0.281-0.142c0.143-0.142,0.425,0,0.566,0.142
			l1.272,2.123c0.143,0.142,0,0.424-0.142,0.566l-0.283,0.142c-0.142,0.142-0.425,0-0.564-0.142l-1.274-2.123
			C549.968,74.757,549.968,74.616,550.11,74.475z"/>
		<path opacity="0.35" fill="#A3BCD3" enable-background="new    " d="M560.581,64.002l0.141-0.283
			c0.144-0.142,0.283-0.283,0.566-0.142l2.123,1.273c0.141,0.142,0.283,0.283,0.141,0.566l-0.141,0.142
			c-0.143,0.141-0.283,0.283-0.566,0.141l-2.123-1.273C560.581,64.426,560.439,64.143,560.581,64.002z"/>
		<path opacity="0.35" fill="#A3BCD3" enable-background="new    " d="M564.401,49.71v-0.283c0-0.141,0.141-0.424,0.424-0.424h2.547
			c0.142,0,0.425,0.142,0.425,0.424v0.283c0,0.142-0.142,0.424-0.425,0.424h-2.547C564.542,50.135,564.401,49.852,564.401,49.71z"/>
		<path opacity="0.35" fill="#A3BCD3" enable-background="new    " d="M560.58,35.418l-0.141-0.283
			c-0.144-0.142,0-0.425,0.141-0.566l2.123-1.273c0.141-0.142,0.424,0,0.566,0.142l0.141,0.283c0.142,0.142,0,0.424-0.141,0.566
			l-2.123,1.273C560.863,35.702,560.722,35.56,560.58,35.418z"/>
		<path opacity="0.35" fill="#A3BCD3" enable-background="new    " d="M550.11,24.946l-0.283-0.143
			c-0.143-0.142-0.283-0.283-0.143-0.565l1.273-2.123c0.141-0.142,0.283-0.283,0.565-0.142l0.282,0.142
			c0.143,0.142,0.283,0.283,0.143,0.566l-1.273,2.123C550.534,24.946,550.251,25.088,550.11,24.946z"/>
	</g>
	<path fill="#617EDB" d="M535.252,85.228c22.585,0,40.895-18.31,40.895-40.895c0-22.586-18.31-40.896-40.895-40.896
		s-40.894,18.31-40.894,40.896C494.358,66.918,512.667,85.228,535.252,85.228z"/>
	<path fill="#788EEA" d="M530.724,85.229c22.585,0,40.896-18.31,40.896-40.895c0-22.586-18.311-40.896-40.896-40.896
		s-40.894,18.31-40.894,40.896C489.83,66.919,508.139,85.229,530.724,85.229z"/>
	<path fill="#617EDB" d="M565.674,44.335c0,18.962-14.999,34.244-33.818,34.952c-0.425,0-0.706,0-1.132,0
		c-19.243,0-34.95-15.708-34.95-34.952c0-19.245,15.707-34.952,34.95-34.952c0.425,0,0.707,0,1.132,0
		C550.675,10.09,565.674,25.373,565.674,44.335z"/>
	<path fill="#B6C7FC" d="M565.675,44.333c0,18.962-15,34.244-33.819,34.952c-18.818-0.566-33.817-15.99-33.817-34.952
		s14.999-34.386,33.817-34.952C550.675,10.088,565.675,25.371,565.675,44.333z"/>
	<path fill="#FFFFFF" d="M531.29,18.013l-1.981,25.896c0,0.142,0.144,0.283,0.283,0.283h4.104c0.141,0,0.282-0.141,0.282-0.283
		l-1.98-25.896C531.855,17.73,531.432,17.73,531.29,18.013z"/>
	<path fill="#FFFFFF" d="M549.826,43.908l-17.829-1.981c-0.142,0-0.424,0.142-0.424,0.283v3.962c0,0.142,0.141,0.425,0.424,0.283
		l17.829-1.981C550.251,44.615,550.251,44.049,549.826,43.908z"/>
	<path fill="#788EEA" d="M531.715,46.738c1.328,0,2.405-1.077,2.405-2.406s-1.077-2.406-2.405-2.406
		c-1.329,0-2.406,1.077-2.406,2.406S530.386,46.738,531.715,46.738z"/>
	<path fill="#788EEA" d="M531.855,15.89h-0.282c-0.144,0-0.425-0.141-0.425-0.424v-2.547c0-0.142,0.142-0.425,0.425-0.425h0.282
		c0.142,0,0.425,0.142,0.425,0.425v2.547C532.139,15.607,531.997,15.89,531.855,15.89z"/>
	<path fill="#788EEA" d="M517.564,19.711l-0.283,0.142c-0.143,0.142-0.424,0-0.566-0.142l-1.271-2.123
		c-0.144-0.142,0-0.424,0.141-0.566l0.283-0.142c0.142-0.142,0.425,0,0.564,0.142l1.274,2.123
		C517.706,19.287,517.706,19.569,517.564,19.711z"/>
	<path fill="#788EEA" d="M507.093,30.183l-0.141,0.283c-0.142,0.142-0.283,0.283-0.566,0.142l-2.123-1.274
		c-0.141-0.141-0.282-0.283-0.141-0.565l0.141-0.283c0.144-0.142,0.283-0.283,0.566-0.142l2.123,1.273
		C507.093,29.758,507.235,30.041,507.093,30.183z"/>
	<path fill="#788EEA" d="M503.271,44.474v0.283c0,0.142-0.142,0.424-0.425,0.424H500.3c-0.142,0-0.425-0.142-0.425-0.424v-0.283
		c0-0.141,0.142-0.424,0.425-0.424h2.547C503.131,44.05,503.271,44.191,503.271,44.474z"/>
	<path fill="#788EEA" d="M507.093,58.767l0.144,0.283c0.141,0.141,0,0.424-0.144,0.566l-2.122,1.273
		c-0.142,0.142-0.425,0-0.564-0.142l-0.144-0.283c-0.141-0.142,0-0.425,0.144-0.566l2.122-1.273
		C506.811,58.483,506.952,58.625,507.093,58.767z"/>
	<path fill="#788EEA" d="M517.564,69.237l0.281,0.142c0.144,0.142,0.283,0.283,0.144,0.566l-1.274,2.123
		c-0.141,0.142-0.283,0.283-0.565,0.142l-0.282-0.142c-0.143-0.141-0.283-0.283-0.143-0.566l1.273-2.123
		C517.14,69.096,517.423,69.096,517.564,69.237z"/>
	<path fill="#788EEA" d="M531.855,73.059h0.282c0.144,0,0.427,0.142,0.427,0.425v2.547c0,0.142-0.144,0.424-0.427,0.424h-0.282
		c-0.142,0-0.425-0.141-0.425-0.424v-2.547C531.573,73.2,531.715,73.059,531.855,73.059z"/>
	<path fill="#788EEA" d="M546.146,69.097l0.282-0.142c0.144-0.142,0.427,0,0.566,0.142l1.272,2.123c0.143,0.143,0,0.424-0.142,0.566
		l-0.283,0.142c-0.141,0.142-0.424,0-0.564-0.142l-1.273-2.123C545.864,69.521,546.006,69.238,546.146,69.097z"/>
	<path fill="#788EEA" d="M556.619,58.626l0.141-0.283c0.144-0.142,0.283-0.283,0.566-0.142l2.123,1.273
		c0.141,0.142,0.283,0.283,0.141,0.566l-0.141,0.283c-0.144,0.142-0.283,0.283-0.566,0.142l-2.123-1.274
		C556.619,59.05,556.477,58.909,556.619,58.626z"/>
	<path fill="#788EEA" d="M560.439,44.333V44.05c0-0.142,0.141-0.425,0.424-0.425h2.547c0.142,0,0.425,0.142,0.425,0.425v0.283
		c0,0.142-0.142,0.424-0.425,0.424h-2.547C560.58,44.757,560.439,44.615,560.439,44.333z"/>
	<path fill="#788EEA" d="M556.619,30.041l-0.143-0.283c-0.142-0.142,0-0.425,0.143-0.566l2.122-1.273
		c0.142-0.142,0.425,0,0.564,0.142l0.144,0.283c0.141,0.141,0,0.424-0.144,0.565l-2.264,1.274
		C556.902,30.324,556.619,30.324,556.619,30.041z"/>
	<path fill="#788EEA" d="M546.146,19.711l-0.282-0.283c-0.143-0.142-0.283-0.283-0.143-0.565l1.273-2.123
		c0.142-0.142,0.283-0.283,0.565-0.142l0.282,0.142c0.144,0.142,0.283,0.283,0.144,0.566l-1.274,2.123
		C546.572,19.711,546.289,19.711,546.146,19.711z"/>
	<g>
		<g>
			<defs>
				<rect id="SVGID_3_" x="486" width="90" height="90"/>
			</defs>
			<clipPath id="SVGID_4_">
				<use xlink:href="#SVGID_3_"  overflow="visible"/>
			</clipPath>
			<g clip-path="url(#SVGID_4_)">
				<path fill="#436375" d="M531,90c24.854,0,45-20.147,45-45S555.854,0,531,0s-45,20.147-45,45S506.146,90,531,90z"/>
				<path fill="#274A59" d="M576,45c0-0.173-0.005-0.345-0.007-0.518l-31.859-31.859c0,0-15.901-0.318-19.351,5.658
					c-3.451,5.977-13.252,57.661-13.252,57.661l13.688,13.689C527.113,89.874,529.042,90,531,90C555.854,90,576,69.853,576,45z"/>
				<path fill="#FFFFFF" d="M548.88,38.711h-10.694V24.892c0-4.172-3.394-7.565-7.563-7.565c-4.172,0-7.566,3.394-7.566,7.565V38.71
					h-10.692V24.892c0-10.068,8.189-18.26,18.26-18.26c10.068,0,18.259,8.191,18.259,18.26v13.819H548.88z"/>
				<path fill="#E9EDF5" d="M548.88,24.892v13.82h-10.694v-13.82c0-4.045-3.188-7.358-7.186-7.555V6.635
					C540.895,6.839,548.88,14.949,548.88,24.892z"/>
				<path fill="#FFAA20" d="M538.701,80.476h-15.402c-9.688,0-17.545-7.855-17.545-17.545V37.674h50.492v25.257
					C556.246,72.62,548.391,80.476,538.701,80.476z"/>
				<path fill="#FF8900" d="M556.246,37.675v25.256c0,9.689-7.854,17.544-17.545,17.544H531v-42.8H556.246z"/>
				<path fill="#9E653E" d="M537.217,54.654c0-3.435-2.783-6.217-6.217-6.217s-6.217,2.784-6.217,6.217
					c0,1.87,0.826,3.544,2.132,4.685l-1.628,10.375h11.426l-1.627-10.375C536.391,58.198,537.217,56.523,537.217,54.654z"/>
				<path fill="#835637" d="M535.085,59.338l1.628,10.375H531V48.438c3.433,0,6.217,2.783,6.217,6.217
					C537.217,56.523,536.391,58.199,535.085,59.338z"/>
			</g>
		</g>
	</g>
	
		<image overflow="visible" width="248" height="535" xlink:href="../../Users/Deepti/Desktop/Border.png"  transform="matrix(0.9999 0 0 0.9999 165.9722 38.5757)">
	</image>
	<text transform="matrix(1 0 0 1 50 137.541)" fill="#4D4D4D" font-family="'OpenSans'" font-size="25">Good Morning,</text>
	<text transform="matrix(1 0 0 1 50 180.2422)" fill="#4D4D4D" font-family="'OpenSans-Bold'" font-size="33">Abeer</text>
	
		<image overflow="visible" width="317" height="53" xlink:href="Layer 21.jpg"  transform="matrix(0.6991 0 0 0.6991 470.8965 233.9746)">
	</image>
</g>
</svg>
