<svg width="25" height="25" viewBox="0 0 25 25" fill="none" xmlns="http://www.w3.org/2000/svg">
<path d="M5.73015 15.4264L3.91732 23.2763C3.86119 23.514 3.87804 23.7631 3.96568 23.9911C4.05332 24.2191 4.20767 24.4153 4.40857 24.5542C4.60948 24.6931 4.8476 24.7682 5.09183 24.7696C5.33607 24.7711 5.57506 24.6988 5.7776 24.5624L12.4024 20.1459L19.0271 24.5624C19.2343 24.7 19.4788 24.7708 19.7275 24.7653C19.9762 24.7599 20.2172 24.6784 20.4182 24.5318C20.6192 24.3853 20.7706 24.1807 20.8518 23.9456C20.9331 23.7105 20.9404 23.4561 20.8728 23.2167L18.6475 15.4301L24.1663 10.4636C24.3431 10.3045 24.4693 10.097 24.5294 9.86686C24.5895 9.63673 24.5808 9.39403 24.5044 9.16878C24.428 8.94353 24.2873 8.7456 24.0996 8.59948C23.912 8.45336 23.6856 8.36545 23.4485 8.34662L16.5123 7.79426L13.5107 1.15004C13.415 0.936098 13.2595 0.754425 13.0628 0.626949C12.8661 0.499472 12.6367 0.431641 12.4024 0.431641C12.168 0.431641 11.9386 0.499472 11.7419 0.626949C11.5453 0.754425 11.3897 0.936098 11.294 1.15004L8.29245 7.79426L1.35624 8.34541C1.12319 8.36387 0.9004 8.44908 0.714514 8.59085C0.528628 8.73261 0.38752 8.92493 0.308072 9.14479C0.228624 9.36466 0.2142 9.60275 0.266525 9.8306C0.31885 10.0584 0.43571 10.2664 0.603122 10.4296L5.73015 15.4264ZM9.20131 10.1631C9.41847 10.146 9.62704 10.0708 9.80514 9.94534C9.98324 9.8199 10.1243 9.64886 10.2136 9.45014L12.4024 4.60659L14.5911 9.45014C14.6804 9.64886 14.8215 9.8199 14.9996 9.94534C15.1777 10.0708 15.3862 10.146 15.6034 10.1631L20.436 10.5464L16.4563 14.1282C16.1108 14.4397 15.9733 14.9191 16.0998 15.3668L17.6243 20.7019L13.0788 17.6712C12.8793 17.5373 12.6445 17.4657 12.4042 17.4657C12.1639 17.4657 11.929 17.5373 11.7295 17.6712L6.97967 20.8381L8.25717 15.3072C8.30401 15.1038 8.29773 14.8917 8.23892 14.6914C8.18011 14.4911 8.07075 14.3093 7.92137 14.1635L4.22514 10.5597L9.20131 10.1631Z" fill="#F3CD03"/>
</svg>
