<svg width="25" height="25" viewBox="0 0 25 25" fill="none" xmlns="http://www.w3.org/2000/svg">
<path d="M24.7053 9.16751C24.6289 8.94226 24.4881 8.74434 24.3004 8.59818C24.1128 8.45202 23.8864 8.36402 23.6493 8.34504L16.7131 7.79389L13.7115 1.14967C13.616 0.935678 13.4605 0.753919 13.2639 0.626335C13.0673 0.49875 12.8379 0.430793 12.6036 0.430664C12.3692 0.430536 12.1398 0.498241 11.943 0.62561C11.7463 0.752978 11.5906 0.934566 11.4948 1.14846L8.49326 7.79389L1.55704 8.34504C1.324 8.3635 1.10121 8.44871 0.91532 8.59048C0.729434 8.73225 0.588326 8.92457 0.508878 9.14443C0.42943 9.36429 0.415005 9.60239 0.467331 9.83023C0.519656 10.0581 0.636515 10.266 0.803928 10.4292L5.92974 15.426L4.11691 23.276C4.06187 23.5136 4.07951 23.7623 4.16755 23.9897C4.25559 24.2172 4.40996 24.4129 4.61064 24.5516C4.81131 24.6902 5.04902 24.7653 5.29292 24.7672C5.53682 24.769 5.77565 24.6976 5.97841 24.562L12.6032 20.1455L19.2279 24.562C19.4352 24.6996 19.6796 24.7704 19.9283 24.765C20.177 24.7595 20.418 24.678 20.619 24.5315C20.82 24.3849 20.9714 24.1803 21.0526 23.9452C21.1339 23.7101 21.1412 23.4558 21.0736 23.2164L18.8483 15.4297L24.3671 10.4633C24.7285 10.1372 24.8611 9.62862 24.7053 9.16751Z" fill="#F3CD03"/>
</svg>
