<svg width="25" height="25" viewBox="0 0 25 25" fill="none" xmlns="http://www.w3.org/2000/svg">
<path d="M5.72887 15.4264L3.91604 23.2763C3.8599 23.514 3.87676 23.7631 3.9644 23.9911C4.05204 24.2191 4.20639 24.4153 4.40729 24.5542C4.6082 24.6931 4.84632 24.7682 5.09055 24.7696C5.33479 24.7711 5.57378 24.6988 5.77632 24.5624L12.4011 20.1459L19.0258 24.5624C19.2331 24.7 19.4775 24.7708 19.7262 24.7653C19.9749 24.7599 20.2159 24.6784 20.417 24.5318C20.618 24.3853 20.7693 24.1807 20.8505 23.9456C20.9318 23.7105 20.9391 23.4561 20.8715 23.2167L18.6462 15.4301L24.165 10.4636C24.3418 10.3045 24.468 10.097 24.5281 9.86686C24.5882 9.63673 24.5795 9.39403 24.5031 9.16878C24.4268 8.94353 24.286 8.7456 24.0984 8.59948C23.9107 8.45336 23.6843 8.36545 23.4472 8.34662L16.511 7.79426L13.5095 1.15004C13.4137 0.936098 13.2582 0.754425 13.0615 0.626949C12.8648 0.499472 12.6354 0.431641 12.4011 0.431641C12.1667 0.431641 11.9373 0.499472 11.7407 0.626949C11.544 0.754425 11.3884 0.936098 11.2927 1.15004L8.29117 7.79426L1.35496 8.34541C1.12191 8.36387 0.899118 8.44908 0.713232 8.59085C0.527346 8.73261 0.386238 8.92493 0.30679 9.14479C0.227342 9.36466 0.212918 9.60275 0.265243 9.8306C0.317569 10.0584 0.434428 10.2664 0.60184 10.4296L5.72887 15.4264ZM9.20002 10.1631C9.41719 10.146 9.62576 10.0708 9.80386 9.94534C9.98196 9.8199 10.123 9.64886 10.2123 9.45014L12.4011 4.60659L14.5899 9.45014C14.6791 9.64886 14.8202 9.8199 14.9983 9.94534C15.1764 10.0708 15.385 10.146 15.6021 10.1631L20.4347 10.5464L16.455 14.1282C16.1095 14.4397 15.972 14.9191 16.0985 15.3668L17.623 20.7019L13.0775 17.6712C12.878 17.5373 12.6432 17.4657 12.4029 17.4657C12.1626 17.4657 11.9278 17.5373 11.7283 17.6712L6.97839 20.8381L8.25589 15.3072C8.30273 15.1038 8.29644 14.8917 8.23763 14.6914C8.17883 14.4911 8.06947 14.3093 7.92009 14.1635L4.22386 10.5597L9.20002 10.1631Z" fill="#F3CD03"/>
<path d="M8.50146 9L2.00146 9.5L7.00146 15.5L6.00146 22.5L12.5015 19.5V1.5L8.50146 9Z" fill="#F3CD03" stroke="#F3CD03"/>
</svg>
