<svg width="21" height="20" viewBox="0 0 21 20" fill="none" xmlns="http://www.w3.org/2000/svg">
<path d="M17.5235 3.07825C15.6359 1.10793 13.0241 -0.00402718 10.2955 0.000993491C4.78118 -0.00595177 0.305293 4.45864 0.298348 9.97296C0.294917 12.6996 1.40674 15.309 3.3756 17.1953C3.38133 17.201 3.38346 17.2096 3.38915 17.2146C3.44698 17.2703 3.50982 17.3174 3.56839 17.371C3.72905 17.5138 3.88972 17.6616 4.05895 17.7994C4.14962 17.8709 4.24388 17.9422 4.33672 18.0079C4.49667 18.1272 4.65662 18.2464 4.82369 18.3564C4.93724 18.4278 5.05434 18.4992 5.1707 18.5706C5.32491 18.6634 5.47846 18.757 5.6377 18.8419C5.77267 18.9134 5.91045 18.9747 6.04756 19.0397C6.19751 19.1111 6.34532 19.1825 6.49883 19.2468C6.65234 19.311 6.8066 19.361 6.96224 19.4167C7.11788 19.4724 7.25214 19.5238 7.40138 19.5695C7.56991 19.6202 7.7427 19.6595 7.91407 19.7016C8.05687 19.7366 8.1954 19.7766 8.3425 19.8051C8.53957 19.8444 8.73951 19.8694 8.93946 19.8966C9.06301 19.9137 9.18367 19.938 9.30861 19.9501C9.63566 19.9823 9.96552 20.0001 10.2983 20.0001C10.631 20.0001 10.9609 19.9823 11.2879 19.9501C11.4129 19.938 11.5336 19.9137 11.6571 19.8966C11.857 19.8694 12.0569 19.8444 12.254 19.8051C12.3968 19.7766 12.5397 19.7337 12.6825 19.7016C12.8538 19.6595 13.0266 19.6202 13.1951 19.5695C13.3444 19.5238 13.4886 19.4681 13.6343 19.4167C13.78 19.3653 13.9456 19.3096 14.0977 19.2468C14.2498 19.1839 14.399 19.1104 14.549 19.0397C14.6861 18.9747 14.8239 18.9133 14.9588 18.8419C15.1181 18.757 15.2716 18.6634 15.4258 18.5706C15.5422 18.4992 15.6593 18.4342 15.7728 18.3564C15.9399 18.2464 16.0999 18.1272 16.2598 18.0079C16.3526 17.9365 16.4469 17.8722 16.5376 17.7994C16.7068 17.6637 16.8675 17.5195 17.0281 17.371C17.0867 17.3174 17.1495 17.2703 17.2074 17.2146C17.2131 17.2096 17.2152 17.2011 17.2209 17.1953C21.2029 13.3805 21.3383 7.0601 17.5235 3.07825ZM15.9186 16.4477C15.7887 16.562 15.6544 16.6705 15.5188 16.7755C15.4388 16.8369 15.3588 16.8976 15.2767 16.9561C15.1475 17.0497 15.0161 17.1382 14.8826 17.2232C14.7854 17.2853 14.6862 17.3453 14.5862 17.4038C14.4605 17.4753 14.3327 17.5466 14.2035 17.6181C14.0892 17.6766 13.9728 17.7316 13.8557 17.7859C13.7387 17.8401 13.6094 17.898 13.483 17.9487C13.3566 17.9994 13.2224 18.0472 13.0903 18.0915C12.9696 18.1329 12.8489 18.1757 12.7268 18.2121C12.584 18.255 12.4348 18.29 12.2869 18.3257C12.1713 18.3528 12.057 18.3835 11.9399 18.4064C11.7707 18.4392 11.5979 18.4621 11.4244 18.4856C11.3259 18.4985 11.228 18.5163 11.1288 18.5263C10.8546 18.5527 10.5768 18.5685 10.2962 18.5685C10.0156 18.5685 9.73779 18.5528 9.46358 18.5263C9.36434 18.5163 9.26652 18.4985 9.16794 18.4856C8.99444 18.4621 8.82164 18.4392 8.6524 18.4064C8.5353 18.3835 8.42104 18.3528 8.30539 18.3257C8.15758 18.29 8.01047 18.2543 7.86554 18.2121C7.74345 18.1757 7.62275 18.1329 7.50209 18.0915C7.37 18.0458 7.23787 17.9993 7.10934 17.9487C6.98081 17.898 6.85944 17.8423 6.7366 17.7859C6.61376 17.7295 6.5031 17.6766 6.38888 17.6181C6.25964 17.551 6.13182 17.4802 6.00614 17.4038C5.90618 17.3453 5.8069 17.2853 5.70979 17.2232C5.57628 17.1382 5.44487 17.0497 5.31563 16.9561C5.2335 16.8976 5.15354 16.8369 5.07355 16.7755C4.93786 16.6705 4.80364 16.5613 4.67369 16.4477C4.64227 16.4241 4.6137 16.3941 4.58303 16.367C4.61495 13.938 6.17542 11.7931 8.47676 11.0152C9.62746 11.5625 10.9635 11.5625 12.1142 11.0152C14.4155 11.7931 15.9759 13.9379 16.0079 16.367C15.9779 16.3941 15.9493 16.4213 15.9186 16.4477ZM7.8055 5.72615C8.57864 4.35115 10.32 3.86327 11.695 4.63641C13.07 5.40955 13.5579 7.15093 12.7847 8.52592C12.5282 8.98213 12.1513 9.3591 11.695 9.61566C11.6915 9.61566 11.6871 9.61566 11.6829 9.61993C11.4935 9.72532 11.2934 9.81008 11.0859 9.87272C11.0488 9.88343 11.0145 9.8977 10.9753 9.90698C10.9038 9.92556 10.8289 9.9384 10.7553 9.95125C10.6168 9.97547 10.4767 9.98953 10.3362 9.99338H10.2548C10.1142 9.98953 9.97409 9.97547 9.83561 9.95125C9.76419 9.9384 9.6885 9.92556 9.6157 9.90698C9.57784 9.8977 9.54428 9.88343 9.50504 9.87272C9.29756 9.81008 9.09744 9.72536 8.90808 9.61993L8.89524 9.61566C7.52024 8.84252 7.03236 7.10114 7.8055 5.72615ZM17.2746 14.9511C16.8164 12.8138 15.409 11.0019 13.4516 10.0292C15.0517 8.2861 14.9358 5.5759 13.1928 3.97577C11.4497 2.37564 8.73951 2.49154 7.13938 4.23459C5.63511 5.87325 5.63511 8.39053 7.13938 10.0292C5.18195 11.0019 3.77457 12.8138 3.31635 14.9511C0.57825 11.0942 1.48515 5.74799 5.34199 3.00988C9.19882 0.271775 14.5451 1.17868 17.2832 5.03551C18.3125 6.48536 18.865 8.21962 18.8641 9.99769C18.8641 11.7742 18.3083 13.5062 17.2746 14.9511Z" fill="#444040"/>
</svg>
