<svg  xmlns="http://www.w3.org/2000/svg">
    <symbol id="facebook" width="20" height="21" viewBox="0 0 20 21" xmlns="http://www.w3.org/2000/svg">
        <path d="M19.0067 0.741211H0.993158C0.559952 0.741211 0.209961 1.0912 0.209961 1.52441V19.5379C0.209961 19.9711 0.559952 20.3211 0.993158 20.3211H19.0067C19.4399 20.3211 19.7899 19.9711 19.7899 19.5379V1.52441C19.7899 1.0912 19.4399 0.741211 19.0067 0.741211ZM16.7452 6.4561H15.1813C13.9551 6.4561 13.7177 7.0386 13.7177 7.89522V9.78224H16.6449L16.263 12.7364H13.7177V20.3211H10.6656V12.7388H8.1129V9.78224H10.6656V7.60397C10.6656 5.07571 12.21 3.69778 14.4666 3.69778C15.5484 3.69778 16.476 3.77855 16.7476 3.81526V6.4561H16.7452Z"/>
    </symbol>

    <symbol id="linkedin" width="21" height="21" viewBox="0 0 21 21" xmlns="http://www.w3.org/2000/svg">
        <path d="M19.6004 0.741211H1.58691C1.1537 0.741211 0.803711 1.0912 0.803711 1.52441V19.5379C0.803711 19.9711 1.1537 20.3211 1.58691 20.3211H19.6004C20.0336 20.3211 20.3836 19.9711 20.3836 19.5379V1.52441C20.3836 1.0912 20.0336 0.741211 19.6004 0.741211ZM6.6116 17.4257H3.70643V8.08123H6.6116V17.4257ZM5.16024 6.80364C4.8272 6.80364 4.50164 6.70488 4.22473 6.51986C3.94782 6.33483 3.73199 6.07185 3.60455 5.76416C3.4771 5.45647 3.44375 5.1179 3.50872 4.79126C3.5737 4.46462 3.73407 4.16459 3.96956 3.92909C4.20506 3.6936 4.5051 3.53322 4.83174 3.46825C5.15837 3.40328 5.49694 3.43663 5.80463 3.56407C6.11232 3.69152 6.3753 3.90735 6.56033 4.18426C6.74536 4.46117 6.84411 4.78673 6.84411 5.11977C6.84167 6.04982 6.08784 6.80364 5.16024 6.80364ZM17.4882 17.4257H14.5855V12.8808C14.5855 11.7965 14.5659 10.4039 13.0754 10.4039C11.5653 10.4039 11.3328 11.5836 11.3328 12.8024V17.4257H8.43254V8.08123H11.2178V9.35882H11.2569C11.6436 8.62457 12.5908 7.84872 14.0055 7.84872C16.9474 7.84872 17.4882 9.78468 17.4882 12.3007V17.4257Z"/>
    </symbol>

    <symbol id="twitter" width="21" height="17" viewBox="0 0 21 17" xmlns="http://www.w3.org/2000/svg">
        <path d="M20.5872 2.22413C19.8383 2.5472 19.0233 2.77971 18.1838 2.87027C19.0554 2.35247 19.7081 1.53443 20.0194 0.56963C19.2016 1.05616 18.3056 1.39733 17.3712 1.578C16.9807 1.16052 16.5084 0.827938 15.9838 0.600976C15.4591 0.374015 14.8933 0.257536 14.3217 0.258799C12.0088 0.258799 10.1487 2.13358 10.1487 4.43422C10.1487 4.75729 10.1879 5.08035 10.2515 5.39119C6.78829 5.21007 3.69956 3.55557 1.64612 1.02242C1.27196 1.66149 1.07589 2.38916 1.0783 3.1297C1.0783 4.57862 1.815 5.85621 2.93839 6.60759C2.27636 6.58151 1.62982 6.39955 1.05138 6.07648V6.12788C1.05138 8.15685 2.48561 9.83827 4.3971 10.225C4.03819 10.3182 3.66899 10.3659 3.29817 10.3669C3.0265 10.3669 2.76952 10.34 2.51008 10.3033C3.03874 11.9578 4.57821 13.1595 6.41138 13.1987C4.97715 14.3221 3.18069 14.9829 1.23005 14.9829C0.880054 14.9829 0.556986 14.9707 0.22168 14.9315C2.07198 16.1185 4.26738 16.8038 6.63165 16.8038C14.307 16.8038 18.5069 10.4453 18.5069 4.92616C18.5069 4.74505 18.5069 4.56393 18.4946 4.38282C19.3072 3.78808 20.0194 3.05138 20.5872 2.22413Z"/>
    </symbol>


</svg>