<svg width="101" height="100" viewBox="0 0 101 100" fill="none" xmlns="http://www.w3.org/2000/svg">
<g clip-path="url(#clip0)">
<path d="M87.0584 72.4746C88.6395 70.6512 89.5102 68.3156 89.5102 65.898C89.5102 60.3563 85.0022 55.8477 79.461 55.8477C76.5432 55.8477 73.774 57.1135 71.8631 59.3207C70.2822 61.1453 69.4117 63.4812 69.4117 65.898C69.4117 71.4393 73.9198 75.9473 79.461 75.9473C82.3791 75.9471 85.1485 74.6812 87.0584 72.4746ZM72.3438 65.898C72.3438 64.1863 72.96 62.532 74.0793 61.2404C74.0793 61.2402 74.0795 61.24 74.0797 61.24C75.4332 59.6764 77.3948 58.7797 79.461 58.7797C83.3856 58.7797 86.5783 61.973 86.5783 65.8982C86.5783 67.6102 85.9623 69.2639 84.8424 70.5553C83.4889 72.1189 81.5274 73.0156 79.461 73.0156C75.5365 73.0152 72.3438 69.8225 72.3438 65.898Z" fill="#059BC7"/>
<path d="M93.0027 52.4625C89.4976 48.9293 84.8517 46.9193 79.9211 46.8033C74.7273 46.6811 69.8263 48.6094 66.1162 52.2332C62.405 55.858 60.3611 60.7109 60.3611 65.8981C60.3611 68.3795 60.8339 70.7994 61.7666 73.0904C62.0716 73.8402 62.9271 74.2006 63.6769 73.8955C64.4267 73.5902 64.7873 72.735 64.482 71.9852C63.6929 70.0469 63.2931 67.9988 63.2931 65.8981C63.2931 61.5072 65.0232 57.3992 68.1648 54.3307C71.3054 51.2633 75.4576 49.6291 79.8519 49.7346C84.0214 49.8326 87.9527 51.535 90.9212 54.5275C93.8898 57.5199 95.5609 61.465 95.6271 65.6357C95.684 69.2334 94.5836 72.6555 92.4347 75.5465L84.463 86.5385C83.0267 88.5193 82.0363 90.7363 81.5197 93.1273L80.923 95.8885C80.7752 96.5721 80.1605 97.0678 79.4613 97.0678C78.7621 97.0678 78.1474 96.5717 77.9998 95.8883L77.4029 93.1273C76.8861 90.7361 75.8957 88.5191 74.4591 86.5383L67.5716 77.0412C67.0964 76.3859 66.1798 76.2399 65.5242 76.7152C64.8689 77.1906 64.7228 78.107 65.1982 78.7627L72.0857 88.2596C73.282 89.9092 74.1068 91.7553 74.5371 93.7469L75.1337 96.5078C75.5709 98.5315 77.3908 99.9998 79.4609 99.9998C81.531 99.9998 83.3509 98.5311 83.788 96.5078L84.3849 93.7467C84.8152 91.7555 85.6398 89.9094 86.8361 88.2596L94.7974 77.2815C97.3252 73.8813 98.6254 69.8381 98.5582 65.5891C98.4804 60.657 96.5074 55.9953 93.0027 52.4625Z" fill="#059BC7"/>
<path d="M17.0282 24.0104C19.4493 24.0104 21.7473 22.9598 23.3319 21.1293C24.6438 19.616 25.3664 17.6781 25.3664 15.6721C25.3664 14.4549 25.108 13.2789 24.5983 12.1766C24.2584 11.4416 23.3871 11.1213 22.6526 11.4611C21.9176 11.8008 21.5975 12.6721 21.9371 13.4068C22.267 14.1207 22.4346 14.883 22.4346 15.6721C22.4346 16.9725 21.9664 18.2285 21.1159 19.2094C20.0877 20.3971 18.5979 21.0785 17.0282 21.0785C14.0471 21.0785 11.6219 18.6533 11.6219 15.6723C11.6219 14.3721 12.0901 13.1154 12.9407 12.134C13.9688 10.9463 15.4586 10.2648 17.0284 10.2648C17.3053 10.2648 17.5832 10.2859 17.8547 10.3273C18.6551 10.4504 19.403 9.90039 19.5254 9.1C19.6479 8.2998 19.0985 7.55156 18.2981 7.4293C17.8803 7.36543 17.4532 7.33301 17.0282 7.33301C14.6071 7.33301 12.309 8.38359 10.7241 10.2146C9.41234 11.7287 8.68988 13.667 8.68988 15.6723C8.69008 20.2697 12.4305 24.0104 17.0282 24.0104Z" fill="#059BC7"/>
<path d="M10.8862 33.7477C11.8202 35.0354 12.4639 36.4764 12.7998 38.0311L13.2776 40.242C13.6565 41.9958 15.2336 43.2684 17.028 43.2684C18.8223 43.2684 20.3995 41.9956 20.7784 40.242L21.2561 38.0313C21.592 36.4764 22.236 35.0354 23.1698 33.7479L29.5422 24.9608C31.6047 22.1866 32.6659 18.8874 32.611 15.4202C32.5473 11.3956 30.9375 7.59145 28.078 4.70903C25.2178 1.82622 21.427 0.186374 17.4032 0.0914523C13.1657 -0.00913368 9.16644 1.56528 6.1389 4.52212C3.11078 7.47973 1.44281 11.4395 1.44281 15.6719C1.44281 19.0465 2.50472 22.2586 4.50355 24.9469L10.8862 33.7477ZM8.18754 6.61938C10.5719 4.29048 13.6996 3.0188 17.0258 3.0188C17.128 3.0188 17.2313 3.01997 17.3338 3.02251C20.5963 3.09926 23.6727 4.43149 25.9961 6.77368C28.3196 9.11587 29.6276 12.2028 29.6791 15.4665C29.7237 18.2821 28.8625 20.9602 27.1789 23.2254L20.7963 32.0262C19.6225 33.645 18.8129 35.4569 18.3905 37.4116L17.9127 39.6223C17.8233 40.0362 17.4512 40.3364 17.0282 40.3364C16.6051 40.3364 16.2328 40.0362 16.1436 39.6225L15.6659 37.4118C15.2434 35.4573 14.434 33.6454 13.2598 32.0264L6.86703 23.2116C5.23695 21.0188 4.37523 18.4116 4.37523 15.6719C4.37465 12.2358 5.72894 9.02075 8.18754 6.61938Z" fill="#059BC7"/>
<path d="M84.253 16.7891C83.7069 17.3867 83.7487 18.3141 84.3463 18.8602C84.6276 19.1172 84.9815 19.2437 85.3348 19.2437C85.7321 19.2437 86.1284 19.083 86.4174 18.7666L86.4428 18.7393C86.4782 18.7012 86.5133 18.6629 86.5456 18.6254C87.6567 17.3439 88.2686 15.7027 88.2686 14.0041C88.2686 10.1104 85.101 6.94238 81.2077 6.94238C79.1741 6.94238 77.2383 7.82051 75.8969 9.35176C75.3635 9.96074 75.4247 10.8869 76.0337 11.4203C76.6426 11.9539 77.5688 11.8928 78.1024 11.2836C78.8872 10.3879 80.019 9.87402 81.2079 9.87402C83.4846 9.87402 85.337 11.7268 85.337 14.0039C85.337 14.9971 84.9796 15.9561 84.329 16.7066L84.253 16.7891Z" fill="#059BC7"/>
<path d="M70.1648 7.89014C70.8222 8.36261 71.7384 8.21221 72.2107 7.55479C74.3506 4.57569 77.8148 2.84522 81.4759 2.93487C84.3308 3.00206 87.0228 4.16807 89.0564 6.21768C91.0898 8.26749 92.2345 10.9691 92.2796 13.8247C92.3185 16.2886 91.565 18.6325 90.0904 20.6167L88.575 22.7064C88.0996 23.3616 88.2457 24.2782 88.9009 24.7536C89.1609 24.9423 89.4619 25.0329 89.7601 25.0329C90.2138 25.0329 90.6613 24.8228 90.948 24.4275L92.4533 22.3517C94.3066 19.8585 95.2603 16.8939 95.2109 13.7782C95.1539 10.1614 93.707 6.74288 91.1377 4.15284C88.5677 1.56261 85.1611 0.0889726 81.5449 0.00381635C76.9138 -0.103996 72.5347 2.07804 69.8295 5.84444C69.7002 6.02471 69.3156 6.94307 69.9318 7.68116C70.0006 7.75733 70.0779 7.82784 70.1648 7.89014Z" fill="#059BC7"/>
<path d="M67.7677 87.7859C67.7699 87.3797 67.6058 86.9748 67.2788 86.6834C66.6745 86.1445 65.7478 86.1977 65.2091 86.802C64.2781 87.8461 63.3076 88.8031 62.3212 89.652C60.2525 90.3676 58.1368 90.9125 55.9824 91.2891C57.6171 87.7713 59.0195 82.9344 60.0908 77.0777C60.2367 76.2814 59.7089 75.5178 58.9126 75.3721C58.1173 75.2264 57.3527 75.7537 57.207 76.5502C55.9995 83.151 54.3208 88.5035 52.4484 91.7512C51.2247 91.8578 49.9908 91.9139 48.7466 91.9139C47.498 91.9139 46.2632 91.8555 45.0423 91.7471C42.8827 88.0107 41.0992 81.7613 39.8851 74.1162C42.7867 74.352 45.7501 74.4736 48.7466 74.4736C51.5218 74.4736 54.3236 74.3686 57.0738 74.1613C57.881 74.1004 58.4863 73.3967 58.4255 72.5895C58.3646 71.782 57.6593 71.1783 56.8536 71.2377C54.1765 71.4395 51.449 71.5418 48.7466 71.5418C45.5947 71.5418 42.4845 71.4031 39.4505 71.1385C38.6593 65.2164 38.195 58.6047 38.1368 51.759H61.9095C62.7191 51.759 63.3755 51.1027 63.3755 50.293C63.3755 49.6148 62.9144 49.0459 62.2892 48.8785C62.2361 42.1094 61.8031 35.6191 61.0517 29.7553C65.9445 30.3289 70.5954 31.24 74.8445 32.4504C75.7464 35.7014 76.4054 39.1133 76.7904 42.592C76.8734 43.342 77.5083 43.8967 78.2456 43.8967C78.2994 43.8967 78.3538 43.8937 78.4087 43.8877C79.2134 43.7986 79.7935 43.074 79.7044 42.2693C79.3732 39.276 78.8466 36.3273 78.1437 33.4777C82.1273 34.8309 85.6724 36.467 88.6251 38.3492C89.3617 40.8117 89.8728 43.3525 90.1417 45.9434C90.2199 46.6973 90.8564 47.258 91.598 47.258C91.6486 47.258 91.6997 47.2555 91.7513 47.25C92.5566 47.1664 93.1415 46.4459 93.0581 45.6406C91.9271 34.7449 86.8163 24.6738 78.6679 17.283C70.4613 9.83965 59.8351 5.74023 48.7468 5.74023C44.2232 5.74023 39.7593 6.41641 35.4794 7.7498C34.7064 7.99063 34.2749 8.8125 34.5158 9.58555C34.7566 10.3584 35.5779 10.7893 36.3515 10.5492C38.0433 10.0221 39.7665 9.60625 41.5117 9.30039C39.5679 13.4887 37.9646 19.5207 36.8597 26.7568C35.19 26.9398 33.5372 27.1572 31.9111 27.4178C31.1116 27.5459 30.5675 28.2979 30.6956 29.0973C30.8238 29.8969 31.5757 30.44 32.3751 30.3127C33.7136 30.098 35.0693 29.9111 36.439 29.7508C36.2046 31.5805 36.0005 33.4754 35.8296 35.4271C35.7589 36.2336 36.3554 36.9449 37.1618 37.0154C37.2054 37.0193 37.2486 37.0211 37.2915 37.0211C38.0433 37.0211 38.6833 36.4461 38.7501 35.683C38.9384 33.5354 39.1702 31.4527 39.4394 29.4488C42.4911 29.183 45.6009 29.0441 48.7468 29.0441C51.8988 29.0441 55.0089 29.1828 58.0429 29.4475C58.8341 35.3695 59.2984 41.9813 59.3566 48.827H38.139C38.1583 46.492 38.2212 44.1592 38.332 41.873C38.371 41.0643 37.7474 40.377 36.9388 40.3379C36.1267 40.301 35.4427 40.9227 35.4036 41.7311C35.2908 44.0643 35.2267 46.4445 35.2074 48.8268H20.2974C20.307 48.4012 20.32 47.9648 20.3378 47.5094C20.3695 46.7004 19.7394 46.0189 18.9304 45.9871C18.1251 45.9523 17.4398 46.5854 17.4081 47.3945C17.3888 47.8896 17.3743 48.3645 17.3644 48.8266H7.15286C7.28782 44.9475 7.95637 41.1268 9.14876 37.4488C9.39837 36.6787 8.97629 35.852 8.20618 35.6023C7.43586 35.3527 6.6093 35.7748 6.35969 36.5449C4.92297 40.9779 4.19446 45.6031 4.19446 50.2926C4.19446 62.193 8.82864 73.3811 17.2435 81.7961C25.6585 90.2109 36.8464 94.8451 48.747 94.8451C55.4693 94.8451 61.9316 93.3838 67.954 90.502C68.6843 90.1525 68.9931 89.2772 68.6437 88.5471C68.4621 88.1688 68.1386 87.9047 67.7677 87.7859ZM60.632 26.7607C59.538 19.5904 57.9466 13.533 55.9847 9.30625C58.1474 9.68652 60.2699 10.2367 62.3345 10.949C65.991 14.0998 69.2259 18.5506 71.6988 23.8451C72.4863 25.5312 73.1962 27.3061 73.8251 29.1479C69.7019 28.0781 65.2632 27.2719 60.632 26.7607ZM87.0943 34.092C84.1638 32.5625 80.8392 31.225 77.2132 30.1057C76.4109 27.4785 75.4556 24.9605 74.3552 22.6045C72.8829 19.4523 71.1476 16.575 69.216 14.051C71.8808 15.558 74.3923 17.3643 76.6978 19.4555C81.2327 23.5686 84.7599 28.5695 87.0943 34.092ZM48.7466 26.1129C45.754 26.1129 42.7909 26.2336 39.8773 26.4682C41.1093 18.7684 42.9236 12.5129 45.0456 8.83672C46.2726 8.72871 47.507 8.67266 48.7466 8.67266C49.9884 8.67266 51.2238 8.7291 52.4501 8.83809C54.6101 12.5746 56.3941 18.825 57.6083 26.4715C54.7066 26.2359 51.7435 26.1129 48.7466 26.1129ZM41.5095 91.283C39.3281 90.899 37.2052 90.3434 35.154 89.6328C30.1853 85.3522 26.2398 78.9834 23.6642 71.4404C27.7882 72.5102 32.2294 73.315 36.8613 73.8262C37.9554 80.9978 39.5474 87.0559 41.5095 91.283ZM36.4415 70.8312C31.5458 70.2574 26.8925 69.3455 22.6415 68.1342C21.229 63.0314 20.4148 57.4902 20.2958 51.7594H35.2046C35.2597 58.51 35.6923 64.9822 36.4415 70.8312ZM7.15461 51.7594H17.364C17.4708 57.0828 18.1574 62.2605 19.3538 67.1102C15.3724 65.7582 11.829 64.1232 8.87669 62.2428C7.87454 58.9037 7.28098 55.3902 7.15461 51.7594ZM10.4122 66.5023C13.3404 68.0293 16.664 69.3633 20.2859 70.4809C22.1534 76.5881 24.8585 82.0627 28.2452 86.5031C20.3161 81.9965 14.0029 74.9623 10.4122 66.5023Z" fill="#059BC7"/>
</g>
<defs>
<clipPath id="clip0">
<rect width="100" height="100" fill="white" transform="translate(0.00195312)"/>
</clipPath>
</defs>
</svg>
