<svg width="101" height="100" viewBox="0 0 101 100" fill="none" xmlns="http://www.w3.org/2000/svg">
<g clip-path="url(#clip0)">
<path d="M53.2278 67.7421H46.7762C44.9972 67.7421 43.5504 66.2953 43.5504 64.5163C43.5504 62.7373 44.9972 61.2905 46.7762 61.2905H53.2278C55.0068 61.2905 56.4536 62.7373 56.4536 64.5163H59.6794C59.6794 60.9582 56.7859 58.0647 53.2278 58.0647H51.6149V54.8389H48.3891V58.0647H46.7762C43.2181 58.0647 40.3246 60.9582 40.3246 64.5163C40.3246 68.0743 43.2181 70.9679 46.7762 70.9679H53.2278C55.0068 70.9679 56.4536 72.4147 56.4536 74.1937C56.4536 75.9727 55.0068 77.4195 53.2278 77.4195H46.7762C44.9972 77.4195 43.5504 75.9727 43.5504 74.1937H40.3246C40.3246 77.7518 43.2181 80.6453 46.7762 80.6453H48.3891V83.8711H51.6149V80.6453H53.2278C56.7859 80.6453 59.6794 77.7518 59.6794 74.1937C59.6794 70.6356 56.7859 67.7421 53.2278 67.7421Z" fill="#FE9D00"/>
<path d="M72.5826 3.22559C63.5471 3.22559 55.0826 7.73526 49.9939 15.1143C45.0439 7.94172 36.7761 3.22559 27.4213 3.22559C12.302 3.22559 0.00195312 15.5256 0.00195312 30.6449C0.00195312 44.9804 11.0649 56.7627 25.1003 57.9466C23.5003 61.4256 22.5826 65.2804 22.5826 69.3546C22.5826 84.474 34.8826 96.774 50.002 96.774C55.7294 96.774 61.2326 95.0046 65.9165 91.6562L64.0407 89.032C59.9084 91.9869 55.0536 93.5482 50.002 93.5482C36.6616 93.5482 25.8084 82.6949 25.8084 69.3546C25.8084 56.0143 36.6616 45.1611 50.002 45.1611C63.3423 45.1611 74.1955 56.0143 74.1955 69.3546C74.1955 75.0949 72.1358 80.6675 68.3939 85.0466L70.8471 87.1417C75.0858 82.1788 77.4213 75.8611 77.4213 69.3546C77.4213 65.2853 76.5068 61.4353 74.91 57.9595C79.7939 57.5466 84.452 55.8385 88.4971 52.9466L86.6213 50.3224C82.66 53.1546 78.0326 54.6901 73.2068 54.8143C68.7439 47.7175 61.139 42.803 52.3439 42.0546C53.9745 38.4901 54.8407 34.5966 54.8407 30.6449C54.8407 26.1691 53.7407 21.9546 51.831 18.2191C56.1939 10.953 64.102 6.45139 72.5826 6.45139C85.9229 6.45139 96.7761 17.3046 96.7761 30.6449C96.7761 36.3853 94.7165 41.9578 90.9745 46.3369L93.4278 48.432C97.6665 43.4691 100.002 37.1514 100.002 30.6449C100.002 15.5256 87.702 3.22559 72.5826 3.22559ZM48.7761 41.9982C39.5181 42.4095 31.4536 47.4159 26.802 54.8078C13.7487 54.474 3.22776 43.7756 3.22776 30.6449C3.22776 17.3046 14.081 6.45139 27.4213 6.45139C40.7616 6.45139 51.6149 17.3046 51.6149 30.6449C51.6149 34.6159 50.6278 38.5175 48.7761 41.9982Z" fill="#FE9D00"/>
<path d="M72.5826 41.9354C69.9148 41.9354 67.7438 39.7644 67.7438 37.0966V35.4837H70.9697V32.2579H67.7438V29.0321H70.9697V25.8063H67.7438V24.1934C67.7438 21.5257 69.9148 19.3547 72.5826 19.3547C75.2503 19.3547 77.4213 21.5257 77.4213 24.1934H80.6471C80.6471 19.7466 77.0293 16.1289 72.5826 16.1289C68.1358 16.1289 64.518 19.7466 64.518 24.1934V25.8063H61.2922V29.0321H64.518V32.2579H61.2922V35.4837H64.518V37.0966C64.518 41.5434 68.1358 45.1612 72.5826 45.1612C77.0293 45.1612 80.6471 41.5434 80.6471 37.0966H77.4213C77.4213 39.7644 75.2503 41.9354 72.5826 41.9354Z" fill="#FE9D00"/>
<path d="M29.0344 28.0162L38.3231 17.1791L35.8747 15.0791L27.4215 24.9404L18.9683 15.0791L16.5199 17.1791L25.8086 28.0162V32.2581H22.5828V35.4839H25.8086V38.7097H22.5828V41.9356H25.8086V43.5485H29.0344V41.9356H32.2602V38.7097H29.0344V35.4839H32.2602V32.2581H29.0344V28.0162Z" fill="#FE9D00"/>
</g>
<defs>
<clipPath id="clip0">
<rect width="100" height="100" fill="white" transform="translate(0.00195312)"/>
</clipPath>
</defs>
</svg>
