<svg width="101" height="100" viewBox="0 0 101 100" fill="none" xmlns="http://www.w3.org/2000/svg">
<path d="M69.2215 67.2664H63.2275L60.1139 65.8807V62.1C64.4734 59.6982 67.8936 55.7943 69.6732 51.0906H72.3443C78.7051 51.0906 83.8801 45.9156 83.8801 39.5549C83.8801 35.4477 81.7207 31.8371 78.4793 29.7928V28.4773C78.4795 12.7748 65.7045 0 50.002 0C34.2994 0 21.5244 12.7748 21.5244 28.4775V29.792C18.2822 31.8363 16.1223 35.4471 16.1223 39.5549C16.1223 45.9156 21.2973 51.0906 27.658 51.0906H30.3305C32.1102 55.7943 35.5303 59.6982 39.8898 62.1V65.865L36.7412 67.2662H30.7822C13.81 67.2664 0.00195312 81.0746 0.00195312 98.0469C0.00195312 99.1254 0.876367 100 1.95508 100H41.2129C42.2916 100 43.166 99.1254 43.166 98.0469C43.166 96.9684 42.2916 96.0938 41.2129 96.0938H3.97832C4.95215 82.5961 15.9391 71.8297 29.5283 71.2023C29.5232 71.2188 29.5162 71.2344 29.5115 71.2508C29.3531 71.8074 29.4498 72.4055 29.7752 72.884L39.0145 86.4668C39.3418 86.948 39.8666 87.2582 40.4459 87.3129C40.5072 87.3186 40.5686 87.3215 40.6297 87.3215C41.1451 87.3215 41.6426 87.1174 42.0105 86.7494L49.9846 78.7754L57.9584 86.7494C58.3264 87.1174 58.824 87.3215 59.3393 87.3215C59.4002 87.3215 59.4615 87.3186 59.5229 87.3129C60.1023 87.2582 60.6271 86.948 60.9545 86.4668L70.1939 72.884C70.5193 72.4057 70.6158 71.8072 70.4576 71.2508C70.4527 71.2338 70.4457 71.218 70.4404 71.2012C84.0459 71.8115 95.051 82.5848 96.0256 96.0939H58.791C57.7125 96.0939 56.8379 96.9686 56.8379 98.0471C56.8379 99.1256 57.7125 100 58.791 100H98.0488C99.1273 100 100.002 99.1256 100.002 98.0471C100.002 81.0746 86.1939 67.2664 69.2215 67.2664ZM67.0795 30.3939C63.0668 29.843 59.3012 28.2441 56.1018 25.7129C55.4004 25.1578 54.4111 25.1504 53.7012 25.6951C49.5055 28.9143 44.4863 30.6158 39.1867 30.6158C37.0598 30.6158 34.9625 30.3324 32.9311 29.7818V28.7889C32.9311 19.3764 40.5887 11.7188 50.0012 11.7188C59.4137 11.7188 67.0715 19.3764 67.0715 28.7889C67.0717 28.7889 67.0754 30.3416 67.0795 30.3939ZM72.3445 47.1846H71.0248V31.9254H72.3445C76.5516 31.9254 79.974 35.3479 79.974 39.5551C79.974 43.7619 76.5516 47.1846 72.3445 47.1846ZM50.002 3.90625C63.4701 3.90625 74.4402 14.7986 74.5701 28.2367C73.8496 28.0953 73.1059 28.0191 72.3443 28.0191H70.9621C70.5555 16.808 61.31 7.8125 50.0012 7.8125C38.6924 7.8125 29.4469 16.808 29.0402 28.0191H27.6582C26.8973 28.0191 26.1541 28.0951 25.4338 28.2365C25.5639 14.7986 36.534 3.90625 50.002 3.90625ZM28.9777 47.1846H27.6582C23.4512 47.1846 20.0287 43.7619 20.0287 39.5549C20.0287 35.3479 23.4512 31.9252 27.6582 31.9252H28.9779V47.1846H28.9777ZM32.884 43.6729V33.8018C34.9418 34.2799 37.0522 34.5221 39.1867 34.5221C44.8543 34.5221 50.2471 32.8492 54.874 29.6695C58.5107 32.2328 62.6947 33.8242 67.1184 34.3348V43.7779C67.1072 45.6088 66.8072 47.3723 66.2617 49.0252H56.9348C56.1277 46.7432 53.9496 45.1033 51.3949 45.1033H48.7803C45.5408 45.1033 42.9055 47.7389 42.9055 50.9783C42.9055 54.2178 45.5408 56.8533 48.7803 56.8533H51.3949C53.9498 56.8533 56.1279 55.2135 56.9348 52.9314H64.3934C61.3436 57.6562 56.032 60.7906 50.002 60.7906C40.5631 60.7906 32.884 53.1117 32.884 43.6729ZM53.3639 50.9783C53.3639 52.0641 52.4809 52.9471 51.3951 52.9471H48.7805C47.6949 52.9471 46.8119 52.0641 46.8119 50.9783C46.8119 49.8926 47.6949 49.0096 48.7805 49.0096H51.3951C52.4807 49.0096 53.3639 49.8926 53.3639 50.9783ZM50.002 64.6969C52.1613 64.6969 54.2453 64.3691 56.2076 63.7617V67.0277L49.9846 73.2508L43.7961 67.0625V63.7617C45.7586 64.3691 47.8426 64.6969 50.002 64.6969ZM40.917 82.3186L34.3197 72.6197L40.9002 69.6912L47.2223 76.0133L40.917 82.3186ZM59.052 82.3186L52.7467 76.0133L59.0687 69.6912L65.6494 72.6197L59.052 82.3186Z" fill="#FF6677"/>
</svg>
