<svg width="101" height="64" viewBox="0 0 101 64" fill="none" xmlns="http://www.w3.org/2000/svg">
<path d="M86.4879 28.1912C89.4163 26.1334 91.3553 22.7104 91.3553 18.8521C91.3553 12.5402 86.2505 7.43536 79.9386 7.43536C73.6268 7.43536 68.5219 12.5402 68.5219 18.8521C68.5219 22.7104 70.4412 26.1334 73.3894 28.1912C70.8765 29.0618 68.5813 30.4073 66.6422 32.1485C63.9711 29.873 60.8251 28.1318 57.3822 27.1029C61.5572 24.5703 64.3668 19.9601 64.3668 14.7167C64.3668 6.72305 57.8967 0.25293 49.903 0.25293C41.9094 0.25293 35.4392 6.74284 35.4392 14.7167C35.4392 19.9601 38.2291 24.5703 42.4238 27.1029C39.0206 28.1318 35.9141 29.8532 33.2627 32.0891C31.3237 30.3875 29.068 29.0618 26.5948 28.211C29.5231 26.1532 31.4622 22.7302 31.4622 18.8718C31.4622 12.56 26.3573 7.45514 20.0455 7.45514C13.7337 7.45514 8.62878 12.56 8.62878 18.8718C8.62878 22.7302 10.5481 26.1532 13.4962 28.211C5.64105 30.9217 0.00195312 38.3811 0.00195312 47.1465V48.4524C0.00195312 48.492 0.0415257 48.5315 0.0810984 48.5315H24.2798C24.1412 49.6198 24.0621 50.7476 24.0621 51.8754V53.2209C24.0621 59.0381 28.7712 63.7472 34.5884 63.7472H65.2572C71.0744 63.7472 75.7835 59.0381 75.7835 53.2209V51.8754C75.7835 50.7476 75.7044 49.6198 75.5659 48.5315H99.9228C99.9624 48.5315 100.002 48.492 100.002 48.4524V47.1465C99.9624 38.3614 94.3431 30.9019 86.4879 28.1912ZM71.6877 18.8323C71.6877 14.2814 75.3878 10.5814 79.9386 10.5814C84.4895 10.5814 88.1895 14.2814 88.1895 18.8323C88.1895 23.3238 84.5686 26.9842 80.0969 27.0832C80.0376 27.0832 79.998 27.0832 79.9386 27.0832C79.8793 27.0832 79.8397 27.0832 79.7803 27.0832C75.2889 27.004 71.6877 23.3435 71.6877 18.8323ZM38.5655 14.7167C38.5655 8.48404 43.6308 3.41874 49.8635 3.41874C56.0961 3.41874 61.1614 8.48404 61.1614 14.7167C61.1614 20.7318 56.4325 25.6586 50.5164 25.9949C50.2988 25.9949 50.0811 25.9949 49.8635 25.9949C49.6458 25.9949 49.4282 25.9949 49.2105 25.9949C43.2944 25.6586 38.5655 20.7318 38.5655 14.7167ZM11.7352 18.8323C11.7352 14.2814 15.4353 10.5814 19.9861 10.5814C24.537 10.5814 28.237 14.2814 28.237 18.8323C28.237 23.3238 24.6161 26.9842 20.1444 27.0832C20.0851 27.0832 20.0455 27.0832 19.9861 27.0832C19.9268 27.0832 19.8872 27.0832 19.8278 27.0832C15.3561 27.004 11.7352 23.3435 11.7352 18.8323ZM24.8338 45.3459H3.20734C4.09772 36.917 11.2208 30.3083 19.8674 30.249C19.907 30.249 19.9466 30.249 19.9861 30.249C20.0257 30.249 20.0653 30.249 20.1048 30.249C24.2204 30.2688 27.9798 31.7923 30.8884 34.2656C28.0392 37.3523 25.922 41.1512 24.8338 45.3459ZM72.5781 53.2209C72.5781 57.2771 69.2738 60.5814 65.2176 60.5814H34.5489C30.4927 60.5814 27.1883 57.2771 27.1883 53.2209V51.8754C27.1883 39.5881 37.0023 29.5367 49.2105 29.1805C49.4282 29.2003 49.6656 29.2003 49.8832 29.2003C50.1009 29.2003 50.3383 29.2003 50.556 29.1805C62.7641 29.5367 72.5781 39.5881 72.5781 51.8754V53.2209ZM74.9327 45.3459C73.8445 41.171 71.7669 37.4314 68.9375 34.3447C71.8658 31.8121 75.6648 30.2885 79.8199 30.249C79.8595 30.249 79.8991 30.249 79.9386 30.249C79.9782 30.249 80.0178 30.249 80.0574 30.249C88.704 30.3083 95.827 36.917 96.7174 45.3459H74.9327Z" fill="#43AF66"/>
</svg>
