<svg width="793" height="510" viewBox="0 0 793 510" fill="none" xmlns="http://www.w3.org/2000/svg">
<path d="M257.883 122.059C260.056 90.8251 236.473 63.7463 205.204 61.5772C186.012 60.2301 168.399 68.5867 157.122 82.4458C148.43 74.4545 137.085 69.226 124.367 68.3355C94.6531 66.2578 68.8968 88.6332 66.8382 118.269C66.2206 127.105 67.776 135.576 71.047 143.179C46.9377 144.024 26.8771 162.906 25.1615 187.45C24.2008 201.264 29.2331 214.118 38.0625 223.457C43.8726 232.133 51.421 239.736 59.61 246.266C73.1972 257.111 89.8267 270.81 107.943 269.897C128.553 268.847 149.642 265.993 169.337 259.76C178.853 256.746 188.208 252.956 196.466 247.339C213.919 235.466 225.104 216.493 233.911 197.337C241.253 181.4 255.801 147.129 257.334 129.64C257.448 128.293 257.494 127.037 257.448 125.872C257.654 124.639 257.791 123.361 257.883 122.059Z" fill="#CEEBF2"/>
<path d="M5.30671 278.733C-12.9468 238.8 21.4101 215.694 25.7562 213.525C37.9481 207.497 52.0843 205.511 65.4656 207.954C64.4821 188.318 81.1344 170.372 100.486 166.674C119.837 162.975 140.218 171.651 153.783 185.921C164.602 197.291 171.83 213.776 167.118 228.754C164.03 238.526 174.69 279.555 166.935 286.268C135.598 313.278 32.2753 337.731 5.30671 278.733Z" fill="#57EF89"/>
<path d="M791.651 385.952C800.64 342.983 762.051 327.982 757.339 326.84C744.118 323.644 729.89 324.808 717.378 330.128C714.016 310.744 693.818 296.907 674.123 297.547C654.429 298.186 636.472 311.132 626.385 328.027C618.333 341.498 614.925 359.17 622.817 372.733C627.986 381.592 626.637 423.968 635.695 428.785C672.156 448.284 778.361 449.449 791.651 385.952Z" fill="#57EF89"/>
<path d="M310.036 254.188C346.722 254.188 376.462 226.455 376.462 192.244C376.462 158.034 346.722 130.301 310.036 130.301C273.349 130.301 243.609 158.034 243.609 192.244C243.609 226.455 273.349 254.188 310.036 254.188Z" fill="#57EF89"/>
<path d="M741.053 148.681H690.615C684.462 148.681 679.43 143.658 679.43 137.516C679.43 131.375 684.462 126.352 690.615 126.352H741.053C747.206 126.352 752.238 131.375 752.238 137.516C752.238 143.658 747.206 148.681 741.053 148.681Z" fill="#57EF89"/>
<path d="M657.082 148.681H606.644C600.491 148.681 595.459 143.658 595.459 137.516C595.459 131.375 600.491 126.352 606.644 126.352H657.082C663.235 126.352 668.267 131.375 668.267 137.516C668.267 143.658 663.235 148.681 657.082 148.681Z" fill="#57EF89"/>
<path d="M650.7 185.008H600.263C594.109 185.008 589.077 179.984 589.077 173.843C589.077 167.701 594.109 162.678 600.263 162.678H650.7C656.853 162.678 661.885 167.701 661.885 173.843C661.885 179.984 656.853 185.008 650.7 185.008Z" fill="#57EF89"/>
<path d="M691.896 185.486H683.593C677.44 185.486 672.408 180.463 672.408 174.321C672.408 168.179 677.44 163.156 683.593 163.156H691.896C698.049 163.156 703.082 168.179 703.082 174.321C703.059 180.463 698.027 185.486 691.896 185.486Z" fill="#57EF89"/>
<path d="M676.25 219.414H625.813C619.66 219.414 614.627 214.391 614.627 208.249C614.627 202.107 619.66 197.084 625.813 197.084H676.25C682.403 197.084 687.436 202.107 687.436 208.249C687.413 214.391 682.403 219.414 676.25 219.414Z" fill="#57EF89"/>
<path d="M468.553 448.123H319.78V508.971H468.553V448.123Z" fill="#686868"/>
<path d="M323.486 466.068H187.43H142.597C134.866 466.068 128.598 459.812 128.598 452.095V336.405V139.456C128.598 131.738 134.866 125.482 142.597 125.482H312.415H470.978H580.98H635.374C643.106 125.482 649.373 131.738 649.373 139.456V142.561V452.072C649.373 459.79 643.106 466.046 635.374 466.046H415.691H323.486V466.068Z" fill="#686868"/>
<path d="M570.389 139.457H459.335H300.223H142.597V320.333V430.771H216.824H350.18H441.173H635.351V161.947V139.457H570.389Z" fill="#CEEBF2"/>
<path opacity="0.09" d="M319.803 466.094H468.576L469.628 484.656L319.803 477.441V466.094Z" fill="black"/>
<path d="M507.142 509.999H278.79C273.666 509.999 269.48 505.821 269.48 500.707C269.48 495.592 273.666 491.414 278.79 491.414H507.142C512.266 491.414 516.452 495.592 516.452 500.707C516.429 505.821 512.243 509.999 507.142 509.999Z" fill="#686868"/>
<path d="M328.038 207.109C327.42 207.086 327.786 207.315 328.038 207.109V207.109Z" fill="#FF9E73"/>
<path d="M205.478 274.715H160.782V276.678H205.478V274.715Z" fill="#BDBDFF"/>
<path d="M205.478 276.678H160.782V280.582H205.478V276.678Z" fill="#FFF1FF"/>
<path d="M202.642 280.285H164.007C164.007 280.947 164.167 281.609 164.442 282.272L202.184 282.294C202.482 281.632 202.642 280.947 202.642 280.285Z" fill="#FFF1FF"/>
<path d="M164.442 282.25C165.334 284.328 167.507 286.154 170.069 286.154H196.58C199.119 286.154 201.292 284.351 202.184 282.296L164.442 282.25Z" fill="#FFF1FF"/>
<path d="M205.478 404.834H160.782V410.702H205.478V404.834Z" fill="#FFF1FF"/>
<path d="M167.896 399.264H197.953C200.309 399.264 202.23 401.182 202.23 403.533V405.132H163.619V403.533C163.619 401.204 165.54 399.264 167.896 399.264Z" fill="#FFF1FF"/>
<path d="M198.387 287.34H168.079V400.496H198.387V287.34Z" fill="#FFF1FF"/>
<path d="M176.725 285.879H172.402V287.34H176.725V285.879Z" fill="#4AE67D"/>
<path d="M176.725 287.34H172.402V399.308H176.725V287.34Z" fill="#BDBDFF"/>
<path d="M185.372 285.879H181.049V287.34H185.372V285.879Z" fill="#4AE67D"/>
<path d="M185.372 287.34H181.049V399.308H185.372V287.34Z" fill="#BDBDFF"/>
<path d="M194.041 285.879H189.718V287.34H194.041V285.879Z" fill="#4AE67D"/>
<path d="M194.041 287.34H189.718V399.308H194.041V287.34Z" fill="#BDBDFF"/>
<path d="M260.01 274.715H215.314V276.678H260.01V274.715Z" fill="#BDBDFF"/>
<path d="M260.01 276.678H215.314V280.582H260.01V276.678Z" fill="#FFF1FF"/>
<path d="M218.997 282.295C219.912 284.35 222.062 286.154 224.601 286.154H251.112C253.628 286.154 255.778 284.373 256.693 282.341L218.997 282.295Z" fill="#FFF1FF"/>
<path d="M257.174 280.285H218.539C218.539 280.947 218.699 281.632 218.997 282.317L256.716 282.34C257.014 281.655 257.174 280.947 257.174 280.285Z" fill="#FFF1FF"/>
<path d="M260.01 404.834H215.314V410.702H260.01V404.834Z" fill="#FFF1FF"/>
<path d="M222.451 399.264H252.507C254.863 399.264 256.785 401.182 256.785 403.533V405.132H218.173V403.533C218.173 401.204 220.095 399.264 222.451 399.264Z" fill="#FFF1FF"/>
<path d="M252.919 285.537H222.611V287.364H252.919V285.537Z" fill="#BDBDFF"/>
<path d="M252.919 287.34H222.611V400.496H252.919V287.34Z" fill="#FFF1FF"/>
<path d="M231.28 285.879H226.957V287.34H231.28V285.879Z" fill="#BDBDFF"/>
<path d="M231.28 287.34H226.957V399.308H231.28V287.34Z" fill="#BDBDFF"/>
<path d="M239.927 285.879H235.603V287.34H239.927V285.879Z" fill="#BDBDFF"/>
<path d="M239.927 287.34H235.603V399.308H239.927V287.34Z" fill="#BDBDFF"/>
<path d="M248.596 287.34H244.273V399.308H248.596V287.34Z" fill="#BDBDFF"/>
<path d="M248.596 285.879H244.273V287.34H248.596V285.879Z" fill="#BDBDFF"/>
<path d="M321.587 274.715H276.891V276.678H321.587V274.715Z" fill="#BDBDFF"/>
<path d="M321.587 276.678H276.891V280.582H321.587V276.678Z" fill="#FFF1FF"/>
<path d="M318.751 280.285H280.116C280.116 280.947 280.277 281.609 280.551 282.272L318.293 282.294C318.591 281.632 318.751 280.947 318.751 280.285Z" fill="#FFF1FF"/>
<path d="M280.551 282.25C281.443 284.328 283.616 286.154 286.178 286.154H312.689C315.228 286.154 317.401 284.351 318.293 282.296L280.551 282.25Z" fill="#FFF1FF"/>
<path d="M321.587 404.834H276.891V410.702H321.587V404.834Z" fill="#FFF1FF"/>
<path d="M284.028 399.264H314.084C316.44 399.264 318.362 401.182 318.362 403.533V405.132H279.75V403.533C279.75 401.204 281.672 399.264 284.028 399.264Z" fill="#FFF1FF"/>
<path d="M314.496 285.537H284.188V287.364H314.496V285.537Z" fill="#BDBDFF"/>
<path d="M314.496 287.34H284.188V400.496H314.496V287.34Z" fill="#FFF1FF"/>
<path d="M292.834 285.879H288.511V287.34H292.834V285.879Z" fill="#BDBDFF"/>
<path d="M292.834 287.34H288.511V399.308H292.834V287.34Z" fill="#BDBDFF"/>
<path d="M301.504 285.879H297.18V287.34H301.504V285.879Z" fill="#BDBDFF"/>
<path d="M301.504 287.34H297.18V399.308H301.504V287.34Z" fill="#BDBDFF"/>
<path d="M310.173 285.879H305.85V287.34H310.173V285.879Z" fill="#BDBDFF"/>
<path d="M310.173 287.34H305.85V399.308H310.173V287.34Z" fill="#BDBDFF"/>
<path d="M376.142 274.715H331.446V276.678H376.142V274.715Z" fill="#BDBDFF"/>
<path d="M376.142 276.678H331.446V280.582H376.142V276.678Z" fill="#FFF1FF"/>
<path d="M335.129 282.295C336.044 284.35 338.194 286.154 340.733 286.154H367.244C369.76 286.154 371.91 284.373 372.825 282.341L335.129 282.295Z" fill="#FFF1FF"/>
<path d="M373.306 280.285H334.671C334.671 280.947 334.831 281.632 335.129 282.317L372.848 282.34C373.123 281.655 373.306 280.947 373.306 280.285Z" fill="#FFF1FF"/>
<path d="M376.142 404.834H331.446V410.702H376.142V404.834Z" fill="#FFF1FF"/>
<path d="M338.583 399.264H368.639C370.995 399.264 372.917 401.182 372.917 403.533V405.132H334.282V403.533C334.282 401.204 336.204 399.264 338.583 399.264Z" fill="#FFF1FF"/>
<path d="M369.051 285.537H338.743V287.364H369.051V285.537Z" fill="#BDBDFF"/>
<path d="M369.051 287.34H338.743V400.496H369.051V287.34Z" fill="#FFF1FF"/>
<path d="M347.389 285.879H343.066V287.34H347.389V285.879Z" fill="#BDBDFF"/>
<path d="M347.389 287.34H343.066V399.308H347.389V287.34Z" fill="#BDBDFF"/>
<path d="M356.058 285.879H351.735V287.34H356.058V285.879Z" fill="#BDBDFF"/>
<path d="M356.058 287.34H351.735V399.308H356.058V287.34Z" fill="#BDBDFF"/>
<path d="M364.705 287.34H360.382V399.308H364.705V287.34Z" fill="#BDBDFF"/>
<path d="M364.705 285.879H360.382V287.34H364.705V285.879Z" fill="#BDBDFF"/>
<path d="M383.576 271.656H152.57V275.058H383.576V271.656Z" fill="#FFF1FF"/>
<path d="M389.478 258.367H146.692V261.929H389.478V258.367Z" fill="#FFF1FF"/>
<path d="M383.576 271.655C383.53 270.742 383.53 268.094 385.269 265.468C386.71 263.322 388.586 262.317 389.455 261.906H146.692C147.561 262.294 149.437 263.322 150.878 265.468C152.639 268.094 152.616 270.742 152.57 271.655H383.576Z" fill="#FFF1FF"/>
<path d="M155.178 268.87C154.949 267.614 154.515 266.153 153.668 264.691H382.501C381.655 266.153 381.22 267.591 380.991 268.87H155.178Z" fill="#099A39"/>
<path d="M146.692 258.367H389.478L268.268 187.131L146.692 258.367Z" fill="#099A39"/>
<path d="M358.575 250.032H358.803L268.268 196.811L179.31 248.936L268.222 201.034L358.575 250.032Z" fill="#43AF66"/>
<path d="M358.575 250.033L268.222 201.035L179.31 248.937L177.434 250.033H358.575Z" fill="#BDBDFF"/>
<path d="M384.354 414.607H151.495L160.782 409.973H376.92L384.354 414.607Z" fill="#DAD4FF"/>
<path d="M384.354 414.605H151.495V420.473H384.354V414.605Z" fill="#099A39"/>
<path d="M391.765 425.133H143.078V431.001H391.765V425.133Z" fill="#099A39"/>
<path d="M391.788 425.109H143.123L151.495 420.178H384.354L391.788 425.109Z" fill="#DAD4FF"/>
<path d="M292.537 222.93C292.537 236.607 281.443 247.703 267.741 247.703C254.04 247.703 242.923 236.607 242.923 222.93C242.923 222.2 242.946 221.469 243.015 220.738C244.113 233.387 254.749 243.319 267.719 243.319C280.688 243.319 291.325 233.387 292.423 220.738C292.514 221.469 292.537 222.2 292.537 222.93Z" fill="#43AF66"/>
<path d="M292.537 219.529C292.537 220.259 292.514 220.99 292.446 221.721C291.348 234.369 280.711 244.301 267.742 244.301C254.772 244.301 244.135 234.369 243.037 221.721C242.969 221.013 242.946 220.282 242.946 219.529C242.946 205.852 254.04 194.756 267.764 194.756C281.443 194.779 292.537 205.852 292.537 219.529Z" fill="#099A39"/>
<path d="M266.872 237.955V235.443C265.088 235.215 263.624 234.827 262.503 234.233C261.383 233.662 260.422 232.726 259.598 231.447C259.095 230.648 258.706 229.712 258.455 228.685C258.203 227.657 258.889 226.63 259.941 226.424C260.902 226.242 261.84 226.835 262.092 227.771C262.366 228.845 262.755 229.689 263.235 230.306C264.242 231.584 265.454 232.292 266.849 232.429V221.082C265.385 220.808 263.876 220.237 262.343 219.369C261.2 218.73 260.33 217.862 259.713 216.744C259.095 215.625 258.798 214.346 258.798 212.908C258.798 210.373 259.69 208.319 261.497 206.743C262.709 205.693 264.493 205.031 266.849 204.802V202.451C266.849 201.88 267.33 201.4 267.902 201.4C268.473 201.4 268.954 201.88 268.954 202.451V204.802C271.035 205.008 272.682 205.601 273.895 206.629C274.901 207.451 275.633 208.478 276.136 209.711C276.594 210.83 275.908 212.086 274.695 212.268C273.826 212.405 272.957 211.903 272.682 211.058C272.454 210.351 272.11 209.757 271.699 209.3C271.035 208.547 270.12 208.067 268.954 207.816V218.113C270.761 218.57 271.95 218.913 272.522 219.164C273.643 219.643 274.535 220.237 275.244 220.945C275.953 221.652 276.479 222.474 276.868 223.433C277.234 224.392 277.44 225.443 277.44 226.561C277.44 229.027 276.662 231.105 275.084 232.749C273.506 234.393 271.47 235.283 268.977 235.397V237.955C268.977 238.525 268.496 239.005 267.925 239.005C267.353 239.005 266.872 238.548 266.872 237.955ZM266.872 207.771C265.477 207.976 264.379 208.547 263.578 209.437C262.778 210.328 262.366 211.401 262.366 212.634C262.366 213.844 262.709 214.871 263.395 215.693C264.082 216.515 265.225 217.177 266.849 217.657V207.771H266.872ZM268.977 232.429C270.372 232.247 271.516 231.653 272.431 230.625C273.346 229.598 273.78 228.319 273.78 226.79C273.78 225.488 273.46 224.461 272.82 223.662C272.179 222.863 270.898 222.178 268.977 221.561V232.429Z" fill="#43AF66"/>
<path d="M198.387 285.537H168.079V287.364H198.387V285.537Z" fill="#BDBDFF"/>
<path d="M421.158 453.581H360.496C357.5 453.581 355.052 451.138 355.052 448.147C355.052 445.156 357.5 442.713 360.496 442.713H421.158C424.155 442.713 426.602 445.156 426.602 448.147C426.602 451.138 424.155 453.581 421.158 453.581Z" fill="#323432"/>
<path d="M214.948 428.58L248.573 428.603H268.473C268.473 428.603 268.473 435.59 268.473 435.772C268.473 437.416 260.033 438.786 248.573 439.197C246.377 439.266 244.09 439.311 241.711 439.311C226.934 439.311 214.948 437.736 214.948 435.772C214.948 435.59 214.948 428.58 214.948 428.58Z" fill="url(#paint0_linear)"/>
<path d="M241.688 432.187C256.469 432.187 268.451 430.603 268.451 428.648C268.451 426.694 256.469 425.109 241.688 425.109C226.907 425.109 214.925 426.694 214.925 428.648C214.925 430.603 226.907 432.187 241.688 432.187Z" fill="#FFD65A"/>
<path d="M233.728 437.189C223.686 436.755 218.288 435.659 216.686 434.906C216.686 434.153 216.686 433.102 216.686 432.098C219.271 433.079 224.235 433.924 233.728 434.312V437.189Z" fill="#FFD685"/>
<path d="M214.948 419.836L248.573 419.859H268.473C268.473 419.859 268.473 426.845 268.473 427.028C268.473 428.672 260.033 430.042 248.573 430.453C246.377 430.521 244.09 430.567 241.711 430.567C226.934 430.567 214.948 428.992 214.948 427.028C214.948 426.845 214.948 419.836 214.948 419.836Z" fill="url(#paint1_linear)"/>
<path d="M241.688 423.443C256.469 423.443 268.451 421.859 268.451 419.904C268.451 417.95 256.469 416.365 241.688 416.365C226.907 416.365 214.925 417.95 214.925 419.904C214.925 421.859 226.907 423.443 241.688 423.443Z" fill="#FFD65A"/>
<path d="M234.963 428.761C224.921 428.328 219.523 427.232 217.922 426.478C217.922 425.725 217.922 424.675 217.922 423.67C220.506 424.652 225.47 425.497 234.963 425.885V428.761Z" fill="#FFD685"/>
<path d="M214.948 411.41L248.573 411.433H268.473C268.473 411.433 268.473 418.42 268.473 418.602C268.473 420.246 260.033 421.616 248.573 422.027C246.377 422.096 244.09 422.141 241.711 422.141C226.934 422.141 214.948 420.566 214.948 418.602C214.948 418.397 214.948 411.41 214.948 411.41Z" fill="url(#paint2_linear)"/>
<path d="M241.688 414.994C256.469 414.994 268.451 413.409 268.451 411.455C268.451 409.5 256.469 407.916 241.688 407.916C226.907 407.916 214.925 409.5 214.925 411.455C214.925 413.409 226.907 414.994 241.688 414.994Z" fill="#FFD65A"/>
<path d="M233.728 420.017C223.686 419.584 218.288 418.488 216.686 417.734C216.686 416.981 216.686 415.93 216.686 414.926C219.271 415.908 224.235 416.752 233.728 417.14V420.017Z" fill="#FFD685"/>
<path d="M214.948 402.963L248.573 402.986H268.473C268.473 402.986 268.473 409.972 268.473 410.155C268.473 411.799 260.033 413.169 248.573 413.58C246.377 413.648 244.09 413.694 241.711 413.694C226.934 413.694 214.948 412.119 214.948 410.155C214.948 409.972 214.948 402.963 214.948 402.963Z" fill="url(#paint3_linear)"/>
<path d="M241.688 406.57C256.469 406.57 268.451 404.986 268.451 403.031C268.451 401.077 256.469 399.492 241.688 399.492C226.907 399.492 214.925 401.077 214.925 403.031C214.925 404.986 226.907 406.57 241.688 406.57Z" fill="#FFD65A"/>
<path d="M233.728 411.57C223.686 411.136 218.288 410.04 216.686 409.287C216.686 408.533 216.686 407.483 216.686 406.479C219.271 407.46 224.235 408.305 233.728 408.693V411.57Z" fill="#FFD685"/>
<path d="M214.948 394.516L248.573 394.538H268.473C268.473 394.538 268.473 401.525 268.473 401.708C268.473 403.352 260.033 404.722 248.573 405.133C246.377 405.201 244.09 405.247 241.711 405.247C226.934 405.247 214.948 403.671 214.948 401.708C214.948 401.525 214.948 394.516 214.948 394.516Z" fill="url(#paint4_linear)"/>
<path d="M241.688 398.121C256.469 398.121 268.451 396.537 268.451 394.582C268.451 392.627 256.469 391.043 241.688 391.043C226.907 391.043 214.925 392.627 214.925 394.582C214.925 396.537 226.907 398.121 241.688 398.121Z" fill="#FFD65A"/>
<path d="M233.728 403.123C223.686 402.689 218.288 401.593 216.686 400.84C216.686 400.086 216.686 399.036 216.686 398.031C219.271 399.013 224.235 399.858 233.728 400.246V403.123Z" fill="#FFD685"/>
<path d="M214.948 386.088L248.573 386.111H268.473C268.473 386.111 268.473 393.097 268.473 393.28C268.473 394.924 260.033 396.294 248.573 396.705C246.377 396.773 244.09 396.819 241.711 396.819C226.934 396.819 214.948 395.244 214.948 393.28C214.948 393.097 214.948 386.088 214.948 386.088Z" fill="url(#paint5_linear)"/>
<path d="M241.688 389.674C256.469 389.674 268.451 388.089 268.451 386.135C268.451 384.18 256.469 382.596 241.688 382.596C226.907 382.596 214.925 384.18 214.925 386.135C214.925 388.089 226.907 389.674 241.688 389.674Z" fill="#FFD65A"/>
<path d="M233.728 394.857C223.686 394.423 218.288 393.327 216.686 392.574C216.686 391.821 216.686 390.77 216.686 389.766C219.271 390.747 224.235 391.592 233.728 391.98V394.857Z" fill="#FFD685"/>
<path d="M215.177 377.572L248.802 377.595H268.702C268.702 377.595 268.702 384.582 268.702 384.764C268.702 386.408 260.262 387.778 248.802 388.189C246.606 388.258 244.318 388.303 241.939 388.303C227.163 388.303 215.177 386.728 215.177 384.764C215.177 384.582 215.177 377.572 215.177 377.572Z" fill="url(#paint6_linear)"/>
<path d="M241.917 381.158C256.697 381.158 268.679 379.574 268.679 377.619C268.679 375.665 256.697 374.08 241.917 374.08C227.136 374.08 215.154 375.665 215.154 377.619C215.154 379.574 227.136 381.158 241.917 381.158Z" fill="#FFD65A"/>
<path d="M233.956 386.341C223.915 385.908 218.516 384.812 216.915 384.058C216.915 383.305 216.915 382.255 216.915 381.25C219.5 382.232 224.464 383.077 233.956 383.465V386.341Z" fill="#FFD685"/>
<path d="M214.971 369.08L248.596 369.103H268.496C268.496 369.103 268.496 376.09 268.496 376.272C268.496 377.916 260.056 379.286 248.596 379.697C246.4 379.765 244.113 379.811 241.734 379.811C226.957 379.811 214.971 378.236 214.971 376.272C214.948 376.09 214.971 369.08 214.971 369.08Z" fill="url(#paint7_linear)"/>
<path d="M241.688 372.687C256.469 372.687 268.451 371.103 268.451 369.148C268.451 367.194 256.469 365.609 241.688 365.609C226.907 365.609 214.925 367.194 214.925 369.148C214.925 371.103 226.907 372.687 241.688 372.687Z" fill="#FFD65A"/>
<path d="M214.925 369.148C214.948 369.445 215.177 369.651 215.428 369.788C215.657 369.948 215.932 370.062 216.183 370.153C216.709 370.359 217.258 370.518 217.807 370.655C218.905 370.929 220.049 371.112 221.17 371.272C223.434 371.591 225.699 371.797 227.986 371.957C232.538 372.254 237.113 372.413 241.688 372.391C246.263 372.413 250.815 372.276 255.389 371.957C257.677 371.797 259.941 371.591 262.206 371.272C263.327 371.112 264.47 370.929 265.568 370.655C266.117 370.518 266.666 370.381 267.193 370.153C267.467 370.039 267.719 369.925 267.947 369.788C268.176 369.651 268.428 369.422 268.451 369.148C268.451 369.445 268.199 369.674 267.97 369.833C267.742 369.993 267.49 370.13 267.215 370.244C266.689 370.473 266.14 370.655 265.591 370.815C264.493 371.135 263.35 371.363 262.229 371.569C259.964 371.957 257.7 372.208 255.412 372.413C250.838 372.824 246.263 372.961 241.688 372.984C237.113 372.961 232.515 372.824 227.963 372.413C225.676 372.208 223.411 371.934 221.147 371.569C220.026 371.363 218.882 371.135 217.784 370.815C217.235 370.655 216.686 370.496 216.16 370.244C215.909 370.13 215.634 369.993 215.405 369.833C215.177 369.674 214.948 369.445 214.925 369.148Z" fill="#FFEDCA"/>
<path d="M233.705 377.711C223.663 377.277 218.265 376.181 216.664 375.427C216.664 374.674 216.664 373.624 216.664 372.619C219.248 373.601 224.212 374.446 233.705 374.834V377.711Z" fill="#FFD685"/>
<path d="M169.177 444.654L202.802 444.677H222.702C222.702 444.677 222.702 451.664 222.702 451.846C222.702 453.49 214.262 454.86 202.802 455.271C200.606 455.34 198.319 455.385 195.94 455.385C181.163 455.385 169.177 453.81 169.177 451.846C169.154 451.664 169.177 444.654 169.177 444.654Z" fill="url(#paint8_linear)"/>
<path d="M195.894 448.262C210.675 448.262 222.657 446.677 222.657 444.723C222.657 442.768 210.675 441.184 195.894 441.184C181.113 441.184 169.131 442.768 169.131 444.723C169.131 446.677 181.113 448.262 195.894 448.262Z" fill="#FFD65A"/>
<path d="M187.934 453.261C177.892 452.828 172.494 451.732 170.892 450.978C170.892 450.225 170.892 449.175 170.892 448.17C173.477 449.152 178.441 449.996 187.934 450.385V453.261Z" fill="#FFD685"/>
<path d="M169.177 436.229L202.802 436.251H222.702C222.702 436.251 222.702 443.238 222.702 443.421C222.702 445.065 214.262 446.434 202.802 446.845C200.606 446.914 198.319 446.96 195.94 446.96C181.163 446.96 169.177 445.384 169.177 443.421C169.154 443.238 169.177 436.229 169.177 436.229Z" fill="url(#paint9_linear)"/>
<path d="M195.894 439.814C210.675 439.814 222.657 438.23 222.657 436.275C222.657 434.321 210.675 432.736 195.894 432.736C181.113 432.736 169.131 434.321 169.131 436.275C169.131 438.23 181.113 439.814 195.894 439.814Z" fill="#FFD65A"/>
<path d="M187.934 444.838C177.892 444.404 172.494 443.308 170.892 442.554C170.892 441.801 170.892 440.751 170.892 439.746C173.477 440.728 178.441 441.573 187.934 441.961V444.838Z" fill="#FFD685"/>
<path d="M169.177 427.779L202.802 427.802H222.702C222.702 427.802 222.702 434.789 222.702 434.971C222.702 436.615 214.262 437.985 202.802 438.396C200.606 438.465 198.319 438.51 195.94 438.51C181.163 438.51 169.177 436.935 169.177 434.971C169.154 434.789 169.177 427.779 169.177 427.779Z" fill="url(#paint10_linear)"/>
<path d="M195.894 431.389C210.675 431.389 222.657 429.804 222.657 427.85C222.657 425.895 210.675 424.311 195.894 424.311C181.113 424.311 169.131 425.895 169.131 427.85C169.131 429.804 181.113 431.389 195.894 431.389Z" fill="#FFD65A"/>
<path d="M187.934 436.388C177.892 435.955 172.494 434.859 170.892 434.105C170.892 433.352 170.892 432.301 170.892 431.297C173.477 432.279 178.441 433.123 187.934 433.512V436.388Z" fill="#FFD685"/>
<path d="M169.177 419.355L202.802 419.378H222.702C222.702 419.378 222.702 426.365 222.702 426.548C222.702 428.191 214.262 429.561 202.802 429.972C200.606 430.041 198.319 430.086 195.94 430.086C181.163 430.086 169.177 428.511 169.177 426.548C169.154 426.342 169.177 419.355 169.177 419.355Z" fill="url(#paint11_linear)"/>
<path d="M195.894 422.941C210.675 422.941 222.657 421.357 222.657 419.402C222.657 417.448 210.675 415.863 195.894 415.863C181.113 415.863 169.131 417.448 169.131 419.402C169.131 421.357 181.113 422.941 195.894 422.941Z" fill="#FFD65A"/>
<path d="M187.934 427.963C177.892 427.529 172.494 426.433 170.892 425.679C170.892 424.926 170.892 423.876 170.892 422.871C173.477 423.853 178.441 424.698 187.934 425.086V427.963Z" fill="#FFD685"/>
<path d="M169.177 410.908L202.802 410.931H222.702C222.702 410.931 222.702 417.918 222.702 418.1C222.702 419.744 214.262 421.114 202.802 421.525C200.606 421.594 198.319 421.639 195.94 421.639C181.163 421.639 169.177 420.064 169.177 418.1C169.154 417.918 169.177 410.908 169.177 410.908Z" fill="url(#paint12_linear)"/>
<path d="M195.894 414.515C210.675 414.515 222.657 412.931 222.657 410.976C222.657 409.022 210.675 407.438 195.894 407.438C181.113 407.438 169.131 409.022 169.131 410.976C169.131 412.931 181.113 414.515 195.894 414.515Z" fill="#FFD65A"/>
<path d="M169.177 402.459L202.802 402.482H222.702C222.702 402.482 222.702 409.468 222.702 409.651C222.702 411.295 214.262 412.665 202.802 413.076C200.606 413.144 198.319 413.19 195.94 413.19C181.163 413.19 169.177 411.615 169.177 409.651C169.154 409.468 169.177 402.459 169.177 402.459Z" fill="url(#paint13_linear)"/>
<path d="M195.894 406.068C210.675 406.068 222.657 404.484 222.657 402.529C222.657 400.575 210.675 398.99 195.894 398.99C181.113 398.99 169.131 400.575 169.131 402.529C169.131 404.484 181.113 406.068 195.894 406.068Z" fill="#FFD65A"/>
<path d="M178.395 394.035L212.02 394.058H231.921C231.921 394.058 231.921 401.045 231.921 401.227C231.921 402.871 223.48 404.241 212.02 404.652C209.824 404.721 207.537 404.766 205.158 404.766C190.381 404.766 178.395 403.191 178.395 401.227C178.372 401.045 178.395 394.035 178.395 394.035Z" fill="url(#paint14_linear)"/>
<path d="M205.112 397.621C219.893 397.621 231.875 396.036 231.875 394.082C231.875 392.127 219.893 390.543 205.112 390.543C190.332 390.543 178.349 392.127 178.349 394.082C178.349 396.036 190.332 397.621 205.112 397.621Z" fill="#FFD65A"/>
<path d="M197.152 402.642C187.11 402.209 181.712 401.113 180.111 400.359C180.111 399.606 180.111 398.555 180.111 397.551C182.695 398.533 187.659 399.377 197.152 399.766V402.642Z" fill="#FFD685"/>
<path d="M178.372 394.217C178.395 394.514 178.624 394.719 178.876 394.856C179.104 395.016 179.379 395.13 179.63 395.221C180.157 395.427 180.706 395.587 181.255 395.724C182.352 395.998 183.496 396.18 184.617 396.34C186.882 396.66 189.146 396.865 191.434 397.025C195.985 397.322 200.56 397.482 205.135 397.459C209.71 397.482 214.262 397.345 218.837 397.025C221.124 396.865 223.389 396.66 225.653 396.34C226.774 396.18 227.918 395.998 229.016 395.724C229.565 395.587 230.114 395.45 230.64 395.221C230.914 395.107 231.166 394.993 231.395 394.856C231.623 394.719 231.875 394.491 231.898 394.217C231.898 394.514 231.646 394.742 231.418 394.902C231.189 395.062 230.937 395.199 230.663 395.313C230.137 395.541 229.588 395.724 229.039 395.884C227.941 396.203 226.797 396.431 225.676 396.637C223.412 397.025 221.147 397.276 218.86 397.482C214.285 397.893 209.71 398.03 205.135 398.053C200.56 398.03 195.963 397.893 191.411 397.482C189.123 397.276 186.859 397.002 184.594 396.637C183.473 396.431 182.33 396.203 181.232 395.884C180.683 395.724 180.134 395.564 179.608 395.313C179.356 395.199 179.081 395.062 178.853 394.902C178.601 394.765 178.372 394.514 178.372 394.217Z" fill="#FFEDCA"/>
<path d="M169.177 386.09L202.802 386.113H222.702C222.702 386.113 222.702 393.099 222.702 393.282C222.702 394.926 214.262 396.296 202.802 396.707C200.606 396.775 198.318 396.821 195.94 396.821C181.163 396.821 169.177 395.246 169.177 393.282C169.177 393.099 169.177 386.09 169.177 386.09Z" fill="url(#paint15_linear)"/>
<path d="M195.917 389.697C210.697 389.697 222.68 388.113 222.68 386.158C222.68 384.204 210.697 382.619 195.917 382.619C181.136 382.619 169.154 384.204 169.154 386.158C169.154 388.113 181.136 389.697 195.917 389.697Z" fill="#FFD65A"/>
<path d="M169.154 386.158C169.177 386.455 169.406 386.66 169.657 386.797C169.886 386.957 170.161 387.071 170.412 387.163C170.938 387.368 171.487 387.528 172.036 387.665C173.134 387.939 174.278 388.122 175.399 388.282C177.663 388.601 179.928 388.807 182.215 388.967C186.767 389.263 191.342 389.423 195.917 389.4C200.492 389.423 205.044 389.286 209.618 388.967C211.906 388.807 214.17 388.601 216.435 388.282C217.556 388.122 218.699 387.939 219.797 387.665C220.346 387.528 220.895 387.391 221.421 387.163C221.696 387.049 221.948 386.934 222.176 386.797C222.405 386.66 222.657 386.432 222.68 386.158C222.68 386.455 222.428 386.683 222.199 386.843C221.97 387.003 221.719 387.14 221.444 387.254C220.918 387.482 220.369 387.665 219.82 387.825C218.722 388.145 217.579 388.373 216.458 388.578C214.193 388.967 211.929 389.218 209.641 389.423C205.066 389.834 200.492 389.971 195.917 389.994C191.342 389.971 186.744 389.834 182.192 389.423C179.905 389.218 177.64 388.944 175.376 388.578C174.255 388.373 173.111 388.145 172.013 387.825C171.464 387.665 170.915 387.505 170.389 387.254C170.138 387.14 169.863 387.003 169.634 386.843C169.383 386.683 169.154 386.432 169.154 386.158Z" fill="#FFEDCA"/>
<path d="M187.934 394.697C177.892 394.263 172.494 393.167 170.892 392.414C170.892 391.66 170.892 390.61 170.892 389.605C173.477 390.587 178.441 391.432 187.934 391.82V394.697Z" fill="#FFD685"/>
<path d="M187.934 419.515C177.892 419.082 172.494 417.986 170.892 417.232C170.892 416.479 170.892 415.428 170.892 414.424C173.477 415.406 178.441 416.25 187.934 416.639V419.515Z" fill="#FFD685"/>
<path d="M187.934 411.228C177.892 410.794 172.494 409.698 170.892 408.945C170.892 408.192 170.892 407.141 170.892 406.137C173.477 407.118 178.441 407.963 187.934 408.351V411.228Z" fill="#FFD685"/>
<path d="M183.45 207.154C198.711 207.154 211.082 194.806 211.082 179.573C211.082 164.341 198.711 151.992 183.45 151.992C168.19 151.992 155.818 164.341 155.818 179.573C155.818 194.806 168.19 207.154 183.45 207.154Z" fill="#BDBDFF"/>
<path d="M197.655 183.021C197.655 182.998 197.655 182.998 197.655 183.021C197.426 180.647 196.191 179.208 193.904 178.569C193.469 178.455 193.035 178.364 192.623 178.249C191.525 177.93 190.335 177.747 189.352 177.199C186.676 175.761 186.515 174.779 188.025 172.564C189.832 171.103 190.999 168.751 190.999 166.08C190.999 161.65 187.751 158.043 183.771 158.043C179.768 158.043 176.542 161.628 176.542 166.08C176.542 168.888 177.846 171.354 179.79 172.792C180.065 173.203 180.294 173.683 180.5 174.14C180.774 174.779 180.637 175.373 180.134 175.898C179.356 176.742 178.418 177.359 177.297 177.679C176.153 177.998 174.987 178.295 173.82 178.569C171.533 179.117 170.252 180.738 170.046 182.976C169.932 184.117 170.824 185.099 171.968 185.099H195.734C196.855 185.076 197.747 184.117 197.655 183.021Z" fill="white"/>
<path d="M197.518 187.885H170.389V190.236H197.518V187.885Z" fill="white"/>
<path d="M184.228 192.588H170.389V194.94H184.228V192.588Z" fill="white"/>
<path d="M192.897 197.268H170.389V199.619H192.897V197.268Z" fill="white"/>
<path d="M520.249 158.658H444.49V234.278H520.249V158.658Z" fill="#BDBDFF"/>
<path d="M487.859 184.527C490.33 182.609 492.594 179.298 492.594 177.084C492.594 173.796 489.895 171.102 486.601 171.102H479.624C476.331 171.102 473.631 173.796 473.631 177.084C473.631 179.23 475.736 182.403 478.138 184.321C469.583 186.353 463.178 194.071 463.178 203.203V212.656C463.178 217.588 467.227 221.606 472.145 221.606H493.074C498.015 221.606 502.041 217.565 502.041 212.656V203.203C502.064 194.345 496.025 186.81 487.859 184.527Z" fill="white"/>
<path d="M482.69 214.643V212.999C481.523 212.862 480.562 212.588 479.83 212.223C479.098 211.857 478.458 211.241 477.932 210.396C477.589 209.871 477.36 209.254 477.2 208.592C477.04 207.907 477.497 207.245 478.183 207.108C478.801 206.994 479.441 207.382 479.601 207.999C479.784 208.706 480.036 209.254 480.333 209.642C480.997 210.464 481.775 210.944 482.69 211.035V203.615C481.729 203.432 480.745 203.067 479.739 202.496C478.984 202.085 478.412 201.514 478.023 200.784C477.611 200.053 477.428 199.208 477.428 198.295C477.428 196.628 478.023 195.304 479.19 194.277C479.967 193.592 481.134 193.158 482.69 192.998V191.468C482.69 191.08 482.987 190.783 483.376 190.783C483.765 190.783 484.062 191.08 484.062 191.468V192.998C485.412 193.135 486.487 193.523 487.287 194.185C487.951 194.733 488.431 195.395 488.751 196.194C489.049 196.925 488.591 197.747 487.813 197.861C487.242 197.952 486.67 197.61 486.487 197.062C486.327 196.605 486.121 196.217 485.846 195.92C485.412 195.441 484.817 195.121 484.039 194.961V201.674C485.206 201.971 485.983 202.199 486.372 202.359C487.104 202.679 487.699 203.067 488.157 203.524C488.614 203.98 488.957 204.528 489.209 205.145C489.46 205.784 489.575 206.446 489.575 207.199C489.575 208.821 489.049 210.168 488.019 211.241C486.99 212.314 485.663 212.907 484.016 212.976V214.643C484.016 215.031 483.719 215.328 483.33 215.328C482.987 215.328 482.69 215.031 482.69 214.643ZM482.69 194.916C481.775 195.053 481.065 195.418 480.539 196.012C480.013 196.605 479.762 197.29 479.762 198.089C479.762 198.889 479.99 199.551 480.425 200.076C480.86 200.601 481.614 201.035 482.69 201.354V194.916ZM484.062 211.035C484.977 210.921 485.732 210.533 486.304 209.848C486.898 209.186 487.196 208.341 487.196 207.359C487.196 206.515 486.99 205.83 486.555 205.327C486.144 204.802 485.297 204.345 484.039 203.957V211.035H484.062Z" fill="#BDBDFF"/>
<path d="M615.199 158.658H539.44V234.278H615.199V158.658Z" fill="#43AF66"/>
<path d="M587.476 174.367L551.907 174.55C551.083 174.55 550.42 175.28 550.42 176.171L550.443 179.687L588.986 179.322L588.963 175.988C588.986 175.075 588.299 174.367 587.476 174.367Z" fill="white"/>
<path d="M589.008 179.322L550.443 179.688L550.466 183.934L589.008 183.729V179.322Z" fill="#43AF66"/>
<path d="M550.466 183.935L550.534 197.954C550.534 198.844 551.22 199.575 552.044 199.575L587.613 199.392C588.437 199.392 589.1 198.661 589.1 197.771L589.031 183.752L550.466 183.935Z" fill="white"/>
<path d="M585.971 191.343L571.537 191.416L571.543 192.535L585.976 192.462L585.971 191.343Z" fill="#AEE8FF"/>
<path d="M585.994 194.47L571.56 194.543L571.566 195.662L585.999 195.589L585.994 194.47Z" fill="#AEE8FF"/>
<path d="M602.642 187.793L559.638 187.998C558.632 187.998 557.831 188.889 557.831 189.962L557.854 194.209L604.472 193.775L604.449 189.734C604.472 188.661 603.648 187.793 602.642 187.793Z" fill="white"/>
<path d="M604.494 193.775L557.854 194.209L557.877 199.369L604.517 199.118L604.494 193.775Z" fill="#43AF66"/>
<path d="M557.877 199.369L557.968 216.31C557.968 217.383 558.792 218.274 559.775 218.251L602.779 218.046C603.785 218.046 604.586 217.155 604.586 216.082L604.494 199.141L557.877 199.369Z" fill="white"/>
<path d="M578.879 208.437L561.426 208.525L561.433 209.872L578.886 209.784L578.879 208.437Z" fill="#43AF66"/>
<path d="M600.816 208.324L583.363 208.412L583.37 209.759L600.823 209.671L600.816 208.324Z" fill="#43AF66"/>
<path d="M578.902 212.228L561.449 212.316L561.456 213.663L578.909 213.576L578.902 212.228Z" fill="#43AF66"/>
<path d="M600.838 212.113L583.386 212.201L583.392 213.548L600.845 213.46L600.838 212.113Z" fill="#43AF66"/>
<path d="M520.249 250.467H444.49V326.087H520.249V250.467Z" fill="#BDBDFF"/>
<path d="M504.969 301.885C490.512 301.885 476.056 301.885 461.6 301.885C461.966 302.25 462.354 302.639 462.72 303.004C462.72 294.054 462.72 285.081 462.72 276.13C462.354 276.496 461.966 276.884 461.6 277.249C476.056 277.249 490.512 277.249 504.969 277.249C504.603 276.884 504.214 276.496 503.848 276.13C503.848 285.081 503.848 294.054 503.848 303.004C503.848 304.442 506.09 304.442 506.09 303.004C506.09 294.054 506.09 285.081 506.09 276.13C506.09 275.514 505.587 275.012 504.969 275.012C490.512 275.012 476.056 275.012 461.6 275.012C460.982 275.012 460.479 275.514 460.479 276.13C460.479 285.081 460.479 294.054 460.479 303.004C460.479 303.62 460.982 304.123 461.6 304.123C476.056 304.123 490.512 304.123 504.969 304.123C506.41 304.123 506.41 301.885 504.969 301.885Z" fill="white"/>
<path d="M460.822 276.93C464.367 280.332 467.913 283.756 471.458 287.158C474.501 290.081 478.343 295.469 483.17 294.647C487.356 293.917 491.633 288.78 494.698 286.2C498.404 283.094 502.087 280.012 505.792 276.907C506.89 275.971 505.312 274.395 504.214 275.331C501.08 277.957 497.947 280.56 494.836 283.186C491.656 285.857 488.454 289.328 484.908 291.497C479.945 294.533 474.706 287.113 471.527 284.053C468.508 281.154 465.465 278.231 462.446 275.331C461.348 274.35 459.77 275.925 460.822 276.93Z" fill="white"/>
<path d="M615.199 250.467H539.44V326.087H615.199V250.467Z" fill="#BDBDFF"/>
<path d="M586.103 306.063H572.791C564.739 306.063 558.151 299.488 558.151 291.451V288.597C558.151 280.56 564.739 273.984 572.791 273.984H586.103C594.155 273.984 600.743 280.56 600.743 288.597V291.451C600.766 299.488 594.178 306.063 586.103 306.063Z" fill="white"/>
<path d="M556.276 300.859C550.717 300.859 546.188 296.338 546.188 290.79C546.188 285.241 550.717 280.721 556.276 280.721H568.239C573.797 280.721 578.326 285.241 578.326 290.79C578.326 296.338 573.797 300.859 568.239 300.859H556.276Z" fill="#BDBDFF"/>
<path d="M568.856 297.866H555.635C552.067 297.866 549.162 294.967 549.162 291.405V290.149C549.162 286.587 552.067 283.688 555.635 283.688H568.856C572.425 283.688 575.33 286.587 575.33 290.149V291.405C575.33 294.967 572.425 297.866 568.856 297.866Z" fill="white"/>
<path d="M566.729 294.121C568.586 294.121 570.091 292.618 570.091 290.765C570.091 288.911 568.586 287.408 566.729 287.408C564.872 287.408 563.366 288.911 563.366 290.765C563.366 292.618 564.872 294.121 566.729 294.121Z" fill="#BDBDFF"/>
<path d="M520.249 340.768H444.49V416.387H520.249V340.768Z" fill="#BDBDFF"/>
<path d="M493.006 401.844C495.385 399.241 496.826 395.793 496.826 392.003C496.826 384.834 491.656 378.875 484.817 377.642V382.688C484.817 384.08 483.673 385.222 482.278 385.222C480.883 385.222 479.739 384.08 479.739 382.688V377.619C478.412 377.847 477.131 378.235 475.942 378.806C475.507 378.327 474.798 377.687 473.769 377.368C472.717 377.025 471.55 377.094 470.498 377.505C469.468 377.893 469.194 379.171 469.88 380.016C469.88 380.016 469.88 380.039 469.903 380.039C470.635 380.952 470.887 381.934 470.955 382.665C470.246 383.51 469.629 384.446 469.125 385.45C468.805 385.336 468.485 385.29 468.119 385.29C466.426 385.29 465.031 386.683 465.031 388.373V393.715C465.031 395.405 466.426 396.798 468.119 396.798C468.187 396.798 468.279 396.798 468.348 396.775C468.988 398.647 470.017 400.36 471.321 401.798L470.063 404.31C469.514 405.405 469.949 406.753 471.07 407.323C471.962 407.78 473.06 407.575 473.723 406.844L475.439 404.994C477.451 406.045 479.762 406.638 482.186 406.638C484.588 406.638 486.876 406.045 488.889 405.017L490.558 406.844C491.245 407.575 492.32 407.78 493.212 407.323C494.31 406.775 494.767 405.428 494.218 404.31L493.006 401.844Z" fill="white"/>
<path d="M481.5 374.24V372.597C480.334 372.46 479.373 372.186 478.641 371.82C477.909 371.455 477.268 370.838 476.742 369.994C476.399 369.469 476.171 368.852 476.01 368.19C475.85 367.505 476.308 366.843 476.994 366.706C477.612 366.592 478.252 366.98 478.412 367.596C478.595 368.304 478.847 368.852 479.144 369.24C479.807 370.062 480.585 370.542 481.5 370.633V363.213C480.539 363.03 479.556 362.665 478.549 362.094C477.795 361.683 477.223 361.112 476.834 360.381C476.422 359.651 476.239 358.806 476.239 357.893C476.239 356.226 476.834 354.902 478 353.874C478.778 353.189 479.945 352.755 481.5 352.596V351.066C481.5 350.678 481.798 350.381 482.186 350.381C482.575 350.381 482.873 350.678 482.873 351.066V352.596C484.222 352.733 485.297 353.121 486.098 353.783C486.761 354.331 487.242 354.993 487.562 355.792C487.859 356.523 487.402 357.345 486.624 357.459C486.052 357.55 485.48 357.208 485.297 356.66C485.137 356.203 484.931 355.815 484.657 355.518C484.222 355.039 483.627 354.719 482.85 354.559V361.272C484.016 361.569 484.794 361.797 485.183 361.957C485.915 362.276 486.51 362.665 486.967 363.121C487.425 363.578 487.768 364.126 488.019 364.742C488.271 365.382 488.385 366.044 488.385 366.797C488.385 368.418 487.859 369.765 486.83 370.838C485.801 371.912 484.474 372.505 482.827 372.574V374.24C482.827 374.629 482.53 374.925 482.141 374.925C481.798 374.925 481.5 374.629 481.5 374.24ZM481.5 354.513C480.585 354.65 479.876 355.016 479.35 355.609C478.824 356.203 478.572 356.888 478.572 357.687C478.572 358.486 478.801 359.148 479.236 359.674C479.67 360.199 480.425 360.633 481.5 360.952V354.513ZM482.873 370.633C483.788 370.519 484.542 370.131 485.114 369.446C485.709 368.784 486.006 367.939 486.006 366.957C486.006 366.112 485.8 365.427 485.366 364.925C484.954 364.4 484.108 363.943 482.85 363.555V370.633H482.873Z" fill="white"/>
<path d="M615.199 340.768H539.44V416.387H615.199V340.768Z" fill="#BDBDFF"/>
<path d="M576.954 391.09V389.446C575.787 389.309 574.827 389.035 574.095 388.67C573.363 388.304 572.722 387.688 572.196 386.843C571.853 386.318 571.624 385.702 571.464 385.039C571.304 384.355 571.762 383.692 572.448 383.555C573.065 383.441 573.706 383.829 573.866 384.446C574.049 385.154 574.301 385.702 574.598 386.09C575.261 386.912 576.039 387.391 576.954 387.483V380.062C575.993 379.879 575.01 379.514 574.003 378.943C573.248 378.532 572.676 377.962 572.288 377.231C571.876 376.5 571.693 375.656 571.693 374.742C571.693 373.075 572.288 371.751 573.454 370.724C574.232 370.039 575.398 369.605 576.954 369.445V367.915C576.954 367.527 577.251 367.23 577.64 367.23C578.029 367.23 578.326 367.527 578.326 367.915V369.445C579.676 369.582 580.751 369.97 581.552 370.632C582.215 371.18 582.695 371.843 583.015 372.642C583.313 373.372 582.855 374.194 582.078 374.308C581.506 374.4 580.934 374.057 580.751 373.509C580.591 373.053 580.385 372.665 580.111 372.368C579.676 371.888 579.081 371.569 578.303 371.409V378.121C579.47 378.418 580.248 378.647 580.637 378.806C581.369 379.126 581.963 379.514 582.421 379.971C582.878 380.427 583.221 380.975 583.473 381.592C583.725 382.231 583.839 382.893 583.839 383.647C583.839 385.268 583.313 386.615 582.284 387.688C581.254 388.761 579.928 389.355 578.281 389.423V391.09C578.281 391.478 577.983 391.775 577.594 391.775C577.251 391.775 576.954 391.478 576.954 391.09ZM576.954 371.363C576.039 371.5 575.33 371.865 574.804 372.459C574.278 373.053 574.026 373.738 574.026 374.537C574.026 375.336 574.255 375.998 574.689 376.523C575.124 377.048 575.879 377.482 576.954 377.802V371.363ZM578.326 387.483C579.241 387.368 579.996 386.98 580.568 386.295C581.163 385.61 581.46 384.788 581.46 383.807C581.46 382.962 581.254 382.277 580.82 381.774C580.408 381.249 579.562 380.793 578.303 380.405V387.483H578.326Z" fill="white"/>
<path d="M599.256 391.524C584.8 391.524 570.343 391.524 555.887 391.524C556.253 391.889 556.642 392.277 557.008 392.642C557.008 383.692 557.008 374.719 557.008 365.769C556.642 366.134 556.253 366.523 555.887 366.888C570.343 366.888 584.8 366.888 599.256 366.888C598.89 366.523 598.501 366.134 598.135 365.769C598.135 374.719 598.135 383.692 598.135 392.642C598.135 394.081 600.377 394.081 600.377 392.642C600.377 383.692 600.377 374.719 600.377 365.769C600.377 365.153 599.874 364.65 599.256 364.65C584.8 364.65 570.343 364.65 555.887 364.65C555.269 364.65 554.766 365.153 554.766 365.769C554.766 374.719 554.766 383.692 554.766 392.642C554.766 393.259 555.269 393.761 555.887 393.761C570.343 393.761 584.8 393.761 599.256 393.761C600.697 393.761 600.72 391.524 599.256 391.524Z" fill="white"/>
<path d="M309.532 430.977H145.411V463.672H309.532V430.977Z" fill="#686868"/>
<path d="M301.801 155.92H220.598V160.281H301.801V155.92Z" fill="white"/>
<path d="M253.537 168.225H220.598V172.586H253.537V168.225Z" fill="white"/>
<path d="M301.801 168.225H261.108V172.586H301.801V168.225Z" fill="white"/>
<g opacity="0.72">
<path opacity="0.28" d="M635.351 139.457H570.389L350.18 430.771H441.173L635.351 161.947V139.457Z" fill="white"/>
<path opacity="0.28" d="M300.223 139.457L142.597 320.333V430.771H216.824L459.335 139.457H300.223Z" fill="white"/>
</g>
<path d="M469.514 126.259H397.849V97.6504H445.908C459.564 97.6276 469.491 108.199 469.491 121.19V126.259H469.514Z" fill="#3E383B"/>
<path d="M405.238 253.411H341.945C329.296 253.411 319.048 243.182 319.048 230.556V121.19C319.048 108.176 329.616 97.6504 342.631 97.6504H428.112V230.556C428.112 243.182 417.864 253.411 405.238 253.411Z" fill="#43AF66"/>
<path d="M446.16 97.6504H428.043V115.733C428.043 105.733 436.164 97.6504 446.16 97.6504Z" fill="#43AF66"/>
<path d="M413.404 121.852H332.201V126.212H413.404V121.852Z" fill="white"/>
<path d="M413.404 134.182H332.201V138.543H413.404V134.182Z" fill="white"/>
<path d="M365.139 146.488H332.201V150.849H365.139V146.488Z" fill="white"/>
<path d="M413.404 146.488H372.711V150.849H413.404V146.488Z" fill="white"/>
<path d="M413.404 158.816H332.201V163.177H413.404V158.816Z" fill="white"/>
<path d="M413.427 171.123H393.915V175.484H413.427V171.123Z" fill="white"/>
<path d="M386.252 171.123H332.407V175.484H386.252V171.123Z" fill="white"/>
<path d="M413.404 183.453H332.201V187.814H413.404V183.453Z" fill="white"/>
<path d="M354.503 195.76H332.201V200.121H354.503V195.76Z" fill="white"/>
<path d="M413.221 195.76H363.561V200.121H413.221V195.76Z" fill="white"/>
<path d="M413.404 208.09H332.201V212.451H413.404V208.09Z" fill="white"/>
<path d="M413.404 220.396H332.201V224.757H413.404V220.396Z" fill="white"/>
<path d="M251.158 9.72534C278.081 6.32336 300.017 27.5344 297.249 54.5447C296.632 60.5039 305.987 60.4582 306.582 54.5447C309.83 22.9223 282.793 -3.60859 251.158 0.409856C245.279 1.14048 245.21 10.4788 251.158 9.72534Z" fill="#BDBDFF"/>
<path d="M243.998 27.877C264.585 25.4111 280.894 41.1424 278.927 61.8283C278.355 67.7874 287.71 67.7646 288.259 61.8283C290.661 36.5304 269.32 15.5249 243.998 18.5387C238.097 19.2465 238.028 28.5848 243.998 27.877Z" fill="#BDBDFF"/>
<path d="M239.698 45.8691C252.21 44.385 261.909 53.6548 260.719 66.2581C260.147 72.2173 269.503 72.1945 270.052 66.2581C271.676 49.0427 256.945 34.4987 239.698 36.5536C233.819 37.2614 233.751 46.5997 239.698 45.8691Z" fill="#BDBDFF"/>
<path d="M538.388 92.216C532.921 76.5304 546.142 61.7352 562.383 66.3929C567.164 67.7628 569.2 60.3424 564.442 58.9725C542.826 52.785 523.543 73.0371 530.954 94.2709C532.578 98.9286 540.035 96.9194 538.388 92.216Z" fill="#57EF89"/>
<path d="M573.706 76.5086C579.79 92.3313 566.226 107.652 549.734 102.788C544.953 101.373 542.917 108.816 547.675 110.209C569.405 116.602 589.375 95.8474 581.14 74.4538C579.379 69.8873 571.922 71.8737 573.706 76.5086Z" fill="#57EF89"/>
<path d="M560.622 56.0965C562.978 59.019 565.334 61.9187 567.69 64.8412C567.69 63.9279 567.69 63.0146 567.69 62.1241C565.036 64.2019 562.383 66.3024 559.73 68.3801C557.785 69.9099 560.53 72.6269 562.452 71.0971C565.105 69.0194 567.758 66.9189 570.412 64.8412C571.281 64.1562 571.007 62.8548 570.412 62.1241C568.056 59.2016 565.7 56.302 563.344 53.3795C561.788 51.4387 559.066 54.1786 560.622 56.0965Z" fill="#57EF89"/>
<path d="M548.315 113.086C547.08 109.547 545.868 106.008 544.633 102.469C544.335 103.314 544.015 104.181 543.718 105.026C546.92 103.953 550.123 102.903 553.325 101.83C555.681 101.053 554.011 97.5601 551.678 98.3364C548.476 99.4095 545.273 100.46 542.071 101.533C541.019 101.875 540.836 103.2 541.156 104.09C542.391 107.629 543.603 111.168 544.839 114.707C545.616 117.082 549.116 115.415 548.315 113.086Z" fill="#57EF89"/>
<path d="M94.7445 236.174V233.229C92.663 232.977 90.9703 232.498 89.6665 231.836C88.3627 231.174 87.2418 230.078 86.2811 228.594C85.6864 227.658 85.2289 226.562 84.9544 225.352C84.6799 224.141 85.4805 222.931 86.6929 222.703C87.8137 222.497 88.9116 223.182 89.209 224.278C89.5292 225.534 89.9867 226.516 90.5357 227.224C91.7023 228.708 93.1205 229.53 94.7445 229.69V216.424C93.029 216.105 91.2677 215.442 89.4835 214.438C88.1568 213.707 87.1275 212.68 86.4184 211.355C85.7093 210.054 85.3433 208.547 85.3433 206.88C85.3433 203.912 86.3955 201.515 88.4999 199.688C89.8952 198.455 91.9996 197.702 94.7674 197.428V194.688C94.7674 194.003 95.3164 193.455 96.0026 193.455C96.6888 193.455 97.2378 194.003 97.2378 194.688V197.428C99.6625 197.656 101.584 198.364 103.002 199.551C104.169 200.51 105.038 201.72 105.61 203.136C106.136 204.437 105.335 205.899 103.94 206.127C102.911 206.287 101.904 205.693 101.584 204.711C101.309 203.889 100.921 203.204 100.44 202.656C99.6625 201.789 98.5874 201.218 97.2378 200.944V212.954C99.3422 213.479 100.738 213.89 101.401 214.187C102.705 214.757 103.757 215.442 104.58 216.264C105.404 217.086 106.021 218.045 106.479 219.187C106.914 220.306 107.142 221.539 107.142 222.84C107.142 225.717 106.227 228.137 104.375 230.055C102.545 231.973 100.166 233.023 97.2378 233.16V236.151C97.2378 236.836 96.6888 237.384 96.0026 237.384C95.2935 237.407 94.7445 236.859 94.7445 236.174ZM94.7445 200.944C93.1205 201.195 91.8395 201.834 90.9017 202.885C89.9638 203.935 89.5064 205.168 89.5064 206.606C89.5064 208.022 89.8952 209.209 90.6958 210.168C91.4964 211.127 92.846 211.881 94.7445 212.451V200.944ZM97.1921 229.712C98.8161 229.507 100.166 228.799 101.218 227.612C102.27 226.402 102.796 224.918 102.796 223.137C102.796 221.63 102.43 220.42 101.675 219.484C100.921 218.57 99.4337 217.748 97.1921 217.018V229.712Z" fill="white"/>
<path d="M608.108 225.078L635.923 342.344L658.98 300.858L704.134 341.613L719.208 324.968L670.166 280.72L661.611 273.003L608.589 225.147L608.108 225.078Z" fill="#EEEEFF"/>
<path d="M727.786 240.923L608.589 225.146L670.166 280.72L670.189 280.697L719.231 324.945L734.305 308.301L689.174 267.591L727.786 240.923Z" fill="#BDBDFF"/>
<defs>
<linearGradient id="paint0_linear" x1="268.468" y1="433.95" x2="214.943" y2="433.95" gradientUnits="userSpaceOnUse">
<stop stop-color="#F2BF40"/>
<stop offset="0.6838" stop-color="#F2BF40"/>
<stop offset="0.8657" stop-color="#F7BA40"/>
<stop offset="1" stop-color="#FFB340"/>
</linearGradient>
<linearGradient id="paint1_linear" x1="268.467" y1="425.205" x2="214.942" y2="425.205" gradientUnits="userSpaceOnUse">
<stop stop-color="#F2BF40"/>
<stop offset="0.6838" stop-color="#F2BF40"/>
<stop offset="0.8657" stop-color="#F7BA40"/>
<stop offset="1" stop-color="#FFB340"/>
</linearGradient>
<linearGradient id="paint2_linear" x1="268.467" y1="416.765" x2="214.942" y2="416.765" gradientUnits="userSpaceOnUse">
<stop stop-color="#F2BF40"/>
<stop offset="0.6838" stop-color="#F2BF40"/>
<stop offset="0.8657" stop-color="#F7BA40"/>
<stop offset="1" stop-color="#FFB340"/>
</linearGradient>
<linearGradient id="paint3_linear" x1="268.467" y1="408.327" x2="214.942" y2="408.327" gradientUnits="userSpaceOnUse">
<stop stop-color="#F2BF40"/>
<stop offset="0.6838" stop-color="#F2BF40"/>
<stop offset="0.8657" stop-color="#F7BA40"/>
<stop offset="1" stop-color="#FFB340"/>
</linearGradient>
<linearGradient id="paint4_linear" x1="268.467" y1="399.889" x2="214.942" y2="399.889" gradientUnits="userSpaceOnUse">
<stop stop-color="#F2BF40"/>
<stop offset="0.6838" stop-color="#F2BF40"/>
<stop offset="0.8657" stop-color="#F7BA40"/>
<stop offset="1" stop-color="#FFB340"/>
</linearGradient>
<linearGradient id="paint5_linear" x1="268.467" y1="391.447" x2="214.942" y2="391.447" gradientUnits="userSpaceOnUse">
<stop stop-color="#F2BF40"/>
<stop offset="0.6838" stop-color="#F2BF40"/>
<stop offset="0.8657" stop-color="#F7BA40"/>
<stop offset="1" stop-color="#FFB340"/>
</linearGradient>
<linearGradient id="paint6_linear" x1="268.698" y1="382.933" x2="215.173" y2="382.933" gradientUnits="userSpaceOnUse">
<stop stop-color="#F2BF40"/>
<stop offset="0.6838" stop-color="#F2BF40"/>
<stop offset="0.8657" stop-color="#F7BA40"/>
<stop offset="1" stop-color="#FFB340"/>
</linearGradient>
<linearGradient id="paint7_linear" x1="268.477" y1="374.457" x2="214.951" y2="374.457" gradientUnits="userSpaceOnUse">
<stop stop-color="#F2BF40"/>
<stop offset="0.6838" stop-color="#F2BF40"/>
<stop offset="0.8657" stop-color="#F7BA40"/>
<stop offset="1" stop-color="#FFB340"/>
</linearGradient>
<linearGradient id="paint8_linear" x1="222.682" y1="450.028" x2="169.157" y2="450.028" gradientUnits="userSpaceOnUse">
<stop stop-color="#F2BF40"/>
<stop offset="0.6838" stop-color="#F2BF40"/>
<stop offset="0.8657" stop-color="#F7BA40"/>
<stop offset="1" stop-color="#FFB340"/>
</linearGradient>
<linearGradient id="paint9_linear" x1="222.682" y1="441.588" x2="169.157" y2="441.588" gradientUnits="userSpaceOnUse">
<stop stop-color="#F2BF40"/>
<stop offset="0.6838" stop-color="#F2BF40"/>
<stop offset="0.8657" stop-color="#F7BA40"/>
<stop offset="1" stop-color="#FFB340"/>
</linearGradient>
<linearGradient id="paint10_linear" x1="222.682" y1="433.148" x2="169.157" y2="433.148" gradientUnits="userSpaceOnUse">
<stop stop-color="#F2BF40"/>
<stop offset="0.6838" stop-color="#F2BF40"/>
<stop offset="0.8657" stop-color="#F7BA40"/>
<stop offset="1" stop-color="#FFB340"/>
</linearGradient>
<linearGradient id="paint11_linear" x1="222.682" y1="424.71" x2="169.157" y2="424.71" gradientUnits="userSpaceOnUse">
<stop stop-color="#F2BF40"/>
<stop offset="0.6838" stop-color="#F2BF40"/>
<stop offset="0.8657" stop-color="#F7BA40"/>
<stop offset="1" stop-color="#FFB340"/>
</linearGradient>
<linearGradient id="paint12_linear" x1="222.682" y1="416.272" x2="169.157" y2="416.272" gradientUnits="userSpaceOnUse">
<stop stop-color="#F2BF40"/>
<stop offset="0.6838" stop-color="#F2BF40"/>
<stop offset="0.8657" stop-color="#F7BA40"/>
<stop offset="1" stop-color="#FFB340"/>
</linearGradient>
<linearGradient id="paint13_linear" x1="222.682" y1="407.832" x2="169.157" y2="407.832" gradientUnits="userSpaceOnUse">
<stop stop-color="#F2BF40"/>
<stop offset="0.6838" stop-color="#F2BF40"/>
<stop offset="0.8657" stop-color="#F7BA40"/>
<stop offset="1" stop-color="#FFB340"/>
</linearGradient>
<linearGradient id="paint14_linear" x1="231.905" y1="399.395" x2="178.38" y2="399.395" gradientUnits="userSpaceOnUse">
<stop stop-color="#F2BF40"/>
<stop offset="0.6838" stop-color="#F2BF40"/>
<stop offset="0.8657" stop-color="#F7BA40"/>
<stop offset="1" stop-color="#FFB340"/>
</linearGradient>
<linearGradient id="paint15_linear" x1="222.691" y1="391.455" x2="169.166" y2="391.455" gradientUnits="userSpaceOnUse">
<stop stop-color="#F2BF40"/>
<stop offset="0.6838" stop-color="#F2BF40"/>
<stop offset="0.8657" stop-color="#F7BA40"/>
<stop offset="1" stop-color="#FFB340"/>
</linearGradient>
</defs>
</svg>
