<svg width="405" height="384" viewBox="0 0 405 384" fill="none" xmlns="http://www.w3.org/2000/svg">
<g opacity="0.4">
<g opacity="0.4">
<path opacity="0.4" d="M403.479 215.897C397.81 208.162 384.121 224.737 377.899 233.163C371.953 237.169 366.284 241.451 360.753 246.009C363.795 238.274 383.015 219.626 373.889 214.239C369.326 211.477 364.901 216.726 362.135 225.842C359.785 233.301 360.061 243.108 360.338 246.285C352.733 252.363 345.543 258.855 338.629 265.762C340.842 258.026 359.37 237.721 349.691 232.887C344.851 230.4 340.98 236.064 338.629 245.318C336.693 253.192 337.8 263.137 338.214 266.176C331.854 272.392 325.908 279.022 320.101 285.79C322.728 276.259 333.79 256.645 324.387 254.021C319.271 252.501 316.367 258.717 315.814 268.248C315.399 275.292 317.612 283.442 318.718 287.31C311.113 296.426 304.061 306.095 297.562 316.041C298.945 306.786 309.592 285.1 299.636 283.028C294.382 281.923 292.031 288.277 292.17 297.808C292.308 305.128 295.35 313.554 296.733 317.146C294.52 320.461 292.446 323.776 290.51 327.229C288.16 331.235 285.809 335.241 283.597 339.385C283.32 330.268 290.649 306.51 280.417 306.095C275.024 305.819 273.641 312.449 275.439 321.842C276.821 329.163 281.108 337.036 283.044 340.351C277.513 350.573 272.535 361.071 268.663 371.845C266.036 364.386 269.631 336.898 258.984 338.418C253.73 339.108 253.592 346.015 257.048 354.855C259.952 362.452 266.589 370.049 268.525 372.259C267.695 374.608 266.866 377.094 266.174 379.442C265.621 381.514 268.663 382.619 269.216 380.547C270.046 377.646 271.014 374.884 272.12 371.983C275.854 371.154 284.565 369.082 290.787 365.215C298.945 360.104 302.955 354.579 299.083 350.849C291.893 343.667 279.31 364.939 272.397 370.878C276.13 360.795 280.97 350.987 286.086 341.456C289.128 341.456 299.083 341.18 306.55 338.28C315.538 334.826 320.516 330.13 317.474 325.71C311.39 316.869 293.552 338.003 286.224 341.042C288.16 337.313 290.234 333.721 292.308 330.268C294.52 326.4 296.871 322.671 299.36 318.803C302.125 319.218 312.357 320.599 320.377 318.941C329.78 316.869 335.449 313.14 333.098 308.305C328.397 298.498 306.965 317.146 299.498 318.665C305.997 308.582 313.187 298.774 320.792 289.658C322.175 290.072 333.375 292.697 342.224 291.454C351.765 290.072 357.573 286.757 355.637 281.785C351.489 271.287 327.429 289.796 320.792 289.658C327.014 282.061 333.651 274.878 340.703 267.972C344.022 269.353 352.595 272.806 360.2 273.082C369.74 273.497 376.239 271.287 375.271 266.038C373.336 255.816 349.968 266.867 341.256 267.419C348.032 260.789 355.222 254.435 362.55 248.495C365.731 250.153 374.165 254.159 381.77 254.987C391.311 256.092 397.81 254.297 397.257 248.91C396.012 238.55 371.676 248.219 363.103 248.081C368.219 244.075 373.474 240.069 378.866 236.34C388.684 233.577 410.946 226.118 403.479 215.897Z" fill="white"/>
<path opacity="0.4" d="M372.506 315.35C364.901 297.946 329.365 318.389 311.666 331.511C283.597 352.507 277.789 378.061 277.789 378.061C320.792 374.331 382.185 337.865 372.506 315.35ZM366.837 329.715C366.699 329.715 366.56 329.715 366.56 329.715C363.518 328.887 360.061 328.472 356.052 328.472C352.18 328.472 348.308 328.887 344.713 329.163C340.427 331.511 336.002 334.136 331.439 337.036C338.767 336.069 346.926 336.76 354.531 338.97C355.084 339.108 355.498 339.661 355.36 340.351C355.222 341.042 354.531 341.595 353.839 341.318C348.861 339.799 343.469 339.108 338.353 339.108C334.066 339.108 329.918 339.661 326.185 340.766C321.622 343.943 316.92 347.396 311.666 351.264C321.069 348.363 330.056 347.396 337.8 348.501C338.491 348.639 338.906 349.192 338.906 349.882C338.906 350.573 338.353 350.987 337.8 350.987H337.661C328.259 349.744 317.059 351.54 305.582 356.098C301.019 359.689 296.871 363.143 292.999 366.458C300.466 364.11 308.624 362.728 316.644 362.59C317.335 362.59 317.888 363.143 317.888 363.833C317.888 364.524 317.335 365.077 316.644 365.077C306.688 365.353 296.871 367.287 288.16 370.74C286.639 372.121 285.256 373.502 283.735 374.884C283.458 375.16 283.182 375.16 282.905 375.16C282.352 375.16 281.937 374.884 281.799 374.331C281.661 373.917 281.661 373.364 282.076 373.088C283.735 371.43 285.671 369.773 287.607 367.977C293.276 362.452 297.977 354.164 300.466 344.633C300.604 344.081 301.019 343.805 301.572 343.805C301.987 343.805 302.402 343.943 302.54 344.357C302.817 344.633 302.817 345.048 302.678 345.462C301.296 350.849 299.222 355.822 296.594 360.38C299.083 358.308 301.572 356.236 304.199 354.164C310.836 348.363 315.953 339.661 318.027 330.13C318.165 329.577 318.58 329.163 319.133 329.163C319.548 329.163 319.962 329.301 320.101 329.715C320.377 329.992 320.377 330.406 320.377 330.82C318.995 336.484 316.644 342.147 313.464 346.982C317.474 343.943 321.207 341.318 324.94 338.832C329.503 333.445 332.545 327.091 333.375 321.013C333.513 320.323 334.066 319.908 334.619 319.908C335.034 319.908 335.311 320.046 335.587 320.323C335.864 320.599 335.864 320.875 335.864 321.29C335.172 325.986 333.513 330.682 330.748 334.964C335.449 331.925 339.874 329.301 344.298 326.815C349.553 323.361 353.839 317.974 355.775 312.035C355.913 311.482 356.466 311.206 356.881 311.206C357.296 311.206 357.711 311.344 357.849 311.759C358.126 312.035 358.126 312.449 357.987 312.864C356.743 316.317 354.945 319.77 352.456 322.671C356.605 320.737 360.753 318.941 364.763 317.422C365.454 317.146 366.145 317.56 366.284 318.389C366.422 319.079 366.007 319.632 365.454 319.77C360.338 321.704 355.084 323.914 349.829 326.538C351.627 326.4 353.563 326.262 355.637 326.262C359.923 326.262 363.518 326.677 366.837 327.643C367.39 327.782 367.805 328.334 367.666 328.887C368.081 329.301 367.528 329.715 366.837 329.715Z" fill="white"/>
</g>
<g opacity="0.4">
<path opacity="0.4" d="M1.52101 215.897C7.19018 208.162 20.8792 224.737 27.1014 233.163C33.0471 237.169 38.7163 241.451 44.2472 246.009C41.2052 238.274 21.9853 219.626 31.1113 214.239C35.6743 211.477 40.099 216.726 42.8645 225.842C45.2151 233.301 44.9386 243.108 44.662 246.285C52.267 252.363 59.4572 258.855 66.3708 265.762C64.1584 258.026 45.6299 237.721 55.309 232.887C60.1485 230.4 64.0202 236.064 66.3708 245.318C68.3066 253.192 67.2004 263.137 66.7856 266.176C73.1461 272.392 79.0919 279.022 84.8993 285.79C82.2721 276.259 71.2103 256.645 80.6129 254.021C85.7289 252.501 88.6327 258.717 89.1858 268.248C89.6006 275.292 87.3882 283.442 86.282 287.31C93.887 296.426 100.939 306.095 107.438 316.041C106.055 306.786 95.408 285.1 105.364 283.028C110.618 281.923 112.969 288.277 112.83 297.808C112.692 305.128 109.65 313.554 108.267 317.146C110.48 320.461 112.554 323.776 114.49 327.229C116.84 331.235 119.191 335.241 121.403 339.385C121.68 330.268 114.351 306.51 124.584 306.095C129.976 305.819 131.359 312.449 129.561 321.842C128.179 329.163 123.892 337.036 121.956 340.351C127.487 350.573 132.465 361.071 136.337 371.845C138.964 364.386 135.369 336.898 146.016 338.418C151.27 339.108 151.408 346.015 147.952 354.855C145.048 362.452 138.411 370.049 136.475 372.259C137.305 374.608 138.134 377.094 138.826 379.442C139.379 381.514 136.337 382.619 135.784 380.547C134.954 377.646 133.986 374.884 132.88 371.983C129.146 371.154 120.435 369.082 114.213 365.215C106.055 360.104 102.045 354.579 105.917 350.849C113.107 343.667 125.69 364.939 132.603 370.878C128.87 360.795 124.03 350.987 118.914 341.456C115.872 341.456 105.917 341.18 98.45 338.28C89.4623 334.826 84.4845 330.13 87.5265 325.71C93.6105 316.869 111.448 338.003 118.776 341.042C116.84 337.313 114.766 333.721 112.692 330.268C110.48 326.4 108.129 322.671 105.64 318.803C102.875 319.218 92.6426 320.599 84.6228 318.941C75.2202 316.869 69.5511 313.14 71.9017 308.305C76.603 298.498 98.0352 317.146 105.502 318.665C99.0031 308.582 91.8129 298.774 84.2079 289.658C82.8252 290.072 71.6252 292.697 62.7757 291.454C53.2349 290.072 47.4275 286.757 49.3633 281.785C53.5115 271.287 77.5709 289.796 84.2079 289.658C77.9857 282.061 71.3486 274.878 64.2967 267.972C60.9782 269.353 52.4053 272.806 44.8003 273.082C35.2595 273.497 28.7607 271.287 29.7286 266.038C31.6644 255.816 55.0325 266.867 63.7436 267.419C56.9683 260.789 49.7781 254.435 42.4497 248.495C39.2694 250.153 30.8348 254.159 23.2298 254.987C13.5507 255.954 6.91364 254.159 7.605 248.91C8.84945 238.55 33.1854 248.219 41.7583 248.081C36.6422 244.075 31.3879 240.069 25.9952 236.34C16.3162 233.577 -5.9457 226.118 1.52101 215.897Z" fill="white"/>
<path opacity="0.4" d="M127.211 378.061C127.211 378.061 121.403 352.369 93.3339 331.512C75.4967 318.251 39.9607 297.808 32.494 315.351C22.8149 337.866 84.2079 374.332 127.211 378.061ZM36.9187 328.749C36.7805 328.197 37.1953 327.644 37.7484 327.506C40.9286 326.677 44.662 326.125 48.9484 326.125C50.8843 326.125 52.9583 326.263 54.7559 326.401C49.5015 323.777 44.2472 321.428 39.1311 319.633C38.578 319.356 38.1632 318.804 38.3015 318.251C38.4397 317.561 39.1311 317.146 39.8225 317.284C43.8324 318.804 47.9805 320.461 52.1287 322.533C49.6398 319.633 47.8423 316.318 46.5978 312.726C46.4595 312.312 46.4595 312.036 46.7361 311.621C47.0126 311.345 47.2892 311.069 47.704 311.069C48.2571 311.069 48.6719 311.345 48.8102 311.897C50.8842 317.837 55.0324 323.224 60.2868 326.677C64.7115 329.164 69.2745 331.788 73.8375 334.827C71.2103 330.407 69.4128 325.71 68.7214 321.152C68.7214 320.876 68.7214 320.461 68.9979 320.185C69.2745 319.909 69.551 319.771 69.9658 319.771C70.6572 319.771 71.2103 320.185 71.2103 320.876C72.0399 326.954 75.0819 333.307 79.6449 338.695C83.24 341.181 87.1116 343.805 91.1215 346.844C87.9413 342.01 85.5906 336.346 84.2079 330.683C84.0696 330.269 84.2079 329.992 84.4845 329.578C84.761 329.302 85.0375 329.025 85.4524 329.025C86.0054 329.025 86.4203 329.44 86.5585 329.992C88.7709 339.523 93.887 348.225 100.386 354.027C103.013 356.099 105.64 358.171 107.991 360.243C105.364 355.823 103.289 350.712 101.907 345.325C101.769 344.91 101.907 344.634 102.045 344.22C102.322 343.943 102.598 343.667 103.013 343.667C103.566 343.667 103.981 344.082 104.119 344.496C106.608 354.027 111.171 362.315 116.978 367.84C119.053 369.636 120.85 371.293 122.509 372.951C122.924 373.365 122.924 373.779 122.786 374.194C122.648 374.608 122.095 375.023 121.68 375.023C121.403 375.023 121.127 374.884 120.85 374.746C119.329 373.365 117.946 371.984 116.425 370.602C107.714 367.149 97.8969 365.215 87.9413 364.939C87.2499 364.939 86.6968 364.387 86.6968 363.696C86.6968 363.005 87.2499 362.453 87.9413 362.453C95.9611 362.729 104.119 363.972 111.586 366.32C107.714 363.005 103.566 359.552 99.0031 355.961C87.5264 351.402 76.3264 349.469 66.9239 350.85H66.7856C66.2325 350.85 65.6794 350.436 65.6794 349.745C65.6794 349.054 66.0942 348.502 66.7856 348.364C74.6671 347.259 83.5165 348.225 92.9191 351.126C87.803 347.12 82.9635 343.667 78.4005 340.628C74.6671 339.523 70.5189 338.971 66.2325 338.971C61.1164 338.971 55.7238 339.8 50.746 341.181C50.0546 341.457 49.3633 340.905 49.225 340.214C49.0867 339.661 49.5015 339.109 50.0546 338.833C57.6596 336.623 65.8177 335.932 73.1461 336.899C68.7214 333.998 64.2967 331.374 59.872 329.025C56.2769 328.611 52.4052 328.335 48.5336 328.335C44.5237 328.335 41.0669 328.749 38.0249 329.578C37.8866 329.578 37.7484 329.578 37.7484 329.578C37.4718 329.716 36.9187 329.302 36.9187 328.749Z" fill="white"/>
</g>
</g>
<path d="M289.819 375.298C289.819 380.133 285.809 384.001 281.108 384.001H129.561C124.722 384.001 120.85 379.995 120.85 375.298V75.0049C120.85 70.1704 124.86 66.3027 129.561 66.3027H281.108C285.947 66.3027 289.819 70.3085 289.819 75.0049V375.298Z" fill="#123A6B"/>
<path d="M279.587 335.654C279.587 339.936 276.13 343.389 271.844 343.389H138.826C134.539 343.389 131.082 339.936 131.082 335.654V84.6727C131.082 80.3907 134.539 76.9375 138.826 76.9375H271.844C276.13 76.9375 279.587 80.3907 279.587 84.6727V335.654Z" fill="#64DDDA"/>
<path d="M236.169 76.939C236.169 80.2541 233.404 83.0167 230.085 83.0167H180.722C177.404 83.0167 174.638 80.2541 174.638 76.939C174.638 73.6239 177.404 70.8613 180.722 70.8613H230.085C233.404 70.8613 236.169 73.6239 236.169 76.939Z" fill="#123A6B"/>
<path d="M205.335 376.955C212.742 376.955 218.747 370.957 218.747 363.557C218.747 356.157 212.742 350.158 205.335 350.158C197.927 350.158 191.922 356.157 191.922 363.557C191.922 370.957 197.927 376.955 205.335 376.955Z" fill="#D5E6F0"/>
<path opacity="0.2" d="M205.335 373.225C210.68 373.225 215.014 368.896 215.014 363.556C215.014 358.216 210.68 353.887 205.335 353.887C199.989 353.887 195.656 358.216 195.656 363.556C195.656 368.896 199.989 373.225 205.335 373.225Z" fill="#123A6B"/>
<g opacity="0.7">
<g opacity="0.7">
<path opacity="0.7" d="M256.081 183.853H236.722C232.159 172.388 220.959 164.238 207.824 164.238C194.688 164.238 183.488 172.388 178.925 183.853H159.566C153.344 183.853 148.228 188.963 148.228 195.041V290.074C148.228 296.29 153.344 301.401 159.566 301.401H255.942C262.165 301.401 267.281 296.29 267.281 290.074V195.041C267.281 188.963 262.303 183.853 256.081 183.853Z" fill="#2FC9C1"/>
<path opacity="0.7" d="M207.824 156.779C218.286 156.779 226.767 148.307 226.767 137.855C226.767 127.404 218.286 118.932 207.824 118.932C197.361 118.932 188.88 127.404 188.88 137.855C188.88 148.307 197.361 156.779 207.824 156.779Z" fill="#2FC9C1"/>
</g>
<g opacity="0.7">
<path opacity="0.7" d="M252.347 182.609H232.989C228.426 171.144 217.226 162.994 204.09 162.994C190.954 162.994 179.754 171.144 175.191 182.609H155.833C149.611 182.609 144.495 187.719 144.495 193.935V288.968C144.495 295.184 149.611 300.295 155.833 300.295H252.209C258.431 300.295 263.547 295.184 263.547 288.968V193.935C263.547 187.719 258.57 182.609 252.347 182.609Z" fill="white"/>
<path opacity="0.7" d="M204.09 155.535C214.552 155.535 223.033 147.063 223.033 136.611C223.033 126.16 214.552 117.688 204.09 117.688C193.628 117.688 185.147 126.16 185.147 136.611C185.147 147.063 193.628 155.535 204.09 155.535Z" fill="white"/>
</g>
</g>
<path d="M252.071 203.189H156.248V222.528H252.071V203.189Z" fill="#8AE2DE"/>
<path d="M236.446 210.096H181.828V215.759H236.446V210.096Z" fill="white"/>
<path d="M167.448 213.548C169.281 213.548 170.767 212.064 170.767 210.233C170.767 208.402 169.281 206.918 167.448 206.918C165.615 206.918 164.13 208.402 164.13 210.233C164.13 212.064 165.615 213.548 167.448 213.548Z" fill="white"/>
<path d="M172.841 219.074C172.288 216.725 170.075 214.93 167.448 214.93C164.821 214.93 162.609 216.725 162.055 219.074H172.841Z" fill="white"/>
<path d="M252.071 233.303H156.248V252.641H252.071V233.303Z" fill="#8AE2DE"/>
<path d="M236.446 240.209H181.828V245.872H236.446V240.209Z" fill="white"/>
<path d="M172.011 241.868V241.039C172.011 238.552 169.937 236.48 167.448 236.48C164.959 236.48 162.885 238.552 162.885 241.039V241.868C162.747 242.144 162.608 242.558 162.608 242.973V247.116C162.608 248.36 163.576 249.326 164.821 249.326H170.075C171.32 249.326 172.288 248.36 172.288 247.116V242.973C172.288 242.558 172.149 242.282 172.011 241.868ZM168.416 247.116H166.48L166.895 245.597C166.342 245.459 166.065 244.906 166.065 244.354C166.065 243.525 166.618 242.973 167.448 242.973C168.139 242.973 168.831 243.525 168.831 244.354C168.831 244.906 168.416 245.459 168.001 245.597L168.416 247.116ZM164.821 240.901C164.406 240.901 164.129 241.039 163.853 241.177C163.853 239.243 165.512 237.586 167.448 237.586C169.384 237.586 171.043 239.243 171.043 241.177C170.767 241.039 170.49 240.901 170.075 240.901H164.821Z" fill="white"/>
<path d="M237.829 265.762H170.352V284.547H237.829V265.762Z" fill="#F4BC2F"/>
<path d="M227.873 272.668H180.307V277.641H227.873V272.668Z" fill="white"/>
<path d="M383.291 182.47C383.291 190.758 376.516 197.526 368.22 197.526H261.335C253.039 197.526 246.263 190.758 246.263 182.47V125.285C246.263 116.997 253.039 110.229 261.335 110.229H368.22C376.516 110.229 383.291 116.997 383.291 125.285V182.47Z" fill="#F4BC2F"/>
<path d="M298.392 136.196C298.392 142.965 292.861 148.352 286.224 148.352H275.854C269.078 148.352 263.686 142.827 263.686 136.196C263.686 129.428 269.217 124.041 275.854 124.041H286.224C292.999 124.041 298.392 129.428 298.392 136.196Z" fill="#F29A30"/>
<g opacity="0.5">
<path opacity="0.5" d="M357.849 125.285H343.469V139.651H357.849V125.285Z" fill="#F29A30"/>
<path opacity="0.6" d="M366.007 132.467H351.627V146.832H366.007V132.467Z" fill="#F98303"/>
</g>
<path d="M366.007 158.436H263.686V162.441H366.007V158.436Z" fill="#F98303"/>
<path d="M305.029 172.248H263.686V176.254H305.029V172.248Z" fill="#F98303"/>
<path d="M288.713 179.707H263.686V183.713H288.713V179.707Z" fill="#F98303"/>
<path d="M313.602 179.707H298.392V183.713H313.602V179.707Z" fill="#F98303"/>
<path d="M122.648 132.329C147.467 132.329 167.586 112.23 167.586 87.437C167.586 62.6438 147.467 42.5449 122.648 42.5449C97.8288 42.5449 77.7091 62.6438 77.7091 87.437C77.7091 112.23 97.8288 132.329 122.648 132.329Z" fill="#F98303"/>
<path d="M122.648 125.837C143.877 125.837 161.087 108.645 161.087 87.4371C161.087 66.2294 143.877 49.0371 122.648 49.0371C101.418 49.0371 84.2079 66.2294 84.2079 87.4371C84.2079 108.645 101.418 125.837 122.648 125.837Z" fill="#F4BC2F"/>
<path d="M128.593 97.3819C128.593 95.8624 128.04 94.4811 127.072 93.5142C126.104 92.5473 124.307 91.5804 121.956 90.7517C118.085 89.3704 115.181 87.8509 113.245 85.9171C111.309 83.9833 110.341 81.497 110.341 78.32C110.341 75.2812 111.309 72.7948 113.107 70.861C114.904 68.9272 117.532 67.684 120.712 67.4078V61.3301H125.137V67.4078C128.317 67.8222 130.806 69.2035 132.465 71.4135C134.263 73.6236 135.092 76.5243 135.092 80.2538H128.455C128.455 77.9056 127.902 76.1099 126.934 74.7286C125.966 73.3473 124.445 72.6567 122.648 72.6567C120.712 72.6567 119.329 73.2092 118.361 74.1761C117.393 75.143 116.979 76.5243 116.979 78.1819C116.979 79.7013 117.532 81.0826 118.5 82.0495C119.467 83.0164 121.265 83.9833 123.754 84.9502C127.625 86.3315 130.529 87.9891 132.465 89.7847C134.401 91.5804 135.369 94.2049 135.369 97.3819C135.369 100.559 134.401 103.045 132.465 104.979C130.529 106.913 127.902 108.018 124.583 108.294V113.681H120.159V108.294C116.84 107.88 114.213 106.775 112.001 104.703C109.927 102.631 108.82 99.7301 108.959 95.7243V95.5862H115.458C115.458 98.2106 116.149 100.144 117.393 101.25C118.638 102.355 120.297 102.907 122.233 102.907C124.307 102.907 125.828 102.355 126.934 101.388C128.04 100.559 128.593 99.1776 128.593 97.3819Z" fill="#F29A30"/>
<path d="M81.3042 24.7246H54.4794V69.3404C54.4794 69.3404 55.309 83.2915 81.3042 92.8224C107.299 83.4296 108.129 69.3404 108.129 69.3404V24.7246H81.3042Z" fill="#123A6B"/>
<path d="M60.1485 30.6641V66.9921C60.1485 66.9921 60.8399 78.0425 81.3042 85.5015C101.769 78.0425 102.46 66.9921 102.46 66.9921V30.6641H60.1485Z" fill="#64DDDA"/>
<path d="M94.0253 41.8528C88.7709 47.2399 83.3783 52.4888 78.124 57.8759C75.635 55.6658 73.0079 53.5938 70.519 51.3838C67.3387 48.7593 62.7757 53.1794 65.956 55.942C69.2745 58.8428 72.7313 61.6053 76.0499 64.5061C77.4326 65.6111 79.2301 65.8874 80.6129 64.5061C86.5586 58.4284 92.6426 52.4888 98.5883 46.4111C101.492 43.5104 96.929 38.9521 94.0253 41.8528Z" fill="white"/>
<path d="M301.296 0C313.879 0 311.528 14.5036 311.528 14.5036V38.8144H250.135V14.5036C250.135 0.828777 240.594 0 240.594 0C240.594 0 288.713 0 301.296 0Z" fill="#E8D4C4"/>
<path d="M185.147 0C163.715 0 167.586 24.7252 167.586 24.7252V66.3022H272.397V24.7252C272.397 1.38129 288.575 0 288.575 0C288.575 0 206.579 0 185.147 0Z" fill="#F2E8DF"/>
<path d="M254.421 13.5371H186.806V17.9573H254.421V13.5371Z" fill="white"/>
<path d="M226.767 29.4219H177.404V33.842H226.767V29.4219Z" fill="white"/>
<path d="M263.962 29.4219H248.061V33.842H263.962V29.4219Z" fill="white"/>
<path d="M226.767 41.8535H177.404V46.2737H226.767V41.8535Z" fill="white"/>
<path d="M263.962 41.8535H248.061V46.2737H263.962V41.8535Z" fill="white"/>
<path d="M226.767 53.1797H177.404V57.5998H226.767V53.1797Z" fill="white"/>
<path d="M263.962 53.1797H248.061V57.5998H263.962V53.1797Z" fill="white"/>
<path d="M289.819 209.129C263.133 231.368 236.308 235.65 236.308 235.65C241.839 292.145 289.819 322.395 289.819 322.395C289.819 322.395 337.8 292.145 343.331 235.65C343.469 235.65 316.506 231.368 289.819 209.129Z" fill="#F98303"/>
<path d="M289.819 217.002C266.866 236.064 243.774 239.793 243.774 239.793C248.614 288.415 289.819 314.383 289.819 314.383C289.819 314.383 331.024 288.277 335.864 239.793C335.864 239.793 312.772 236.202 289.819 217.002Z" fill="#F4BC2F"/>
<path d="M289.819 291.315C305.321 291.315 317.888 278.761 317.888 263.275C317.888 247.788 305.321 235.234 289.819 235.234C274.317 235.234 261.75 247.788 261.75 263.275C261.75 278.761 274.317 291.315 289.819 291.315Z" fill="#123A6B"/>
<path d="M300.19 260.926V258.993C300.19 253.329 295.627 248.771 289.957 248.633C284.288 248.633 279.725 253.329 279.725 258.993V260.926C279.31 261.617 279.034 262.446 279.034 263.413V272.944C279.034 275.706 281.246 277.916 284.012 277.916H296.041C298.807 277.916 301.019 275.706 301.019 272.944V263.413C300.881 262.446 300.604 261.617 300.19 260.926ZM292.17 272.805H287.607L288.713 269.352C287.607 268.938 286.777 267.833 286.777 266.451C286.777 264.656 288.16 263.275 289.957 263.275C291.755 263.275 293.138 264.656 293.138 266.451C293.138 267.833 292.308 268.938 291.202 269.352L292.17 272.805ZM283.873 258.44C283.044 258.44 282.352 258.716 281.661 258.993C281.661 254.434 285.394 250.843 289.819 250.843C294.382 250.843 297.977 254.572 297.977 258.993C297.286 258.716 296.594 258.44 295.765 258.44H283.873Z" fill="white"/>
<path d="M352.042 76.2478V68.6506H347.894C347.341 65.4737 346.096 62.4348 344.299 59.9485L347.202 57.0478L341.81 51.6607L338.906 54.5614C336.279 52.7657 333.375 51.5226 330.195 50.9701V46.8262H322.59V50.9701C319.409 51.5226 316.367 52.7657 313.879 54.5614L310.975 51.6607L305.582 57.0478L308.486 59.9485C306.688 62.5729 305.444 65.4737 304.891 68.6506H300.743V76.2478H304.891C305.444 79.4247 306.688 82.4636 308.486 84.9499L305.582 87.8506L310.975 93.2377L313.879 90.337C316.506 92.1327 319.409 93.3758 322.59 93.9283V98.0722H330.195V93.9283C333.375 93.3758 336.417 92.1327 338.906 90.337L341.81 93.2377L347.202 87.8506L344.299 84.9499C346.096 82.3255 347.341 79.4247 347.894 76.2478H352.042ZM326.461 86.8837C318.58 86.8837 312.081 80.5298 312.081 72.5183C312.081 64.6449 318.442 58.1528 326.461 58.1528C334.343 58.1528 340.842 64.5067 340.842 72.5183C340.703 80.3916 334.343 86.8837 326.461 86.8837Z" fill="#123A6B"/>
<path d="M385.642 47.7914V43.2331H383.153C382.877 41.2993 382.047 39.5036 380.941 37.9842L382.738 36.1885L379.558 32.8734L377.76 34.6691C376.239 33.564 374.442 32.8734 372.506 32.459V29.9727H367.805V32.459C365.869 32.7352 364.071 33.564 362.55 34.6691L360.753 32.8734L357.573 36.1885L359.37 37.9842C358.264 39.5036 357.573 41.2993 357.158 43.2331H354.669V47.7914H357.158C357.434 49.7252 358.264 51.5209 359.37 53.0403L357.573 54.836L360.753 58.0129L362.55 56.2173C364.071 57.3223 365.869 58.0129 367.805 58.4273V60.9137H372.368V58.4273C374.304 58.1511 376.101 57.3223 377.622 56.2173L379.42 58.0129L382.6 54.836L380.802 53.0403C381.909 51.5209 382.6 49.7252 383.015 47.7914H385.642ZM370.155 50.9683C367.113 50.9683 364.763 48.482 364.763 45.5813C364.763 42.5424 367.252 40.1942 370.155 40.1942C373.197 40.1942 375.548 42.6806 375.548 45.5813C375.548 48.482 373.197 50.9683 370.155 50.9683Z" fill="white"/>
<path d="M112.692 187.716V179.429H108.129C107.576 175.975 106.193 172.799 104.257 170.036L107.438 166.859L101.63 161.058L98.45 164.234C95.6846 162.301 92.5043 160.919 89.0475 160.367V155.809H80.7512V160.367C77.2943 160.919 74.1141 162.301 71.3486 164.234L68.1684 161.058L62.3609 166.859L65.5412 170.036C63.6054 172.799 62.2226 175.975 61.6696 179.429H57.1066V187.716H61.6696C62.2226 191.17 63.6054 194.347 65.5412 197.109L62.3609 200.286L68.1684 206.088L71.3486 202.911C74.1141 204.845 77.2943 206.226 80.7512 206.778V211.337H89.0475V206.778C92.5043 206.226 95.6846 204.845 98.45 202.911L101.63 206.088L107.438 200.286L104.257 197.109C106.193 194.347 107.576 191.17 108.129 187.716H112.692ZM84.8993 203.325C73.9758 203.325 65.1264 194.485 65.1264 183.573C65.1264 172.66 73.9758 163.82 84.8993 163.82C95.8229 163.82 104.672 172.66 104.672 183.573C104.811 194.485 95.9611 203.325 84.8993 203.325Z" fill="white"/>
<path d="M66.3708 135.919V131.361H63.8819C63.6054 129.427 62.7757 127.631 61.6695 126.112L63.4671 124.316L60.2868 121.139L58.4893 122.935C56.9683 121.83 55.1707 121.139 53.2349 120.725V118.238H48.6719V120.725C46.7361 121.001 44.9386 121.83 43.4176 122.935L41.4818 121.001L38.3015 124.316L40.099 126.112C38.9929 127.631 38.3015 129.427 37.8867 131.361H35.3978V135.919H37.8867C38.1632 137.853 38.9929 139.648 40.099 141.168L38.3015 142.963L41.4818 146.279L43.2793 144.483C44.8003 145.588 46.5978 146.279 48.5336 146.693V149.179H53.0966V146.693C55.0325 146.417 56.83 145.588 58.351 144.483L60.1485 146.279L63.3288 143.102L61.5313 141.306C62.6374 139.787 63.3288 137.991 63.7436 136.057H66.3708V135.919ZM50.8843 139.096C47.8423 139.096 45.4917 136.61 45.4917 133.709C45.4917 130.67 47.9806 128.322 50.8843 128.322C53.9263 128.322 56.2769 130.808 56.2769 133.709C56.2769 136.61 53.9263 139.096 50.8843 139.096Z" fill="#123A6B"/>
</svg>
