<svg width="213" height="363" viewBox="0 0 213 363" fill="none" xmlns="http://www.w3.org/2000/svg">
<path d="M213 349.521C213 357.053 207.724 363 201.262 363H11.7381C5.27554 363 0 356.921 0 349.521V13.4787C0 6.07863 5.27554 0 11.7381 0H201.262C207.724 0 213 6.07863 213 13.4787V349.521Z" fill="#19141E"/>
<path d="M200.603 297.192C200.603 302.742 195.986 307.367 190.183 307.367H22.8167C17.0136 307.367 12.3975 302.874 12.3975 297.192V45.5892C12.3975 40.0391 17.0136 35.4141 22.8167 35.4141H190.183C195.986 35.4141 200.603 39.907 200.603 45.5892V297.192Z" fill="#2D2932"/>
<path d="M195.591 290.454C195.591 295.74 191.238 300.1 185.699 300.1H27.3009C21.8935 300.1 17.4093 295.872 17.4093 290.454V52.3301C17.4093 47.0443 21.7616 42.6836 27.3009 42.6836H185.699C191.107 42.6836 195.591 46.9122 195.591 52.3301V290.454Z" fill="#B42627"/>
<path d="M131.229 16.9147C131.229 19.5576 128.987 21.8041 126.349 21.8041H86.6507C84.013 21.8041 81.7709 19.5576 81.7709 16.9147C81.7709 14.2718 84.013 12.0254 86.6507 12.0254H126.349C129.119 12.0254 131.229 14.2718 131.229 16.9147Z" fill="#2D2932"/>
<path d="M122.788 313.842H90.3436C88.2334 313.842 86.5189 315.56 86.5189 317.674V350.181C86.5189 352.296 88.2334 354.014 90.3436 354.014H122.788C124.898 354.014 126.613 352.296 126.613 350.181V317.674C126.613 315.56 124.898 313.842 122.788 313.842ZM118.436 343.574C118.436 344.896 117.381 345.821 116.194 345.821H96.8062C95.4873 345.821 94.5641 344.764 94.5641 343.574V324.281C94.5641 322.96 95.6192 322.035 96.8062 322.035H116.062C117.381 322.035 118.304 323.092 118.304 324.281V343.574H118.436Z" fill="#2D2932"/>
<path d="M126.877 66.2031H85.9913C84.013 66.2031 82.4303 68.0531 82.4303 70.2996V93.9534H91.1349V76.3782C91.1349 74.9246 92.1901 73.7353 93.3771 73.7353H119.359C120.678 73.7353 121.733 74.9246 121.733 76.3782V88.7998H130.438V70.2996C130.438 68.0531 128.855 66.2031 126.877 66.2031Z" fill="white"/>
<path d="M131.625 95.4062H83.0897C80.7158 95.4062 78.7374 97.3884 78.7374 99.767V135.314C78.7374 137.692 80.7158 139.675 83.0897 139.675H131.625C133.999 139.675 135.977 137.692 135.977 135.314V99.6349C135.977 97.2563 133.999 95.4062 131.625 95.4062ZM111.446 118.003V125.535C111.446 127.121 109.995 128.442 108.28 128.442C106.566 128.442 105.115 127.121 105.115 125.535V118.003C103.137 116.946 101.95 114.831 101.95 112.453C101.95 108.885 104.851 105.978 108.412 105.978C111.973 105.978 114.875 108.885 114.875 112.453C114.611 114.831 113.292 116.814 111.446 118.003Z" fill="white"/>
<path d="M44.5783 186.586C43.655 186.586 42.9956 185.925 42.9956 185V153.021C42.9956 152.096 43.655 151.436 44.5783 151.436H168.817C169.741 151.436 170.4 152.096 170.4 153.021V185C170.4 185.925 169.741 186.586 168.817 186.586H44.5783Z" fill="white"/>
<path d="M168.29 153.551V184.605H45.1059V153.551H168.29ZM168.817 149.322H44.5783C42.4681 149.322 40.8854 151.04 40.8854 153.022V185.001C40.8854 187.116 42.6 188.701 44.5783 188.701H168.817C170.928 188.701 172.51 186.983 172.51 185.001V153.022C172.51 150.908 170.796 149.322 168.817 149.322Z" fill="#2D2932"/>
<path d="M69.1096 164.386L64.6254 169.672V169.804L71.2198 168.482V172.711L64.6254 171.522V171.654L69.1096 176.675L65.4167 178.789L63.0427 172.447H62.9108L60.5368 178.789L56.9758 176.675L61.3281 171.522V171.389L54.8656 172.579V168.35L61.1963 169.672V169.539L56.8439 164.386L60.5368 162.271L62.7789 168.614H62.9108L65.2848 162.271L69.1096 164.386Z" fill="#131F44"/>
<path d="M96.2786 164.386L91.7943 169.672V169.804L98.3888 168.482V172.711L91.7943 171.522V171.654L96.2786 176.675L92.5857 178.789L90.2117 172.447H90.0798L87.7058 178.789L84.1448 176.675L88.4971 171.522V171.389L82.0346 172.579V168.35L88.3652 169.672V169.539L84.0129 164.386L87.7058 162.271L89.9479 168.614H90.0798L92.4538 162.271L96.2786 164.386Z" fill="#131F44"/>
<path d="M123.448 164.386L118.963 169.672V169.804L125.558 168.482V172.711L118.963 171.522V171.654L123.448 176.675L119.755 178.789L117.381 172.447H117.249L114.875 178.789L111.314 176.675L115.666 171.522V171.389L109.204 172.579V168.35L115.534 169.672V169.539L111.182 164.386L114.875 162.271L117.117 168.614H117.249L119.623 162.271L123.448 164.386Z" fill="#131F44"/>
<path d="M156.947 176.676V178.79H136.373V176.676H156.947Z" fill="#131F44"/>
<path d="M61.0644 253.98H59.6136L58.4266 250.677H53.5467L52.3597 253.98H50.9089L55.3931 242.352H56.8439L61.0644 253.98ZM57.899 249.487L56.0526 244.466C56.0526 244.334 55.9207 244.069 55.9207 243.673C55.9207 244.069 55.7888 244.202 55.7888 244.466L53.9424 249.487H57.899Z" fill="white"/>
<path d="M69.3733 253.981H68.0545V252.659C67.5269 253.716 66.6037 254.113 65.5486 254.113C63.5703 254.113 62.647 252.923 62.647 250.545V245.523H63.9659V250.281C63.9659 251.998 64.6254 252.923 65.9442 252.923C66.6037 252.923 67.1312 252.659 67.5269 252.263C67.9226 251.734 68.1863 251.206 68.1863 250.413V245.656H69.5052V253.981H69.3733Z" fill="white"/>
<path d="M75.8359 253.849C75.5721 253.981 75.0445 254.113 74.6489 254.113C73.1981 254.113 72.4068 253.32 72.4068 251.735V246.845H70.956V245.656H72.4068V243.674L73.7257 243.277V245.788H75.8359V246.977H73.8575V251.602C73.8575 252.131 73.9894 252.527 74.1213 252.792C74.2532 253.056 74.6489 253.188 75.0445 253.188C75.4402 253.188 75.704 253.056 75.9678 252.924V253.849H75.8359Z" fill="white"/>
<path d="M84.5405 253.98H83.2216V249.222C83.2216 247.504 82.5622 246.579 81.2433 246.579C80.5839 246.579 80.0563 246.844 79.6606 247.372C79.265 247.901 79.0012 248.562 79.0012 249.354V254.112H77.6823V241.822H79.0012V247.24C79.6606 246.183 80.5839 245.654 81.7709 245.654C83.6173 245.654 84.5405 246.844 84.5405 249.09V253.98Z" fill="white"/>
<path d="M93.7727 250.15H87.9696C87.9696 251.075 88.2334 251.735 88.7609 252.264C89.2885 252.793 89.9479 253.057 90.7393 253.057C91.6625 253.057 92.5857 252.793 93.377 252.132V253.321C92.5857 253.85 91.6625 254.114 90.4755 254.114C89.2885 254.114 88.3653 253.718 87.7058 252.925C87.0464 252.132 86.6507 251.075 86.6507 249.753C86.6507 248.432 87.0464 247.375 87.7058 246.582C88.4971 245.789 89.2885 245.393 90.4755 245.393C91.5306 245.393 92.4538 245.789 92.9814 246.45C93.6408 247.11 93.9046 248.168 93.9046 249.357V250.15H93.7727ZM92.3219 249.093C92.3219 248.3 92.19 247.771 91.7944 247.243C91.3987 246.846 90.8711 246.582 90.2117 246.582C89.5523 246.582 89.0247 246.846 88.629 247.243C88.2334 247.639 87.9696 248.3 87.8377 248.96H92.3219V249.093Z" fill="white"/>
<path d="M102.609 253.982H101.29V249.225C101.29 247.507 100.631 246.582 99.312 246.582C98.6526 246.582 98.125 246.846 97.5975 247.375C97.2018 247.903 96.938 248.564 96.938 249.225V253.982H95.6191V245.657H96.938V246.978C97.5975 245.921 98.5207 245.393 99.7077 245.393C100.631 245.393 101.29 245.657 101.818 246.318C102.345 246.846 102.477 247.771 102.477 248.828V253.982H102.609Z" fill="white"/>
<path d="M108.94 253.849C108.676 253.981 108.149 254.113 107.753 254.113C106.302 254.113 105.511 253.32 105.511 251.735V246.845H104.06V245.656H105.511V243.674L106.83 243.277V245.788H108.94V246.977H106.83V251.602C106.83 252.131 106.962 252.527 107.093 252.792C107.225 253.056 107.621 253.188 108.017 253.188C108.412 253.188 108.676 253.056 108.94 252.924V253.849Z" fill="white"/>
<path d="M111.446 243.541C111.182 243.541 111.05 243.409 110.786 243.277C110.654 243.145 110.523 242.881 110.523 242.616C110.523 242.352 110.654 242.22 110.786 241.956C110.918 241.824 111.182 241.691 111.446 241.691C111.71 241.691 111.841 241.824 112.105 241.956C112.237 242.088 112.369 242.352 112.369 242.616C112.369 242.881 112.237 243.013 112.105 243.277C111.841 243.541 111.71 243.541 111.446 243.541ZM112.105 253.981H110.786V245.656H112.105V253.981Z" fill="white"/>
<path d="M120.414 253.586C119.755 253.982 118.963 254.114 118.172 254.114C116.985 254.114 116.062 253.718 115.271 252.925C114.479 252.132 114.215 251.207 114.215 249.885C114.215 248.564 114.611 247.375 115.402 246.582C116.194 245.789 117.249 245.393 118.568 245.393C119.359 245.393 119.887 245.525 120.546 245.789V247.11C119.887 246.714 119.227 246.45 118.568 246.45C117.776 246.45 116.985 246.714 116.458 247.375C115.93 248.035 115.666 248.828 115.666 249.753C115.666 250.678 115.93 251.471 116.458 252C116.985 252.528 117.645 252.793 118.568 252.793C119.227 252.793 120.019 252.528 120.546 252.132V253.586H120.414Z" fill="white"/>
<path d="M128.328 253.982H127.009V252.661C126.481 253.718 125.558 254.114 124.503 254.114C123.711 254.114 123.052 253.85 122.524 253.453C121.997 253.057 121.865 252.396 121.865 251.736C121.865 250.15 122.788 249.225 124.635 248.96L127.141 248.564C127.141 247.11 126.613 246.45 125.426 246.45C124.371 246.45 123.58 246.846 122.656 247.507V246.185C123.448 245.657 124.371 245.393 125.426 245.393C127.404 245.393 128.328 246.45 128.328 248.432V253.982ZM127.009 249.753L125.03 250.018C124.371 250.15 123.975 250.282 123.58 250.414C123.316 250.678 123.052 251.075 123.052 251.603C123.052 252 123.184 252.396 123.448 252.661C123.711 252.925 124.107 253.057 124.635 253.057C125.294 253.057 125.822 252.793 126.217 252.396C126.613 251.868 126.877 251.339 126.877 250.678V249.753H127.009Z" fill="white"/>
<path d="M134.658 253.849C134.394 253.981 133.867 254.113 133.471 254.113C132.02 254.113 131.229 253.32 131.229 251.735V246.845H129.778V245.656H131.229V243.674L132.548 243.277V245.788H134.658V246.977H132.548V251.602C132.548 252.131 132.68 252.527 132.812 252.792C132.944 253.056 133.339 253.188 133.735 253.188C134.131 253.188 134.394 253.056 134.658 252.924V253.849Z" fill="white"/>
<path d="M137.164 243.541C136.9 243.541 136.768 243.409 136.505 243.277C136.373 243.145 136.241 242.881 136.241 242.616C136.241 242.352 136.373 242.22 136.505 241.956C136.637 241.824 136.9 241.691 137.164 241.691C137.428 241.691 137.56 241.824 137.824 241.956C137.955 242.088 138.087 242.352 138.087 242.616C138.087 242.881 137.955 243.013 137.824 243.277C137.56 243.541 137.428 243.541 137.164 243.541ZM137.824 253.981H136.505V245.656H137.824V253.981Z" fill="white"/>
<path d="M144.022 254.245C142.835 254.245 141.78 253.849 141.121 253.056C140.329 252.263 140.066 251.206 140.066 250.016C140.066 248.563 140.461 247.506 141.253 246.713C142.044 245.92 143.099 245.523 144.286 245.523C145.473 245.523 146.528 245.92 147.188 246.713C147.847 247.506 148.243 248.563 148.243 249.884C148.243 251.206 147.847 252.263 147.056 253.056C146.264 253.849 145.209 254.245 144.022 254.245ZM144.022 246.581C143.231 246.581 142.44 246.845 142.044 247.506C141.516 248.034 141.253 248.827 141.253 249.884C141.253 250.809 141.516 251.602 142.044 252.263C142.571 252.791 143.231 253.056 144.022 253.056C144.945 253.056 145.605 252.791 146.001 252.263C146.528 251.734 146.66 250.941 146.66 249.884C146.66 248.827 146.396 248.034 146.001 247.506C145.605 246.845 144.945 246.581 144.022 246.581Z" fill="white"/>
<path d="M157.079 253.982H155.76V249.225C155.76 247.507 155.101 246.582 153.782 246.582C153.123 246.582 152.595 246.846 152.067 247.375C151.672 247.903 151.408 248.564 151.408 249.225V253.982H150.089V245.657H151.408V246.978C152.067 245.921 152.991 245.393 154.178 245.393C155.101 245.393 155.76 245.657 156.288 246.318C156.815 246.846 156.947 247.771 156.947 248.828V253.982H157.079Z" fill="white"/>
<path d="M92.0581 262.834C91.7944 262.702 91.5306 262.57 91.1349 262.57C90.2117 262.57 89.6842 263.099 89.6842 264.288V265.609H91.6625V266.799H89.6842V273.935H88.3653V266.799H87.0464V265.609H88.4972V264.288C88.4972 263.363 88.7609 262.702 89.2885 262.174C89.816 261.645 90.4755 261.381 91.1349 261.381C91.5306 261.381 91.9263 261.381 92.0581 261.513V262.834Z" fill="white"/>
<path d="M99.1801 273.935H97.8612V272.614C97.3337 273.671 96.4105 274.067 95.3554 274.067C94.564 274.067 93.9046 273.803 93.377 273.406C92.8495 273.01 92.7176 272.349 92.7176 271.689C92.7176 270.103 93.6408 269.178 95.4872 268.914L97.9931 268.517C97.9931 267.064 97.4656 266.403 96.2786 266.403C95.2235 266.403 94.4321 266.799 93.5089 267.46V266.139C94.3003 265.61 95.2235 265.346 96.2786 265.346C98.2569 265.346 99.1801 266.403 99.1801 268.385V273.935ZM97.8612 269.706L95.8829 269.971C95.2235 270.103 94.8278 270.235 94.4321 270.367C94.1684 270.631 93.9046 271.028 93.9046 271.556C93.9046 271.953 94.0365 272.349 94.3002 272.614C94.564 272.878 94.9597 273.01 95.4872 273.01C96.1467 273.01 96.6742 272.746 97.0699 272.349C97.4656 271.821 97.7294 271.292 97.7294 270.631V269.706H97.8612Z" fill="white"/>
<path d="M102.345 263.495C102.082 263.495 101.95 263.362 101.686 263.23C101.554 263.098 101.422 262.834 101.422 262.57C101.422 262.305 101.554 262.173 101.686 261.909C101.818 261.777 102.082 261.645 102.345 261.645C102.609 261.645 102.741 261.777 103.005 261.909C103.137 262.041 103.269 262.305 103.269 262.57C103.269 262.834 103.137 262.966 103.005 263.23C102.741 263.495 102.609 263.495 102.345 263.495ZM103.005 273.934H101.686V265.609H103.005V273.934Z" fill="white"/>
<path d="M106.962 273.934H105.643V261.645H106.962V273.934Z" fill="white"/>
<path d="M116.326 270.103H110.523C110.523 271.028 110.786 271.689 111.314 272.217C111.841 272.746 112.501 273.01 113.292 273.01C114.215 273.01 115.139 272.746 115.93 272.085V273.274C115.139 273.803 114.215 274.067 113.028 274.067C111.841 274.067 110.918 273.671 110.259 272.878C109.599 272.085 109.204 271.028 109.204 269.706C109.204 268.385 109.599 267.328 110.259 266.535C111.05 265.742 111.841 265.346 113.028 265.346C114.084 265.346 115.007 265.742 115.534 266.403C116.194 267.064 116.458 268.121 116.458 269.31V270.103H116.326ZM115.007 269.046C115.007 268.253 114.875 267.724 114.479 267.196C114.084 266.799 113.556 266.535 112.897 266.535C112.237 266.535 111.71 266.799 111.314 267.196C110.918 267.592 110.654 268.253 110.523 268.914H115.007V269.046Z" fill="white"/>
<path d="M125.426 273.934H124.107V272.48C123.448 273.537 122.524 274.066 121.206 274.066C120.15 274.066 119.359 273.67 118.7 273.009C118.04 272.216 117.776 271.291 117.776 269.97C117.776 268.648 118.172 267.459 118.832 266.666C119.491 265.873 120.414 265.477 121.601 265.477C122.788 265.477 123.58 265.873 124.107 266.798V261.645H125.426V273.934ZM124.107 270.234V269.045C124.107 268.384 123.843 267.855 123.448 267.327C123.052 266.798 122.393 266.666 121.733 266.666C120.942 266.666 120.282 266.93 119.755 267.591C119.227 268.252 119.095 269.045 119.095 270.102C119.095 271.027 119.359 271.82 119.755 272.348C120.15 272.877 120.81 273.141 121.601 273.141C122.393 273.141 122.92 272.877 123.448 272.348C123.843 271.687 124.107 271.027 124.107 270.234Z" fill="white"/>
<path d="M134.922 231.913L109.336 193.592C107.885 191.477 105.643 191.477 104.192 193.592L78.4737 231.913C77.0229 234.028 77.9461 235.746 80.452 235.746H132.812C135.45 235.746 136.373 234.028 134.922 231.913ZM122.92 228.742H90.4755C88.8929 228.742 88.3653 227.685 89.1566 226.363L105.115 202.577C106.038 201.256 107.357 201.256 108.28 202.577L124.239 226.363C125.03 227.685 124.503 228.742 122.92 228.742Z" fill="white"/>
<path d="M106.038 220.417H107.225C107.225 214.999 107.489 213.017 107.885 210.771C108.281 208.656 108.281 208.26 108.281 207.335C108.281 206.41 107.621 205.617 106.566 205.617C105.511 205.617 104.851 206.41 104.851 207.335C104.851 208.392 104.851 208.789 105.247 210.639C105.775 213.149 106.038 214.999 106.038 220.417Z" fill="white"/>
<path d="M106.698 222.662C105.775 222.662 104.983 223.455 104.983 224.38C104.983 225.305 105.775 226.098 106.698 226.098C107.621 226.098 108.412 225.305 108.412 224.38C108.28 223.455 107.621 222.662 106.698 222.662Z" fill="white"/>
</svg>
