<svg width="255" height="208" viewBox="0 0 255 208" fill="none" xmlns="http://www.w3.org/2000/svg">
<path d="M188.524 135.763C188.532 144.946 186.608 154.03 182.876 162.431C179.143 170.833 173.684 178.368 166.849 184.552C164.948 186.274 162.949 187.887 160.862 189.382C158.184 191.301 155.365 193.018 152.429 194.518H152.398C151.772 194.844 151.136 195.155 150.495 195.455C150.202 195.598 149.915 195.73 149.617 195.863C147.76 196.709 145.855 197.468 143.902 198.14C142.363 198.65 140.783 199.159 139.188 199.577C129.985 202.008 120.365 202.458 110.972 200.897C109.859 200.713 108.761 200.504 107.669 200.265L106.745 200.056C103.958 199.409 101.216 198.582 98.537 197.58C96.9809 196.999 95.4556 196.362 93.961 195.669C93.3813 195.399 92.8016 195.124 92.2321 194.839C91.8423 194.645 91.4575 194.446 91.0728 194.248C80.6345 188.803 71.8407 180.702 65.5919 170.772C59.3431 160.843 55.8637 149.442 55.5102 137.738C55.1566 126.034 57.9415 114.447 63.5797 104.164C69.2179 93.88 77.5068 85.2694 87.5976 79.2134C97.6885 73.1575 109.219 69.8739 121.007 69.6988C132.796 69.5237 144.42 72.4635 154.689 78.2171C164.957 83.9707 173.502 92.3314 179.447 102.443C185.392 112.555 188.525 124.054 188.524 135.763Z" fill="url(#paint0_linear)"/>
<path d="M139.434 140.542C143.672 144.873 156.015 161.727 156.015 161.727L148.432 172.767L141.614 150.834L139.434 140.542Z" fill="url(#paint1_linear)"/>
<path d="M152.398 194.553C151.772 194.879 151.136 195.19 150.494 195.49C150.202 195.633 149.915 195.765 149.617 195.898C147.76 196.744 145.855 197.503 143.902 198.175C142.363 198.685 140.783 199.194 139.188 199.612C129.985 202.043 120.365 202.493 110.972 200.931C109.859 200.748 108.761 200.539 107.668 200.3C103.667 203.041 99.9733 205.359 97.5262 206.414L97.7263 204.717L98.5574 197.62L100.481 181.107L108.104 173.786L90.9648 175.105C90.9648 175.105 92.7655 150.293 99.7937 145.188C106.822 140.083 114.194 135.508 114.194 135.508C115.073 136.084 116.042 136.512 117.062 136.776C119.499 137.446 122.033 137.702 124.557 137.535C127.563 137.398 130.569 134.621 130.713 134.479C130.713 134.479 135.432 135.411 139.434 140.562C141.43 143.213 142.862 146.24 143.646 149.458C144.631 153.223 146.38 162.017 148.37 172.639C149.674 179.477 151.043 187.058 152.398 194.553Z" fill="url(#paint2_linear)"/>
<path d="M156.014 161.747L163.33 170.261L189.057 144.898L190.032 139.707L195.162 135.279L192.879 142.03V150.824C192.879 150.824 173.036 182.769 167.567 184.415C161.17 186.346 148.442 172.757 148.442 172.757L156.014 161.747Z" fill="url(#paint3_linear)"/>
<path d="M129.307 173.389L135.273 187.655L142.984 184.363L137.331 170.403L129.307 173.389Z" fill="#7E57C2"/>
<path d="M137.618 182.605C136.659 183.39 135.227 183.206 133.452 183.298C131.068 183.36 128.78 184.251 126.988 185.815C124.603 187.807 117.934 193.019 111.265 197.778C110.054 198.639 108.843 199.49 107.674 200.325C103.672 203.066 99.9785 205.384 97.5315 206.439C96.8881 206.756 96.1934 206.958 95.4794 207.035C92.0525 207.122 91.3189 199.989 91.1086 194.298C91.0419 192.408 91.0265 190.68 90.9906 189.432C90.847 184.439 90.9906 175.166 90.9906 175.166L108.13 173.842L106.314 185.631L105.996 187.715V187.731L111.126 185.845L111.285 185.789L129.497 179.069L130.754 176.914L131.554 178.952H131.631L139.429 177.933C139.429 177.933 139.562 181.021 137.618 182.605Z" fill="url(#paint4_linear)"/>
<path d="M133.683 108.25C133.237 107.038 132.852 106.212 132.739 105.968V105.907C132.739 105.907 132.344 106.875 129.369 106.64C126.393 106.406 125.408 104.938 125.408 104.938C125.408 104.938 126.342 108.118 122.797 109.478C119.386 110.793 118.042 109.942 117.949 109.881C118.129 110.074 120.796 112.907 119.027 115.154C117.195 117.482 113.076 117.024 113.076 117.024V117.054C113.594 118.22 114.175 119.358 114.815 120.463C115.153 121.043 115.487 121.578 115.841 122.078V122.113C116.749 123.581 117.976 124.829 119.432 125.766C118.792 129.495 116.955 132.918 114.194 135.523C115.123 136.004 116.08 136.428 117.062 136.792C118.975 137.51 121.545 138.224 123.839 138.025C126.496 137.743 128.951 136.485 130.723 134.499L129.548 130.021L128.492 125.986C138.044 123.565 135.417 113.039 133.683 108.25ZM127.958 126.133L128.127 126.093L128.399 126.016C128.004 126.186 127.586 126.299 127.158 126.352C127.378 126.296 127.604 126.235 127.84 126.164L127.958 126.133Z" fill="url(#paint5_linear)"/>
<path d="M139.434 105.774C135.494 109.371 133.791 108.358 133.683 108.261V108.251C133.237 107.038 132.852 106.213 132.744 105.968L132.719 105.907C132.719 105.907 132.319 106.875 129.343 106.641C126.368 106.406 125.388 104.939 125.388 104.939C125.388 104.939 126.321 108.118 122.777 109.478C119.36 110.793 118.016 109.942 117.929 109.881C118.108 110.069 120.776 112.902 119.006 115.149C117.175 117.477 113.055 117.024 113.055 117.024V117.05C113.573 118.217 114.154 119.357 114.794 120.463C115.136 121.041 115.478 121.579 115.82 122.078V122.114C115.82 122.114 114.415 124.86 111.906 124.804C109.397 124.748 109.341 122.257 109.341 122.257C109.341 122.257 107.566 125.436 102.082 122.374C96.5978 119.312 100.256 114.874 100.256 114.874C100.256 114.874 96.3669 111.919 96.3669 107.491C96.3669 103.064 102.42 99.6962 102.42 99.6962C102.42 99.6962 100.256 94.5555 103.908 91.7227C107.561 88.8899 113.05 90.8107 113.05 90.8107C113.05 90.8107 112.942 84.2332 118.534 84.3402C124.126 84.4472 125.393 87.8455 125.393 87.8455C125.393 87.8455 130.42 83.9835 135.397 87.6213C140.373 91.2591 138.326 97.6022 138.326 97.6022C138.326 97.6022 143.543 102.03 139.434 105.774Z" fill="url(#paint6_linear)"/>
<path opacity="0.15" d="M129.589 130.006C127.204 129.257 122.961 126.399 122.961 126.399C124.635 126.574 126.327 126.485 127.973 126.134L128.143 126.093L128.471 125.996H128.517L129.589 130.006Z" fill="black"/>
<path opacity="0.15" d="M110.418 158.547L108.105 173.832L106.288 185.621L102.061 189.111L111.26 185.795C111.26 185.795 108.874 179.028 110.418 158.547Z" fill="black"/>
<path opacity="0.15" d="M107.658 200.3C108.751 200.54 109.849 200.749 110.962 200.932C111.018 199.888 111.121 198.833 111.265 197.778L107.658 200.3Z" fill="black"/>
<g filter="url(#filter0_d)">
<path d="M85.4245 10H57.9939C54.2087 10 51.1401 13.0475 51.1401 16.8068V44.0493C51.1401 47.8086 54.2087 50.8561 57.9939 50.8561H85.4245C89.2097 50.8561 92.2783 47.8086 92.2783 44.0493V16.8068C92.2783 13.0475 89.2097 10 85.4245 10Z" fill="#56CCF2"/>
</g>
<rect x="61.002" y="30.8975" width="22.1043" height="11.7344" rx="4.4" fill="white"/>
<path d="M65.4984 30.8976C65.4984 30.8976 64.5202 18 72.0499 18C79.5797 18 79.0372 30.9099 79.0372 30.9099" stroke="white" stroke-width="1.9"/>
<g filter="url(#filter1_d)">
<path d="M227.286 113H199.856C196.07 113 193.002 116.048 193.002 119.807V147.049C193.002 150.809 196.07 153.856 199.856 153.856H227.286C231.072 153.856 234.14 150.809 234.14 147.049V119.807C234.14 116.048 231.072 113 227.286 113Z" fill="#F2C94C"/>
</g>
<path d="M220.064 130.37L222.736 121.273C223.058 120.558 222.999 119.725 222.579 119.063C222.16 118.401 221.438 118.001 220.662 118H218.172L217.342 119.851C216.734 121.18 215.421 122.03 213.977 122.03C212.533 122.03 211.22 121.18 210.612 119.851L209.782 118H207.77C206.893 118 206.076 118.452 205.601 119.2C205.127 119.948 205.061 120.89 205.425 121.698L207.915 130.37L204.18 142.572C203.801 143.843 204.035 145.221 204.811 146.289C205.588 147.358 206.817 147.992 208.126 148H219.882C221.19 147.991 222.418 147.356 223.194 146.288C223.97 145.219 224.203 143.842 223.824 142.572L220.064 130.37Z" fill="white"/>
<g filter="url(#filter2_d)">
<path d="M44.2863 113H16.8557C13.0705 113 10.002 116.048 10.002 119.807V147.049C10.002 150.809 13.0705 153.856 16.8557 153.856H44.2863C48.0716 153.856 51.1401 150.809 51.1401 147.049V119.807C51.1401 116.048 48.0716 113 44.2863 113Z" fill="#F58A8A"/>
</g>
<g clip-path="url(#clip0)">
<path d="M39.3145 135.625C37.5712 135.627 35.8644 136.124 34.3927 137.058C32.921 137.992 31.7451 139.325 31.002 140.902C30.2588 139.325 29.0829 137.992 27.6112 137.058C26.1395 136.124 24.4327 135.627 22.6895 135.625H17.877V136.5C17.877 141.566 21.9984 145.688 27.0645 145.688H34.9395C40.0055 145.688 44.127 141.566 44.127 136.5V135.625H39.3145ZM27.0645 143.938C23.2592 143.938 20.1124 141.065 19.6781 137.375H22.6895C26.4947 137.375 29.6415 140.247 30.0758 143.938H27.0645ZM34.9395 143.938H31.9281C32.3624 140.247 35.5092 137.375 39.3145 137.375H42.3258C41.8915 141.065 38.7447 143.938 34.9395 143.938Z" fill="white"/>
<path d="M26.2565 133.371C26.422 134.355 26.8914 135.262 27.5989 135.966L27.8552 136.222H28.2176C29.2155 136.225 30.1891 135.915 31.0019 135.336C31.8147 135.915 32.7883 136.225 33.7861 136.222H34.1486L34.4049 135.966C35.1124 135.262 35.5818 134.355 35.7473 133.371C36.7313 133.205 37.6388 132.736 38.3424 132.029L38.5986 131.772V131.41C38.6015 130.412 38.2917 129.438 37.7129 128.625C38.2918 127.813 38.6016 126.839 38.5989 125.841V125.479L38.3426 125.222C37.639 124.515 36.7315 124.045 35.7475 123.88C35.582 122.896 35.1126 121.988 34.4051 121.285L34.1488 121.029H33.7864C32.7885 121.026 31.8148 121.335 31.0019 121.914C30.1891 121.335 29.2155 121.026 28.2176 121.028H27.8552L27.5989 121.285C26.8914 121.988 26.422 122.896 26.2565 123.88C25.2725 124.045 24.365 124.515 23.6614 125.222L23.4051 125.478V125.841C23.4023 126.839 23.7121 127.812 24.2909 128.625C23.712 129.438 23.4022 130.412 23.4049 131.41V131.772L23.6612 132.028C24.3649 132.736 25.2724 133.205 26.2565 133.371ZM26.0522 128.007C25.5669 127.524 25.2586 126.892 25.1772 126.213C25.7151 125.79 26.3801 125.561 27.0644 125.563H27.9394V124.688C27.9374 124.004 28.1664 123.339 28.5893 122.801C29.2687 122.882 29.9007 123.19 30.383 123.676L31.0019 124.294L31.6206 123.675C32.1029 123.19 32.735 122.882 33.4143 122.8C33.8374 123.338 34.0664 124.003 34.0644 124.688V125.563H34.9394C35.6236 125.561 36.2885 125.79 36.8264 126.213C36.745 126.892 36.4367 127.524 35.9514 128.006L35.3331 128.625L35.9519 129.244C36.4372 129.726 36.7455 130.358 36.8269 131.038C36.2889 131.461 35.6238 131.69 34.9394 131.688H34.0644V132.563C34.0664 133.247 33.8374 133.912 33.4145 134.45C32.7351 134.368 32.1031 134.06 31.6207 133.575L31.0019 132.957L30.3832 133.575C29.9008 134.06 29.2688 134.369 28.5894 134.45C28.1664 133.912 27.9374 133.247 27.9394 132.563V131.688H27.0644C26.3802 131.69 25.7153 131.461 25.1773 131.038C25.2588 130.359 25.5671 129.727 26.0523 129.244L26.6706 128.625L26.0522 128.007Z" fill="white"/>
</g>
<g filter="url(#filter3_d)">
<path d="M182.286 10H154.856C151.071 10 148.002 13.0475 148.002 16.8068V44.0493C148.002 47.8086 151.071 50.8561 154.856 50.8561H182.286C186.072 50.8561 189.14 47.8086 189.14 44.0493V16.8068C189.14 13.0475 186.072 10 182.286 10Z" fill="#6FCF97"/>
</g>
<path d="M175.124 16C170.81 17.3464 166.19 17.3464 161.876 16C161.397 17.1251 160.002 20.6615 160.002 23.9715C160.002 28.5217 161.466 41.2507 161.466 41.2507C161.466 41.2507 164.478 43.9386 168.502 44C172.522 43.9309 175.534 41.243 175.534 41.243C175.534 41.243 177.002 28.5063 177.002 23.9638C177.002 20.6615 175.603 17.1251 175.124 16Z" fill="white"/>
<defs>
<filter id="filter0_d" x="41.1401" y="0" width="71.1381" height="70.8561" filterUnits="userSpaceOnUse" color-interpolation-filters="sRGB">
<feFlood flood-opacity="0" result="BackgroundImageFix"/>
<feColorMatrix in="SourceAlpha" type="matrix" values="0 0 0 0 0 0 0 0 0 0 0 0 0 0 0 0 0 0 127 0"/>
<feOffset dx="5" dy="5"/>
<feGaussianBlur stdDeviation="7.5"/>
<feColorMatrix type="matrix" values="0 0 0 0 0 0 0 0 0 0 0 0 0 0 0 0 0 0 0.15 0"/>
<feBlend mode="normal" in2="BackgroundImageFix" result="effect1_dropShadow"/>
<feBlend mode="normal" in="SourceGraphic" in2="effect1_dropShadow" result="shape"/>
</filter>
<filter id="filter1_d" x="183.002" y="103" width="71.1381" height="70.8561" filterUnits="userSpaceOnUse" color-interpolation-filters="sRGB">
<feFlood flood-opacity="0" result="BackgroundImageFix"/>
<feColorMatrix in="SourceAlpha" type="matrix" values="0 0 0 0 0 0 0 0 0 0 0 0 0 0 0 0 0 0 127 0"/>
<feOffset dx="5" dy="5"/>
<feGaussianBlur stdDeviation="7.5"/>
<feColorMatrix type="matrix" values="0 0 0 0 0 0 0 0 0 0 0 0 0 0 0 0 0 0 0.15 0"/>
<feBlend mode="normal" in2="BackgroundImageFix" result="effect1_dropShadow"/>
<feBlend mode="normal" in="SourceGraphic" in2="effect1_dropShadow" result="shape"/>
</filter>
<filter id="filter2_d" x="0.00195312" y="103" width="71.1381" height="70.8561" filterUnits="userSpaceOnUse" color-interpolation-filters="sRGB">
<feFlood flood-opacity="0" result="BackgroundImageFix"/>
<feColorMatrix in="SourceAlpha" type="matrix" values="0 0 0 0 0 0 0 0 0 0 0 0 0 0 0 0 0 0 127 0"/>
<feOffset dx="5" dy="5"/>
<feGaussianBlur stdDeviation="7.5"/>
<feColorMatrix type="matrix" values="0 0 0 0 0 0 0 0 0 0 0 0 0 0 0 0 0 0 0.15 0"/>
<feBlend mode="normal" in2="BackgroundImageFix" result="effect1_dropShadow"/>
<feBlend mode="normal" in="SourceGraphic" in2="effect1_dropShadow" result="shape"/>
</filter>
<filter id="filter3_d" x="138.002" y="0" width="71.1381" height="70.8561" filterUnits="userSpaceOnUse" color-interpolation-filters="sRGB">
<feFlood flood-opacity="0" result="BackgroundImageFix"/>
<feColorMatrix in="SourceAlpha" type="matrix" values="0 0 0 0 0 0 0 0 0 0 0 0 0 0 0 0 0 0 127 0"/>
<feOffset dx="5" dy="5"/>
<feGaussianBlur stdDeviation="7.5"/>
<feColorMatrix type="matrix" values="0 0 0 0 0 0 0 0 0 0 0 0 0 0 0 0 0 0 0.15 0"/>
<feBlend mode="normal" in2="BackgroundImageFix" result="effect1_dropShadow"/>
<feBlend mode="normal" in="SourceGraphic" in2="effect1_dropShadow" result="shape"/>
</filter>
<linearGradient id="paint0_linear" x1="122.275" y1="76.8654" x2="120.031" y2="207.076" gradientUnits="userSpaceOnUse">
<stop stop-color="white" stop-opacity="0"/>
<stop offset="1" stop-color="#64B5F6" stop-opacity="0.6"/>
</linearGradient>
<linearGradient id="paint1_linear" x1="134.412" y1="136.165" x2="152.562" y2="168.279" gradientUnits="userSpaceOnUse">
<stop stop-color="#E57373"/>
<stop offset="1" stop-color="#AD1457"/>
</linearGradient>
<linearGradient id="paint2_linear" x1="28141.2" y1="39794.5" x2="26229.2" y2="49295.9" gradientUnits="userSpaceOnUse">
<stop stop-color="#E57373"/>
<stop offset="1" stop-color="#AD1457"/>
</linearGradient>
<linearGradient id="paint3_linear" x1="202.124" y1="147.94" x2="152.591" y2="176.834" gradientUnits="userSpaceOnUse">
<stop stop-color="#FFF8E1"/>
<stop offset="1" stop-color="#FFCC80"/>
</linearGradient>
<linearGradient id="paint4_linear" x1="21652.4" y1="22319.6" x2="18981.7" y2="20506.4" gradientUnits="userSpaceOnUse">
<stop stop-color="#FFF8E1"/>
<stop offset="1" stop-color="#FFCC80"/>
</linearGradient>
<linearGradient id="paint5_linear" x1="138.706" y1="113.439" x2="111.664" y2="124.652" gradientUnits="userSpaceOnUse">
<stop stop-color="#FFF8E1"/>
<stop offset="1" stop-color="#FFCC80"/>
</linearGradient>
<linearGradient id="paint6_linear" x1="132.488" y1="84.1466" x2="101.055" y2="126.911" gradientUnits="userSpaceOnUse">
<stop stop-color="#FFB74D"/>
<stop offset="1" stop-color="#F4511E"/>
</linearGradient>
<clipPath id="clip0">
<rect width="28" height="28" fill="white" transform="translate(17.002 119)"/>
</clipPath>
</defs>
</svg>
