<svg width="311" height="203" viewBox="0 0 311 203" fill="none" xmlns="http://www.w3.org/2000/svg">
<path d="M310.992 101.5C310.982 120.154 305.877 138.444 296.236 154.368C286.595 170.291 272.79 183.233 256.335 191.775C255.371 192.284 254.393 192.769 253.406 193.239C252.963 193.458 252.528 193.661 252.078 193.865C249.265 195.164 246.381 196.331 243.424 197.364C241.093 198.186 238.701 198.93 236.285 199.572C213.466 205.695 189.241 203.571 167.815 193.567C166.937 193.153 166.059 192.73 165.197 192.291C149.156 184.205 135.548 171.95 125.779 156.791C116.011 141.632 110.436 124.12 109.631 106.063C108.826 88.0068 112.82 70.0612 121.2 54.0807C129.581 38.1002 142.043 24.6645 157.301 15.1616C172.558 5.65879 190.057 0.433565 207.989 0.0258363C225.92 -0.381893 243.635 4.04266 259.302 12.8424C274.969 21.642 288.021 34.4977 297.108 50.081C306.195 65.6643 310.988 83.41 310.992 101.485V101.5Z" fill="url(#paint0_linear)"/>
<path d="M170.775 164.156L159.651 146.644C159.651 146.644 190.467 110.744 193.551 108.623C193.551 108.623 178.007 134.902 170.775 164.156Z" fill="url(#paint1_linear)"/>
<path d="M159.651 146.646L138.676 165.433L100.091 146.646L70.5717 148.274C70.5717 148.274 88.9592 154.536 94.1329 154.278L99.3144 154.02C99.3144 154.02 131.001 184.808 138.288 187.156C145.574 189.505 169.509 171.093 169.509 171.093L170.899 164.212L159.651 146.646Z" fill="url(#paint2_linear)"/>
<path d="M217.524 104.373C214.609 105.795 211.475 106.706 208.257 107.066C204.536 107.63 198.88 105.548 198.88 105.548C203.153 102.158 202.159 94.1654 202.159 94.1654L202.252 94.1184C206.812 93.7661 210.626 91.1593 213.291 88.6387C212.327 95.4805 217.524 104.373 217.524 104.373Z" fill="url(#paint3_linear)"/>
<path d="M217.524 78.9155V83.6124C216.31 85.4371 214.892 87.1155 213.298 88.6146C210.634 91.1431 206.819 93.7499 202.259 94.0943C200.188 94.2538 198.108 93.9463 196.169 93.1941C183.74 88.4972 192.479 63.6427 192.479 63.6427C196.426 53.5287 214.293 58.4213 214.293 58.4213C216.685 61.2943 217.144 69.3182 217.05 70.101C216.652 71.2008 216.131 72.2513 215.497 73.2322C215.497 73.2322 218.891 70.007 220.057 72.152C221.222 74.2969 217.524 78.9155 217.524 78.9155Z" fill="url(#paint4_linear)"/>
<path d="M217.524 83.6284V78.9315C217.524 78.9315 221.214 74.352 220.049 72.1914C218.884 70.0309 215.489 73.2717 215.489 73.2717C216.123 72.2908 216.644 71.2403 217.043 70.1405C217.136 69.3576 216.747 61.7878 214.285 58.4608C214.285 58.4608 196.418 53.5682 192.472 63.6822C192.472 63.6822 187.36 62.3749 182.955 56.2455C175.754 46.2176 184.354 44.9886 192.876 46.9221C203.215 49.2706 213.578 41.5677 225.425 49.3958C237.271 57.224 226.652 75.0174 217.524 83.6284Z" fill="#262F72"/>
<path d="M244.395 142.191C249.708 158.129 253.647 176.58 256.335 191.775C255.371 192.283 254.393 192.769 253.406 193.239C252.963 193.458 252.528 193.661 252.078 193.865C249.266 195.164 246.381 196.331 243.424 197.364C241.093 198.186 238.701 198.93 236.285 199.571C213.467 205.695 189.241 203.571 167.815 193.567C166.937 193.152 166.059 192.73 165.197 192.291C166.751 184.252 168.6 174.803 170.767 164.165C171.554 160.308 172.38 156.295 173.245 152.125C177.696 130.762 184.082 119.129 189.356 112.828L189.411 112.765C190.413 111.567 191.498 110.442 192.658 109.399C192.69 109.361 192.727 109.327 192.767 109.297C193.031 109.062 193.295 108.843 193.544 108.632C196.721 106.025 198.88 105.547 198.88 105.547L199.075 105.618H199.183C200.871 106.288 202.639 106.728 204.442 106.925H204.745H204.792C205.944 107.036 207.102 107.055 208.257 106.98H208.327C211.533 106.774 214.656 105.866 217.478 104.318C220.787 105.421 223.903 107.041 226.714 109.117C234.747 115.059 250.928 136.844 250.928 136.844L244.395 142.191Z" fill="url(#paint5_linear)"/>
<path d="M273.984 171.937C273.938 174.114 271.972 178.529 269.098 183.883C265.043 186.831 260.774 189.469 256.327 191.774C255.364 192.283 254.385 192.768 253.398 193.238C252.955 193.457 252.52 193.661 252.07 193.864C249.258 195.164 246.373 196.33 243.416 197.363L250.92 173.26L231.499 152.711L244.387 142.19L250.92 136.859C250.92 136.859 274.186 163.522 273.984 171.937Z" fill="url(#paint6_linear)"/>
<path fill-rule="evenodd" clip-rule="evenodd" d="M80.566 167.612L0.230774 163.108V120.729L80.566 125.234V167.612Z" fill="#8F97B9"/>
<path fill-rule="evenodd" clip-rule="evenodd" d="M80.566 125.284L0.230774 120.714L73.6343 95.3486L153.97 99.9191L80.566 125.284Z" fill="#E5E8F5"/>
<path fill-rule="evenodd" clip-rule="evenodd" d="M153.984 133.636L80.6047 167.541L80.5734 125.284L153.962 99.7295L153.984 133.636Z" fill="#BBC0D6"/>
<defs>
<linearGradient id="paint0_linear" x1="210.674" y1="11.023" x2="207.176" y2="211.094" gradientUnits="userSpaceOnUse">
<stop stop-color="white" stop-opacity="0"/>
<stop offset="1" stop-color="#64B5F6" stop-opacity="0.6"/>
</linearGradient>
<linearGradient id="paint1_linear" x1="179.048" y1="104.897" x2="173.133" y2="159.097" gradientUnits="userSpaceOnUse">
<stop stop-color="#42A5F5"/>
<stop offset="1" stop-color="#1565C0"/>
</linearGradient>
<linearGradient id="paint2_linear" x1="111.821" y1="161.973" x2="176.315" y2="170.455" gradientUnits="userSpaceOnUse">
<stop stop-color="#FFE082"/>
<stop offset="1" stop-color="#FFA726"/>
</linearGradient>
<linearGradient id="paint3_linear" x1="14504.5" y1="3913.16" x2="14509.1" y2="3561.2" gradientUnits="userSpaceOnUse">
<stop stop-color="#FFE082"/>
<stop offset="1" stop-color="#FFA726"/>
</linearGradient>
<linearGradient id="paint4_linear" x1="23073.1" y1="6268.11" x2="24293.3" y2="6268.11" gradientUnits="userSpaceOnUse">
<stop stop-color="#FFE082"/>
<stop offset="1" stop-color="#FFA726"/>
</linearGradient>
<linearGradient id="paint5_linear" x1="66090.4" y1="23227.5" x2="75162.7" y2="31950.6" gradientUnits="userSpaceOnUse">
<stop stop-color="#42A5F5"/>
<stop offset="1" stop-color="#1565C0"/>
</linearGradient>
<linearGradient id="paint6_linear" x1="35415.5" y1="18863.4" x2="34795.3" y2="14990" gradientUnits="userSpaceOnUse">
<stop stop-color="#FFE082"/>
<stop offset="1" stop-color="#FFA726"/>
</linearGradient>
</defs>
</svg>
