<svg width="263" height="209" viewBox="0 0 263 209" fill="none" xmlns="http://www.w3.org/2000/svg">
<path d="M263 105C262.99 124.113 257.666 142.854 247.612 159.169C237.558 175.485 223.163 188.745 206.002 197.498C205.23 197.899 204.452 198.284 203.669 198.653L203.507 198.733L202.948 198.998C202.487 199.222 202.033 199.431 201.563 199.639C198.631 200.971 195.622 202.166 192.539 203.225C190.789 203.829 189.02 204.388 187.233 204.901L185.094 205.487C161.299 211.761 136.036 209.584 113.693 199.335C112.778 198.91 111.862 198.476 110.963 198.027L109.343 197.225C93.3068 188.905 79.7037 176.637 69.843 161.604C68.806 160.037 67.8178 158.433 66.8781 156.791C66.041 155.364 65.2309 153.917 64.4478 152.452C56.837 137.771 52.8792 121.502 52.904 105C52.904 103.053 52.9581 101.118 53.0661 99.1927C54.5848 72.1492 66.6991 46.7593 86.8323 28.4231C106.966 10.0868 133.529 0.250927 160.874 1.00741C188.218 1.7639 214.185 13.053 233.253 32.4738C252.321 51.8946 262.984 77.9147 262.976 105H263Z" fill="url(#paint0_linear)"/>
<path d="M137.323 101.302C137.323 101.302 113.831 90.2735 111.789 75.0978C109.748 59.9221 111.182 45.4202 122.887 41.3616C122.887 41.3616 130.292 17.9884 156.538 27.381C182.785 36.7736 178.646 64.9753 192.992 68.3522C207.339 71.729 234.128 57.5078 239.24 74.8572C244.352 92.2066 227.542 91.1478 216.371 105.874C205.2 120.601 222.455 128.333 219.296 138.472C216.136 148.61 204.204 155.58 204.204 155.58L137.323 101.302Z" fill="url(#paint1_linear)"/>
<path d="M105.155 134.589L111.789 152.452H112.51L122.887 105.874C116.334 111.561 105.155 134.589 105.155 134.589Z" fill="url(#paint2_linear)"/>
<path d="M93.5055 159.23L89.3011 161.323C84.0842 164.419 76.2911 163.537 76.2911 163.537C80.5036 168.229 104.223 173.539 110.89 173.403L112.121 156.783H97.3453L93.5055 159.23Z" fill="url(#paint3_linear)"/>
<path d="M203.669 198.629L203.507 198.709L202.948 198.974C202.487 199.198 202.033 199.407 201.563 199.616C198.631 200.947 195.622 202.142 192.539 203.201C190.789 203.805 189.02 204.364 187.233 204.877L185.094 205.463C161.299 211.737 136.036 209.561 113.693 199.311C112.778 198.886 111.862 198.453 110.963 198.003L109.343 197.201C109.57 190.319 109.918 182.082 110.428 173.395C110.752 167.965 111.149 162.358 111.619 156.792C111.741 155.34 111.87 153.896 112 152.452C113.912 131.935 116.974 112.909 121.883 106.861L121.956 106.781C122.579 105.931 123.458 105.3 124.467 104.976C131.555 103.308 136.554 102.746 137.339 101.302C138.125 99.8586 137.339 97.0192 137.339 97.0192L138.749 96.8267C140.798 96.5219 144.776 95.8802 148.543 94.9177C148.567 94.9251 148.592 94.9251 148.616 94.9177C151.945 94.0595 155.096 92.9526 156.636 91.6211L159.795 99.9389C159.795 99.9389 183.555 96.9631 192.83 105.906C192.887 105.948 192.939 105.997 192.984 106.051C193.082 106.138 193.174 106.232 193.26 106.332C193.811 106.909 194.303 107.541 194.726 108.217C197.748 113.029 199.886 132.344 201.369 153.294C201.709 158.107 202.017 163.08 202.284 167.949C202.9 179.194 203.361 190.087 203.669 198.629Z" fill="url(#paint4_linear)"/>
<path opacity="0.15" d="M203.507 198.733L202.948 198.997C202.486 199.222 202.033 199.431 201.563 199.639C198.63 200.971 195.622 202.166 192.538 203.224C190.789 203.829 189.02 204.388 187.232 204.901C176.288 193.359 171.946 178.376 171.946 178.376L202.268 167.948L203.507 198.733Z" fill="black"/>
<path d="M192.822 105.874C203.799 116.542 206.188 138.936 204.163 155.604C202.138 172.272 198.379 187.881 190.57 187.399C182.761 186.918 155.736 168.357 145.294 158.235L151.394 146.645L173.461 155.748V131.485L192.822 105.874Z" fill="url(#paint5_linear)"/>
<path d="M192.822 105.874C203.799 116.542 206.188 138.936 204.163 155.604C202.138 172.272 198.379 187.881 190.57 187.399C182.761 186.918 155.736 168.357 145.294 158.235L151.394 146.645L173.461 155.748V131.485L192.822 105.874Z" fill="url(#paint6_linear)"/>
<g filter="url(#filter0_d)">
<path d="M136.051 152.452H34.7985V156.792H136.051V152.452Z" fill="url(#paint7_linear)"/>
<path d="M91.9988 99.1934H15L34.7985 152.453H111.789L91.9988 99.1934Z" fill="url(#paint8_linear)"/>
</g>
<path d="M57.9185 156.792C57.9185 156.792 71.2039 163.377 79.645 163.538C88.0861 163.698 97.3535 156.792 97.3535 156.792H57.9185Z" fill="url(#paint9_linear)"/>
<path d="M151.394 146.645C151.394 146.645 139.713 140.805 134.682 140.164C129.651 139.522 114.033 152.452 114.033 152.452H136.067L145.319 158.235L151.394 146.645Z" fill="url(#paint10_linear)"/>
<path d="M155.647 78.467C155.705 82.8591 156.03 87.2438 156.619 91.5973C151.394 94.5089 145.278 96.073 138.733 96.835L138.352 91.5973L138.125 88.3889V88.2847C136.863 88.2566 135.62 87.9841 134.464 87.4826C126.557 84.1057 124.856 67.5986 124.856 67.5986C128.023 67.4702 132.147 61.8154 132.147 61.8154C134.455 65.3126 145.165 72.0662 151.378 70.2535C157.592 68.4408 157.105 64.1014 157.105 64.1014C158.229 64.5706 159.201 65.3364 159.916 66.3152C160.63 67.294 161.059 68.4482 161.156 69.6519C161.488 73.887 155.647 78.467 155.647 78.467Z" fill="url(#paint11_linear)"/>
<path opacity="0.15" d="M150.341 83.127C148.875 85.5814 142.24 89.4876 138.36 91.6132L138.133 88.4048C138.376 88.4048 138.611 88.3246 138.838 88.2764C142.006 87.7213 145.047 86.6045 147.814 84.9798C147.847 84.967 147.877 84.9479 147.903 84.9237C148.735 84.4369 149.514 83.8671 150.228 83.2232L150.341 83.127Z" fill="black"/>
<path opacity="0.15" d="M164.356 152.003L181.546 158.965L173.445 153.182V131.525C173.445 131.525 170.909 150.343 164.356 152.003Z" fill="black"/>
<defs>
<filter id="filter0_d" x="0" y="84.1934" width="161.051" height="97.5982" filterUnits="userSpaceOnUse" color-interpolation-filters="sRGB">
<feFlood flood-opacity="0" result="BackgroundImageFix"/>
<feColorMatrix in="SourceAlpha" type="matrix" values="0 0 0 0 0 0 0 0 0 0 0 0 0 0 0 0 0 0 127 0"/>
<feOffset dx="5" dy="5"/>
<feGaussianBlur stdDeviation="10"/>
<feColorMatrix type="matrix" values="0 0 0 0 0 0 0 0 0 0 0 0 0 0 0 0 0 0 0.2 0"/>
<feBlend mode="normal" in2="BackgroundImageFix" result="effect1_dropShadow"/>
<feBlend mode="normal" in="SourceGraphic" in2="effect1_dropShadow" result="shape"/>
</filter>
<linearGradient id="paint0_linear" x1="158.383" y1="12.2631" x2="154.86" y2="217.296" gradientUnits="userSpaceOnUse">
<stop stop-color="white" stop-opacity="0"/>
<stop offset="1" stop-color="#64B5F6" stop-opacity="0.6"/>
</linearGradient>
<linearGradient id="paint1_linear" x1="111.02" y1="90.3617" x2="240.196" y2="90.3617" gradientUnits="userSpaceOnUse">
<stop stop-color="#EF9A9A"/>
<stop offset="1" stop-color="#D81B60"/>
</linearGradient>
<linearGradient id="paint2_linear" x1="113.061" y1="131.012" x2="109.24" y2="174.885" gradientUnits="userSpaceOnUse">
<stop stop-color="#7E57C2"/>
<stop offset="1" stop-color="#4527A0"/>
</linearGradient>
<linearGradient id="paint3_linear" x1="10822.1" y1="4012.43" x2="10784.8" y2="4927" gradientUnits="userSpaceOnUse">
<stop stop-color="#7E57C2"/>
<stop offset="1" stop-color="#4527A0"/>
</linearGradient>
<linearGradient id="paint4_linear" x1="32328.4" y1="23590.8" x2="38877.5" y2="35720.1" gradientUnits="userSpaceOnUse">
<stop stop-color="#7E57C2"/>
<stop offset="1" stop-color="#4527A0"/>
</linearGradient>
<linearGradient id="paint5_linear" x1="22184.6" y1="15512.9" x2="27999" y2="25292.9" gradientUnits="userSpaceOnUse">
<stop stop-color="#7E57C2"/>
<stop offset="1" stop-color="#4527A0"/>
</linearGradient>
<linearGradient id="paint6_linear" x1="179.95" y1="114.922" x2="170.877" y2="189.651" gradientUnits="userSpaceOnUse">
<stop offset="0.14" stop-color="#7E57C2" stop-opacity="0"/>
<stop offset="0.26" stop-color="#724DBB" stop-opacity="0.21"/>
<stop offset="0.48" stop-color="#5F3DAF" stop-opacity="0.55"/>
<stop offset="0.66" stop-color="#5131A7" stop-opacity="0.79"/>
<stop offset="0.81" stop-color="#482AA2" stop-opacity="0.94"/>
<stop offset="0.91" stop-color="#4527A0"/>
</linearGradient>
<linearGradient id="paint7_linear" x1="34.7985" y1="154.618" x2="136.051" y2="154.618" gradientUnits="userSpaceOnUse">
<stop stop-color="#D2D4D5"/>
<stop offset="1" stop-color="#AAACAE"/>
</linearGradient>
<linearGradient id="paint8_linear" x1="846.419" y1="6666.06" x2="6567.89" y2="13235.9" gradientUnits="userSpaceOnUse">
<stop stop-color="#D2D4D5"/>
<stop offset="1" stop-color="#AAACAE"/>
</linearGradient>
<linearGradient id="paint9_linear" x1="60.4297" y1="149.549" x2="92.7004" y2="163.521" gradientUnits="userSpaceOnUse">
<stop stop-color="#FFF8E1"/>
<stop offset="1" stop-color="#FFCC80"/>
</linearGradient>
<linearGradient id="paint10_linear" x1="12510.5" y1="4670.25" x2="13333.2" y2="5573.5" gradientUnits="userSpaceOnUse">
<stop stop-color="#FFF8E1"/>
<stop offset="1" stop-color="#FFCC80"/>
</linearGradient>
<linearGradient id="paint11_linear" x1="12779.8" y1="5123.55" x2="13501.6" y2="6492.11" gradientUnits="userSpaceOnUse">
<stop stop-color="#FFF8E1"/>
<stop offset="1" stop-color="#FFCC80"/>
</linearGradient>
</defs>
</svg>
