<?xml version="1.0" encoding="utf-8"?>
<!-- Generator: Adobe Illustrator 19.0.0, SVG Export Plug-In . SVG Version: 6.00 Build 0)  -->
<svg version="1.1" id="Layer_1" xmlns="http://www.w3.org/2000/svg" xmlns:xlink="http://www.w3.org/1999/xlink" x="0px" y="0px"
	 viewBox="0 0 497 131.5" style="enable-background:new 0 0 497 131.5;" xml:space="preserve">
<style type="text/css">
	.st0{fill-rule:evenodd;clip-rule:evenodd;fill:#E98024;}
	.st1{fill-rule:evenodd;clip-rule:evenodd;fill:#006CB5;}
	.st2{fill:#02797E;}
	.st3{fill:#006D69;}
</style>
<image style="overflow:visible;" width="1920" height="1080" id="XMLID_23_" xlink:href="C2C3A448.jpg"  transform="matrix(1 0 0 1 -2367.1655 -765.5279)">
</image>
<g id="XMLID_15_">
	<g id="XMLID_19_">
		<polygon class="st0" points="20.5,50.3 20.5,116.9 152.7,116.9 152.7,18.6 71.6,100.5 		"/>
	</g>
	<g id="XMLID_18_">
		<polygon class="st1" points="20.5,18.6 20.5,50.3 71.6,80.1 152.7,18.6 		"/>
	</g>
	<g id="XMLID_14_">
		<g id="XMLID_36_">
			<path class="st2" d="M167.6,59.1v27.6h-9.3V17.9h26.4c7.3,0,13.1,1.9,17.2,5.7c4.1,3.8,6.1,8.8,6.1,15c0,6.2-2,11.2-6.1,15
				c-4.1,3.8-9.8,5.6-17.2,5.6H167.6z M167.6,51.8h17c4.7,0,8.2-1.3,10.5-3.8c2.3-2.5,3.5-5.7,3.5-9.5c0-3.8-1.2-7-3.5-9.6
				c-2.3-2.6-5.8-3.8-10.4-3.8h-17V51.8z"/>
		</g>
		<g id="XMLID_39_">
			<path class="st2" d="M272.9,64.7L273,65c0.1,6.5-2.1,11.9-6.8,16.2c-4.7,4.4-10.8,6.5-18.5,6.5c-7.8,0-14.1-2.8-19-8.3
				c-4.9-5.5-7.4-12.5-7.4-21V46.2c0-8.5,2.5-15.5,7.4-21c4.9-5.5,11.3-8.3,19-8.3s14,2.1,18.6,6.2c4.6,4.1,6.8,9.6,6.7,16.5
				l-0.1,0.3H264c0-4.8-1.4-8.6-4.3-11.5c-2.8-2.8-6.8-4.2-12-4.2c-5.2,0-9.4,2.1-12.4,6.3c-3.1,4.2-5,9.5-5,15.7l0.1,12.4
				c0,6.3,1.9,11.4,5,15.6c3.1,4.2,7.2,6.3,12.4,6.3c5.2,0,9.2-1.4,12-4.2c2.8-2.8,4.3-6.6,4.3-11.6H272.9z"/>
		</g>
		<g id="XMLID_41_">
			<path class="st2" d="M299.3,86.8h-9.4V17.9h9.4V86.8z"/>
		</g>
	</g>
	<g id="XMLID_387_">
		<g id="XMLID_390_">
			<path id="XMLID_119_" class="st3" d="M325.9,16.5h23.5c4.7,0,8.4,0.6,11.2,1.9c2.8,1.3,5.2,3.1,7.1,5.4c1.9,2.3,3.2,5.1,4,8.2
				c0.8,3.1,1.3,6.4,1.3,9.9c0,5.5-0.6,9.7-1.9,12.7c-1.2,3-3,5.6-5.2,7.6c-2.2,2-4.6,3.4-7.1,4.1c-3.5,1-6.6,1.4-9.4,1.4h-23.5
				L325.9,16.5L325.9,16.5z M341.6,28.1v27.9h3.9c3.3,0,5.6-0.4,7.1-1.1c1.4-0.7,2.5-2,3.3-3.9c0.8-1.9,1.2-4.8,1.2-8.9
				c0-5.4-0.9-9.1-2.7-11.1s-4.7-3-8.8-3L341.6,28.1L341.6,28.1z"/>
		</g>
		<g id="XMLID_389_">
			<path id="XMLID_118_" class="st3" d="M378.5,50.8l15.1-1c0.3,2.4,1,4.3,2,5.6c1.6,2.1,3.9,3.1,7,3.1c2.3,0,4-0.6,5.2-1.6
				c1.2-1,1.9-2.3,1.9-3.7c0-1.3-0.6-2.5-1.8-3.5c-1.1-1-3.9-2-8.1-3c-6.9-1.5-11.9-3.6-14.8-6.2c-3-2.6-4.5-5.9-4.5-9.9
				c0-2.7,0.7-5.2,2.3-7.5c1.5-2.3,3.8-4.2,6.8-5.6c3.1-1.4,7.2-2,12.6-2c6.5,0,11.5,1.2,15,3.6c3.5,2.4,5.5,6.3,6.1,11.6l-14.9,0.9
				c-0.4-2.3-1.2-3.9-2.5-5c-1.3-1-3.1-1.6-5.2-1.6c-1.9,0-3.2,0.4-4.2,1.2c-1,0.8-1.4,1.7-1.4,2.8c0,0.8,0.4,1.5,1.1,2.2
				c0.7,0.6,2.5,1.3,5.3,1.9c6.9,1.5,11.8,3,14.9,4.5c3,1.5,5.2,3.4,6.5,5.6c1.4,2.3,2,4.8,2,7.6c0,3.3-0.9,6.3-2.7,9.1
				c-1.9,2.7-4.3,4.8-7.6,6.3c-3.2,1.4-7.4,2.2-12.3,2.2c-8.7,0-14.7-1.7-18.1-5C380.8,60.3,378.9,56,378.5,50.8z"/>
		</g>
		<g id="XMLID_388_">
			<path id="XMLID_45_" class="st3" d="M430.1,50.8l15.1-1c0.3,2.4,1,4.3,2,5.6c1.6,2.1,3.9,3.1,7,3.1c2.3,0,4-0.6,5.2-1.6
				s1.9-2.3,1.9-3.7c0-1.3-0.6-2.5-1.8-3.5c-1.1-1-3.9-2-8.1-3c-6.9-1.5-11.9-3.6-14.8-6.2c-3-2.6-4.5-5.9-4.5-9.9
				c0-2.7,0.7-5.2,2.3-7.5c1.5-2.3,3.8-4.2,6.8-5.6c3.1-1.4,7.2-2,12.6-2c6.5,0,11.5,1.2,15,3.6s5.5,6.3,6.1,11.6l-14.9,0.9
				c-0.4-2.3-1.2-3.9-2.5-5c-1.3-1-3.1-1.6-5.2-1.6c-1.9,0-3.2,0.4-4.2,1.2c-1,0.8-1.4,1.7-1.4,2.8c0,0.8,0.4,1.5,1.1,2.2
				c0.7,0.6,2.5,1.3,5.3,1.9c6.9,1.5,11.8,3,14.9,4.5c3,1.5,5.2,3.4,6.5,5.6c1.4,2.3,2,4.8,2,7.6c0,3.3-0.9,6.3-2.7,9.1
				c-1.9,2.7-4.3,4.8-7.6,6.3c-3.2,1.4-7.4,2.2-12.3,2.2c-8.7,0-14.7-1.7-18.1-5C432.5,60.3,430.5,56,430.1,50.8z"/>
		</g>
	</g>
	<g id="XMLID_21_">
		<path id="XMLID_97_" class="st3" d="M338.7,85.4L338.7,85.4c0.1,1.9-0.6,3.3-1.9,4.3c-1.3,1-3.1,1.4-5.5,1.4
			c-2.4,0-4.3-0.6-5.8-1.8c-1.5-1.2-2.2-2.8-2.2-4.8v-3.4c0-2,0.7-3.6,2.1-4.8c1.4-1.2,3.3-1.8,5.6-1.8c2.5,0,4.4,0.5,5.7,1.4
			s2,2.4,2,4.2l0,0.1h-4.4c0-1-0.3-1.7-0.8-2.1c-0.5-0.4-1.3-0.6-2.5-0.6c-1,0-1.8,0.3-2.3,1c-0.5,0.7-0.8,1.6-0.8,2.7v3.4
			c0,1.1,0.3,2,0.9,2.7c0.6,0.7,1.5,1,2.6,1c1,0,1.8-0.2,2.2-0.6c0.5-0.4,0.7-1.2,0.7-2.2H338.7z"/>
		<path id="XMLID_99_" class="st3" d="M357.4,84.3c0,2-0.8,3.6-2.3,4.9c-1.5,1.3-3.5,1.9-6,1.9c-2.5,0-4.5-0.6-6-1.9
			c-1.5-1.3-2.3-2.9-2.3-4.9v-2.9c0-2,0.8-3.6,2.3-4.9s3.5-2,6-2c2.4,0,4.4,0.7,6,2s2.3,2.9,2.3,4.9V84.3z M352.9,81.3
			c0-1.2-0.3-2.1-1-2.9c-0.7-0.7-1.6-1.1-2.8-1.1c-1.2,0-2.2,0.4-2.8,1.1s-1,1.7-1,2.9v2.9c0,1.2,0.3,2.1,1,2.9
			c0.7,0.7,1.6,1.1,2.8,1.1c1.2,0,2.1-0.4,2.8-1.1c0.7-0.7,1-1.7,1-2.9V81.3z"/>
		<path id="XMLID_102_" class="st3" d="M370.4,86L370.4,86l4.5-11.4h6v16.2h-4.5V80.5l-0.1,0L372,90.9h-3l-4.2-10.3l-0.1,0v10.3
			h-4.5V74.7h5.9L370.4,86z"/>
		<path id="XMLID_104_" class="st3" d="M388.5,85.4v5.6H384V74.7h7.4c2.3,0,4.1,0.5,5.5,1.5c1.4,1,2,2.3,2,3.9s-0.7,2.9-2,3.9
			c-1.4,1-3.2,1.5-5.5,1.5H388.5z M388.5,82.5h2.9c1,0,1.7-0.2,2.2-0.7c0.5-0.4,0.8-1,0.8-1.7c0-0.7-0.3-1.3-0.8-1.8
			c-0.5-0.5-1.3-0.7-2.3-0.7h-2.9V82.5z"/>
		<path id="XMLID_107_" class="st3" d="M406,88h8.4v2.9h-12.9V74.7h4.5V88z"/>
		<path id="XMLID_109_" class="st3" d="M421.5,90.9H417V74.7h4.5V90.9z"/>
		<path id="XMLID_111_" class="st3" d="M435.4,87.8h-5.8l-1.1,3.2h-4.8l6.4-16.2h2.4v0l0,0h2.4l6.4,16.2h-4.8L435.4,87.8z
			 M430.6,84.9h3.7l-1.8-5h-0.1L430.6,84.9z"/>
		<path id="XMLID_114_" class="st3" d="M458.9,90.9h-4.5l-7.1-10.2l-0.1,0v10.2h-4.5V74.7h4.5l7.1,10.2l0.1,0V74.7h4.5V90.9z"/>
		<path id="XMLID_116_" class="st3" d="M475.1,77.6H470v13.3h-4.5V77.6h-5.1v-2.9h14.7V77.6z"/>
	</g>
	<g id="XMLID_22_">
		<path id="XMLID_46_" class="st3" d="M163.4,100.1c-1.9,0-3.3,0.6-4.4,1.9s-1.6,2.9-1.6,5.1c0,2.2,0.5,3.9,1.6,5.1
			c1,1.2,2.5,1.8,4.4,1.8c1.2,0,2.5-0.2,4-0.6v1.7c-1.2,0.4-2.6,0.7-4.3,0.7c-2.5,0-4.4-0.8-5.8-2.3c-1.4-1.5-2-3.7-2-6.5
			c0-1.7,0.3-3.3,1-4.6c0.7-1.3,1.6-2.3,2.8-3c1.2-0.7,2.7-1.1,4.3-1.1c1.8,0,3.3,0.3,4.6,1l-0.8,1.7
			C165.9,100.4,164.7,100.1,163.4,100.1z"/>
		<path id="XMLID_48_" class="st3" d="M180.5,115.5h-9.4V98.6h9.4v1.7H173v5.5h7v1.7h-7v6.2h7.4V115.5z"/>
		<path id="XMLID_50_" class="st3" d="M186.2,108.5v7h-2V98.6h4.6c2.1,0,3.6,0.4,4.6,1.2c1,0.8,1.5,2,1.5,3.6c0,2.2-1.1,3.8-3.4,4.5
			l4.6,7.6h-2.3l-4.1-7H186.2z M186.2,106.8h2.7c1.4,0,2.4-0.3,3-0.8c0.6-0.6,1-1.4,1-2.5c0-1.1-0.3-1.9-1-2.4
			c-0.7-0.5-1.7-0.7-3.2-0.7h-2.6V106.8z"/>
		<path id="XMLID_53_" class="st3" d="M204,115.5h-2v-15.2h-5.3v-1.7h12.6v1.7H204V115.5z"/>
		<path id="XMLID_55_" class="st3" d="M211.9,115.5V98.6h2v16.9H211.9z"/>
		<path id="XMLID_57_" class="st3" d="M220.4,115.5h-2V98.6h9.4v1.7h-7.4v6.2h7v1.7h-7V115.5z"/>
		<path id="XMLID_59_" class="st3" d="M230.7,115.5V98.6h2v16.9H230.7z"/>
		<path id="XMLID_61_" class="st3" d="M246.7,115.5h-9.4V98.6h9.4v1.7h-7.4v5.5h7v1.7h-7v6.2h7.4V115.5z"/>
		<path id="XMLID_63_" class="st3" d="M263.9,106.9c0,2.8-0.8,4.9-2.3,6.4s-3.7,2.2-6.5,2.2h-4.7V98.6h5.2c2.6,0,4.7,0.7,6.1,2.2
			S263.9,104.3,263.9,106.9z M261.8,106.9c0-2.2-0.6-3.9-1.7-5c-1.1-1.1-2.7-1.7-4.9-1.7h-2.9v13.5h2.4c2.3,0,4.1-0.6,5.3-1.7
			C261.2,110.9,261.8,109.2,261.8,106.9z"/>
		<path id="XMLID_66_" class="st3" d="M273.8,98.6h4.8c2.2,0,3.9,0.3,4.9,1c1,0.7,1.5,1.7,1.5,3.2c0,1-0.3,1.8-0.8,2.5
			s-1.4,1.1-2.4,1.3v0.1c2.6,0.4,3.8,1.8,3.8,4.1c0,1.5-0.5,2.7-1.5,3.5c-1,0.8-2.4,1.3-4.3,1.3h-5.9V98.6z M275.7,105.8h3.2
			c1.4,0,2.4-0.2,3-0.7c0.6-0.4,0.9-1.2,0.9-2.2c0-0.9-0.3-1.6-1-2.1s-1.8-0.6-3.2-0.6h-2.9V105.8z M275.7,107.5v6.3h3.5
			c1.4,0,2.4-0.3,3.1-0.8c0.7-0.5,1-1.4,1-2.5c0-1-0.4-1.8-1.1-2.3s-1.8-0.7-3.2-0.7H275.7z"/>
		<path id="XMLID_70_" class="st3" d="M293.4,107l4.5-8.5h2.1l-5.6,10.4v6.6h-2V109l-5.6-10.5h2.1L293.4,107z"/>
		<path id="XMLID_72_" class="st3" d="M318.1,98.6h2.1l-6.1,16.9h-1.9l-6-16.9h2.1l3.9,11c0.4,1.3,0.8,2.5,1.1,3.7
			c0.3-1.3,0.6-2.5,1.1-3.7L318.1,98.6z"/>
		<path id="XMLID_74_" class="st3" d="M333.2,115.5l-2.1-5.4h-6.8l-2.1,5.4h-2l6.7-17h1.7l6.6,17H333.2z M330.4,108.3l-2-5.2
			c-0.3-0.7-0.5-1.5-0.8-2.4c-0.2,0.7-0.4,1.6-0.7,2.4l-2,5.2H330.4z"/>
		<path id="XMLID_77_" class="st3" d="M337.5,115.5V98.6h2v15.1h7.4v1.8H337.5z"/>
		<path id="XMLID_79_" class="st3" d="M362.5,98.6v11c0,1.9-0.6,3.4-1.7,4.6c-1.2,1.1-2.8,1.7-4.8,1.7s-3.6-0.6-4.7-1.7
			c-1.1-1.1-1.7-2.6-1.7-4.6V98.6h2v11c0,1.4,0.4,2.5,1.2,3.3c0.8,0.8,1.9,1.1,3.4,1.1c1.4,0,2.5-0.4,3.3-1.1
			c0.8-0.8,1.2-1.9,1.2-3.3v-11H362.5z"/>
		<path id="XMLID_81_" class="st3" d="M376.4,115.5H367V98.6h9.4v1.7h-7.4v5.5h7v1.7h-7v6.2h7.4V115.5z"/>
		<path id="XMLID_83_" class="st3" d="M387.6,115.5l-5.7-15h-0.1c0.1,1.2,0.2,2.6,0.2,4.2v10.8h-1.8V98.6h3l5.3,14h0.1l5.4-14h2.9
			v16.9h-2v-10.9c0-1.3,0.1-2.6,0.2-4.1h-0.1l-5.8,15H387.6z"/>
		<path id="XMLID_85_" class="st3" d="M410.9,115.5h-9.4V98.6h9.4v1.7h-7.4v5.5h7v1.7h-7v6.2h7.4V115.5z"/>
		<path id="XMLID_87_" class="st3" d="M427.8,115.5h-2.2l-9.2-14.2h-0.1c0.1,1.7,0.2,3.2,0.2,4.6v9.6h-1.8V98.6h2.2l9.2,14.2h0.1
			c0-0.2,0-0.9-0.1-2c-0.1-1.1-0.1-1.9-0.1-2.4v-9.7h1.8V115.5z"/>
		<path id="XMLID_89_" class="st3" d="M437.6,115.5h-2v-15.2h-5.3v-1.7H443v1.7h-5.3V115.5z"/>
		<path id="XMLID_91_" class="st3" d="M460.1,107c0,2.7-0.7,4.8-2,6.4c-1.4,1.6-3.3,2.3-5.7,2.3c-2.5,0-4.4-0.8-5.8-2.3
			c-1.4-1.5-2-3.7-2-6.5c0-2.8,0.7-4.9,2-6.4c1.4-1.5,3.3-2.3,5.8-2.3c2.4,0,4.3,0.8,5.7,2.3C459.5,102.2,460.1,104.3,460.1,107z
			 M446.7,107c0,2.3,0.5,4,1.5,5.2c1,1.2,2.4,1.8,4.2,1.8c1.9,0,3.3-0.6,4.2-1.8c1-1.2,1.4-2.9,1.4-5.2c0-2.3-0.5-4-1.4-5.2
			c-1-1.2-2.4-1.8-4.2-1.8c-1.9,0-3.3,0.6-4.3,1.8C447.2,103,446.7,104.8,446.7,107z"/>
		<path id="XMLID_94_" class="st3" d="M465.9,108.5v7h-2V98.6h4.6c2.1,0,3.6,0.4,4.6,1.2c1,0.8,1.5,2,1.5,3.6c0,2.2-1.1,3.8-3.4,4.5
			l4.6,7.6h-2.3l-4.1-7H465.9z M465.9,106.8h2.7c1.4,0,2.4-0.3,3-0.8c0.6-0.6,1-1.4,1-2.5c0-1.1-0.3-1.9-1-2.4
			c-0.7-0.5-1.7-0.7-3.2-0.7h-2.6V106.8z"/>
	</g>
</g>
</svg>
