<svg width="902" height="625" viewBox="0 0 902 625" fill="none" xmlns="http://www.w3.org/2000/svg">
<path opacity="0.25" d="M23.9269 183.921C48.6848 169.224 128.109 174.455 126.198 164.491C123.54 150.624 129.688 142.404 192.413 141.656C255.139 140.909 289.285 146.14 289.7 155.357C289.949 160.671 284.3 165.653 268.764 170.469C268.93 170.802 268.847 171.3 268.515 171.632C265.524 174.123 262.782 178.441 271.755 182.509C284.881 188.405 343.037 192.723 341.459 207.254C339.88 221.785 247.495 227.68 221.99 228.843C196.484 230.005 141.402 231.583 147.301 212.734C153.116 194.134 51.8418 208.001 24.5916 189.899C21.6838 187.907 23.2623 184.336 23.9269 183.921Z" fill="#A6BDFF"/>
<path opacity="0.25" d="M545.504 89.5941C462.673 77.5542 436.835 65.4311 437.5 51.8135C438.164 38.1958 488.511 30.4736 580.979 31.5531C673.447 32.6325 682.503 44.8386 678.598 65.2651C675.773 79.8791 792.916 72.2399 829.471 93.9119C849.078 105.537 645.532 104.125 545.504 89.5941Z" fill="#A6BDFF"/>
<path opacity="0.25" d="M750.712 504.102C683.5 506.178 673.946 527.186 767.494 529.345C861.042 531.504 841.684 501.279 750.712 504.102Z" fill="#A6BDFF"/>
<path opacity="0.25" d="M238.108 504.102C170.896 506.178 161.342 527.186 254.89 529.345C348.438 531.504 329.08 501.279 238.108 504.102Z" fill="#A6BDFF"/>
<path opacity="0.25" d="M839.108 504.849C805.129 506.261 800.31 520.626 847.582 522.038C894.855 523.615 885.052 502.94 839.108 504.849Z" fill="#A6BDFF"/>
<path d="M171.477 499.95L171.643 498.621C117.309 490.235 79.5077 493.307 79.0923 493.39L79.1754 494.719C79.6739 494.719 117.392 491.646 171.477 499.95Z" fill="#C87F0B"/>
<path d="M67.8764 495.301C70.5349 492.727 77.5967 489.489 81.6677 491.315C86.9017 493.723 83.9939 496.962 76.2674 497.045C66.464 497.211 64.4701 498.622 67.8764 495.301Z" fill="#C87F0B"/>
<path d="M83.9937 504.019C84.8245 500.449 88.8955 493.806 93.2987 493.059C99.0312 492.145 98.3666 496.463 91.9694 500.864C83.8276 506.427 82.9968 508.752 83.9937 504.019Z" fill="#C87F0B"/>
<path d="M91.471 481.433C91.8864 485.087 95.3758 492.144 99.6129 493.224C105.179 494.719 104.93 490.318 99.1144 485.336C91.5541 479.025 90.9726 476.7 91.471 481.433Z" fill="#C87F0B"/>
<path d="M109.25 479.69C108.835 483.343 110.663 490.983 114.65 492.975C119.801 495.633 120.549 491.315 115.813 485.17C109.832 477.365 109.749 474.957 109.25 479.69Z" fill="#C87F0B"/>
<path d="M121.048 480.604C120.632 484.257 122.46 491.897 126.448 493.889C131.599 496.547 132.346 492.229 127.611 486.084C121.629 478.279 121.546 475.871 121.048 480.604Z" fill="#C87F0B"/>
<path d="M136.916 481.682C136.5 485.336 138.328 492.975 142.316 494.968C147.467 497.625 148.215 493.307 143.479 487.162C137.497 479.357 137.414 476.949 136.916 481.682Z" fill="#C87F0B"/>
<path d="M99.4467 504.933C100.028 501.279 103.85 494.47 108.17 493.557C113.82 492.394 113.404 496.712 107.256 501.362C99.3637 507.341 98.699 509.666 99.4467 504.933Z" fill="#C87F0B"/>
<path d="M112.906 505.431C113.487 501.777 117.309 494.968 121.629 494.055C127.279 492.892 126.863 497.21 120.715 501.86C112.823 507.839 112.075 510.164 112.906 505.431Z" fill="#C87F0B"/>
<path d="M128.109 509.416C127.445 505.762 128.691 498.04 132.43 495.715C137.331 492.643 138.411 496.961 134.257 503.354C128.857 511.741 128.94 514.149 128.109 509.416Z" fill="#C87F0B"/>
<path d="M146.968 510.994C146.304 507.34 147.55 499.618 151.288 497.293C156.19 494.221 157.27 498.539 153.116 504.932C147.716 513.236 147.799 515.727 146.968 510.994Z" fill="#C87F0B"/>
<path d="M146.138 277.002C146.221 291.035 132.346 297.429 140.156 315.447C147.965 333.466 161.009 332.967 164.748 352.73C166.409 361.282 164.415 366.928 163.834 372.409C169.483 381.709 175.714 391.091 182.444 400.474C183.025 401.305 183.69 402.218 184.354 403.048C206.038 417.33 217.836 396.489 217.836 396.489C217.836 396.489 224.648 387.106 222.322 368.755C220.91 357.379 203.795 348.91 205.457 337.119C207.118 325.328 213.432 316.194 208.115 304.985C202.881 293.775 188.342 295.436 184.437 273.349C180.533 251.262 173.554 244.619 163.418 244.37C153.366 244.121 145.971 262.969 146.138 277.002Z" fill="#FE9D00"/>
<path d="M201.137 389.847C201.22 389.847 201.22 389.93 201.303 389.93C201.552 390.013 201.884 389.847 201.884 389.598C203.131 384.948 202.964 377.641 192.746 358.377C188.758 350.904 188.509 343.015 188.176 334.546C187.761 323.419 187.345 311.961 178.29 300.751C162.837 281.736 166.991 246.779 166.991 246.446C166.991 246.197 166.825 245.948 166.575 245.865C166.326 245.865 166.077 246.031 165.994 246.28C165.911 246.613 161.757 281.985 177.542 301.415C186.432 312.293 186.847 323.668 187.179 334.546C187.512 343.098 187.761 351.153 191.832 358.792C201.884 377.724 202.051 384.782 200.887 389.266C200.887 389.515 200.971 389.681 201.137 389.847Z" fill="white"/>
<path d="M209.694 495.383C199.475 498.289 187.595 500.116 178.29 501.777C176.628 501.777 174.967 501.86 173.222 502.026C144.31 504.434 132.928 501.113 137.996 490.567C143.064 480.022 138.328 481.932 118.306 481.184C98.2838 480.354 74.5229 473.13 73.9414 461.92C73.2767 447.887 91.9697 450.628 91.0558 438.422C90.142 426.216 76.683 422.977 60.3162 424.721C43.9495 426.465 26.4196 419.739 29.4104 409.11C32.4013 398.482 45.1126 398.98 46.8573 391.922C48.6019 384.864 40.6263 380.962 31.2382 374.734C21.8502 368.507 15.7022 359.705 20.2716 350.986C24.0933 343.679 49.1004 354.308 80.4216 372.409C111.743 390.511 95.2098 373.489 117.558 373.323C139.99 373.157 159.265 426.382 164.665 421.981C170.065 417.58 180.367 406.287 192.081 434.768C206.869 470.141 212.602 487.412 209.694 495.383Z" fill="#A6BDFF"/>
<path d="M209.777 495.882C209.611 495.882 209.445 495.799 209.279 495.633C193.41 467.817 152.452 437.592 120.965 417.166C86.7357 394.995 55.913 379.219 55.5807 379.136C55.3315 378.97 55.2484 378.721 55.3314 378.472C55.4976 378.223 55.7469 378.14 55.9961 378.223C56.3284 378.389 87.2342 394.165 121.463 416.335C153.117 436.845 194.158 467.152 210.193 495.135C210.359 495.384 210.276 495.716 210.026 495.799C209.943 495.882 209.86 495.882 209.777 495.882Z" fill="white"/>
<path d="M104.183 465.739C104.016 465.739 103.85 465.656 103.767 465.573C103.601 465.324 103.601 465.075 103.85 464.826C103.933 464.743 112.574 458.017 124.205 452.454C135.005 447.306 150.707 442.075 164.166 446.641C164.416 446.724 164.582 447.057 164.499 447.306C164.416 447.555 164.083 447.721 163.834 447.638C138.661 439.085 104.764 465.407 104.432 465.656C104.349 465.739 104.266 465.739 104.183 465.739Z" fill="white"/>
<path d="M138.91 468.73C138.744 468.73 138.578 468.647 138.495 468.563C138.329 468.314 138.329 468.065 138.578 467.816C138.827 467.65 160.428 451.043 179.952 460.011C180.201 460.094 180.284 460.426 180.201 460.675C180.118 460.924 179.786 461.007 179.536 460.924C160.594 452.206 139.409 468.397 139.242 468.563C139.159 468.73 138.993 468.73 138.91 468.73Z" fill="white"/>
<path d="M128.774 422.146C128.608 422.146 128.442 422.063 128.276 421.897C118.223 405.207 120.134 389.68 120.217 389.513C120.217 389.264 120.466 389.015 120.799 389.098C121.048 389.098 121.297 389.347 121.214 389.68C121.214 389.846 119.303 405.041 129.19 421.399C129.356 421.648 129.273 421.98 129.024 422.063C128.858 422.146 128.774 422.146 128.774 422.146Z" fill="white"/>
<path d="M82.9971 279.577C63.9717 278.414 69.0396 306.065 81.917 318.188C94.7944 330.394 88.6465 344.509 104.764 361.365C120.882 378.221 137.414 373.239 141.901 388.518C146.387 403.796 154.114 425.966 168.32 435.598C182.444 445.23 197.564 444.732 197.564 444.732L224.815 424.638C224.815 424.638 187.678 402.966 184.355 391.009C181.032 379.052 174.801 349.076 149.378 342.517C123.956 335.874 125.285 315.032 116.312 303.573C107.34 292.281 92.4682 280.158 82.9971 279.577Z" fill="#FFB73F"/>
<path d="M214.014 433.108C213.931 433.108 206.703 432.444 198.728 428.707C191.333 425.22 181.862 418.328 178.373 405.291C171.228 378.471 162.422 364.438 148.713 358.46C140.156 354.64 114.152 343.099 108.17 320.596C102.687 299.672 77.0984 283.065 76.8491 282.899L77.2645 282.234C77.5138 282.4 103.352 299.173 108.918 320.43C114.734 342.6 140.488 354.059 148.963 357.796C162.837 363.94 171.893 378.139 179.038 405.208C182.444 417.996 191.749 424.721 198.977 428.126C206.786 431.779 213.931 432.444 214.014 432.444V433.108Z" fill="white"/>
<path d="M206.62 418.078L208.115 417.497C183.773 357.214 157.769 320.596 157.52 320.264L156.273 321.177C156.44 321.592 182.444 358.044 206.62 418.078Z" fill="#4D69B2"/>
<path d="M148.796 309.967C153.033 311.129 160.677 316.361 161.258 321.592C162.006 328.401 156.938 327.321 152.119 319.599C145.971 309.635 143.313 308.472 148.796 309.967Z" fill="#4D69B2"/>
<path d="M149.627 331.639C153.781 330.31 163.003 330.476 166.409 334.462C170.813 339.693 165.911 341.686 157.686 337.783C147.052 332.884 144.227 333.465 149.627 331.639Z" fill="#4D69B2"/>
<path d="M177.126 325.578C173.637 328.235 168.569 335.957 170.064 341.022C171.892 347.582 176.295 344.676 177.708 335.708C179.619 324.166 181.613 322.173 177.126 325.578Z" fill="#4D69B2"/>
<path d="M189.671 342.6C185.684 344.426 179.037 350.903 179.369 356.134C179.785 362.943 184.603 361.116 188.01 352.647C192.413 341.769 194.822 340.192 189.671 342.6Z" fill="#4D69B2"/>
<path d="M195.903 355.055C191.915 356.881 185.269 363.358 185.601 368.589C186.016 375.398 190.835 373.571 194.241 365.102C198.561 354.224 201.054 352.73 195.903 355.055Z" fill="#4D69B2"/>
<path d="M204.377 371.91C200.389 373.737 193.743 380.214 194.075 385.445C194.49 392.254 199.309 390.427 202.715 381.957C207.119 371.08 209.528 369.502 204.377 371.91Z" fill="#4D69B2"/>
<path d="M158.018 347.914C162.089 346.336 171.311 346.087 174.883 349.907C179.536 354.889 174.8 357.131 166.326 353.726C155.525 349.242 152.701 349.907 158.018 347.914Z" fill="#4D69B2"/>
<path d="M165.661 361.781C169.732 360.203 178.954 359.954 182.527 363.774C187.179 368.756 182.444 370.998 173.969 367.594C163.169 363.193 160.344 363.857 165.661 361.781Z" fill="#4D69B2"/>
<path d="M170.729 379.715C174.052 376.892 182.61 373.488 187.262 375.896C193.327 379.051 189.588 382.705 180.533 382.373C168.901 381.874 166.492 383.452 170.729 379.715Z" fill="#4D69B2"/>
<path d="M180.616 399.809C183.939 396.986 192.496 393.582 197.149 395.99C203.214 399.145 199.475 402.799 190.419 402.466C178.788 401.968 176.379 403.546 180.616 399.809Z" fill="#4D69B2"/>
<path d="M823.656 406.536L822.659 405.706C856.389 364.936 885.55 342.932 885.883 342.766L886.63 343.762C886.381 343.928 857.303 365.849 823.656 406.536Z" fill="#FE9D00"/>
<path d="M895.187 336.87C891.615 336.704 884.47 338.946 882.725 342.765C880.482 347.83 884.636 348.329 890.286 343.43C897.431 337.285 899.757 337.036 895.187 336.87Z" fill="#FE9D00"/>
<path d="M889.206 353.476C886.298 351.4 879.07 349.241 875.498 351.566C870.845 354.555 874.085 357.296 881.396 356.299C890.867 355.054 892.944 356.133 889.206 353.476Z" fill="#FE9D00"/>
<path d="M869.35 342.017C871.344 344.923 873.42 352.147 871.094 355.718C868.02 360.368 865.362 357.046 866.442 349.739C867.771 340.273 866.691 338.197 869.35 342.017Z" fill="#FE9D00"/>
<path d="M855.475 352.148C858.134 354.556 861.623 361.199 860.128 365.184C858.134 370.416 854.811 367.759 854.312 360.368C853.564 350.819 852.069 348.993 855.475 352.148Z" fill="#FE9D00"/>
<path d="M847.5 360.285C850.158 362.693 853.648 369.336 852.152 373.322C850.158 378.553 846.835 375.896 846.337 368.506C845.589 358.957 844.176 357.213 847.5 360.285Z" fill="#FE9D00"/>
<path d="M836.782 371.246C839.441 373.654 842.93 380.297 841.435 384.283C839.441 389.514 836.118 386.857 835.619 379.467C834.872 369.918 833.376 368.174 836.782 371.246Z" fill="#FE9D00"/>
<path d="M878.654 364.021C875.913 361.779 868.768 359.288 865.029 361.447C860.211 364.187 863.285 367.094 870.679 366.512C880.233 365.682 882.31 366.845 878.654 364.021Z" fill="#FE9D00"/>
<path d="M869.35 372.906C866.608 370.664 859.463 368.173 855.725 370.332C850.906 373.072 853.98 375.978 861.374 375.397C870.928 374.567 872.922 375.812 869.35 372.906Z" fill="#FE9D00"/>
<path d="M860.959 385.528C859.131 382.539 853.232 377.723 849.078 378.47C843.595 379.384 845.589 383.203 852.734 385.113C861.872 387.687 863.368 389.514 860.959 385.528Z" fill="#FE9D00"/>
<path d="M848.331 398.731C846.503 395.742 840.604 390.926 836.45 391.673C830.967 392.587 832.961 396.406 840.106 398.316C849.245 400.89 850.74 402.717 848.331 398.731Z" fill="#FE9D00"/>
<path d="M670.456 371.081L671.536 371.662C695.38 326.99 704.187 293.112 704.27 292.779L703.106 292.447C703.023 292.779 694.217 326.574 670.456 371.081Z" fill="#A6BDFF"/>
<path d="M706.097 282.399C707.51 285.472 708.174 292.696 705.433 295.602C701.777 299.421 699.783 295.934 702.026 289.125C704.851 280.49 704.27 278.414 706.097 282.399Z" fill="#A6BDFF"/>
<path d="M693.552 293.774C696.46 295.518 700.947 301.164 700.282 305.233C699.368 310.464 695.713 308.554 693.885 301.745C691.559 292.861 689.814 291.449 693.552 293.774Z" fill="#A6BDFF"/>
<path d="M710.999 307.144C707.676 306.397 700.531 307.227 698.205 310.632C695.214 315.032 699.119 316.195 705.184 312.541C713.076 307.975 715.319 308.141 710.999 307.144Z" fill="#A6BDFF"/>
<path d="M707.094 323.169C704.02 321.758 696.792 321.01 693.885 323.75C689.98 327.404 693.552 329.397 700.282 327.155C708.922 324.332 711.082 324.996 707.094 323.169Z" fill="#A6BDFF"/>
<path d="M702.691 333.134C699.617 331.723 692.389 330.975 689.481 333.715C685.577 337.369 689.149 339.362 695.878 337.12C704.602 334.297 706.679 334.961 702.691 333.134Z" fill="#A6BDFF"/>
<path d="M696.959 346.585C693.885 345.174 686.657 344.426 683.749 347.167C679.844 350.82 683.417 352.813 690.146 350.571C698.786 347.831 700.946 348.495 696.959 346.585Z" fill="#A6BDFF"/>
<path d="M688.069 306.894C691.06 308.554 695.878 313.952 695.297 317.937C694.632 323.251 690.977 321.508 688.733 314.782C685.992 306.146 684.164 304.818 688.069 306.894Z" fill="#A6BDFF"/>
<path d="M683.583 318.437C686.574 320.097 691.392 325.495 690.811 329.48C690.146 334.794 686.491 333.051 684.248 326.325C681.506 317.689 679.678 316.361 683.583 318.437Z" fill="#A6BDFF"/>
<path d="M675.441 330.476C678.764 330.974 685.161 334.461 686.075 338.447C687.238 343.678 683.167 343.263 678.847 337.7C673.197 330.393 671.037 329.811 675.441 330.476Z" fill="#A6BDFF"/>
<path d="M668.296 346.418C671.619 346.916 678.016 350.404 678.93 354.389C680.093 359.62 676.022 359.205 671.702 353.642C666.136 346.418 663.976 345.754 668.296 346.418Z" fill="#A6BDFF"/>
<path d="M669.542 495.549C680.01 493.889 691.641 490.484 700.697 488.076C702.192 487.412 703.771 486.748 705.35 486.167C732.6 476.119 741.489 468.314 732.351 460.924C723.295 453.534 728.446 453.285 746.225 444.068C764.004 434.851 782.448 418.161 778.211 407.865C772.894 394.912 757.108 405.291 752.788 393.832C748.468 382.374 759.268 373.738 774.804 368.341C790.34 363.027 803.384 349.492 796.156 341.106C788.928 332.719 777.629 338.615 773.06 332.968C768.49 327.322 774.057 320.43 779.872 310.798C785.771 301.166 787.516 290.621 779.706 284.642C773.143 279.66 754.948 299.92 734.261 329.564C713.574 359.207 721.384 336.788 701.029 346.171C680.675 355.554 685.743 411.934 679.013 410.273C672.284 408.613 658.16 402.717 659.655 433.44C661.483 471.47 663.56 489.571 669.542 495.549Z" fill="#FE9D00"/>
<path d="M669.791 495.966C669.957 495.883 670.123 495.717 670.123 495.551C672.699 463.582 696.958 418.91 716.815 387.025C738.415 352.482 759.684 325.081 759.85 324.832C760.016 324.583 760.016 324.334 759.767 324.084C759.518 323.918 759.268 323.918 759.019 324.168C758.77 324.417 737.501 351.818 715.901 386.443C695.961 418.412 671.619 463.25 669.043 495.468C669.043 495.717 669.21 495.966 669.542 496.049C669.625 496.049 669.708 496.049 669.791 495.966Z" fill="white"/>
<path d="M752.622 423.974C752.788 423.891 752.871 423.808 752.955 423.642C753.038 423.393 752.871 423.061 752.539 423.061C752.456 423.061 741.739 420.57 728.861 420.487C716.898 420.404 700.448 422.314 690.229 432.195C690.063 432.361 689.98 432.693 690.229 432.942C690.395 433.108 690.728 433.108 690.977 432.942C710.168 414.591 751.958 423.974 752.373 424.057C752.373 424.057 752.539 423.974 752.622 423.974Z" fill="white"/>
<path d="M722.381 441.411C722.547 441.328 722.63 441.245 722.713 441.079C722.796 440.83 722.63 440.497 722.298 440.497C722.049 440.414 695.38 434.519 681.505 450.96C681.339 451.209 681.339 451.458 681.589 451.707C681.838 451.873 682.087 451.873 682.336 451.624C695.795 435.681 721.882 441.411 722.132 441.494C722.215 441.411 722.298 441.411 722.381 441.411Z" fill="white"/>
<path d="M711.83 394.912C711.996 394.829 712.162 394.663 712.162 394.497C714.156 375.15 705.848 361.865 705.765 361.782C705.599 361.533 705.266 361.45 705.1 361.616C704.851 361.782 704.768 362.114 704.934 362.28C705.017 362.446 713.159 375.399 711.165 394.331C711.165 394.58 711.331 394.829 711.58 394.912C711.664 394.912 711.747 394.912 711.83 394.912Z" fill="white"/>
<path d="M29.7428 312.293C33.23 312.293 36.0569 309.468 36.0569 305.982C36.0569 302.497 33.23 299.672 29.7428 299.672C26.2556 299.672 23.4287 302.497 23.4287 305.982C23.4287 309.468 26.2556 312.293 29.7428 312.293Z" fill="#A6BDFF"/>
<path d="M899.175 439.834C900.689 439.834 901.917 438.607 901.917 437.094C901.917 435.58 900.689 434.354 899.175 434.354C897.661 434.354 896.434 435.58 896.434 437.094C896.434 438.607 897.661 439.834 899.175 439.834Z" fill="#FE9D00"/>
<path d="M886.132 419.407C887.004 419.407 887.71 418.701 887.71 417.83C887.71 416.958 887.004 416.252 886.132 416.252C885.26 416.252 884.553 416.958 884.553 417.83C884.553 418.701 885.26 419.407 886.132 419.407Z" fill="#A6BDFF"/>
<path d="M1.91084 404.128C2.96617 404.128 3.82168 403.273 3.82168 402.218C3.82168 401.164 2.96617 400.309 1.91084 400.309C0.855513 400.309 0 401.164 0 402.218C0 403.273 0.855513 404.128 1.91084 404.128Z" fill="#A6BDFF"/>
<path d="M121.795 259.898C122.942 259.898 123.872 258.968 123.872 257.822C123.872 256.675 122.942 255.746 121.795 255.746C120.648 255.746 119.718 256.675 119.718 257.822C119.718 258.968 120.648 259.898 121.795 259.898Z" fill="#FE9D00"/>
<path d="M52.0082 465.16C53.1552 465.16 54.0852 464.23 54.0852 463.084C54.0852 461.937 53.1552 461.008 52.0082 461.008C50.8611 461.008 49.9312 461.937 49.9312 463.084C49.9312 464.23 50.8611 465.16 52.0082 465.16Z" fill="#FFB73F"/>
<path d="M720.138 321.261L806.375 321.344C810.945 321.344 814.683 317.607 814.683 313.041L814.849 136.925C814.849 132.358 811.111 128.621 806.541 128.621H720.304C715.735 128.621 711.996 132.358 711.996 136.925L711.83 313.041C711.83 317.607 715.569 321.261 720.138 321.261Z" fill="#FFB73F"/>
<path d="M776.52 321.383L802.524 321.408L802.71 128.685L776.706 128.66L776.52 321.383Z" fill="#394E85"/>
<path d="M769.571 300.586L769.737 149.463C769.737 147.304 767.992 145.561 765.832 145.561H765.251C763.091 145.561 761.346 147.304 761.346 149.463L761.18 300.586C761.18 302.745 762.924 304.488 765.084 304.488H765.666C767.826 304.488 769.571 302.745 769.571 300.586Z" fill="#FFCE7D"/>
<path d="M751.957 300.586L752.041 206.176C752.041 204.017 750.296 202.273 748.136 202.273H747.554C745.394 202.273 743.649 204.017 743.649 206.176L743.566 300.503C743.566 302.662 745.311 304.406 747.471 304.406H748.053C750.213 304.489 751.957 302.745 751.957 300.586Z" fill="#FFCE7D"/>
<path d="M735.093 300.502L735.176 206.092C735.176 203.933 733.431 202.189 731.271 202.189H730.689C728.529 202.189 726.785 203.933 726.785 206.092L726.702 300.502C726.702 302.661 728.446 304.405 730.606 304.405H731.188C733.348 304.405 735.093 302.661 735.093 300.502Z" fill="#FFCE7D"/>
<path d="M752.124 157.684V181.681C752.124 187.743 747.222 192.642 741.074 192.642H737.834C731.769 192.642 726.868 187.743 726.868 181.598V157.601C726.868 151.54 731.769 146.641 737.917 146.641H741.157C747.222 146.724 752.124 151.623 752.124 157.684Z" fill="#FFCE7D"/>
<path opacity="0.15" d="M776.549 202.688L802.636 183.84V172.547L776.632 191.396L776.549 202.688Z" fill="white"/>
<path opacity="0.15" d="M776.466 306.398L802.553 287.633V276.34L776.466 295.189V306.398Z" fill="white"/>
<path opacity="0.15" d="M776.466 285.223L802.553 266.375V240.385L776.549 259.234L776.466 285.223Z" fill="white"/>
<path d="M846.337 226.352V485.668C846.337 496.214 837.779 504.766 827.228 504.766H701.943C691.392 504.766 682.835 496.214 682.835 485.668V226.352C682.835 215.806 691.392 207.254 701.943 207.254H827.311C837.862 207.254 846.337 215.806 846.337 226.352Z" fill="#394E85"/>
<path d="M690.312 477.863V233.991C690.312 223.362 698.952 214.727 709.587 214.727H819.501C830.136 214.727 838.776 223.362 838.776 233.991V477.863C838.776 488.491 830.136 497.127 819.501 497.127H709.67C698.952 497.21 690.312 488.574 690.312 477.863Z" fill="white"/>
<path d="M763.921 400.06C765.435 400.06 766.662 398.834 766.662 397.32C766.662 395.807 765.435 394.58 763.921 394.58C762.407 394.58 761.179 395.807 761.179 397.32C761.179 398.834 762.407 400.06 763.921 400.06Z" fill="#99D0EE"/>
<path d="M785.605 400.06C787.119 400.06 788.347 398.834 788.347 397.32C788.347 395.807 787.119 394.58 785.605 394.58C784.091 394.58 782.863 395.807 782.863 397.32C782.863 398.834 784.091 400.06 785.605 400.06Z" fill="#DDEEF5"/>
<path d="M742.237 400.06C743.751 400.06 744.979 398.834 744.979 397.32C744.979 395.807 743.751 394.58 742.237 394.58C740.723 394.58 739.496 395.807 739.496 397.32C739.496 398.834 740.723 400.06 742.237 400.06Z" fill="#DDEEF5"/>
<path d="M807.289 421.151H720.553C718.725 421.151 717.23 419.656 717.23 417.829C717.23 416.002 718.725 414.508 720.553 414.508H807.289C809.117 414.508 810.612 416.002 810.612 417.829C810.612 419.656 809.117 421.151 807.289 421.151Z" fill="#DDEEF5"/>
<path d="M807.289 435.434H720.553C718.725 435.434 717.23 433.939 717.23 432.112C717.23 430.286 718.725 428.791 720.553 428.791H807.289C809.117 428.791 810.612 430.286 810.612 432.112C810.612 433.939 809.117 435.434 807.289 435.434Z" fill="#DDEEF5"/>
<path d="M807.289 450.463H720.553C718.725 450.463 717.23 448.968 717.23 447.142C717.23 445.315 718.725 443.82 720.553 443.82H807.289C809.117 443.82 810.612 445.315 810.612 447.142C810.612 448.968 809.117 450.463 807.289 450.463Z" fill="#DDEEF5"/>
<path d="M711.498 284.641V278.164C711.498 277.168 712.079 276.172 712.993 275.673L763.589 249.102C764.42 248.687 765.333 248.687 766.164 249.102L816.76 275.507C817.674 276.006 818.255 276.919 818.255 277.998V284.558H711.498V284.641Z" fill="#99D0EE"/>
<path d="M713.491 282.565V279.409C713.491 278.413 714.073 277.416 714.987 276.918L763.505 251.427C764.336 251.011 765.25 251.011 766.081 251.427L814.6 276.752C815.514 277.25 816.095 278.164 816.095 279.243V282.482H713.491V282.565Z" fill="#DDEEF5"/>
<path d="M778.045 277.832H752.207C748.717 277.832 745.893 275.009 745.893 271.522C745.893 268.034 748.717 265.211 752.207 265.211H778.045C781.534 265.211 784.359 268.034 784.359 271.522C784.359 275.009 781.534 277.832 778.045 277.832Z" fill="white"/>
<path d="M750.96 275.009V268.117H753.453C754.201 268.117 754.782 268.283 755.198 268.532C755.613 268.781 755.862 269.197 755.862 269.695C755.862 270.027 755.696 270.359 755.447 270.691C755.198 270.94 754.865 271.189 754.45 271.272C754.948 271.356 755.364 271.522 755.613 271.854C755.862 272.186 756.028 272.518 756.028 272.933C756.028 273.597 755.779 274.096 755.364 274.428C754.948 274.76 754.284 275.009 753.536 275.009H750.96ZM752.456 269.28V270.94H753.121C753.453 270.94 753.702 270.857 753.868 270.691C754.034 270.525 754.117 270.359 754.117 270.027C754.117 269.529 753.702 269.28 752.954 269.28H752.456ZM752.456 272.02V273.847H753.287C753.619 273.847 753.951 273.764 754.117 273.597C754.284 273.431 754.45 273.182 754.45 272.933C754.45 272.684 754.367 272.435 754.117 272.269C753.951 272.103 753.619 272.02 753.287 272.02H752.456Z" fill="#99D0EE"/>
<path d="M763.838 275.009H762.176L761.678 273.431H759.185L758.687 275.009H757.025L759.518 268.117H761.346L763.838 275.009ZM761.346 272.269L760.598 269.944C760.515 269.778 760.515 269.529 760.515 269.28C760.515 269.446 760.432 269.695 760.432 269.861L759.684 272.186H761.346V272.269Z" fill="#99D0EE"/>
<path d="M771.481 275.009H769.903L767.078 270.691C766.912 270.442 766.829 270.276 766.745 270.11C766.745 270.359 766.745 270.691 766.745 271.189V275.009H765.25V268.117H766.912L769.653 272.352C769.819 272.518 769.903 272.767 769.986 272.933C769.986 272.767 769.986 272.435 769.986 272.02V268.2H771.481V275.009Z" fill="#99D0EE"/>
<path d="M779.291 275.008H777.297L775.303 272.019C775.303 271.936 775.22 271.853 775.137 271.604V275.008H773.558V268.116H775.137V271.355C775.137 271.272 775.22 271.105 775.303 270.939L777.214 268.033H779.041L776.632 271.355L779.291 275.008Z" fill="#99D0EE"/>
<path d="M815.763 282.564H713.824C711.498 282.564 709.67 284.391 709.67 286.716V286.799C709.67 289.124 711.498 290.951 713.824 290.951H815.763C818.089 290.951 819.917 289.124 819.917 286.799V286.716C819.917 284.391 818.089 282.564 815.763 282.564Z" fill="#99D0EE"/>
<path d="M819.917 286.717H709.67V286.8C709.67 289.125 711.498 290.952 713.824 290.952H815.763C818.089 290.952 819.917 289.125 819.917 286.717Z" fill="#DDEEF5"/>
<path d="M815.763 345.506H713.824C711.498 345.506 709.67 347.333 709.67 349.658V349.741H819.917V349.658C819.917 347.333 818.089 345.506 815.763 345.506Z" fill="#DDEEF5"/>
<path d="M819.917 347.582H709.67V349.658H819.917V347.582Z" fill="#99D0EE"/>
<path d="M818.837 349.656H710.75C708.423 349.656 706.596 351.483 706.596 353.808V353.891H822.991V353.808C822.991 351.566 821.163 349.656 818.837 349.656Z" fill="#DDEEF5"/>
<path d="M822.991 351.732H706.596V353.808H822.991V351.732Z" fill="#99D0EE"/>
<path d="M821.745 353.893H707.842C705.516 353.893 703.688 355.719 703.688 358.044V358.127H825.816V358.044C825.899 355.719 823.988 353.893 821.745 353.893Z" fill="#DDEEF5"/>
<path d="M825.899 355.969H703.771V358.045H825.899V355.969Z" fill="#99D0EE"/>
<path d="M728.113 339.609H720.719V339.526L720.802 338.446L722.381 295.352H726.535L728.113 338.446V339.526V339.609Z" fill="#DDEEF5"/>
<path d="M726.369 295.352H722.547C721.467 295.352 720.553 294.439 720.553 293.359H728.363C728.363 294.439 727.449 295.352 726.369 295.352Z" fill="#99D0EE"/>
<path d="M727.947 293.359H720.885C720.304 293.359 719.805 292.861 719.805 292.279C719.805 292.196 719.888 292.113 719.971 292.113H728.861C728.944 292.113 729.027 292.196 729.027 292.279C729.027 292.944 728.529 293.359 727.947 293.359Z" fill="#DDEEF5"/>
<path d="M728.944 292.197H719.972C719.39 292.197 718.892 291.698 718.892 291.117C718.892 291.034 718.975 290.951 719.058 290.951H729.858C729.941 290.951 730.024 291.034 730.024 291.117C730.024 291.698 729.526 292.197 728.944 292.197Z" fill="#99D0EE"/>
<path d="M730.107 342.765H718.809C718.809 341.104 720.138 339.775 721.799 339.775H727.117C728.778 339.775 730.107 341.104 730.107 342.765Z" fill="#DDEEF5"/>
<path d="M732.018 345.505H716.897C716.897 343.844 718.227 342.516 719.888 342.516H728.944C730.606 342.516 732.018 343.844 732.018 345.505Z" fill="#99D0EE"/>
<path d="M728.113 338.695V340.19H720.719L720.802 338.695H728.113Z" fill="#99D0EE"/>
<path d="M787.516 339.609H780.122V339.526V338.446L781.7 295.352H785.937L787.433 338.446L787.516 339.526V339.609Z" fill="#DDEEF5"/>
<path d="M785.688 295.352H781.866C780.786 295.352 779.873 294.439 779.873 293.359H787.682C787.682 294.439 786.851 295.352 785.688 295.352Z" fill="#99D0EE"/>
<path d="M787.349 293.359H780.288C779.706 293.359 779.208 292.861 779.208 292.279C779.208 292.196 779.291 292.113 779.374 292.113H788.263C788.346 292.113 788.429 292.196 788.429 292.279C788.429 292.944 787.931 293.359 787.349 293.359Z" fill="#DDEEF5"/>
<path d="M788.264 292.197H779.291C778.709 292.197 778.211 291.698 778.211 291.117C778.211 291.034 778.294 290.951 778.377 290.951H789.177C789.261 290.951 789.344 291.034 789.344 291.117C789.344 291.698 788.928 292.197 788.264 292.197Z" fill="#99D0EE"/>
<path d="M789.427 342.765H778.128C778.128 341.104 779.457 339.775 781.119 339.775H786.436C788.098 339.775 789.427 341.104 789.427 342.765Z" fill="#DDEEF5"/>
<path d="M791.337 345.505H776.217C776.217 343.844 777.546 342.516 779.208 342.516H788.263C790.008 342.516 791.337 343.844 791.337 345.505Z" fill="#99D0EE"/>
<path d="M787.433 338.695L787.516 340.19H780.122V338.695H787.433Z" fill="#99D0EE"/>
<path d="M808.95 339.609H801.556V339.526V338.446L803.135 295.352H807.289L808.867 338.446L808.95 339.526V339.609Z" fill="#DDEEF5"/>
<path d="M807.122 295.352H803.301C802.221 295.352 801.307 294.439 801.307 293.359H809.116C809.116 294.439 808.285 295.352 807.122 295.352Z" fill="#99D0EE"/>
<path d="M808.701 293.359H801.722C801.141 293.359 800.642 292.861 800.642 292.279C800.642 292.196 800.725 292.113 800.808 292.113H809.698C809.781 292.113 809.864 292.196 809.864 292.279C809.864 292.944 809.365 293.359 808.701 293.359Z" fill="#DDEEF5"/>
<path d="M809.698 292.197H800.726C800.144 292.197 799.646 291.698 799.646 291.117C799.646 291.034 799.729 290.951 799.812 290.951H810.612C810.695 290.951 810.778 291.034 810.778 291.117C810.778 291.698 810.28 292.197 809.698 292.197Z" fill="#99D0EE"/>
<path d="M810.861 342.765H799.562C799.562 341.104 800.891 339.775 802.553 339.775H807.87C809.532 339.775 810.861 341.104 810.861 342.765Z" fill="#DDEEF5"/>
<path d="M812.772 345.505H797.651C797.651 343.844 798.981 342.516 800.642 342.516H809.698C811.443 342.516 812.772 343.844 812.772 345.505Z" fill="#99D0EE"/>
<path d="M808.867 338.695L808.95 340.19H801.556V338.695H808.867Z" fill="#99D0EE"/>
<path d="M749.548 339.609H742.154V339.526L742.237 338.446L743.816 295.352H747.97L749.548 338.446V339.526V339.609Z" fill="#DDEEF5"/>
<path d="M747.804 295.352H743.982C742.902 295.352 741.988 294.439 741.988 293.359H749.798C749.798 294.439 748.884 295.352 747.804 295.352Z" fill="#99D0EE"/>
<path d="M749.382 293.359H742.32C741.739 293.359 741.24 292.861 741.24 292.279C741.24 292.196 741.323 292.113 741.406 292.113H750.296C750.379 292.113 750.462 292.196 750.462 292.279C750.462 292.944 749.964 293.359 749.382 293.359Z" fill="#DDEEF5"/>
<path d="M750.379 292.197H741.406C740.825 292.197 740.326 291.698 740.326 291.117C740.326 291.034 740.409 290.951 740.492 290.951H751.293C751.376 290.951 751.459 291.034 751.459 291.117C751.459 291.698 750.96 292.197 750.379 292.197Z" fill="#99D0EE"/>
<path d="M751.542 342.765H740.243C740.243 341.104 741.572 339.775 743.234 339.775H748.551C750.213 339.775 751.542 341.104 751.542 342.765Z" fill="#DDEEF5"/>
<path d="M753.453 345.505H738.333C738.333 343.844 739.662 342.516 741.323 342.516H750.379C752.041 342.516 753.453 343.844 753.453 345.505Z" fill="#99D0EE"/>
<path d="M749.548 338.695V340.19H742.154L742.237 338.695H749.548Z" fill="#99D0EE"/>
<path d="M682.586 199.033H197.647V460.426H682.586V199.033Z" fill="#99D0EE"/>
<path d="M187.844 169.141V138.667C187.844 133.768 190.585 129.285 194.906 127.043L433.927 1.49462C437.749 -0.498206 442.318 -0.498206 446.14 1.49462L685.161 126.378C689.481 128.62 692.223 133.104 692.223 138.003V169.058H187.844V169.141Z" fill="#99D0EE"/>
<path d="M197.647 159.342V144.562C197.647 139.663 200.389 135.179 204.709 132.937L434.01 12.5376C437.832 10.5448 442.401 10.5448 446.223 12.5376L675.524 132.356C679.844 134.598 682.586 139.082 682.586 143.981V159.425H197.647V159.342Z" fill="#DDEEF5"/>
<path d="M502.634 137.089H380.34C363.89 137.089 350.598 123.804 350.598 107.363C350.598 90.9222 363.89 77.6367 380.34 77.6367H502.634C519.084 77.6367 532.377 90.9222 532.377 107.363C532.377 123.804 519.084 137.089 502.634 137.089Z" fill="white"/>
<path d="M390.726 119.819V94.9922H399.781C402.523 94.9922 404.683 95.4904 406.178 96.4868C407.674 97.4832 408.422 98.8948 408.422 100.805C408.422 102.133 408.006 103.296 407.092 104.292C406.178 105.288 405.015 105.953 403.603 106.368V106.451C405.348 106.7 406.76 107.281 407.84 108.444C408.92 109.523 409.419 110.852 409.419 112.429C409.419 114.671 408.588 116.498 407.009 117.827C405.348 119.155 403.188 119.819 400.363 119.819H390.726ZM396.292 99.1439V105.039H398.784C399.947 105.039 400.861 104.79 401.526 104.209C402.191 103.628 402.523 102.88 402.523 101.884C402.523 100.057 401.194 99.1439 398.452 99.1439H396.292ZM396.292 109.191V115.751H399.283C400.612 115.751 401.609 115.419 402.357 114.837C403.105 114.256 403.437 113.426 403.437 112.346C403.437 111.35 403.105 110.603 402.357 110.021C401.609 109.44 400.612 109.191 399.366 109.191H396.292Z" fill="#99D0EE"/>
<path d="M437.084 119.819H431.019L429.275 114.339H420.385L418.641 119.819H412.576L421.631 94.9922H428.278L437.084 119.819ZM427.945 110.021L425.287 101.718C425.121 101.054 424.955 100.389 424.872 99.476H424.705C424.622 100.223 424.539 100.888 424.29 101.635L421.548 110.021H427.945Z" fill="#99D0EE"/>
<path d="M464.251 119.819H458.602L448.383 104.208C447.802 103.295 447.386 102.63 447.137 102.132H447.054C447.137 103.046 447.22 104.374 447.22 106.118V119.735H441.903V94.9082H447.968L457.854 110.02C458.27 110.685 458.685 111.349 459.1 112.013H459.183C459.1 111.432 459.017 110.27 459.017 108.609V94.9082H464.334V119.819H464.251Z" fill="#99D0EE"/>
<path d="M492.332 119.819H485.271L478.043 109.024C477.876 108.775 477.71 108.36 477.378 107.695H477.295V119.819H471.729V94.9912H477.295V106.699H477.378C477.544 106.367 477.71 105.952 478.043 105.288L484.938 94.9082H491.585L482.944 106.782L492.332 119.819Z" fill="#99D0EE"/>
<path d="M696.543 159.344H183.524C181.197 159.344 179.37 161.171 179.37 163.495V194.882C179.37 197.207 181.197 199.034 183.524 199.034H696.543C698.869 199.034 700.697 197.207 700.697 194.882V163.495C700.697 161.254 698.869 159.344 696.543 159.344Z" fill="#99D0EE"/>
<path d="M700.697 179.188H179.453V194.881C179.453 197.206 181.281 199.033 183.607 199.033H696.626C698.953 199.033 700.78 197.206 700.78 194.881V179.188H700.697Z" fill="#DDEEF5"/>
<path d="M696.543 456.938H183.524C181.197 456.938 179.37 458.764 179.37 461.089V476.783H700.697V461.089C700.697 458.764 698.869 456.938 696.543 456.938Z" fill="#DDEEF5"/>
<path d="M700.78 466.82H179.453V476.701H700.78V466.82Z" fill="#99D0EE"/>
<path d="M711.082 476.701H169.068C166.742 476.701 164.914 478.528 164.914 480.853V496.546H715.153V480.853C715.153 478.611 713.326 476.701 711.082 476.701Z" fill="#DDEEF5"/>
<path d="M715.153 486.664H164.914V496.545H715.153V486.664Z" fill="#99D0EE"/>
<path d="M724.707 496.545H155.443C153.116 496.545 151.289 498.372 151.289 500.697V516.39H728.778V500.697C728.861 498.372 726.95 496.545 724.707 496.545Z" fill="#DDEEF5"/>
<path d="M728.778 506.428H151.289V516.309H728.778V506.428Z" fill="#99D0EE"/>
<path d="M266.687 429.121H231.793V428.872L232.042 423.724L239.353 219.625H259.209L266.52 423.724L266.687 428.872V429.121Z" fill="#DDEEF5"/>
<path d="M259.957 219.626H238.606C234.286 219.626 230.796 216.139 230.796 211.821V210.16H267.85V211.821C267.767 216.139 264.278 219.626 259.957 219.626Z" fill="#DDEEF5"/>
<path d="M266.77 210.574H231.793C229.467 210.574 227.556 208.664 227.556 206.339V205.343C227.556 205.011 227.805 204.762 228.138 204.762H270.342C270.675 204.762 270.924 205.011 270.924 205.343V206.339C271.007 208.664 269.096 210.574 266.77 210.574Z" fill="#DDEEF5"/>
<path d="M271.339 204.846H227.14C224.814 204.846 222.903 202.936 222.903 200.611V199.614C222.903 199.282 223.153 199.033 223.485 199.033H274.995C275.327 199.033 275.576 199.282 275.576 199.614V200.611C275.576 202.936 273.665 204.846 271.339 204.846Z" fill="#DDEEF5"/>
<path d="M276.075 443.985H222.488V441.494C222.488 435.017 227.722 429.703 234.286 429.703H264.278C270.758 429.703 276.075 434.934 276.075 441.494V443.985Z" fill="#DDEEF5"/>
<path d="M284.881 456.938H213.599V454.447C213.599 447.97 218.833 442.656 225.396 442.656H273.167C279.647 442.656 284.964 447.887 284.964 454.447V456.938H284.881Z" fill="#DDEEF5"/>
<path d="M266.52 424.639L266.687 431.78H231.793L232.042 424.639H266.52Z" fill="#DDEEF5"/>
<path d="M547.331 429.121H512.438V428.872L512.687 423.724L519.998 219.625H539.854L547.165 423.724L547.331 428.872V429.121Z" fill="#DDEEF5"/>
<path d="M540.602 219.626H519.25C514.93 219.626 511.44 216.139 511.44 211.821V210.16H548.494V211.821C548.411 216.139 544.922 219.626 540.602 219.626Z" fill="#DDEEF5"/>
<path d="M547.414 210.574H512.438C510.112 210.574 508.201 208.664 508.201 206.339V205.343C508.201 205.011 508.45 204.762 508.782 204.762H550.987C551.319 204.762 551.568 205.011 551.568 205.343V206.339C551.652 208.664 549.741 210.574 547.414 210.574Z" fill="#DDEEF5"/>
<path d="M552.067 204.846H507.868C505.542 204.846 503.631 202.936 503.631 200.611V199.614C503.631 199.282 503.881 199.033 504.213 199.033H555.639C555.972 199.033 556.221 199.282 556.221 199.614V200.611C556.221 202.936 554.393 204.846 552.067 204.846Z" fill="#DDEEF5"/>
<path d="M556.719 443.985H503.133V441.494C503.133 435.017 508.367 429.703 514.93 429.703H544.922C551.402 429.703 556.719 434.934 556.719 441.494V443.985Z" fill="#DDEEF5"/>
<path d="M565.609 456.938H494.326V454.447C494.326 447.97 499.56 442.656 506.124 442.656H553.895C560.375 442.656 565.692 447.887 565.692 454.447V456.938H565.609Z" fill="#DDEEF5"/>
<path d="M547.165 424.639L547.331 431.78H512.438L512.687 424.639H547.165Z" fill="#DDEEF5"/>
<path d="M648.689 429.121H613.795V428.872L613.962 423.724L621.356 219.625H641.129L648.523 423.724L648.689 428.872V429.121Z" fill="#DDEEF5"/>
<path d="M641.877 219.626H620.608C616.288 219.626 612.799 216.139 612.799 211.821V210.16H649.853V211.821C649.769 216.139 646.197 219.626 641.877 219.626Z" fill="#DDEEF5"/>
<path d="M648.689 210.574H613.713C611.386 210.574 609.476 208.664 609.476 206.339V205.343C609.476 205.011 609.725 204.762 610.057 204.762H652.262C652.594 204.762 652.843 205.011 652.843 205.343V206.339C652.926 208.664 651.099 210.574 648.689 210.574Z" fill="#DDEEF5"/>
<path d="M653.342 204.846H609.143C606.817 204.846 604.906 202.936 604.906 200.611V199.614C604.906 199.282 605.156 199.033 605.488 199.033H656.914C657.247 199.033 657.496 199.282 657.496 199.614V200.611C657.579 202.936 655.668 204.846 653.342 204.846Z" fill="#DDEEF5"/>
<path d="M657.994 443.985H604.408V441.494C604.408 435.017 609.642 429.703 616.205 429.703H646.197C652.677 429.703 657.994 434.934 657.994 441.494V443.985Z" fill="#DDEEF5"/>
<path d="M666.884 456.938H595.601V454.447C595.601 447.97 600.835 442.656 607.398 442.656H655.169C661.65 442.656 666.967 447.887 666.967 454.447V456.938H666.884Z" fill="#DDEEF5"/>
<path d="M648.523 424.639L648.689 431.78H613.795L613.962 424.639H648.523Z" fill="#DDEEF5"/>
<path d="M662.729 440H209.029V442.657H662.729V440Z" fill="#99D0EE"/>
<path d="M662.729 426.881H209.029V429.538H662.729V426.881Z" fill="#99D0EE"/>
<path d="M368.044 429.121H333.151V428.872L333.317 423.724L340.628 219.625H360.484L367.795 423.724L368.044 428.872V429.121Z" fill="#DDEEF5"/>
<path d="M361.232 219.626H339.881C335.561 219.626 332.071 216.139 332.071 211.821V210.16H369.125V211.821C369.125 216.139 365.553 219.626 361.232 219.626Z" fill="#DDEEF5"/>
<path d="M368.045 210.574H333.068C330.742 210.574 328.831 208.664 328.831 206.339V205.343C328.831 205.011 329.08 204.762 329.413 204.762H371.617C371.95 204.762 372.199 205.011 372.199 205.343V206.339C372.282 208.664 370.371 210.574 368.045 210.574Z" fill="#DDEEF5"/>
<path d="M372.697 204.846H328.499C326.173 204.846 324.262 202.936 324.262 200.611V199.614C324.262 199.282 324.511 199.033 324.843 199.033H376.27C376.602 199.033 376.851 199.282 376.851 199.614V200.611C376.934 202.936 375.024 204.846 372.697 204.846Z" fill="#DDEEF5"/>
<path d="M377.35 443.985H323.763V441.494C323.763 435.017 328.997 429.703 335.561 429.703H365.552C372.033 429.703 377.35 434.934 377.35 441.494V443.985Z" fill="#DDEEF5"/>
<path d="M386.239 456.938H314.957V454.447C314.957 447.97 320.191 442.656 326.754 442.656H374.525C381.005 442.656 386.322 447.887 386.322 454.447V456.938H386.239Z" fill="#DDEEF5"/>
<path d="M367.795 424.639L368.044 431.78H333.151L333.317 424.639H367.795Z" fill="#DDEEF5"/>
<path d="M166.908 48.4922C169.649 48.4922 171.893 50.7341 171.893 53.4743V84.5291V92.3344V105.537C171.893 106.533 170.729 107.114 169.982 106.533L152.535 93.6629C151.372 92.7495 149.876 92.3344 148.381 92.3344H124.703C121.961 92.3344 119.718 90.0924 119.718 87.3523V53.5573C119.718 50.8172 121.961 48.5752 124.703 48.5752H166.908V48.4922Z" fill="#FE9D00"/>
<path d="M153.033 60.9467L139.907 81.5393C139.741 81.7884 139.408 81.9545 139.076 81.9545C138.328 81.9545 137.913 81.1241 138.245 80.5429L151.372 59.9503C151.538 59.7012 151.87 59.5352 152.203 59.5352C152.95 59.5352 153.449 60.3655 153.033 60.9467Z" fill="white"/>
<path d="M152.369 73.8164C150.126 73.8164 148.298 75.6432 148.298 77.8851C148.298 80.127 150.126 81.9538 152.369 81.9538C154.612 81.9538 156.44 80.127 156.44 77.8851C156.523 75.6432 154.695 73.8164 152.369 73.8164ZM152.369 80.4592C150.956 80.4592 149.793 79.2967 149.793 77.8851C149.793 76.4735 150.956 75.311 152.369 75.311C153.781 75.311 154.944 76.4735 154.944 77.8851C154.944 79.2967 153.781 80.4592 152.369 80.4592Z" fill="white"/>
<path d="M138.827 59.5352C136.584 59.5352 134.756 61.3619 134.756 63.6038C134.756 65.8458 136.584 67.6725 138.827 67.6725C141.07 67.6725 142.898 65.8458 142.898 63.6038C142.898 61.3619 141.07 59.5352 138.827 59.5352ZM138.827 66.1779C137.414 66.1779 136.251 65.0154 136.251 63.6038C136.251 62.1923 137.414 61.0298 138.827 61.0298C140.239 61.0298 141.402 62.1923 141.402 63.6038C141.319 65.0154 140.239 66.1779 138.827 66.1779Z" fill="white"/>
<path d="M305.319 473.959V518.881C305.319 520.292 304.156 521.455 302.744 521.455H205.291C203.878 521.455 202.715 520.292 202.715 518.881V473.959C202.715 472.548 203.878 471.385 205.291 471.385H302.661C304.156 471.302 305.319 472.464 305.319 473.959Z" fill="url(#paint0_linear)"/>
<path d="M311.633 473.959V518.881C311.633 520.292 310.47 521.455 309.058 521.455H211.688C210.275 521.455 209.112 520.292 209.112 518.881V473.959C209.112 472.548 210.275 471.385 211.688 471.385H309.058C310.47 471.302 311.633 472.464 311.633 473.959Z" fill="#D4DFFF"/>
<path d="M297.26 471.303H223.319H210.525C209.694 471.303 209.029 471.967 209.029 472.797V477.115V485.585V507.091V515.643V519.961C209.029 520.791 209.694 521.456 210.525 521.456H223.319H297.26H310.055C310.885 521.456 311.55 520.791 311.55 519.961V519.795V507.091V485.585V472.88V472.797C311.55 471.967 310.885 471.303 310.055 471.303H297.26ZM304.987 508.751C302.411 510.08 300.251 512.239 298.922 514.813C298.673 515.311 298.174 515.643 297.593 515.643H223.153C222.571 515.643 222.073 515.311 221.824 514.813C220.494 512.239 218.334 510.08 215.759 508.751C215.26 508.502 214.928 508.004 214.928 507.423V485.336C214.928 484.754 215.26 484.256 215.759 484.007C218.334 482.678 220.494 480.52 221.824 477.945C222.073 477.447 222.571 477.115 223.153 477.115H297.593C298.174 477.115 298.673 477.447 298.922 477.945C300.251 480.52 302.411 482.678 304.987 484.007C305.485 484.256 305.818 484.754 305.818 485.336V507.423C305.818 508.004 305.485 508.502 304.987 508.751Z" fill="#A6BDFF"/>
<path d="M260.373 511.408C268.678 511.408 275.41 504.679 275.41 496.379C275.41 488.078 268.678 481.35 260.373 481.35C252.068 481.35 245.335 488.078 245.335 496.379C245.335 504.679 252.068 511.408 260.373 511.408Z" fill="white"/>
<path d="M260.871 504.517V506.343C260.871 506.676 260.622 506.925 260.29 506.925C259.957 506.925 259.708 506.676 259.708 506.343V504.683C259.708 504.6 259.625 504.517 259.542 504.517C258.213 504.517 257.049 504.268 256.136 503.769C255.886 503.603 255.637 503.354 255.637 503.022C255.637 502.358 256.302 501.943 256.883 502.275C257.049 502.358 257.299 502.441 257.548 502.524C258.296 502.773 258.96 502.939 259.542 502.939C259.625 502.939 259.708 502.856 259.708 502.773V497.044C259.708 496.961 259.708 496.878 259.625 496.878C257.963 496.047 256.883 495.3 256.385 494.636C256.052 494.137 255.803 493.639 255.72 493.141C255.388 491.563 255.969 489.903 257.216 488.823C257.88 488.242 258.711 487.91 259.625 487.744C259.708 487.744 259.791 487.661 259.791 487.578V486.249C259.791 485.917 260.04 485.668 260.373 485.668C260.705 485.668 260.954 485.917 260.954 486.249V487.578C260.954 487.661 261.037 487.744 261.12 487.744C262.2 487.827 262.948 487.91 263.613 488.159C263.945 488.242 264.194 488.574 264.194 488.989C264.194 489.571 263.613 489.986 263.031 489.82C262.45 489.654 261.868 489.488 261.203 489.488C261.12 489.488 261.037 489.571 261.037 489.654V495.549C261.037 495.632 261.037 495.715 261.12 495.715C262.699 496.462 263.779 497.21 264.36 497.957C264.942 498.704 265.274 499.535 265.274 500.448C265.274 501.528 264.859 502.524 264.111 503.271C263.364 504.019 262.367 504.517 261.12 504.683C260.954 504.351 260.871 504.434 260.871 504.517ZM259.625 494.47V489.488C259.625 489.404 259.542 489.321 259.376 489.321C258.794 489.488 258.379 489.737 258.046 490.152C257.631 490.567 257.465 491.148 257.465 491.812C257.465 492.477 257.631 493.058 257.963 493.473C258.213 493.888 258.711 494.22 259.376 494.636C259.542 494.636 259.625 494.553 259.625 494.47ZM260.871 497.708V502.524C260.871 502.607 260.954 502.69 261.12 502.69C262.45 502.358 263.197 501.528 263.197 500.282C263.197 499.286 262.533 498.372 261.203 497.542C261.037 497.459 260.871 497.542 260.871 497.708Z" fill="#A6BDFF"/>
<path d="M294.768 498.288H286.211C285.048 498.288 284.134 497.375 284.134 496.213C284.134 495.05 285.048 494.137 286.211 494.137H294.768C295.931 494.137 296.845 495.05 296.845 496.213C296.845 497.375 295.931 498.288 294.768 498.288Z" fill="#A6BDFF"/>
<path d="M234.369 498.288H225.811C224.648 498.288 223.734 497.375 223.734 496.213C223.734 495.05 224.648 494.137 225.811 494.137H234.369C235.532 494.137 236.446 495.05 236.446 496.213C236.446 497.375 235.532 498.288 234.369 498.288Z" fill="#A6BDFF"/>
<path d="M771.481 514.897C786.76 514.897 799.147 502.517 799.147 487.246C799.147 471.975 786.76 459.596 771.481 459.596C756.202 459.596 743.815 471.975 743.815 487.246C743.815 502.517 756.202 514.897 771.481 514.897Z" fill="#FFB73F"/>
<path d="M776.715 514.233C791.994 514.233 804.381 501.853 804.381 486.582C804.381 471.311 791.994 458.932 776.715 458.932C761.436 458.932 749.049 471.311 749.049 486.582C749.049 501.853 761.436 514.233 776.715 514.233Z" fill="#FFCE7D"/>
<path d="M776.715 510.58C789.976 510.58 800.725 499.836 800.725 486.583C800.725 473.33 789.976 462.586 776.715 462.586C763.455 462.586 752.705 473.33 752.705 486.583C752.705 499.836 763.455 510.58 776.715 510.58Z" stroke="white" stroke-width="2" stroke-miterlimit="10"/>
<path d="M777.546 499.785V502.608C777.546 503.106 777.131 503.605 776.549 503.605C776.051 503.605 775.552 503.189 775.552 502.608V499.951C775.552 499.785 775.469 499.702 775.303 499.702C773.143 499.702 771.315 499.287 769.82 498.54C769.404 498.29 769.072 497.792 769.072 497.294C769.072 496.298 770.069 495.633 770.983 496.048C771.315 496.215 771.647 496.298 771.98 496.464C773.143 496.879 774.223 497.045 775.22 497.128C775.386 497.128 775.469 497.045 775.469 496.879V487.828C775.469 487.745 775.386 487.662 775.303 487.579C772.644 486.25 770.9 485.088 770.152 484.009C769.653 483.261 769.238 482.514 769.072 481.6C768.573 479.109 769.487 476.452 771.481 474.792C772.561 473.878 773.807 473.38 775.22 473.131C775.386 473.131 775.469 472.965 775.469 472.882V470.723C775.469 470.225 775.884 469.727 776.466 469.727C776.964 469.727 777.463 470.142 777.463 470.723V472.799C777.463 472.965 777.546 473.048 777.712 473.048C779.374 473.131 780.703 473.297 781.617 473.629C782.198 473.795 782.531 474.376 782.531 474.958C782.531 475.871 781.617 476.618 780.703 476.286C779.872 475.954 778.875 475.788 777.795 475.705C777.629 475.705 777.546 475.788 777.546 475.954V485.337C777.546 485.42 777.629 485.503 777.712 485.586C780.205 486.749 781.949 487.994 782.863 489.074C783.777 490.236 784.275 491.565 784.275 492.976C784.275 494.72 783.694 496.215 782.531 497.46C781.368 498.623 779.789 499.37 777.795 499.702C777.629 499.536 777.546 499.619 777.546 499.785ZM775.635 483.842V475.954C775.635 475.788 775.469 475.622 775.303 475.705C774.389 475.954 773.724 476.369 773.143 477.034C772.561 477.781 772.229 478.611 772.229 479.608C772.229 480.687 772.478 481.517 772.977 482.265C773.392 482.846 774.14 483.51 775.22 484.092C775.386 484.175 775.635 484.008 775.635 483.842ZM777.546 488.991V496.63C777.546 496.796 777.712 496.962 777.878 496.879C780.038 496.298 781.118 495.052 781.118 493.059C781.118 491.482 780.038 489.987 777.961 488.741C777.795 488.658 777.546 488.741 777.546 488.991Z" fill="white"/>
<path d="M659.074 266.79C668.159 266.79 675.524 259.429 675.524 250.349C675.524 241.269 668.159 233.908 659.074 233.908C649.989 233.908 642.624 241.269 642.624 250.349C642.624 259.429 649.989 266.79 659.074 266.79Z" fill="#FFB73F"/>
<path d="M662.231 266.458C671.316 266.458 678.681 259.097 678.681 250.017C678.681 240.937 671.316 233.576 662.231 233.576C653.146 233.576 645.781 240.937 645.781 250.017C645.781 259.097 653.146 266.458 662.231 266.458Z" fill="#FFCE7D"/>
<path d="M662.231 264.298C670.123 264.298 676.521 257.904 676.521 250.016C676.521 242.129 670.123 235.734 662.231 235.734C654.339 235.734 647.941 242.129 647.941 250.016C647.941 257.904 654.339 264.298 662.231 264.298Z" stroke="white" stroke-width="2" stroke-miterlimit="10"/>
<path d="M662.729 257.822V259.483C662.729 259.815 662.48 260.064 662.148 260.064C661.816 260.064 661.566 259.815 661.566 259.483V257.905C661.566 257.822 661.483 257.739 661.4 257.739C660.154 257.739 659.074 257.49 658.16 257.075C657.911 256.909 657.745 256.66 657.745 256.328C657.745 255.746 658.326 255.331 658.908 255.58C659.074 255.663 659.323 255.746 659.489 255.829C660.154 256.078 660.819 256.161 661.4 256.244C661.483 256.244 661.566 256.161 661.566 256.078V250.681C661.566 250.598 661.566 250.598 661.483 250.515C659.905 249.768 658.908 249.021 658.409 248.356C658.077 247.941 657.911 247.443 657.745 246.945C657.412 245.45 657.994 243.872 659.157 242.876C659.822 242.378 660.569 242.046 661.4 241.88C661.483 241.88 661.566 241.797 661.566 241.713V240.468C661.566 240.136 661.816 239.887 662.148 239.887C662.48 239.887 662.729 240.136 662.729 240.468V241.713C662.729 241.797 662.813 241.88 662.896 241.88C663.893 241.88 664.64 242.046 665.222 242.212C665.554 242.295 665.72 242.627 665.72 242.959C665.72 243.54 665.139 243.955 664.64 243.706C664.142 243.54 663.56 243.374 662.896 243.374C662.813 243.374 662.729 243.457 662.729 243.54V249.104C662.729 249.187 662.729 249.187 662.812 249.27C664.308 250.017 665.305 250.681 665.886 251.345C666.468 252.01 666.717 252.84 666.717 253.67C666.717 254.75 666.385 255.58 665.637 256.328C664.973 256.992 664.059 257.49 662.812 257.656C662.812 257.739 662.729 257.739 662.729 257.822ZM661.566 248.356V243.706C661.566 243.623 661.483 243.54 661.4 243.54C660.902 243.706 660.486 243.955 660.154 244.288C659.822 244.703 659.572 245.201 659.572 245.865C659.572 246.529 659.739 247.028 659.988 247.443C660.237 247.775 660.735 248.19 661.317 248.522C661.4 248.522 661.566 248.439 661.566 248.356ZM662.729 251.428V255.995C662.729 256.078 662.813 256.161 662.896 256.161C664.225 255.829 664.806 255.082 664.806 253.92C664.806 252.923 664.142 252.093 662.896 251.345C662.813 251.262 662.729 251.345 662.729 251.428Z" fill="white"/>
<path d="M118.057 247.444C127.142 247.444 134.507 240.083 134.507 231.003C134.507 221.923 127.142 214.562 118.057 214.562C108.972 214.562 101.607 221.923 101.607 231.003C101.607 240.083 108.972 247.444 118.057 247.444Z" fill="#FFB73F"/>
<path d="M121.214 247.028C130.299 247.028 137.664 239.667 137.664 230.587C137.664 221.507 130.299 214.146 121.214 214.146C112.129 214.146 104.764 221.507 104.764 230.587C104.764 239.667 112.129 247.028 121.214 247.028Z" fill="#FFCE7D"/>
<path d="M121.214 244.869C129.106 244.869 135.503 238.474 135.503 230.587C135.503 222.699 129.106 216.305 121.214 216.305C113.322 216.305 106.924 222.699 106.924 230.587C106.924 238.474 113.322 244.869 121.214 244.869Z" stroke="white" stroke-width="2" stroke-miterlimit="10"/>
<path d="M121.712 238.476V240.137C121.712 240.469 121.463 240.718 121.131 240.718C120.798 240.718 120.549 240.469 120.549 240.137V238.559C120.549 238.476 120.466 238.393 120.383 238.393C119.137 238.393 118.057 238.144 117.143 237.729C116.894 237.563 116.728 237.314 116.728 236.982C116.728 236.401 117.309 235.985 117.891 236.235C118.057 236.318 118.306 236.401 118.472 236.484C119.137 236.733 119.801 236.816 120.383 236.899C120.466 236.899 120.549 236.816 120.549 236.733V231.335C120.549 231.252 120.549 231.252 120.466 231.169C118.888 230.422 117.891 229.675 117.392 229.011C117.06 228.595 116.894 228.097 116.728 227.599C116.395 226.104 116.977 224.527 118.14 223.53C118.805 223.032 119.552 222.7 120.383 222.534C120.466 222.534 120.549 222.451 120.549 222.368V221.122C120.549 220.79 120.798 220.541 121.131 220.541C121.463 220.541 121.712 220.79 121.712 221.122V222.368C121.712 222.451 121.795 222.534 121.878 222.534C122.875 222.534 123.623 222.7 124.205 222.866C124.537 222.949 124.703 223.281 124.703 223.613C124.703 224.195 124.122 224.61 123.623 224.361C123.125 224.195 122.543 224.028 121.878 224.028C121.795 224.028 121.712 224.111 121.712 224.195V229.758C121.712 229.841 121.712 229.841 121.795 229.924C123.291 230.671 124.288 231.335 124.869 232C125.451 232.664 125.7 233.494 125.7 234.325C125.7 235.404 125.368 236.235 124.62 236.982C123.955 237.646 123.042 238.144 121.795 238.31C121.712 238.31 121.712 238.393 121.712 238.476ZM120.549 228.927V224.278C120.549 224.195 120.466 224.111 120.383 224.111C119.885 224.278 119.469 224.527 119.137 224.859C118.804 225.274 118.555 225.772 118.555 226.436C118.555 227.101 118.721 227.599 118.971 228.014C119.22 228.346 119.718 228.761 120.3 229.094C120.383 229.177 120.549 229.094 120.549 228.927ZM121.712 232.083V236.65C121.712 236.733 121.795 236.816 121.878 236.816C123.208 236.484 123.789 235.736 123.789 234.574C123.789 233.577 123.125 232.747 121.878 232C121.795 231.834 121.712 231.917 121.712 232.083Z" fill="white"/>
<path d="M299.088 379.633C307.852 379.633 314.956 372.533 314.956 363.774C314.956 355.015 307.852 347.914 299.088 347.914C290.324 347.914 283.22 355.015 283.22 363.774C283.22 372.533 290.324 379.633 299.088 379.633Z" fill="#65B1DB"/>
<path d="M314.873 414.922H283.303V362.196C283.303 361.697 283.718 361.365 284.134 361.365H313.876C314.375 361.365 314.873 361.78 314.873 362.362V414.922Z" fill="#65B1DB"/>
<path d="M310.803 365.186H287.457V411.104H310.803V365.186Z" fill="#DDEEF5"/>
<path d="M299.088 376.394C305.557 376.394 310.802 371.152 310.802 364.686C310.802 358.22 305.557 352.979 299.088 352.979C292.618 352.979 287.374 358.22 287.374 364.686C287.374 371.152 292.618 376.394 299.088 376.394Z" fill="#DDEEF5"/>
<path d="M581.394 379.633C590.158 379.633 597.262 372.533 597.262 363.774C597.262 355.015 590.158 347.914 581.394 347.914C572.63 347.914 565.526 355.015 565.526 363.774C565.526 372.533 572.63 379.633 581.394 379.633Z" fill="#65B1DB"/>
<path d="M597.179 414.922H565.609V362.196C565.609 361.697 566.024 361.365 566.44 361.365H596.182C596.681 361.365 597.179 361.78 597.179 362.362V414.922Z" fill="#65B1DB"/>
<path d="M593.108 365.186H569.763V411.104H593.108V365.186Z" fill="#DDEEF5"/>
<path d="M581.394 376.394C587.864 376.394 593.108 371.152 593.108 364.686C593.108 358.22 587.864 352.979 581.394 352.979C574.924 352.979 569.68 358.22 569.68 364.686C569.68 371.152 574.924 376.394 581.394 376.394Z" fill="#DDEEF5"/>
<path d="M299.088 265.793C307.852 265.793 314.956 258.693 314.956 249.934C314.956 241.175 307.852 234.074 299.088 234.074C290.324 234.074 283.22 241.175 283.22 249.934C283.22 258.693 290.324 265.793 299.088 265.793Z" fill="#65B1DB"/>
<path d="M314.873 301.083H283.303V248.356C283.303 247.858 283.718 247.525 284.134 247.525H313.876C314.375 247.525 314.873 247.941 314.873 248.522V301.083Z" fill="#65B1DB"/>
<path d="M310.803 251.346H287.457V297.264H310.803V251.346Z" fill="#DDEEF5"/>
<path d="M299.088 262.554C305.557 262.554 310.802 257.313 310.802 250.847C310.802 244.38 305.557 239.139 299.088 239.139C292.618 239.139 287.374 244.38 287.374 250.847C287.374 257.313 292.618 262.554 299.088 262.554Z" fill="#DDEEF5"/>
<path d="M468.239 253.172C468.239 237.645 455.611 225.023 440.075 225.023C424.539 225.023 411.911 237.645 411.911 253.172C411.911 253.338 411.911 253.587 411.911 253.753C411.828 253.836 411.828 254.002 411.828 254.169V301.166H440.075H468.322V254.335C468.322 254.252 468.322 254.252 468.322 254.252C468.239 253.753 468.239 253.504 468.239 253.172Z" fill="#65B1DB"/>
<path d="M416.314 296.6V254.916L416.397 254.667V253.173C416.397 240.136 427.031 229.508 440.075 229.508C453.118 229.508 463.753 240.136 463.753 253.173C463.753 253.339 463.753 253.588 463.753 253.754V254.335V254.584V296.6H416.314Z" fill="#DDEEF5"/>
<path d="M581.394 265.793C590.158 265.793 597.262 258.693 597.262 249.934C597.262 241.175 590.158 234.074 581.394 234.074C572.63 234.074 565.526 241.175 565.526 249.934C565.526 258.693 572.63 265.793 581.394 265.793Z" fill="#65B1DB"/>
<path d="M597.179 301.083H565.609V248.356C565.609 247.858 566.024 247.525 566.44 247.525H596.182C596.681 247.525 597.179 247.941 597.179 248.522V301.083Z" fill="#65B1DB"/>
<path d="M593.108 251.346H569.763V297.264H593.108V251.346Z" fill="#DDEEF5"/>
<path d="M581.394 262.554C587.864 262.554 593.108 257.313 593.108 250.847C593.108 244.38 587.864 239.139 581.394 239.139C574.924 239.139 569.68 244.38 569.68 250.847C569.68 257.313 574.924 262.554 581.394 262.554Z" fill="#DDEEF5"/>
<path d="M899.009 410.938C897.098 411.519 896.434 412.267 895.769 414.176C895.686 414.425 895.27 414.425 895.187 414.176C894.606 412.267 893.858 411.602 891.947 410.938C891.698 410.855 891.698 410.44 891.947 410.357C893.858 409.776 894.523 409.028 895.187 407.118C895.27 406.869 895.686 406.869 895.769 407.118C896.35 409.028 897.098 409.693 899.009 410.357C899.258 410.44 899.258 410.855 899.009 410.938Z" fill="white"/>
<path d="M692.14 553.424L699.867 537.897C700.698 536.236 700.033 534.16 698.371 533.33C695.131 531.669 690.146 529.178 688.402 528.514C685.66 527.434 683.583 534.409 683.583 534.409C683.583 534.409 689.066 535.738 688.9 541.965C688.734 546.449 689.232 550.933 690.146 553.341C690.479 554.172 691.725 554.255 692.14 553.424Z" fill="#394E85"/>
<path d="M709.337 474.044L679.844 484.589C675.773 486.001 671.37 483.925 669.958 479.856L663.893 462.751C662.48 458.682 664.557 454.282 668.628 452.87L698.122 442.325C702.193 440.913 706.596 442.989 708.008 447.058L714.073 464.163C715.485 468.148 713.408 472.549 709.337 474.044Z" fill="#394E85"/>
<path d="M695.048 457.519L680.509 462.75L674.776 446.724C674.112 444.898 675.109 442.905 676.936 442.241L684.829 439.417C686.657 438.753 688.651 439.75 689.315 441.576L695.048 457.519ZM681.672 460.093L692.472 456.273L687.405 442.158C687.155 441.41 686.241 440.995 685.494 441.244L677.601 444.067C676.853 444.316 676.438 445.23 676.687 445.977L681.672 460.093Z" fill="#394E85"/>
<path opacity="0.25" d="M603.245 565.381C529.636 567.623 519.085 590.623 621.605 593.031C724.126 595.439 702.858 562.309 603.245 565.381Z" fill="#A6BDFF"/>
<path d="M564.945 579.496L582.973 575.427C583.97 575.178 584.551 574.265 584.385 573.268C583.721 569.947 582.142 563.055 581.477 560.979C580.564 558.156 573.834 560.979 573.834 560.979C573.834 560.979 576.327 566.044 571.342 569.864C567.935 572.438 564.945 575.51 563.532 577.669C562.951 578.5 563.781 579.745 564.945 579.496Z" fill="#394E85"/>
<path d="M604.657 312.458H601.5C601.5 312.458 597.429 305.566 603.078 299.421C608.728 293.277 621.273 293.111 629.913 298.176C638.554 303.324 644.535 306.064 655.003 304.32C665.388 302.576 676.023 304.901 681.672 314.783C687.322 324.664 685.577 327.487 711.664 330.974C737.751 334.462 738.167 363.607 716.566 367.26C695.048 370.997 681.423 362.361 668.047 348.245C654.671 334.13 643.954 340.025 634.4 336.455C624.845 332.884 618.864 324.248 617.202 319.682C615.54 315.115 604.657 312.458 604.657 312.458Z" fill="#394E85"/>
<path d="M621.605 457.27C621.605 457.27 615.873 463.082 608.977 470.389C599.755 480.187 588.539 492.559 586.794 496.794C583.721 504.101 584.717 562.889 584.717 562.889L571.092 565.463C571.092 565.463 553.479 501.029 558.88 487.66C563.2 476.866 587.293 438.255 596.598 423.475C598.924 419.821 600.253 417.662 600.253 417.662L621.605 457.27Z" fill="url(#paint1_linear)"/>
<path d="M695.048 527.102L685.161 539.806C685.161 539.806 633.651 506.675 624.679 499.368C620.109 495.632 614.377 484.754 609.06 470.389C603.992 456.689 599.339 439.999 596.598 423.392C596.598 423.226 596.515 423.143 596.515 422.977C595.767 418.493 595.102 414.424 594.521 410.688C590.616 385.611 590.201 374.402 596.515 362.611C603.826 348.993 619.694 336.621 624.845 334.628C627.504 333.632 636.061 342.848 633.901 358.127C631.824 373.405 629.414 401.388 630.578 404.46C631.741 407.532 641.627 424.886 643.289 433.356C644.95 441.826 645.366 473.296 648.938 480.852C652.428 488.325 695.048 527.102 695.048 527.102Z" fill="#4D69B2"/>
<path d="M602.663 306.146C599.09 310.547 596.515 320.428 598.426 324.829C600.336 329.23 605.321 329.064 606.734 328.317C608.146 327.652 613.048 344.674 613.048 344.674L626.341 335.458C626.341 335.458 619.777 324.414 619.279 322.255C618.78 320.179 618.032 310.049 614.875 307.475C611.718 304.901 605.487 302.576 602.663 306.146Z" fill="#F5CBCB"/>
<path d="M539.023 355.055L545.171 350.156C545.171 350.156 569.015 370.583 576.576 370.417C584.136 370.251 604.989 346.835 610.057 345.755C615.208 344.676 614.793 367.759 601.417 378.388C588.041 388.933 575.994 392.338 570.345 390.179C564.778 388.02 539.023 355.055 539.023 355.055Z" fill="url(#paint2_linear)"/>
<path d="M541.017 355.138C540.602 354.972 532.876 348.329 531.214 344.426C529.552 340.524 531.214 333.051 531.879 332.469C532.543 331.971 536.033 334.462 537.03 335.708C538.027 336.87 544.839 350.82 544.839 350.82L541.017 355.138Z" fill="#F5CBCB"/>
<path d="M548.162 355.054H537.777C536.78 355.054 535.95 354.307 535.7 353.31L531.796 331.14C531.629 330.144 532.294 329.396 533.208 329.396H543.593C544.59 329.396 545.421 330.144 545.67 331.14L549.575 353.31C549.741 354.307 549.076 355.054 548.162 355.054Z" fill="#394E85"/>
<path d="M548.245 354.14H537.279C537.113 354.14 536.947 353.974 536.863 353.808L532.792 330.725C532.792 330.559 532.876 330.393 533.042 330.393H544.008C544.174 330.393 544.341 330.559 544.424 330.725L548.495 353.808C548.578 353.974 548.412 354.14 548.245 354.14Z" fill="white"/>
<path d="M633.901 358.043C631.824 373.321 629.414 401.304 630.578 404.376C610.472 411.185 594.438 410.604 594.438 410.604C590.533 385.527 590.118 374.318 596.432 362.527C603.743 348.909 619.611 336.537 624.762 334.544C627.421 333.548 635.978 342.765 633.901 358.043Z" fill="#FE9D00"/>
<path d="M682.004 435.682C682.004 435.682 684.746 441.743 683.832 442.989C682.918 444.317 680.259 445.231 678.515 445.065C676.77 444.898 676.604 437.757 676.604 437.757L682.004 435.682Z" fill="#F5CBCB"/>
<path d="M616.703 348.495C616.205 356.217 627.504 367.759 645.2 385.694C662.896 403.547 675.69 439.085 675.69 439.085L683.666 437.259C683.666 437.259 674.776 389.846 666.551 377.474C658.326 365.102 643.455 349.242 634.566 343.181C624.264 336.123 617.285 338.531 616.703 348.495Z" fill="url(#paint3_linear)"/>
<path d="M554.559 285.056C561.075 285.056 566.356 279.777 566.356 273.266C566.356 266.754 561.075 261.475 554.559 261.475C548.044 261.475 542.762 266.754 542.762 273.266C542.762 279.777 548.044 285.056 554.559 285.056Z" fill="#FFB73F"/>
<path d="M556.802 284.808C563.318 284.808 568.6 279.529 568.6 273.017C568.6 266.506 563.318 261.227 556.802 261.227C550.287 261.227 545.005 266.506 545.005 273.017C545.005 279.529 550.287 284.808 556.802 284.808Z" fill="#FFCE7D"/>
<path d="M556.802 283.231C562.446 283.231 567.021 278.659 567.021 273.018C567.021 267.377 562.446 262.805 556.802 262.805C551.159 262.805 546.583 267.377 546.583 273.018C546.583 278.659 551.159 283.231 556.802 283.231Z" stroke="white" stroke-width="2" stroke-miterlimit="10"/>
<path d="M557.218 278.663V279.909C557.218 280.158 557.051 280.324 556.802 280.324C556.553 280.324 556.387 280.158 556.387 279.909V278.746C556.387 278.663 556.304 278.663 556.304 278.663C555.39 278.663 554.642 278.497 553.977 278.165C553.811 278.082 553.645 277.833 553.645 277.667C553.645 277.252 554.06 277.003 554.476 277.169C554.642 277.252 554.725 277.252 554.891 277.335C555.39 277.501 555.805 277.584 556.221 277.584C556.304 277.584 556.304 277.501 556.304 277.501V273.598C556.304 273.515 556.304 273.515 556.221 273.515C555.057 272.934 554.393 272.436 554.06 272.021C553.811 271.688 553.645 271.356 553.645 271.024C553.396 269.945 553.811 268.782 554.642 268.118C555.057 267.786 555.639 267.537 556.221 267.371C556.304 267.371 556.304 267.288 556.304 267.288V266.374C556.304 266.125 556.47 265.959 556.719 265.959C556.968 265.959 557.134 266.125 557.134 266.374V267.204C557.134 267.288 557.218 267.288 557.218 267.288C557.965 267.288 558.464 267.371 558.879 267.537C559.128 267.62 559.295 267.869 559.295 268.118C559.295 268.533 558.879 268.782 558.547 268.699C558.215 268.533 557.799 268.45 557.301 268.45C557.218 268.45 557.218 268.533 557.218 268.533V272.519C557.218 272.602 557.218 272.602 557.301 272.602C558.381 273.1 559.128 273.598 559.461 274.096C559.876 274.595 560.042 275.176 560.042 275.757C560.042 276.504 559.793 277.169 559.295 277.667C558.796 278.165 558.131 278.497 557.301 278.663C557.218 278.497 557.218 278.58 557.218 278.663ZM556.387 271.854V268.533C556.387 268.45 556.304 268.367 556.221 268.45C555.805 268.533 555.556 268.699 555.307 269.031C555.057 269.363 554.891 269.696 554.891 270.111C554.891 270.526 554.974 270.941 555.224 271.19C555.39 271.439 555.722 271.688 556.138 271.937C556.221 272.021 556.387 271.937 556.387 271.854ZM557.218 274.013V277.252C557.218 277.335 557.301 277.418 557.384 277.335C558.298 277.086 558.796 276.587 558.796 275.757C558.796 275.093 558.381 274.428 557.467 273.93C557.301 273.93 557.218 273.93 557.218 274.013Z" fill="white"/>
<path d="M259.21 317.855C265.725 317.855 271.007 312.576 271.007 306.064C271.007 299.552 265.725 294.273 259.21 294.273C252.694 294.273 247.413 299.552 247.413 306.064C247.413 312.576 252.694 317.855 259.21 317.855Z" fill="#FFB73F"/>
<path d="M261.453 317.607C267.969 317.607 273.25 312.328 273.25 305.816C273.25 299.304 267.969 294.025 261.453 294.025C254.938 294.025 249.656 299.304 249.656 305.816C249.656 312.328 254.938 317.607 261.453 317.607Z" fill="#FFCE7D"/>
<path d="M261.453 316.03C267.097 316.03 271.672 311.457 271.672 305.817C271.672 300.176 267.097 295.604 261.453 295.604C255.81 295.604 251.234 300.176 251.234 305.817C251.234 311.457 255.81 316.03 261.453 316.03Z" stroke="white" stroke-width="2" stroke-miterlimit="10"/>
<path d="M261.785 311.38V312.626C261.785 312.875 261.619 313.041 261.37 313.041C261.121 313.041 260.955 312.875 260.955 312.626V311.463C260.955 311.38 260.872 311.38 260.872 311.38C259.958 311.38 259.21 311.214 258.545 310.882C258.379 310.799 258.213 310.55 258.213 310.384C258.213 309.968 258.628 309.719 259.044 309.885C259.21 309.968 259.293 309.968 259.459 310.051C259.958 310.218 260.373 310.301 260.788 310.301C260.872 310.301 260.872 310.218 260.872 310.218V306.315C260.872 306.232 260.872 306.232 260.788 306.232C259.625 305.651 258.961 305.152 258.628 304.737C258.379 304.405 258.213 304.073 258.213 303.741C257.964 302.661 258.379 301.499 259.21 300.835C259.625 300.503 260.207 300.253 260.788 300.087C260.872 300.087 260.872 300.004 260.872 300.004V299.091C260.872 298.842 261.038 298.676 261.287 298.676C261.536 298.676 261.702 298.842 261.702 299.091V299.921C261.702 300.004 261.785 300.004 261.785 300.004C262.533 300.004 263.032 300.087 263.447 300.253C263.696 300.336 263.862 300.586 263.862 300.835C263.862 301.25 263.447 301.499 263.115 301.416C262.782 301.25 262.367 301.167 261.868 301.167C261.785 301.167 261.785 301.25 261.785 301.25V305.235C261.785 305.319 261.785 305.319 261.868 305.319C262.949 305.817 263.696 306.315 264.029 306.813C264.444 307.311 264.61 307.893 264.61 308.474C264.61 309.221 264.361 309.885 263.862 310.384C263.364 310.882 262.699 311.214 261.868 311.38C261.868 311.297 261.785 311.38 261.785 311.38ZM260.955 304.654V301.333C260.955 301.25 260.872 301.167 260.788 301.25C260.373 301.333 260.124 301.499 259.875 301.831C259.625 302.163 259.459 302.495 259.459 302.911C259.459 303.326 259.542 303.741 259.791 303.99C259.958 304.239 260.29 304.488 260.705 304.737C260.872 304.737 260.955 304.737 260.955 304.654ZM261.785 306.813V310.051C261.785 310.135 261.868 310.218 261.952 310.135C262.865 309.885 263.364 309.387 263.364 308.557C263.364 307.893 262.949 307.228 262.035 306.73C261.952 306.647 261.785 306.73 261.785 306.813Z" fill="white"/>
<path d="M883.639 480.438C883.639 499.702 868.02 515.313 848.746 515.313C834.622 515.313 822.492 506.926 817.009 494.969C815.015 490.568 813.852 485.586 813.852 480.438C813.852 475.871 814.766 471.47 816.344 467.485C817.757 464.08 819.585 460.925 821.911 458.102L840.105 429.787H857.469L870.596 450.297L873.753 455.279L875.497 458.019C880.565 464.163 883.639 471.886 883.639 480.438Z" fill="url(#paint4_linear)"/>
<path d="M877.741 471.469C877.741 490.733 862.122 506.344 842.847 506.344C832.628 506.344 823.406 501.943 817.009 494.885C815.015 490.484 813.852 485.502 813.852 480.354C813.852 475.787 814.766 471.386 816.344 467.401C817.757 463.996 819.585 460.841 821.911 458.018L840.105 429.703H857.303L869.765 449.133C870.097 449.548 870.347 449.88 870.679 450.296C871.842 451.873 872.922 453.534 873.836 455.278C876.328 460.177 877.741 465.657 877.741 471.469Z" fill="#A6BDFF"/>
<path d="M857.635 408.53C855.641 408.862 854.229 410.356 853.232 409.194C851.736 407.533 848.662 406.454 846.004 408.613C843.345 410.771 843.345 408.696 840.188 408.363C838.194 408.197 835.702 409.028 834.954 409.858C834.871 409.941 834.871 410.107 834.871 410.19L839.856 430.783H857.635L862.62 410.19C862.786 409.111 859.795 408.114 857.635 408.53Z" fill="#A6BDFF"/>
<path d="M857.801 430.7H839.773C839.358 430.7 839.025 430.368 839.025 429.952C839.025 429.537 839.358 429.205 839.773 429.205H857.801C858.217 429.205 858.549 429.537 858.549 429.952C858.549 430.368 858.217 430.7 857.801 430.7Z" fill="#FFB73F"/>
<path d="M856.805 429.787H855.642V453.12H856.805V429.787Z" fill="#FFB73F"/>
<path d="M856.223 454.946C857.232 454.946 858.051 454.129 858.051 453.12C858.051 452.111 857.232 451.293 856.223 451.293C855.213 451.293 854.395 452.111 854.395 453.12C854.395 454.129 855.213 454.946 856.223 454.946Z" fill="#FFB73F"/>
<path d="M848.746 488.823C857.739 488.823 865.029 481.536 865.029 472.548C865.029 463.56 857.739 456.273 848.746 456.273C839.752 456.273 832.462 463.56 832.462 472.548C832.462 481.536 839.752 488.823 848.746 488.823Z" fill="white"/>
<path d="M849.327 481.351V483.261C849.327 483.593 848.995 483.925 848.663 483.925C848.331 483.925 847.998 483.593 847.998 483.261V481.434C847.998 481.351 847.915 481.268 847.832 481.268C846.337 481.268 845.09 481.019 844.094 480.438C843.761 480.272 843.595 479.94 843.595 479.608C843.595 478.943 844.26 478.445 844.924 478.777C845.174 478.86 845.34 478.943 845.589 479.026C846.337 479.276 847.084 479.442 847.749 479.442C847.832 479.442 847.915 479.359 847.915 479.276V473.048C847.915 472.965 847.832 472.882 847.832 472.882C846.004 471.968 844.841 471.221 844.343 470.474C844.01 469.976 843.761 469.394 843.595 468.813C843.263 467.069 843.844 465.326 845.257 464.163C846.004 463.582 846.835 463.167 847.832 463.001C847.915 463.001 847.998 462.918 847.998 462.835V461.34C847.998 461.008 848.331 460.676 848.663 460.676C848.995 460.676 849.327 461.008 849.327 461.34V462.752C849.327 462.835 849.411 462.918 849.494 462.918C850.657 463.001 851.488 463.084 852.152 463.333C852.484 463.499 852.734 463.831 852.734 464.246C852.734 464.911 852.069 465.326 851.488 465.16C850.906 464.911 850.241 464.828 849.494 464.744C849.411 464.744 849.327 464.828 849.327 464.911V471.304C849.327 471.387 849.411 471.47 849.411 471.47C851.155 472.301 852.318 473.048 852.9 473.878C853.565 474.626 853.897 475.539 853.897 476.535C853.897 477.698 853.482 478.777 852.651 479.525C851.903 480.272 850.823 480.853 849.411 481.102C849.411 481.185 849.327 481.185 849.327 481.351ZM848.081 470.474V465.077C848.081 464.994 847.998 464.828 847.832 464.911C847.251 465.077 846.752 465.409 846.337 465.824C845.921 466.322 845.755 466.903 845.755 467.568C845.755 468.315 845.921 468.896 846.254 469.394C846.586 469.81 847.084 470.225 847.749 470.64C847.915 470.64 848.081 470.557 848.081 470.474ZM849.327 473.961V479.109C849.327 479.192 849.411 479.359 849.577 479.276C851.072 478.86 851.82 478.03 851.82 476.701C851.82 475.622 851.072 474.626 849.66 473.795C849.494 473.712 849.327 473.795 849.327 473.961Z" fill="#A6BDFF"/>
<path d="M651.514 219.627H236.197V222.284H651.514V219.627Z" fill="#99D0EE"/>
<path d="M651.514 210.576H227.972V213.233H651.514V210.576Z" fill="#99D0EE"/>
<path d="M476.381 456.938H403.769V380.796C403.769 360.785 420.053 344.51 440.075 344.51C460.097 344.51 476.381 360.785 476.381 380.796V456.938Z" fill="#65B1DB"/>
<path d="M342.788 292.116C339.548 292.282 333.317 294.939 331.739 301.333C330.16 307.726 337.222 322.506 338.967 318.023C340.628 313.539 355.001 309.553 357.992 306.813C360.983 304.073 361.149 301.914 361.149 301.914C361.149 301.914 366.134 299.838 367.546 294.275C368.958 288.794 363.143 281.986 356.081 283.729C348.936 285.556 350.681 291.784 342.788 292.116Z" fill="#394E85"/>
<path d="M335.976 331.143C335.976 331.143 339.465 316.529 339.548 314.951C339.631 313.373 336.973 312.792 336.806 309.305C336.64 305.817 339.88 307.395 341.043 308.474C342.207 309.637 343.037 304.572 343.12 302.247C343.204 299.922 347.108 300.171 351.013 301.001C354.918 301.915 360.401 302.164 361.149 301.915C361.897 301.665 361.98 306.731 360.816 313.207C359.653 319.684 354.835 324.251 352.758 324.251C350.681 324.168 354.585 337.619 354.585 337.619L341.043 337.121L335.976 331.143Z" fill="#F5CBCB"/>
<path d="M421.714 345.257C421.714 345.257 413.157 357.878 405.43 368.092C400.612 374.402 396.125 379.8 394.132 380.713C388.898 383.121 377.266 380.713 363.807 371.496C350.348 362.279 348.521 340.358 353.422 341.022C358.407 341.687 379.676 362.611 386.904 362.279C388.648 362.196 391.224 360.868 394.215 358.958C403.27 352.979 415.483 340.939 415.483 340.939L421.714 345.257Z" fill="#FFB73F"/>
<path d="M421.714 345.257C421.714 345.257 413.157 357.878 405.431 368.092C401.775 366.348 397.372 362.778 394.298 358.958C403.354 352.979 415.566 340.939 415.566 340.939L421.714 345.257Z" fill="#F5CBCB"/>
<path d="M412.991 345.923L422.877 345.259C423.791 345.176 424.622 344.429 424.705 343.515L426.948 322.175C427.031 321.262 426.367 320.598 425.453 320.598L415.566 321.262C414.652 321.345 413.822 322.092 413.738 323.006L411.495 344.346C411.412 345.259 412.077 345.923 412.991 345.923Z" fill="#394E85"/>
<path d="M412.825 345.009L423.21 344.262C423.376 344.262 423.542 344.096 423.542 343.93L425.868 321.76C425.868 321.594 425.785 321.428 425.619 321.428L415.234 322.175C415.068 322.175 414.902 322.341 414.902 322.507L412.575 344.677C412.492 344.843 412.658 345.009 412.825 345.009Z" fill="white"/>
<path opacity="0.25" d="M311.716 597.765C239.52 600.007 229.218 622.51 329.745 624.835C430.188 627.16 409.335 594.776 311.716 597.765Z" fill="#A6BDFF"/>
<path d="M284.964 570.531L276.823 578.503C275.909 579.416 275.909 580.827 276.823 581.741L291.362 596.604C292.109 597.434 293.522 596.936 293.605 595.774C293.688 594.113 293.439 591.705 291.86 588.882C288.703 583.402 289.035 580.246 291.86 577.506C294.685 574.683 284.964 570.531 284.964 570.531Z" fill="#394E85"/>
<path d="M350.847 596.851L350.515 608.227C350.515 609.472 351.512 610.552 352.758 610.635L373.528 611.299C374.691 611.299 375.273 610.053 374.608 609.14C373.528 607.895 371.7 606.317 368.626 605.404C362.644 603.66 360.65 601.169 360.734 597.1C360.817 593.114 350.847 596.851 350.847 596.851Z" fill="#394E85"/>
<path d="M336.806 469.062C336.806 469.062 332.569 491.648 325.923 502.774C319.277 513.901 281.392 570.697 281.392 570.697L293.273 579.664L353.173 522.121L336.806 469.062Z" fill="url(#paint5_linear)"/>
<path d="M342.872 406.953C342.872 406.953 325.591 429.787 332.902 467.153C340.213 504.518 344.284 514.482 345.032 522.703C345.779 530.923 347.69 596.935 347.69 596.935H363.974C363.974 596.935 373.944 530.674 374.94 519.049C375.854 507.424 375.605 423.394 372.033 410.191C368.377 396.989 342.872 406.953 342.872 406.953Z" fill="#4D69B2"/>
<path d="M336.557 330.395C333.982 333.633 325.175 347.334 326.006 356.966C326.837 366.598 336.059 419.407 336.059 419.407C336.059 419.407 366.051 421.732 373.777 418.909C373.777 418.909 375.605 380.132 372.448 364.937C369.291 349.742 358.491 340.525 355.25 338.034C351.927 335.626 336.557 330.395 336.557 330.395Z" fill="url(#paint6_linear)"/>
<path d="M405.431 491.812L367.546 505.264C363.475 506.675 359.072 504.6 357.66 500.531L349.435 477.447C348.022 473.379 350.099 468.978 354.17 467.566L392.055 454.032C396.126 452.62 400.529 454.696 401.941 458.765L410.166 481.848C411.579 485.917 409.502 490.401 405.431 491.812Z" fill="#394E85"/>
<path d="M387.07 472.632L369.706 478.776L362.894 459.679C362.146 457.52 363.226 455.112 365.469 454.281L374.857 450.96C377.017 450.213 379.427 451.292 380.257 453.534L387.07 472.632ZM371.202 475.787L383.996 471.22L378.014 454.364C377.682 453.451 376.685 452.953 375.688 453.285L366.3 456.606C365.386 456.938 364.888 457.935 365.22 458.931L371.202 475.787Z" fill="#394E85"/>
<path d="M343.951 419.158C343.951 419.158 362.893 446.974 364.804 450.711C366.715 454.447 366.383 457.52 368.377 457.52C370.288 457.52 373.694 455.942 374.691 454.945C375.688 453.949 372.614 449.133 371.617 447.306C370.62 445.563 359.404 411.934 359.404 411.934L343.951 419.158Z" fill="#F5CBCB"/>
<path d="M343.785 421.982C351.096 417.249 359.82 414.924 361.481 414.01C363.143 413.014 360.983 410.855 357.826 405.541C354.669 400.227 351.013 351.651 347.108 345.341C343.204 339.03 329.163 337.37 326.255 354.059C323.347 370.832 333.317 401.389 337.222 407.949C341.127 414.508 341.21 423.725 343.785 421.982Z" fill="url(#paint7_linear)"/>
<defs>
<linearGradient id="paint0_linear" x1="56.9105" y1="495.506" x2="320.894" y2="496.692" gradientUnits="userSpaceOnUse">
<stop stop-color="#394E85"/>
<stop offset="1" stop-color="#A6BDFF"/>
</linearGradient>
<linearGradient id="paint1_linear" x1="646.082" y1="505.714" x2="518.373" y2="475.555" gradientUnits="userSpaceOnUse">
<stop stop-color="#394E85"/>
<stop offset="1" stop-color="#4D69B2"/>
</linearGradient>
<linearGradient id="paint2_linear" x1="672.46" y1="390.448" x2="518.624" y2="348.084" gradientUnits="userSpaceOnUse">
<stop stop-color="#FE9D00"/>
<stop offset="1" stop-color="#FFD592"/>
</linearGradient>
<linearGradient id="paint3_linear" x1="724.624" y1="243.383" x2="649.703" y2="392.524" gradientUnits="userSpaceOnUse">
<stop stop-color="#E78F00"/>
<stop offset="1" stop-color="#FFBA4B"/>
</linearGradient>
<linearGradient id="paint4_linear" x1="1010.18" y1="592.305" x2="843.723" y2="469.784" gradientUnits="userSpaceOnUse">
<stop stop-color="#394E85"/>
<stop offset="1" stop-color="#A6BDFF"/>
</linearGradient>
<linearGradient id="paint5_linear" x1="374.414" y1="524.43" x2="301.076" y2="524.43" gradientUnits="userSpaceOnUse">
<stop stop-color="#394E85"/>
<stop offset="1" stop-color="#4D69B2"/>
</linearGradient>
<linearGradient id="paint6_linear" x1="349.45" y1="375.619" x2="406.638" y2="378.666" gradientUnits="userSpaceOnUse">
<stop stop-color="#FFB73F"/>
<stop offset="1" stop-color="white"/>
</linearGradient>
<linearGradient id="paint7_linear" x1="311.051" y1="375.144" x2="449.623" y2="404.299" gradientUnits="userSpaceOnUse">
<stop stop-color="#FFB73F"/>
<stop offset="1" stop-color="white"/>
</linearGradient>
</defs>
</svg>
