<svg width="405" height="407" viewBox="0 0 405 407" fill="none" xmlns="http://www.w3.org/2000/svg">
<g clip-path="url(#clip0)">
<path d="M380.068 277.473C339.887 370.371 233.8 410.274 150.69 403.472C127.992 401.621 82.3308 397.874 46.6893 364.538C-21.773 300.51 -11.2392 166.65 54.3142 87.8567C62.7324 77.6898 121.16 9.70949 212.203 10.6204C278.859 11.2815 325.651 48.526 331.337 53.1687C338.521 59.0308 354.373 72.9589 368.668 95.0558C402.223 146.948 405.176 219.424 380.068 277.473Z" fill="url(#paint0_linear)"/>
<path d="M352.918 73.8551C355.386 69.9324 361.469 72.1509 360.852 76.7348C357.678 100.404 353.903 141.718 361.351 168.722C372.296 208.42 391.968 325.207 281.003 354.782C280.989 354.782 291.567 171.19 352.918 73.8551Z" fill="#91B3FA"/>
<path d="M343.545 122.926C343.545 122.926 343.442 123.147 343.266 123.573C343.09 123.999 342.84 124.645 342.561 125.498C341.973 127.187 341.238 129.729 340.504 132.991C339.769 136.252 339.049 140.263 338.535 144.891C338.021 149.519 337.639 154.764 337.624 160.494C337.536 163.359 337.713 166.342 337.742 169.427C337.801 170.97 337.918 172.542 338.006 174.128C338.05 174.922 338.095 175.73 338.139 176.538C338.197 177.346 338.285 178.154 338.359 178.977C338.521 180.608 338.667 182.268 338.829 183.943C338.917 184.736 339.035 185.618 339.138 186.47C339.24 187.322 339.329 188.189 339.461 189.026C339.916 192.405 340.475 195.917 341.077 199.472C341.665 203.028 342.296 206.642 342.884 210.33C343.163 212.181 343.457 214.032 343.721 215.898C343.854 216.838 343.986 217.779 344.118 218.704C344.236 219.644 344.353 220.599 344.485 221.54C344.75 223.435 344.926 225.345 345.146 227.255C345.352 229.165 345.484 231.104 345.661 233.029C345.763 234.968 345.896 236.908 345.954 238.862L346.013 241.785L346.043 243.255L346.028 244.724C345.984 252.54 345.308 260.386 343.839 267.967C342.355 275.548 340.122 282.835 337.316 289.623C336.963 290.475 336.625 291.312 336.273 292.165C335.876 292.987 335.494 293.795 335.097 294.618C334.319 296.234 333.584 297.865 332.703 299.393C331.851 300.936 331.043 302.478 330.176 303.962C329.28 305.431 328.383 306.871 327.502 308.296C323.858 313.923 320.053 318.992 316.248 323.4C315.308 324.502 314.382 325.589 313.472 326.647C312.517 327.661 311.576 328.645 310.666 329.615C309.755 330.57 308.873 331.51 308.006 332.421C307.11 333.288 306.229 334.14 305.377 334.963C302.042 338.298 298.883 340.942 296.356 343.175C295.107 344.321 293.888 345.218 292.874 346.04C291.846 346.863 290.979 347.554 290.274 348.127C288.863 349.258 288.114 349.86 288.114 349.86C288.011 349.948 287.85 349.934 287.761 349.816C287.673 349.713 287.688 349.566 287.791 349.478H287.806C287.806 349.478 288.511 348.832 289.848 347.612C290.509 346.995 291.332 346.246 292.301 345.365C292.786 344.924 293.3 344.454 293.858 343.939C294.138 343.69 294.431 343.425 294.711 343.161C294.99 342.882 295.284 342.588 295.592 342.294C296.797 341.119 298.119 339.811 299.559 338.386C299.926 338.033 300.293 337.666 300.661 337.299C301.028 336.931 301.395 336.52 301.762 336.123C302.512 335.33 303.29 334.507 304.084 333.655C304.877 332.803 305.714 331.921 306.567 331.025C307.375 330.085 308.212 329.115 309.064 328.131C309.916 327.146 310.798 326.118 311.694 325.089C312.546 324.017 313.413 322.915 314.309 321.784C314.75 321.225 315.205 320.652 315.661 320.079C315.881 319.8 316.116 319.506 316.351 319.213C316.571 318.919 316.777 318.61 316.998 318.302C317.864 317.097 318.746 315.863 319.642 314.599C320.568 313.365 321.376 312.028 322.242 310.691C322.668 310.03 323.109 309.354 323.55 308.678C323.77 308.34 323.991 308.003 324.211 307.665C324.417 307.312 324.622 306.959 324.828 306.607C325.651 305.196 326.474 303.757 327.326 302.302C328.134 300.833 328.868 299.305 329.662 297.792C330.484 296.278 331.145 294.677 331.865 293.09C332.218 292.297 332.585 291.489 332.938 290.681C333.261 289.858 333.584 289.035 333.907 288.212C336.523 281.601 338.565 274.534 339.887 267.203C341.224 259.871 341.87 252.305 341.855 244.709C341.855 237.113 341.268 229.518 340.372 222.039C340.254 221.099 340.151 220.173 340.034 219.248C339.902 218.322 339.784 217.397 339.652 216.471C339.402 214.62 339.123 212.783 338.858 210.947C338.315 207.274 337.771 203.645 337.242 200.075C336.713 196.49 336.214 192.964 335.803 189.452C335.597 187.689 335.435 186.029 335.288 184.281C335.186 182.576 335.068 180.887 334.965 179.212C334.921 178.374 334.848 177.552 334.818 176.729C334.789 175.906 334.774 175.083 334.76 174.275C334.715 172.659 334.657 171.058 334.642 169.486C334.686 166.342 334.686 163.3 334.877 160.391C334.921 159.657 334.951 158.937 334.995 158.232C335.009 157.879 335.039 157.526 335.053 157.174C335.083 156.821 335.112 156.468 335.142 156.131C335.274 154.735 335.391 153.383 335.509 152.061C335.641 150.739 335.847 149.46 336.008 148.212C336.096 147.594 336.185 146.977 336.258 146.375C336.361 145.773 336.464 145.185 336.567 144.597C336.787 143.437 336.934 142.305 337.184 141.218C337.419 140.131 337.639 139.088 337.845 138.089C338.344 136.105 338.785 134.269 339.299 132.653C340.254 129.391 341.224 126.893 341.944 125.233C342.296 124.396 342.605 123.764 342.81 123.338C343.016 122.912 343.134 122.706 343.134 122.706C343.207 122.589 343.354 122.544 343.472 122.618C343.56 122.662 343.604 122.809 343.545 122.926Z" fill="#BDD0FB"/>
<path d="M298.898 354.049C298.898 354.049 348.731 371.298 385.974 316.775C420.955 265.559 399.931 201.516 384.505 164.933C383.697 163.023 380.906 163.375 380.597 165.432C375.969 196.241 354.432 316.687 296.239 353.961L298.898 354.049Z" fill="#BDD0FB"/>
<path d="M304.099 354.74C304.099 354.74 304.246 354.71 304.525 354.651C304.804 354.593 305.215 354.505 305.759 354.372C306.831 354.108 308.418 353.711 310.387 353.079C311.386 352.8 312.458 352.404 313.648 352.022C314.824 351.581 316.087 351.14 317.424 350.582C320.098 349.524 323.051 348.158 326.195 346.512C329.339 344.896 332.63 342.898 335.994 340.665C337.64 339.489 339.358 338.314 341.019 336.992C341.445 336.668 341.856 336.345 342.282 336.007L342.914 335.508L343.531 334.979C344.354 334.274 345.176 333.568 346.014 332.848C349.275 329.881 352.522 326.678 355.49 323.137C355.872 322.696 356.239 322.255 356.621 321.815L357.179 321.153L357.708 320.463C358.413 319.537 359.118 318.612 359.824 317.671C360.558 316.761 361.19 315.762 361.836 314.792L363.805 311.868L365.612 308.842L366.508 307.328C366.655 307.079 366.817 306.829 366.949 306.564L367.346 305.786C367.889 304.742 368.418 303.714 368.962 302.671C369.226 302.157 369.491 301.642 369.77 301.128C370.005 300.599 370.24 300.07 370.475 299.541C370.945 298.484 371.415 297.426 371.885 296.383C372.106 295.854 372.37 295.34 372.576 294.811C372.782 294.282 372.973 293.738 373.178 293.209C373.575 292.151 373.986 291.094 374.383 290.05C374.574 289.521 374.794 289.007 374.971 288.493C375.147 287.964 375.308 287.435 375.47 286.906C375.808 285.848 376.146 284.82 376.469 283.777C376.792 282.748 377.16 281.735 377.395 280.692C377.938 278.635 378.482 276.622 378.996 274.668C379.451 272.699 379.819 270.76 380.23 268.894C380.421 267.953 380.656 267.043 380.803 266.146C380.95 265.235 381.097 264.339 381.244 263.472C381.523 261.724 381.802 260.049 382.081 258.448C382.302 256.846 382.463 255.318 382.625 253.878C382.801 252.439 382.977 251.102 383.124 249.868C383.271 248.619 383.315 247.473 383.418 246.444C383.594 244.373 383.727 242.742 383.844 241.64C383.947 240.523 384.006 239.936 384.006 239.936V239.921C384.021 239.789 384.138 239.686 384.27 239.701C384.403 239.715 384.491 239.818 384.491 239.95C384.491 239.95 384.505 240.553 384.52 241.669C384.535 242.786 384.549 244.431 384.564 246.518C384.564 247.561 384.593 248.722 384.535 249.985C384.461 251.249 384.403 252.6 384.314 254.055C384.226 255.509 384.153 257.067 384.021 258.697C383.844 260.328 383.639 262.033 383.418 263.81C383.315 264.707 383.198 265.617 383.095 266.543C382.977 267.469 382.786 268.409 382.625 269.364C382.272 271.274 381.934 273.243 381.523 275.27C381.038 277.283 380.539 279.34 380.024 281.441C379.789 282.499 379.437 283.542 379.114 284.6C378.79 285.657 378.452 286.73 378.115 287.802C377.953 288.346 377.777 288.875 377.615 289.419C377.424 289.962 377.218 290.491 377.027 291.02C376.616 292.093 376.205 293.165 375.793 294.252C375.588 294.796 375.382 295.34 375.162 295.883C374.956 296.427 374.691 296.956 374.456 297.485C373.972 298.557 373.487 299.63 373.002 300.717C372.752 301.26 372.517 301.804 372.267 302.333C371.988 302.862 371.709 303.391 371.43 303.92C370.872 304.978 370.313 306.035 369.755 307.108L369.344 307.901C369.197 308.166 369.035 308.415 368.888 308.68L367.963 310.223L366.097 313.323L364.04 316.29C363.35 317.275 362.689 318.289 361.925 319.214C361.19 320.154 360.455 321.109 359.706 322.05L359.148 322.755L358.56 323.431C358.164 323.872 357.782 324.327 357.385 324.768C354.314 328.382 350.891 331.585 347.498 334.553C346.631 335.273 345.764 335.978 344.897 336.683L344.251 337.212L343.59 337.697C343.149 338.02 342.708 338.343 342.267 338.666C340.548 340.003 338.756 341.135 337.037 342.281C336.17 342.839 335.289 343.353 334.422 343.867C333.996 344.132 333.57 344.382 333.144 344.631C332.718 344.881 332.277 345.102 331.851 345.337C330.999 345.792 330.162 346.248 329.339 346.703C328.501 347.114 327.679 347.511 326.856 347.908C323.594 349.436 320.553 350.699 317.791 351.654C316.425 352.168 315.117 352.55 313.913 352.947C312.693 353.285 311.592 353.638 310.578 353.887C308.55 354.416 306.934 354.725 305.832 354.931C305.274 355.033 304.848 355.092 304.569 355.136C304.275 355.18 304.128 355.195 304.128 355.195C303.996 355.21 303.864 355.122 303.849 354.989C303.879 354.887 303.967 354.769 304.099 354.74Z" fill="url(#paint1_linear)"/>
<path d="M85.7835 45.0154L299.045 48.6444C310.813 48.85 320.362 58.2383 320.759 69.9919L331.234 379.466C331.543 388.663 324.182 396.303 314.97 396.318L70.4602 396.597C61.807 396.612 54.8285 389.515 54.9754 380.862L60.279 69.6687C60.5141 55.8141 71.9441 44.7803 85.7835 45.0154Z" fill="url(#paint2_linear)"/>
<path d="M106.292 391.867H106.278L78.9369 391.045C69.8429 390.766 62.5706 383.14 62.7175 374.046L63.4227 332.747C63.4227 332.482 63.6431 332.262 63.9222 332.262C63.9222 332.262 63.9222 332.262 63.9369 332.262C64.2161 332.262 64.4364 332.497 64.4217 332.761L63.7165 374.061C63.5696 382.626 70.4159 389.796 78.9663 390.046L106.307 390.868C106.586 390.883 106.792 391.103 106.792 391.383C106.777 391.647 106.557 391.867 106.292 391.867Z" fill="#43AF66"/>
<path d="M64.1284 320.463C63.8493 320.463 63.6289 320.228 63.6289 319.963L63.7464 313.279C63.7464 312.999 63.9962 312.779 64.2459 312.794C64.5251 312.794 64.7455 313.029 64.7308 313.293L64.6132 319.978C64.6279 320.257 64.4076 320.463 64.1284 320.463Z" fill="#43AF66"/>
<path d="M86.4887 42.5187C115.548 46.9704 215.48 60.8838 298.399 55.9473C302.174 55.7269 305.406 58.6359 305.539 62.4265L316.748 373.296C316.895 377.557 313.59 381.142 309.329 381.318C274.466 382.787 130.916 388.312 79.8481 382.082C76.7335 381.7 74.4269 379.041 74.4563 375.911L78.0998 49.659C78.1439 45.222 82.1106 41.8576 86.4887 42.5187Z" fill="#43AF66"/>
<path d="M89.4707 50.6279C117.429 54.9033 213.614 68.3025 293.388 63.5423C297.032 63.3219 300.132 66.1281 300.264 69.7717L311.062 368.932C311.209 373.031 308.021 376.484 303.922 376.66C270.382 378.07 132.223 383.389 83.0946 377.394C80.0975 377.027 77.8791 374.471 77.9085 371.459L81.4051 57.4891C81.4491 53.2284 85.2542 49.9962 89.4707 50.6279Z" fill="#BDD0FB"/>
<g opacity="0.6">
<path opacity="0.6" d="M290.759 89.7683C291.846 89.783 292.698 88.9162 292.654 87.8143L292.64 87.4764C292.581 86.3892 291.655 85.4635 290.553 85.4489L109.363 80.9384C108.276 80.909 107.924 81.5995 108.585 82.4664L110.656 85.155C111.317 86.0218 112.757 86.7418 113.859 86.7565L290.759 89.7683Z" fill="white"/>
</g>
<g opacity="0.6">
<path opacity="0.6" d="M109.157 92.8837C108.07 92.8543 107.718 93.5449 108.379 94.4117L110.45 97.1003C111.111 97.9672 112.551 98.6871 113.653 98.7018L290.568 101.714C291.655 101.728 292.507 100.862 292.463 99.7596L292.448 99.4217C292.389 98.3345 291.464 97.4089 290.362 97.3942L109.157 92.8837Z" fill="white"/>
</g>
<path d="M138.614 201.986C138.6 201.986 138.57 201.986 138.556 201.986L114.55 202.119C111.097 202.133 108.203 199.797 107.821 196.683L105.397 176.569C105.25 175.379 105.603 174.189 106.396 173.219C107.277 172.147 108.614 171.456 110.083 171.324C112.111 171.162 114.888 170.869 117.958 170.56C124.628 169.884 132.194 169.12 136.646 169.003C136.675 169.003 136.704 169.003 136.748 169.003C139.937 168.959 142.699 170.854 143.507 173.645C144.829 178.259 144.858 187.015 144.755 196.345C144.697 199.415 141.964 201.928 138.614 201.986ZM110.245 173.293C109.305 173.366 108.453 173.792 107.909 174.468C107.468 175.012 107.263 175.688 107.336 176.349L109.76 196.462C110.01 198.593 112.067 200.194 114.535 200.179L138.541 200.047C138.556 200.047 138.57 200.047 138.585 200.047C140.877 200.018 142.757 198.372 142.772 196.359C142.86 187.177 142.845 178.582 141.597 174.218C141.038 172.294 138.938 170.883 136.69 171.001C132.312 171.118 124.466 171.912 118.149 172.543C115.064 172.837 112.272 173.116 110.245 173.293Z" fill="white"/>
<path opacity="0.6" d="M112.845 175.277C117.884 174.851 128.829 173.573 134.016 173.426C136.219 173.367 138.173 174.66 138.717 176.57C139.775 180.258 139.76 187.662 139.687 194.479C139.672 196.522 137.821 198.182 135.529 198.197L116.342 198.299C113.976 198.314 111.993 196.727 111.743 194.641L109.804 178.568C109.628 176.922 110.979 175.424 112.845 175.277Z" fill="white"/>
<g opacity="0.6">
<path opacity="0.6" d="M159.373 180.756C158.286 180.741 157.625 181.593 157.918 182.651L160.196 190.776C160.49 191.834 161.621 192.671 162.723 192.657L283.545 190.805C284.633 190.791 285.499 189.88 285.455 188.793L285.264 183.812C285.22 182.725 284.295 181.814 283.207 181.814L159.373 180.756Z" fill="white"/>
</g>
<path d="M140.024 148.081C140.01 148.081 139.98 148.081 139.966 148.081L115.96 148.213C112.507 148.228 109.613 145.892 109.231 142.777L106.807 122.678C106.66 121.488 107.013 120.298 107.806 119.329C108.688 118.256 110.024 117.566 111.494 117.433C113.521 117.272 116.298 116.978 119.368 116.669C126.038 115.994 133.604 115.23 138.056 115.112C138.085 115.112 138.115 115.112 138.159 115.112C141.347 115.068 144.109 116.963 144.917 119.755C146.239 124.368 146.268 133.125 146.165 142.454C146.107 145.525 143.374 148.037 140.024 148.081ZM111.641 119.387C110.7 119.461 109.848 119.887 109.305 120.563C108.864 121.106 108.658 121.782 108.732 122.443L111.156 142.557C111.405 144.687 113.462 146.289 115.93 146.274L139.936 146.142C139.951 146.142 139.966 146.142 139.98 146.142C142.272 146.112 144.153 144.467 144.167 142.454C144.256 133.271 144.241 124.677 142.992 120.313C142.434 118.388 140.333 116.978 138.085 117.096C133.707 117.213 125.862 118.006 119.545 118.638C116.474 118.947 113.683 119.226 111.641 119.387Z" fill="white"/>
<path opacity="0.6" d="M114.256 121.371C119.295 120.945 130.24 119.666 135.426 119.52C137.63 119.461 139.584 120.754 140.127 122.664C141.185 126.351 141.171 133.756 141.097 140.573C141.082 142.615 139.231 144.276 136.939 144.29L117.752 144.393C115.387 144.408 113.404 142.821 113.154 140.735L111.215 124.662C111.024 123.031 112.39 121.532 114.256 121.371Z" fill="white"/>
<g opacity="0.6">
<path opacity="0.6" d="M160.784 126.865C159.696 126.851 159.035 127.703 159.329 128.761L161.606 136.885C161.9 137.943 163.031 138.781 164.133 138.766L284.956 136.915C286.043 136.9 286.91 135.989 286.866 134.902L286.675 129.921C286.631 128.834 285.705 127.923 284.618 127.923L160.784 126.865Z" fill="white"/>
</g>
<path d="M139.407 253.425C139.393 253.425 139.363 253.425 139.348 253.425L115.343 253.557C111.89 253.572 108.996 251.236 108.614 248.121L106.19 228.022C106.043 226.832 106.396 225.642 107.189 224.672C108.07 223.6 109.407 222.909 110.876 222.777C112.904 222.616 115.681 222.322 118.751 222.013C125.421 221.337 132.987 220.573 137.439 220.456C137.468 220.456 137.497 220.456 137.541 220.456C140.729 220.412 143.491 222.307 144.3 225.099C145.622 229.712 145.651 238.468 145.548 247.798C145.49 250.868 142.757 253.381 139.407 253.425ZM111.038 224.731C110.098 224.805 109.246 225.231 108.702 225.907C108.261 226.45 108.056 227.126 108.129 227.787L110.553 247.901C110.803 250.031 112.86 251.632 115.328 251.618L139.334 251.486C139.348 251.486 139.363 251.486 139.378 251.486C141.67 251.456 143.55 249.811 143.565 247.798C143.653 238.615 143.638 230.02 142.39 225.657C141.831 223.732 139.73 222.336 137.483 222.439C133.105 222.557 125.259 223.35 118.942 223.982C115.857 224.276 113.065 224.57 111.038 224.731Z" fill="white"/>
<path opacity="0.6" d="M113.639 226.713C118.678 226.286 129.623 225.008 134.809 224.861C137.013 224.803 138.967 226.095 139.51 228.005C140.568 231.693 140.553 239.098 140.48 245.915C140.465 247.957 138.614 249.617 136.322 249.632L117.135 249.735C114.77 249.75 112.786 248.178 112.537 246.077L110.597 230.004C110.406 228.373 111.773 226.874 113.639 226.713Z" fill="white"/>
<g opacity="0.6">
<path opacity="0.6" d="M160.166 232.209C159.079 232.194 158.418 233.047 158.712 234.104L160.989 242.229C161.283 243.287 162.414 244.124 163.516 244.11L284.339 242.258C285.426 242.244 286.293 241.333 286.249 240.246L286.058 235.265C286.014 234.178 285.088 233.267 284.001 233.267L160.166 232.209Z" fill="white"/>
</g>
<path d="M137.909 302.862C137.894 302.862 137.865 302.862 137.85 302.862L113.844 302.994C110.392 303.009 107.497 300.673 107.115 297.558L104.691 277.445C104.544 276.255 104.897 275.065 105.69 274.095C106.572 273.022 107.909 272.332 109.378 272.2C111.405 272.038 114.182 271.744 117.238 271.436C123.585 270.804 131.474 269.996 135.925 269.878C139.084 269.82 141.964 271.7 142.772 274.521C144.094 279.134 144.123 287.891 144.02 297.22C144.006 300.306 141.258 302.803 137.909 302.862ZM109.539 274.168C108.599 274.242 107.747 274.668 107.204 275.344C106.763 275.887 106.557 276.563 106.631 277.224L109.055 297.338C109.304 299.468 111.361 301.07 113.829 301.055L137.835 300.923C140.098 300.849 142.052 299.262 142.066 297.235C142.155 288.052 142.14 279.458 140.891 275.094C140.333 273.169 138.232 271.803 135.984 271.876C131.606 271.994 123.746 272.787 117.444 273.419C114.373 273.713 111.567 273.992 109.539 274.168Z" fill="white"/>
<path opacity="0.6" d="M112.155 276.152C117.194 275.726 128.139 274.448 133.325 274.301C135.529 274.242 137.483 275.535 138.026 277.445C139.084 281.133 139.069 288.537 138.996 295.355C138.981 297.397 137.13 299.057 134.838 299.072L115.651 299.175C113.286 299.189 111.303 297.617 111.053 295.516L109.114 279.443C108.923 277.797 110.289 276.299 112.155 276.152Z" fill="white"/>
<g opacity="0.6">
<path opacity="0.6" d="M158.683 281.633C157.595 281.618 156.934 282.47 157.228 283.528L159.505 291.653C159.799 292.711 160.93 293.548 162.032 293.534L282.855 291.682C283.942 291.668 284.809 290.757 284.765 289.67L284.574 284.689C284.53 283.602 283.604 282.691 282.517 282.691L158.683 281.633Z" fill="white"/>
</g>
<path d="M135.97 353.843C135.955 353.843 135.926 353.843 135.911 353.843L111.905 353.975C108.453 353.99 105.558 351.654 105.176 348.539L102.752 328.426C102.605 327.236 102.958 326.046 103.751 325.076C104.633 324.004 105.97 323.313 107.439 323.181C109.466 323.019 112.243 322.725 115.314 322.417C121.983 321.741 129.55 320.977 134.001 320.859C137.263 320.859 140.039 322.681 140.847 325.502C142.17 330.115 142.199 338.872 142.096 348.201C142.052 351.287 139.319 353.784 135.97 353.843ZM107.601 325.149C106.66 325.223 105.808 325.649 105.265 326.325C104.824 326.868 104.618 327.544 104.692 328.205L107.116 348.319C107.365 350.449 109.422 352.051 111.89 352.036L135.896 351.904C135.911 351.904 135.926 351.904 135.94 351.904C138.232 351.874 140.113 350.229 140.127 348.216C140.216 339.034 140.201 330.439 138.952 326.075C138.394 324.15 136.293 322.813 134.045 322.858C129.667 322.975 121.822 323.768 115.505 324.4C112.419 324.694 109.628 324.973 107.601 325.149Z" fill="white"/>
<path opacity="0.6" d="M110.201 327.134C115.24 326.708 126.185 325.43 131.371 325.283C133.575 325.224 135.529 326.517 136.072 328.427C137.13 332.115 137.115 339.52 137.042 346.337C137.027 348.379 135.176 350.039 132.884 350.054L113.697 350.157C111.332 350.172 109.349 348.585 109.099 346.499L107.16 330.425C106.983 328.78 108.335 327.296 110.201 327.134Z" fill="white"/>
<g opacity="0.6">
<path opacity="0.6" d="M156.728 332.627C155.641 332.612 154.98 333.465 155.274 334.522L157.551 342.647C157.845 343.705 158.976 344.542 160.078 344.528L280.901 342.676C281.988 342.662 282.855 341.751 282.811 340.664L282.62 335.683C282.576 334.596 281.65 333.685 280.563 333.685L156.728 332.627Z" fill="white"/>
</g>
<path d="M206.371 4.90608C198.746 -0.588755 192.047 -0.588755 187.316 0.71884C182.997 1.9089 180.132 6.02268 180.47 10.4891L182.13 32.7182L206.297 35.2746C206.283 35.2746 221.298 15.6754 206.371 4.90608ZM195.411 22.6247C192.076 22.566 189.417 19.8185 189.476 16.4834C189.535 13.1483 192.282 10.4891 195.617 10.5478C198.952 10.6066 201.611 13.354 201.552 16.6891C201.493 20.0242 198.746 22.6835 195.411 22.6247Z" fill="url(#paint3_linear)"/>
<path d="M184.275 23.9615C183.864 23.7999 183.541 23.4032 183.511 22.9331L183.247 19.3923C183.203 18.7312 183.688 18.1582 184.349 18.1141C185.01 18.07 185.583 18.5549 185.627 19.216L185.891 22.7568C185.936 23.4179 185.451 23.9909 184.79 24.035C184.613 24.0497 184.437 24.0203 184.275 23.9615ZM183.761 17.0269C183.35 16.8653 183.027 16.4686 182.997 15.9984L182.792 13.3098C182.454 8.75524 185.392 4.568 189.77 3.36325C192.767 2.54049 195.852 2.45234 198.923 3.14287C199.555 3.28979 199.981 3.92155 199.834 4.568C199.687 5.21445 199.055 5.62583 198.409 5.47891C195.72 4.87654 193.031 4.95 190.416 5.66991C187.14 6.58082 184.936 9.71023 185.186 13.1335L185.392 15.8221C185.436 16.4833 184.951 17.0563 184.29 17.1003C184.099 17.115 183.923 17.0857 183.761 17.0269Z" fill="#43AF66"/>
<path d="M148.854 46.5001L149.045 35.3341C149.104 31.4848 152.351 28.4582 156.2 28.6492L233.095 32.6014C236.503 32.7777 239.221 35.5251 239.368 38.9336L239.824 49.6736L148.854 46.5001Z" fill="url(#paint4_linear)"/>
<path d="M177.781 33.1447L174.461 33.0859C174.182 33.0859 173.962 32.8509 173.976 32.5864C173.976 32.3219 174.197 32.1016 174.476 32.1016C174.476 32.1016 174.476 32.1016 174.49 32.1016L177.796 32.1603C178.075 32.1603 178.296 32.3954 178.281 32.6599C178.281 32.9243 178.061 33.1447 177.781 33.1447Z" fill="#43AF66"/>
<path d="M152.659 43.6063C152.204 43.43 151.88 42.9893 151.895 42.4604L151.968 37.9499C151.998 36.0987 152.747 34.365 154.084 33.0721C155.421 31.7792 157.169 31.0887 159.02 31.1181L171.185 31.3238C171.846 31.3385 172.375 31.8821 172.36 32.5432C172.346 33.2044 171.802 33.7333 171.141 33.7186L158.976 33.5129C156.479 33.4688 154.393 35.4669 154.363 37.9793L154.29 42.4897C154.275 43.1509 153.731 43.6798 153.07 43.6651C152.923 43.6798 152.776 43.6504 152.659 43.6063Z" fill="#43AF66"/>
<path d="M124.819 42.0028L259.363 44.2948C264.197 44.3829 268.281 47.9237 269.016 52.7133L269.119 53.3745C269.927 58.6049 265.828 63.321 260.539 63.2329L122.512 60.8821C119.339 60.8234 116.856 58.1347 117.062 54.9759L117.458 48.8052C117.708 44.9265 120.94 41.944 124.819 42.0028Z" fill="url(#paint5_linear)"/>
<path d="M213.07 223.538C212.204 254.333 209.412 360.571 210.749 398.213C210.896 402.194 214.495 405.397 219.006 405.529C241.278 406.176 322.963 407.806 359.397 406.455C366.993 406.176 373.016 400.725 373.178 394.011C373.942 361.688 375.602 270.759 371.635 229.107C371.165 224.111 366.729 220.144 361.102 219.645C336.831 217.5 254.809 212.24 223.325 214.047C217.654 214.385 213.203 218.514 213.07 223.538Z" fill="url(#paint6_linear)"/>
<path d="M223.002 230.723C221.797 237.922 218.021 261.87 219.226 270.729C219.402 272.022 223.384 273.065 228.423 273.139C249.182 273.447 320.024 274.138 350.479 273.506C355.959 273.388 360.264 272.257 360.558 270.847C362.1 263.501 366.537 241.198 365.377 232.442C365.2 231.046 360.969 229.9 355.548 229.782C333.085 229.268 257.806 228.034 231.934 228.401C227.086 228.475 223.222 229.474 223.002 230.723Z" fill="url(#paint7_linear)"/>
<path opacity="0.2" d="M355.93 236.967C354.829 235.821 353.315 235.174 351.729 235.145L235.049 233.294C231.934 233.25 229.305 235.6 229.011 238.715L226.587 264.602C226.381 266.718 229.878 268.51 234.314 268.555L349.025 269.95C353.462 270.009 357.135 268.305 357.165 266.189L357.591 241.227C357.635 239.641 357.032 238.113 355.93 236.967Z" fill="white"/>
<path d="M250.916 299.069C250.916 303.668 247.184 307.4 242.586 307.4H232.449C227.85 307.4 224.119 303.668 224.119 299.069V298.864C224.119 294.265 227.85 290.533 232.449 290.533H242.586C247.184 290.533 250.916 294.265 250.916 298.864V299.069Z" fill="url(#paint8_linear)"/>
<path d="M288.643 299.069C288.643 303.668 284.912 307.4 280.313 307.4H270.176C265.578 307.4 261.846 303.668 261.846 299.069V298.864C261.846 294.265 265.578 290.533 270.176 290.533H280.313C284.912 290.533 288.643 294.265 288.643 298.864V299.069Z" fill="url(#paint9_linear)"/>
<path d="M324.873 299.069C324.873 303.668 321.141 307.4 316.543 307.4H306.406C301.807 307.4 298.076 303.668 298.076 299.069V298.864C298.076 294.265 301.807 290.533 306.406 290.533H316.543C321.141 290.533 324.873 294.265 324.873 298.864V299.069Z" fill="url(#paint10_linear)"/>
<path d="M361.337 299.966C361.337 304.638 357.547 308.443 352.86 308.443H343.046C338.374 308.443 334.569 304.652 334.569 299.966C334.569 295.294 338.359 291.488 343.046 291.488H352.86C357.547 291.503 361.337 295.294 361.337 299.966Z" fill="url(#paint11_linear)"/>
<path opacity="0.63" d="M250.916 325.37C250.916 329.969 247.184 333.7 242.586 333.7H232.449C227.85 333.7 224.119 329.969 224.119 325.37V325.164C224.119 320.566 227.85 316.834 232.449 316.834H242.586C247.184 316.834 250.916 320.566 250.916 325.164V325.37Z" fill="url(#paint12_linear)"/>
<path opacity="0.63" d="M288.643 325.37C288.643 329.969 284.912 333.7 280.313 333.7H270.176C265.578 333.7 261.846 329.969 261.846 325.37V325.164C261.846 320.566 265.578 316.834 270.176 316.834H280.313C284.912 316.834 288.643 320.566 288.643 325.164V325.37Z" fill="url(#paint13_linear)"/>
<path opacity="0.63" d="M324.873 325.37C324.873 329.969 321.141 333.7 316.543 333.7H306.406C301.807 333.7 298.076 329.969 298.076 325.37V325.164C298.076 320.566 301.807 316.834 306.406 316.834H316.543C321.141 316.834 324.873 320.566 324.873 325.164V325.37Z" fill="url(#paint14_linear)"/>
<path d="M362.116 325.37C362.116 329.969 358.384 333.7 353.786 333.7H343.648C339.05 333.7 335.318 329.969 335.318 325.37V325.164C335.318 320.566 339.05 316.834 343.648 316.834H353.786C358.384 316.834 362.116 320.566 362.116 325.164V325.37Z" fill="url(#paint15_linear)"/>
<path opacity="0.63" d="M250.916 349.7C250.916 354.299 247.184 358.031 242.586 358.031H232.449C227.85 358.031 224.119 354.299 224.119 349.7V349.494C224.119 344.896 227.85 341.164 232.449 341.164H242.586C247.184 341.164 250.916 344.896 250.916 349.494V349.7Z" fill="url(#paint16_linear)"/>
<path opacity="0.63" d="M288.643 349.7C288.643 354.299 284.912 358.031 280.313 358.031H270.176C265.578 358.031 261.846 354.299 261.846 349.7V349.494C261.846 344.896 265.578 341.164 270.176 341.164H280.313C284.912 341.164 288.643 344.896 288.643 349.494V349.7Z" fill="url(#paint17_linear)"/>
<path opacity="0.63" d="M324.873 349.7C324.873 354.299 321.141 358.031 316.543 358.031H306.406C301.807 358.031 298.076 354.299 298.076 349.7V349.494C298.076 344.896 301.807 341.164 306.406 341.164H316.543C321.141 341.164 324.873 344.896 324.873 349.494V349.7Z" fill="url(#paint18_linear)"/>
<path opacity="0.63" d="M250.916 375.013C250.916 379.611 247.184 383.343 242.586 383.343H232.449C227.85 383.343 224.119 379.611 224.119 375.013V374.807C224.119 370.208 227.85 366.477 232.449 366.477H242.586C247.184 366.477 250.916 370.208 250.916 374.807V375.013Z" fill="url(#paint19_linear)"/>
<path opacity="0.63" d="M288.643 375.013C288.643 379.611 284.912 383.343 280.313 383.343H270.176C265.578 383.343 261.846 379.611 261.846 375.013V374.807C261.846 370.208 265.578 366.477 270.176 366.477H280.313C284.912 366.477 288.643 370.208 288.643 374.807V375.013Z" fill="url(#paint20_linear)"/>
<path opacity="0.63" d="M324.873 375.013C324.873 379.611 321.141 383.343 316.543 383.343H306.406C301.807 383.343 298.076 379.611 298.076 375.013V374.807C298.076 370.208 301.807 366.477 306.406 366.477H316.543C321.141 366.477 324.873 370.208 324.873 374.807V375.013Z" fill="url(#paint21_linear)"/>
<path d="M358.634 372.796C358.634 378.629 353.903 383.345 348.085 383.345H347.351C341.518 383.345 336.802 378.614 336.802 372.796V352.697C336.802 346.865 341.533 342.148 347.351 342.148H348.085C353.918 342.148 358.634 346.879 358.634 352.697V372.796Z" fill="url(#paint22_linear)"/>
<g opacity="0.7">
<path opacity="0.7" d="M344.236 240.624C344.236 241.579 343.457 242.358 342.502 242.358H337.037C336.082 242.358 335.303 241.579 335.303 240.624C335.303 239.669 336.082 238.891 337.037 238.891H342.502C343.457 238.891 344.236 239.669 344.236 240.624Z" fill="#BDD0FB"/>
<path opacity="0.7" d="M344.236 265.454C344.236 266.409 343.457 267.188 342.502 267.188H337.037C336.082 267.188 335.303 266.409 335.303 265.454C335.303 264.499 336.082 263.721 337.037 263.721H342.502C343.457 263.721 344.236 264.499 344.236 265.454Z" fill="#BDD0FB"/>
<path opacity="0.7" d="M336.302 251.555C336.302 252.51 335.524 253.288 334.569 253.288C333.614 253.288 332.835 252.51 332.835 251.555V246.089C332.835 245.134 333.614 244.355 334.569 244.355C335.524 244.355 336.302 245.134 336.302 246.089V251.555Z" fill="#BDD0FB"/>
<path opacity="0.7" d="M336.302 261.486C336.302 262.441 335.524 263.22 334.569 263.22C333.614 263.22 332.835 262.441 332.835 261.486V256.021C332.835 255.066 333.614 254.287 334.569 254.287C335.524 254.287 336.302 255.066 336.302 256.021V261.486Z" fill="#BDD0FB"/>
<path opacity="0.7" d="M348.217 251.555C348.217 252.51 347.439 253.288 346.484 253.288C345.529 253.288 344.75 252.51 344.75 251.555V246.089C344.75 245.134 345.529 244.355 346.484 244.355C347.439 244.355 348.217 245.134 348.217 246.089V251.555Z" fill="#BDD0FB"/>
<path opacity="0.7" d="M348.217 261.486C348.217 262.441 347.439 263.22 346.484 263.22C345.529 263.22 344.75 262.441 344.75 261.486V256.021C344.75 255.066 345.529 254.287 346.484 254.287C347.439 254.287 348.217 255.066 348.217 256.021V261.486Z" fill="#BDD0FB"/>
</g>
<path d="M183.335 137.871C193.144 137.871 201.097 129.919 201.097 120.108C201.097 110.298 193.144 102.346 183.335 102.346C173.525 102.346 165.573 110.298 165.573 120.108C165.573 129.919 173.525 137.871 183.335 137.871Z" fill="url(#paint23_linear)"/>
<path d="M183.335 137.284C192.82 137.284 200.509 129.594 200.509 120.109C200.509 110.623 192.82 102.934 183.335 102.934C173.85 102.934 166.161 110.623 166.161 120.109C166.161 129.594 173.85 137.284 183.335 137.284Z" fill="url(#paint24_linear)"/>
<path opacity="0.78" d="M169.172 113.467C169.098 113.467 169.025 113.453 168.952 113.409C168.702 113.291 168.614 112.982 168.731 112.747C171.523 107.208 177.12 103.756 183.334 103.756C184.319 103.756 185.318 103.844 186.287 104.02C186.552 104.064 186.743 104.329 186.684 104.593C186.64 104.858 186.376 105.049 186.111 104.99C185.2 104.828 184.275 104.74 183.334 104.74C177.502 104.74 172.257 107.972 169.627 113.188C169.539 113.364 169.363 113.467 169.172 113.467Z" fill="white"/>
<path opacity="0.78" d="M183.702 135.006C191.726 135.006 198.232 128.501 198.232 120.476C198.232 112.451 191.726 105.945 183.702 105.945C175.677 105.945 169.172 112.451 169.172 120.476C169.172 128.501 175.677 135.006 183.702 135.006Z" fill="white"/>
<path d="M182.277 131.274V129.687C180.631 129.628 179.001 129.231 177.84 128.732C177.429 128.556 177.223 128.085 177.34 127.645L177.737 126.175C177.884 125.632 178.472 125.353 178.986 125.573C180.132 126.058 181.557 126.44 183.085 126.44C184.671 126.44 185.861 125.896 185.861 124.794C185.861 123.795 184.951 123.208 182.747 122.62C179.603 121.753 177.34 120.387 177.34 117.61C177.34 115.112 179.177 113.202 182.35 112.688V111.101C182.35 110.587 182.762 110.176 183.276 110.176H184.201C184.716 110.176 185.127 110.587 185.127 111.101V112.527C186.655 112.585 187.757 112.85 188.638 113.158C189.094 113.32 189.343 113.805 189.211 114.26L188.844 115.627C188.697 116.155 188.139 116.435 187.624 116.244C186.816 115.935 185.67 115.612 184.172 115.612C182.291 115.612 181.748 116.391 181.748 117.096C181.748 117.963 182.879 118.55 185.333 119.3C188.829 120.343 190.284 121.797 190.284 124.412C190.284 126.807 188.506 128.952 185.068 129.496V131.259C185.068 131.773 184.657 132.185 184.143 132.185H183.217C182.688 132.199 182.277 131.788 182.277 131.274Z" fill="url(#paint25_linear)"/>
<path d="M233.873 129.951C250.945 129.951 264.784 116.111 264.784 99.0391C264.784 81.9668 250.945 68.127 233.873 68.127C216.802 68.127 202.962 81.9668 202.962 99.0391C202.962 116.111 216.802 129.951 233.873 129.951Z" fill="url(#paint26_linear)"/>
<path d="M233.873 128.924C250.377 128.924 263.756 115.544 263.756 99.0399C263.756 82.5356 250.377 69.1562 233.873 69.1562C217.37 69.1562 203.991 82.5356 203.991 99.0399C203.991 115.544 217.37 128.924 233.873 128.924Z" fill="url(#paint27_linear)"/>
<path opacity="0.78" d="M209.236 87.1222C209.162 87.1222 209.089 87.1075 209.015 87.0635C208.766 86.9459 208.678 86.6374 208.795 86.4023C213.599 76.8818 223.222 70.9609 233.888 70.9609C235.592 70.9609 237.296 71.1079 238.957 71.4164C239.221 71.4605 239.412 71.7249 239.353 71.9894C239.309 72.2538 239.045 72.4448 238.78 72.3861C237.179 72.0922 235.533 71.9453 233.888 71.9453C223.604 71.9453 214.334 77.6605 209.691 86.8431C209.588 87.0194 209.412 87.1222 209.236 87.1222Z" fill="white"/>
<path opacity="0.78" d="M234.535 125C248.507 125 259.833 113.673 259.833 99.7001C259.833 85.7275 248.507 74.4004 234.535 74.4004C220.562 74.4004 209.236 85.7275 209.236 99.7001C209.236 113.673 220.562 125 234.535 125Z" fill="white"/>
<path d="M232.052 118.492V115.744C229.187 115.627 226.351 114.951 224.324 114.069C223.604 113.761 223.237 112.953 223.442 112.189L224.148 109.632C224.397 108.692 225.426 108.207 226.322 108.589C228.32 109.427 230.788 110.088 233.447 110.088C236.209 110.088 238.266 109.148 238.266 107.238C238.266 105.504 236.679 104.475 232.83 103.447C227.35 101.948 223.413 99.5536 223.413 94.7346C223.413 90.3858 226.601 87.0507 232.125 86.1692V83.4217C232.125 82.5402 232.845 81.8203 233.726 81.8203H235.343C236.224 81.8203 236.944 82.5402 236.944 83.4217V85.89C239.603 85.9929 241.528 86.4483 243.07 86.9919C243.849 87.2711 244.29 88.1085 244.069 88.9166L243.423 91.282C243.173 92.1929 242.203 92.6924 241.307 92.3545C239.897 91.8256 237.899 91.2673 235.298 91.2673C232.022 91.2673 231.082 92.619 231.082 93.8384C231.082 95.337 233.051 96.3655 237.311 97.6731C243.393 99.4949 245.935 102.022 245.935 106.576C245.935 110.749 242.85 114.495 236.856 115.421V118.506C236.856 119.388 236.136 120.108 235.254 120.108H233.638C232.772 120.108 232.052 119.388 232.052 118.492Z" fill="url(#paint28_linear)"/>
<path d="M255.205 199.9C272.772 199.9 287.013 185.659 287.013 168.092C287.013 150.524 272.772 136.283 255.205 136.283C237.639 136.283 223.398 150.524 223.398 168.092C223.398 185.659 237.639 199.9 255.205 199.9Z" fill="url(#paint29_linear)"/>
<path d="M255.205 198.843C272.188 198.843 285.954 185.075 285.954 168.092C285.954 151.109 272.188 137.342 255.205 137.342C238.223 137.342 224.456 151.109 224.456 168.092C224.456 185.075 238.223 198.843 255.205 198.843Z" fill="url(#paint30_linear)"/>
<path opacity="0.78" d="M229.848 155.809C229.775 155.809 229.701 155.794 229.628 155.75C229.378 155.633 229.29 155.324 229.407 155.089C234.358 145.29 244.246 139.207 255.206 139.207C256.954 139.207 258.702 139.369 260.421 139.677C260.686 139.721 260.877 139.986 260.818 140.25C260.774 140.515 260.509 140.706 260.245 140.647C258.599 140.353 256.91 140.191 255.206 140.191C244.613 140.191 235.064 146.068 230.289 155.53C230.201 155.706 230.024 155.809 229.848 155.809Z" fill="white"/>
<path opacity="0.78" d="M255.867 194.801C270.245 194.801 281.9 183.145 281.9 168.767C281.9 154.388 270.245 142.732 255.867 142.732C241.489 142.732 229.833 154.388 229.833 168.767C229.833 183.145 241.489 194.801 255.867 194.801Z" fill="white"/>
<path d="M253.31 188.116V185.281C250.357 185.163 247.434 184.473 245.362 183.562C244.628 183.238 244.246 182.401 244.451 181.622L245.171 178.978C245.436 178.008 246.493 177.508 247.419 177.89C249.476 178.757 252.017 179.433 254.75 179.433C257.6 179.433 259.716 178.463 259.716 176.495C259.716 174.717 258.07 173.644 254.133 172.587C248.491 171.044 244.451 168.59 244.451 163.624C244.451 159.143 247.728 155.72 253.413 154.809V151.974C253.413 151.063 254.148 150.328 255.059 150.328H256.719C257.63 150.328 258.364 151.063 258.364 151.974V154.515C261.097 154.618 263.08 155.088 264.667 155.647C265.475 155.926 265.916 156.807 265.695 157.63L265.034 160.069C264.784 161.009 263.771 161.523 262.86 161.186C261.405 160.642 259.348 160.069 256.689 160.069C253.31 160.069 252.355 161.465 252.355 162.714C252.355 164.256 254.383 165.314 258.761 166.666C265.019 168.546 267.634 171.147 267.634 175.819C267.634 180.109 264.461 183.958 258.291 184.928V188.101C258.291 189.012 257.556 189.747 256.645 189.747H254.985C254.06 189.762 253.31 189.027 253.31 188.116Z" fill="url(#paint31_linear)"/>
<path d="M296.004 148.066C308.872 148.066 319.305 137.634 319.305 124.765C319.305 111.895 308.872 101.463 296.004 101.463C283.135 101.463 272.703 111.895 272.703 124.765C272.703 137.634 283.135 148.066 296.004 148.066Z" fill="url(#paint32_linear)"/>
<path d="M296.004 147.302C308.451 147.302 318.541 137.211 318.541 124.764C318.541 112.317 308.451 102.227 296.004 102.227C283.557 102.227 273.467 112.317 273.467 124.764C273.467 137.211 283.557 147.302 296.004 147.302Z" fill="url(#paint33_linear)"/>
<path opacity="0.78" d="M277.434 115.89C277.361 115.89 277.287 115.876 277.214 115.832C276.964 115.714 276.876 115.406 276.993 115.17C280.637 107.942 287.924 103.461 296.019 103.461C297.312 103.461 298.605 103.578 299.853 103.814C300.118 103.858 300.309 104.122 300.25 104.387C300.206 104.651 299.941 104.842 299.677 104.783C298.472 104.563 297.253 104.46 296.019 104.46C288.306 104.46 281.357 108.735 277.89 115.626C277.787 115.802 277.61 115.89 277.434 115.89Z" fill="white"/>
<path opacity="0.78" d="M296.503 144.32C307.035 144.32 315.573 135.782 315.573 125.25C315.573 114.718 307.035 106.18 296.503 106.18C285.971 106.18 277.434 114.718 277.434 125.25C277.434 135.782 285.971 144.32 296.503 144.32Z" fill="white"/>
<path d="M294.623 139.427V137.355C292.463 137.267 290.318 136.753 288.805 136.092C288.261 135.857 287.982 135.24 288.144 134.667L288.673 132.727C288.864 132.022 289.642 131.655 290.318 131.934C291.831 132.566 293.682 133.065 295.695 133.065C297.781 133.065 299.339 132.36 299.339 130.906C299.339 129.598 298.134 128.819 295.24 128.041C291.111 126.909 288.144 125.117 288.144 121.473C288.144 118.182 290.538 115.685 294.711 115.009V112.937C294.711 112.276 295.254 111.732 295.916 111.732H297.135C297.796 111.732 298.34 112.276 298.34 112.937V114.803C300.338 114.877 301.792 115.229 302.953 115.626C303.54 115.832 303.864 116.478 303.702 117.08L303.217 118.873C303.026 119.563 302.292 119.945 301.631 119.681C300.573 119.284 299.06 118.858 297.106 118.858C294.637 118.858 293.932 119.887 293.932 120.797C293.932 121.929 295.416 122.707 298.633 123.692C303.217 125.073 305.127 126.968 305.127 130.406C305.127 133.55 302.791 136.371 298.281 137.076V139.427C298.281 140.088 297.737 140.632 297.076 140.632H295.857C295.166 140.632 294.623 140.088 294.623 139.427Z" fill="url(#paint34_linear)"/>
</g>
<defs>
<linearGradient id="paint0_linear" x1="419.532" y1="456.694" x2="128.784" y2="142.882" gradientUnits="userSpaceOnUse">
<stop stop-color="#DAE3FE"/>
<stop offset="1" stop-color="#E9EFFD"/>
</linearGradient>
<linearGradient id="paint1_linear" x1="303.893" y1="297.482" x2="384.565" y2="297.482" gradientUnits="userSpaceOnUse">
<stop stop-color="#DAE3FE"/>
<stop offset="1" stop-color="#E9EFFD"/>
</linearGradient>
<linearGradient id="paint2_linear" x1="42.2235" y1="419.036" x2="322.939" y2="61.6409" gradientUnits="userSpaceOnUse">
<stop stop-color="#0F9F3E"/>
<stop offset="1" stop-color="#1EE15D"/>
</linearGradient>
<linearGradient id="paint3_linear" x1="231.135" y1="-26.226" x2="129.635" y2="100.32" gradientUnits="userSpaceOnUse">
<stop stop-color="#248844"/>
<stop offset="1" stop-color="#43AF66"/>
</linearGradient>
<linearGradient id="paint4_linear" x1="241.318" y1="-18.1614" x2="141.028" y2="109.208" gradientUnits="userSpaceOnUse">
<stop stop-color="#43AF66"/>
<stop offset="1" stop-color="#43AF66"/>
</linearGradient>
<linearGradient id="paint5_linear" x1="228.821" y1="-10.4783" x2="158.974" y2="112.736" gradientUnits="userSpaceOnUse">
<stop stop-color="#14903D"/>
<stop offset="1" stop-color="#43AF66"/>
</linearGradient>
<linearGradient id="paint6_linear" x1="201.517" y1="168.203" x2="354.907" y2="416.893" gradientUnits="userSpaceOnUse">
<stop stop-color="#4F52FF"/>
<stop offset="1" stop-color="#4042E2"/>
</linearGradient>
<linearGradient id="paint7_linear" x1="280.801" y1="296.319" x2="296.233" y2="232.353" gradientUnits="userSpaceOnUse">
<stop stop-color="#09005D"/>
<stop offset="1" stop-color="#1A0F91"/>
</linearGradient>
<linearGradient id="paint8_linear" x1="224.11" y1="298.961" x2="250.915" y2="298.961" gradientUnits="userSpaceOnUse">
<stop stop-color="#09005D"/>
<stop offset="1" stop-color="#1A0F91"/>
</linearGradient>
<linearGradient id="paint9_linear" x1="261.836" y1="298.961" x2="288.642" y2="298.961" gradientUnits="userSpaceOnUse">
<stop stop-color="#09005D"/>
<stop offset="1" stop-color="#1A0F91"/>
</linearGradient>
<linearGradient id="paint10_linear" x1="298.074" y1="298.961" x2="324.88" y2="298.961" gradientUnits="userSpaceOnUse">
<stop stop-color="#09005D"/>
<stop offset="1" stop-color="#1A0F91"/>
</linearGradient>
<linearGradient id="paint11_linear" x1="351.421" y1="196.432" x2="346.953" y2="329.969" gradientUnits="userSpaceOnUse">
<stop stop-color="#FF928E"/>
<stop offset="1" stop-color="#FE7062"/>
</linearGradient>
<linearGradient id="paint12_linear" x1="224.11" y1="325.273" x2="250.915" y2="325.273" gradientUnits="userSpaceOnUse">
<stop stop-color="#09005D"/>
<stop offset="1" stop-color="#1A0F91"/>
</linearGradient>
<linearGradient id="paint13_linear" x1="261.836" y1="325.273" x2="288.642" y2="325.273" gradientUnits="userSpaceOnUse">
<stop stop-color="#09005D"/>
<stop offset="1" stop-color="#1A0F91"/>
</linearGradient>
<linearGradient id="paint14_linear" x1="298.074" y1="325.273" x2="324.88" y2="325.273" gradientUnits="userSpaceOnUse">
<stop stop-color="#09005D"/>
<stop offset="1" stop-color="#1A0F91"/>
</linearGradient>
<linearGradient id="paint15_linear" x1="335.304" y1="325.273" x2="362.11" y2="325.273" gradientUnits="userSpaceOnUse">
<stop stop-color="#09005D"/>
<stop offset="1" stop-color="#1A0F91"/>
</linearGradient>
<linearGradient id="paint16_linear" x1="224.11" y1="349.598" x2="250.915" y2="349.598" gradientUnits="userSpaceOnUse">
<stop stop-color="#09005D"/>
<stop offset="1" stop-color="#1A0F91"/>
</linearGradient>
<linearGradient id="paint17_linear" x1="261.836" y1="349.598" x2="288.642" y2="349.598" gradientUnits="userSpaceOnUse">
<stop stop-color="#09005D"/>
<stop offset="1" stop-color="#1A0F91"/>
</linearGradient>
<linearGradient id="paint18_linear" x1="298.074" y1="349.598" x2="324.88" y2="349.598" gradientUnits="userSpaceOnUse">
<stop stop-color="#09005D"/>
<stop offset="1" stop-color="#1A0F91"/>
</linearGradient>
<linearGradient id="paint19_linear" x1="224.11" y1="374.914" x2="250.915" y2="374.914" gradientUnits="userSpaceOnUse">
<stop stop-color="#09005D"/>
<stop offset="1" stop-color="#1A0F91"/>
</linearGradient>
<linearGradient id="paint20_linear" x1="261.836" y1="374.914" x2="288.642" y2="374.914" gradientUnits="userSpaceOnUse">
<stop stop-color="#09005D"/>
<stop offset="1" stop-color="#1A0F91"/>
</linearGradient>
<linearGradient id="paint21_linear" x1="298.074" y1="374.914" x2="324.88" y2="374.914" gradientUnits="userSpaceOnUse">
<stop stop-color="#09005D"/>
<stop offset="1" stop-color="#1A0F91"/>
</linearGradient>
<linearGradient id="paint22_linear" x1="336.793" y1="362.753" x2="358.635" y2="362.753" gradientUnits="userSpaceOnUse">
<stop stop-color="#09005D"/>
<stop offset="1" stop-color="#1A0F91"/>
</linearGradient>
<linearGradient id="paint23_linear" x1="159.033" y1="148.309" x2="182.853" y2="120.662" gradientUnits="userSpaceOnUse">
<stop stop-color="#FE9D00"/>
<stop offset="1" stop-color="#FFB73F"/>
</linearGradient>
<linearGradient id="paint24_linear" x1="196.311" y1="100.497" x2="125.875" y2="206.901" gradientUnits="userSpaceOnUse">
<stop stop-color="#FE9D00"/>
<stop offset="1" stop-color="#FE9D00"/>
</linearGradient>
<linearGradient id="paint25_linear" x1="194.209" y1="103.544" x2="156.704" y2="166.508" gradientUnits="userSpaceOnUse">
<stop stop-color="#FFA412"/>
<stop offset="1" stop-color="#FE9D00"/>
</linearGradient>
<linearGradient id="paint26_linear" x1="191.578" y1="148.145" x2="233.044" y2="100.017" gradientUnits="userSpaceOnUse">
<stop stop-color="#FE9D00"/>
<stop offset="1" stop-color="#FE9D00"/>
</linearGradient>
<linearGradient id="paint27_linear" x1="256.472" y1="64.9119" x2="133.855" y2="250.143" gradientUnits="userSpaceOnUse">
<stop stop-color="#FE9D00"/>
<stop offset="1" stop-color="#FE9D00"/>
</linearGradient>
<linearGradient id="paint28_linear" x1="252.814" y1="70.219" x2="187.523" y2="179.827" gradientUnits="userSpaceOnUse">
<stop stop-color="#FE9D00"/>
<stop offset="1" stop-color="#FFB73F"/>
</linearGradient>
<linearGradient id="paint29_linear" x1="211.672" y1="218.616" x2="254.339" y2="169.093" gradientUnits="userSpaceOnUse">
<stop stop-color="#FE9D00"/>
<stop offset="1" stop-color="#FE9D00"/>
</linearGradient>
<linearGradient id="paint30_linear" x1="278.446" y1="132.97" x2="152.275" y2="323.57" gradientUnits="userSpaceOnUse">
<stop stop-color="#FE9D00"/>
<stop offset="1" stop-color="#FE9D00"/>
</linearGradient>
<linearGradient id="paint31_linear" x1="274.683" y1="138.43" x2="207.499" y2="251.216" gradientUnits="userSpaceOnUse">
<stop stop-color="#FFA412"/>
<stop offset="1" stop-color="#FE9D00"/>
</linearGradient>
<linearGradient id="paint32_linear" x1="264.113" y1="161.778" x2="295.376" y2="125.493" gradientUnits="userSpaceOnUse">
<stop stop-color="#FE9D00"/>
<stop offset="1" stop-color="#FE9D00"/>
</linearGradient>
<linearGradient id="paint33_linear" x1="313.039" y1="99.0257" x2="220.595" y2="238.677" gradientUnits="userSpaceOnUse">
<stop stop-color="#FE9D00"/>
<stop offset="1" stop-color="#FE9D00"/>
</linearGradient>
<linearGradient id="paint34_linear" x1="310.281" y1="103.027" x2="261.056" y2="185.664" gradientUnits="userSpaceOnUse">
<stop stop-color="#FE9D00"/>
<stop offset="1" stop-color="#FE9D00"/>
</linearGradient>
<clipPath id="clip0">
<rect width="405" height="407" fill="white"/>
</clipPath>
</defs>
</svg>
