<svg width="431" height="429" viewBox="0 0 431 429" fill="none" xmlns="http://www.w3.org/2000/svg">
<g clip-path="url(#clip0)">
<path d="M405.147 288.823C364.118 385.578 254.83 439.786 160.061 425.154C144.64 422.779 102.357 415.685 64.9236 382.254C-7.14427 317.904 -22.5491 190.445 35.5825 100.63C77.8962 35.2692 153.727 -1.79337 225.795 0.0605213C241.322 0.458878 300.8 2.92563 353.088 46.1014C360.768 52.4445 377.702 67.5055 392.97 91.4222C428.812 147.56 431.887 225.776 405.147 288.823Z" fill="white"/>
<g opacity="0.9">
<path opacity="0.9" d="M382.919 44.6299C391.945 84.4656 437.012 316.815 270.725 358.673C270.725 358.673 209.656 206.21 378.253 41.9946C379.722 40.5544 382.322 42.0252 382.919 44.6299Z" fill="#91B3FA"/>
<path opacity="0.45" d="M374.658 78.8421C373.021 90.3179 371.186 101.763 369.243 113.193C367.3 124.623 365.25 136.037 363.078 147.421C358.748 170.189 353.914 192.88 348.499 215.417C345.761 226.679 342.885 237.894 339.794 249.063C336.674 260.217 333.354 271.325 329.774 282.326C326.134 293.311 322.217 304.205 317.827 314.899C313.421 325.578 305.604 335.108 299.791 345.067C299.47 345.604 302.651 347.289 303.187 347.611C303.722 347.932 304.411 347.749 304.732 347.212C310.56 337.1 315.379 326.467 319.754 315.711C324.114 304.925 328.015 293.986 331.595 282.939C335.144 271.877 338.418 260.738 341.493 249.554C344.522 238.354 347.367 227.092 350.044 215.8C355.368 193.217 360.095 170.48 364.317 147.681C366.443 136.282 368.432 124.852 370.329 113.407C372.211 101.962 374 90.5018 375.591 78.9954C375.622 78.7349 375.438 78.4898 375.178 78.4591C374.934 78.3978 374.689 78.5817 374.658 78.8421Z" fill="white"/>
</g>
<path d="M431 169.238C431.031 166.94 428.476 166.051 427.573 168.043C418.747 187.317 394.301 236.928 367.086 258.914C322.784 294.705 280.133 363.024 295.263 409.141C295.263 409.141 428.017 419.698 431 169.238Z" fill="#BDD0FB"/>
<path opacity="0.43" d="M421.225 197.598C421.072 198.073 420.858 198.67 420.675 199.207L420.063 200.877L418.808 204.201L416.254 210.805C414.525 215.202 412.75 219.553 410.945 223.905C407.335 232.592 403.618 241.218 399.747 249.721C391.976 266.728 383.838 283.49 374.965 299.654C370.498 307.713 366 315.741 361.243 323.54C356.47 331.323 351.544 338.984 346.388 346.384C336.108 361.231 324.88 375.143 312.412 387.369C312.244 387.538 312.213 387.829 312.351 388.043C312.489 388.242 312.733 388.288 312.902 388.135C319.388 382.359 325.507 375.97 331.381 369.305C337.21 362.564 342.702 355.409 348.025 348.1C358.535 333.315 368.142 317.611 376.984 301.309C381.42 293.173 385.627 284.853 389.727 276.457C393.827 268.061 397.774 259.558 401.522 250.916C405.27 242.29 408.911 233.588 412.353 224.763C414.066 220.35 415.733 215.907 417.37 211.448C418.181 209.211 418.992 206.975 419.772 204.722L420.919 201.336L421.485 199.636C421.669 199.053 421.853 198.532 422.021 197.843C422.082 197.598 421.975 197.322 421.761 197.245C421.562 197.169 421.348 197.291 421.271 197.521L421.225 197.598Z" fill="white"/>
<g opacity="0.9">
<path opacity="0.9" d="M33.2113 82.137C21.9062 116.656 -35.6594 320.217 145.359 408.652C145.359 408.652 217.718 284.411 38.4278 81.0492C36.8522 79.2719 33.9456 79.8848 33.2113 82.137Z" fill="#91B3FA"/>
<path opacity="0.45" d="M38.1983 122.035C40.5848 133.404 43.2007 144.696 45.9237 155.988C48.6467 167.264 51.5074 178.51 54.4905 189.725C60.4566 212.156 66.9276 234.449 74.0869 256.542C81.2616 278.62 89.0635 300.515 98.0739 321.934C102.541 332.659 107.39 343.231 112.653 353.603C117.915 363.961 123.606 374.149 130.092 383.848C130.475 384.415 131.255 384.568 131.821 384.185C132.387 383.802 132.54 383.021 132.157 382.454C125.702 372.908 119.996 362.827 114.703 352.562C109.425 342.281 104.53 331.786 100.032 321.107C90.9604 299.81 83.0362 278.007 75.7697 256.006C68.5185 233.989 61.9405 211.758 55.852 189.373C52.8077 178.188 49.9011 166.958 47.1169 155.712C44.348 144.42 41.6709 133.143 39.2233 121.805C39.1621 121.514 38.8867 121.346 38.5961 121.407C38.3207 121.468 38.1371 121.744 38.1983 122.035Z" fill="white"/>
</g>
<path d="M293.503 192.666H169.836C165.277 192.666 161.544 188.928 161.544 184.362V47.1128C161.544 42.547 165.277 38.8086 169.836 38.8086H293.503C298.062 38.8086 301.795 42.547 301.795 47.1128V184.362C301.795 188.928 298.062 192.666 293.503 192.666Z" fill="url(#paint0_linear)"/>
<path d="M277.976 124.441H184.736C184.124 124.441 183.635 123.95 183.635 123.338V1.10314C183.635 0.490286 184.124 0 184.736 0H277.976C278.588 0 279.078 0.490286 279.078 1.10314V123.338C279.062 123.95 278.573 124.441 277.976 124.441Z" fill="#91B3FA"/>
<path d="M271.215 129.956H190.962C188.897 129.956 187.214 128.271 187.214 126.202V9.25375C187.214 7.18536 188.897 5.5 190.962 5.5H271.215C273.28 5.5 274.962 7.18536 274.962 9.25375V126.187C274.962 128.271 273.28 129.956 271.215 129.956Z" fill="#BDD0FB"/>
<g opacity="0.5">
<path opacity="0.5" d="M245.576 18.14H193.655C193.425 18.14 193.227 17.9408 193.227 17.711V15.3821C193.227 15.1523 193.425 14.9531 193.655 14.9531H245.576C245.805 14.9531 246.004 15.1523 246.004 15.3821V17.711C246.004 17.9561 245.82 18.14 245.576 18.14Z" fill="white"/>
<path opacity="0.5" d="M245.943 26.7044H194.022C193.793 26.7044 193.594 26.5053 193.594 26.2754V23.9466C193.594 23.7168 193.793 23.5176 194.022 23.5176H245.943C246.172 23.5176 246.371 23.7168 246.371 23.9466V26.2754C246.371 26.5206 246.172 26.7044 245.943 26.7044Z" fill="white"/>
<path opacity="0.5" d="M245.759 35.7454H193.838C193.609 35.7454 193.41 35.5463 193.41 35.3164V32.9876C193.41 32.7578 193.609 32.5586 193.838 32.5586H245.759C245.989 32.5586 246.187 32.7578 246.187 32.9876V35.3164C246.187 35.5616 246.004 35.7454 245.759 35.7454Z" fill="white"/>
<path opacity="0.5" d="M246.631 91.9137H194.711C194.481 91.9137 194.282 91.7145 194.282 91.4847V89.1712C194.282 88.9414 194.481 88.7422 194.711 88.7422H246.631C246.861 88.7422 247.06 88.9414 247.06 89.1712V91.5C247.06 91.7299 246.876 91.9137 246.631 91.9137Z" fill="white"/>
<path opacity="0.5" d="M246.631 103.189H194.711C194.481 103.189 194.282 102.99 194.282 102.76V100.431C194.282 100.201 194.481 100.002 194.711 100.002H246.631C246.861 100.002 247.06 100.201 247.06 100.431V102.76C247.06 102.99 246.876 103.189 246.631 103.189Z" fill="white"/>
<path opacity="0.5" d="M246.126 44.3099H194.206C193.976 44.3099 193.777 44.1107 193.777 43.8809V41.5521C193.777 41.3222 193.976 41.123 194.206 41.123H246.126C246.356 41.123 246.555 41.3222 246.555 41.5521V43.8809C246.555 44.126 246.356 44.3099 246.126 44.3099Z" fill="white"/>
<path opacity="0.5" d="M267.207 53.9779H193.655C193.425 53.9779 193.227 53.7787 193.227 53.5489V51.22C193.227 50.9902 193.425 50.791 193.655 50.791H267.207C267.436 50.791 267.635 50.9902 267.635 51.22V53.5489C267.635 53.794 267.436 53.9779 267.207 53.9779Z" fill="white"/>
<path opacity="0.5" d="M245.943 62.9095H194.022C193.793 62.9095 193.594 62.7103 193.594 62.4805V60.1517C193.594 59.9218 193.793 59.7227 194.022 59.7227H245.943C246.172 59.7227 246.371 59.9218 246.371 60.1517V62.4805C246.371 62.7256 246.172 62.9095 245.943 62.9095Z" fill="white"/>
<path opacity="0.5" d="M245.759 73.1908H193.838C193.609 73.1908 193.41 72.9916 193.41 72.7618V70.4329C193.41 70.2031 193.609 70.0039 193.838 70.0039H245.759C245.989 70.0039 246.187 70.2031 246.187 70.4329V72.7618C246.187 73.0069 246.004 73.1908 245.759 73.1908Z" fill="white"/>
<path opacity="0.5" d="M268.308 63.3236H249.462C249.232 63.3236 249.033 63.1244 249.033 62.8946V60.5657C249.033 60.3359 249.232 60.1367 249.462 60.1367H268.308C268.538 60.1367 268.737 60.3359 268.737 60.5657V62.8946C268.737 63.1244 268.538 63.3236 268.308 63.3236Z" fill="white"/>
<path opacity="0.5" d="M217.351 81.9837H194.711C194.481 81.9837 194.282 81.7846 194.282 81.5547V79.2259C194.282 78.9961 194.481 78.7969 194.711 78.7969H217.351C217.581 78.7969 217.78 78.9961 217.78 79.2259V81.5547C217.78 81.7999 217.596 81.9837 217.351 81.9837Z" fill="white"/>
</g>
<path d="M341.844 128.133C343.007 176.227 346.786 342.143 344.98 400.947C344.782 407.182 339.902 412.177 333.813 412.376C303.692 413.388 193.242 415.946 143.967 413.832C133.703 413.388 125.549 404.884 125.335 394.389C124.31 343.905 122.046 201.906 127.415 136.851C128.058 129.053 134.039 122.847 141.657 122.066C174.471 118.711 285.38 110.498 327.954 113.333C335.649 113.838 341.661 120.273 341.844 128.133Z" fill="url(#paint1_linear)"/>
<path d="M322.447 149.339V190.109C322.447 197.923 317.49 204.266 311.386 204.266H159.204C153.1 204.266 148.144 197.923 148.144 190.109V149.339C148.144 141.525 153.1 135.182 159.204 135.182H311.386C317.49 135.182 322.447 141.525 322.447 149.339Z" fill="#91B3FA"/>
<path opacity="0.2" d="M156.221 148.036C157.598 146.274 159.449 145.278 161.376 145.263L303.799 144.313C307.608 144.282 310.775 148.02 311.05 152.877L313.452 193.341C313.651 196.651 309.352 199.378 303.937 199.393L163.916 199.654C158.5 199.669 154.049 196.957 154.064 193.648V154.655C154.079 152.188 154.844 149.798 156.221 148.036Z" fill="white"/>
<path d="M159.173 363.486C159.173 370.457 164.818 376.111 171.779 376.111H187.122C194.083 376.111 199.728 370.457 199.728 363.486C199.728 356.515 194.083 350.861 187.122 350.861H171.779C164.818 350.861 159.173 356.515 159.173 363.486Z" fill="url(#paint2_linear)"/>
<path d="M269.608 363.486C269.608 370.457 275.253 376.111 282.214 376.111H297.557C304.518 376.111 310.163 370.457 310.163 363.486C310.163 356.515 304.518 350.861 297.557 350.861H282.214C275.253 350.861 269.608 356.515 269.608 363.486Z" fill="#7D97F4"/>
<path d="M214.796 363.486C214.796 370.457 220.441 376.111 227.401 376.111H242.745C249.706 376.111 255.35 370.457 255.35 363.486C255.35 356.515 249.706 350.861 242.745 350.861H227.401C220.441 350.861 214.796 356.515 214.796 363.486Z" fill="url(#paint3_linear)"/>
<path d="M302.147 258.963H295.079C290.062 258.963 285.977 254.857 285.977 249.847V248.269C285.977 243.243 290.077 239.152 295.079 239.152H302.147C307.164 239.152 311.249 243.258 311.249 248.269V249.847C311.249 254.857 307.149 258.963 302.147 258.963Z" fill="#7D97F4"/>
<path d="M302.147 292.731H295.079C290.062 292.731 285.977 288.624 285.977 283.614V282.036C285.977 277.011 290.077 272.92 295.079 272.92H302.147C307.164 272.92 311.249 277.026 311.249 282.036V283.614C311.249 288.624 307.149 292.731 302.147 292.731Z" fill="#7D97F4"/>
<path d="M302.147 326.516H295.079C290.062 326.516 285.977 322.41 285.977 317.399V315.821C285.977 310.796 290.077 306.705 295.079 306.705H302.147C307.164 306.705 311.249 310.811 311.249 315.821V317.399C311.249 322.41 307.149 326.516 302.147 326.516Z" fill="#7D97F4"/>
<path d="M261.087 258.963H254.02C249.002 258.963 244.917 254.857 244.917 249.847V248.269C244.917 243.243 249.017 239.152 254.02 239.152H261.087C266.105 239.152 270.189 243.258 270.189 248.269V249.847C270.189 254.857 266.09 258.963 261.087 258.963Z" fill="#7D97F4"/>
<path d="M261.087 292.731H254.02C249.002 292.731 244.917 288.624 244.917 283.614V282.036C244.917 277.011 249.017 272.92 254.02 272.92H261.087C266.105 272.92 270.189 277.026 270.189 282.036V283.614C270.189 288.624 266.09 292.731 261.087 292.731Z" fill="#7D97F4"/>
<path d="M260.72 326.516H253.653C248.635 326.516 244.551 322.41 244.551 317.399V315.821C244.551 310.796 248.651 306.705 253.653 306.705H260.72C265.738 306.705 269.823 310.811 269.823 315.821V317.399C269.838 322.41 265.738 326.516 260.72 326.516Z" fill="#7D97F4"/>
<path d="M219.661 258.963H212.593C207.576 258.963 203.491 254.857 203.491 249.847V248.269C203.491 243.243 207.591 239.152 212.593 239.152H219.661C224.679 239.152 228.763 243.258 228.763 248.269V249.847C228.778 254.857 224.679 258.963 219.661 258.963Z" fill="#7D97F4"/>
<path d="M219.661 292.731H212.593C207.576 292.731 203.491 288.624 203.491 283.614V282.036C203.491 277.011 207.591 272.92 212.593 272.92H219.661C224.679 272.92 228.763 277.026 228.763 282.036V283.614C228.778 288.624 224.679 292.731 219.661 292.731Z" fill="#7D97F4"/>
<path d="M219.661 326.516H212.593C207.576 326.516 203.491 322.41 203.491 317.399V315.821C203.491 310.796 207.591 306.705 212.593 306.705H219.661C224.679 306.705 228.763 310.811 228.763 315.821V317.399C228.778 322.41 224.679 326.516 219.661 326.516Z" fill="#7D97F4"/>
<path d="M174.517 258.963H167.449C162.432 258.963 158.347 254.857 158.347 249.847V248.269C158.347 243.243 162.447 239.152 167.449 239.152H174.517C179.535 239.152 183.619 243.258 183.619 248.269V249.847C183.634 254.857 179.535 258.963 174.517 258.963Z" fill="#7D97F4"/>
<path d="M174.517 292.731H167.449C162.432 292.731 158.347 288.624 158.347 283.614V282.036C158.347 277.011 162.447 272.92 167.449 272.92H174.517C179.535 272.92 183.619 277.026 183.619 282.036V283.614C183.634 288.624 179.535 292.731 174.517 292.731Z" fill="#7D97F4"/>
<path d="M174.517 326.516H167.449C162.432 326.516 158.347 322.41 158.347 317.399V315.821C158.347 310.796 162.447 306.705 167.449 306.705H174.517C179.535 306.705 183.619 310.811 183.619 315.821V317.399C183.634 322.41 179.535 326.516 174.517 326.516Z" fill="#7D97F4"/>
<path d="M177.775 229.592H157.72C155.685 229.592 154.002 227.922 154.002 225.869V225.225C154.002 223.187 155.67 221.502 157.72 221.502H177.791C179.825 221.502 181.508 223.172 181.508 225.225V225.869C181.493 227.922 179.825 229.592 177.775 229.592Z" fill="#7D97F4"/>
<path d="M223.608 229.592H203.537C201.503 229.592 199.82 227.922 199.82 225.869V225.225C199.82 223.187 201.487 221.502 203.537 221.502H223.608C225.643 221.502 227.325 223.172 227.325 225.225V225.869C227.31 227.922 225.643 229.592 223.608 229.592Z" fill="#7D97F4"/>
<path d="M265.753 229.592H245.683C243.648 229.592 241.965 227.922 241.965 225.869V225.225C241.965 223.187 243.633 221.502 245.683 221.502H265.753C267.788 221.502 269.471 223.172 269.471 225.225V225.869C269.471 227.922 267.788 229.592 265.753 229.592Z" fill="#7D97F4"/>
<path d="M311.57 229.592H291.499C289.465 229.592 287.782 227.922 287.782 225.869V225.225C287.782 223.187 289.449 221.502 291.499 221.502H311.57C313.604 221.502 315.287 223.172 315.287 225.225V225.869C315.287 227.922 313.604 229.592 311.57 229.592Z" fill="#7D97F4"/>
<path d="M21.5085 78.2775C30.1769 78.2775 37.2041 71.2395 37.2041 62.5577C37.2041 53.8759 30.1769 46.8379 21.5085 46.8379C12.8401 46.8379 5.81299 53.8759 5.81299 62.5577C5.81299 71.2395 12.8401 78.2775 21.5085 78.2775Z" fill="url(#paint4_linear)"/>
<path d="M21.5084 77.7571C29.8896 77.7571 36.6838 70.9523 36.6838 62.5582C36.6838 54.1641 29.8896 47.3594 21.5084 47.3594C13.1273 47.3594 6.33301 54.1641 6.33301 62.5582C6.33301 70.9523 13.1273 77.7571 21.5084 77.7571Z" fill="url(#paint5_linear)"/>
<path d="M8.99506 56.8275C8.90327 56.8275 8.81149 56.8122 8.735 56.7663C8.44434 56.613 8.32196 56.2606 8.47494 55.9695C10.9685 51.0054 15.9709 47.9258 21.5087 47.9258C22.3959 47.9258 23.2832 48.0024 24.1399 48.1556C24.4611 48.2169 24.6753 48.5233 24.6141 48.8451C24.5529 49.1668 24.247 49.3813 23.9257 49.32C23.1302 49.1821 22.3194 49.1055 21.5087 49.1055C16.4145 49.1055 11.8252 51.94 9.53048 56.4905C9.4234 56.705 9.20923 56.8275 8.99506 56.8275Z" fill="white"/>
<path opacity="0.78" d="M21.8446 75.7347C28.9331 75.7347 34.6795 69.9795 34.6795 62.8801C34.6795 55.7806 28.9331 50.0254 21.8446 50.0254C14.7561 50.0254 9.00977 55.7806 9.00977 62.8801C9.00977 69.9795 14.7561 75.7347 21.8446 75.7347Z" fill="white"/>
<path d="M20.5752 72.4411V71.0468C19.1219 70.9856 17.6839 70.6485 16.659 70.1888C16.2918 70.0356 16.1083 69.6219 16.2154 69.2389L16.5672 67.9366C16.7049 67.4616 17.2097 67.2165 17.6686 67.4003C18.6783 67.8293 19.9327 68.1664 21.2942 68.1664C22.7016 68.1664 23.7419 67.6914 23.7419 66.7109C23.7419 65.8222 22.9311 65.3013 20.9883 64.7804C18.2041 64.0143 16.2154 62.8039 16.2154 60.3525C16.2154 58.1309 17.8369 56.4455 20.6364 56.0012V54.607C20.6364 54.1626 21.0036 53.7949 21.4472 53.7949H22.2733C22.7169 53.7949 23.0841 54.1626 23.0841 54.607V55.8633C24.4303 55.9246 25.4093 56.1544 26.1895 56.4149C26.5873 56.5528 26.8014 56.9818 26.6943 57.3955L26.3731 58.6058C26.2507 59.0655 25.7459 59.326 25.3022 59.1574C24.5832 58.8816 23.5736 58.6058 22.258 58.6058C20.5905 58.6058 20.1163 59.2953 20.1163 59.9082C20.1163 60.6742 21.1106 61.1952 23.2829 61.854C26.3731 62.7886 27.6581 64.0756 27.6581 66.3738C27.6581 68.4882 26.0824 70.4033 23.0382 70.8783V72.4411C23.0382 72.8854 22.671 73.2531 22.2274 73.2531H21.4013C20.9424 73.2531 20.5752 72.9007 20.5752 72.4411Z" fill="url(#paint6_linear)"/>
<path d="M66.193 71.275C81.2824 71.275 93.5148 59.0237 93.5148 43.9109C93.5148 28.7982 81.2824 16.5469 66.193 16.5469C51.1035 16.5469 38.8711 28.7982 38.8711 43.9109C38.8711 59.0237 51.1035 71.275 66.193 71.275Z" fill="url(#paint7_linear)"/>
<path d="M66.1927 70.3714C80.7837 70.3714 92.612 58.5248 92.612 43.9113C92.612 29.2978 80.7837 17.4512 66.1927 17.4512C51.6018 17.4512 39.7734 29.2978 39.7734 43.9113C39.7734 58.5248 51.6018 70.3714 66.1927 70.3714Z" fill="url(#paint8_linear)"/>
<path d="M44.4086 33.5073C44.3168 33.5073 44.2251 33.4919 44.1486 33.446C43.8579 33.2928 43.7355 32.9404 43.8885 32.6493C48.1719 24.1612 56.7081 18.8906 66.1927 18.8906C67.7072 18.8906 69.2216 19.0285 70.6902 19.289C71.0115 19.3503 71.2257 19.6567 71.1645 19.9784C71.1033 20.3002 70.7973 20.5147 70.4761 20.4534C69.0687 20.1929 67.6307 20.0704 66.1774 20.0704C57.1364 20.0704 48.998 25.0958 44.9288 33.1702C44.8217 33.3847 44.6228 33.5073 44.4086 33.5073Z" fill="white"/>
<path opacity="0.78" d="M66.7588 66.863C79.1024 66.863 89.1088 56.841 89.1088 44.4784C89.1088 32.1157 79.1024 22.0938 66.7588 22.0938C54.4152 22.0938 44.4087 32.1157 44.4087 44.4784C44.4087 56.841 54.4152 66.863 66.7588 66.863Z" fill="white"/>
<path d="M64.5712 61.1315V58.6954C62.0318 58.5882 59.523 57.9906 57.7484 57.2092C57.1059 56.9334 56.7846 56.2133 56.9682 55.5392L57.5801 53.2716C57.8096 52.4443 58.7122 52.0153 59.5077 52.337C61.2822 53.0724 63.4545 53.67 65.8104 53.67C68.258 53.67 70.0784 52.8426 70.0784 51.1419C70.0784 49.6098 68.671 48.6905 65.2749 47.7866C60.4255 46.4536 56.9529 44.3392 56.9529 40.0799C56.9529 36.2189 59.7677 33.2772 64.6477 32.4958V30.0597C64.6477 29.2783 65.2749 28.6348 66.0704 28.6348H67.4931C68.2733 28.6348 68.9158 29.2629 68.9158 30.0597V32.2506C71.2564 32.3426 72.9697 32.7409 74.3312 33.2159C75.0196 33.461 75.4021 34.2118 75.2185 34.9166L74.6525 37.0156C74.4383 37.8276 73.5663 38.2719 72.7861 37.9655C71.5317 37.4906 69.7725 37.0003 67.4778 37.0003C64.5865 37.0003 63.7451 38.1953 63.7451 39.2832C63.7451 40.6161 65.4891 41.5201 69.2524 42.6845C74.6372 44.3086 76.8707 46.5455 76.8707 50.5597C76.8707 54.2522 74.1324 57.5616 68.8393 58.389V61.1315C68.8393 61.9129 68.2121 62.5564 67.4166 62.5564H65.9939C65.1984 62.5564 64.5712 61.9129 64.5712 61.1315Z" fill="url(#paint9_linear)"/>
<path d="M85.0251 133.189C100.554 133.189 113.142 120.581 113.142 105.028C113.142 89.4752 100.554 76.8672 85.0251 76.8672C69.4963 76.8672 56.9077 89.4752 56.9077 105.028C56.9077 120.581 69.4963 133.189 85.0251 133.189Z" fill="url(#paint10_linear)"/>
<path d="M85.025 132.255C100.038 132.255 112.209 120.066 112.209 105.029C112.209 89.9923 100.038 77.8027 85.025 77.8027C70.0116 77.8027 57.8408 89.9923 57.8408 105.029C57.8408 120.066 70.0116 132.255 85.025 132.255Z" fill="url(#paint11_linear)"/>
<path d="M62.6137 94.318C62.5219 94.318 62.4301 94.3027 62.3537 94.2567C62.063 94.1035 61.9406 93.7511 62.0936 93.46C66.4841 84.7421 75.2803 79.3184 85.025 79.3184C86.5854 79.3184 88.1457 79.4563 89.6602 79.732C89.9815 79.7933 90.1957 80.0998 90.1345 80.4215C90.0733 80.7433 89.7673 80.9577 89.4461 80.8965C87.9928 80.636 86.5089 80.4981 85.025 80.4981C75.7239 80.4981 67.3407 85.6767 63.1338 93.9963C63.0421 94.1954 62.8279 94.318 62.6137 94.318Z" fill="white"/>
<path opacity="0.78" d="M85.6216 128.669C98.3285 128.669 108.63 118.352 108.63 105.625C108.63 92.8989 98.3285 82.582 85.6216 82.582C72.9147 82.582 62.6138 92.8989 62.6138 105.625C62.6138 118.352 72.9147 128.669 85.6216 128.669Z" fill="white"/>
<path d="M83.373 122.755V120.242C80.7571 120.135 78.1871 119.522 76.3514 118.71C75.6936 118.419 75.357 117.684 75.5559 116.994L76.1984 114.665C76.4279 113.807 77.361 113.363 78.1718 113.715C79.9922 114.481 82.241 115.079 84.6581 115.079C87.1669 115.079 89.0485 114.221 89.0485 112.474C89.0485 110.896 87.5952 109.962 84.1073 109.012C79.1203 107.648 75.5406 105.472 75.5406 101.075C75.5406 97.1069 78.4319 94.0733 83.4648 93.2612V90.7485C83.4648 89.9365 84.1226 89.293 84.9181 89.293H86.3867C87.1975 89.293 87.84 89.9518 87.84 90.7485V93.0008C90.2571 93.0927 92.0163 93.5064 93.4084 93.9967C94.1274 94.2418 94.5098 95.0232 94.311 95.7586L93.7297 97.9189C93.5002 98.7463 92.6129 99.2059 91.8174 98.8995C90.5324 98.4092 88.712 97.9036 86.3561 97.9036C83.373 97.9036 82.5164 99.1447 82.5164 100.248C82.5164 101.611 84.3062 102.546 88.1766 103.741C93.7144 105.411 96.009 107.709 96.009 111.846C96.009 115.646 93.1942 119.063 87.7482 119.905V122.709C87.7482 123.521 87.0904 124.165 86.2949 124.165H84.8263C84.0156 124.211 83.373 123.552 83.373 122.755Z" fill="url(#paint12_linear)"/>
<path d="M121.097 87.3169C132.478 87.3169 141.703 78.077 141.703 66.679C141.703 55.2809 132.478 46.041 121.097 46.041C109.717 46.041 100.491 55.2809 100.491 66.679C100.491 78.077 109.717 87.3169 121.097 87.3169Z" fill="url(#paint13_linear)"/>
<path d="M121.097 86.6275C132.098 86.6275 141.015 77.6962 141.015 66.679C141.015 55.6617 132.098 46.7305 121.097 46.7305C110.097 46.7305 101.18 55.6617 101.18 66.679C101.18 77.6962 110.097 86.6275 121.097 86.6275Z" fill="url(#paint14_linear)"/>
<path d="M104.683 58.9713C104.591 58.9713 104.499 58.956 104.422 58.91C104.132 58.7568 104.009 58.4044 104.162 58.1133C107.406 51.663 113.907 47.6641 121.112 47.6641C122.26 47.6641 123.407 47.7713 124.539 47.9705C124.86 48.0318 125.075 48.3382 125.013 48.66C124.952 48.9817 124.646 49.1962 124.325 49.1349C123.269 48.9357 122.199 48.8438 121.112 48.8438C114.351 48.8438 108.262 52.5976 105.218 58.6495C105.096 58.864 104.897 58.9713 104.683 58.9713Z" fill="white"/>
<path opacity="0.78" d="M121.541 83.993C130.851 83.993 138.399 76.4337 138.399 67.1088C138.399 57.7839 130.851 50.2246 121.541 50.2246C112.23 50.2246 104.683 57.7839 104.683 67.1088C104.683 76.4337 112.23 83.993 121.541 83.993Z" fill="white"/>
<path d="M119.874 79.6552V77.8167C117.962 77.74 116.065 77.2957 114.734 76.6982C114.259 76.4837 114.015 75.9474 114.152 75.4418L114.611 73.7258C114.78 73.0977 115.468 72.7759 116.065 73.021C117.396 73.5879 119.048 74.0169 120.822 74.0169C122.658 74.0169 124.035 73.3888 124.035 72.1171C124.035 70.968 122.979 70.2785 120.409 69.589C116.753 68.5932 114.137 66.9997 114.137 63.7822C114.137 60.8711 116.263 58.6495 119.935 58.0673V56.2288C119.935 55.6312 120.409 55.1562 121.006 55.1562H122.077C122.673 55.1562 123.148 55.6312 123.148 56.2288V57.8835C124.922 57.9601 126.207 58.2512 127.232 58.6189C127.752 58.8028 128.043 59.3696 127.89 59.9059L127.461 61.484C127.293 62.0969 126.651 62.4339 126.054 62.2041C125.106 61.8517 123.79 61.484 122.061 61.484C119.874 61.484 119.247 62.388 119.247 63.2C119.247 64.1959 120.562 64.8854 123.392 65.7587C127.446 66.9844 129.129 68.6698 129.129 71.7034C129.129 74.4919 127.064 76.9893 123.071 77.6175V79.6705C123.071 80.2681 122.597 80.743 122 80.743H120.929C120.363 80.7277 119.874 80.2528 119.874 79.6552Z" fill="url(#paint15_linear)"/>
<path d="M97.7219 270.01C97.7219 270.01 97.0488 299.182 66.4226 304.299L60.9307 298.86C60.9307 298.86 87.4571 289.836 94.3564 270.96L92.8878 260.955L93.928 254.336L97.7219 270.01Z" fill="url(#paint16_linear)"/>
<path d="M198.978 282.284C170.417 301.666 145.39 302.57 116.003 289.929C114.106 289.117 112.836 287.263 112.775 285.195L112.745 284C112.637 280.338 116.171 277.657 119.659 278.775C144.946 286.85 163.793 290.879 193.287 273.306C196.531 271.375 200.707 273.367 201.242 277.105C201.564 279.128 200.676 281.15 198.978 282.284Z" fill="url(#paint17_linear)"/>
<path d="M194.404 296.532L209.074 271.818C209.518 271.067 208.998 270.102 208.126 270.071L180.529 268.876C179.504 268.83 178.815 269.918 179.274 270.822C186.204 279.004 190.411 287.584 192.385 296.47C192.798 297.282 193.945 297.313 194.404 296.532Z" fill="url(#paint18_linear)"/>
<path d="M219.982 164.307L220.869 240.776L221.007 252.62C221.068 254.167 219.844 255.47 218.299 255.531L66.6217 260.894C65.0766 260.955 63.7763 259.729 63.7151 258.182L63.1338 246.353L59.3859 170.926C59.3247 169.379 61.038 166.299 64.3729 166.406L212.471 157.321C214.398 157.198 216.311 157.887 217.718 159.205C219.141 160.523 219.967 162.361 219.982 164.307Z" fill="url(#paint19_linear)"/>
<path d="M217.213 250.353C217.259 251.794 216.096 253.019 214.628 253.065L70.1555 258.167C68.6869 258.213 67.4478 257.08 67.3866 255.639L63.3174 174.221C63.2715 172.781 64.893 169.901 68.075 170.008L209.151 161.428C210.987 161.321 212.807 161.949 214.154 163.174C215.5 164.4 216.28 166.131 216.295 167.939L217.213 250.353Z" fill="url(#paint20_linear)"/>
<path d="M198.397 254.489C198.137 254.489 197.923 254.29 197.923 254.029C197.907 253.769 198.122 253.539 198.382 253.524L214.551 252.957C216.494 252.896 218.33 250.904 218.269 248.943L216.525 199.393C216.509 199.133 216.724 198.903 216.984 198.887C217.244 198.872 217.473 199.087 217.489 199.347L219.232 248.897C219.324 251.379 217.06 253.815 214.597 253.907L198.412 254.489C198.397 254.489 198.397 254.489 198.397 254.489Z" fill="#BDD0FB"/>
<path d="M64.5104 205.26C64.2504 205.26 64.0362 205.061 64.0362 204.801L62.996 175.108C62.9501 173.591 63.4702 172.043 64.434 170.864C65.4589 169.607 66.851 168.887 68.3502 168.841L81.2003 168.382C81.4451 168.366 81.6899 168.581 81.7051 168.841C81.7204 169.102 81.5063 169.332 81.2462 169.347L68.3961 169.807C67.1723 169.852 66.0402 170.45 65.1988 171.477C64.3728 172.488 63.9291 173.79 63.975 175.077L65.0153 204.77C65.0306 205.03 64.8164 205.26 64.5563 205.276C64.5257 205.26 64.5104 205.26 64.5104 205.26Z" fill="#BDD0FB"/>
<path d="M100.95 201.156C100.888 199.608 99.588 198.382 98.043 198.444L79.3032 199.102C77.7581 199.164 76.5343 200.466 76.5955 202.014L77.1003 216.278C77.1615 217.825 78.4618 219.051 80.0069 218.99L98.7467 218.331C100.292 218.27 101.516 216.967 101.454 215.42L100.95 201.156Z" fill="url(#paint21_linear)"/>
<path opacity="0.8" d="M85.4837 212.861C84.7647 212.861 84.1834 212.295 84.1528 211.574L83.9846 206.871C83.954 206.135 84.5353 205.507 85.2696 205.492L90.6085 205.308C90.9757 205.293 91.2969 205.415 91.557 205.66C91.817 205.905 91.97 206.227 91.9853 206.595L92.1536 211.299C92.1689 211.651 92.0465 211.988 91.8017 212.264C91.557 212.524 91.2357 212.678 90.8686 212.693L85.5296 212.877C85.5143 212.861 85.499 212.861 85.4837 212.861ZM90.6697 206.258C90.6544 206.258 90.6544 206.258 90.6697 206.258L85.3155 206.442C85.1166 206.442 84.9483 206.626 84.9636 206.825L85.1319 211.528C85.1319 211.62 85.1778 211.712 85.2543 211.789C85.3308 211.85 85.4225 211.881 85.5143 211.881L90.8533 211.697C90.9451 211.697 91.0369 211.651 91.1133 211.574C91.1745 211.498 91.2204 211.406 91.2051 211.314L91.0369 206.61C91.0369 206.518 90.991 206.411 90.9145 206.35C90.8533 206.289 90.7615 206.258 90.6697 206.258Z" fill="white"/>
<path d="M76.81 208.677C76.5499 208.677 76.3357 208.478 76.3357 208.218C76.3204 207.957 76.5346 207.727 76.7947 207.712L84.4894 207.436C84.7342 207.421 84.9789 207.635 84.9942 207.896C85.0095 208.156 84.7954 208.386 84.5353 208.402L76.8406 208.677C76.8253 208.677 76.8253 208.677 76.81 208.677Z" fill="white"/>
<path d="M76.8866 210.593C76.6266 210.593 76.4124 210.394 76.4124 210.134C76.3971 209.873 76.6113 209.643 76.8713 209.628L84.5661 209.352C84.8109 209.337 85.0556 209.552 85.0709 209.812C85.0862 210.072 84.8721 210.302 84.612 210.318L76.9172 210.593C76.9019 210.593 76.8866 210.593 76.8866 210.593Z" fill="white"/>
<path d="M92.8266 208.111C92.5665 208.111 92.3523 207.911 92.3523 207.651C92.337 207.391 92.5512 207.161 92.8113 207.145L101.133 206.854C101.378 206.839 101.623 207.053 101.638 207.314C101.653 207.574 101.439 207.804 101.179 207.82L92.8572 208.111C92.8419 208.111 92.8419 208.111 92.8266 208.111Z" fill="white"/>
<path d="M92.9032 210.026C92.6432 210.026 92.429 209.827 92.429 209.566C92.4137 209.306 92.6279 209.076 92.8879 209.061L101.21 208.77C101.455 208.77 101.699 208.969 101.715 209.229C101.73 209.49 101.516 209.719 101.256 209.735L92.9338 210.026C92.9185 210.026 92.9032 210.026 92.9032 210.026Z" fill="white"/>
<path d="M86.1876 206.44C85.9734 206.44 85.7899 206.302 85.7287 206.087L83.8317 199.162C83.7553 198.902 83.9082 198.641 84.1683 198.565C84.4284 198.488 84.6884 198.641 84.7649 198.902L86.6618 205.827C86.7383 206.088 86.5854 206.348 86.3253 206.425C86.2794 206.44 86.2335 206.44 86.1876 206.44Z" fill="white"/>
<path d="M90.6546 206.288C90.624 206.288 90.5934 206.288 90.5628 206.272C90.3028 206.211 90.1345 205.966 90.1957 205.706L91.6643 198.658C91.7255 198.397 91.9702 198.229 92.2303 198.29C92.4904 198.351 92.6586 198.596 92.5974 198.857L91.1289 205.905C91.083 206.135 90.8841 206.288 90.6546 206.288Z" fill="white"/>
<path d="M84.9945 219.556C84.9639 219.556 84.9333 219.556 84.9027 219.54C84.6426 219.495 84.4743 219.234 84.5202 218.974L85.9276 211.926C85.9735 211.665 86.2336 211.497 86.4937 211.543C86.7537 211.589 86.922 211.849 86.8761 212.11L85.4687 219.157C85.4228 219.387 85.2239 219.556 84.9945 219.556Z" fill="white"/>
<path d="M92.8269 219.28C92.6127 219.28 92.4292 219.142 92.368 218.927L90.4099 212.002C90.3334 211.742 90.4864 211.481 90.7464 211.405C91.0065 211.328 91.2665 211.481 91.343 211.742L93.3011 218.667C93.3776 218.927 93.2246 219.188 92.9646 219.264C92.9187 219.264 92.8728 219.28 92.8269 219.28Z" fill="white"/>
<path opacity="0.47" d="M100.215 180.257C100.277 182.095 98.8387 183.643 97.0029 183.719L76.1215 184.455C74.2857 184.516 72.7406 183.076 72.6642 181.237L72.6489 180.854C72.5877 179.016 74.0257 177.468 75.8614 177.392L96.7429 176.656C98.5786 176.595 100.124 178.035 100.2 179.874L100.215 180.257Z" fill="white"/>
<g opacity="0.47">
<path opacity="0.47" d="M103.903 230.39C103.964 232.152 102.587 233.622 100.843 233.684L77.728 234.496C75.9688 234.557 74.5002 233.178 74.439 231.431V231.385C74.3778 229.623 75.7546 228.153 77.4985 228.091L100.613 227.279C102.373 227.218 103.841 228.597 103.903 230.344V230.39Z" fill="white"/>
<path opacity="0.47" d="M137.221 229.21C137.282 230.972 135.905 232.443 134.161 232.504L111.046 233.316C109.287 233.377 107.819 231.998 107.757 230.252V230.206C107.696 228.444 109.073 226.973 110.817 226.912L133.932 226.1C135.691 226.038 137.16 227.417 137.221 229.164V229.21Z" fill="white"/>
<path opacity="0.47" d="M170.54 228.03C170.601 229.792 169.224 231.263 167.48 231.324L144.365 232.136C142.606 232.198 141.137 230.819 141.076 229.072V229.026C141.015 227.264 142.392 225.793 144.136 225.732L167.251 224.92C169.01 224.859 170.479 226.238 170.54 227.984V228.03Z" fill="white"/>
<path opacity="0.47" d="M204.486 226.835C204.547 228.597 203.17 230.068 201.426 230.129L178.311 230.941C176.552 231.002 175.083 229.623 175.022 227.877V227.831C174.961 226.069 176.338 224.598 178.082 224.537L201.197 223.725C202.956 223.663 204.424 225.042 204.486 226.789V226.835Z" fill="white"/>
</g>
<g opacity="0.47">
<path opacity="0.47" d="M126.176 243.749C126.222 245.143 125.136 246.323 123.743 246.369L80.7413 247.885C79.3492 247.931 78.1713 246.843 78.1254 245.449V245.373C78.0795 243.978 79.1657 242.799 80.5578 242.753L123.56 241.236C124.952 241.19 126.13 242.278 126.176 243.672V243.749Z" fill="white"/>
<path opacity="0.47" d="M201.104 239.811C201.15 241.205 200.064 242.385 198.672 242.431L180.024 243.09C178.632 243.136 177.454 242.048 177.408 240.654V240.577C177.362 239.183 178.448 238.003 179.84 237.957L198.489 237.298C199.881 237.252 201.059 238.34 201.104 239.734V239.811Z" fill="white"/>
</g>
<path d="M95.1211 157.505C120.531 132.715 145.711 127.26 177.744 134.722C179.81 135.212 181.431 136.836 181.86 138.92L182.12 140.13C182.9 143.823 179.794 147.178 176.062 146.688C149 143.103 129.174 142.428 102.495 165.564C99.5574 168.107 94.9834 166.851 93.7443 163.158C93.0865 161.166 93.6219 158.976 95.1211 157.505Z" fill="url(#paint22_linear)"/>
<path d="M97.1865 142.244L86.7993 169.93C86.4781 170.773 87.1818 171.646 88.069 171.523L116.217 167.739C117.257 167.601 117.777 166.375 117.135 165.533C108.645 158.5 102.831 150.579 99.2211 141.938C98.6704 141.202 97.5078 141.371 97.1865 142.244Z" fill="url(#paint23_linear)"/>
<path d="M68.1211 369.969C68.1211 369.969 53.5882 401.685 45.9699 414.831C45.9699 414.831 44.4554 423.104 45.9699 425.693L47.2549 426.26L41.2276 426.076C41.2276 426.076 40.6921 414.953 41.1052 414.34C41.5182 413.712 42.3596 413.758 42.3596 413.758C42.3596 413.758 44.9449 393.273 52.4256 388.891L59.6767 363.887L68.1211 369.969Z" fill="url(#paint24_linear)"/>
<path d="M49.8247 427.822C49.84 427.96 45.1283 427.898 42.5583 427.852C41.6098 427.837 40.8143 427.163 40.6001 426.244L38.6726 416.07C38.4891 415.105 39.101 414.17 40.0647 413.94L41.1509 413.695C41.1509 413.695 42.6959 415.81 42.2064 417.801C41.7169 419.793 41.2885 424.957 42.5124 425.554C43.7362 426.152 47.2547 426.259 47.2547 426.259C47.2547 426.259 49.7482 426.519 49.8247 427.822Z" fill="url(#paint25_linear)"/>
<path d="M81.8889 428.004C82.3631 428.28 82.1642 429 81.6135 429C77.3301 428.954 67.7384 428.816 66.8818 428.464C65.7803 428.004 67.2795 424.036 68.8705 422.703L77.6055 425.553L81.8889 428.004Z" fill="url(#paint26_linear)"/>
<path d="M84.5966 367.945C84.5966 367.945 75.2037 413.435 72.5572 422.321L78.8446 426.274C78.8446 426.274 75.6933 425.738 73.368 425.569C71.0427 425.401 68.8857 422.719 68.8857 422.719L69.6353 421.524C69.6353 421.524 71.9912 376.28 71.4099 371.132L84.5966 367.945Z" fill="url(#paint27_linear)"/>
<path d="M107.91 261.829C107.91 261.829 109.211 285.501 87.6865 297.589L92.8725 309.418C92.8725 309.418 112.347 297.62 111.628 265.43C111.612 264.51 111.934 263.606 112.545 262.917L116.691 258.106C118.267 256.267 118.863 253.785 118.267 251.441L117.716 249.266C117.533 248.53 116.706 248.178 116.049 248.561L115.62 248.806C114.244 249.603 113.157 250.828 112.5 252.284L110.465 256.834C109.7 258.535 107.956 259.562 106.105 259.408L104.851 259.301L107.91 261.829Z" fill="url(#paint28_linear)"/>
<path d="M88.4364 295.812C84.8414 296.807 72.6491 300.025 65.0308 299.887L69.7119 326.301L69.3447 330.607L84.5813 330.545C84.5813 330.545 88.8647 320.571 92.2608 315.592C93.2399 314.151 92.5056 312.435 91.9549 310.796L92.7198 310.29C93.5 309.769 93.8365 308.804 93.5458 307.915L89.8285 296.547C89.6296 295.98 89.0177 295.658 88.4364 295.812Z" fill="url(#paint29_linear)"/>
<path d="M85.7899 328.294L85.4839 330.899C85.4839 330.899 89.7826 343.815 83.3269 373.983C83.3269 373.983 69.3295 377.951 57.8408 368.452C57.8408 368.452 61.0839 339.984 61.9712 338.651C66.377 332.048 69.3295 330.608 69.3295 330.608L69.4671 327.758C69.4671 327.773 81.7665 329.995 85.7899 328.294Z" fill="url(#paint30_linear)"/>
<path d="M79.8235 297.941C79.8694 297.864 76.6415 288.166 76.6415 288.166L72.0063 288.58L70.2012 299.596C70.2012 299.596 77.4676 301.067 79.8235 297.941Z" fill="url(#paint31_linear)"/>
<path d="M73.1234 272.845C73.4293 273.044 83.021 277.012 80.9711 286.986C80.8488 287.569 80.451 288.074 79.9003 288.319C78.4929 288.947 75.4639 290.02 71.8384 289.652C66.8207 289.147 63.5164 280.352 63.654 277.809C63.807 275.25 70.0638 270.929 73.1234 272.845Z" fill="url(#paint32_linear)"/>
<path d="M70.2012 268.97C70.4459 269 75.739 270.854 73.123 274.684C70.4918 278.53 69.5128 280.782 70.7519 282.468C71.8839 284 74.3928 283.127 74.1633 286.329C74.1174 286.972 74.3928 287.585 74.9282 287.953C77.284 289.546 83.0513 294.48 77.3452 301.497C76.8863 302.064 76.7792 302.861 77.1464 303.504C78.8138 306.507 82.3323 315.302 69.6198 320.174C57.0604 325 52.5322 316.772 51.2625 313.494C50.9871 312.789 50.2834 312.344 49.5339 312.39C48.1571 312.452 46.1989 312.222 46.2907 310.383C46.3519 309.265 47.0403 308.254 47.8664 307.457C48.6772 306.66 48.5242 305.266 47.5298 304.699C46.7803 304.27 46.1224 303.611 45.8318 302.569C45.0669 299.75 46.5967 291.308 54.6739 289.868C55.347 289.745 56.0507 289.117 56.1578 288.443C56.1578 288.428 56.1578 288.428 56.1578 288.412C56.2649 287.754 56.0507 287.079 55.5153 286.696C54.2303 285.746 52.5628 283.847 53.909 280.782C55.1022 278.07 57.3816 277.151 59.0797 276.86C60.074 276.692 60.7318 275.742 60.5177 274.746C59.9516 272.018 60.4565 267.683 70.2012 268.97Z" fill="url(#paint33_linear)"/>
<path d="M305.36 333.439C305.344 333.439 305.329 333.439 305.314 333.439C304.595 333.409 304.029 332.811 304.059 332.091C304.09 331.279 304.931 312.02 313.85 304.665C316.695 302.321 320.046 301.417 323.824 302C331.335 303.164 336.72 308.818 339.382 318.348C341.34 325.35 341.156 331.892 341.156 332.168C341.141 332.888 340.514 333.439 339.81 333.424C339.091 333.409 338.525 332.796 338.541 332.076C338.556 331.831 339.107 306.994 323.411 304.558C320.367 304.083 317.781 304.773 315.502 306.657C307.486 313.276 306.675 331.984 306.66 332.168C306.629 332.888 306.048 333.439 305.36 333.439Z" fill="url(#paint34_linear)"/>
<path d="M371.874 414.857L358.81 326.13L309.719 325.318L293.901 419.79H367.622C370.253 419.79 372.257 417.461 371.874 414.857Z" fill="url(#paint35_linear)"/>
<path d="M300.189 326.13L309.719 325.318L293.901 419.79H284.432C282.52 419.79 281.082 418.028 281.464 416.144L300.189 326.13Z" fill="url(#paint36_linear)"/>
<path d="M315.9 333.24C315.884 333.24 315.869 333.24 315.854 333.24C315.135 333.209 314.569 332.612 314.599 331.891C314.63 331.079 315.471 311.82 324.39 304.466C327.235 302.122 330.586 301.218 334.364 301.8C341.875 302.965 347.26 308.618 349.922 318.148C351.88 325.15 351.696 331.692 351.696 331.968C351.681 332.688 351.069 333.27 350.35 333.224C349.631 333.209 349.065 332.596 349.081 331.876C349.096 331.631 349.647 306.795 333.951 304.359C330.907 303.884 328.321 304.573 326.042 306.458C318.026 313.061 317.215 331.784 317.2 331.968C317.185 332.688 316.603 333.24 315.9 333.24Z" fill="url(#paint37_linear)"/>
</g>
<defs>
<linearGradient id="paint0_linear" x1="253.621" y1="-28.901" x2="232.264" y2="111.392" gradientUnits="userSpaceOnUse">
<stop stop-color="#09005D"/>
<stop offset="1" stop-color="#1A0F91"/>
</linearGradient>
<linearGradient id="paint1_linear" x1="126.753" y1="431.298" x2="333.086" y2="125.667" gradientUnits="userSpaceOnUse">
<stop stop-color="#09005D"/>
<stop offset="1" stop-color="#1A0F91"/>
</linearGradient>
<linearGradient id="paint2_linear" x1="309.865" y1="489.224" x2="143.535" y2="329.34" gradientUnits="userSpaceOnUse">
<stop stop-color="#FFC043"/>
<stop offset="1" stop-color="#FFA412"/>
</linearGradient>
<linearGradient id="paint3_linear" x1="299.262" y1="425.373" x2="132.932" y2="265.488" gradientUnits="userSpaceOnUse">
<stop stop-color="#FFC043"/>
<stop offset="1" stop-color="#FFA412"/>
</linearGradient>
<linearGradient id="paint4_linear" x1="0.0336338" y1="87.5187" x2="21.1233" y2="63.0774" gradientUnits="userSpaceOnUse">
<stop stop-color="#FFA412"/>
<stop offset="1" stop-color="#FFA412"/>
</linearGradient>
<linearGradient id="paint5_linear" x1="32.9819" y1="45.1957" x2="-29.4043" y2="139.298" gradientUnits="userSpaceOnUse">
<stop stop-color="#FF928E"/>
<stop offset="1" stop-color="#FE7062"/>
</linearGradient>
<linearGradient id="paint6_linear" x1="31.1248" y1="47.8951" x2="-2.09887" y2="103.586" gradientUnits="userSpaceOnUse">
<stop stop-color="#FF928E"/>
<stop offset="1" stop-color="#FE7062"/>
</linearGradient>
<linearGradient id="paint7_linear" x1="28.7991" y1="87.3735" x2="65.5126" y2="44.8254" gradientUnits="userSpaceOnUse">
<stop stop-color="#E1473D"/>
<stop offset="1" stop-color="#E9605A"/>
</linearGradient>
<linearGradient id="paint8_linear" x1="86.1562" y1="13.6957" x2="-22.4473" y2="177.512" gradientUnits="userSpaceOnUse">
<stop stop-color="#FF928E"/>
<stop offset="1" stop-color="#FE7062"/>
</linearGradient>
<linearGradient id="paint9_linear" x1="82.9235" y1="18.3929" x2="25.0867" y2="115.342" gradientUnits="userSpaceOnUse">
<stop stop-color="#FF928E"/>
<stop offset="1" stop-color="#FE7062"/>
</linearGradient>
<linearGradient id="paint10_linear" x1="46.5593" y1="149.755" x2="84.3371" y2="105.973" gradientUnits="userSpaceOnUse">
<stop stop-color="#E1473D"/>
<stop offset="1" stop-color="#E9605A"/>
</linearGradient>
<linearGradient id="paint11_linear" x1="105.579" y1="73.9417" x2="-6.17249" y2="242.506" gradientUnits="userSpaceOnUse">
<stop stop-color="#FF928E"/>
<stop offset="1" stop-color="#FE7062"/>
</linearGradient>
<linearGradient id="paint12_linear" x1="102.253" y1="78.7753" x2="42.7395" y2="178.534" gradientUnits="userSpaceOnUse">
<stop stop-color="#FF928E"/>
<stop offset="1" stop-color="#FE7062"/>
</linearGradient>
<linearGradient id="paint13_linear" x1="92.9111" y1="99.4427" x2="120.591" y2="67.3644" gradientUnits="userSpaceOnUse">
<stop stop-color="#FFA412"/>
<stop offset="1" stop-color="#FFC043"/>
</linearGradient>
<linearGradient id="paint14_linear" x1="136.155" y1="43.8945" x2="54.275" y2="167.401" gradientUnits="userSpaceOnUse">
<stop stop-color="#FF928E"/>
<stop offset="1" stop-color="#FE7062"/>
</linearGradient>
<linearGradient id="paint15_linear" x1="133.718" y1="47.4357" x2="90.1126" y2="120.528" gradientUnits="userSpaceOnUse">
<stop stop-color="#FF928E"/>
<stop offset="1" stop-color="#FE7062"/>
</linearGradient>
<linearGradient id="paint16_linear" x1="92.4656" y1="253.089" x2="75.1992" y2="297.448" gradientUnits="userSpaceOnUse">
<stop stop-color="#FEBBBA"/>
<stop offset="1" stop-color="#FF928E"/>
</linearGradient>
<linearGradient id="paint17_linear" x1="242.578" y1="263.282" x2="-349.959" y2="406.722" gradientUnits="userSpaceOnUse">
<stop stop-color="#FF928E"/>
<stop offset="1" stop-color="#FE7062"/>
</linearGradient>
<linearGradient id="paint18_linear" x1="243.992" y1="269.125" x2="-348.544" y2="412.565" gradientUnits="userSpaceOnUse">
<stop stop-color="#FF928E"/>
<stop offset="1" stop-color="#FE7062"/>
</linearGradient>
<linearGradient id="paint19_linear" x1="251.051" y1="57.8369" x2="141.749" y2="209.033" gradientUnits="userSpaceOnUse">
<stop stop-color="#4F52FF"/>
<stop offset="1" stop-color="#4042E2"/>
</linearGradient>
<linearGradient id="paint20_linear" x1="141.885" y1="210.193" x2="227.262" y2="106.96" gradientUnits="userSpaceOnUse">
<stop stop-color="#4F52FF"/>
<stop offset="1" stop-color="#4042E2"/>
</linearGradient>
<linearGradient id="paint21_linear" x1="105.634" y1="158.818" x2="61.7264" y2="290.336" gradientUnits="userSpaceOnUse">
<stop stop-color="#FF928E"/>
<stop offset="1" stop-color="#FE7062"/>
</linearGradient>
<linearGradient id="paint22_linear" x1="144.391" y1="137.814" x2="183.829" y2="56.4615" gradientUnits="userSpaceOnUse">
<stop stop-color="#FF928E"/>
<stop offset="1" stop-color="#FE7062"/>
</linearGradient>
<linearGradient id="paint23_linear" x1="120.865" y1="126.409" x2="160.303" y2="45.0562" gradientUnits="userSpaceOnUse">
<stop stop-color="#FF928E"/>
<stop offset="1" stop-color="#FE7062"/>
</linearGradient>
<linearGradient id="paint24_linear" x1="68.1169" y1="395.083" x2="40.9543" y2="395.083" gradientUnits="userSpaceOnUse">
<stop stop-color="#FEBBBA"/>
<stop offset="1" stop-color="#FF928E"/>
</linearGradient>
<linearGradient id="paint25_linear" x1="38.6456" y1="420.808" x2="49.8251" y2="420.808" gradientUnits="userSpaceOnUse">
<stop stop-color="#4F52FF"/>
<stop offset="1" stop-color="#4042E2"/>
</linearGradient>
<linearGradient id="paint26_linear" x1="66.5094" y1="425.852" x2="82.1585" y2="425.852" gradientUnits="userSpaceOnUse">
<stop stop-color="#4F52FF"/>
<stop offset="1" stop-color="#4042E2"/>
</linearGradient>
<linearGradient id="paint27_linear" x1="84.5989" y1="397.105" x2="68.8695" y2="397.105" gradientUnits="userSpaceOnUse">
<stop stop-color="#FEBBBA"/>
<stop offset="1" stop-color="#FF928E"/>
</linearGradient>
<linearGradient id="paint28_linear" x1="118.483" y1="278.911" x2="87.6895" y2="278.911" gradientUnits="userSpaceOnUse">
<stop stop-color="#FEBBBA"/>
<stop offset="1" stop-color="#FF928E"/>
</linearGradient>
<linearGradient id="paint29_linear" x1="132.631" y1="200.674" x2="74.7582" y2="315.119" gradientUnits="userSpaceOnUse">
<stop stop-color="#FF928E"/>
<stop offset="1" stop-color="#FE7062"/>
</linearGradient>
<linearGradient id="paint30_linear" x1="57.854" y1="351.29" x2="86.9012" y2="351.29" gradientUnits="userSpaceOnUse">
<stop stop-color="#4F52FF"/>
<stop offset="1" stop-color="#4042E2"/>
</linearGradient>
<linearGradient id="paint31_linear" x1="79.8303" y1="294.051" x2="70.2047" y2="294.051" gradientUnits="userSpaceOnUse">
<stop stop-color="#FEBBBA"/>
<stop offset="1" stop-color="#FF928E"/>
</linearGradient>
<linearGradient id="paint32_linear" x1="64.5326" y1="281.593" x2="-5.52952" y2="286.35" gradientUnits="userSpaceOnUse">
<stop stop-color="#FEBBBA"/>
<stop offset="1" stop-color="#FF928E"/>
</linearGradient>
<linearGradient id="paint33_linear" x1="53.0167" y1="277.365" x2="77.7392" y2="326.733" gradientUnits="userSpaceOnUse">
<stop stop-color="#09005D"/>
<stop offset="1" stop-color="#1A0F91"/>
</linearGradient>
<linearGradient id="paint34_linear" x1="341.152" y1="317.628" x2="304.055" y2="317.628" gradientUnits="userSpaceOnUse">
<stop stop-color="#2B3582"/>
<stop offset="1" stop-color="#150E42"/>
</linearGradient>
<linearGradient id="paint35_linear" x1="353.45" y1="351.361" x2="267.378" y2="485.045" gradientUnits="userSpaceOnUse">
<stop stop-color="#FFC043"/>
<stop offset="1" stop-color="#FFA412"/>
</linearGradient>
<linearGradient id="paint36_linear" x1="413.426" y1="223.666" x2="238.92" y2="446.832" gradientUnits="userSpaceOnUse">
<stop stop-color="#FFA412"/>
<stop offset="1" stop-color="#E4930F"/>
</linearGradient>
<linearGradient id="paint37_linear" x1="351.7" y1="317.425" x2="314.603" y2="317.425" gradientUnits="userSpaceOnUse">
<stop stop-color="#2B3582"/>
<stop offset="1" stop-color="#150E42"/>
</linearGradient>
<clipPath id="clip0">
<rect width="431" height="429" fill="white"/>
</clipPath>
</defs>
</svg>
