<svg width="451" height="448" viewBox="0 0 451 448" fill="none" xmlns="http://www.w3.org/2000/svg">
<path d="M399.091 376.328C389.898 385.756 381.188 391.821 374.325 396.631C293.504 453.068 197.882 436.61 177.568 432.604C147.564 426.667 89.5476 415.197 47.6023 367.206C-15.862 294.57 -5.97837 180.152 43.231 104.636C52.2307 90.8162 99.7848 14.1412 196.452 1.85003C254.95 -5.59867 323.139 9.41135 372.509 49.6794C476.151 134.189 468.775 304.93 399.091 376.328Z" fill="url(#paint0_linear)"/>
<path d="M170.947 399.253C144.655 404.449 111.179 375.7 100.444 344.361C89.4029 312.104 109.813 298.639 109.765 253.915C109.701 203.109 83.312 195.387 66.0197 126.852C62.1144 111.392 39.5186 21.9108 67.8196 5.21152C93.9832 -10.2329 167.283 34.4272 180.011 91.3784C189.091 131.984 160.694 148.973 171.413 196.272C180.815 237.778 205.789 238.438 215.271 278.481C226.81 327.227 205.451 392.431 170.947 399.253Z" fill="#BDD0FB"/>
<path d="M169.002 411.56C176.218 356.829 162.59 272.336 149.894 211.105C136.153 144.791 120.516 90.7032 120.356 90.1562L118.17 90.7998C118.331 91.3307 133.952 145.354 147.676 211.588C160.34 272.657 173.92 356.861 166.753 411.271L169.002 411.56Z" fill="#7D97F4"/>
<path d="M121.69 385.676C158.862 371.712 178.452 310.545 161.064 287.781C149.316 272.385 128.295 284.499 111.452 267.993C89.9494 246.901 111.565 214.758 98.3385 168.022C87.0727 128.253 53.3558 87.8242 30.2297 92.4414C6.01068 97.3 -9.32104 153.222 6.38031 189.966C16.5854 213.873 32.3832 217.01 34.151 238.294C36.2081 262.989 10.7838 271.049 7.81063 294.393C2.45899 336.318 72.4963 404.161 121.69 385.676Z" fill="#91B3FA"/>
<path d="M100.862 399.415C101.07 399.448 101.279 399.416 101.504 399.351C102.26 399.094 102.645 398.273 102.388 397.533C67.675 296.276 67.5946 183.709 67.5946 182.583C67.5946 181.794 66.9518 181.151 66.1643 181.135C65.3769 181.135 64.734 181.778 64.734 182.567C64.734 183.693 64.8144 296.742 99.6723 398.45C99.8652 398.997 100.331 399.351 100.862 399.415Z" fill="url(#paint1_linear)"/>
<path d="M27.8189 206.859C27.9636 206.875 28.1243 206.843 28.2528 206.763C28.5743 206.57 28.6868 206.151 28.4939 205.814C16.1514 185.237 3.37496 155.008 12.5997 127.932C18.096 111.812 28.9278 104.363 29.0403 104.299C29.3617 104.09 29.4421 103.655 29.2332 103.35C29.0242 103.028 28.5903 102.948 28.285 103.157C27.8189 103.462 16.9549 110.927 11.314 127.498C6.13916 142.717 4.70885 168.779 27.3368 206.521C27.4171 206.731 27.61 206.843 27.8189 206.859Z" fill="url(#paint2_linear)"/>
<path d="M125.852 377.713C126.077 377.745 126.302 377.664 126.447 377.487C152.931 347.387 163.683 322.933 158.412 304.834C153.735 288.73 137.552 283.872 137.391 283.824C137.021 283.727 136.652 283.92 136.539 284.29C136.427 284.66 136.636 285.03 137.005 285.143C137.166 285.191 152.642 289.856 157.094 305.237C162.204 322.853 151.549 346.856 125.402 376.586C125.145 376.876 125.177 377.31 125.466 377.552C125.595 377.648 125.723 377.697 125.852 377.713Z" fill="#F0F0F0"/>
<g opacity="0.3">
<path opacity="0.3" d="M339.66 106.405C338.535 106.356 337.652 105.407 337.7 104.281C337.796 102.077 337.78 99.8569 337.684 97.6368C337.635 96.5267 338.487 95.5775 339.596 95.4971C339.612 95.4971 339.628 95.4971 339.628 95.4971C340.753 95.4488 341.717 96.3175 341.766 97.4598C341.862 99.7764 341.878 102.141 341.782 104.442C341.734 105.504 340.898 106.34 339.869 106.405C339.805 106.421 339.741 106.421 339.66 106.405ZM336.478 86.9383C336.077 84.7664 335.594 82.5946 335.016 80.471C334.727 79.377 335.369 78.2508 336.446 77.9612C337.539 77.6717 338.664 78.3152 338.953 79.3931C339.564 81.6293 340.078 83.9138 340.496 86.1982C340.705 87.3083 339.966 88.3862 338.857 88.5793C338.776 88.5953 338.696 88.6114 338.616 88.6114C337.603 88.6758 336.671 87.9679 336.478 86.9383ZM331.464 70.2873C330.596 68.2602 329.632 66.2492 328.587 64.3026C328.057 63.3052 328.427 62.0664 329.423 61.5355C330.42 61.0046 331.657 61.3746 332.187 62.3721C333.28 64.4152 334.293 66.5388 335.209 68.6624C335.659 69.7081 335.177 70.8986 334.132 71.3491C333.907 71.4456 333.682 71.4939 333.457 71.51C332.637 71.5743 331.818 71.1078 331.464 70.2873ZM322.85 55.1808C321.548 53.395 320.166 51.6575 318.72 50.0004C317.981 49.1478 318.061 47.8608 318.913 47.1046C319.765 46.3646 321.05 46.445 321.806 47.2977C323.332 49.0513 324.795 50.8853 326.161 52.7515C326.82 53.6685 326.627 54.9394 325.711 55.6151C325.389 55.8565 325.004 55.9852 324.634 56.0012C323.959 56.0656 323.284 55.776 322.85 55.1808ZM311.102 42.3748C309.447 40.9269 307.695 39.5433 305.927 38.2402C305.011 37.5645 304.819 36.2935 305.477 35.3765C306.152 34.4595 307.422 34.2665 308.338 34.9261C310.218 36.2936 312.05 37.7575 313.786 39.2859C314.638 40.0259 314.734 41.3291 313.979 42.1817C313.609 42.6161 313.095 42.8413 312.565 42.8896C312.05 42.9057 311.52 42.7448 311.102 42.3748ZM296.815 32.4968C294.871 31.4511 292.862 30.4858 290.853 29.601C289.808 29.1505 289.342 27.9439 289.792 26.9143C290.242 25.8686 291.447 25.402 292.476 25.8525C294.597 26.7695 296.719 27.7991 298.76 28.8931C299.756 29.424 300.126 30.6628 299.595 31.6602C299.242 32.3037 298.599 32.6899 297.924 32.7381C297.538 32.7542 297.153 32.6738 296.815 32.4968ZM220.816 31.5315C220.285 30.5341 220.655 29.2953 221.651 28.7644C223.692 27.6704 225.814 26.6569 227.951 25.7399C228.996 25.2894 230.201 25.7721 230.635 26.8178C231.085 27.8635 230.603 29.054 229.558 29.5044C227.533 30.3732 225.524 31.3385 223.58 32.3681C223.306 32.5129 223.033 32.5933 222.744 32.6094C221.973 32.6738 221.201 32.2716 220.816 31.5315ZM280.696 26.0295C278.575 25.4503 276.405 24.9516 274.235 24.5494C273.127 24.3402 272.387 23.2784 272.596 22.1684C272.805 21.0583 273.866 20.3183 274.975 20.5274C277.257 20.9457 279.539 21.4766 281.773 22.0879C282.866 22.3936 283.508 23.5197 283.203 24.6137C282.962 25.4825 282.207 26.0616 281.355 26.1099C281.146 26.1099 280.921 26.0938 280.696 26.0295ZM237.224 24.5333C236.935 23.4393 237.578 22.3132 238.67 22.0236C240.904 21.4122 243.202 20.8974 245.484 20.4952C246.593 20.2861 247.654 21.0261 247.863 22.1523C248.072 23.2623 247.333 24.3241 246.208 24.5333C244.038 24.9194 241.868 25.4181 239.731 25.9973C239.602 26.0295 239.458 26.0616 239.329 26.0616C238.381 26.1099 237.481 25.4986 237.224 24.5333ZM263.548 23.3267C261.347 23.2302 259.129 23.2302 256.927 23.3267C255.802 23.375 254.838 22.4901 254.79 21.364C254.741 20.2539 255.593 19.3047 256.702 19.2404C256.718 19.2404 256.734 19.2404 256.75 19.2404C259.064 19.1438 261.411 19.1438 263.725 19.2404C264.85 19.2886 265.734 20.2378 265.686 21.3801C265.637 22.4419 264.802 23.2784 263.773 23.3428C263.693 23.3428 263.613 23.3428 263.548 23.3267Z" fill="#91B3FA"/>
<path opacity="0.3" d="M210.739 40.509C211.141 40.4768 211.543 40.332 211.88 40.0746C212.7 39.415 213.567 38.7715 214.419 38.1441C215.335 37.4844 215.528 36.1974 214.869 35.2804C214.21 34.3634 212.925 34.1703 212.009 34.8299C211.109 35.4895 210.209 36.1652 209.341 36.857C208.457 37.5649 208.312 38.8519 209.003 39.7368C209.437 40.2837 210.096 40.5572 210.739 40.509Z" fill="#91B3FA"/>
</g>
<g opacity="0.3">
<path opacity="0.3" d="M180.895 95.3687C181.875 95.3043 182.711 94.5321 182.807 93.5185C182.904 92.4728 183.032 91.3949 183.177 90.3492C183.338 89.2231 182.55 88.1934 181.425 88.0326C180.3 87.8717 179.272 88.66 179.111 89.7861C178.967 90.8962 178.822 92.0224 178.725 93.1324C178.613 94.2586 179.449 95.256 180.574 95.3687C180.686 95.3687 180.799 95.3687 180.895 95.3687Z" fill="#91B3FA"/>
<path opacity="0.3" d="M261.186 182.823C260.061 182.839 259.129 181.938 259.113 180.796C259.096 179.67 259.996 178.737 261.138 178.72C263.291 178.688 265.477 178.56 267.646 178.35C268.771 178.238 269.768 179.058 269.88 180.184C269.993 181.311 269.173 182.308 268.048 182.421C267.1 182.517 266.168 182.582 265.22 182.646C263.87 182.759 262.52 182.807 261.186 182.823ZM276.566 179.09C276.309 177.996 276.983 176.886 278.092 176.629C280.198 176.13 282.319 175.535 284.376 174.859C285.453 174.505 286.61 175.101 286.964 176.162C287.317 177.24 286.723 178.399 285.662 178.753C283.492 179.46 281.274 180.088 279.057 180.619C278.944 180.651 278.832 180.667 278.719 180.667C277.707 180.731 276.807 180.072 276.566 179.09ZM250.049 182.228C247.783 181.954 245.517 181.568 243.283 181.101C242.174 180.876 241.467 179.782 241.708 178.672C241.933 177.562 243.025 176.854 244.134 177.096C246.256 177.546 248.425 177.9 250.563 178.173C251.688 178.318 252.475 179.332 252.347 180.458C252.218 181.455 251.415 182.195 250.45 182.244C250.306 182.244 250.177 182.244 250.049 182.228ZM293.247 173.604C292.749 172.591 293.167 171.368 294.196 170.87C296.14 169.92 298.069 168.875 299.933 167.765C300.897 167.185 302.167 167.507 302.745 168.472C303.324 169.438 303.002 170.709 302.038 171.288C300.077 172.462 298.053 173.556 295.995 174.57C295.754 174.698 295.481 174.763 295.224 174.779C294.421 174.811 293.617 174.377 293.247 173.604ZM232.547 178.061C230.41 177.289 228.272 176.42 226.183 175.471C225.155 175.004 224.705 173.781 225.171 172.752C225.637 171.722 226.858 171.272 227.887 171.738C229.863 172.639 231.888 173.476 233.929 174.2C234.99 174.586 235.553 175.76 235.167 176.822C234.878 177.61 234.154 178.125 233.367 178.173C233.094 178.19 232.82 178.157 232.547 178.061ZM216.396 170.146C214.467 168.923 212.571 167.604 210.755 166.236C209.855 165.544 209.678 164.274 210.353 163.373C211.044 162.472 212.314 162.295 213.214 162.97C214.933 164.274 216.749 165.528 218.565 166.687C219.514 167.298 219.803 168.553 219.192 169.518C218.823 170.097 218.228 170.419 217.585 170.467C217.199 170.483 216.766 170.387 216.396 170.146ZM202.334 158.9C200.711 157.291 199.152 155.586 197.673 153.849C196.95 152.98 197.046 151.693 197.914 150.969C198.782 150.229 200.068 150.341 200.791 151.21C202.189 152.867 203.684 154.476 205.21 156.004C206.014 156.809 206.014 158.096 205.21 158.9C204.841 159.27 204.375 159.463 203.893 159.495C203.346 159.528 202.768 159.335 202.334 158.9ZM191.068 144.839C189.847 142.909 188.69 140.914 187.629 138.887C187.098 137.889 187.5 136.651 188.497 136.12C189.493 135.589 190.731 135.991 191.261 136.988C192.257 138.903 193.366 140.817 194.523 142.635C195.134 143.584 194.845 144.855 193.897 145.467C193.591 145.66 193.27 145.756 192.932 145.789C192.209 145.837 191.486 145.499 191.068 144.839ZM183.161 128.655C182.39 126.515 181.715 124.295 181.12 122.091C180.831 120.997 181.474 119.871 182.566 119.581C183.659 119.292 184.784 119.935 185.074 121.029C185.636 123.121 186.279 125.228 187.002 127.255C187.388 128.317 186.825 129.491 185.765 129.878C185.572 129.942 185.395 129.99 185.202 129.99C184.334 130.071 183.483 129.54 183.161 128.655ZM178.999 111.135C178.79 109.462 178.629 107.773 178.533 106.1C178.501 105.488 178.468 104.893 178.436 104.282C178.388 103.156 179.256 102.174 180.397 102.158C181.522 102.11 182.486 102.995 182.534 104.121C182.55 104.7 182.583 105.263 182.631 105.842C182.727 107.435 182.888 109.044 183.081 110.62C183.225 111.747 182.422 112.76 181.297 112.905C181.249 112.905 181.217 112.921 181.168 112.921C180.092 113.001 179.127 112.213 178.999 111.135Z" fill="#91B3FA"/>
<path opacity="0.3" d="M310.074 165.318C310.475 165.286 310.877 165.141 311.231 164.868C312.099 164.176 312.966 163.452 313.802 162.712C314.654 161.972 314.75 160.669 313.995 159.816C313.256 158.963 311.954 158.867 311.102 159.623C310.299 160.315 309.479 161.007 308.659 161.666C307.775 162.374 307.631 163.661 308.338 164.546C308.788 165.093 309.431 165.35 310.074 165.318Z" fill="#91B3FA"/>
</g>
<path d="M313.947 130.409C314.188 130.071 314.188 129.636 313.947 129.299L307.197 119.791C309.27 114.755 310.556 109.366 310.925 103.767L321.163 98.2167C321.516 98.0237 321.725 97.6215 321.645 97.2193L319.363 83.4319C319.298 83.0297 318.977 82.708 318.575 82.6436L307.1 80.697C304.947 75.5328 301.99 70.8351 298.406 66.7327L301.717 55.5677C301.829 55.1816 301.685 54.7472 301.363 54.522L290.001 46.3815C289.663 46.1402 289.23 46.1402 288.892 46.3815L279.394 53.1384C274.364 51.0631 268.98 49.776 263.387 49.406L257.843 39.158C257.65 38.8041 257.248 38.5949 256.846 38.6754L243.074 40.9599C242.672 41.0242 242.35 41.346 242.286 41.7482L240.342 53.2349C235.183 55.3907 230.49 58.3509 226.392 61.9385L215.239 58.6244C214.853 58.5118 214.419 58.6566 214.194 58.9783L206.062 70.3525C205.821 70.6903 205.821 71.1247 206.062 71.4625L212.812 80.9705C210.739 86.006 209.453 91.3955 209.084 96.994L198.846 102.544C198.493 102.737 198.284 103.14 198.364 103.542L200.646 117.329C200.711 117.731 201.032 118.053 201.434 118.117L212.908 120.064C215.062 125.228 218.019 129.926 221.603 134.028L218.292 145.193C218.18 145.58 218.324 146.014 218.646 146.239L230.008 154.38C230.345 154.621 230.779 154.621 231.117 154.38L240.615 147.623C245.645 149.698 251.029 150.985 256.622 151.355L262.166 161.603C262.359 161.957 262.761 162.166 263.162 162.086L276.935 159.801C277.337 159.737 277.658 159.415 277.723 159.013L279.667 147.526C284.826 145.37 289.519 142.41 293.617 138.823L304.77 142.137C305.156 142.249 305.59 142.105 305.815 141.783L313.947 130.409Z" fill="#91B3FA"/>
<path d="M258.855 114.385C251.141 113.742 245.388 106.937 246.031 99.2144C246.336 95.4659 248.088 92.0713 250.948 89.6581C253.809 87.2289 257.441 86.0705 261.186 86.3762C268.9 87.0197 274.653 93.8249 274.01 101.547C273.432 108.578 267.743 113.967 260.929 114.401C260.237 114.45 259.546 114.434 258.855 114.385ZM253.07 92.1518C250.868 94.018 249.534 96.6081 249.293 99.4879C248.795 105.408 253.214 110.621 259.129 111.119C265.043 111.618 270.25 107.194 270.748 101.274C271.246 95.3533 266.827 90.1408 260.912 89.6421C260.382 89.5938 259.836 89.5938 259.321 89.626C257.023 89.7708 254.854 90.6395 253.07 92.1518Z" fill="#BDD0FB"/>
<path d="M261.909 134.672C263.082 134.591 264.255 134.463 265.428 134.269C265.798 134.205 266.168 134.141 266.537 134.06C268.353 133.706 270.137 133.192 271.857 132.548C271.873 132.532 271.905 132.532 271.921 132.516C271.985 132.484 272.05 132.468 272.114 132.435C272.242 132.387 272.371 132.339 272.5 132.291C272.837 132.162 273.03 131.824 273.014 131.47C273.014 131.39 272.998 131.309 272.95 131.213C272.789 130.794 272.307 130.585 271.889 130.746C269.719 131.599 267.453 132.226 265.139 132.612C253.648 134.527 242.543 130.183 235.279 122.091C231.245 117.586 228.385 111.923 227.324 105.52C227.131 104.394 227.003 103.268 226.938 102.158C226.456 94.6289 228.578 87.2124 233.013 80.9863C238.124 73.8433 245.709 69.1135 254.372 67.6656C272.259 64.6893 289.213 76.8518 292.187 94.7415C292.363 95.8516 292.492 96.9616 292.572 98.0556C292.878 102.866 292.122 107.676 290.354 112.165C290.306 112.277 290.29 112.406 290.306 112.519C290.322 112.824 290.515 113.114 290.821 113.227C291.238 113.387 291.72 113.194 291.881 112.76C293.729 108.046 294.517 102.995 294.211 97.943C294.131 96.7847 294.003 95.6102 293.81 94.4519C290.692 75.6612 272.885 62.9035 254.114 66.0246C245.018 67.5368 237.063 72.4919 231.695 80.005C227.019 86.5367 224.817 94.3232 225.315 102.222C225.396 103.397 225.524 104.571 225.717 105.762C227.228 114.867 232.178 122.831 239.683 128.204C246.24 132.95 254.002 135.17 261.909 134.672Z" fill="#BDD0FB"/>
<g opacity="0.3">
<path opacity="0.3" d="M412.992 155.858C413.539 155.826 414.021 155.44 414.149 154.877C414.39 153.831 414.599 152.753 414.76 151.691C414.872 150.999 414.406 150.356 413.715 150.243C413.024 150.131 412.381 150.597 412.269 151.289C412.108 152.303 411.899 153.316 411.674 154.314C411.514 154.989 411.948 155.665 412.623 155.826C412.751 155.858 412.88 155.874 412.992 155.858Z" fill="#91B3FA"/>
<path opacity="0.3" d="M414.133 146.206C413.442 146.174 412.896 145.595 412.912 144.887C412.976 143.117 412.96 141.332 412.847 139.578C412.831 139.208 412.799 138.838 412.767 138.468C412.703 137.776 413.217 137.165 413.924 137.101C414.583 137.068 415.226 137.551 415.29 138.259C415.322 138.645 415.355 139.031 415.371 139.433C415.483 141.283 415.515 143.15 415.435 145C415.403 145.659 414.889 146.174 414.246 146.206C414.214 146.206 414.165 146.206 414.133 146.206ZM411.835 132.113C411.401 130.022 410.823 127.931 410.131 125.92C409.906 125.26 410.26 124.536 410.919 124.311C411.578 124.085 412.301 124.439 412.526 125.099C413.249 127.207 413.844 129.394 414.31 131.599C414.455 132.29 414.021 132.95 413.33 133.095C413.265 133.111 413.201 133.111 413.153 133.111C412.526 133.159 411.964 132.741 411.835 132.113ZM407.689 119.983C406.757 118.069 405.696 116.186 404.523 114.401C404.137 113.821 404.314 113.033 404.892 112.647C405.487 112.261 406.258 112.422 406.644 113.017C407.865 114.899 408.99 116.862 409.971 118.873C410.276 119.5 410.019 120.257 409.392 120.562C409.231 120.643 409.071 120.675 408.926 120.691C408.412 120.723 407.914 120.45 407.689 119.983ZM400.682 109.236C399.3 107.595 397.805 106.035 396.246 104.587C395.732 104.104 395.7 103.316 396.182 102.801C396.648 102.286 397.451 102.254 397.966 102.737C399.605 104.249 401.164 105.89 402.61 107.611C403.06 108.142 402.996 108.947 402.466 109.397C402.257 109.574 402 109.671 401.726 109.687C401.341 109.703 400.955 109.558 400.682 109.236ZM391.28 100.533C389.545 99.2779 387.712 98.1357 385.848 97.1061C385.238 96.7682 385.013 95.996 385.35 95.3847C385.688 94.7733 386.459 94.5481 387.07 94.8859C389.03 95.9638 390.943 97.1704 392.759 98.4735C393.321 98.8757 393.45 99.6801 393.048 100.243C392.823 100.565 392.469 100.742 392.1 100.774C391.811 100.774 391.521 100.71 391.28 100.533ZM380.047 94.3711C378.07 93.5828 376.013 92.9071 373.956 92.3762C373.281 92.1992 372.879 91.5075 373.056 90.8318C373.233 90.1561 373.924 89.7539 374.599 89.9309C376.768 90.4939 378.906 91.2018 380.995 92.0223C381.638 92.2797 381.959 93.0197 381.702 93.6632C381.509 94.1298 381.075 94.4355 380.609 94.4676C380.4 94.4676 380.223 94.4355 380.047 94.3711ZM367.656 91.1535C365.551 90.88 363.397 90.7353 361.26 90.7192C360.569 90.7192 360.006 90.14 360.006 89.4482C360.006 88.7564 360.585 88.1934 361.276 88.1934C363.526 88.2094 365.776 88.3542 367.993 88.6438C368.684 88.7403 369.167 89.3678 369.086 90.0596C369.006 90.6709 368.508 91.1214 367.913 91.1535C367.817 91.1696 367.736 91.1535 367.656 91.1535ZM346.989 91.2822C346.828 90.6065 347.246 89.9148 347.921 89.7539C349.801 89.2873 351.73 88.9334 353.674 88.676C353.963 88.6277 354.253 88.5956 354.558 88.5634C355.249 88.4669 355.876 88.9817 355.956 89.6734C356.037 90.3652 355.538 90.9927 354.847 91.0731C354.574 91.1053 354.301 91.1374 354.012 91.1857C352.163 91.427 350.315 91.781 348.531 92.2153C348.451 92.2314 348.387 92.2475 348.306 92.2475C347.696 92.2797 347.133 91.8775 346.989 91.2822Z" fill="#91B3FA"/>
</g>
<g opacity="0.3">
<path opacity="0.3" d="M363.574 197.43C361.372 197.542 359.154 197.51 356.953 197.365C356.262 197.317 355.731 196.706 355.779 196.014C355.828 195.322 356.438 194.791 357.129 194.84C359.219 194.984 361.34 195.017 363.445 194.904C364.136 194.872 364.731 195.403 364.779 196.111C364.811 196.802 364.281 197.398 363.59 197.43C363.59 197.43 363.59 197.43 363.574 197.43ZM368.7 195.66C368.588 194.968 369.038 194.325 369.729 194.196C371.802 193.842 373.875 193.359 375.884 192.748C376.543 192.555 377.25 192.925 377.459 193.601C377.652 194.277 377.282 194.968 376.607 195.177C374.502 195.805 372.333 196.32 370.163 196.69C370.115 196.69 370.067 196.706 370.034 196.706C369.392 196.754 368.813 196.304 368.7 195.66ZM350.396 196.481C348.226 196.062 346.073 195.499 343.983 194.807C343.324 194.598 342.955 193.874 343.18 193.215C343.389 192.555 344.112 192.185 344.771 192.41C346.764 193.054 348.821 193.601 350.878 194.003C351.569 194.132 352.003 194.807 351.874 195.483C351.762 196.062 351.28 196.464 350.717 196.497C350.621 196.513 350.508 196.513 350.396 196.481ZM381.156 192.249C380.882 191.606 381.172 190.866 381.798 190.576C383.727 189.74 385.607 188.758 387.423 187.697C388.018 187.343 388.805 187.536 389.159 188.131C389.512 188.726 389.32 189.514 388.709 189.868C386.812 190.995 384.836 192.008 382.811 192.893C382.666 192.957 382.522 192.989 382.377 192.989C381.879 193.038 381.38 192.748 381.156 192.249ZM337.844 192.394C335.851 191.461 333.891 190.399 332.027 189.241C331.432 188.871 331.255 188.083 331.625 187.503C331.994 186.908 332.766 186.731 333.36 187.101C335.144 188.211 337.009 189.225 338.905 190.11C339.532 190.399 339.805 191.155 339.516 191.799C339.307 192.233 338.889 192.491 338.455 192.523C338.246 192.523 338.037 192.475 337.844 192.394ZM326.627 185.396C324.907 184.012 323.268 182.516 321.725 180.94C321.243 180.441 321.243 179.636 321.741 179.154C322.239 178.671 323.043 178.671 323.525 179.17C324.987 180.666 326.562 182.098 328.202 183.417C328.748 183.852 328.828 184.656 328.394 185.203C328.17 185.492 327.832 185.653 327.495 185.669C327.189 185.686 326.884 185.605 326.627 185.396ZM317.402 175.92C316.068 174.167 314.831 172.316 313.722 170.418C313.368 169.807 313.577 169.035 314.172 168.681C314.766 168.327 315.554 168.536 315.907 169.131C316.968 170.949 318.141 172.703 319.427 174.376C319.845 174.939 319.748 175.727 319.186 176.145C318.977 176.306 318.736 176.387 318.495 176.403C318.093 176.435 317.675 176.258 317.402 175.92Z" fill="#91B3FA"/>
<path opacity="0.3" d="M393.546 186.378C393.787 186.362 394.028 186.281 394.237 186.12C395.089 185.461 395.941 184.769 396.728 184.061C397.259 183.594 397.307 182.806 396.857 182.275C396.391 181.744 395.603 181.696 395.073 182.146C394.302 182.822 393.514 183.466 392.695 184.109C392.148 184.544 392.036 185.332 392.47 185.879C392.727 186.233 393.145 186.394 393.546 186.378Z" fill="#91B3FA"/>
</g>
<path d="M396.905 162.519C397.066 162.294 397.066 162.004 396.905 161.779L392.389 155.424C393.771 152.062 394.639 148.442 394.88 144.709L401.726 140.993C401.967 140.864 402.096 140.591 402.048 140.317L400.521 131.083C400.473 130.809 400.264 130.6 399.991 130.552L392.309 129.249C390.862 125.79 388.886 122.653 386.491 119.902L388.709 112.421C388.789 112.164 388.693 111.874 388.468 111.713L380.866 106.275C380.641 106.114 380.352 106.114 380.127 106.275L373.779 110.796C370.42 109.413 366.804 108.544 363.076 108.302L359.363 101.449C359.235 101.208 358.961 101.079 358.688 101.127L349.464 102.656C349.19 102.704 348.981 102.913 348.933 103.186L347.631 110.877C344.176 112.324 341.042 114.303 338.294 116.7L330.821 114.48C330.564 114.4 330.275 114.496 330.114 114.722L324.682 122.331C324.521 122.556 324.521 122.846 324.682 123.071L329.198 129.426C327.816 132.788 326.948 136.408 326.707 140.14L319.861 143.857C319.62 143.985 319.491 144.259 319.539 144.532L321.066 153.767C321.114 154.04 321.323 154.25 321.596 154.298L329.278 155.601C330.725 159.06 332.701 162.197 335.096 164.948L332.878 172.429C332.798 172.686 332.894 172.976 333.119 173.137L340.721 178.574C340.946 178.735 341.235 178.735 341.46 178.574L347.808 174.054C351.167 175.437 354.783 176.306 358.511 176.547L362.224 183.401C362.352 183.642 362.626 183.771 362.899 183.723L372.124 182.194C372.397 182.146 372.606 181.937 372.654 181.663L373.956 173.973C377.411 172.525 380.545 170.547 383.293 168.15L390.766 170.37C391.023 170.45 391.312 170.354 391.473 170.128L396.905 162.519Z" fill="#91B3FA"/>
<path d="M360.022 151.965C357.483 151.756 355.169 150.565 353.513 148.603C351.858 146.656 351.071 144.178 351.28 141.62C351.714 136.36 356.342 132.45 361.597 132.869C366.852 133.303 370.774 137.936 370.34 143.197C370.131 145.739 368.942 148.056 366.997 149.713C365.406 151.048 363.478 151.836 361.453 151.965C360.97 151.997 360.504 151.997 360.022 151.965ZM353.803 141.846C353.642 143.728 354.237 145.546 355.442 146.978C356.663 148.409 358.351 149.294 360.231 149.439C362.111 149.6 363.927 149.005 365.358 147.798C366.788 146.592 367.672 144.886 367.817 143.004C368.138 139.143 365.261 135.732 361.388 135.41C361.035 135.378 360.697 135.378 360.36 135.394C356.953 135.62 354.108 138.322 353.803 141.846Z" fill="#BDD0FB"/>
<path d="M362.16 166.089C362.963 166.041 363.767 165.945 364.57 165.816C366.177 165.558 367.736 165.124 369.247 164.545C369.311 164.513 369.376 164.497 369.456 164.464C369.986 164.255 370.292 163.74 370.259 163.21C370.243 163.081 370.227 162.952 370.179 162.823C369.922 162.18 369.183 161.858 368.54 162.116C367.142 162.679 365.663 163.081 364.169 163.322C364.088 163.338 364.008 163.354 363.927 163.354C360.392 163.901 356.84 163.564 353.546 162.373C351.762 161.729 350.058 160.845 348.451 159.735C348.435 159.718 348.419 159.718 348.419 159.702C348.387 159.67 348.339 159.654 348.306 159.622C343.678 156.308 340.625 151.401 339.692 145.786C339.564 145.062 339.484 144.338 339.435 143.614C339.13 138.74 340.496 133.946 343.373 129.908C346.683 125.274 351.585 122.218 357.194 121.284C362.803 120.351 368.443 121.671 373.056 124.969C377.684 128.283 380.738 133.19 381.67 138.804C381.782 139.512 381.863 140.236 381.911 140.96C382.104 144.065 381.622 147.186 380.481 150.098C380.416 150.275 380.384 150.468 380.4 150.645C380.432 151.111 380.722 151.562 381.204 151.739C381.847 151.996 382.586 151.675 382.843 151.031C384.129 147.781 384.659 144.29 384.45 140.815C384.402 140.011 384.306 139.206 384.177 138.402C383.132 132.128 379.709 126.626 374.534 122.909C369.359 119.209 363.06 117.729 356.776 118.775C350.508 119.82 345.012 123.247 341.3 128.427C338.069 132.932 336.543 138.305 336.896 143.759C336.944 144.564 337.041 145.384 337.169 146.189C339.194 158.351 350.123 166.845 362.16 166.089Z" fill="#BDD0FB"/>
<path d="M51.3629 389.149C51.3629 392.882 54.4164 395.938 58.1449 395.938H425.319C429.047 395.938 432.101 392.882 432.101 389.149L435.154 177.931C435.154 174.199 430.751 166.911 422.699 167.458L63.8822 158.143C59.1895 158.014 54.6736 159.832 51.3469 163.13C48.0362 166.444 46.2202 170.965 46.3166 175.647L51.3629 389.149Z" fill="url(#paint3_linear)"/>
<path d="M58.0646 382.633C58.0646 386.173 60.9573 389.069 64.493 389.069H416.48C420.015 389.069 422.908 386.173 422.908 382.633L425.785 190.882C425.447 179.347 415.339 175.196 409.216 175.437L65.2965 166.203C62.002 166.122 58.8199 167.377 56.4896 169.71C54.1593 172.043 52.8736 175.228 52.954 178.526L58.0646 382.633Z" fill="url(#paint4_linear)"/>
<path opacity="0.32" d="M67.6589 378.467C67.6589 381.829 70.407 384.564 73.7498 384.564H407.817C411.176 384.564 413.908 381.813 413.908 378.467L416.64 196.481C416.319 185.525 406.724 181.599 400.907 181.824L74.4891 173.057C71.3713 172.976 68.3499 174.183 66.1322 176.387C63.9144 178.591 62.709 181.615 62.7733 184.752L67.6589 378.467Z" fill="#91B3FA"/>
<path d="M419.083 265.194C418.553 265.194 418.135 264.856 418.135 264.454L418.36 252.452C418.36 252.05 418.794 251.729 419.308 251.729H419.324C419.838 251.729 420.256 252.066 420.256 252.469L420.031 264.47C420.015 264.872 419.597 265.194 419.083 265.194Z" fill="#91B3FA"/>
<path d="M419.646 235.785C419.646 235.785 419.629 235.785 419.646 235.785C419.115 235.785 418.697 235.447 418.697 235.045L419.565 189.081C419.549 186.346 418.472 184.175 416.383 182.614C412.462 179.718 406.242 179.863 405.985 179.879L296.06 177.595C295.546 177.578 295.128 177.257 295.144 176.855C295.16 176.452 295.562 176.114 296.108 176.147L405.969 178.431C406.66 178.399 413.281 178.319 417.685 181.584C420.16 183.418 421.429 185.96 421.462 189.114L420.594 235.093C420.578 235.463 420.16 235.785 419.646 235.785Z" fill="#91B3FA"/>
<path d="M33.476 413.474H445.922C446.42 413.474 446.838 413.072 446.838 412.557V395.81C446.838 395.311 446.436 394.893 445.922 394.893H33.476C32.9778 394.893 32.5599 395.295 32.5599 395.81V412.557C32.5599 413.072 32.9778 413.474 33.476 413.474Z" fill="url(#paint5_linear)"/>
<path d="M174.82 195.386L79.7443 194.726C79.5193 194.726 79.3425 194.549 79.3425 194.324L79.3907 186.65C79.3907 186.425 79.5675 186.248 79.7925 186.248L174.868 186.908C175.093 186.908 175.27 187.085 175.27 187.31L175.222 194.984C175.222 195.209 175.045 195.386 174.82 195.386Z" fill="#91B3FA"/>
<path d="M234.845 195.981L201.964 195.756C201.755 195.756 201.578 195.579 201.578 195.37L201.627 187.663C201.627 187.454 201.803 187.277 202.012 187.277L234.893 187.503C235.102 187.503 235.279 187.68 235.279 187.889L235.231 195.595C235.231 195.82 235.054 195.997 234.845 195.981Z" fill="#91B3FA"/>
<path d="M307.824 196.497L242.929 196.046C242.511 196.046 242.158 195.692 242.174 195.274L242.222 188.356C242.222 187.938 242.576 187.584 242.993 187.6L307.888 188.051C308.306 188.051 308.659 188.405 308.643 188.823L308.595 195.741C308.595 196.159 308.242 196.497 307.824 196.497Z" fill="#91B3FA"/>
<path d="M104.044 209.753L79.8568 209.576C79.4389 209.576 79.1014 209.238 79.1014 208.803L79.1497 201.869C79.1497 201.451 79.4871 201.113 79.9211 201.113L104.108 201.29C104.526 201.29 104.863 201.628 104.863 202.062L104.815 208.996C104.815 209.431 104.461 209.769 104.044 209.753Z" fill="#91B3FA"/>
<path d="M174.917 210.268L105.988 209.785C105.763 209.785 105.586 209.608 105.586 209.383L105.635 201.709C105.635 201.484 105.811 201.307 106.036 201.307L174.965 201.789C175.19 201.789 175.367 201.966 175.367 202.191L175.318 209.865C175.302 210.091 175.126 210.268 174.917 210.268Z" fill="#91B3FA"/>
<path d="M235.006 210.879L202.125 210.654C201.916 210.654 201.739 210.477 201.739 210.268L201.787 202.562C201.787 202.353 201.964 202.176 202.173 202.176L235.054 202.401C235.263 202.401 235.44 202.578 235.44 202.787L235.392 210.493C235.392 210.702 235.231 210.879 235.006 210.879Z" fill="#91B3FA"/>
<path d="M362.111 211.763L266.328 211.087C265.911 211.087 265.557 210.733 265.573 210.315L265.621 203.397C265.621 202.979 265.975 202.625 266.393 202.641L362.176 203.317C362.594 203.317 362.947 203.671 362.931 204.089L362.883 211.007C362.883 211.425 362.529 211.763 362.111 211.763Z" fill="#91B3FA"/>
<path d="M103.931 224.618L79.7442 224.441C79.3264 224.441 78.9889 224.103 78.9889 223.669L79.0371 216.735C79.0371 216.316 79.3746 215.979 79.8085 215.979L103.995 216.155C104.413 216.155 104.751 216.493 104.751 216.928L104.702 223.862C104.686 224.296 104.349 224.634 103.931 224.618Z" fill="#91B3FA"/>
<path d="M174.772 225.133L105.844 224.65C105.619 224.65 105.442 224.473 105.442 224.248L105.49 216.574C105.49 216.349 105.667 216.172 105.892 216.172L174.82 216.655C175.045 216.655 175.222 216.831 175.222 217.057L175.174 224.731C175.174 224.956 174.997 225.133 174.772 225.133Z" fill="#91B3FA"/>
<path d="M234.877 225.743L201.996 225.517C201.787 225.517 201.611 225.34 201.611 225.131L201.659 217.425C201.659 217.216 201.836 217.039 202.045 217.039L234.926 217.264C235.135 217.264 235.311 217.441 235.311 217.65L235.263 225.356C235.263 225.566 235.102 225.743 234.877 225.743Z" fill="#91B3FA"/>
<path d="M403.398 226.917L278.125 226.033C277.707 226.033 277.353 225.679 277.369 225.26L277.417 218.343C277.417 217.924 277.771 217.57 278.189 217.586L403.462 218.471C403.88 218.471 404.233 218.825 404.217 219.244L404.169 226.161C404.169 226.58 403.832 226.917 403.398 226.917Z" fill="#91B3FA"/>
<path d="M104.028 239.514L79.8408 239.337C79.4229 239.337 79.0854 238.999 79.0854 238.565L79.1337 231.631C79.1337 231.213 79.4712 230.875 79.9051 230.875L104.092 231.052C104.51 231.052 104.847 231.39 104.847 231.824L104.799 238.758C104.799 239.176 104.445 239.514 104.028 239.514Z" fill="#91B3FA"/>
<path d="M175.029 240.029L106.101 239.547C105.876 239.547 105.699 239.37 105.699 239.144L105.747 231.471C105.747 231.245 105.924 231.068 106.149 231.068L175.077 231.551C175.302 231.551 175.479 231.728 175.479 231.953L175.431 239.627C175.431 239.852 175.254 240.029 175.029 240.029Z" fill="#91B3FA"/>
<path d="M235.054 240.625L202.173 240.4C201.964 240.4 201.787 240.223 201.787 240.014L201.836 232.308C201.836 232.099 202.012 231.922 202.221 231.922L235.103 232.147C235.311 232.147 235.488 232.324 235.488 232.533L235.44 240.239C235.44 240.465 235.263 240.625 235.054 240.625Z" fill="#91B3FA"/>
<path d="M403.96 241.816L278.687 240.931C278.269 240.931 277.916 240.577 277.932 240.159L277.98 233.241C277.98 232.823 278.333 232.469 278.751 232.485L404.025 233.37C404.443 233.37 404.796 233.724 404.78 234.142L404.732 241.06C404.732 241.478 404.394 241.816 403.96 241.816Z" fill="#91B3FA"/>
<path d="M103.851 254.96L79.6639 254.783C79.2461 254.783 78.9086 254.445 78.9086 254.01L78.9568 247.076C78.9568 246.658 79.2943 246.32 79.7282 246.32L103.915 246.497C104.333 246.497 104.67 246.835 104.67 247.27L104.622 254.203C104.606 254.622 104.269 254.96 103.851 254.96Z" fill="#91B3FA"/>
<path d="M174.788 255.475L105.86 254.992C105.635 254.992 105.458 254.815 105.458 254.59L105.506 246.916C105.506 246.691 105.683 246.514 105.908 246.514L174.836 246.996C175.061 246.996 175.238 247.173 175.238 247.399L175.19 255.073C175.19 255.298 175.013 255.475 174.788 255.475Z" fill="#91B3FA"/>
<path d="M234.845 256.069L201.964 255.844C201.755 255.844 201.578 255.667 201.578 255.458L201.627 247.751C201.627 247.542 201.803 247.365 202.012 247.365L234.893 247.59C235.102 247.59 235.279 247.767 235.279 247.977L235.231 255.683C235.215 255.908 235.054 256.085 234.845 256.069Z" fill="#91B3FA"/>
<path d="M403.607 257.259L278.333 256.374C277.916 256.374 277.562 256.02 277.578 255.602L277.626 248.684C277.626 248.266 277.98 247.912 278.398 247.928L403.671 248.813C404.089 248.813 404.442 249.167 404.426 249.585L404.378 256.503C404.378 256.921 404.025 257.259 403.607 257.259Z" fill="#91B3FA"/>
<path d="M103.947 269.84L79.7603 269.663C79.3425 269.663 79.005 269.326 79.005 268.891L79.0532 261.957C79.0532 261.539 79.3907 261.201 79.8246 261.201L104.011 261.378C104.429 261.378 104.767 261.716 104.767 262.15L104.719 269.084C104.703 269.519 104.365 269.856 103.947 269.84Z" fill="#91B3FA"/>
<path d="M175.045 270.355L106.117 269.873C105.892 269.873 105.715 269.696 105.715 269.471L105.763 261.797C105.763 261.571 105.94 261.395 106.165 261.395L175.094 261.877C175.319 261.877 175.495 262.054 175.495 262.279L175.447 269.953C175.447 270.178 175.27 270.355 175.045 270.355Z" fill="#91B3FA"/>
<path d="M235.006 270.967L202.125 270.742C201.916 270.742 201.739 270.565 201.739 270.356L201.787 262.65C201.787 262.441 201.964 262.264 202.173 262.264L235.054 262.489C235.263 262.489 235.44 262.666 235.44 262.875L235.392 270.581C235.392 270.79 235.215 270.967 235.006 270.967Z" fill="#91B3FA"/>
<path d="M318.559 271.546L242.399 271.015C241.981 271.015 241.627 270.661 241.643 270.243L241.692 263.325C241.692 262.907 242.045 262.553 242.463 262.569L318.623 263.1C319.041 263.1 319.395 263.454 319.379 263.872L319.331 270.79C319.331 271.208 318.977 271.546 318.559 271.546Z" fill="#91B3FA"/>
<path d="M174.965 285.221L79.3747 284.545C79.1497 284.545 78.9729 284.368 78.9729 284.143L79.0211 276.469C79.0211 276.243 79.1979 276.066 79.4229 276.066L175.013 276.742C175.238 276.742 175.415 276.919 175.415 277.144L175.367 284.818C175.367 285.044 175.19 285.221 174.965 285.221Z" fill="#91B3FA"/>
<path d="M234.877 285.833L201.996 285.607C201.787 285.607 201.611 285.43 201.611 285.221L201.659 277.515C201.659 277.306 201.836 277.129 202.045 277.129L234.926 277.354C235.135 277.354 235.311 277.531 235.311 277.74L235.263 285.446C235.263 285.656 235.086 285.833 234.877 285.833Z" fill="#91B3FA"/>
<path d="M355.137 286.669L259.804 285.994C259.386 285.994 259.032 285.64 259.048 285.221L259.096 278.304C259.096 277.885 259.45 277.531 259.868 277.547L355.201 278.223C355.619 278.223 355.972 278.577 355.956 278.995L355.908 285.913C355.908 286.331 355.555 286.669 355.137 286.669Z" fill="#91B3FA"/>
<path d="M102.951 299.586L79.7926 299.425C79.3747 299.425 79.0372 299.087 79.0372 298.653L79.0854 291.719C79.0854 291.301 79.4229 290.963 79.8569 290.963L103.015 291.124C103.433 291.124 103.77 291.462 103.77 291.896L103.722 298.83C103.722 299.264 103.385 299.602 102.951 299.586Z" fill="#91B3FA"/>
<path d="M175.174 300.117L106.245 299.635C106.02 299.635 105.844 299.458 105.844 299.232L105.892 291.558C105.892 291.333 106.069 291.156 106.294 291.156L175.222 291.639C175.447 291.639 175.624 291.816 175.624 292.041L175.576 299.715C175.576 299.94 175.399 300.117 175.174 300.117Z" fill="#91B3FA"/>
<path d="M235.038 300.713L202.157 300.488C201.948 300.488 201.771 300.311 201.771 300.102L201.819 292.396C201.819 292.187 201.996 292.01 202.205 292.01L235.086 292.235C235.295 292.235 235.472 292.412 235.472 292.621L235.424 300.327C235.424 300.552 235.247 300.713 235.038 300.713Z" fill="#91B3FA"/>
<path d="M404.137 301.904L274.557 301.003C274.139 301.003 273.785 300.649 273.801 300.231L273.85 293.313C273.85 292.895 274.203 292.541 274.621 292.557L404.201 293.458C404.619 293.458 404.973 293.812 404.957 294.23L404.908 301.148C404.908 301.566 404.555 301.904 404.137 301.904Z" fill="#91B3FA"/>
<path d="M103.079 344.022L78.8925 343.845C78.4747 343.845 78.1372 343.507 78.1372 343.073L78.1854 336.139C78.1854 335.721 78.5229 335.383 78.9568 335.383L103.144 335.56C103.561 335.56 103.899 335.898 103.899 336.332L103.851 343.266C103.851 343.684 103.497 344.022 103.079 344.022Z" fill="#91B3FA"/>
<path d="M174.226 344.537L105.297 344.055C105.072 344.055 104.895 343.878 104.895 343.652L104.944 335.978C104.944 335.753 105.12 335.576 105.345 335.576L174.274 336.059C174.499 336.059 174.676 336.236 174.676 336.461L174.627 344.135C174.627 344.36 174.435 344.537 174.226 344.537Z" fill="#91B3FA"/>
<path d="M234.138 345.131L201.257 344.906C201.048 344.906 200.871 344.729 200.871 344.52L200.92 336.814C200.92 336.605 201.096 336.428 201.305 336.428L234.186 336.653C234.395 336.653 234.572 336.83 234.572 337.039L234.524 344.745C234.524 344.97 234.347 345.131 234.138 345.131Z" fill="#91B3FA"/>
<path d="M317.691 345.727L241.531 345.197C241.113 345.197 240.759 344.843 240.776 344.424L240.824 337.507C240.824 337.088 241.177 336.734 241.595 336.751L317.756 337.281C318.173 337.281 318.527 337.635 318.511 338.054L318.463 344.971C318.463 345.39 318.125 345.727 317.691 345.727Z" fill="#91B3FA"/>
<path d="M174.129 359.402L78.539 358.726C78.314 358.726 78.1372 358.549 78.1372 358.324L78.1854 350.65C78.1854 350.425 78.3622 350.248 78.5872 350.248L174.177 350.924C174.402 350.924 174.579 351.101 174.579 351.326L174.531 359C174.531 359.225 174.354 359.402 174.129 359.402Z" fill="#91B3FA"/>
<path d="M234.01 359.996L201.129 359.771C200.92 359.771 200.743 359.594 200.743 359.385L200.791 351.679C200.791 351.47 200.968 351.293 201.177 351.293L234.058 351.518C234.267 351.518 234.444 351.695 234.444 351.904L234.395 359.61C234.395 359.836 234.219 359.996 234.01 359.996Z" fill="#91B3FA"/>
<path d="M354.221 360.849L258.887 360.173C258.47 360.173 258.116 359.819 258.132 359.401L258.18 352.483C258.18 352.065 258.534 351.711 258.952 351.727L354.285 352.403C354.703 352.403 355.056 352.757 355.04 353.175L354.992 360.093C354.992 360.511 354.638 360.849 354.221 360.849Z" fill="#91B3FA"/>
<path d="M102.099 373.768L78.9408 373.607C78.5229 373.607 78.1854 373.269 78.1854 372.835L78.2336 365.901C78.2336 365.482 78.5711 365.145 79.005 365.145L102.163 365.305C102.581 365.305 102.919 365.643 102.919 366.078L102.87 373.012C102.854 373.43 102.517 373.768 102.099 373.768Z" fill="#91B3FA"/>
<path d="M174.354 374.283L105.426 373.801C105.201 373.801 105.024 373.624 105.024 373.398L105.072 365.724C105.072 365.499 105.249 365.322 105.474 365.322L174.402 365.805C174.627 365.805 174.804 365.982 174.804 366.207L174.756 373.881C174.74 374.106 174.563 374.283 174.354 374.283Z" fill="#91B3FA"/>
<path d="M234.186 374.895L201.305 374.67C201.096 374.67 200.919 374.493 200.919 374.284L200.968 366.578C200.968 366.368 201.144 366.191 201.353 366.191L234.235 366.417C234.444 366.417 234.62 366.594 234.62 366.803L234.572 374.509C234.556 374.718 234.395 374.895 234.186 374.895Z" fill="#91B3FA"/>
<path d="M403.221 376.068L273.641 375.167C273.223 375.167 272.869 374.813 272.885 374.395L272.934 367.477C272.934 367.059 273.287 366.705 273.705 366.721L403.285 367.622C403.703 367.622 404.057 367.976 404.041 368.394L403.992 375.312C403.992 375.73 403.639 376.084 403.221 376.068Z" fill="#91B3FA"/>
<path d="M102.565 314.727L79.4068 314.566C78.989 314.566 78.6515 314.228 78.6515 313.793L78.6997 306.86C78.6997 306.441 79.0372 306.104 79.4711 306.104L102.629 306.264C103.047 306.264 103.385 306.602 103.385 307.037L103.337 313.97C103.32 314.405 102.983 314.743 102.565 314.727Z" fill="#91B3FA"/>
<path d="M174.531 315.258L105.603 314.775C105.378 314.775 105.201 314.598 105.201 314.373L105.249 306.699C105.249 306.474 105.426 306.297 105.651 306.297L174.579 306.78C174.804 306.78 174.981 306.956 174.981 307.182L174.933 314.856C174.933 315.081 174.756 315.258 174.531 315.258Z" fill="#91B3FA"/>
<path d="M234.54 315.852L201.659 315.627C201.45 315.627 201.273 315.45 201.273 315.241L201.321 307.535C201.321 307.325 201.498 307.148 201.707 307.148L234.588 307.374C234.797 307.374 234.974 307.551 234.974 307.76L234.926 315.466C234.926 315.691 234.749 315.852 234.54 315.852Z" fill="#91B3FA"/>
<path d="M403.028 317.043L273.448 316.142C273.03 316.142 272.676 315.788 272.693 315.37L272.741 308.452C272.741 308.034 273.094 307.68 273.512 307.696L403.092 308.597C403.51 308.597 403.864 308.951 403.848 309.369L403.8 316.287C403.8 316.705 403.446 317.043 403.028 317.043Z" fill="#91B3FA"/>
<path d="M102.662 329.623L79.5033 329.462C79.0854 329.462 78.7479 329.124 78.7479 328.69L78.7961 321.756C78.7961 321.338 79.1336 321 79.5675 321L102.726 321.161C103.144 321.161 103.481 321.499 103.481 321.933L103.433 328.867C103.417 329.285 103.079 329.623 102.662 329.623Z" fill="#91B3FA"/>
<path d="M174.804 330.139L105.876 329.656C105.651 329.656 105.474 329.479 105.474 329.254L105.522 321.58C105.522 321.355 105.699 321.178 105.924 321.178L174.852 321.66C175.077 321.66 175.254 321.837 175.254 322.063L175.206 329.737C175.206 329.962 175.013 330.139 174.804 330.139Z" fill="#91B3FA"/>
<path d="M234.717 330.748L201.836 330.523C201.627 330.523 201.45 330.346 201.45 330.137L201.498 322.431C201.498 322.222 201.675 322.045 201.884 322.045L234.765 322.27C234.974 322.27 235.151 322.447 235.151 322.656L235.102 330.362C235.086 330.571 234.926 330.748 234.717 330.748Z" fill="#91B3FA"/>
<path d="M403.607 331.924L274.026 331.023C273.609 331.023 273.255 330.669 273.271 330.251L273.319 323.333C273.319 322.915 273.673 322.561 274.091 322.577L403.671 323.478C404.089 323.478 404.442 323.832 404.426 324.25L404.378 331.168C404.378 331.586 404.041 331.924 403.607 331.924Z" fill="#91B3FA"/>
<path d="M188.802 384.419L186.6 384.403C186.343 384.403 186.15 384.193 186.15 383.952L187.597 176.322C187.597 176.064 187.806 175.871 188.047 175.871L190.248 175.887C190.505 175.887 190.698 176.096 190.698 176.338L189.252 383.968C189.252 384.21 189.043 384.419 188.802 384.419Z" fill="#91B3FA"/>
<path d="M383.036 410.095C383.036 410.095 408.942 350.183 389.336 287.054C389.207 286.636 388.484 286.716 388.42 287.151C383.679 325.327 382.281 366.673 383.036 410.095Z" fill="#BDD0FB"/>
<path d="M383.132 408.823C383.1 408.823 383.068 408.823 383.036 408.807C382.859 408.759 382.763 408.566 382.811 408.389C387.391 392.108 389.127 364.388 389.786 344.005C390.493 321.9 390.123 303.431 390.107 303.238C390.107 303.061 390.252 302.9 390.429 302.9C390.605 302.9 390.75 303.045 390.766 303.222C390.766 303.399 391.152 321.9 390.445 344.021C389.786 364.437 388.034 392.22 383.438 408.566C383.422 408.727 383.277 408.823 383.132 408.823Z" fill="white"/>
<path d="M377.106 400.33C377.106 400.33 393.112 326.824 362.867 252.434C362.674 251.951 361.951 252.096 361.967 252.611C363.59 298.67 369.086 348.334 377.106 400.33Z" fill="#BDD0FB"/>
<path d="M376.945 398.737C376.929 398.737 376.929 398.737 376.913 398.737C376.736 398.721 376.592 398.56 376.608 398.367C380.208 360.415 366.515 272.688 366.37 271.803C366.338 271.626 366.467 271.449 366.644 271.417C366.82 271.385 366.997 271.514 367.029 271.691C367.174 272.575 380.867 360.383 377.267 398.415C377.251 398.608 377.106 398.737 376.945 398.737Z" fill="white"/>
<path d="M374.566 420.262C374.566 420.262 382.232 356.136 344.144 298.429C343.903 298.058 343.196 298.284 343.276 298.718C349.978 337.104 360.89 377.887 374.566 420.262Z" fill="#BDD0FB"/>
<path d="M374.181 419.007C374.004 419.007 373.859 418.863 373.843 418.686C373.506 401.777 366.965 374.267 361.549 354.157C355.667 332.358 349.801 314.34 349.737 314.163C349.673 313.986 349.769 313.793 349.946 313.744C350.123 313.696 350.315 313.776 350.364 313.953C350.428 314.13 356.294 332.165 362.176 353.98C367.608 374.122 374.149 401.697 374.486 418.67C374.518 418.846 374.374 419.007 374.181 419.007C374.197 419.007 374.197 419.007 374.181 419.007Z" fill="white"/>
<path d="M358.801 384.918H394.012C396.327 384.918 398.03 387.074 397.516 389.326C395.266 399.091 392.566 409.018 387.038 419.073C386.025 420.939 384.08 422.097 381.959 422.097H370.468C368.379 422.097 366.467 420.955 365.47 419.105C361.051 410.868 356.792 401.054 354.687 389.921C354.188 387.331 356.165 384.918 358.801 384.918Z" fill="#91B3FA"/>
<path d="M144.061 230.056C117.784 230.828 111.581 236.99 111.581 236.99L126.318 255.346C126.318 255.346 151.839 251.952 168.569 235.735C164.728 232.421 161.883 228.608 159.987 225.6C155.503 228.109 150.2 229.879 144.061 230.056Z" fill="url(#paint6_linear)"/>
<path d="M180.526 187.198C180.397 186.362 179.24 186.265 178.967 187.07L176.444 194.534C175.961 195.982 175.929 197.543 176.347 199.007L177.97 203.013C178.549 204.991 178.26 207.115 177.151 208.853C174.531 213.019 168.81 220.725 159.987 225.616C161.867 228.625 164.712 232.437 168.569 235.752C174.708 229.799 179.674 222.125 181.747 212.263C183.21 211.636 184.045 210.091 183.82 208.515L180.526 187.198Z" fill="url(#paint7_linear)"/>
<path d="M226.73 250.537C267.824 250.537 301.138 217.188 301.138 176.05C301.138 134.911 267.824 101.562 226.73 101.562C185.635 101.562 152.321 134.911 152.321 176.05C152.321 217.188 185.635 250.537 226.73 250.537Z" fill="url(#paint8_linear)"/>
<path d="M227.115 243.458C264.109 243.458 294.099 213.437 294.099 176.404C294.099 139.371 264.109 109.35 227.115 109.35C190.121 109.35 160.131 139.371 160.131 176.404C160.131 213.437 190.121 243.458 227.115 243.458Z" fill="white"/>
<path d="M199.232 134.753L190.891 130.666C190.136 130.296 189.22 130.425 188.593 130.988L187.693 131.809L186.231 133.128L185.299 133.98C184.672 134.544 184.447 135.444 184.736 136.233L187.934 144.968C188.416 146.288 189.525 147.301 190.891 147.591L196.532 148.83L233.126 189.516L235.231 187.617L236.694 186.298L238.686 184.496L202.093 143.81L201.498 138.035C201.337 136.619 200.502 135.364 199.232 134.753Z" fill="#91B3FA"/>
<path d="M198.67 135.252L191.116 131.52C190.425 131.182 189.573 131.246 188.995 131.761L188.175 132.501L186.857 133.692L186.006 134.448C185.443 134.963 185.282 135.815 185.556 136.523L188.448 144.406C188.882 145.597 189.895 146.514 191.148 146.771L196.243 147.881L229.253 184.562L231.133 182.873L232.451 181.682L234.508 179.816L201.498 143.135L200.823 138.052C200.695 136.797 199.811 135.799 198.67 135.252Z" fill="#7D97F4"/>
<path d="M263.034 198.22L237.015 174.973L223.869 186.862L243.893 214.549C245.79 217.155 248.361 219.198 251.334 220.453L259.322 223.864C260.672 224.427 262.327 224.266 263.404 223.285L268.868 218.362C269.864 217.477 270.218 216.029 269.961 214.71L268.611 208.001C267.871 204.237 265.895 200.778 263.034 198.22Z" fill="url(#paint9_linear)"/>
<path d="M238.317 173.476C239.12 174.361 239.04 175.745 238.156 176.549L224.994 188.422C224.11 189.226 222.728 189.146 221.924 188.261L221.764 188.084C220.96 187.199 221.04 185.816 221.924 185.011L235.087 173.138C235.97 172.334 237.353 172.414 238.156 173.299L238.317 173.476Z" fill="url(#paint10_linear)"/>
<path d="M257.859 215.127C258.55 215.883 258.486 217.057 257.714 217.749L257.682 217.781C256.927 218.473 255.754 218.409 255.063 217.636L230.265 190.062C229.574 189.306 229.638 188.131 230.41 187.439L230.442 187.407C231.197 186.715 232.37 186.78 233.062 187.552L257.859 215.127Z" fill="url(#paint11_linear)"/>
<path d="M264.352 209.271C265.043 210.027 264.979 211.202 264.207 211.894L264.175 211.926C263.42 212.617 262.247 212.553 261.555 211.781L236.774 184.206C236.083 183.45 236.147 182.276 236.919 181.584L236.951 181.552C237.706 180.86 238.879 180.924 239.57 181.696L264.352 209.271Z" fill="url(#paint12_linear)"/>
<path d="M181.522 196.885L179.77 198.525C176.765 201.341 175.849 205.266 177.745 207.293L179.995 209.707C181.892 211.734 185.861 211.106 188.882 208.307L190.634 206.666C190.747 206.553 190.859 206.441 190.972 206.328L240.92 155.522L236.019 150.262L181.875 196.579C181.747 196.659 181.634 196.772 181.522 196.885ZM183.933 199.201C186.199 197.078 189.059 196.466 190.313 197.818C191.566 199.169 190.747 201.968 188.481 204.092C186.215 206.215 183.354 206.827 182.1 205.475C180.847 204.124 181.667 201.309 183.933 199.201Z" fill="url(#paint13_linear)"/>
<path d="M251.318 131.004L241.129 140.512C240.406 141.188 240.036 142.169 240.133 143.15L240.615 148.218C240.743 149.666 241.836 150.84 243.267 151.082L248.281 151.918C249.261 152.079 250.257 151.773 250.981 151.098L261.17 141.59C262.712 140.158 265.252 141.188 265.3 143.295C265.445 148.331 263.436 153.463 259.386 157.243C252.057 164.081 241.692 163.067 235.135 156.004C228.562 148.958 228.288 138.533 235.601 131.696C239.651 127.915 244.906 126.274 249.904 126.773C252.009 126.966 252.861 129.572 251.318 131.004Z" fill="url(#paint14_linear)"/>
<path d="M252.218 131.969L242.029 141.477C241.306 142.152 240.936 143.134 241.033 144.115L241.515 149.183C241.643 150.631 242.736 151.805 244.167 152.046L249.181 152.883C250.161 153.044 251.157 152.738 251.881 152.063L262.07 142.555C263.612 141.123 266.152 142.152 266.2 144.26C266.345 149.295 264.336 154.427 260.286 158.208C252.957 165.045 242.592 164.032 236.035 156.969C229.462 149.923 229.188 139.498 236.501 132.66C240.551 128.88 245.806 127.239 250.804 127.738C252.909 127.915 253.761 130.537 252.218 131.969Z" fill="url(#paint15_linear)"/>
<path d="M182.229 197.64L180.477 199.281C177.472 202.097 176.556 206.022 178.452 208.049L180.702 210.462C182.599 212.489 186.568 211.862 189.59 209.063L191.341 207.422C191.454 207.309 191.566 207.197 191.679 207.084L241.627 156.278L236.726 151.018L182.583 197.335C182.47 197.431 182.342 197.544 182.229 197.64ZM184.64 199.973C186.906 197.849 189.766 197.238 191.02 198.59C192.273 199.941 191.454 202.74 189.188 204.864C186.922 206.987 184.061 207.599 182.808 206.247C181.554 204.896 182.374 202.081 184.64 199.973Z" fill="url(#paint16_linear)"/>
<path d="M153.928 240.546C143.643 231.697 125.691 229.204 115.374 228.512C110.858 228.206 106.776 231.166 105.683 235.558C102.517 248.316 94.8189 281.361 93.035 287.104C91.5726 291.818 91.1226 296.628 90.1262 299.508C89.5315 301.229 90.6565 303.916 92.3761 304.511C101.344 307.648 109.331 309.804 115.727 310.93C117.141 311.172 121.722 310.094 121.561 308.678C121.432 307.471 121.063 305.621 121.561 304.511L143.273 263.165C159.746 277.757 172.731 277.805 182.181 273.14C179.947 268.201 178.292 263.197 177.183 258.114C162.365 257.245 153.928 240.546 153.928 240.546Z" fill="url(#paint17_linear)"/>
<path d="M200.952 252.66L197.93 249.459C190.088 256.264 183.129 258.452 177.199 258.114C178.292 263.198 179.963 268.218 182.197 273.14C194.652 266.979 200.952 252.66 200.952 252.66Z" fill="url(#paint18_linear)"/>
<path d="M199.104 252.933L213.969 251.839L226.729 242.685C224.64 241.671 213.857 245.436 213.857 245.436C213.857 245.436 202.093 244.986 198.975 245.339C196.371 245.629 197.175 249.329 197.512 250.568C197.577 250.825 197.641 250.97 197.641 250.97L199.104 252.933Z" fill="url(#paint19_linear)"/>
<path d="M127.234 208.789L121.577 228.738C121.577 228.738 131.252 233.935 138.403 232.535L140.364 214.951L127.234 208.789Z" fill="url(#paint20_linear)"/>
<path d="M140.171 190.867C140.171 190.867 146.985 201.775 148.239 207.856C149.493 213.921 151.405 217.702 144.511 220.002C137.616 222.287 131.139 219.649 126.993 214.034C126.993 214.034 120.533 205.395 121.095 201.373C121.674 197.351 140.171 190.867 140.171 190.867Z" fill="url(#paint21_linear)"/>
<path d="M128.761 209.287L129.131 209.046C129.613 208.74 129.741 208.097 129.404 207.646C128.118 205.86 125.515 201.742 127.877 200.326C130.914 198.508 143.353 193.971 145.443 189.016C147.451 184.238 144.253 178.945 140.477 177.867C140.219 177.803 139.962 177.916 139.866 178.173L139.657 178.768C139.512 179.187 138.934 179.203 138.757 178.817C138.58 178.43 138.034 178.43 137.873 178.817C137.23 180.313 135.254 182.855 129.291 184.914C120.806 187.826 115.567 192.234 116.322 198.283C116.37 198.669 116.001 198.943 115.631 198.798C114.924 198.508 113.863 198.476 112.658 199.843C110.569 202.224 112.32 207.308 118.218 210.815C118.492 210.976 118.556 211.379 118.315 211.588C117.447 212.344 116.258 214.033 120.227 215.465C124.341 216.929 127.154 216.334 128.214 215.996C128.488 215.915 128.616 215.626 128.52 215.352L126.559 210.22C126.447 209.931 126.64 209.609 126.945 209.561L128.761 209.287Z" fill="url(#paint22_linear)"/>
<path d="M129.163 210.364C129.163 210.364 126.109 203.205 123.088 205.795C120.066 208.385 126.061 213.887 128.793 213.759L129.163 210.364Z" fill="url(#paint23_linear)"/>
<path d="M122.461 431.814C122.461 431.814 121.497 437.284 121.031 442.69C120.838 444.797 122.477 446.648 124.598 446.728C131.798 447.034 147.194 447.613 152.723 447.372C153.558 447.339 154.089 446.487 153.783 445.714C153.526 445.071 153.028 444.54 152.401 444.25L126.961 432.538L122.461 431.814Z" fill="url(#paint24_linear)"/>
<path d="M121.674 428.597L122.445 435.145C122.445 435.145 126.897 437.22 129.95 434.887L128.102 427.6L121.674 428.597Z" fill="url(#paint25_linear)"/>
<path d="M122.252 305.654C121.915 307.36 120.452 390.888 129.372 428.308C129.516 428.92 129.211 429.547 128.632 429.789C127.266 430.352 124.582 431.156 121.368 431.269C120.372 431.301 119.488 430.657 119.199 429.692C116.643 421.005 104.429 377.503 102.838 335.932C101.054 289.486 102.838 334.355 102.838 334.355L103.883 305.654H122.252Z" fill="url(#paint26_linear)"/>
<path d="M93.1958 434.662C93.1958 434.662 91.6529 437.429 90.1744 444.749C89.9012 446.068 90.8333 447.339 92.1672 447.468C94.5457 447.709 98.2099 447.999 101.135 447.983C102.485 447.967 103.545 446.792 103.385 445.457C103.063 442.786 102.051 438.394 98.917 434.968L93.1958 434.662Z" fill="url(#paint27_linear)"/>
<path d="M91.8457 426.265L93.6617 436.159C93.6617 436.159 95.4456 437.494 98.9973 436.529L98.1295 425.895L91.8457 426.265Z" fill="url(#paint28_linear)"/>
<path d="M90.1262 299.508C80.3872 329.077 88.5352 417.127 91.5244 429.82C91.7011 430.592 92.3279 431.187 93.1154 431.316C94.4493 431.541 96.651 431.718 98.8206 431.091C99.5599 430.882 100.09 430.206 100.122 429.418C100.524 419.154 99.8009 356.169 106.599 331.265C106.936 330.011 107.708 328.9 108.785 328.144L121.979 318.749L122.991 303.578L90.1262 299.508Z" fill="url(#paint29_linear)"/>
<path d="M90.0459 299.428L93.003 287.057C100.122 289.164 108.174 290.516 117.109 291.159C126.752 285.046 134.338 276.921 140.83 267.703L140.959 268.813C140.991 269.071 140.943 269.312 140.83 269.537L122.3 305.638L90.0459 299.428Z" fill="url(#paint30_linear)"/>
<path d="M147.516 236.25L95.3975 278.224C96.3296 274.298 96.0564 273.96 97.4546 269.729L140.364 232.775C143.851 233.322 147.098 234.03 147.516 236.25Z" fill="url(#paint31_linear)"/>
<path d="M110.215 229.638L111.597 292.14H117.093L115.374 228.48C111.902 228.11 110.794 228.77 110.215 229.638Z" fill="url(#paint32_linear)"/>
<defs>
<linearGradient id="paint0_linear" x1="504.586" y1="571.309" x2="110.397" y2="82.2671" gradientUnits="userSpaceOnUse">
<stop stop-color="#DAE3FE"/>
<stop offset="1" stop-color="#E9EFFD"/>
</linearGradient>
<linearGradient id="paint1_linear" x1="73.7876" y1="180.503" x2="91.8584" y2="400.183" gradientUnits="userSpaceOnUse">
<stop stop-color="#09005D"/>
<stop offset="1" stop-color="#1A0F91"/>
</linearGradient>
<linearGradient id="paint2_linear" x1="8.09724" y1="154.965" x2="29.3246" y2="154.965" gradientUnits="userSpaceOnUse">
<stop stop-color="#DAE3FE"/>
<stop offset="1" stop-color="#E9EFFD"/>
</linearGradient>
<linearGradient id="paint3_linear" x1="153.239" y1="336.397" x2="514.758" y2="97.3514" gradientUnits="userSpaceOnUse">
<stop stop-color="#09005D"/>
<stop offset="1" stop-color="#1A0F91"/>
</linearGradient>
<linearGradient id="paint4_linear" x1="52.945" y1="277.632" x2="425.773" y2="277.632" gradientUnits="userSpaceOnUse">
<stop stop-color="#4F52FF"/>
<stop offset="1" stop-color="#4042E2"/>
</linearGradient>
<linearGradient id="paint5_linear" x1="235.892" y1="388.098" x2="167.786" y2="100.838" gradientUnits="userSpaceOnUse">
<stop stop-color="#09005D"/>
<stop offset="1" stop-color="#1A0F91"/>
</linearGradient>
<linearGradient id="paint6_linear" x1="144.929" y1="-83.1542" x2="143.306" y2="23.868" gradientUnits="userSpaceOnUse">
<stop stop-color="#FFC043"/>
<stop offset="1" stop-color="#FFA412"/>
</linearGradient>
<linearGradient id="paint7_linear" x1="158.583" y1="212.886" x2="184.01" y2="210.024" gradientUnits="userSpaceOnUse">
<stop stop-color="#FEBBBA"/>
<stop offset="1" stop-color="#FF928E"/>
</linearGradient>
<linearGradient id="paint8_linear" x1="230.632" y1="-81.8556" x2="229.009" y2="25.1667" gradientUnits="userSpaceOnUse">
<stop stop-color="#FFC043"/>
<stop offset="1" stop-color="#FFA412"/>
</linearGradient>
<linearGradient id="paint9_linear" x1="246.955" y1="169.113" x2="246.955" y2="270.572" gradientUnits="userSpaceOnUse">
<stop stop-color="#4F52FF"/>
<stop offset="1" stop-color="#4042E2"/>
</linearGradient>
<linearGradient id="paint10_linear" x1="257.592" y1="214.435" x2="218.217" y2="166.435" gradientUnits="userSpaceOnUse">
<stop stop-color="#4F52FF"/>
<stop offset="1" stop-color="#4042E2"/>
</linearGradient>
<linearGradient id="paint11_linear" x1="289.832" y1="69.1498" x2="264.947" y2="141.567" gradientUnits="userSpaceOnUse">
<stop stop-color="#4F52FF"/>
<stop offset="1" stop-color="#4042E2"/>
</linearGradient>
<linearGradient id="paint12_linear" x1="293.845" y1="70.5289" x2="268.959" y2="142.946" gradientUnits="userSpaceOnUse">
<stop stop-color="#4F52FF"/>
<stop offset="1" stop-color="#4042E2"/>
</linearGradient>
<linearGradient id="paint13_linear" x1="256.785" y1="200.504" x2="184.194" y2="170.282" gradientUnits="userSpaceOnUse">
<stop stop-color="#09005D"/>
<stop offset="1" stop-color="#1A0F91"/>
</linearGradient>
<linearGradient id="paint14_linear" x1="265.515" y1="137.683" x2="207.994" y2="159.127" gradientUnits="userSpaceOnUse">
<stop stop-color="#09005D"/>
<stop offset="1" stop-color="#1A0F91"/>
</linearGradient>
<linearGradient id="paint15_linear" x1="538.915" y1="-679.713" x2="518.931" y2="-623.062" gradientUnits="userSpaceOnUse">
<stop stop-color="#09005D"/>
<stop offset="1" stop-color="#1A0F91"/>
</linearGradient>
<linearGradient id="paint16_linear" x1="604.108" y1="-701.072" x2="586.95" y2="-632.675" gradientUnits="userSpaceOnUse">
<stop stop-color="#09005D"/>
<stop offset="1" stop-color="#1A0F91"/>
</linearGradient>
<linearGradient id="paint17_linear" x1="77.8991" y1="-311.119" x2="88.2849" y2="-204.592" gradientUnits="userSpaceOnUse">
<stop stop-color="#FFA412"/>
<stop offset="1" stop-color="#FE9D00"/>
</linearGradient>
<linearGradient id="paint18_linear" x1="216.785" y1="211.939" x2="169.476" y2="286.518" gradientUnits="userSpaceOnUse">
<stop stop-color="#FEBBBA"/>
<stop offset="1" stop-color="#FF928E"/>
</linearGradient>
<linearGradient id="paint19_linear" x1="228.145" y1="219.143" x2="180.835" y2="293.724" gradientUnits="userSpaceOnUse">
<stop stop-color="#FEBBBA"/>
<stop offset="1" stop-color="#FF928E"/>
</linearGradient>
<linearGradient id="paint20_linear" x1="148.984" y1="163.724" x2="125.314" y2="246.892" gradientUnits="userSpaceOnUse">
<stop stop-color="#FEBBBA"/>
<stop offset="1" stop-color="#FF928E"/>
</linearGradient>
<linearGradient id="paint21_linear" x1="142.769" y1="200.985" x2="117.05" y2="227.506" gradientUnits="userSpaceOnUse">
<stop stop-color="#FEBBBA"/>
<stop offset="1" stop-color="#FF928E"/>
</linearGradient>
<linearGradient id="paint22_linear" x1="119.729" y1="186.445" x2="151.965" y2="217.191" gradientUnits="userSpaceOnUse">
<stop stop-color="#09005D"/>
<stop offset="1" stop-color="#1A0F91"/>
</linearGradient>
<linearGradient id="paint23_linear" x1="138.47" y1="196.815" x2="112.751" y2="223.336" gradientUnits="userSpaceOnUse">
<stop stop-color="#FEBBBA"/>
<stop offset="1" stop-color="#FF928E"/>
</linearGradient>
<linearGradient id="paint24_linear" x1="151.915" y1="424.26" x2="58.6461" y2="525.603" gradientUnits="userSpaceOnUse">
<stop stop-color="#09005D"/>
<stop offset="1" stop-color="#1A0F91"/>
</linearGradient>
<linearGradient id="paint25_linear" x1="121.676" y1="431.795" x2="129.951" y2="431.795" gradientUnits="userSpaceOnUse">
<stop stop-color="#FEBBBA"/>
<stop offset="1" stop-color="#FF928E"/>
</linearGradient>
<linearGradient id="paint26_linear" x1="159.25" y1="309.543" x2="79.8702" y2="417.019" gradientUnits="userSpaceOnUse">
<stop stop-color="#09005D"/>
<stop offset="1" stop-color="#1A0F91"/>
</linearGradient>
<linearGradient id="paint27_linear" x1="131.015" y1="405.026" x2="37.7467" y2="506.37" gradientUnits="userSpaceOnUse">
<stop stop-color="#09005D"/>
<stop offset="1" stop-color="#1A0F91"/>
</linearGradient>
<linearGradient id="paint28_linear" x1="91.8522" y1="431.37" x2="98.997" y2="431.37" gradientUnits="userSpaceOnUse">
<stop stop-color="#FEBBBA"/>
<stop offset="1" stop-color="#FF928E"/>
</linearGradient>
<linearGradient id="paint29_linear" x1="144.073" y1="298.332" x2="64.6932" y2="405.808" gradientUnits="userSpaceOnUse">
<stop stop-color="#09005D"/>
<stop offset="1" stop-color="#1A0F91"/>
</linearGradient>
<linearGradient id="paint30_linear" x1="116.836" y1="271.449" x2="110.085" y2="335.323" gradientUnits="userSpaceOnUse">
<stop stop-color="#09005D"/>
<stop offset="1" stop-color="#1A0F91"/>
</linearGradient>
<linearGradient id="paint31_linear" x1="123.394" y1="238.867" x2="114.898" y2="319.247" gradientUnits="userSpaceOnUse">
<stop stop-color="#09005D"/>
<stop offset="1" stop-color="#1A0F91"/>
</linearGradient>
<linearGradient id="paint32_linear" x1="116.001" y1="238.621" x2="105.159" y2="341.189" gradientUnits="userSpaceOnUse">
<stop stop-color="#09005D"/>
<stop offset="1" stop-color="#1A0F91"/>
</linearGradient>
</defs>
</svg>
