<svg width="469" height="454" viewBox="0 0 469 454" fill="none" xmlns="http://www.w3.org/2000/svg">
<path d="M226.997 108.191C226.283 108.191 225.806 107.714 225.806 106.998V101.63C225.806 100.915 226.283 100.438 226.997 100.438C227.712 100.438 228.188 100.915 228.188 101.63V106.998C228.188 107.595 227.593 108.191 226.997 108.191Z" fill="#FFC043"/>
<path d="M226.997 221.75C226.283 221.75 225.806 221.273 225.806 220.557V209.225C225.806 208.509 226.283 208.032 226.997 208.032C227.712 208.032 228.188 208.509 228.188 209.225V220.557C228.188 221.154 227.593 221.75 226.997 221.75ZM226.997 198.966C226.283 198.966 225.806 198.489 225.806 197.774V186.441C225.806 185.726 226.283 185.249 226.997 185.249C227.712 185.249 228.188 185.726 228.188 186.441V197.774C228.188 198.489 227.593 198.966 226.997 198.966ZM226.997 176.302C226.283 176.302 225.806 175.825 225.806 175.109V163.777C225.806 163.062 226.283 162.584 226.997 162.584C227.712 162.584 228.188 163.062 228.188 163.777V175.109C228.188 175.825 227.593 176.302 226.997 176.302ZM226.997 153.638C226.283 153.638 225.806 153.161 225.806 152.445V141.113C225.806 140.397 226.283 139.92 226.997 139.92C227.712 139.92 228.188 140.397 228.188 141.113V152.445C228.188 153.042 227.593 153.638 226.997 153.638ZM226.997 130.855C226.283 130.855 225.806 130.377 225.806 129.662V118.33C225.806 117.614 226.283 117.137 226.997 117.137C227.712 117.137 228.188 117.614 228.188 118.33V129.662C228.188 130.377 227.593 130.855 226.997 130.855Z" fill="#FFC043"/>
<path d="M228.188 238.451H221.638C220.923 238.451 220.447 237.974 220.447 237.258C220.447 236.542 220.923 236.065 221.638 236.065H225.806V231.89C225.806 231.174 226.282 230.697 226.997 230.697C227.712 230.697 228.188 231.174 228.188 231.89V238.451Z" fill="#FFC043"/>
<path d="M210.919 238.45H200.32C199.605 238.45 199.129 237.973 199.129 237.257C199.129 236.542 199.605 236.064 200.32 236.064H210.919C211.634 236.064 212.11 236.542 212.11 237.257C212.11 237.973 211.634 238.45 210.919 238.45ZM189.601 238.45H179.001C178.287 238.45 177.811 237.973 177.811 237.257C177.811 236.542 178.287 236.064 179.001 236.064H189.601C190.316 236.064 190.792 236.542 190.792 237.257C190.792 237.973 190.316 238.45 189.601 238.45ZM168.283 238.45H157.683C156.969 238.45 156.492 237.973 156.492 237.257C156.492 236.542 156.969 236.064 157.683 236.064H168.283C168.997 236.064 169.474 236.542 169.474 237.257C169.474 237.973 168.997 238.45 168.283 238.45ZM146.965 238.45H136.365C135.651 238.45 135.174 237.973 135.174 237.257C135.174 236.542 135.651 236.064 136.365 236.064H146.965C147.679 236.064 148.156 236.542 148.156 237.257C148.156 237.973 147.679 238.45 146.965 238.45ZM125.646 238.45H115.047C114.332 238.45 113.856 237.973 113.856 237.257C113.856 236.542 114.332 236.064 115.047 236.064H125.646C126.361 236.064 126.837 236.542 126.837 237.257C126.837 237.973 126.361 238.45 125.646 238.45Z" fill="#FFC043"/>
<path d="M98.9688 243.818C98.2542 243.818 97.7778 243.341 97.7778 242.625V236.064H104.328C105.043 236.064 105.519 236.542 105.519 237.257C105.519 237.973 105.043 238.45 104.328 238.45H100.16V242.625C100.16 243.341 99.6834 243.818 98.9688 243.818Z" fill="#FFC043"/>
<path d="M98.9688 285.688C98.2542 285.688 97.7778 285.21 97.7778 284.495V273.998C97.7778 273.282 98.2542 272.805 98.9688 272.805C99.6834 272.805 100.16 273.282 100.16 273.998V284.495C100.16 285.091 99.6834 285.688 98.9688 285.688ZM98.9688 264.693C98.2542 264.693 97.7778 264.216 97.7778 263.5V253.003C97.7778 252.288 98.2542 251.811 98.9688 251.811C99.6834 251.811 100.16 252.288 100.16 253.003V263.5C100.16 264.216 99.6834 264.693 98.9688 264.693Z" fill="#FFC043"/>
<path d="M98.9688 301.552C98.2542 301.552 97.7778 301.075 97.7778 300.36V294.992C97.7778 294.276 98.2542 293.799 98.9688 293.799C99.6834 293.799 100.16 294.276 100.16 294.992V300.36C100.16 300.956 99.6834 301.552 98.9688 301.552Z" fill="#FFC043"/>
<path d="M246.291 108.191C245.576 108.191 245.1 107.714 245.1 106.998V101.63C245.1 100.915 245.576 100.438 246.291 100.438C247.005 100.438 247.482 100.915 247.482 101.63V106.998C247.482 107.595 247.005 108.191 246.291 108.191Z" fill="#FFC043"/>
<path d="M246.291 221.75C245.576 221.75 245.1 221.273 245.1 220.557V209.225C245.1 208.509 245.576 208.032 246.291 208.032C247.005 208.032 247.482 208.509 247.482 209.225V220.557C247.482 221.154 247.005 221.75 246.291 221.75ZM246.291 198.966C245.576 198.966 245.1 198.489 245.1 197.774V186.441C245.1 185.726 245.576 185.249 246.291 185.249C247.005 185.249 247.482 185.726 247.482 186.441V197.774C247.482 198.489 247.005 198.966 246.291 198.966ZM246.291 176.302C245.576 176.302 245.1 175.825 245.1 175.109V163.777C245.1 163.062 245.576 162.584 246.291 162.584C247.005 162.584 247.482 163.062 247.482 163.777V175.109C247.482 175.825 247.005 176.302 246.291 176.302ZM246.291 153.638C245.576 153.638 245.1 153.161 245.1 152.445V141.113C245.1 140.397 245.576 139.92 246.291 139.92C247.005 139.92 247.482 140.397 247.482 141.113V152.445C247.482 153.042 247.005 153.638 246.291 153.638ZM246.291 130.855C245.576 130.855 245.1 130.377 245.1 129.662V118.33C245.1 117.614 245.576 117.137 246.291 117.137C247.005 117.137 247.482 117.614 247.482 118.33V129.662C247.482 130.377 247.005 130.855 246.291 130.855Z" fill="#FFC043"/>
<path d="M251.65 238.451H245.1V231.89C245.1 231.174 245.576 230.697 246.291 230.697C247.005 230.697 247.482 231.174 247.482 231.89V236.065H251.65C252.364 236.065 252.841 236.542 252.841 237.258C252.841 237.974 252.364 238.451 251.65 238.451Z" fill="#FFC043"/>
<path d="M276.064 238.45H263.917C263.202 238.45 262.726 237.973 262.726 237.257C262.726 236.542 263.202 236.064 263.917 236.064H276.064C276.779 236.064 277.255 236.542 277.255 237.257C277.255 237.973 276.779 238.45 276.064 238.45Z" fill="#FFC043"/>
<path d="M293.691 243.818C292.976 243.818 292.5 243.341 292.5 242.625V238.45H288.332C287.617 238.45 287.141 237.973 287.141 237.257C287.141 236.542 287.617 236.064 288.332 236.064H294.882V242.625C294.882 243.341 294.286 243.818 293.691 243.818Z" fill="#FFC043"/>
<path d="M293.691 305.728C292.976 305.728 292.5 305.251 292.5 304.535V294.157C292.5 293.441 292.976 292.964 293.691 292.964C294.406 292.964 294.882 293.441 294.882 294.157V304.535C294.882 305.251 294.286 305.728 293.691 305.728ZM293.691 285.091C292.976 285.091 292.5 284.614 292.5 283.898V273.521C292.5 272.805 292.976 272.328 293.691 272.328C294.406 272.328 294.882 272.805 294.882 273.521V283.898C294.882 284.614 294.286 285.091 293.691 285.091ZM293.691 264.455C292.976 264.455 292.5 263.978 292.5 263.262V252.884C292.5 252.169 292.976 251.691 293.691 251.691C294.406 251.691 294.882 252.169 294.882 252.884V263.262C294.882 263.978 294.286 264.455 293.691 264.455Z" fill="#FFC043"/>
<path d="M293.691 321.474C292.976 321.474 292.5 320.997 292.5 320.281V314.914C292.5 314.198 292.976 313.721 293.691 313.721C294.406 313.721 294.882 314.198 294.882 314.914V320.281C294.882 320.878 294.286 321.474 293.691 321.474Z" fill="#FFC043"/>
<path d="M272.373 108.191C271.658 108.191 271.182 107.714 271.182 106.998V101.63C271.182 100.915 271.658 100.438 272.373 100.438C273.087 100.438 273.564 100.915 273.564 101.63V106.998C273.564 107.595 273.087 108.191 272.373 108.191Z" fill="#FFC043"/>
<path d="M272.373 199.086C271.658 199.086 271.182 198.609 271.182 197.893V186.561C271.182 185.845 271.658 185.368 272.373 185.368C273.087 185.368 273.564 185.845 273.564 186.561V197.893C273.564 198.489 273.087 199.086 272.373 199.086ZM272.373 176.302C271.658 176.302 271.182 175.825 271.182 175.109V163.777C271.182 163.062 271.658 162.584 272.373 162.584C273.087 162.584 273.564 163.062 273.564 163.777V175.109C273.564 175.825 273.087 176.302 272.373 176.302ZM272.373 153.638C271.658 153.638 271.182 153.161 271.182 152.445V141.113C271.182 140.397 271.658 139.92 272.373 139.92C273.087 139.92 273.564 140.397 273.564 141.113V152.445C273.564 153.042 273.087 153.638 272.373 153.638ZM272.373 130.855C271.658 130.855 271.182 130.377 271.182 129.662V118.33C271.182 117.614 271.658 117.137 272.373 117.137C273.087 117.137 273.564 117.614 273.564 118.33V129.662C273.564 130.377 273.087 130.855 272.373 130.855Z" fill="#FFC043"/>
<path d="M277.732 215.787H271.182V209.226C271.182 208.51 271.658 208.033 272.373 208.033C273.087 208.033 273.564 208.51 273.564 209.226V213.401H277.732C278.446 213.401 278.923 213.878 278.923 214.594C278.923 215.19 278.446 215.787 277.732 215.787Z" fill="#FFC043"/>
<path d="M411.119 215.786H400.043C399.329 215.786 398.852 215.309 398.852 214.593C398.852 213.878 399.329 213.4 400.043 213.4H411.119C411.834 213.4 412.31 213.878 412.31 214.593C412.31 215.19 411.834 215.786 411.119 215.786ZM388.967 215.786H377.891C377.177 215.786 376.701 215.309 376.701 214.593C376.701 213.878 377.177 213.4 377.891 213.4H388.967C389.682 213.4 390.158 213.878 390.158 214.593C390.158 215.19 389.563 215.786 388.967 215.786ZM366.696 215.786H355.621C354.906 215.786 354.43 215.309 354.43 214.593C354.43 213.878 354.906 213.4 355.621 213.4H366.696C367.411 213.4 367.887 213.878 367.887 214.593C367.887 215.19 367.292 215.786 366.696 215.786ZM344.426 215.786H333.35C332.635 215.786 332.159 215.309 332.159 214.593C332.159 213.878 332.635 213.4 333.35 213.4H344.426C345.14 213.4 345.616 213.878 345.616 214.593C345.616 215.19 345.14 215.786 344.426 215.786ZM322.274 215.786H311.198C310.483 215.786 310.007 215.309 310.007 214.593C310.007 213.878 310.483 213.4 311.198 213.4H322.274C322.988 213.4 323.465 213.878 323.465 214.593C323.465 215.19 322.869 215.786 322.274 215.786ZM300.003 215.786H288.927C288.212 215.786 287.736 215.309 287.736 214.593C287.736 213.878 288.212 213.4 288.927 213.4H300.003C300.717 213.4 301.194 213.878 301.194 214.593C301.194 215.19 300.598 215.786 300.003 215.786Z" fill="#FFC043"/>
<path d="M427.674 221.154C426.959 221.154 426.483 220.677 426.483 219.961V215.786H422.314C421.6 215.786 421.124 215.309 421.124 214.593C421.124 213.878 421.6 213.4 422.314 213.4H428.865V219.961C428.865 220.558 428.269 221.154 427.674 221.154Z" fill="#FFC043"/>
<path d="M427.674 305.489C426.959 305.489 426.483 305.012 426.483 304.296V293.799C426.483 293.083 426.959 292.606 427.674 292.606C428.388 292.606 428.865 293.083 428.865 293.799V304.296C428.865 305.012 428.269 305.489 427.674 305.489ZM427.674 284.375C426.959 284.375 426.483 283.898 426.483 283.182V272.685C426.483 271.97 426.959 271.493 427.674 271.493C428.388 271.493 428.865 271.97 428.865 272.685V283.182C428.865 283.898 428.269 284.375 427.674 284.375ZM427.674 263.262C426.959 263.262 426.483 262.785 426.483 262.069V251.572C426.483 250.856 426.959 250.379 427.674 250.379C428.388 250.379 428.865 250.856 428.865 251.572V262.069C428.865 262.785 428.269 263.262 427.674 263.262ZM427.674 242.268C426.959 242.268 426.483 241.79 426.483 241.075V230.578C426.483 229.862 426.959 229.385 427.674 229.385C428.388 229.385 428.865 229.862 428.865 230.578V241.075C428.865 241.671 428.269 242.268 427.674 242.268Z" fill="#FFC043"/>
<path d="M427.674 321.474C426.959 321.474 426.483 320.997 426.483 320.281V314.914C426.483 314.198 426.959 313.721 427.674 313.721C428.388 313.721 428.865 314.198 428.865 314.914V320.281C428.865 320.878 428.269 321.474 427.674 321.474Z" fill="#FFC043"/>
<path d="M193.412 374.198H4.52539V269.585C4.52539 267.319 6.31183 265.529 8.57465 265.529H189.362C191.625 265.529 193.412 267.319 193.412 269.585V374.198Z" fill="#122B49"/>
<path d="M11.7905 370.143V274.357C11.7905 273.522 12.5051 272.926 13.2197 272.926H184.599C185.432 272.926 186.028 273.641 186.028 274.357V370.143C186.028 370.978 185.313 371.575 184.599 371.575H13.3388C12.5051 371.575 11.7905 370.978 11.7905 370.143Z" fill="#80A6DD"/>
<path opacity="0.36" d="M98.9688 357.378C133.369 357.378 161.256 356.096 161.256 354.515C161.256 352.934 133.369 351.652 98.9688 351.652C64.5686 351.652 36.6816 352.934 36.6816 354.515C36.6816 356.096 64.5686 357.378 98.9688 357.378Z" fill="#80A6DD"/>
<path d="M143.154 301.434H87.0596V301.672H143.154V301.434Z" fill="#E5A93E"/>
<path d="M143.154 307.039H87.0596V307.278H143.154V307.039Z" fill="#E5A93E"/>
<path d="M143.511 307.04H86.9403C86.8212 307.04 86.7021 306.92 86.7021 306.801V301.91C86.7021 301.791 86.8212 301.672 86.9403 301.672H143.511C143.63 301.672 143.749 301.791 143.749 301.91V306.801C143.749 306.92 143.63 307.04 143.511 307.04Z" fill="#FFC043"/>
<path opacity="0.36" d="M95.0387 301.434H91.4658V307.398H95.0387V301.434Z" fill="#FFC043"/>
<path opacity="0.36" d="M97.659 301.434H95.8726V307.398H97.659V301.434Z" fill="#FFC043"/>
<path opacity="0.36" d="M141.01 301.434H139.224V307.398H141.01V301.434Z" fill="#FFC043"/>
<path d="M141.605 307.279H85.5112V307.518H141.605V307.279Z" fill="#E5A93E"/>
<path d="M141.605 313.006H85.5112V313.244H141.605V313.006Z" fill="#E5A93E"/>
<path d="M141.843 313.005H85.2729C85.1538 313.005 85.0347 312.885 85.0347 312.766V307.875C85.0347 307.756 85.1538 307.637 85.2729 307.637H141.843C141.963 307.637 142.082 307.756 142.082 307.875V312.766C142.201 312.885 142.082 313.005 141.843 313.005Z" fill="#FFC043"/>
<path opacity="0.36" d="M93.3712 307.279H89.7983V313.244H93.3712V307.279Z" fill="#FFC043"/>
<path opacity="0.36" d="M95.9915 307.279H94.2051V313.244H95.9915V307.279Z" fill="#FFC043"/>
<path opacity="0.36" d="M139.343 307.279H137.556V313.244H139.343V307.279Z" fill="#FFC043"/>
<path d="M144.345 313.242H88.2505V313.481H144.345V313.242Z" fill="#E5A93E"/>
<path d="M144.345 318.969H88.2505V319.207H144.345V318.969Z" fill="#E5A93E"/>
<path d="M144.702 318.968H88.0121C87.893 318.968 87.7739 318.848 87.7739 318.729V313.719C87.7739 313.6 87.893 313.48 88.0121 313.48H144.583C144.702 313.48 144.821 313.6 144.821 313.719V318.61C144.94 318.848 144.821 318.968 144.702 318.968Z" fill="#FFC043"/>
<path opacity="0.36" d="M96.1105 313.242H92.5376V319.206H96.1105V313.242Z" fill="#FFC043"/>
<path opacity="0.36" d="M98.8499 313.242H97.0635V319.206H98.8499V313.242Z" fill="#FFC043"/>
<path opacity="0.36" d="M142.082 313.242H140.295V319.206H142.082V313.242Z" fill="#FFC043"/>
<path d="M143.154 319.207H87.0596V319.446H143.154V319.207Z" fill="#E5A93E"/>
<path d="M143.154 324.812H87.0596V325.051H143.154V324.812Z" fill="#E5A93E"/>
<path d="M143.511 324.813H86.9403C86.8212 324.813 86.7021 324.694 86.7021 324.575V319.684C86.7021 319.565 86.8212 319.445 86.9403 319.445H143.511C143.63 319.445 143.749 319.565 143.749 319.684V324.575C143.749 324.694 143.63 324.813 143.511 324.813Z" fill="#FFC043"/>
<path opacity="0.36" d="M95.0387 319.207H91.4658V325.171H95.0387V319.207Z" fill="#FFC043"/>
<path opacity="0.36" d="M97.659 319.207H95.8726V325.171H97.659V319.207Z" fill="#FFC043"/>
<path opacity="0.36" d="M141.01 319.207H139.224V325.171H141.01V319.207Z" fill="#FFC043"/>
<path d="M143.987 325.053H87.8931V325.291H143.987V325.053Z" fill="#E5A93E"/>
<path d="M143.987 330.779H87.8931V331.018H143.987V330.779Z" fill="#E5A93E"/>
<path d="M144.225 330.778H87.6547C87.5356 330.778 87.4165 330.659 87.4165 330.539V325.649C87.4165 325.529 87.5356 325.41 87.6547 325.41H144.225C144.344 325.41 144.463 325.529 144.463 325.649V330.539C144.583 330.659 144.463 330.778 144.225 330.778Z" fill="#FFC043"/>
<path opacity="0.36" d="M95.7531 325.053H92.1802V331.017H95.7531V325.053Z" fill="#FFC043"/>
<path opacity="0.36" d="M98.3733 325.053H96.5869V331.017H98.3733V325.053Z" fill="#FFC043"/>
<path opacity="0.36" d="M141.724 325.053H139.938V331.017H141.724V325.053Z" fill="#FFC043"/>
<path d="M143.987 331.016H87.8931V331.254H143.987V331.016Z" fill="#E5A93E"/>
<path d="M143.987 336.621H87.8931V336.86H143.987V336.621Z" fill="#E5A93E"/>
<path d="M144.225 336.622H87.6547C87.5356 336.622 87.4165 336.502 87.4165 336.383V331.492C87.4165 331.373 87.5356 331.254 87.6547 331.254H144.225C144.344 331.254 144.463 331.373 144.463 331.492V336.383C144.583 336.502 144.463 336.622 144.225 336.622Z" fill="#FFC043"/>
<path opacity="0.36" d="M95.7531 331.016H92.1802V336.98H95.7531V331.016Z" fill="#FFC043"/>
<path opacity="0.36" d="M98.3733 331.016H96.5869V336.98H98.3733V331.016Z" fill="#FFC043"/>
<path opacity="0.36" d="M141.724 331.016H139.938V336.98H141.724V331.016Z" fill="#FFC043"/>
<path d="M143.154 336.861H87.0596V337.1H143.154V336.861Z" fill="#E5A93E"/>
<path d="M143.154 342.588H87.0596V342.826H143.154V342.588Z" fill="#E5A93E"/>
<path d="M143.511 342.587H86.9403C86.8212 342.587 86.7021 342.467 86.7021 342.348V337.457C86.7021 337.338 86.8212 337.219 86.9403 337.219H143.511C143.63 337.219 143.749 337.338 143.749 337.457V342.348C143.749 342.467 143.63 342.587 143.511 342.587Z" fill="#FFC043"/>
<path opacity="0.36" d="M95.0387 336.861H91.4658V342.826H95.0387V336.861Z" fill="#FFC043"/>
<path opacity="0.36" d="M97.659 336.861H95.8726V342.826H97.659V336.861Z" fill="#FFC043"/>
<path opacity="0.36" d="M141.01 336.861H139.224V342.826H141.01V336.861Z" fill="#FFC043"/>
<path d="M143.154 342.826H87.0596V343.065H143.154V342.826Z" fill="#E5A93E"/>
<path d="M143.154 348.553H87.0596V348.791H143.154V348.553Z" fill="#E5A93E"/>
<path d="M143.511 348.551H86.9403C86.8212 348.551 86.7021 348.432 86.7021 348.313V343.422C86.7021 343.303 86.8212 343.184 86.9403 343.184H143.511C143.63 343.184 143.749 343.303 143.749 343.422V348.313C143.749 348.432 143.63 348.551 143.511 348.551Z" fill="#FFC043"/>
<path opacity="0.36" d="M95.0387 342.826H91.4658V348.79H95.0387V342.826Z" fill="#FFC043"/>
<path opacity="0.36" d="M97.659 342.826H95.8726V348.79H97.659V342.826Z" fill="#FFC043"/>
<path opacity="0.36" d="M141.01 342.826H139.224V348.79H141.01V342.826Z" fill="#FFC043"/>
<path d="M144.345 348.789H88.2505V349.028H144.345V348.789Z" fill="#E5A93E"/>
<path d="M144.345 354.395H88.2505V354.633H144.345V354.395Z" fill="#E5A93E"/>
<path d="M144.702 354.395H88.0121C87.893 354.395 87.7739 354.276 87.7739 354.157V349.266C87.7739 349.147 87.893 349.027 88.0121 349.027H144.583C144.702 349.027 144.821 349.147 144.821 349.266V354.157C144.94 354.276 144.821 354.395 144.702 354.395Z" fill="#FFC043"/>
<path opacity="0.36" d="M96.1105 348.789H92.5376V354.753H96.1105V348.789Z" fill="#FFC043"/>
<path opacity="0.36" d="M98.8499 348.789H97.0635V354.753H98.8499V348.789Z" fill="#FFC043"/>
<path opacity="0.36" d="M142.082 348.789H140.295V354.753H142.082V348.789Z" fill="#FFC043"/>
<path d="M65.2651 353.562C77.2938 357.975 91.5853 349.148 97.1829 333.76C102.78 318.372 97.5401 302.388 85.3923 297.975L79.1994 296.305L61.335 352.488L65.2651 353.562Z" fill="#E5A93E"/>
<path d="M61.5534 352.618C73.6035 357.019 87.9025 348.143 93.4911 332.794C99.0796 317.444 93.8415 301.433 81.7913 297.032C69.7412 292.63 55.4422 301.506 49.8537 316.856C44.2651 332.205 49.5033 348.216 61.5534 352.618Z" fill="#FFC043"/>
<path opacity="0.36" d="M63.2259 348.023C73.2986 351.702 85.2455 344.298 89.9102 331.486C94.5748 318.674 90.1907 305.305 80.1181 301.626C70.0454 297.947 58.0985 305.351 53.4338 318.163C48.7692 330.975 53.1532 344.344 63.2259 348.023Z" fill="#FFC043"/>
<g opacity="0.63">
<path opacity="0.63" d="M73.3635 321.831C75.1499 323.501 76.3409 325.291 76.8173 326.961C77.2937 328.75 77.1746 330.658 76.3409 332.805C75.5072 335.072 74.3163 336.742 72.6489 337.815C70.9816 338.889 69.1951 339.128 67.1705 338.65L66.2177 341.394L65.0268 340.917L65.9795 338.173C64.3122 337.458 63.1212 336.384 62.5257 334.953C61.9303 333.521 61.6921 331.732 62.1685 329.585L65.0268 328.75C64.6695 330.42 64.7886 331.851 65.1459 332.925C65.5032 333.998 66.0986 334.833 67.1705 335.31L71.2198 324.217C69.6715 322.666 68.7187 321.116 68.2424 319.565C67.766 318.014 67.8851 316.344 68.5996 314.555C69.3142 312.646 70.3861 311.334 71.6961 310.499C73.1253 309.664 74.6735 309.426 76.5791 309.783L77.2937 307.994L78.4846 308.471L77.8891 310.261C79.0801 310.857 80.0329 311.573 80.6283 312.646C81.2238 313.601 81.5811 314.913 81.7002 316.344L78.8419 317.298C78.8419 316.225 78.7228 315.39 78.3655 314.674C78.0082 313.958 77.5318 313.481 76.9364 313.123L73.3635 321.831ZM75.3881 312.646C74.4354 312.527 73.6017 312.766 72.8871 313.243C72.1725 313.72 71.577 314.436 71.2198 315.39C70.8625 316.463 70.7434 317.418 70.9816 318.253C71.2198 319.088 71.6961 319.923 72.5298 320.877L75.3881 312.646ZM68.2424 335.907C69.5524 336.026 70.6243 335.788 71.577 335.191C72.4107 334.595 73.1253 333.521 73.7208 332.09C74.1972 330.778 74.3163 329.704 74.0781 328.63C73.8399 327.557 73.2444 326.483 72.1725 325.41L68.2424 335.907Z" fill="#FFC043"/>
</g>
<path opacity="0.36" d="M87.4167 343.542C85.3921 345.928 83.1293 347.956 80.7474 349.507L60.6201 301.435C62.8829 299.526 65.384 298.214 68.0041 297.26L87.4167 343.542Z" fill="#FFDB45"/>
<path opacity="0.36" d="M77.0554 351.653C75.7454 352.249 74.4353 352.726 73.1253 353.084L54.3081 308.233C55.2609 306.921 56.2136 305.609 57.2855 304.535L77.0554 351.653Z" fill="#FFDB45"/>
<path d="M135.174 354.755C144.777 354.755 152.562 346.958 152.562 337.339C152.562 327.721 144.777 319.924 135.174 319.924C125.571 319.924 117.786 327.721 117.786 337.339C117.786 346.958 125.571 354.755 135.174 354.755Z" fill="#E6E9F4"/>
<path d="M118.382 336.982C119.811 337.578 121.121 338.294 122.431 339.009C123.741 339.844 124.932 340.679 126.123 341.634C127.314 342.588 128.386 343.662 129.458 344.735C130.53 345.928 131.482 347.121 132.316 348.552L128.981 348.672C130.291 346.167 131.84 343.781 133.507 341.514C135.174 339.248 136.961 337.101 138.985 335.192C140.891 333.164 142.916 331.375 145.059 329.586C147.203 327.797 149.347 326.246 151.729 324.814C151.848 324.814 151.967 324.814 151.967 324.814C151.967 324.934 151.967 324.934 151.967 325.053C147.798 328.512 143.987 332.449 140.653 336.624C138.985 338.652 137.437 340.918 136.008 343.184C134.579 345.451 133.507 347.837 132.435 350.222C131.959 351.177 130.887 351.534 129.934 351.177C129.577 351.057 129.339 350.819 129.1 350.461C127.671 348.194 126.004 345.928 124.098 343.781C123.146 342.707 122.193 341.634 121.24 340.56L118.263 337.339C118.144 337.22 118.144 337.101 118.263 337.101C118.263 336.982 118.382 336.982 118.382 336.982Z" fill="#3EA03C"/>
<path d="M190.911 381.476H7.14576C3.21559 381.476 0 378.255 0 374.318V374.199H198.057V374.318C198.057 378.255 194.841 381.476 190.911 381.476Z" fill="#0E1D2B"/>
<path d="M117.548 376.585H85.1539C83.8438 376.585 82.772 375.511 82.772 374.199H119.811C119.93 375.511 118.858 376.585 117.548 376.585Z" fill="#0E1D2B"/>
<path d="M228.902 314.912H216.159L217.112 324.932L217.231 328.033L216.636 330.658L220.447 332.924L223.067 332.805L225.806 330.658L225.21 328.272L223.781 328.033L226.759 324.694L228.902 314.912Z" fill="#D8AF93"/>
<path d="M207.465 383.859L207.227 451.016L205.322 453.283L204.964 453.879H211.634L210.443 451.135L220.685 401.036L218.779 388.272L231.761 451.374L231.642 453.879H233.905L234.262 453.64L234.977 453.879H242.122L241.289 453.044L235.691 451.255L234.738 384.694L217.231 376.463L207.465 383.859Z" fill="#080E32"/>
<path d="M208.299 370.142L205.679 333.282L216.635 330.658H225.806L236.524 333.282L234.381 370.142L236.524 384.217L229.26 387.796L218.898 386.722L217.35 376.941L217.826 386.722L207.227 388.154L203.892 386.245L208.299 370.142Z" fill="#08153F"/>
<path d="M205.679 333.281L198.057 358.093L207.108 375.747L208.418 371.333L204.488 359.524L203.535 358.928L204.369 358.808L206.989 351.174L205.679 333.281Z" fill="#08153F"/>
<path d="M236.525 333.281L244.147 358.093L235.096 375.747L233.786 371.333L237.716 359.524L238.669 358.928L237.835 358.808L235.215 351.174L236.525 333.281Z" fill="#08153F"/>
<path d="M225.687 308.59L216.397 309.663L214.849 311.572L213.063 310.976L212.467 315.389L214.611 323.262L216.636 328.033H225.925L228.903 322.904L230.332 315.628L230.213 312.526L225.687 308.59Z" fill="#050D21"/>
<path d="M98.6115 313.838L86.1064 316.701L87.4165 326.84L87.5356 330.061L87.0592 332.327L90.9894 334.474L93.6095 334.355L96.3487 332.089L95.6341 329.584L97.1824 327.436L98.2542 323.261L98.6115 319.206V313.838Z" fill="#D8AF93"/>
<path d="M80.7473 388.392L78.3654 451.136L76.4598 453.283L76.1025 453.88H82.891L81.581 451.255L92.5378 402.229L92.0614 393.044L98.6117 451.375L98.4926 453.88H100.874L101.113 453.641L101.827 453.88H109.092L108.378 453.045L102.661 451.375L109.092 384.814L90.6322 377.537L90.0368 386.364L80.7473 388.392Z" fill="#0D143A"/>
<path d="M81.581 369.186L74.9116 337.933L87.0594 332.326L96.3489 332.088L109.926 337.933L104.09 359.404L107.544 372.526L111.474 378.967L109.569 385.528L105.877 387.794L91.2278 386.363L92.5378 379.444L90.0368 386.363L82.1765 387.436L77.0553 385.528L81.581 369.186Z" fill="#0A1B52"/>
<path d="M109.926 337.934L112.188 358.212L110.521 372.646L107.782 372.169L104.09 359.405L101.708 342.347L109.926 337.934Z" fill="#0A1B52"/>
<path d="M99.5643 310.379L85.1537 311.572L84.2009 312.884L82.6527 313.6L82.2954 317.297L83.6055 325.29L87.5356 330.061L95.1578 329.942L96.3487 324.932L95.9914 322.069L97.5397 321.115L98.9688 318.013L99.0879 313.838L99.5643 310.379Z" fill="#050D21"/>
<path d="M74.9114 337.934L73.0059 358.57L80.628 371.572L81.3426 369.067L79.3179 358.689L74.9114 337.934Z" fill="#0A1B52"/>
<path d="M110.045 372.647L109.925 374.317L110.283 376.941L107.663 372.647L107.782 372.17L110.045 372.647Z" fill="#D8AF93"/>
<path d="M333.945 317.178L347.284 317.655L345.974 328.629L345.736 331.969L346.331 334.474L342.163 336.74L339.186 336.502L336.327 334.116L337.042 331.492L334.541 326.601L333.945 320.279V317.178Z" fill="#D8AF93"/>
<path d="M323.107 388.033L327.99 450.181L323.107 452.328L325.251 452.447L330.253 451.135L333.945 427.039C334.064 425.966 333.945 424.892 333.588 423.938L332.635 421.791L334.422 399.723L343.473 422.268L343.592 425.25C343.592 425.846 343.711 426.443 343.83 426.92L351.095 450.896L354.311 453.163L355.144 452.805L353.001 450.777L351.214 426.085C351.214 425.369 350.976 424.653 350.738 423.938L349.785 421.433L346.212 383.5L323.107 388.033Z" fill="#D8AF93"/>
<path d="M330.254 450.062L328.348 451.613L325.132 452.568L323.108 452.448L322.393 452.806L321.679 453.88H326.204C326.323 453.88 326.323 453.88 326.443 453.88L329.539 452.568L329.896 453.88H330.492L330.254 450.062Z" fill="#080E32"/>
<path d="M340.972 377.059L322.274 380.637L322.631 410.697L350.381 409.146L351.452 390.419L347.76 390.657L352.048 388.391L349.547 381.114L340.972 377.059Z" fill="#080E32"/>
<path d="M350.261 374.913L357.169 341.871L349.666 334.594L339.662 334.236L327.395 338.888L328.824 354.276L321.917 376.463V387.915L332.397 390.897L341.567 390.42L340.734 382.905L342.877 390.42L347.879 390.658L353.477 389.465L350.261 374.913Z" fill="#08153F"/>
<path d="M327.395 338.889L318.463 362.507V365.728L321.202 367.04L323.465 366.324L330.611 351.056L327.395 338.889Z" fill="#08153F"/>
<path d="M333.35 319.564L335.732 322.665L335.613 324.693L334.184 343.54L351.81 343.302L351.214 319.683L348.237 313.003L342.282 310.379L335.136 312.168L332.993 315.27L333.35 319.564Z" fill="#050D21"/>
<path d="M350.619 450.301L350.976 453.999H351.452L351.81 452.329L353.358 453.999H355.502L354.906 452.687L354.668 452.806L353.358 451.733L353.001 450.54L352.762 450.062L350.619 450.301Z" fill="#080E32"/>
<path d="M313.818 381.474H272.73C271.658 381.474 270.824 380.639 270.824 379.566V298.332C270.824 297.259 271.658 296.424 272.73 296.424H313.818C314.89 296.424 315.723 297.259 315.723 298.332V379.566C315.723 380.639 314.89 381.474 313.818 381.474Z" fill="#122B49"/>
<path d="M272.373 378.731V299.048C272.373 298.452 272.849 297.975 273.444 297.975H312.984C313.58 297.975 314.056 298.452 314.056 299.048V378.731C314.056 379.327 313.58 379.804 312.984 379.804H273.444C272.849 379.924 272.373 379.446 272.373 378.731Z" fill="#80A6DD"/>
<path d="M293.214 376.584C294.596 376.584 295.715 375.463 295.715 374.079C295.715 372.696 294.596 371.574 293.214 371.574C291.833 371.574 290.713 372.696 290.713 374.079C290.713 375.463 291.833 376.584 293.214 376.584Z" fill="#122B49"/>
<path opacity="0.36" d="M293.214 353.919C302.686 353.919 310.364 353.332 310.364 352.607C310.364 351.882 302.686 351.295 293.214 351.295C283.743 351.295 276.064 351.882 276.064 352.607C276.064 353.332 283.743 353.919 293.214 353.919Z" fill="#80A6DD"/>
<path d="M293.214 352.726C301.107 352.726 307.506 346.317 307.506 338.412C307.506 330.506 301.107 324.098 293.214 324.098C285.321 324.098 278.923 330.506 278.923 338.412C278.923 346.317 285.321 352.726 293.214 352.726Z" fill="#FFC043"/>
<path opacity="0.36" d="M293.214 350.103C299.66 350.103 304.886 344.869 304.886 338.413C304.886 331.956 299.66 326.723 293.214 326.723C286.768 326.723 281.543 331.956 281.543 338.413C281.543 344.869 286.768 350.103 293.214 350.103Z" fill="#FFC043"/>
<path d="M292.381 346.285V344.615C290.475 344.376 289.165 343.064 288.927 341.155V340.678H290.713L290.832 341.036C291.07 341.99 291.547 342.587 292.5 342.945V338.77C290.832 338.292 289.284 337.457 289.284 335.31C289.284 333.521 290.594 332.209 292.5 331.97V330.658H294.286V331.97C296.311 332.328 297.263 333.76 297.383 335.072V335.549H295.596L295.477 335.191C295.239 334.475 294.882 333.998 294.286 333.76V337.338C296.549 338.054 297.621 339.247 297.621 341.036C297.621 343.064 296.43 344.257 294.286 344.615V346.285H292.381ZM294.167 342.825C295.12 342.587 295.596 342.11 295.596 341.036C295.596 340.32 295.358 339.605 294.167 339.127V342.825ZM292.381 333.64C291.309 333.879 291.07 334.595 291.07 335.191C291.07 335.907 291.309 336.384 292.381 336.742V333.64Z" fill="#FFC043"/>
<path opacity="0.36" d="M304.409 347.478C302.98 349.267 301.194 350.579 299.169 351.533L288.093 325.052C289.761 324.455 291.428 324.098 293.334 324.098C293.81 324.098 294.286 324.098 294.763 324.217L304.409 347.478Z" fill="#FFDB45"/>
<path opacity="0.36" d="M296.073 352.489C295.12 352.727 294.167 352.727 293.214 352.727C293.095 352.727 292.857 352.727 292.738 352.727L282.615 328.751C283.329 327.916 284.282 327.2 285.116 326.484L296.073 352.489Z" fill="#FFDB45"/>
<path d="M302.623 352.726C306.898 352.726 310.364 349.254 310.364 344.972C310.364 340.69 306.898 337.219 302.623 337.219C298.347 337.219 294.881 340.69 294.881 344.972C294.881 349.254 298.347 352.726 302.623 352.726Z" fill="#E6E9F4"/>
<path d="M295.239 344.852C295.834 345.091 296.43 345.449 297.025 345.806C297.621 346.164 298.097 346.522 298.693 346.999C299.169 347.476 299.764 347.954 300.241 348.431C300.717 348.908 301.074 349.504 301.551 350.101L300.122 350.22C300.717 349.027 301.432 348.073 302.146 346.999C302.861 346.045 303.695 345.091 304.528 344.136C305.362 343.301 306.315 342.466 307.267 341.631C308.22 340.916 309.173 340.081 310.245 339.484H310.364V339.604C308.458 341.154 306.791 342.944 305.243 344.733C304.528 345.687 303.814 346.641 303.218 347.596C302.623 348.55 302.146 349.624 301.67 350.697C301.432 351.174 300.955 351.294 300.598 351.055C300.479 350.936 300.36 350.816 300.241 350.697C299.645 349.624 298.812 348.669 297.978 347.715C297.502 347.238 297.144 346.761 296.668 346.284L295.358 344.852C295.12 344.971 295.12 344.971 295.239 344.852C295.12 344.852 295.12 344.852 295.239 344.852Z" fill="#3EA03C"/>
<path d="M299.288 297.975H287.021C287.021 299.764 288.332 301.195 289.999 301.195H296.192C297.978 301.195 299.288 299.764 299.288 297.975Z" fill="#122B49"/>
<path d="M383.965 379.566V265.768C383.965 264.694 384.799 263.859 385.871 263.859H466.975C468.047 263.859 468.881 264.694 468.881 265.768V379.566C468.881 380.64 468.047 381.475 466.975 381.475H385.871C384.799 381.475 383.965 380.64 383.965 379.566Z" fill="#122B49"/>
<path d="M386.704 265.529H466.261C466.856 265.529 467.332 266.006 467.332 266.603V378.492C467.332 379.089 466.856 379.566 466.261 379.566H386.704C386.109 379.566 385.633 379.089 385.633 378.492V266.603C385.513 266.006 386.109 265.529 386.704 265.529Z" fill="#80A6DD"/>
<path d="M426.482 376.465C428.653 376.465 430.413 374.702 430.413 372.528C430.413 370.354 428.653 368.592 426.482 368.592C424.312 368.592 422.552 370.354 422.552 372.528C422.552 374.702 424.312 376.465 426.482 376.465Z" fill="#122B49"/>
<path opacity="0.36" d="M426.483 355.352C447.202 355.352 463.998 354.177 463.998 352.728C463.998 351.278 447.202 350.104 426.483 350.104C405.763 350.104 388.967 351.278 388.967 352.728C388.967 354.177 405.763 355.352 426.483 355.352Z" fill="#80A6DD"/>
<path d="M454.947 304.061H403.378V304.299H454.947V304.061Z" fill="#E5A93E"/>
<path d="M454.947 309.189H403.378V309.428H454.947V309.189Z" fill="#E5A93E"/>
<path d="M455.066 309.19H403.14C403.021 309.19 402.902 309.07 402.902 308.951V304.537C402.902 304.418 403.021 304.299 403.14 304.299H455.066C455.185 304.299 455.304 304.418 455.304 304.537V308.951C455.423 309.07 455.185 309.19 455.066 309.19Z" fill="#FFC043"/>
<path opacity="0.36" d="M410.643 304.061H407.309V309.548H410.643V304.061Z" fill="#FFC043"/>
<path opacity="0.36" d="M413.025 304.061H411.357V309.548H413.025V304.061Z" fill="#FFC043"/>
<path opacity="0.36" d="M452.803 304.061H451.136V309.548H452.803V304.061Z" fill="#FFC043"/>
<path d="M453.399 309.428H401.83V309.666H453.399V309.428Z" fill="#E5A93E"/>
<path d="M453.399 314.676H401.83V314.914H453.399V314.676Z" fill="#E5A93E"/>
<path d="M453.637 314.676H401.711C401.592 314.676 401.473 314.557 401.473 314.437V310.024C401.473 309.904 401.592 309.785 401.711 309.785H453.637C453.756 309.785 453.875 309.904 453.875 310.024V314.437C453.875 314.557 453.756 314.676 453.637 314.676Z" fill="#FFC043"/>
<path opacity="0.36" d="M409.214 309.428H405.879V314.915H409.214V309.428Z" fill="#FFC043"/>
<path opacity="0.36" d="M411.596 309.428H409.929V314.915H411.596V309.428Z" fill="#FFC043"/>
<path opacity="0.36" d="M451.374 309.428H449.707V314.915H451.374V309.428Z" fill="#FFC043"/>
<path d="M456.018 314.916H404.45V315.155H456.018V314.916Z" fill="#E5A93E"/>
<path d="M456.018 320.045H404.45V320.284H456.018V320.045Z" fill="#E5A93E"/>
<path d="M456.138 320.045H404.212C404.093 320.045 403.974 319.926 403.974 319.806V315.393C403.974 315.274 404.093 315.154 404.212 315.154H456.138C456.257 315.154 456.376 315.274 456.376 315.393V319.806C456.376 319.926 456.257 320.045 456.138 320.045Z" fill="#FFC043"/>
<path opacity="0.36" d="M411.715 314.916H408.38V320.403H411.715V314.916Z" fill="#FFC043"/>
<path opacity="0.36" d="M414.097 314.916H412.43V320.403H414.097V314.916Z" fill="#FFC043"/>
<path opacity="0.36" d="M453.875 314.916H452.208V320.403H453.875V314.916Z" fill="#FFC043"/>
<path d="M454.947 320.283H403.378V320.522H454.947V320.283Z" fill="#E5A93E"/>
<path d="M454.947 325.531H403.378V325.77H454.947V325.531Z" fill="#E5A93E"/>
<path d="M455.066 325.531H403.14C403.021 325.531 402.902 325.412 402.902 325.293V320.879C402.902 320.76 403.021 320.641 403.14 320.641H455.066C455.185 320.641 455.304 320.76 455.304 320.879V325.293C455.423 325.412 455.185 325.531 455.066 325.531Z" fill="#FFC043"/>
<path opacity="0.36" d="M410.643 320.283H407.309V325.77H410.643V320.283Z" fill="#FFC043"/>
<path opacity="0.36" d="M413.025 320.283H411.357V325.77H413.025V320.283Z" fill="#FFC043"/>
<path opacity="0.36" d="M452.803 320.283H451.136V325.77H452.803V320.283Z" fill="#FFC043"/>
<path d="M455.661 325.77H404.093V326.008H455.661V325.77Z" fill="#E5A93E"/>
<path d="M455.661 330.898H404.093V331.137H455.661V330.898Z" fill="#E5A93E"/>
<path d="M455.78 330.899H403.854C403.735 330.899 403.616 330.779 403.616 330.66V326.246C403.616 326.127 403.735 326.008 403.854 326.008H455.78C455.899 326.008 456.018 326.127 456.018 326.246V330.66C456.018 330.779 455.899 330.899 455.78 330.899Z" fill="#FFC043"/>
<path opacity="0.36" d="M411.358 325.77H408.023V331.257H411.358V325.77Z" fill="#FFC043"/>
<path opacity="0.36" d="M413.74 325.77H412.072V331.257H413.74V325.77Z" fill="#FFC043"/>
<path opacity="0.36" d="M453.517 325.77H451.85V331.257H453.517V325.77Z" fill="#FFC043"/>
<path d="M455.661 331.139H404.093V331.377H455.661V331.139Z" fill="#E5A93E"/>
<path d="M455.661 336.387H404.093V336.625H455.661V336.387Z" fill="#E5A93E"/>
<path d="M455.78 336.387H403.854C403.735 336.387 403.616 336.268 403.616 336.148V331.616C403.616 331.496 403.735 331.377 403.854 331.377H455.78C455.899 331.377 456.018 331.496 456.018 331.616V336.029C456.018 336.268 455.899 336.387 455.78 336.387Z" fill="#FFC043"/>
<path opacity="0.36" d="M411.358 331.139H408.023V336.626H411.358V331.139Z" fill="#FFC043"/>
<path opacity="0.36" d="M413.74 331.139H412.072V336.626H413.74V331.139Z" fill="#FFC043"/>
<path opacity="0.36" d="M453.517 331.139H451.85V336.626H453.517V331.139Z" fill="#FFC043"/>
<path d="M454.947 336.625H403.378V336.864H454.947V336.625Z" fill="#E5A93E"/>
<path d="M454.947 341.754H403.378V341.992H454.947V341.754Z" fill="#E5A93E"/>
<path d="M455.066 341.754H403.14C403.021 341.754 402.902 341.635 402.902 341.515V337.102C402.902 336.983 403.021 336.863 403.14 336.863H455.066C455.185 336.863 455.304 336.983 455.304 337.102V341.515C455.423 341.635 455.185 341.754 455.066 341.754Z" fill="#FFC043"/>
<path opacity="0.36" d="M410.643 336.625H407.309V342.112H410.643V336.625Z" fill="#FFC043"/>
<path opacity="0.36" d="M413.025 336.625H411.357V342.112H413.025V336.625Z" fill="#FFC043"/>
<path opacity="0.36" d="M452.803 336.625H451.136V342.112H452.803V336.625Z" fill="#FFC043"/>
<path d="M454.947 341.994H403.378V342.233H454.947V341.994Z" fill="#E5A93E"/>
<path d="M454.947 347.242H403.378V347.481H454.947V347.242Z" fill="#E5A93E"/>
<path d="M455.066 347.242H403.14C403.021 347.242 402.902 347.123 402.902 347.004V342.59C402.902 342.471 403.021 342.352 403.14 342.352H455.066C455.185 342.352 455.304 342.471 455.304 342.59V347.004C455.423 347.123 455.185 347.242 455.066 347.242Z" fill="#FFC043"/>
<path opacity="0.36" d="M410.643 341.994H407.309V347.481H410.643V341.994Z" fill="#FFC043"/>
<path opacity="0.36" d="M413.025 341.994H411.357V347.481H413.025V341.994Z" fill="#FFC043"/>
<path opacity="0.36" d="M452.803 341.994H451.136V347.481H452.803V341.994Z" fill="#FFC043"/>
<path d="M456.018 347.48H404.45V347.719H456.018V347.48Z" fill="#E5A93E"/>
<path d="M456.018 352.609H404.45V352.848H456.018V352.609Z" fill="#E5A93E"/>
<path d="M456.138 352.609H404.212C404.093 352.609 403.974 352.49 403.974 352.371V347.957C403.974 347.838 404.093 347.719 404.212 347.719H456.138C456.257 347.719 456.376 347.838 456.376 347.957V352.371C456.376 352.49 456.257 352.609 456.138 352.609Z" fill="#FFC043"/>
<path opacity="0.36" d="M411.715 347.48H408.38V352.968H411.715V347.48Z" fill="#FFC043"/>
<path opacity="0.36" d="M414.097 347.48H412.43V352.968H414.097V347.48Z" fill="#FFC043"/>
<path opacity="0.36" d="M453.875 347.48H452.208V352.968H453.875V347.48Z" fill="#FFC043"/>
<path d="M415.288 352.847C429.824 352.847 441.608 341.044 441.608 326.485C441.608 311.926 429.824 300.123 415.288 300.123C400.751 300.123 388.967 311.926 388.967 326.485C388.967 341.044 400.751 352.847 415.288 352.847Z" fill="#FFC043"/>
<path opacity="0.36" d="M415.287 347.956C427.127 347.956 436.725 338.343 436.725 326.485C436.725 314.627 427.127 305.014 415.287 305.014C403.448 305.014 393.85 314.627 393.85 326.485C393.85 338.343 403.448 347.956 415.287 347.956Z" fill="#FFC043"/>
<path d="M413.858 340.918V337.817C410.286 337.339 407.904 334.954 407.546 331.375L407.427 330.421H410.762L410.881 331.137C411.238 332.807 412.31 334.119 413.858 334.477V326.842C410.762 325.888 408.023 324.337 408.023 320.52C408.023 317.3 410.286 314.794 413.858 314.317V311.932H417.074V314.437C420.885 315.152 422.433 317.657 422.672 320.043L422.791 320.997H419.575L419.456 320.401C419.099 318.969 418.384 318.134 417.193 317.777V324.457C421.481 325.888 423.267 327.916 423.267 331.256C423.267 334.954 421.004 337.22 417.193 337.817V341.037H413.858V340.918ZM417.074 334.596C418.86 334.238 419.694 333.164 419.694 331.375C419.694 329.944 419.218 328.87 417.074 327.916V334.596ZM413.858 317.657C411.953 318.015 411.477 319.327 411.477 320.52C411.477 321.713 411.834 322.667 413.858 323.502V317.657Z" fill="#FFC043"/>
<path opacity="0.36" d="M435.772 343.066C433.152 346.286 429.936 348.791 426.125 350.581L405.76 302.031C408.737 300.839 411.953 300.242 415.287 300.242C416.121 300.242 416.955 300.242 417.788 300.361L435.772 343.066Z" fill="#FFDB45"/>
<path opacity="0.36" d="M420.528 352.37C418.861 352.728 417.074 352.848 415.288 352.848C414.93 352.848 414.692 352.848 414.335 352.848L395.875 308.712C397.304 307.161 398.852 305.849 400.52 304.656L420.528 352.37Z" fill="#FFDB45"/>
<path d="M449.23 352.966C457.386 352.966 463.998 346.343 463.998 338.174C463.998 330.005 457.386 323.383 449.23 323.383C441.074 323.383 434.462 330.005 434.462 338.174C434.462 346.343 441.074 352.966 449.23 352.966Z" fill="#E6E9F4"/>
<path d="M435.058 337.936C436.248 338.413 437.32 339.01 438.511 339.726C439.583 340.441 440.655 341.157 441.608 341.992C442.561 342.827 443.513 343.662 444.466 344.616C445.3 345.571 446.133 346.644 446.848 347.837L444.109 347.956C445.181 345.809 446.491 343.781 447.92 341.873C449.349 339.964 450.897 338.175 452.565 336.505C454.232 334.835 455.899 333.284 457.686 331.733C459.472 330.302 461.378 328.871 463.283 327.678C463.402 327.678 463.402 327.678 463.521 327.678C463.521 327.797 463.521 327.797 463.521 327.916C459.949 330.898 456.852 334.238 453.875 337.698C452.445 339.487 451.135 341.276 449.944 343.185C448.754 345.093 447.801 347.121 446.967 349.149C446.61 349.984 445.657 350.342 444.823 349.865C444.585 349.746 444.347 349.507 444.109 349.268C442.918 347.36 441.489 345.451 439.94 343.543C439.107 342.588 438.273 341.753 437.439 340.799L434.938 338.056C434.819 337.936 434.819 337.936 434.938 337.817C434.938 337.936 435.058 337.817 435.058 337.936Z" fill="#3EA03C"/>
<path d="M241.765 99.1254H308.22C318.105 99.1254 326.085 91.1333 326.085 81.2326C326.085 71.332 318.105 63.3398 308.22 63.3398H241.765C231.88 63.3398 223.9 71.332 223.9 81.2326C223.9 91.1333 231.88 99.1254 241.765 99.1254Z" fill="#CAD1E5"/>
<path d="M285.949 82.6654C299.565 82.6654 310.602 71.6104 310.602 57.9733C310.602 44.3363 299.565 33.2812 285.949 33.2812C272.334 33.2812 261.296 44.3363 261.296 57.9733C261.296 71.6104 272.334 82.6654 285.949 82.6654Z" fill="#CAD1E5"/>
<path d="M255.104 84.3353C266.943 84.3353 276.541 74.7223 276.541 62.8639C276.541 51.0056 266.943 41.3926 255.104 41.3926C243.264 41.3926 233.667 51.0056 233.667 62.8639C233.667 74.7223 243.264 84.3353 255.104 84.3353Z" fill="#CAD1E5"/>
<path d="M270.824 111.531H181.145C167.806 111.531 157.087 100.676 157.087 87.4355C157.087 74.0755 167.925 63.3398 181.145 63.3398H270.824C284.163 63.3398 294.882 74.1948 294.882 87.4355C294.882 100.795 284.163 111.531 270.824 111.531Z" fill="#E6E9F4"/>
<path d="M211.157 89.3444C229.508 89.3444 244.385 74.4442 244.385 56.0638C244.385 37.6834 229.508 22.7832 211.157 22.7832C192.806 22.7832 177.929 37.6834 177.929 56.0638C177.929 74.4442 192.806 89.3444 211.157 89.3444Z" fill="#E6E9F4"/>
<path d="M249.149 91.491C263.093 91.491 274.397 80.169 274.397 66.2026C274.397 52.2361 263.093 40.9141 249.149 40.9141C235.204 40.9141 223.9 52.2361 223.9 66.2026C223.9 80.169 235.204 91.491 249.149 91.491Z" fill="#E6E9F4"/>
<path d="M268.561 70.3789H185.313L182.336 72.8839H271.539L268.561 70.3789Z" fill="#A7ACB7"/>
<path d="M228.307 75.8655C249.223 75.8655 266.179 58.8824 266.179 37.9327C266.179 16.9831 249.223 0 228.307 0C207.39 0 190.434 16.9831 190.434 37.9327C190.434 58.8824 207.39 75.8655 228.307 75.8655Z" fill="#FFC043"/>
<path opacity="0.36" d="M228.307 68.8269C245.342 68.8269 259.153 54.9948 259.153 37.932C259.153 20.8692 245.342 7.03711 228.307 7.03711C211.271 7.03711 197.461 20.8692 197.461 37.932C197.461 54.9948 211.271 68.8269 228.307 68.8269Z" fill="#FFC043"/>
<path d="M226.163 58.689V54.1562C221.042 53.4405 217.707 49.9812 217.112 44.9712L216.993 43.6591H221.757L221.995 44.6134C222.471 47.1184 224.019 48.7884 226.282 49.5041V38.5298C221.876 37.2177 217.945 34.9513 217.945 29.4641C217.945 24.812 221.28 21.3527 226.282 20.637V17.1777H230.927V20.7563C236.405 21.7106 238.668 25.4084 239.025 28.7484L239.145 30.0606H234.5L234.262 29.2256C233.666 27.1977 232.713 26.0049 230.927 25.4084V34.9513C237.001 36.9791 239.621 39.9612 239.621 44.7327C239.621 49.9812 236.405 53.3212 230.927 54.1562V58.689H226.163ZM230.808 49.6233C233.428 49.1462 234.619 47.5955 234.619 44.9712C234.619 42.9434 233.904 41.3927 230.808 39.9612V49.6233ZM226.163 25.1699C223.424 25.7663 222.828 27.6748 222.828 29.2256C222.828 31.0148 223.424 32.327 226.163 33.4005V25.1699Z" fill="#FFC043"/>
<path opacity="0.36" d="M257.724 61.6705C254.032 66.3227 249.268 70.0205 243.789 72.4062L214.492 2.62428C218.779 0.954283 223.424 0 228.188 0C229.379 0 230.689 0.119285 231.88 0.119285L257.724 61.6705Z" fill="#FFDB45"/>
<path opacity="0.36" d="M235.691 75.0303C233.309 75.5075 230.808 75.7461 228.188 75.7461C227.711 75.7461 227.235 75.7461 226.759 75.7461L200.2 12.4055C202.225 10.1391 204.488 8.23054 206.989 6.56055L235.691 75.0303Z" fill="#FFDB45"/>
<path d="M271.539 72.8828H182.336V76.2228H271.539V72.8828Z" fill="#CAD1E5"/>
</svg>
