<svg width="459" height="318" viewBox="0 0 459 318" fill="none" xmlns="http://www.w3.org/2000/svg">
<path d="M275.544 244.512H181.774V310.669H275.544V244.512Z" fill="#192735"/>
<path d="M141.081 317.375H316.28C316.28 309.345 309.789 302.854 301.762 302.854H155.599C147.571 302.854 141.081 309.345 141.081 317.375Z" fill="#243A4C"/>
<path d="M396.898 59.793H60.5059V271.163H396.898V59.793Z" fill="#243A4C"/>
<path d="M379.732 70.5566H77.6284V260.401H379.732V70.5566Z" fill="#F0F4FF"/>
<path d="M369.57 78.4141H87.7485V89.4332H369.57V78.4141Z" fill="#F4CE11"/>
<path d="M369.57 89.4336H87.7485V246.221H369.57V89.4336Z" fill="#A9D2F0"/>
<path d="M229.684 98.1465H104.701V108.653H229.684V98.1465Z" fill="#2E526B"/>
<path d="M233.57 115.145H108.586V121.337H233.57V115.145Z" fill="#F1F3F3"/>
<path d="M155.3 128.172H99.8325V134.365H155.3V128.172Z" fill="#F1F3F3"/>
<path d="M216.063 154.736H197.146V160.929H216.063V154.736Z" fill="#F1F3F3"/>
<path d="M169.69 185.488H114.223V191.681H169.69V185.488Z" fill="#F1F3F3"/>
<path d="M206.583 197.404H151.116V203.597H206.583V197.404Z" fill="#F1F3F3"/>
<path d="M182.543 210.729H127.076V216.921H182.543V210.729Z" fill="#F4CE11"/>
<path d="M351.678 210.729H296.211V216.921H351.678V210.729Z" fill="#7DC08D"/>
<path d="M255.902 128.172H164.865V134.365H255.902V128.172Z" fill="#F1F3F3"/>
<path d="M346.939 140.6H255.902V146.793H346.939V140.6Z" fill="#FF5C7B"/>
<path d="M351.721 154.736H266.833V160.929H351.721V154.736Z" fill="#FF5C7B"/>
<path d="M351.721 182.369H266.833V188.562H351.721V182.369Z" fill="#FF5C7B"/>
<path d="M291.172 167.807H260.3V174H291.172V167.807Z" fill="#7DC08D"/>
<path d="M351.678 167.807H302.274V174H351.678V167.807Z" fill="#FF5C7B"/>
<path d="M190.827 140.6H99.79V146.793H190.827V140.6Z" fill="#F4CE11"/>
<path d="M190.827 154.736H99.79V160.929H190.827V154.736Z" fill="#F4CE11"/>
<path d="M236.431 167.807H99.79V174H236.431V167.807Z" fill="#7DC08D"/>
<path d="M95.2635 86.3572C96.6077 86.3572 97.6974 85.2672 97.6974 83.9227C97.6974 82.5782 96.6077 81.4883 95.2635 81.4883C93.9193 81.4883 92.8296 82.5782 92.8296 83.9227C92.8296 85.2672 93.9193 86.3572 95.2635 86.3572Z" fill="#F0F4FF"/>
<path d="M102.266 86.3572C103.611 86.3572 104.7 85.2672 104.7 83.9227C104.7 82.5782 103.611 81.4883 102.266 81.4883C100.922 81.4883 99.8325 82.5782 99.8325 83.9227C99.8325 85.2672 100.922 86.3572 102.266 86.3572Z" fill="#F0F4FF"/>
<path d="M108.8 86.3572C110.144 86.3572 111.234 85.2672 111.234 83.9227C111.234 82.5782 110.144 81.4883 108.8 81.4883C107.455 81.4883 106.366 82.5782 106.366 83.9227C106.366 85.2672 107.455 86.3572 108.8 86.3572Z" fill="#F0F4FF"/>
<path d="M416.242 218.675H451.811C454.971 218.675 457.575 216.07 457.575 212.909V194.33C457.575 191.17 454.971 188.564 451.811 188.564H416.242C413.082 188.564 410.477 191.17 410.477 194.33V212.909C410.477 216.07 413.082 218.675 416.242 218.675Z" fill="#68C1BF"/>
<path d="M418.419 203.939L429.094 198.984V201.333L421.024 204.878V204.921L429.094 208.466V210.815L418.419 205.861V203.939Z" fill="white"/>
<path d="M430.717 211.67L435.457 195.568H437.72L432.98 211.67H430.717Z" fill="white"/>
<path d="M449.676 205.903L439.001 210.772V208.423L447.242 204.878V204.835L439.001 201.29V198.941L449.676 203.81V205.903Z" fill="white"/>
<path d="M9.94909 222.476H45.5183C48.6782 222.476 51.2829 219.87 51.2829 216.71V198.131C51.2829 194.971 48.6782 192.365 45.5183 192.365H9.94909C6.78928 192.365 4.18457 194.971 4.18457 198.131V216.71C4.18457 219.87 6.74658 222.476 9.94909 222.476Z" fill="#68C1BF"/>
<path d="M12.084 207.697L22.759 202.742V205.091L14.6887 208.636V208.679L22.759 212.224V214.573L12.084 209.618V207.697Z" fill="white"/>
<path d="M24.3818 215.471L29.1216 199.369H31.3847L26.6449 215.471H24.3818Z" fill="white"/>
<path d="M43.3406 209.663L32.6655 214.532V212.183L40.9067 208.638V208.595L32.6655 205.05V202.701L43.3406 207.57V209.663Z" fill="white"/>
<path d="M16.995 50.6104H52.5642C55.7241 50.6104 58.3288 48.0051 58.3288 44.8446V26.2658C58.3288 23.1053 55.7241 20.5 52.5642 20.5H16.995C13.8352 20.5 11.2305 23.1053 11.2305 26.2658V44.8446C11.2305 48.0051 13.8352 50.6104 16.995 50.6104Z" fill="#68C1BF"/>
<path d="M19.1299 35.8313L29.8049 30.877V33.226L21.7346 36.7709V36.8136L29.8049 40.3585V42.7075L19.1299 37.7532V35.8313Z" fill="white"/>
<path d="M31.4702 43.6055L36.2099 27.5039H38.4303L33.6906 43.6055H31.4702Z" fill="white"/>
<path d="M50.3865 37.8386L39.7114 42.7075V40.3585L47.9526 36.8136V36.7709L39.7114 33.226V30.877L50.3865 35.7459V37.8386Z" fill="white"/>
<path d="M385.497 42.0264H421.067C424.226 42.0264 426.831 39.4211 426.831 36.2606V17.6818C426.831 14.5213 424.226 11.916 421.067 11.916H385.497C382.338 11.916 379.733 14.5213 379.733 17.6818V36.2606C379.733 39.4211 382.338 42.0264 385.497 42.0264Z" fill="#68C1BF"/>
<path d="M387.632 27.2903L398.307 22.3359V24.685L390.237 28.1872V28.2299L398.307 31.7748V34.1238L387.632 29.1695V27.2903Z" fill="white"/>
<path d="M399.93 35.0215L404.67 18.9199H406.933L402.193 35.0215H399.93Z" fill="white"/>
<path d="M418.889 29.2549L408.214 34.1238V31.7748L416.455 28.2299V28.1872L408.214 24.685V22.3359L418.889 27.2048V29.2549Z" fill="white"/>
<path d="M266.065 30.1104H301.634C304.794 30.1104 307.399 27.5051 307.399 24.3446V5.76582C307.399 2.60529 304.794 0 301.634 0H266.065C262.905 0 260.3 2.60529 260.3 5.76582V24.3446C260.3 27.5051 262.905 30.1104 266.065 30.1104Z" fill="#F1A820"/>
<path d="M270.121 10.207V13.4957H273.324V10.207H275.245V18.7917H273.324V15.2041H270.121V18.7917H268.157V10.207H270.121Z" fill="white"/>
<path d="M278.619 11.83H276.313V10.207H282.932V11.83H280.583V18.7917H278.619V11.83Z" fill="white"/>
<path d="M291.13 15.5028C291.087 14.4777 291.044 13.2392 291.044 11.9579H291.002C290.745 13.0683 290.361 14.2642 290.062 15.2892L289.037 18.6206H287.5L286.604 15.2892C286.305 14.2642 286.048 13.0683 285.835 11.9579H285.792C285.75 13.111 285.707 14.435 285.621 15.5028L285.451 18.7487H283.657L284.212 10.1641H286.817L287.671 13.0256C287.927 14.0079 288.226 15.0757 288.397 16.1007H288.44C288.696 15.1184 288.995 13.9652 289.251 13.0256L290.148 10.1641H292.667L293.137 18.7487H291.258L291.13 15.5028Z" fill="white"/>
<path d="M294.674 10.207H296.638V17.1687H300.054V18.7917H294.674V10.207Z" fill="white"/>
<path d="M5.76452 135.817H41.3338C44.4936 135.817 47.0983 133.212 47.0983 130.052V111.473C47.0983 108.312 44.4936 105.707 41.3338 105.707H5.76452C2.60471 105.707 0 108.312 0 111.473V130.052C0 133.255 2.60471 135.817 5.76452 135.817Z" fill="#F1A820"/>
<path d="M9.82114 115.914V119.203H13.0237V115.914H14.9452V124.499H13.0237V120.911H9.82114V124.499H7.85693V115.914H9.82114Z" fill="white"/>
<path d="M18.3185 117.58H16.0127V115.957H22.6312V117.58H20.2827V124.542H18.3185V117.58Z" fill="white"/>
<path d="M30.8724 121.253C30.8297 120.228 30.787 118.989 30.787 117.708H30.7443C30.4881 118.818 30.1038 120.014 29.8049 121.039L28.7801 124.371H27.2429L26.3462 121.039C26.0473 120.014 25.7911 118.818 25.5776 117.708H25.5349C25.4922 118.861 25.4495 120.185 25.3641 121.253L25.1933 124.499H23.3999L23.955 115.914H26.5597L27.4137 118.776C27.6699 119.758 27.9688 120.826 28.1396 121.851H28.1823C28.4385 120.868 28.7374 119.715 28.9936 118.776L29.8903 115.914H32.4096L32.8793 124.499H31.0005L30.8724 121.253Z" fill="white"/>
<path d="M34.3735 115.914H36.3377V122.876H39.7537V124.499H34.3735V115.914Z" fill="white"/>
<path d="M417.608 136.415H453.177C456.337 136.415 458.942 133.81 458.942 130.649V112.071C458.942 108.91 456.337 106.305 453.177 106.305H417.608C414.448 106.305 411.843 108.91 411.843 112.071V130.649C411.843 133.81 414.405 136.415 417.608 136.415Z" fill="#FF5C7B"/>
<path d="M431.869 124.841C431.528 125.012 430.716 125.225 429.649 125.225C426.66 125.225 425.166 123.389 425.166 120.912C425.166 117.965 427.258 116.342 429.862 116.342C430.887 116.342 431.613 116.555 431.997 116.726L431.613 118.264C431.229 118.093 430.674 117.965 429.991 117.965C428.453 117.965 427.258 118.904 427.258 120.826C427.258 122.535 428.283 123.645 429.991 123.645C430.588 123.645 431.229 123.517 431.613 123.346L431.869 124.841Z" fill="white"/>
<path d="M433.193 123.09C433.706 123.346 434.517 123.645 435.328 123.645C436.225 123.645 436.695 123.261 436.695 122.706C436.695 122.151 436.268 121.852 435.243 121.51C433.834 120.997 432.894 120.229 432.894 118.99C432.894 117.538 434.133 116.385 436.139 116.385C437.122 116.385 437.805 116.598 438.317 116.812L437.89 118.392C437.549 118.221 436.951 117.965 436.097 117.965C435.243 117.965 434.858 118.349 434.858 118.777C434.858 119.332 435.328 119.588 436.438 119.972C437.976 120.528 438.659 121.339 438.659 122.535C438.659 123.987 437.549 125.183 435.2 125.183C434.218 125.183 433.236 124.927 432.766 124.67L433.193 123.09Z" fill="white"/>
<path d="M440.068 123.09C440.58 123.346 441.391 123.645 442.203 123.645C443.099 123.645 443.569 123.261 443.569 122.706C443.569 122.151 443.142 121.852 442.117 121.51C440.708 120.997 439.769 120.229 439.769 118.99C439.769 117.538 441.007 116.385 443.014 116.385C443.996 116.385 444.679 116.598 445.192 116.812L444.765 118.392C444.423 118.221 443.825 117.965 442.971 117.965C442.117 117.965 441.733 118.349 441.733 118.777C441.733 119.332 442.203 119.588 443.313 119.972C444.85 120.528 445.533 121.339 445.533 122.535C445.533 123.987 444.423 125.183 442.075 125.183C441.092 125.183 440.11 124.927 439.641 124.67L440.068 123.09Z" fill="white"/>
<path d="M168.324 51.6787H203.893C207.053 51.6787 209.658 49.0734 209.658 45.9129V27.3342C209.658 24.1737 207.053 21.5684 203.893 21.5684H168.324C165.164 21.5684 162.56 24.1737 162.56 27.3342V45.9129C162.56 49.0734 165.164 51.6787 168.324 51.6787Z" fill="#FF5C7B"/>
<path d="M182.586 40.1047C182.244 40.2755 181.433 40.4891 180.365 40.4891C177.376 40.4891 175.882 38.6526 175.882 36.1754C175.882 33.2284 177.974 31.6055 180.579 31.6055C181.604 31.6055 182.33 31.819 182.714 31.9899L182.33 33.5274C181.945 33.3566 181.39 33.2284 180.707 33.2284C179.17 33.2284 177.974 34.1681 177.974 36.09C177.974 37.7984 178.999 38.9088 180.707 38.9088C181.305 38.9088 181.945 38.7807 182.33 38.6099L182.586 40.1047Z" fill="white"/>
<path d="M183.952 38.3539C184.465 38.6101 185.276 38.9091 186.087 38.9091C186.984 38.9091 187.454 38.5247 187.454 37.9695C187.454 37.4143 187.027 37.1153 186.002 36.7736C184.593 36.2611 183.653 35.4923 183.653 34.2537C183.653 32.8016 184.892 31.6484 186.899 31.6484C187.881 31.6484 188.564 31.862 189.076 32.0755L188.649 33.6558C188.308 33.485 187.71 33.2287 186.856 33.2287C186.002 33.2287 185.618 33.6131 185.618 34.0402C185.618 34.5954 186.087 34.8517 187.198 35.2361C188.735 35.7913 189.418 36.6028 189.418 37.7986C189.418 39.2508 188.308 40.4466 185.959 40.4466C184.977 40.4466 183.995 40.1904 183.525 39.9341L183.952 38.3539Z" fill="white"/>
<path d="M190.827 38.3539C191.339 38.6101 192.151 38.9091 192.962 38.9091C193.859 38.9091 194.328 38.5247 194.328 37.9695C194.328 37.4143 193.901 37.1153 192.877 36.7736C191.467 36.2611 190.528 35.4923 190.528 34.2537C190.528 32.8016 191.766 31.6484 193.773 31.6484C194.755 31.6484 195.439 31.862 195.951 32.0755L195.524 33.6558C195.182 33.485 194.585 33.2287 193.731 33.2287C192.877 33.2287 192.492 33.6131 192.492 34.0402C192.492 34.5954 192.962 34.8517 194.072 35.2361C195.609 35.7913 196.293 36.6028 196.293 37.7986C196.293 39.2508 195.182 40.4466 192.834 40.4466C191.852 40.4466 190.87 40.1904 190.4 39.9341L190.827 38.3539Z" fill="white"/>
</svg>
