<svg width="537" height="332" viewBox="0 0 537 332" fill="none" xmlns="http://www.w3.org/2000/svg">
<path d="M522.571 191.307C527.871 162.968 525.245 132.503 515.098 105.524C509.606 90.8891 499.698 78.7129 487.664 69.2345C479.427 62.7405 470.88 55.8645 461.974 50.3494C454.477 45.7177 445.38 42.9959 437.477 38.6746C420.955 29.6259 405.507 18.5241 388.173 11.0751C359.403 -1.29216 327.122 -2.46204 296.704 3.43508C265.045 9.59483 236.561 22.5589 207.933 37.2898C196.903 42.972 185.8 48.8214 173.815 51.8774C164.36 54.2649 154.547 54.8379 144.805 54.8857C123.962 54.9812 103.428 50.9702 82.7278 49.0363C57.8491 46.7204 29.0547 55.3154 12.3415 75.2988C4.24751 84.9681 -0.647059 97.8606 0.0692203 110.634C0.7855 123.789 2.71945 137.851 7.20814 150.314C10.6702 159.959 15.3498 172.207 21.486 180.396C30.8453 192.931 36.2174 206.587 32.0392 222.512C27.0968 241.373 7.13651 271.933 19.552 290.723C38.0559 318.728 70.3123 314.263 99.2739 314.263C135.995 314.263 172.716 314.263 209.438 314.263C248.809 314.263 288.157 314.263 327.528 314.263C355.248 314.263 382.968 314.263 410.664 314.263C415.774 314.263 420.883 314.263 425.993 314.263C443.04 314.263 459.467 307.96 472.073 296.596C472.145 296.548 472.217 296.477 472.264 296.429C485.181 284.754 498.122 272.124 505.38 255.937C509.773 246.124 511.039 236.145 514.023 226.093C517.438 214.299 520.422 202.887 522.571 191.307Z" fill="url(#paint0_linear)"/>
<path d="M212.04 98.5535C218.319 93.6114 240.189 106.194 251.22 93.2772L248.928 76.3259C248.928 76.3259 230.973 87.953 221.542 86.807C212.111 85.661 214.929 80.2175 220.396 78.3553C225.864 76.493 242.505 77.7584 246.445 71.8374C246.445 71.8374 249.525 67.1102 242.72 64.3646C235.916 61.6189 234.101 48.8936 235.987 43.6172C235.987 43.6172 233.146 45.2646 224.933 45.9808C216.719 46.6732 208.41 46.7926 208.458 54.2416C208.506 61.6906 212.326 71.0495 208.219 73.055C204.113 75.0605 193.607 59.4941 203.038 48.0818C203.038 48.0818 189.883 48.2012 186.994 51.1139C184.105 54.0267 183.723 62.1203 191.077 70.6198C198.43 79.1432 199.266 85.2313 196.186 86.7593C193.106 88.2634 175.462 60.3774 183.77 51.5437C183.77 51.5437 161.327 61.3802 159.465 63.8632C157.602 66.3462 164.431 78.9999 171.45 84.9925C178.47 90.9852 179.712 100.129 177.921 103.209C176.13 106.289 172.429 95.0917 168.275 91.2717C164.097 87.4517 155 66.0119 155 66.0119C155 66.0119 154.713 69.2828 147.622 73.7235C140.531 78.1643 131.482 89.6243 134.944 93.5398C138.406 97.4553 158.366 112.759 162.569 119.468C166.771 126.177 168.705 132.456 164.455 130.665C160.181 128.875 154.642 120.304 148.864 115.338C143.086 110.372 126.611 99.413 127.375 94.1844C127.375 94.1844 112.023 110.563 120.475 129.878C120.475 129.878 130.05 135.822 140.65 135.87C151.251 135.918 155.716 136.419 156.91 139.929C158.104 143.415 150.774 143.319 144.184 143.104C137.57 142.889 122.194 142.722 119.114 138.783C119.114 138.783 133.535 167.099 154.236 160.7C173.671 154.707 174.841 151.699 174.912 151.365C174.745 152.678 169.899 192.597 213.854 182.546C213.854 182.546 203.182 182.044 200.46 175.431C197.738 168.818 187.28 161.655 191.673 159.124C196.09 156.594 205.903 180.66 216.815 180.206C227.726 179.752 238.948 167.433 237.133 155.543C237.133 155.543 228.419 160.509 218.606 155.495C208.792 150.505 196.926 141.099 205.521 139.762C214.117 138.425 237.086 156.021 243.986 153.514C250.886 151.007 252.39 125.222 252.39 125.222C252.39 125.222 248.88 126.798 235.916 127.442C222.951 128.087 208.052 126.153 210.225 123.264C212.398 120.375 222.02 122.309 230.687 123.742C239.354 125.15 250.408 122.285 251.387 117.725C252.366 113.165 251.912 98.5535 251.912 98.5535C251.912 98.5535 235.486 102.684 228.228 105.286C220.969 107.889 205.76 103.52 212.04 98.5535ZM188.761 142.913C178.542 140.263 186.421 136.085 192.342 134.39C196.854 133.125 198.979 145.563 188.761 142.913ZM197.666 124.959C190.862 123.36 189.835 119.898 193.392 118.394C201.63 114.932 204.471 126.559 197.666 124.959ZM204.829 104.904C201.081 104.284 199.815 103.066 202.68 99.8428C205.545 96.5958 208.578 105.525 204.829 104.904Z" fill="#BDD0FB"/>
<path d="M349.278 246.816C349.278 246.816 382.943 107.768 451.635 32.1557C456.243 27.0704 464.671 29.0759 466.438 35.7131C478.352 80.0728 500.986 214.537 349.278 246.816Z" fill="#BDD0FB"/>
<path opacity="0.5" d="M363.198 237.91C362.864 238.244 363.294 238.769 363.676 238.483C377.786 228.097 432.391 176.981 452.972 74.7001C453.044 74.3659 452.566 74.2465 452.471 74.5569C445.523 98.2647 417.182 185.647 363.198 237.91Z" fill="white"/>
<path d="M457.436 326.557C457.436 326.557 408.108 260.113 460.922 206.274C493.919 172.611 503.469 149.165 505.976 136.321C506.788 132.119 512.232 130.877 514.834 134.291C534.245 159.814 572.327 233.826 457.436 326.557Z" fill="#91B3FA"/>
<path opacity="0.5" d="M508.961 179.796C508.985 179.461 509.486 179.461 509.51 179.796C510.346 192.425 507.528 246.383 460.588 305.354C460.445 305.545 460.134 305.33 460.278 305.139C470.115 290.265 505.212 233.944 508.961 179.796Z" fill="white"/>
<path d="M181.55 311.469C181.55 311.469 110.018 170.225 16.83 106.192C10.5745 101.895 2.02689 106.192 1.78813 113.784C0.212317 164.59 9.9537 315.17 181.55 311.469Z" fill="#BDD0FB"/>
<path d="M164.288 305.405C164.742 305.668 164.384 306.36 163.906 306.145C146.071 298.529 74.2757 257.321 26.1895 152.366C26.0462 152.032 26.5238 151.769 26.7148 152.08C40.2047 175.859 92.8751 262.788 164.288 305.405Z" fill="url(#paint1_linear)"/>
<path d="M155.453 223.539C155.453 223.539 140.268 101.132 88.8394 29.6023C85.3774 24.8034 77.9758 25.6868 75.8031 31.2019C61.2388 68.0171 28.672 180.994 155.453 223.539Z" fill="#91B3FA"/>
<path d="M144.399 214.535C144.662 214.846 144.232 215.252 143.921 214.989C132.843 204.699 91.0838 155.564 83.5151 65.9376C83.4912 65.6511 83.921 65.5795 83.9688 65.866C87.574 86.8282 103.284 164.47 144.399 214.535Z" fill="#BDD0FB"/>
<path d="M331.826 55.1732C331.253 52.738 332.781 50.2789 335.24 49.7297C337.676 49.1567 340.135 50.6847 340.684 53.1439C341.257 55.5791 339.729 58.0382 337.27 58.5873C334.81 59.1603 332.375 57.6324 331.826 55.1732ZM333.569 54.7673C333.903 56.2476 335.383 57.1549 336.864 56.8206C338.344 56.4864 339.251 55.0061 338.917 53.5259C338.583 52.0456 337.103 51.1384 335.622 51.4726C334.142 51.8307 333.235 53.311 333.569 54.7673Z" fill="white"/>
<path d="M334.07 44.7155C328.865 45.9092 325.594 51.1378 326.812 56.3426C326.883 56.6768 326.979 56.9872 327.074 57.2976C327.218 57.7035 326.931 58.1571 326.501 58.181L325.069 58.3003C324.758 58.3242 324.472 58.1332 324.376 57.8228C324.281 57.5363 324.209 57.2498 324.138 56.9633C322.61 50.3022 326.764 43.6411 333.425 42.1131C333.927 41.9937 334.428 41.9221 334.93 41.8743C335.312 41.8266 335.646 42.1131 335.67 42.4951L335.741 43.8798C335.765 44.238 335.503 44.5245 335.144 44.5722C334.81 44.5722 334.452 44.6438 334.07 44.7155Z" fill="white"/>
<path d="M332.494 37.9113C323.54 39.9646 317.929 48.9416 319.983 57.8947C320.078 58.2767 319.792 58.6587 319.41 58.7065L318.025 58.8258C317.762 58.6348 317.595 58.5155 317.309 58.3006C315.04 47.9627 321.535 37.6487 331.897 35.2612C332.804 35.0463 333.711 34.927 334.595 34.8315C334.953 34.8076 335.287 35.0941 335.287 35.4522L335.359 36.837C335.383 37.1951 335.12 37.5055 334.762 37.5293C334.022 37.6248 333.258 37.7442 332.494 37.9113Z" fill="white"/>
<path d="M330.918 31.1069C318.527 33.948 310.672 46.1004 312.964 58.4915C313.035 58.8735 312.773 59.2555 312.367 59.2794L310.982 59.3987C310.648 59.4226 310.337 59.1839 310.29 58.8735C307.806 45.1215 316.545 31.6799 330.298 28.5045C331.587 28.218 332.876 28.027 334.165 27.9076C334.524 27.8838 334.858 28.1703 334.858 28.5284L334.93 29.9131C334.953 30.2713 334.667 30.5816 334.309 30.6055C333.21 30.6771 332.064 30.8443 330.918 31.1069Z" fill="white"/>
<path d="M369.215 50.8508C369.215 51.5909 368.619 52.1878 367.878 52.1878H367.568C366.828 52.1878 366.231 51.5909 366.231 50.8508V30.7003C366.231 29.9602 366.828 29.3633 367.568 29.3633H367.878C368.619 29.3633 369.215 29.9602 369.215 30.7003V50.8508Z" fill="#7D97F4"/>
<path d="M377.411 71.1816L373.615 71.6113L374.474 79.2032L378.27 78.7734L377.411 71.1816Z" fill="#7D97F4"/>
<path d="M381.415 63.0038C381.391 62.7173 381.176 62.5024 380.913 62.4308C380.651 62.3592 380.364 62.4786 380.197 62.7173L376.998 67.6594C376.592 68.2802 376.425 69.0203 376.544 69.7604L378.048 79.6924C378.144 80.4087 378.502 81.0533 379.051 81.5308L382.728 84.73C382.943 84.921 383.229 84.9449 383.468 84.8255C383.707 84.7062 383.85 84.4435 383.826 84.157L381.415 63.0038Z" fill="#91B3FA"/>
<path d="M357.297 78.7812L361.093 79.2109L361.953 71.6191L358.157 71.1893L357.297 78.7812Z" fill="#7D97F4"/>
<path d="M354.126 63.0018C354.149 62.7153 354.364 62.5005 354.627 62.4288C354.89 62.3572 355.176 62.4766 355.343 62.7153L358.543 67.6575C358.948 68.2782 359.116 69.0183 358.996 69.7585L357.492 79.6905C357.396 80.4067 357.038 81.0513 356.489 81.5288L352.812 84.7281C352.597 84.9191 352.311 84.9429 352.072 84.8236C351.833 84.7042 351.69 84.4416 351.714 84.1551L354.126 63.0018Z" fill="#91B3FA"/>
<path d="M379.936 109.414L379.291 104.639L372.271 51.7322C372.176 51.0637 371.603 50.4668 370.91 50.4668H364.177C363.485 50.4668 362.745 51.0637 362.673 51.756L362.029 56.4833L356.298 110.608C356.227 111.348 356.824 112.04 357.588 112.112C357.635 112.112 357.731 112.112 357.779 112.112C358.471 112.112 359.068 111.587 359.163 110.894L359.641 106.597L368.165 103.469L376.712 105.881L377.238 109.772C377.333 110.512 378.025 111.038 378.766 110.942C379.506 110.847 380.031 110.154 379.936 109.414ZM364.679 60.0884L365.896 61.6164L364.249 63.9562L364.679 60.0884ZM370.337 83.5575L373.441 81.3372L374.062 85.9689L370.337 83.5575ZM373.274 88.7145L368.045 92.0809L362.673 89.0726L367.95 85.2765L373.274 88.7145ZM367.878 81.9579L363.437 79.0929L367.711 75.2013L372.224 78.8303L367.878 81.9579ZM369.764 73.339L372.08 71.238L372.677 75.7027L369.764 73.339ZM371.101 63.7652L369.311 61.5209L370.576 59.7303L371.101 63.7652ZM371.245 68.3253L367.616 71.62L364.177 68.8505L367.687 63.8607L371.245 68.3253ZM363.413 71.7394L365.562 73.4823L362.96 75.8459L363.413 71.7394ZM362.339 81.6236L365.491 83.6769L361.814 86.327L362.339 81.6236ZM361.265 91.4124L365.419 93.7521L360.668 96.8081L361.265 91.4124ZM368.141 95.2563L373.871 98.4555L368.045 100.58L362.315 98.9808L368.141 95.2563ZM370.743 93.585L374.731 91.0304L375.423 96.2113L370.743 93.585ZM369.717 53.4273L370.027 55.7432L367.52 59.3005L365.085 56.2684L365.395 53.4034H369.717V53.4273ZM359.951 103.565L360.214 101.249L363.676 102.228L359.951 103.565ZM372.534 101.87L375.996 100.604L376.306 102.944L372.534 101.87Z" fill="#7D97F4"/>
<path d="M117.061 125.983L118.899 289.622C119.043 303.088 128.784 313.975 140.865 314.19C194.443 315.121 381.846 316.768 432.845 315.36C441.607 315.121 448.627 307.218 448.77 297.43C449.319 259.397 449.892 167.956 443.517 125.577C442.18 116.648 435.328 110.035 427.234 109.844C382.323 108.746 183.651 105.881 132.7 107.743C123.89 108.077 116.966 116.171 117.061 125.983Z" fill="url(#paint2_linear)"/>
<path d="M126.277 125.076L128.02 280.55C128.115 288.404 133.845 294.755 140.889 294.779L425.299 295.495C432.295 295.543 437.93 289.192 437.882 281.409L436.617 127.32C436.569 121.757 432.534 117.221 427.544 117.149L136.328 113.878C130.742 113.783 126.205 118.844 126.277 125.076Z" fill="url(#paint3_linear)"/>
<g opacity="0.12">
<path opacity="0.12" d="M407.607 285.348H146.142C137.737 285.348 130.933 278.544 130.933 270.14V139.161C130.933 130.757 137.737 123.953 146.142 123.953H407.607C416.012 123.953 422.816 130.757 422.816 139.161V270.14C422.816 278.544 416.012 285.348 407.607 285.348Z" fill="#91B3FA"/>
</g>
<path d="M270.464 277.063H154.618C146.214 277.063 139.409 270.259 139.409 261.855V145.99C139.409 137.586 146.214 130.781 154.618 130.781H270.464C278.869 130.781 285.673 137.586 285.673 145.99V261.831C285.673 270.235 278.869 277.063 270.464 277.063Z" fill="url(#paint4_linear)"/>
<path d="M182.457 148.068H156.527V173.997H182.457V148.068Z" fill="url(#paint5_linear)"/>
<path d="M179.973 150.908H159.225V171.656H179.973V150.908Z" fill="white"/>
<path d="M176.392 154.852H162.783V168.46H176.392V154.852Z" fill="url(#paint6_linear)"/>
<path d="M268.315 148.068H242.386V173.997H268.315V148.068Z" fill="url(#paint7_linear)"/>
<path d="M265.833 150.908H245.084V171.656H265.833V150.908Z" fill="white"/>
<path d="M262.25 154.852H248.641V168.46H262.25V154.852Z" fill="url(#paint8_linear)"/>
<path d="M268.291 233.896H242.362V259.825H268.291V233.896Z" fill="url(#paint9_linear)"/>
<path d="M265.784 236.764H245.036V257.511H265.784V236.764Z" fill="white"/>
<path d="M262.227 240.701H248.618V254.31H262.227V240.701Z" fill="url(#paint10_linear)"/>
<path d="M212.731 192.596H201.39V203.936H212.731V192.596Z" fill="url(#paint11_linear)"/>
<path d="M224.073 203.459H212.731V214.8H224.073V203.459Z" fill="url(#paint12_linear)"/>
<path d="M224.263 181.064H212.922V192.405H224.263V181.064Z" fill="url(#paint13_linear)"/>
<path d="M235.222 181.064H223.881V192.405H235.222V181.064Z" fill="url(#paint14_linear)"/>
<path d="M246.54 192.596H235.199V203.936H246.54V192.596Z" fill="url(#paint15_linear)"/>
<path d="M256.997 203.459H245.656V214.8H256.997V203.459Z" fill="url(#paint16_linear)"/>
<path d="M256.997 214.609H245.656V225.95H256.997V214.609Z" fill="url(#paint17_linear)"/>
<path d="M257.69 181.256H246.349V192.596H257.69V181.256Z" fill="url(#paint18_linear)"/>
<path d="M201.462 192.596H190.121V203.936H201.462V192.596Z" fill="url(#paint19_linear)"/>
<path d="M190.264 181.256H178.923V192.596H190.264V181.256Z" fill="url(#paint20_linear)"/>
<path d="M167.797 181.445H156.456V192.786H167.797V181.445Z" fill="url(#paint21_linear)"/>
<path d="M268.338 192.596H256.997V203.936H268.338V192.596Z" fill="url(#paint22_linear)"/>
<path d="M268.148 214.609H256.807V225.95H268.148V214.609Z" fill="url(#paint23_linear)"/>
<path d="M201.462 169.748H190.121V181.089H201.462V169.748Z" fill="url(#paint24_linear)"/>
<path d="M201.462 158.646H190.121V169.987H201.462V158.646Z" fill="url(#paint25_linear)"/>
<path d="M201.415 147.879H190.074V159.22H201.415V147.879Z" fill="url(#paint26_linear)"/>
<path d="M212.54 147.879H201.199V159.22H212.54V147.879Z" fill="url(#paint27_linear)"/>
<path d="M224.073 158.646H212.731V169.987H224.073V158.646Z" fill="url(#paint28_linear)"/>
<path d="M235.222 169.914H223.881V181.255H235.222V169.914Z" fill="url(#paint29_linear)"/>
<path d="M235.222 147.305H223.881V158.645H235.222V147.305Z" fill="url(#paint30_linear)"/>
<path d="M201.462 203.459H190.121V214.8H201.462V203.459Z" fill="url(#paint31_linear)"/>
<path d="M212.731 214.99H201.39V226.331H212.731V214.99Z" fill="url(#paint32_linear)"/>
<path d="M190.073 214.799H178.732V226.139H190.073V214.799Z" fill="url(#paint33_linear)"/>
<path d="M178.852 192.596H167.511V203.936H178.852V192.596Z" fill="url(#paint34_linear)"/>
<path d="M167.773 192.596H156.432V203.936H167.773V192.596Z" fill="url(#paint35_linear)"/>
<path d="M212.731 226.066H201.39V237.407H212.731V226.066Z" fill="url(#paint36_linear)"/>
<path d="M212.731 237.123H201.39V248.464H212.731V237.123Z" fill="url(#paint37_linear)"/>
<path d="M223.882 237.123H212.541V248.464H223.882V237.123Z" fill="url(#paint38_linear)"/>
<path d="M178.875 214.799H167.534V226.139H178.875V214.799Z" fill="url(#paint39_linear)"/>
<path d="M178.875 225.875H167.534V237.216H178.875V225.875Z" fill="url(#paint40_linear)"/>
<path d="M190.073 236.934H178.732V248.274H190.073V236.934Z" fill="url(#paint41_linear)"/>
<path d="M201.462 248.51H190.121V259.85H201.462V248.51Z" fill="url(#paint42_linear)"/>
<path d="M235.032 248.51H223.69V259.85H235.032V248.51Z" fill="url(#paint43_linear)"/>
<path d="M167.415 237.123H156.074V248.464H167.415V237.123Z" fill="url(#paint44_linear)"/>
<path d="M235.032 226.066H223.69V237.407H235.032V226.066Z" fill="url(#paint45_linear)"/>
<path d="M355.2 234.162C355.2 239.701 350.711 244.19 345.172 244.19H311.817C306.278 244.19 301.79 239.701 301.79 234.162V234.043C301.79 228.504 306.278 224.016 311.817 224.016H345.172C350.711 224.016 355.2 228.504 355.2 234.043V234.162Z" fill="url(#paint46_linear)"/>
<path d="M313.512 228.432C314.181 228.289 315.398 228.193 316.592 228.193C318.144 228.193 319.123 228.384 319.911 228.933C320.627 229.363 321.105 230.127 321.105 231.106C321.105 232.18 320.436 233.135 319.195 233.613V233.637C320.412 233.947 321.535 234.902 321.535 236.502C321.535 237.528 321.081 238.34 320.412 238.889C319.601 239.606 318.24 239.964 316.115 239.964C314.945 239.964 314.061 239.868 313.512 239.82V228.432ZM315.613 232.992H316.688C318.144 232.992 318.98 232.3 318.98 231.321C318.98 230.247 318.144 229.745 316.807 229.745C316.186 229.745 315.828 229.769 315.613 229.841V232.992ZM315.613 238.292C315.876 238.316 316.258 238.34 316.735 238.34C318.096 238.34 319.29 237.815 319.29 236.406C319.29 235.069 318.12 234.52 316.664 234.52H315.613V238.292Z" fill="white"/>
<path d="M325.498 228.266V234.998C325.498 237.266 326.453 238.317 327.862 238.317C329.39 238.317 330.297 237.266 330.297 234.998V228.266H332.398V234.879C332.398 238.436 330.56 240.036 327.79 240.036C325.116 240.036 323.373 238.532 323.373 234.903V228.29H325.498V228.266Z" fill="white"/>
<path d="M337.46 239.821V234.998L333.807 228.266H336.219L337.603 231.226C338.009 232.086 338.296 232.73 338.606 233.518H338.63C338.917 232.778 339.251 232.062 339.633 231.226L341.018 228.266H343.405L339.561 234.951V239.821H337.46Z" fill="white"/>
<path d="M355.439 167.288C355.104 166.882 354.579 166.691 354.006 166.715L302.864 167.79L301.574 163.683C301.383 163.11 300.858 162.752 300.237 162.752L293.218 162.943C292.454 162.967 291.857 163.492 291.857 164.232C291.857 164.972 292.478 165.474 293.218 165.45L299.211 165.307L310.074 199.997C310.265 200.57 310.814 200.976 311.435 201L347.345 201.477C348.18 201.477 348.873 200.952 348.873 200.164C348.873 199.376 348.18 198.827 347.345 198.803L312.486 198.421L309.692 189.42L347.989 189.468C348.777 189.468 349.47 188.967 349.685 188.25L355.725 168.697C355.892 168.219 355.773 167.694 355.439 167.288Z" fill="#BDD0FB"/>
<path d="M316.689 203.149C313.728 203.101 311.34 205.393 311.34 208.282C311.34 211.147 313.728 213.559 316.689 213.63C319.649 213.702 322.084 211.41 322.084 208.497C322.084 205.608 319.649 203.197 316.689 203.149ZM316.689 210.837C315.304 210.813 314.182 209.691 314.182 208.33C314.182 206.993 315.304 205.919 316.689 205.943C318.073 205.966 319.196 207.089 319.196 208.449C319.196 209.786 318.073 210.861 316.689 210.837Z" fill="#BDD0FB"/>
<path d="M340.612 203.53C337.508 203.482 335.001 205.846 335.001 208.783C335.001 211.719 337.508 214.178 340.612 214.274C343.74 214.345 346.294 212.006 346.294 209.021C346.294 206.037 343.74 203.578 340.612 203.53ZM340.612 211.385C339.155 211.361 337.985 210.215 337.985 208.83C337.985 207.446 339.155 206.347 340.612 206.371C342.068 206.395 343.262 207.541 343.262 208.926C343.262 210.334 342.068 211.433 340.612 211.385Z" fill="#BDD0FB"/>
<path d="M154.546 316.723C154.523 319.755 151.896 322.214 148.721 322.238L71.6491 322.405C68.4258 322.405 65.7756 319.946 65.704 316.914L62.1226 173.353C62.0271 169.939 64.7251 167.17 68.1393 167.194L149.962 167.576C153.353 167.599 156.051 170.369 156.027 173.759L154.546 316.723Z" fill="url(#paint47_linear)"/>
<path d="M147.599 182.041C147.623 178.77 144.925 176.072 141.582 176.072L76.6393 175.785C73.2728 175.761 70.5987 178.435 70.6704 181.73L73.3445 303.779C73.4161 306.763 76.0424 309.175 79.2418 309.175L140.937 309.079C144.113 309.079 146.715 306.668 146.715 303.684L147.599 182.041Z" fill="url(#paint48_linear)"/>
<path opacity="0.12" d="M145.259 189.684C145.283 186.7 142.847 184.289 139.791 184.265L80.8654 184.002C77.8092 183.978 75.3978 186.413 75.4455 189.398L77.857 300.178C77.9047 302.9 80.3162 305.072 83.2052 305.072L139.194 304.977C142.083 304.977 144.423 302.78 144.447 300.082L145.259 189.684Z" fill="white"/>
<path d="M118.899 171.417C118.899 172.062 118.398 172.563 117.753 172.563L100.849 172.492C100.204 172.492 99.7031 171.966 99.6792 171.322C99.6792 170.677 100.181 170.176 100.825 170.176L117.753 170.247C118.374 170.271 118.899 170.773 118.899 171.417Z" fill="url(#paint49_linear)"/>
<path d="M135.398 253.882H85.4974C83.3963 253.882 81.6772 252.163 81.6772 250.062V200.164C81.6772 198.063 83.3963 196.344 85.4974 196.344H135.398C137.499 196.344 139.218 198.063 139.218 200.164V250.062C139.218 252.163 137.499 253.882 135.398 253.882Z" fill="url(#paint50_linear)"/>
<path d="M78.4531 204.534C78.1904 204.534 77.9517 204.319 77.9517 204.032V193.312H90.5582C90.8208 193.312 91.0596 193.527 91.0596 193.814C91.0596 194.076 90.8447 194.315 90.5582 194.315H78.9306V204.032C78.9545 204.319 78.7396 204.534 78.4531 204.534Z" fill="url(#paint51_linear)"/>
<path d="M90.5108 257.006H77.9043V246.287C77.9043 246.024 78.1192 245.785 78.4057 245.785C78.6683 245.785 78.9071 246 78.9071 246.287V256.004H90.5347C90.7973 256.004 91.0361 256.219 91.0361 256.505C90.9883 256.768 90.7734 257.006 90.5108 257.006Z" fill="url(#paint52_linear)"/>
<path d="M142.107 257.006H129.5C129.238 257.006 128.999 256.792 128.999 256.505C128.999 256.242 129.214 256.004 129.5 256.004H141.128V246.287C141.128 246.024 141.343 245.785 141.629 245.785C141.892 245.785 142.131 246 142.131 246.287V257.006H142.107Z" fill="url(#paint53_linear)"/>
<path d="M142.13 204.534C141.868 204.534 141.629 204.319 141.629 204.032V194.315H130.001C129.739 194.315 129.5 194.1 129.5 193.814C129.5 193.551 129.715 193.312 130.001 193.312H142.608V204.032C142.608 204.319 142.393 204.534 142.13 204.534Z" fill="url(#paint54_linear)"/>
<path d="M127.28 285.85H92.23C90.7019 285.85 89.4365 284.609 89.4365 283.057V272.504C89.4365 270.976 90.6781 269.711 92.23 269.711H127.256C128.784 269.711 130.05 270.952 130.05 272.504V283.057C130.05 284.609 128.808 285.85 127.28 285.85Z" fill="url(#paint55_linear)"/>
<path d="M100.969 280.311C100.969 281.243 100.73 281.959 100.253 282.46C99.7753 282.962 99.1068 283.2 98.1995 283.2C97.3161 283.2 96.5759 283.033 95.979 282.675V280.837C96.7192 281.314 97.4116 281.577 98.0323 281.577C98.3905 281.577 98.6531 281.481 98.8441 281.29C99.0351 281.099 99.1068 280.837 99.1068 280.479C99.1068 280.144 99.0112 279.834 98.7964 279.571C98.5815 279.285 98.2233 278.998 97.7458 278.64C97.3161 278.354 96.9818 278.067 96.7669 277.781C96.552 277.518 96.3849 277.208 96.2416 276.873C96.1223 276.539 96.0506 276.133 96.0506 275.704C96.0506 274.844 96.2894 274.176 96.7669 273.674C97.2444 273.173 97.8891 272.91 98.677 272.91C99.441 272.91 100.181 273.125 100.897 273.555L100.277 275.035C100.062 274.916 99.823 274.796 99.5843 274.701C99.3455 274.605 99.0829 274.558 98.8202 274.558C98.5099 274.558 98.295 274.653 98.1278 274.844C97.9607 275.035 97.8891 275.322 97.8891 275.656C97.8891 275.99 97.9846 276.277 98.1756 276.539C98.3666 276.802 98.7009 277.064 99.2023 277.399C99.8469 277.828 100.301 278.282 100.563 278.736C100.85 279.213 100.969 279.715 100.969 280.311Z" fill="white"/>
<path d="M105.529 274.557C105.004 274.557 104.574 274.867 104.264 275.488C103.953 276.109 103.81 276.992 103.81 278.091C103.81 280.406 104.407 281.576 105.625 281.576C106.15 281.576 106.699 281.409 107.296 281.075V282.722C106.818 283.057 106.174 283.2 105.41 283.2C104.287 283.2 103.428 282.746 102.807 281.863C102.21 280.956 101.9 279.714 101.9 278.091C101.9 276.467 102.21 275.202 102.831 274.294C103.452 273.387 104.311 272.934 105.434 272.934C105.792 272.934 106.15 272.981 106.484 273.077C106.818 273.172 107.176 273.363 107.559 273.602L106.938 275.106C106.723 274.963 106.508 274.844 106.269 274.724C106.054 274.605 105.792 274.557 105.529 274.557Z" fill="white"/>
<path d="M113.432 283.055L112.859 280.525H110.256L109.683 283.055H107.821L110.304 273.004H112.835L115.318 283.055H113.432ZM112.5 278.901L111.975 276.585C111.951 276.442 111.88 276.084 111.76 275.511C111.641 274.938 111.593 274.556 111.569 274.365C111.522 274.747 111.426 275.2 111.354 275.654C111.259 276.132 111.02 277.206 110.638 278.877H112.5V278.901Z" fill="white"/>
<path d="M123.197 283.055H120.929L117.825 275.797H117.73C117.849 276.346 117.897 276.943 117.897 277.587V283.055H116.178V273.051H118.47L121.526 280.214H121.598C121.502 279.736 121.478 279.163 121.478 278.495V273.027H123.197V283.055Z" fill="white"/>
<path d="M97.3401 200.451H85.7603V212.031H97.3401V200.451Z" fill="url(#paint56_linear)"/>
<path d="M96.2414 201.717H86.9775V210.98H96.2414V201.717Z" fill="white"/>
<path d="M94.6416 203.482H88.5532V209.571H94.6416V203.482Z" fill="url(#paint57_linear)"/>
<path d="M135.66 200.451H124.08V212.031H135.66V200.451Z" fill="url(#paint58_linear)"/>
<path d="M134.562 201.717H125.298V210.98H134.562V201.717Z" fill="white"/>
<path d="M132.962 203.482H126.874V209.571H132.962V203.482Z" fill="url(#paint59_linear)"/>
<path d="M135.66 238.746H124.08V250.325H135.66V238.746Z" fill="url(#paint60_linear)"/>
<path d="M134.538 240.037H125.274V249.301H134.538V240.037Z" fill="white"/>
<path d="M132.962 241.777H126.874V247.865H132.962V241.777Z" fill="url(#paint61_linear)"/>
<path d="M110.852 220.314H105.791V225.376H110.852V220.314Z" fill="url(#paint62_linear)"/>
<path d="M115.915 225.16H110.853V230.222H115.915V225.16Z" fill="url(#paint63_linear)"/>
<path d="M116.01 215.158H110.948V220.22H116.01V215.158Z" fill="url(#paint64_linear)"/>
<path d="M120.881 215.158H115.819V220.22H120.881V215.158Z" fill="url(#paint65_linear)"/>
<path d="M125.943 220.314H120.881V225.376H125.943V220.314Z" fill="url(#paint66_linear)"/>
<path d="M130.622 225.16H125.561V230.222H130.622V225.16Z" fill="url(#paint67_linear)"/>
<path d="M130.622 230.15H125.561V235.212H130.622V230.15Z" fill="url(#paint68_linear)"/>
<path d="M130.933 215.252H125.871V220.313H130.933V215.252Z" fill="url(#paint69_linear)"/>
<path d="M105.816 220.314H100.754V225.376H105.816V220.314Z" fill="url(#paint70_linear)"/>
<path d="M100.824 215.252H95.7627V220.313H100.824V215.252Z" fill="url(#paint71_linear)"/>
<path d="M90.797 215.35H85.7354V220.411H90.797V215.35Z" fill="url(#paint72_linear)"/>
<path d="M135.684 220.314H130.622V225.376H135.684V220.314Z" fill="url(#paint73_linear)"/>
<path d="M135.589 230.15H130.527V235.212H135.589V230.15Z" fill="url(#paint74_linear)"/>
<path d="M105.816 210.117H100.754V215.179H105.816V210.117Z" fill="url(#paint75_linear)"/>
<path d="M105.816 205.154H100.754V210.216H105.816V205.154Z" fill="url(#paint76_linear)"/>
<path d="M105.792 200.357H100.73V205.419H105.792V200.357Z" fill="url(#paint77_linear)"/>
<path d="M110.781 200.357H105.719V205.419H110.781V200.357Z" fill="url(#paint78_linear)"/>
<path d="M115.915 205.154H110.853V210.216H115.915V205.154Z" fill="url(#paint79_linear)"/>
<path d="M120.881 210.193H115.819V215.255H120.881V210.193Z" fill="url(#paint80_linear)"/>
<path d="M120.881 200.092H115.819V205.153H120.881V200.092Z" fill="url(#paint81_linear)"/>
<path d="M105.816 225.16H100.754V230.222H105.816V225.16Z" fill="url(#paint82_linear)"/>
<path d="M110.852 230.316H105.791V235.378H110.852V230.316Z" fill="url(#paint83_linear)"/>
<path d="M100.73 230.221H95.668V235.282H100.73V230.221Z" fill="url(#paint84_linear)"/>
<path d="M95.7394 220.314H90.6777V225.376H95.7394V220.314Z" fill="url(#paint85_linear)"/>
<path d="M90.797 220.314H85.7354V225.376H90.797V220.314Z" fill="url(#paint86_linear)"/>
<path d="M110.852 235.258H105.791V240.319H110.852V235.258Z" fill="url(#paint87_linear)"/>
<path d="M110.852 240.178H105.791V245.239H110.852V240.178Z" fill="url(#paint88_linear)"/>
<path d="M115.843 240.178H110.781V245.239H115.843V240.178Z" fill="url(#paint89_linear)"/>
<path d="M95.7394 230.221H90.6777V235.282H95.7394V230.221Z" fill="url(#paint90_linear)"/>
<path d="M95.7394 235.164H90.6777V240.226H95.7394V235.164Z" fill="url(#paint91_linear)"/>
<path d="M100.73 240.107H95.668V245.169H100.73V240.107Z" fill="url(#paint92_linear)"/>
<path d="M105.816 245.264H100.754V250.325H105.816V245.264Z" fill="url(#paint93_linear)"/>
<path d="M120.81 245.264H115.748V250.325H120.81V245.264Z" fill="url(#paint94_linear)"/>
<path d="M90.6301 240.178H85.5684V245.239H90.6301V240.178Z" fill="url(#paint95_linear)"/>
<path d="M120.81 235.258H115.748V240.319H120.81V235.258Z" fill="url(#paint96_linear)"/>
<path d="M482.96 331.001H368.116C365.036 331.001 362.553 328.518 362.553 325.439V168.819C362.553 165.739 365.036 163.256 368.116 163.256H482.96C486.04 163.256 488.523 165.739 488.523 168.819V325.439C488.523 328.518 486.04 331.001 482.96 331.001Z" fill="url(#paint97_linear)"/>
<path d="M477.373 324.864H374.85C371.77 324.864 369.287 322.381 369.287 319.301V173.903C369.287 170.823 371.77 168.34 374.85 168.34H477.373C480.453 168.34 482.936 170.823 482.936 173.903V319.301C482.936 322.381 480.453 324.864 477.373 324.864Z" fill="#91B3FA"/>
<path opacity="0.17" d="M472.67 320.876H379.553C376.473 320.876 373.99 318.393 373.99 315.313V176.934C373.99 173.854 376.473 171.371 379.553 171.371H472.67C475.75 171.371 478.233 173.854 478.233 176.934V315.313C478.233 318.393 475.726 320.876 472.67 320.876Z" fill="white"/>
<path d="M452.9 263.22H399.227C397.317 263.22 395.765 261.668 395.765 259.758V206.087C395.765 204.177 397.317 202.625 399.227 202.625H452.9C454.81 202.625 456.362 204.177 456.362 206.087V259.758C456.362 261.668 454.81 263.22 452.9 263.22Z" fill="white"/>
<path d="M439.1 219.053L438.957 207.473L450.536 207.33L450.68 218.909L439.1 219.053Z" fill="url(#paint98_linear)"/>
<path d="M449.395 217.809L449.277 208.547L440.014 208.665L440.132 217.927L449.395 217.809Z" fill="white"/>
<path d="M441.536 216.332L441.464 210.243L447.528 210.172L447.624 216.236L441.536 216.332Z" fill="url(#paint99_linear)"/>
<path d="M439.577 257.371L439.434 245.816L451.014 245.648L451.157 257.228L439.577 257.371Z" fill="url(#paint100_linear)"/>
<path d="M449.884 256.12L449.766 246.857L440.503 246.975L440.621 256.238L449.884 256.12Z" fill="white"/>
<path d="M442.013 254.648L441.941 248.56L448.03 248.488L448.101 254.576L442.013 254.648Z" fill="url(#paint101_linear)"/>
<path d="M401.28 257.85L401.137 246.27L412.717 246.127L412.86 257.706L401.28 257.85Z" fill="url(#paint102_linear)"/>
<path d="M411.565 256.61L411.447 247.348L402.184 247.465L402.302 256.728L411.565 256.61Z" fill="white"/>
<path d="M403.716 255.107L403.645 249.042L409.709 248.971L409.781 255.035L403.716 255.107Z" fill="url(#paint103_linear)"/>
<path d="M425.921 232.732L425.849 227.671L430.911 227.623L430.982 232.685L425.921 232.732Z" fill="url(#paint104_linear)"/>
<path d="M421.122 237.868L421.075 232.806L426.136 232.734L426.184 237.796L421.122 237.868Z" fill="url(#paint105_linear)"/>
<path d="M431.126 237.817L431.078 232.755L436.116 232.684L436.188 237.745L431.126 237.817Z" fill="url(#paint106_linear)"/>
<path d="M431.198 242.713L431.126 237.652L436.188 237.58L436.259 242.642L431.198 242.713Z" fill="url(#paint107_linear)"/>
<path d="M426.112 247.824L426.04 242.763L431.102 242.715L431.173 247.776L426.112 247.824Z" fill="url(#paint108_linear)"/>
<path d="M421.313 252.549L421.265 247.511L426.303 247.439L426.375 252.501L421.313 252.549Z" fill="url(#paint109_linear)"/>
<path d="M416.347 252.621L416.275 247.559L421.337 247.512L421.408 252.549L416.347 252.621Z" fill="url(#paint110_linear)"/>
<path d="M431.245 252.739L431.174 247.677L436.236 247.605L436.283 252.667L431.245 252.739Z" fill="url(#paint111_linear)"/>
<path d="M425.849 227.697L425.802 222.66L430.863 222.588L430.911 227.649L425.849 227.697Z" fill="url(#paint112_linear)"/>
<path d="M430.863 222.637L430.791 217.599L435.853 217.527L435.9 222.589L430.863 222.637Z" fill="url(#paint113_linear)"/>
<path d="M430.648 212.629L430.577 207.568L435.638 207.496L435.686 212.558L430.648 212.629Z" fill="url(#paint114_linear)"/>
<path d="M426.231 257.563L426.184 252.501L431.222 252.43L431.293 257.491L426.231 257.563Z" fill="url(#paint115_linear)"/>
<path d="M416.418 257.588L416.347 252.526L421.408 252.479L421.456 257.54L416.418 257.588Z" fill="url(#paint116_linear)"/>
<path d="M436.044 227.576L435.997 222.515L441.058 222.467L441.106 227.504L436.044 227.576Z" fill="url(#paint117_linear)"/>
<path d="M441.01 227.506L440.938 222.468L446 222.396L446.072 227.458L441.01 227.506Z" fill="url(#paint118_linear)"/>
<path d="M445.809 227.432L445.762 222.37L450.799 222.299L450.871 227.36L445.809 227.432Z" fill="url(#paint119_linear)"/>
<path d="M445.881 232.398L445.809 227.337L450.871 227.289L450.942 232.327L445.881 232.398Z" fill="url(#paint120_linear)"/>
<path d="M441.13 237.603L441.083 232.542L446.144 232.494L446.192 237.532L441.13 237.603Z" fill="url(#paint121_linear)"/>
<path d="M436.164 242.642L436.092 237.581L441.154 237.533L441.226 242.571L436.164 242.642Z" fill="url(#paint122_linear)"/>
<path d="M446.264 242.522L446.192 237.46L451.254 237.389L451.325 242.45L446.264 242.522Z" fill="url(#paint123_linear)"/>
<path d="M421.003 227.767L420.931 222.706L425.993 222.658L426.064 227.696L421.003 227.767Z" fill="url(#paint124_linear)"/>
<path d="M415.916 232.875L415.869 227.814L420.906 227.742L420.978 232.804L415.916 232.875Z" fill="url(#paint125_linear)"/>
<path d="M415.893 222.754L415.821 217.693L420.883 217.621L420.931 222.683L415.893 222.754Z" fill="url(#paint126_linear)"/>
<path d="M425.73 217.619L425.658 212.558L430.72 212.486L430.792 217.548L425.73 217.619Z" fill="url(#paint127_linear)"/>
<path d="M425.658 212.678L425.61 207.617L430.672 207.545L430.72 212.606L425.658 212.678Z" fill="url(#paint128_linear)"/>
<path d="M410.975 232.924L410.927 227.862L415.965 227.814L416.036 232.876L410.975 232.924Z" fill="url(#paint129_linear)"/>
<path d="M406.056 232.996L405.984 227.935L411.046 227.863L411.118 232.925L406.056 232.996Z" fill="url(#paint130_linear)"/>
<path d="M406.103 237.961L406.056 232.899L411.094 232.852L411.165 237.913L406.103 237.961Z" fill="url(#paint131_linear)"/>
<path d="M415.821 217.764L415.75 212.702L420.811 212.631L420.883 217.692L415.821 217.764Z" fill="url(#paint132_linear)"/>
<path d="M410.879 217.81L410.808 212.749L415.869 212.701L415.941 217.763L410.879 217.81Z" fill="url(#paint133_linear)"/>
<path d="M406.008 222.873L405.937 217.811L410.998 217.764L411.07 222.801L406.008 222.873Z" fill="url(#paint134_linear)"/>
<path d="M400.899 228.03L400.827 222.968L405.889 222.896L405.96 227.958L400.899 228.03Z" fill="url(#paint135_linear)"/>
<path d="M401.09 243L401.018 237.938L406.08 237.891L406.151 242.952L401.09 243Z" fill="url(#paint136_linear)"/>
<path d="M405.793 212.774L405.722 207.712L410.783 207.641L410.855 212.702L405.793 212.774Z" fill="url(#paint137_linear)"/>
<path d="M411.118 242.879L411.046 237.818L416.108 237.746L416.155 242.808L411.118 242.879Z" fill="url(#paint138_linear)"/>
<path d="M442.609 291.751H404.384C402.856 291.751 401.59 290.509 401.59 288.957V277.139C401.59 275.611 402.832 274.346 404.384 274.346H442.609C444.137 274.346 445.403 275.587 445.403 277.139V288.957C445.403 290.509 444.137 291.751 442.609 291.751Z" fill="url(#paint139_linear)"/>
<path d="M414.03 285.78C414.03 286.783 413.767 287.571 413.266 288.096C412.764 288.621 412.024 288.908 411.069 288.908C410.138 288.908 409.326 288.717 408.682 288.358V286.377C409.493 286.902 410.234 287.165 410.902 287.165C411.284 287.165 411.571 287.069 411.762 286.854C411.953 286.639 412.048 286.353 412.048 285.995C412.048 285.637 411.929 285.302 411.69 285.016C411.451 284.729 411.069 284.395 410.544 284.013C410.09 283.703 409.732 283.392 409.493 283.106C409.255 282.819 409.064 282.485 408.944 282.127C408.825 281.769 408.753 281.339 408.753 280.862C408.753 279.931 409.016 279.214 409.517 278.665C410.043 278.116 410.711 277.854 411.594 277.854C412.43 277.854 413.218 278.092 413.982 278.546L413.313 280.145C413.075 280.002 412.836 279.883 412.573 279.787C412.311 279.668 412.048 279.62 411.738 279.62C411.403 279.62 411.165 279.716 410.998 279.931C410.83 280.145 410.735 280.432 410.735 280.814C410.735 281.172 410.83 281.506 411.045 281.769C411.26 282.032 411.618 282.342 412.144 282.7C412.836 283.178 413.337 283.655 413.624 284.156C413.887 284.586 414.03 285.135 414.03 285.78Z" fill="white"/>
<path d="M418.948 279.548C418.375 279.548 417.922 279.883 417.587 280.551C417.253 281.22 417.086 282.175 417.086 283.368C417.086 285.875 417.731 287.117 419.044 287.117C419.617 287.117 420.214 286.926 420.835 286.568V288.358C420.309 288.716 419.641 288.884 418.805 288.884C417.587 288.884 416.656 288.406 416.012 287.427C415.367 286.448 415.033 285.111 415.033 283.345C415.033 281.602 415.367 280.217 416.035 279.238C416.704 278.259 417.635 277.758 418.829 277.758C419.211 277.758 419.593 277.806 419.951 277.925C420.309 278.044 420.691 278.211 421.121 278.498L420.453 280.121C420.238 279.978 419.999 279.835 419.736 279.716C419.498 279.62 419.235 279.548 418.948 279.548Z" fill="white"/>
<path d="M427.472 288.742L426.851 286.02H424.034L423.413 288.742H421.408L424.082 277.902H426.804L429.478 288.742H427.472ZM426.469 284.253L425.896 281.746C425.873 281.603 425.777 281.221 425.658 280.6C425.538 279.979 425.467 279.574 425.443 279.383C425.371 279.812 425.3 280.266 425.204 280.791C425.108 281.293 424.846 282.462 424.44 284.277H426.469V284.253Z" fill="white"/>
<path d="M438.002 288.739H435.543L432.2 280.932H432.104C432.224 281.529 432.295 282.173 432.295 282.842V288.739H430.433V277.947H432.892L436.211 285.683H436.283C436.187 285.158 436.139 284.561 436.139 283.844V277.947H437.978V288.739H438.002Z" fill="white"/>
<path d="M460.182 290.772C465.457 290.772 469.733 286.496 469.733 281.222C469.733 275.948 465.457 271.672 460.182 271.672C454.908 271.672 450.632 275.948 450.632 281.222C450.632 286.496 454.908 290.772 460.182 290.772Z" fill="#7D97F4"/>
<path d="M460.183 289.983C464.982 289.983 468.873 286.092 468.873 281.292C468.873 276.492 464.982 272.602 460.183 272.602C455.383 272.602 451.492 276.492 451.492 281.292C451.492 286.092 455.383 289.983 460.183 289.983Z" fill="url(#paint140_linear)"/>
<path d="M458.846 276.138C458.846 275.756 458.965 275.469 459.18 275.254C459.395 275.039 459.705 274.92 460.087 274.92C460.445 274.92 460.756 275.039 460.971 275.254C461.186 275.469 461.305 275.779 461.305 276.138C461.305 276.52 461.186 276.83 460.971 277.045C460.756 277.26 460.445 277.355 460.087 277.355C459.705 277.355 459.419 277.26 459.18 277.045C458.941 276.83 458.846 276.52 458.846 276.138ZM461.186 288.075H458.917V278.621H461.186V288.075Z" fill="#7D97F4"/>
<path d="M464.79 188.467H388.053C387.098 188.467 386.286 187.679 386.286 186.7V186.485C386.286 185.53 387.074 184.719 388.053 184.719H464.79C465.745 184.719 466.557 185.507 466.557 186.485V186.7C466.557 187.679 465.769 188.467 464.79 188.467Z" fill="#BDD0FB"/>
<path d="M464.385 195.153H387.647C386.692 195.153 385.88 194.365 385.88 193.386V193.171C385.88 192.216 386.668 191.404 387.647 191.404H464.385C465.34 191.404 466.151 192.192 466.151 193.171V193.386C466.128 194.365 465.34 195.153 464.385 195.153Z" fill="#BDD0FB"/>
<path d="M465.053 299.248H388.316C387.361 299.248 386.549 298.461 386.549 297.482V297.267C386.549 296.312 387.337 295.5 388.316 295.5H465.053C466.008 295.5 466.82 296.288 466.82 297.267V297.482C466.796 298.461 466.008 299.248 465.053 299.248Z" fill="#BDD0FB"/>
<path d="M464.886 306.194H388.149C387.194 306.194 386.382 305.406 386.382 304.427V304.212C386.382 303.257 387.17 302.445 388.149 302.445H464.886C465.841 302.445 466.653 303.233 466.653 304.212V304.427C466.629 305.406 465.841 306.194 464.886 306.194Z" fill="#BDD0FB"/>
<path d="M465.076 313.022H388.339C387.384 313.022 386.572 312.234 386.572 311.255V311.04C386.572 310.085 387.36 309.273 388.339 309.273H465.076C466.032 309.273 466.843 310.061 466.843 311.04V311.255C466.843 312.234 466.055 313.022 465.076 313.022Z" fill="#BDD0FB"/>
<path d="M471.739 318.562H380.365C378.599 318.562 377.166 317.129 377.166 315.362V175.885C377.166 174.118 378.599 172.686 380.365 172.686H471.739C473.506 172.686 474.938 174.118 474.938 175.885V315.339C474.962 317.129 473.506 318.562 471.739 318.562ZM380.365 173.187C378.861 173.187 377.644 174.405 377.644 175.909V315.362C377.644 316.867 378.861 318.084 380.365 318.084H471.739C473.243 318.084 474.461 316.867 474.461 315.362V175.885C474.461 174.381 473.243 173.163 471.739 173.163H380.365V173.187Z" fill="url(#paint141_linear)"/>
<defs>
<linearGradient id="paint0_linear" x1="-0.0262836" y1="157.27" x2="525.242" y2="157.27" gradientUnits="userSpaceOnUse">
<stop stop-color="#DAE3FE"/>
<stop offset="1" stop-color="#E9EFFD"/>
</linearGradient>
<linearGradient id="paint1_linear" x1="26.1623" y1="229.06" x2="164.508" y2="229.06" gradientUnits="userSpaceOnUse">
<stop stop-color="#DAE3FE"/>
<stop offset="1" stop-color="#E9EFFD"/>
</linearGradient>
<linearGradient id="paint2_linear" x1="118.05" y1="213.362" x2="448.737" y2="209.658" gradientUnits="userSpaceOnUse">
<stop stop-color="#09005D"/>
<stop offset="1" stop-color="#1A0F91"/>
</linearGradient>
<linearGradient id="paint3_linear" x1="340.05" y1="135.879" x2="52.9711" y2="472.285" gradientUnits="userSpaceOnUse">
<stop stop-color="#4042E2"/>
<stop offset="1" stop-color="#4F52FF"/>
</linearGradient>
<linearGradient id="paint4_linear" x1="139.396" y1="203.918" x2="285.676" y2="203.918" gradientUnits="userSpaceOnUse">
<stop stop-color="#DAE3FE"/>
<stop offset="1" stop-color="#E9EFFD"/>
</linearGradient>
<linearGradient id="paint5_linear" x1="195.981" y1="67.2684" x2="125.605" y2="316.4" gradientUnits="userSpaceOnUse">
<stop stop-color="#09005D"/>
<stop offset="1" stop-color="#1A0F91"/>
</linearGradient>
<linearGradient id="paint6_linear" x1="162.775" y1="161.67" x2="176.393" y2="161.67" gradientUnits="userSpaceOnUse">
<stop stop-color="#09005D"/>
<stop offset="1" stop-color="#1A0F91"/>
</linearGradient>
<linearGradient id="paint7_linear" x1="281.847" y1="67.2683" x2="211.47" y2="316.4" gradientUnits="userSpaceOnUse">
<stop stop-color="#09005D"/>
<stop offset="1" stop-color="#1A0F91"/>
</linearGradient>
<linearGradient id="paint8_linear" x1="248.641" y1="161.67" x2="262.259" y2="161.67" gradientUnits="userSpaceOnUse">
<stop stop-color="#09005D"/>
<stop offset="1" stop-color="#1A0F91"/>
</linearGradient>
<linearGradient id="paint9_linear" x1="281.812" y1="153.104" x2="211.435" y2="402.235" gradientUnits="userSpaceOnUse">
<stop stop-color="#09005D"/>
<stop offset="1" stop-color="#1A0F91"/>
</linearGradient>
<linearGradient id="paint10_linear" x1="248.606" y1="247.503" x2="262.225" y2="247.503" gradientUnits="userSpaceOnUse">
<stop stop-color="#09005D"/>
<stop offset="1" stop-color="#1A0F91"/>
</linearGradient>
<linearGradient id="paint11_linear" x1="212.538" y1="178.876" x2="181.793" y2="287.71" gradientUnits="userSpaceOnUse">
<stop stop-color="#09005D"/>
<stop offset="1" stop-color="#1A0F91"/>
</linearGradient>
<linearGradient id="paint12_linear" x1="223.87" y1="189.753" x2="193.125" y2="298.588" gradientUnits="userSpaceOnUse">
<stop stop-color="#09005D"/>
<stop offset="1" stop-color="#1A0F91"/>
</linearGradient>
<linearGradient id="paint13_linear" x1="224.064" y1="167.35" x2="193.319" y2="276.185" gradientUnits="userSpaceOnUse">
<stop stop-color="#09005D"/>
<stop offset="1" stop-color="#1A0F91"/>
</linearGradient>
<linearGradient id="paint14_linear" x1="235.015" y1="167.35" x2="204.27" y2="276.185" gradientUnits="userSpaceOnUse">
<stop stop-color="#09005D"/>
<stop offset="1" stop-color="#1A0F91"/>
</linearGradient>
<linearGradient id="paint15_linear" x1="246.348" y1="178.876" x2="215.603" y2="287.71" gradientUnits="userSpaceOnUse">
<stop stop-color="#09005D"/>
<stop offset="1" stop-color="#1A0F91"/>
</linearGradient>
<linearGradient id="paint16_linear" x1="256.805" y1="189.753" x2="226.061" y2="298.588" gradientUnits="userSpaceOnUse">
<stop stop-color="#09005D"/>
<stop offset="1" stop-color="#1A0F91"/>
</linearGradient>
<linearGradient id="paint17_linear" x1="256.805" y1="200.892" x2="226.061" y2="309.726" gradientUnits="userSpaceOnUse">
<stop stop-color="#09005D"/>
<stop offset="1" stop-color="#1A0F91"/>
</linearGradient>
<linearGradient id="paint18_linear" x1="257.492" y1="167.545" x2="226.748" y2="276.38" gradientUnits="userSpaceOnUse">
<stop stop-color="#09005D"/>
<stop offset="1" stop-color="#1A0F91"/>
</linearGradient>
<linearGradient id="paint19_linear" x1="201.259" y1="178.876" x2="170.514" y2="287.71" gradientUnits="userSpaceOnUse">
<stop stop-color="#09005D"/>
<stop offset="1" stop-color="#1A0F91"/>
</linearGradient>
<linearGradient id="paint20_linear" x1="190.06" y1="167.545" x2="159.316" y2="276.38" gradientUnits="userSpaceOnUse">
<stop stop-color="#09005D"/>
<stop offset="1" stop-color="#1A0F91"/>
</linearGradient>
<linearGradient id="paint21_linear" x1="167.599" y1="167.737" x2="136.854" y2="276.572" gradientUnits="userSpaceOnUse">
<stop stop-color="#09005D"/>
<stop offset="1" stop-color="#1A0F91"/>
</linearGradient>
<linearGradient id="paint22_linear" x1="268.137" y1="178.876" x2="237.392" y2="287.71" gradientUnits="userSpaceOnUse">
<stop stop-color="#09005D"/>
<stop offset="1" stop-color="#1A0F91"/>
</linearGradient>
<linearGradient id="paint23_linear" x1="267.944" y1="200.892" x2="237.199" y2="309.726" gradientUnits="userSpaceOnUse">
<stop stop-color="#09005D"/>
<stop offset="1" stop-color="#1A0F91"/>
</linearGradient>
<linearGradient id="paint24_linear" x1="201.259" y1="156.029" x2="170.514" y2="264.864" gradientUnits="userSpaceOnUse">
<stop stop-color="#09005D"/>
<stop offset="1" stop-color="#1A0F91"/>
</linearGradient>
<linearGradient id="paint25_linear" x1="201.259" y1="144.927" x2="170.514" y2="253.761" gradientUnits="userSpaceOnUse">
<stop stop-color="#09005D"/>
<stop offset="1" stop-color="#1A0F91"/>
</linearGradient>
<linearGradient id="paint26_linear" x1="201.207" y1="134.158" x2="170.462" y2="242.993" gradientUnits="userSpaceOnUse">
<stop stop-color="#09005D"/>
<stop offset="1" stop-color="#1A0F91"/>
</linearGradient>
<linearGradient id="paint27_linear" x1="212.344" y1="134.158" x2="181.599" y2="242.993" gradientUnits="userSpaceOnUse">
<stop stop-color="#09005D"/>
<stop offset="1" stop-color="#1A0F91"/>
</linearGradient>
<linearGradient id="paint28_linear" x1="223.87" y1="144.927" x2="193.125" y2="253.761" gradientUnits="userSpaceOnUse">
<stop stop-color="#09005D"/>
<stop offset="1" stop-color="#1A0F91"/>
</linearGradient>
<linearGradient id="paint29_linear" x1="235.015" y1="156.212" x2="204.27" y2="265.047" gradientUnits="userSpaceOnUse">
<stop stop-color="#09005D"/>
<stop offset="1" stop-color="#1A0F91"/>
</linearGradient>
<linearGradient id="paint30_linear" x1="235.015" y1="133.594" x2="204.27" y2="242.429" gradientUnits="userSpaceOnUse">
<stop stop-color="#09005D"/>
<stop offset="1" stop-color="#1A0F91"/>
</linearGradient>
<linearGradient id="paint31_linear" x1="201.259" y1="189.753" x2="170.514" y2="298.588" gradientUnits="userSpaceOnUse">
<stop stop-color="#09005D"/>
<stop offset="1" stop-color="#1A0F91"/>
</linearGradient>
<linearGradient id="paint32_linear" x1="212.538" y1="201.279" x2="181.793" y2="310.113" gradientUnits="userSpaceOnUse">
<stop stop-color="#09005D"/>
<stop offset="1" stop-color="#1A0F91"/>
</linearGradient>
<linearGradient id="paint33_linear" x1="189.874" y1="201.084" x2="159.129" y2="309.919" gradientUnits="userSpaceOnUse">
<stop stop-color="#09005D"/>
<stop offset="1" stop-color="#1A0F91"/>
</linearGradient>
<linearGradient id="paint34_linear" x1="178.648" y1="178.876" x2="147.903" y2="287.71" gradientUnits="userSpaceOnUse">
<stop stop-color="#09005D"/>
<stop offset="1" stop-color="#1A0F91"/>
</linearGradient>
<linearGradient id="paint35_linear" x1="167.583" y1="178.876" x2="136.839" y2="287.71" gradientUnits="userSpaceOnUse">
<stop stop-color="#09005D"/>
<stop offset="1" stop-color="#1A0F91"/>
</linearGradient>
<linearGradient id="paint36_linear" x1="212.538" y1="212.348" x2="181.793" y2="321.183" gradientUnits="userSpaceOnUse">
<stop stop-color="#09005D"/>
<stop offset="1" stop-color="#1A0F91"/>
</linearGradient>
<linearGradient id="paint37_linear" x1="212.538" y1="223.402" x2="181.793" y2="332.237" gradientUnits="userSpaceOnUse">
<stop stop-color="#09005D"/>
<stop offset="1" stop-color="#1A0F91"/>
</linearGradient>
<linearGradient id="paint38_linear" x1="223.683" y1="223.402" x2="192.939" y2="332.237" gradientUnits="userSpaceOnUse">
<stop stop-color="#09005D"/>
<stop offset="1" stop-color="#1A0F91"/>
</linearGradient>
<linearGradient id="paint39_linear" x1="178.676" y1="201.084" x2="147.932" y2="309.919" gradientUnits="userSpaceOnUse">
<stop stop-color="#09005D"/>
<stop offset="1" stop-color="#1A0F91"/>
</linearGradient>
<linearGradient id="paint40_linear" x1="178.676" y1="212.154" x2="147.932" y2="320.988" gradientUnits="userSpaceOnUse">
<stop stop-color="#09005D"/>
<stop offset="1" stop-color="#1A0F91"/>
</linearGradient>
<linearGradient id="paint41_linear" x1="189.874" y1="223.217" x2="159.129" y2="332.052" gradientUnits="userSpaceOnUse">
<stop stop-color="#09005D"/>
<stop offset="1" stop-color="#1A0F91"/>
</linearGradient>
<linearGradient id="paint42_linear" x1="201.259" y1="234.794" x2="170.514" y2="343.628" gradientUnits="userSpaceOnUse">
<stop stop-color="#09005D"/>
<stop offset="1" stop-color="#1A0F91"/>
</linearGradient>
<linearGradient id="paint43_linear" x1="234.829" y1="234.794" x2="204.084" y2="343.629" gradientUnits="userSpaceOnUse">
<stop stop-color="#09005D"/>
<stop offset="1" stop-color="#1A0F91"/>
</linearGradient>
<linearGradient id="paint44_linear" x1="167.21" y1="223.402" x2="136.466" y2="332.237" gradientUnits="userSpaceOnUse">
<stop stop-color="#09005D"/>
<stop offset="1" stop-color="#1A0F91"/>
</linearGradient>
<linearGradient id="paint45_linear" x1="234.829" y1="212.348" x2="204.084" y2="321.183" gradientUnits="userSpaceOnUse">
<stop stop-color="#09005D"/>
<stop offset="1" stop-color="#1A0F91"/>
</linearGradient>
<linearGradient id="paint46_linear" x1="363.521" y1="194.518" x2="253.696" y2="318.672" gradientUnits="userSpaceOnUse">
<stop stop-color="#FE7062"/>
<stop offset="1" stop-color="#FF928E"/>
</linearGradient>
<linearGradient id="paint47_linear" x1="20.8364" y1="71.3581" x2="144.983" y2="311.067" gradientUnits="userSpaceOnUse">
<stop stop-color="#09005D"/>
<stop offset="1" stop-color="#1A0F91"/>
</linearGradient>
<linearGradient id="paint48_linear" x1="87.3413" y1="291.76" x2="235.362" y2="-49.1798" gradientUnits="userSpaceOnUse">
<stop stop-color="#FE7062"/>
<stop offset="1" stop-color="#FF928E"/>
</linearGradient>
<linearGradient id="paint49_linear" x1="109.665" y1="148.745" x2="109.271" y2="172.77" gradientUnits="userSpaceOnUse">
<stop stop-color="#8D55D1"/>
<stop offset="0.9964" stop-color="#1C2873"/>
</linearGradient>
<linearGradient id="paint50_linear" x1="81.6553" y1="225.1" x2="139.211" y2="225.1" gradientUnits="userSpaceOnUse">
<stop stop-color="#DAE3FE"/>
<stop offset="1" stop-color="#E9EFFD"/>
</linearGradient>
<linearGradient id="paint51_linear" x1="77.9635" y1="198.933" x2="91.0624" y2="198.933" gradientUnits="userSpaceOnUse">
<stop stop-color="#09005D"/>
<stop offset="1" stop-color="#1A0F91"/>
</linearGradient>
<linearGradient id="paint52_linear" x1="77.8975" y1="251.396" x2="90.9965" y2="251.396" gradientUnits="userSpaceOnUse">
<stop stop-color="#09005D"/>
<stop offset="1" stop-color="#1A0F91"/>
</linearGradient>
<linearGradient id="paint53_linear" x1="142.11" y1="251.396" x2="129.011" y2="251.396" gradientUnits="userSpaceOnUse">
<stop stop-color="#09005D"/>
<stop offset="1" stop-color="#1A0F91"/>
</linearGradient>
<linearGradient id="paint54_linear" x1="142.616" y1="198.933" x2="129.517" y2="198.933" gradientUnits="userSpaceOnUse">
<stop stop-color="#09005D"/>
<stop offset="1" stop-color="#1A0F91"/>
</linearGradient>
<linearGradient id="paint55_linear" x1="114.584" y1="235.359" x2="107.899" y2="294.092" gradientUnits="userSpaceOnUse">
<stop stop-color="#E1473D"/>
<stop offset="1" stop-color="#E9605A"/>
</linearGradient>
<linearGradient id="paint56_linear" x1="103.379" y1="164.377" x2="71.9663" y2="275.578" gradientUnits="userSpaceOnUse">
<stop stop-color="#09005D"/>
<stop offset="1" stop-color="#1A0F91"/>
</linearGradient>
<linearGradient id="paint57_linear" x1="88.557" y1="206.511" x2="94.6356" y2="206.511" gradientUnits="userSpaceOnUse">
<stop stop-color="#09005D"/>
<stop offset="1" stop-color="#1A0F91"/>
</linearGradient>
<linearGradient id="paint58_linear" x1="141.704" y1="164.377" x2="110.292" y2="275.578" gradientUnits="userSpaceOnUse">
<stop stop-color="#09005D"/>
<stop offset="1" stop-color="#1A0F91"/>
</linearGradient>
<linearGradient id="paint59_linear" x1="126.883" y1="206.511" x2="132.962" y2="206.511" gradientUnits="userSpaceOnUse">
<stop stop-color="#09005D"/>
<stop offset="1" stop-color="#1A0F91"/>
</linearGradient>
<linearGradient id="paint60_linear" x1="141.689" y1="202.69" x2="110.276" y2="313.891" gradientUnits="userSpaceOnUse">
<stop stop-color="#09005D"/>
<stop offset="1" stop-color="#1A0F91"/>
</linearGradient>
<linearGradient id="paint61_linear" x1="126.868" y1="244.825" x2="132.946" y2="244.825" gradientUnits="userSpaceOnUse">
<stop stop-color="#09005D"/>
<stop offset="1" stop-color="#1A0F91"/>
</linearGradient>
<linearGradient id="paint62_linear" x1="110.768" y1="214.192" x2="97.0447" y2="262.771" gradientUnits="userSpaceOnUse">
<stop stop-color="#09005D"/>
<stop offset="1" stop-color="#1A0F91"/>
</linearGradient>
<linearGradient id="paint63_linear" x1="115.827" y1="219.047" x2="102.103" y2="267.626" gradientUnits="userSpaceOnUse">
<stop stop-color="#09005D"/>
<stop offset="1" stop-color="#1A0F91"/>
</linearGradient>
<linearGradient id="paint64_linear" x1="115.913" y1="209.049" x2="102.19" y2="257.627" gradientUnits="userSpaceOnUse">
<stop stop-color="#09005D"/>
<stop offset="1" stop-color="#1A0F91"/>
</linearGradient>
<linearGradient id="paint65_linear" x1="120.801" y1="209.049" x2="107.079" y2="257.627" gradientUnits="userSpaceOnUse">
<stop stop-color="#09005D"/>
<stop offset="1" stop-color="#1A0F91"/>
</linearGradient>
<linearGradient id="paint66_linear" x1="125.859" y1="214.192" x2="112.136" y2="262.771" gradientUnits="userSpaceOnUse">
<stop stop-color="#09005D"/>
<stop offset="1" stop-color="#1A0F91"/>
</linearGradient>
<linearGradient id="paint67_linear" x1="130.527" y1="219.047" x2="116.804" y2="267.626" gradientUnits="userSpaceOnUse">
<stop stop-color="#09005D"/>
<stop offset="1" stop-color="#1A0F91"/>
</linearGradient>
<linearGradient id="paint68_linear" x1="130.527" y1="224.018" x2="116.804" y2="272.597" gradientUnits="userSpaceOnUse">
<stop stop-color="#09005D"/>
<stop offset="1" stop-color="#1A0F91"/>
</linearGradient>
<linearGradient id="paint69_linear" x1="130.834" y1="209.133" x2="117.111" y2="257.712" gradientUnits="userSpaceOnUse">
<stop stop-color="#09005D"/>
<stop offset="1" stop-color="#1A0F91"/>
</linearGradient>
<linearGradient id="paint70_linear" x1="105.734" y1="214.192" x2="92.0112" y2="262.771" gradientUnits="userSpaceOnUse">
<stop stop-color="#09005D"/>
<stop offset="1" stop-color="#1A0F91"/>
</linearGradient>
<linearGradient id="paint71_linear" x1="100.735" y1="209.133" x2="87.0118" y2="257.712" gradientUnits="userSpaceOnUse">
<stop stop-color="#09005D"/>
<stop offset="1" stop-color="#1A0F91"/>
</linearGradient>
<linearGradient id="paint72_linear" x1="90.7094" y1="209.222" x2="76.9866" y2="257.801" gradientUnits="userSpaceOnUse">
<stop stop-color="#09005D"/>
<stop offset="1" stop-color="#1A0F91"/>
</linearGradient>
<linearGradient id="paint73_linear" x1="135.585" y1="214.192" x2="121.862" y2="262.771" gradientUnits="userSpaceOnUse">
<stop stop-color="#09005D"/>
<stop offset="1" stop-color="#1A0F91"/>
</linearGradient>
<linearGradient id="paint74_linear" x1="135.499" y1="224.018" x2="121.776" y2="272.597" gradientUnits="userSpaceOnUse">
<stop stop-color="#09005D"/>
<stop offset="1" stop-color="#1A0F91"/>
</linearGradient>
<linearGradient id="paint75_linear" x1="105.734" y1="203.992" x2="92.0111" y2="252.571" gradientUnits="userSpaceOnUse">
<stop stop-color="#09005D"/>
<stop offset="1" stop-color="#1A0F91"/>
</linearGradient>
<linearGradient id="paint76_linear" x1="105.734" y1="199.039" x2="92.0115" y2="247.618" gradientUnits="userSpaceOnUse">
<stop stop-color="#09005D"/>
<stop offset="1" stop-color="#1A0F91"/>
</linearGradient>
<linearGradient id="paint77_linear" x1="105.711" y1="194.234" x2="91.9879" y2="242.813" gradientUnits="userSpaceOnUse">
<stop stop-color="#09005D"/>
<stop offset="1" stop-color="#1A0F91"/>
</linearGradient>
<linearGradient id="paint78_linear" x1="110.681" y1="194.234" x2="96.9585" y2="242.813" gradientUnits="userSpaceOnUse">
<stop stop-color="#09005D"/>
<stop offset="1" stop-color="#1A0F91"/>
</linearGradient>
<linearGradient id="paint79_linear" x1="115.827" y1="199.039" x2="102.104" y2="247.618" gradientUnits="userSpaceOnUse">
<stop stop-color="#09005D"/>
<stop offset="1" stop-color="#1A0F91"/>
</linearGradient>
<linearGradient id="paint80_linear" x1="120.801" y1="204.079" x2="107.079" y2="252.657" gradientUnits="userSpaceOnUse">
<stop stop-color="#09005D"/>
<stop offset="1" stop-color="#1A0F91"/>
</linearGradient>
<linearGradient id="paint81_linear" x1="120.801" y1="193.98" x2="107.078" y2="242.559" gradientUnits="userSpaceOnUse">
<stop stop-color="#09005D"/>
<stop offset="1" stop-color="#1A0F91"/>
</linearGradient>
<linearGradient id="paint82_linear" x1="105.734" y1="219.047" x2="92.0109" y2="267.626" gradientUnits="userSpaceOnUse">
<stop stop-color="#09005D"/>
<stop offset="1" stop-color="#1A0F91"/>
</linearGradient>
<linearGradient id="paint83_linear" x1="110.768" y1="224.19" x2="97.0446" y2="272.769" gradientUnits="userSpaceOnUse">
<stop stop-color="#09005D"/>
<stop offset="1" stop-color="#1A0F91"/>
</linearGradient>
<linearGradient id="paint84_linear" x1="100.652" y1="224.104" x2="86.9295" y2="272.682" gradientUnits="userSpaceOnUse">
<stop stop-color="#09005D"/>
<stop offset="1" stop-color="#1A0F91"/>
</linearGradient>
<linearGradient id="paint85_linear" x1="95.6411" y1="214.192" x2="81.9181" y2="262.771" gradientUnits="userSpaceOnUse">
<stop stop-color="#09005D"/>
<stop offset="1" stop-color="#1A0F91"/>
</linearGradient>
<linearGradient id="paint86_linear" x1="90.7026" y1="214.192" x2="76.9796" y2="262.771" gradientUnits="userSpaceOnUse">
<stop stop-color="#09005D"/>
<stop offset="1" stop-color="#1A0F91"/>
</linearGradient>
<linearGradient id="paint87_linear" x1="110.768" y1="229.131" x2="97.0446" y2="277.71" gradientUnits="userSpaceOnUse">
<stop stop-color="#09005D"/>
<stop offset="1" stop-color="#1A0F91"/>
</linearGradient>
<linearGradient id="paint88_linear" x1="110.768" y1="234.066" x2="97.0451" y2="282.644" gradientUnits="userSpaceOnUse">
<stop stop-color="#09005D"/>
<stop offset="1" stop-color="#1A0F91"/>
</linearGradient>
<linearGradient id="paint89_linear" x1="115.743" y1="234.066" x2="102.021" y2="282.644" gradientUnits="userSpaceOnUse">
<stop stop-color="#09005D"/>
<stop offset="1" stop-color="#1A0F91"/>
</linearGradient>
<linearGradient id="paint90_linear" x1="95.6541" y1="224.104" x2="81.9311" y2="272.682" gradientUnits="userSpaceOnUse">
<stop stop-color="#09005D"/>
<stop offset="1" stop-color="#1A0F91"/>
</linearGradient>
<linearGradient id="paint91_linear" x1="95.654" y1="229.046" x2="81.9309" y2="277.626" gradientUnits="userSpaceOnUse">
<stop stop-color="#09005D"/>
<stop offset="1" stop-color="#1A0F91"/>
</linearGradient>
<linearGradient id="paint92_linear" x1="100.652" y1="233.984" x2="86.9295" y2="282.563" gradientUnits="userSpaceOnUse">
<stop stop-color="#09005D"/>
<stop offset="1" stop-color="#1A0F91"/>
</linearGradient>
<linearGradient id="paint93_linear" x1="105.734" y1="239.152" x2="92.0115" y2="287.731" gradientUnits="userSpaceOnUse">
<stop stop-color="#09005D"/>
<stop offset="1" stop-color="#1A0F91"/>
</linearGradient>
<linearGradient id="paint94_linear" x1="120.718" y1="239.152" x2="106.996" y2="287.731" gradientUnits="userSpaceOnUse">
<stop stop-color="#09005D"/>
<stop offset="1" stop-color="#1A0F91"/>
</linearGradient>
<linearGradient id="paint95_linear" x1="90.5363" y1="234.066" x2="76.8137" y2="282.644" gradientUnits="userSpaceOnUse">
<stop stop-color="#09005D"/>
<stop offset="1" stop-color="#1A0F91"/>
</linearGradient>
<linearGradient id="paint96_linear" x1="120.718" y1="229.131" x2="106.995" y2="277.71" gradientUnits="userSpaceOnUse">
<stop stop-color="#09005D"/>
<stop offset="1" stop-color="#1A0F91"/>
</linearGradient>
<linearGradient id="paint97_linear" x1="347.002" y1="364.273" x2="574.288" y2="25.2403" gradientUnits="userSpaceOnUse">
<stop stop-color="#09005D"/>
<stop offset="1" stop-color="#1A0F91"/>
</linearGradient>
<linearGradient id="paint98_linear" x1="486.819" y1="224.491" x2="375.225" y2="194.49" gradientUnits="userSpaceOnUse">
<stop stop-color="#09005D"/>
<stop offset="1" stop-color="#1A0F91"/>
</linearGradient>
<linearGradient id="paint99_linear" x1="444.498" y1="210.207" x2="444.575" y2="216.285" gradientUnits="userSpaceOnUse">
<stop stop-color="#09005D"/>
<stop offset="1" stop-color="#1A0F91"/>
</linearGradient>
<linearGradient id="paint100_linear" x1="487.306" y1="262.812" x2="375.712" y2="232.81" gradientUnits="userSpaceOnUse">
<stop stop-color="#09005D"/>
<stop offset="1" stop-color="#1A0F91"/>
</linearGradient>
<linearGradient id="paint101_linear" x1="444.984" y1="248.526" x2="445.062" y2="254.603" gradientUnits="userSpaceOnUse">
<stop stop-color="#09005D"/>
<stop offset="1" stop-color="#1A0F91"/>
</linearGradient>
<linearGradient id="paint102_linear" x1="448.994" y1="263.284" x2="337.399" y2="233.282" gradientUnits="userSpaceOnUse">
<stop stop-color="#09005D"/>
<stop offset="1" stop-color="#1A0F91"/>
</linearGradient>
<linearGradient id="paint103_linear" x1="406.672" y1="249.002" x2="406.749" y2="255.08" gradientUnits="userSpaceOnUse">
<stop stop-color="#09005D"/>
<stop offset="1" stop-color="#1A0F91"/>
</linearGradient>
<linearGradient id="paint104_linear" x1="437.099" y1="232.512" x2="388.349" y2="219.406" gradientUnits="userSpaceOnUse">
<stop stop-color="#09005D"/>
<stop offset="1" stop-color="#1A0F91"/>
</linearGradient>
<linearGradient id="paint105_linear" x1="432.309" y1="237.633" x2="383.559" y2="224.527" gradientUnits="userSpaceOnUse">
<stop stop-color="#09005D"/>
<stop offset="1" stop-color="#1A0F91"/>
</linearGradient>
<linearGradient id="paint106_linear" x1="442.31" y1="237.59" x2="393.558" y2="224.483" gradientUnits="userSpaceOnUse">
<stop stop-color="#09005D"/>
<stop offset="1" stop-color="#1A0F91"/>
</linearGradient>
<linearGradient id="paint107_linear" x1="442.372" y1="242.48" x2="393.62" y2="229.373" gradientUnits="userSpaceOnUse">
<stop stop-color="#09005D"/>
<stop offset="1" stop-color="#1A0F91"/>
</linearGradient>
<linearGradient id="paint108_linear" x1="437.291" y1="247.604" x2="388.54" y2="234.498" gradientUnits="userSpaceOnUse">
<stop stop-color="#09005D"/>
<stop offset="1" stop-color="#1A0F91"/>
</linearGradient>
<linearGradient id="paint109_linear" x1="432.496" y1="252.33" x2="383.745" y2="239.224" gradientUnits="userSpaceOnUse">
<stop stop-color="#09005D"/>
<stop offset="1" stop-color="#1A0F91"/>
</linearGradient>
<linearGradient id="paint110_linear" x1="427.525" y1="252.394" x2="378.774" y2="239.288" gradientUnits="userSpaceOnUse">
<stop stop-color="#09005D"/>
<stop offset="1" stop-color="#1A0F91"/>
</linearGradient>
<linearGradient id="paint111_linear" x1="442.413" y1="252.51" x2="393.662" y2="239.404" gradientUnits="userSpaceOnUse">
<stop stop-color="#09005D"/>
<stop offset="1" stop-color="#1A0F91"/>
</linearGradient>
<linearGradient id="paint112_linear" x1="437.036" y1="227.481" x2="388.285" y2="214.374" gradientUnits="userSpaceOnUse">
<stop stop-color="#09005D"/>
<stop offset="1" stop-color="#1A0F91"/>
</linearGradient>
<linearGradient id="paint113_linear" x1="442.029" y1="222.42" x2="393.279" y2="209.313" gradientUnits="userSpaceOnUse">
<stop stop-color="#09005D"/>
<stop offset="1" stop-color="#1A0F91"/>
</linearGradient>
<linearGradient id="paint114_linear" x1="441.816" y1="212.392" x2="393.065" y2="199.286" gradientUnits="userSpaceOnUse">
<stop stop-color="#09005D"/>
<stop offset="1" stop-color="#1A0F91"/>
</linearGradient>
<linearGradient id="paint115_linear" x1="437.415" y1="257.327" x2="388.664" y2="244.22" gradientUnits="userSpaceOnUse">
<stop stop-color="#09005D"/>
<stop offset="1" stop-color="#1A0F91"/>
</linearGradient>
<linearGradient id="paint116_linear" x1="427.588" y1="257.366" x2="378.837" y2="244.259" gradientUnits="userSpaceOnUse">
<stop stop-color="#09005D"/>
<stop offset="1" stop-color="#1A0F91"/>
</linearGradient>
<linearGradient id="paint117_linear" x1="447.233" y1="227.349" x2="398.483" y2="214.243" gradientUnits="userSpaceOnUse">
<stop stop-color="#09005D"/>
<stop offset="1" stop-color="#1A0F91"/>
</linearGradient>
<linearGradient id="paint118_linear" x1="452.189" y1="227.288" x2="403.437" y2="214.18" gradientUnits="userSpaceOnUse">
<stop stop-color="#09005D"/>
<stop offset="1" stop-color="#1A0F91"/>
</linearGradient>
<linearGradient id="paint119_linear" x1="456.995" y1="227.201" x2="408.245" y2="214.095" gradientUnits="userSpaceOnUse">
<stop stop-color="#09005D"/>
<stop offset="1" stop-color="#1A0F91"/>
</linearGradient>
<linearGradient id="paint120_linear" x1="457.058" y1="232.172" x2="408.307" y2="219.066" gradientUnits="userSpaceOnUse">
<stop stop-color="#09005D"/>
<stop offset="1" stop-color="#1A0F91"/>
</linearGradient>
<linearGradient id="paint121_linear" x1="452.317" y1="237.378" x2="403.567" y2="224.271" gradientUnits="userSpaceOnUse">
<stop stop-color="#09005D"/>
<stop offset="1" stop-color="#1A0F91"/>
</linearGradient>
<linearGradient id="paint122_linear" x1="447.343" y1="242.417" x2="398.592" y2="229.311" gradientUnits="userSpaceOnUse">
<stop stop-color="#09005D"/>
<stop offset="1" stop-color="#1A0F91"/>
</linearGradient>
<linearGradient id="paint123_linear" x1="457.438" y1="242.288" x2="408.687" y2="229.181" gradientUnits="userSpaceOnUse">
<stop stop-color="#09005D"/>
<stop offset="1" stop-color="#1A0F91"/>
</linearGradient>
<linearGradient id="paint124_linear" x1="432.181" y1="227.541" x2="383.43" y2="214.435" gradientUnits="userSpaceOnUse">
<stop stop-color="#09005D"/>
<stop offset="1" stop-color="#1A0F91"/>
</linearGradient>
<linearGradient id="paint125_linear" x1="427.1" y1="232.639" x2="378.349" y2="219.533" gradientUnits="userSpaceOnUse">
<stop stop-color="#09005D"/>
<stop offset="1" stop-color="#1A0F91"/>
</linearGradient>
<linearGradient id="paint126_linear" x1="427.058" y1="222.525" x2="378.308" y2="209.418" gradientUnits="userSpaceOnUse">
<stop stop-color="#09005D"/>
<stop offset="1" stop-color="#1A0F91"/>
</linearGradient>
<linearGradient id="paint127_linear" x1="436.908" y1="217.387" x2="388.157" y2="204.28" gradientUnits="userSpaceOnUse">
<stop stop-color="#09005D"/>
<stop offset="1" stop-color="#1A0F91"/>
</linearGradient>
<linearGradient id="paint128_linear" x1="436.845" y1="212.45" x2="388.094" y2="199.343" gradientUnits="userSpaceOnUse">
<stop stop-color="#09005D"/>
<stop offset="1" stop-color="#1A0F91"/>
</linearGradient>
<linearGradient id="paint129_linear" x1="422.159" y1="232.702" x2="373.408" y2="219.596" gradientUnits="userSpaceOnUse">
<stop stop-color="#09005D"/>
<stop offset="1" stop-color="#1A0F91"/>
</linearGradient>
<linearGradient id="paint130_linear" x1="417.226" y1="232.766" x2="368.475" y2="219.659" gradientUnits="userSpaceOnUse">
<stop stop-color="#09005D"/>
<stop offset="1" stop-color="#1A0F91"/>
</linearGradient>
<linearGradient id="paint131_linear" x1="417.289" y1="237.739" x2="368.538" y2="224.632" gradientUnits="userSpaceOnUse">
<stop stop-color="#09005D"/>
<stop offset="1" stop-color="#1A0F91"/>
</linearGradient>
<linearGradient id="paint132_linear" x1="426.995" y1="217.527" x2="378.245" y2="204.421" gradientUnits="userSpaceOnUse">
<stop stop-color="#09005D"/>
<stop offset="1" stop-color="#1A0F91"/>
</linearGradient>
<linearGradient id="paint133_linear" x1="422.054" y1="217.588" x2="373.303" y2="204.482" gradientUnits="userSpaceOnUse">
<stop stop-color="#09005D"/>
<stop offset="1" stop-color="#1A0F91"/>
</linearGradient>
<linearGradient id="paint134_linear" x1="417.181" y1="222.65" x2="368.43" y2="209.543" gradientUnits="userSpaceOnUse">
<stop stop-color="#09005D"/>
<stop offset="1" stop-color="#1A0F91"/>
</linearGradient>
<linearGradient id="paint135_linear" x1="412.077" y1="227.796" x2="363.326" y2="214.689" gradientUnits="userSpaceOnUse">
<stop stop-color="#09005D"/>
<stop offset="1" stop-color="#1A0F91"/>
</linearGradient>
<linearGradient id="paint136_linear" x1="412.267" y1="242.779" x2="363.517" y2="229.673" gradientUnits="userSpaceOnUse">
<stop stop-color="#09005D"/>
<stop offset="1" stop-color="#1A0F91"/>
</linearGradient>
<linearGradient id="paint137_linear" x1="416.969" y1="212.536" x2="368.218" y2="199.429" gradientUnits="userSpaceOnUse">
<stop stop-color="#09005D"/>
<stop offset="1" stop-color="#1A0F91"/>
</linearGradient>
<linearGradient id="paint138_linear" x1="422.285" y1="242.65" x2="373.534" y2="229.544" gradientUnits="userSpaceOnUse">
<stop stop-color="#09005D"/>
<stop offset="1" stop-color="#1A0F91"/>
</linearGradient>
<linearGradient id="paint139_linear" x1="428.551" y1="273.202" x2="376.947" y2="373.958" gradientUnits="userSpaceOnUse">
<stop stop-color="#FE7062"/>
<stop offset="1" stop-color="#FF928E"/>
</linearGradient>
<linearGradient id="paint140_linear" x1="451.475" y1="281.296" x2="468.875" y2="281.296" gradientUnits="userSpaceOnUse">
<stop stop-color="#DAE3FE"/>
<stop offset="1" stop-color="#E9EFFD"/>
</linearGradient>
<linearGradient id="paint141_linear" x1="377.151" y1="245.625" x2="474.952" y2="245.625" gradientUnits="userSpaceOnUse">
<stop stop-color="#DAE3FE"/>
<stop offset="1" stop-color="#E9EFFD"/>
</linearGradient>
</defs>
</svg>
