<svg width="739" height="804" viewBox="0 0 739 804" fill="none" xmlns="http://www.w3.org/2000/svg">
<g opacity="0.25">
<g opacity="0.25">
<path opacity="0.25" d="M630.6 511.702C604.1 546.802 543.9 594.002 461 628.902C447.1 634.802 432.6 640.302 417.5 645.302C416.1 645.802 414.7 646.202 413.3 646.702C392 653.702 370.8 659.802 350.5 664.602C332.7 668.802 315.6 672.002 299.5 674.102C298.6 674.202 297.8 674.302 296.9 674.402C291.2 675.102 285.6 675.602 280.2 676.002C155.5 685.002 85.0001 654.302 102.2 584.602C119.4 514.902 5.50009 559.402 9.35495e-05 459.202C-1.29991 435.902 6.50009 414.902 20.2001 395.902C26.1001 387.802 33.0001 380.102 40.8001 372.702C85.5001 330.602 158.2 300.502 215.4 280.402C215.5 280.402 215.6 280.302 215.7 280.302C216.9 279.902 218.1 279.402 219.4 279.002C228.4 275.902 236.9 273.002 244.9 270.302C245.3 270.202 245.7 270.002 246.1 269.902C254.3 267.202 262.6 264.902 271 262.902C313 252.702 357.6 250.202 398.3 253.102C405.3 253.602 412.2 254.202 418.9 255.102C421 255.302 423 255.602 425.1 255.902C435.5 257.302 445.5 259.102 455 261.102C464.6 263.202 473.7 265.602 482.1 268.202C485.3 269.202 488.4 270.302 491.4 271.302C493.4 272.002 495.4 272.802 497.3 273.502C531.2 286.902 550.7 305.202 544.4 324.402C526.8 377.702 556.5 375.102 615.1 390.702C673.8 406.402 668.6 461.302 630.6 511.702Z" fill="#A6BDFF"/>
</g>
</g>
<path d="M585.6 517.801C572.4 535.901 584.4 557.201 557.5 573.201C530.6 589.301 514.1 576.401 490.8 598.501C480.7 608.101 477.9 617.201 473.6 624.801C457.5 631.601 440.7 638.001 423.2 643.801C421.6 644.301 420 644.901 418.4 645.401C377 643.701 381.1 605.701 381.1 605.701C381.1 605.701 381 587.201 401.2 565.501C413.6 552.101 443.7 557.101 452.6 540.201C461.5 523.301 461.9 505.701 479.1 496.001C496.4 486.401 513.6 502.001 539.3 477.101C565 452.201 580.3 450.101 593.5 459.201C606.9 468.401 598.8 499.701 585.6 517.801Z" fill="#43AF66"/>
<path d="M409 612.502C408.9 612.502 408.8 612.502 408.7 612.402C408.3 612.202 408.1 611.802 408.2 611.402C411 604.302 418 594.902 449.2 579.502C461.3 573.502 469.1 563.502 477.3 552.902C488.2 538.902 499.4 524.402 521.6 518.402C559.4 508.202 586.7 459.002 587 458.502C587.2 458.102 587.7 458.002 588.1 458.202C588.5 458.402 588.6 458.902 588.4 459.302C588.1 459.802 560.5 509.502 522 519.902C500.3 525.802 489.2 540.002 478.5 553.802C470.1 564.602 462.3 574.702 449.8 580.802C419.1 595.902 412.3 605.002 409.6 611.802C409.7 612.302 409.4 612.502 409 612.502Z" fill="white"/>
<path d="M265.1 672.302L265.4 670.602C196.6 660.002 148.6 663.902 148.2 663.902L148.3 665.602C148.8 665.602 196.6 661.702 265.1 672.302Z" fill="#FFB73F"/>
<path d="M133.9 666.403C137.2 663.103 146.3 659.003 151.4 661.303C158.1 664.303 154.3 668.503 144.6 668.603C132 668.803 129.5 670.603 133.9 666.403Z" fill="#FFB73F"/>
<path d="M154.3 677.501C155.3 672.901 160.6 664.501 166.1 663.601C173.3 662.401 172.5 668.001 164.4 673.501C154.1 680.501 153 683.401 154.3 677.501Z" fill="#FFB73F"/>
<path d="M163.8 648.802C164.3 653.402 168.7 662.302 174.1 663.802C181.2 665.702 180.9 660.102 173.4 653.802C163.9 645.702 163.1 642.802 163.8 648.802Z" fill="#FFB73F"/>
<path d="M186.3 646.602C185.8 651.202 188.1 660.902 193.1 663.502C199.6 666.902 200.5 661.402 194.6 653.602C187 643.602 186.9 640.602 186.3 646.602Z" fill="#FFB73F"/>
<path d="M201.2 647.702C200.7 652.302 203 662.002 208 664.602C214.5 668.002 215.4 662.502 209.5 654.702C202 644.702 201.9 641.702 201.2 647.702Z" fill="#FFB73F"/>
<path d="M221.4 649.102C220.9 653.702 223.2 663.402 228.2 666.002C234.7 669.402 235.6 663.902 229.7 656.102C222.1 646.102 222 643.102 221.4 649.102Z" fill="#FFB73F"/>
<path d="M173.9 678.603C174.7 674.003 179.5 665.303 185 664.203C192.2 662.703 191.6 668.203 183.8 674.103C173.8 681.703 172.9 684.603 173.9 678.603Z" fill="#FFB73F"/>
<path d="M190.9 679.203C191.7 674.603 196.5 665.903 202 664.803C209.2 663.303 208.6 668.803 200.8 674.703C190.8 682.203 189.9 685.203 190.9 679.203Z" fill="#FFB73F"/>
<path d="M210.2 684.301C209.4 679.701 210.9 669.901 215.7 667.001C221.9 663.101 223.3 668.601 218 676.701C211.1 687.201 211.2 690.301 210.2 684.301Z" fill="#FFB73F"/>
<path d="M234.1 686.301C233.3 681.701 234.8 671.901 239.6 669.001C245.8 665.101 247.2 670.601 241.9 678.701C235 689.101 235.2 692.201 234.1 686.301Z" fill="#FFB73F"/>
<path d="M399.9 581.803L398.5 580.703C442.3 524.103 480.8 493.103 481.2 492.803L482.3 494.203C481.9 494.503 443.5 525.403 399.9 581.803Z" fill="#FFB73F"/>
<path d="M493.5 484.502C488.7 484.402 479 487.702 476.9 493.102C474.1 500.102 479.8 500.502 487.2 493.702C496.6 485.002 499.8 484.602 493.5 484.502Z" fill="#FFB73F"/>
<path d="M486.2 507.203C482.2 504.503 472.3 502.003 467.6 505.203C461.4 509.403 465.9 513.003 475.8 511.403C488.5 509.303 491.3 510.703 486.2 507.203Z" fill="#FFB73F"/>
<path d="M458.8 492.602C461.7 496.402 464.7 506.202 461.7 511.102C457.8 517.502 454 513.102 455.1 503.202C456.6 490.402 455.1 487.602 458.8 492.602Z" fill="#FFB73F"/>
<path d="M440.4 506.902C444 510.002 449.2 518.902 447.3 524.302C444.9 531.402 440.3 528.002 439.2 518.002C437.8 505.202 435.7 502.802 440.4 506.902Z" fill="#FFB73F"/>
<path d="M430.1 518.303C433.7 521.403 438.9 530.303 437 535.703C434.6 542.803 430 539.403 428.9 529.403C427.5 516.603 425.4 514.203 430.1 518.303Z" fill="#FFB73F"/>
<path d="M416.1 533.503C419.7 536.603 424.9 545.503 423 550.903C420.6 558.003 416 554.603 414.9 544.603C413.4 531.903 411.4 529.503 416.1 533.503Z" fill="#FFB73F"/>
<path d="M472.4 521.903C468.6 519.003 458.8 516.003 453.9 519.003C447.5 522.903 451.8 526.703 461.8 525.603C474.6 524.103 477.4 525.703 472.4 521.903Z" fill="#FFB73F"/>
<path d="M460.1 534.403C456.3 531.503 446.5 528.503 441.6 531.503C435.2 535.403 439.5 539.203 449.5 538.103C462.3 536.603 465.1 538.203 460.1 534.403Z" fill="#FFB73F"/>
<path d="M449.4 551.902C446.8 547.902 438.7 541.702 433 542.902C425.6 544.402 428.5 549.401 438.2 551.801C450.7 554.701 452.8 557.102 449.4 551.902Z" fill="#FFB73F"/>
<path d="M432.9 570.302C430.3 566.302 422.2 560.102 416.5 561.302C409.1 562.802 412 567.802 421.7 570.202C434.2 573.102 436.3 575.502 432.9 570.302Z" fill="#FFB73F"/>
<path d="M231.9 461.202L233.6 460.502C206.4 391.802 177.1 350.002 176.8 349.602L175.3 350.602C175.6 351.102 204.8 392.702 231.9 461.202Z" fill="#43AF66"/>
<path d="M166.9 337.902C171.7 339.202 180.3 345.202 180.9 351.202C181.7 358.902 175.9 357.702 170.6 348.902C163.7 337.402 160.7 336.102 166.9 337.902Z" fill="#43AF66"/>
<path d="M167.7 362.503C172.4 361.003 182.9 361.303 186.7 365.903C191.6 371.903 186.1 374.103 176.8 369.603C164.8 363.903 161.6 364.503 167.7 362.503Z" fill="#43AF66"/>
<path d="M199.1 355.801C195.2 358.801 189.3 367.601 190.9 373.301C193 380.801 197.9 377.501 199.7 367.301C201.9 354.201 204.2 351.901 199.1 355.801Z" fill="#43AF66"/>
<path d="M213.2 375.202C208.7 377.202 201.1 384.502 201.4 390.502C201.8 398.202 207.3 396.202 211.3 386.602C216.3 374.302 219 372.602 213.2 375.202Z" fill="#43AF66"/>
<path d="M220.1 389.502C215.6 391.502 208 398.802 208.3 404.802C208.7 412.502 214.2 410.502 218.2 400.902C223.2 388.602 226 386.802 220.1 389.502Z" fill="#43AF66"/>
<path d="M229.6 408.703C225.1 410.703 217.5 418.003 217.8 424.003C218.2 431.703 223.7 429.703 227.7 420.103C232.7 407.703 235.5 406.003 229.6 408.703Z" fill="#43AF66"/>
<path d="M177.2 381.001C181.8 379.201 192.4 379.001 196.4 383.401C201.6 389.101 196.2 391.601 186.7 387.601C174.3 382.601 171.2 383.301 177.2 381.001Z" fill="#43AF66"/>
<path d="M185.7 396.902C190.3 395.102 200.9 394.902 204.9 399.302C210.1 405.002 204.7 407.502 195.2 403.502C182.9 398.502 179.7 399.202 185.7 396.902Z" fill="#43AF66"/>
<path d="M191.4 417.301C195.1 414.101 205 410.301 210.2 413.001C217.1 416.601 212.8 420.801 202.5 420.301C189.3 419.701 186.6 421.501 191.4 417.301Z" fill="#43AF66"/>
<path d="M202.5 440.201C206.2 437.001 216.1 433.201 221.3 435.901C228.2 439.501 223.9 443.701 213.6 443.201C200.3 442.701 197.6 444.401 202.5 440.201Z" fill="#43AF66"/>
<path d="M104.1 328.102C73.5002 326.202 81.7002 370.702 102.4 390.302C123.1 409.902 113.3 432.702 139.2 459.902C165.2 487.102 191.8 479.002 199 503.602C206.2 528.302 218.7 564.002 241.5 579.402C264.3 594.802 288.5 594.202 288.5 594.202L332.3 561.902C332.3 561.902 272.5 527.002 267.1 507.802C261.7 488.602 251.7 440.302 210.8 429.602C169.9 419.002 172 385.302 157.6 366.902C143.3 348.502 119.4 329.002 104.1 328.102Z" fill="#99D0EE"/>
<path d="M263.7 496.201C263.5 496.201 263.4 496.101 263.3 496.001C242 470.601 215.4 451.101 198.7 448.601C198.5 448.601 198.3 448.501 198.1 448.501C180.2 445.501 150.3 423.101 141.8 389.601C133.2 355.701 94.3002 333.201 93.9002 333.001C93.6002 332.801 93.5002 332.401 93.6002 332.101C93.8002 331.801 94.2002 331.701 94.5002 331.801C94.9002 332.001 134.4 354.901 143.1 389.301C151.5 422.601 181.3 444.701 198.8 447.201C199 447.201 199.2 447.301 199.4 447.301C216.5 450.201 243.1 469.701 264.3 495.101C264.5 495.401 264.5 495.801 264.2 496.101C264.1 496.201 263.9 496.201 263.7 496.201Z" fill="white"/>
<path d="M468.5 217.702C484.1 217.502 506.2 217.702 506.2 217.702L492.9 269.602L478.5 291.102L503.5 304.002L436 357.902C436 357.902 415.4 258.802 417.5 256.502C419.5 254.202 468.5 217.702 468.5 217.702Z" fill="#DEA4A4"/>
<path d="M438.5 495.902C436.2 496.902 434.2 498.602 432.6 500.702C416.4 522.202 429.6 596.202 417.5 645.302C375.2 659.502 333.1 669.902 296.9 674.402C293.3 669.602 290.1 657.302 287.3 641.902C280.2 602.602 275.5 542.602 271.8 530.302C270.1 524.802 266.7 517.002 262.8 508.902C257.8 498.602 252 487.702 247.7 479.902C244.9 474.902 242.8 471.102 242 469.702C242 469.702 242 469.702 242 469.602C241.8 469.202 241.7 469.002 241.7 469.002C242.3 469.002 247.8 469.402 256.8 470.002C260.9 470.302 265.7 470.602 271.1 471.002C279.9 471.602 290.3 472.402 301.4 473.202C308.9 473.802 316.8 474.402 324.8 475.102C386.2 480.302 456.2 488.202 438.5 495.902Z" fill="#F0BEBE"/>
<path d="M302.8 479.002C302.8 479.002 306.5 556.402 258.1 494.702C209.6 433.102 231.3 369.502 224.5 327.002C217.7 284.502 208.1 253.402 216.1 249.002C218.1 247.902 220 247.302 221.9 247.002C249.1 243.602 263 326.302 272.9 359.802C274.9 366.502 277.1 374.802 279.5 384.002C290 423.802 302.8 479.002 302.8 479.002Z" fill="#F0BEBE"/>
<path d="M322.1 495.901C322.1 495.901 334 507.901 341.4 543.001C341.4 543.001 340.8 507.901 331.8 487.501C322.7 467.201 322.1 495.901 322.1 495.901Z" fill="#DEA4A4"/>
<path d="M391.7 245.701C391.3 242.301 434.9 136.801 449.3 127.401C463.7 118.001 508.4 111.701 406.6 325.001L391.7 245.701Z" fill="#F0BEBE"/>
<g opacity="0.72">
<path opacity="0.72" d="M217.3 287.702C217.3 287.702 223.7 277.302 216.1 249.002C216.1 249.002 206.8 245.202 217.3 287.702Z" fill="#F5DFDF"/>
</g>
<path d="M482.4 141.101V476.201C482.4 489.801 471.4 500.801 457.8 500.801H295.8C282.2 500.801 271.2 489.801 271.2 476.201V141.101C271.2 127.501 282.2 116.501 295.8 116.501H457.7C471.3 116.401 482.4 127.401 482.4 141.101Z" fill="#394E85"/>
<path d="M280.8 467.802V149.302C280.8 136.502 291.2 126.102 304 126.102H449.4C462.2 126.102 472.6 136.502 472.6 149.302V467.802C472.6 480.602 462.2 491.002 449.4 491.002H304.1C291.2 491.102 280.8 480.702 280.8 467.802Z" fill="white"/>
<path d="M434.8 357.502H318.6C315.4 357.502 312.9 354.902 312.9 351.802C312.9 348.602 315.5 346.102 318.6 346.102H434.9C438.1 346.102 440.6 348.702 440.6 351.802C440.5 355.002 438 357.502 434.8 357.502Z" fill="#5EE188"/>
<path d="M434.8 334.101H318.6C315.4 334.101 312.9 331.501 312.9 328.401C312.9 325.201 315.5 322.701 318.6 322.701H434.9C438.1 322.701 440.6 325.301 440.6 328.401C440.5 331.501 438 334.101 434.8 334.101Z" fill="#5EE188"/>
<path d="M429.3 302.8H332.7C324.2 302.8 317.3 295.9 317.3 287.4V190.8C317.3 182.3 324.2 175.4 332.7 175.4H429.3C437.8 175.4 444.7 182.3 444.7 190.8V287.4C444.7 295.9 437.8 302.8 429.3 302.8Z" fill="#5EE188"/>
<path d="M411.4 432.401H342.1C325.9 432.401 312.8 419.301 312.8 403.101C312.8 386.901 325.9 373.801 342.1 373.801H411.4C427.6 373.801 440.7 386.901 440.7 403.101C440.7 419.301 427.6 432.401 411.4 432.401Z" fill="#5EE188"/>
<path d="M353.5 405.4V413.6H351V392H356.9C359.2 392 361 392.6 362.3 393.7C363.6 394.8 364.2 396.4 364.2 398.5C364.2 400.6 363.5 402.2 362.1 403.5C360.7 404.8 358.8 405.5 356.4 405.5H353.5V405.4ZM353.5 394.2V403.1H356.2C358 403.1 359.3 402.7 360.2 401.9C361.1 401.1 361.6 400 361.6 398.5C361.6 395.6 359.9 394.2 356.5 394.2H353.5Z" fill="white"/>
<path d="M386.6 413.6H383.8L381.5 407.5H372.3L370.1 413.6H367.3L375.6 391.9H378.2L386.6 413.6ZM380.7 405.3L377.3 396.1C377.2 395.8 377.1 395.3 377 394.7H376.9C376.8 395.3 376.7 395.8 376.6 396.1L373.2 405.3H380.7Z" fill="white"/>
<path d="M405.4 392L398.3 405.6V413.6H395.8V405.7L388.8 392H391.7L396.5 401.8C396.6 401.9 396.7 402.4 397 403.1C397.1 402.8 397.3 402.3 397.6 401.8L402.7 392H405.4Z" fill="white"/>
<path d="M487.8 387.801C463.4 405.501 440.3 422.301 433.6 411.401C432.2 409.201 431.6 406.801 431.6 404.301C431.6 392.101 446.7 376.701 466.1 362.101C483.5 349.101 494 340.201 502.9 341.501C506 342.001 508.8 343.601 511.7 346.801C518.1 353.801 513.3 369.401 487.8 387.801Z" fill="#F0BEBE"/>
<path d="M502.9 341.502C495.5 349.902 489.1 354.102 481 361.502C466.7 374.702 456.7 382.202 443 394.502C438.2 398.802 434.6 402.002 431.7 404.302C431.7 392.102 446.8 376.702 466.2 362.102C483.5 349.102 494 340.302 502.9 341.502Z" fill="#DEA4A4"/>
<path d="M504.6 304.802C511.4 310.202 515.5 319.002 505 333.002C495.4 345.802 488 350.002 478.3 359.002C464 372.202 454 379.702 440.3 392.002C425.9 404.902 421.9 408.502 415.5 402.302C403.7 390.802 423.7 364.102 448.5 340.402C476.2 314.002 487.9 291.502 504.6 304.802Z" fill="#F0BEBE"/>
<g opacity="0.72">
<g opacity="0.72">
<g opacity="0.72">
<path opacity="0.72" d="M434.8 385.601C431.5 381.701 425.6 383.401 419.1 390.401C412.5 397.501 414.4 401.501 418.1 404.401C423.7 408.801 442.2 394.501 434.8 385.601Z" fill="#F5DFDF"/>
</g>
</g>
</g>
<g opacity="0.72">
<g opacity="0.72">
<g opacity="0.72">
<path opacity="0.72" d="M453.4 402.401C456.5 406.301 450 414.001 440.5 414.901C436.5 415.301 434.6 408.601 440.3 405.201C446 401.801 450.4 398.701 453.4 402.401Z" fill="#F5DFDF"/>
</g>
</g>
</g>
<g opacity="0.25">
<g opacity="0.25">
<path opacity="0.25" d="M578.6 336.402C579.7 358.202 620.7 363.302 643.3 359.802C672.8 355.302 670.7 302.002 637 296.802C603.4 291.702 577.8 319.002 578.6 336.402Z" fill="#A6BDFF"/>
</g>
</g>
<path d="M318.1 671.201C305 674.301 289.7 675.901 277.8 677.501C275.7 677.501 273.6 677.501 271.4 677.501C234.4 678.801 220.2 673.901 227.3 660.801C234.4 647.701 228.2 649.901 202.8 647.601C177.4 645.401 147.6 634.701 147.6 620.401C147.6 602.501 171.2 607.101 170.8 591.501C170.4 575.901 153.4 570.901 132.5 572.201C111.6 573.401 89.7002 563.801 94.2002 550.501C98.7002 537.101 114.8 538.601 117.5 529.701C120.2 520.801 110.3 515.401 98.7002 506.901C87.1002 498.401 79.9002 486.801 86.2002 476.001C91.5002 466.901 122.7 482.001 161.5 506.901C200.2 531.801 180.2 509.201 208.7 510.401C237.2 511.601 258.6 580.501 265.7 575.201C272.8 570.001 286.6 556.201 299.8 593.101C316 639.001 322.2 661.301 318.1 671.201Z" fill="#A6BDFF"/>
<path d="M738.5 729.301C738 741.801 737.6 782.201 708.6 798.401C679.6 814.601 653.8 786.801 649.5 777.601C645.2 768.301 624.1 741.501 624.1 741.501C614.2 729.301 597.6 724.701 569.9 722.601C542.2 720.501 515.7 700.101 497.3 681.701C478.9 663.401 453.7 648.501 438.5 643.201C429.5 640.101 422.1 637.501 419 632.701C417.1 629.701 416.7 625.901 418.6 620.501C418.8 619.901 419 619.301 419.3 618.701C421.2 614.001 434.2 610.201 451.4 614.701C468.6 619.201 482 630.901 506.5 636.101C531 641.201 526 634.601 517.2 618.701C508.4 602.701 463 539.701 456.9 532.301C450.8 524.801 441 517.301 422.3 505.201C403.7 493.101 388.5 469.501 390.5 459.601C390.9 457.401 391.9 455.701 393 454.501C395.7 451.801 399.6 451.401 401.6 451.401C402.5 451.401 403 451.501 403 451.501C400 447.001 399.3 441.701 400.5 437.701C400.9 436.501 401.4 435.301 402.1 434.401C403.9 431.901 406.9 430.701 410.7 432.001C413.5 433.001 417.2 434.401 421 435.901C425.1 437.601 429.4 439.301 433 440.801C437.5 442.701 440.7 444.101 440.7 444.101C442.9 444.001 445.4 444.101 448 444.301C469.6 446.201 505.1 458.001 519.4 463.001C520.9 463.501 522.2 464.001 523.1 464.301C524.7 464.901 525.6 465.201 525.6 465.201C528 465.101 530.4 465.101 532.7 465.301C554.9 466.901 572.4 480.401 578.2 485.301C579.5 486.401 580.2 487.101 580.2 487.101C580.2 487.101 582.2 488.001 585.4 489.801C591.8 493.501 603.2 500.801 612.9 511.301C627.4 527.001 658.8 558.201 678.6 603.301C698.5 648.501 738.9 716.901 738.5 729.301Z" fill="#F5CBCB"/>
<path d="M521.9 551.502C520.6 551.202 472.7 501.702 470.2 498.102C467.7 494.502 431.7 477.802 403 451.402C400 446.902 399.3 441.602 400.5 437.602C400.6 438.102 402 449.502 423.8 463.602C446.1 478.102 463.9 487.702 471.5 494.002C479 500.302 523.2 551.802 521.9 551.502Z" fill="#E6B3B3"/>
<path d="M551.9 529.201C551.3 530.801 540.6 518.201 529.9 506.901C519.1 495.601 507.5 479.501 490.8 471.001C474.4 462.701 434.2 441.401 433 440.801C437.5 442.701 440.7 444.101 440.7 444.101C442.9 444.001 445.4 444.101 448 444.301C464.1 453.201 502.2 471.401 504.5 473.401C507.5 475.901 552.4 527.601 551.9 529.201Z" fill="#E6B3B3"/>
<path d="M578.5 516.7C578.8 518.7 563.3 501.1 545.9 482.6C535.1 471.1 527.5 466.3 523.3 464.4C524.9 465 525.8 465.3 525.8 465.3C528.2 465.2 530.6 465.2 532.9 465.4C545.4 476.1 578.2 514.9 578.5 516.7Z" fill="#E6B3B3"/>
<path d="M596.4 505.1C595.6 504.4 578.9 486 578.4 485.4C579.7 486.5 580.4 487.2 580.4 487.2C580.4 487.2 582.4 488.1 585.6 489.9C590.4 496.5 596.9 505.5 596.4 505.1Z" fill="#E6B3B3"/>
<path d="M407.1 470.801C402.9 472.101 388 461.401 392.9 454.401C395.6 451.701 399.5 451.301 401.5 451.301C417.6 464.601 411.3 469.401 407.1 470.801Z" fill="#F5DFDF"/>
<path d="M417.5 446.901C414.2 448.001 404.8 441.001 402.1 434.401C403.9 431.901 406.9 430.701 410.7 432.001C413.5 433.001 417.2 434.401 421 435.901C425.1 442.001 420.6 445.901 417.5 446.901Z" fill="#F5DFDF"/>
<path d="M440.5 629.001C440.9 636.201 438.3 643.601 422.9 635.301C421.3 634.401 420 633.601 418.9 632.701C417 629.701 416.6 625.901 418.5 620.501C419.8 619.501 421.2 618.801 422.2 618.601C427.7 617.101 440.1 621.801 440.5 629.001Z" fill="#F5DFDF"/>
<path d="M342 76.4004V181.9C342 187.5 337.5 192 331.9 192H116.1C110.5 192 106 187.5 106 181.9V76.4004C106 70.8004 110.5 66.3004 116.1 66.3004H331.9C337.5 66.2004 342 70.8004 342 76.4004Z" fill="#FFB73F"/>
<path d="M342 145.4H105.9V177.3H342V145.4Z" fill="#394E85"/>
<path d="M316.2 136.9H131.8C129 136.9 126.6 134.6 126.6 131.7C126.6 128.9 128.9 126.5 131.8 126.5H316.3C319.1 126.5 321.5 128.8 321.5 131.7C321.4 134.6 319 136.9 316.2 136.9Z" fill="#FFCE7D"/>
<path d="M316.2 115.4H201.3C198.5 115.4 196.1 113.1 196.1 110.2C196.1 107.4 198.4 105 201.3 105H316.2C319 105 321.4 107.3 321.4 110.2C321.4 113.1 319 115.4 316.2 115.4Z" fill="#FFCE7D"/>
<path d="M316.2 94.7008H201.3C198.5 94.7008 196.1 92.4008 196.1 89.5008C196.1 86.7008 198.4 84.3008 201.3 84.3008H316.2C319 84.3008 321.4 86.6008 321.4 89.5008C321.4 92.4008 319 94.7008 316.2 94.7008Z" fill="#FFCE7D"/>
<path d="M141.4 115.4H171.3C178.6 115.4 184.6 109.5 184.6 102.1V97.7004C184.6 90.4004 178.7 84.4004 171.3 84.4004H141.4C134.1 84.4004 128.1 90.3004 128.1 97.7004V102.1C128.1 109.4 134 115.4 141.4 115.4Z" fill="#FFCE7D"/>
<g opacity="0.15">
<path opacity="0.15" d="M196.6 145.4L173.5 177.3H159.7L182.8 145.4H196.6Z" fill="white"/>
</g>
<g opacity="0.15">
<path opacity="0.15" d="M323.8 145.4L300.6 177.3H286.9L310 145.4H323.8Z" fill="white"/>
</g>
<g opacity="0.15">
<path opacity="0.15" d="M297.7 145.4L274.6 177.3H242.8L265.9 145.4H297.7Z" fill="white"/>
</g>
<path d="M310 677.101C291.5 640.701 243.3 598.301 206.1 569.101C165.8 537.501 129.4 514.201 129 513.901L129.7 512.801C130.1 513.001 166.5 536.401 206.9 568.001C244.2 597.301 292.6 639.801 311.2 676.401L310 677.101Z" fill="white"/>
<path d="M185.9 627.2L185.4 626C185.9 625.8 233 606 265.1 618.6L264.6 619.8C233 607.4 186.3 627 185.9 627.2Z" fill="white"/>
<path d="M224.7 636.801L224.4 635.501C226.1 635.101 266.2 625.201 281.6 635.601L280.9 636.701C265.9 626.701 225.1 636.701 224.7 636.801Z" fill="white"/>
<path d="M218.9 579.301C207.1 557.501 210.5 531.501 210.6 531.201L211.9 531.401C211.9 531.701 208.6 557.201 220.1 578.701L218.9 579.301Z" fill="white"/>
<path d="M33 328.701C36.3137 328.701 39 326.015 39 322.701C39 319.387 36.3137 316.701 33 316.701C29.6863 316.701 27 319.387 27 322.701C27 326.015 29.6863 328.701 33 328.701Z" fill="#A6BDFF"/>
<path d="M562.4 359.5C564.499 359.5 566.2 357.799 566.2 355.7C566.2 353.602 564.499 351.9 562.4 351.9C560.301 351.9 558.6 353.602 558.6 355.7C558.6 357.799 560.301 359.5 562.4 359.5Z" fill="#FFB73F"/>
<path d="M548.2 416.9C549.305 416.9 550.2 416.005 550.2 414.9C550.2 413.796 549.305 412.9 548.2 412.9C547.096 412.9 546.2 413.796 546.2 414.9C546.2 416.005 547.096 416.9 548.2 416.9Z" fill="#A6BDFF"/>
<path d="M66.7002 592.102C67.8048 592.102 68.7002 591.206 68.7002 590.102C68.7002 588.997 67.8048 588.102 66.7002 588.102C65.5956 588.102 64.7002 588.997 64.7002 590.102C64.7002 591.206 65.5956 592.102 66.7002 592.102Z" fill="#5EE188"/>
<path d="M564.5 197.302C582.007 197.302 596.2 183.11 596.2 165.602C596.2 148.095 582.007 133.902 564.5 133.902C546.993 133.902 532.8 148.095 532.8 165.602C532.8 183.11 546.993 197.302 564.5 197.302Z" fill="#FFB73F"/>
<path d="M560.2 193.002C577.707 193.002 591.9 178.809 591.9 161.302C591.9 143.794 577.707 129.602 560.2 129.602C542.693 129.602 528.5 143.794 528.5 161.302C528.5 178.809 542.693 193.002 560.2 193.002Z" fill="#FFCE7D"/>
<path d="M560.2 189.502C544.7 189.502 532 176.902 532 161.302C532 145.802 544.6 133.102 560.2 133.102C575.8 133.102 588.4 145.702 588.4 161.302C588.4 176.902 575.7 189.502 560.2 189.502ZM560.2 134.502C545.4 134.502 533.4 146.502 533.4 161.302C533.4 176.102 545.4 188.102 560.2 188.102C575 188.102 587 176.102 587 161.302C587 146.502 575 134.502 560.2 134.502Z" fill="white"/>
<path d="M561.2 176.502V179.802C561.2 180.402 560.7 180.902 560.1 180.902C559.5 180.902 559 180.402 559 179.802V176.802C559 176.602 558.9 176.502 558.7 176.502C556.2 176.502 554.1 176.002 552.5 175.102C552 174.802 551.7 174.302 551.7 173.702C551.7 172.602 552.9 171.802 553.9 172.302C554.3 172.502 554.7 172.602 555.1 172.802C556.4 173.202 557.6 173.502 558.8 173.502C559 173.502 559.1 173.402 559.1 173.202V162.802C559.1 162.702 559 162.602 558.9 162.502C555.9 161.002 553.9 159.702 553 158.402C552.4 157.602 552 156.602 551.8 155.602C551.2 152.702 552.3 149.702 554.5 147.802C555.7 146.802 557.1 146.202 558.8 145.902C559 145.902 559.1 145.702 559.1 145.602V143.102C559.1 142.502 559.6 142.002 560.2 142.002C560.8 142.002 561.3 142.502 561.3 143.102V145.502C561.3 145.702 561.4 145.802 561.6 145.802C563.5 145.902 565 146.102 566.1 146.502C566.7 146.702 567.1 147.302 567.1 148.002C567.1 149.102 566 149.902 565 149.502C564 149.102 562.9 148.902 561.6 148.802C561.4 148.802 561.3 148.902 561.3 149.102V159.902C561.3 160.002 561.4 160.102 561.5 160.202C564.4 161.602 566.3 162.902 567.4 164.202C568.5 165.502 569 167.002 569 168.702C569 170.702 568.3 172.402 567 173.802C565.7 175.102 563.9 176.002 561.6 176.402C561.3 176.202 561.2 176.302 561.2 176.502ZM559 158.102V149.102C559 148.902 558.8 148.702 558.6 148.802C557.6 149.102 556.8 149.602 556.1 150.302C555.4 151.102 555.1 152.102 555.1 153.302C555.1 154.502 555.4 155.502 556 156.302C556.5 157.002 557.4 157.702 558.6 158.402C558.7 158.502 559 158.402 559 158.102ZM561.2 164.102V172.802C561.2 173.002 561.4 173.202 561.6 173.102C564.1 172.402 565.3 171.002 565.3 168.702C565.3 166.802 564.1 165.202 561.6 163.702C561.5 163.702 561.2 163.802 561.2 164.102Z" fill="white"/>
<path d="M621.3 263.701C634.003 263.701 644.3 253.404 644.3 240.701C644.3 227.999 634.003 217.701 621.3 217.701C608.598 217.701 598.3 227.999 598.3 240.701C598.3 253.404 608.598 263.701 621.3 263.701Z" fill="#FFB73F"/>
<path d="M618.2 260.602C630.903 260.602 641.2 250.304 641.2 237.602C641.2 224.899 630.903 214.602 618.2 214.602C605.498 214.602 595.2 224.899 595.2 237.602C595.2 250.304 605.498 260.602 618.2 260.602Z" fill="#FFCE7D"/>
<path d="M618.2 258.202C606.8 258.202 597.6 249.002 597.6 237.602C597.6 226.202 606.8 217.002 618.2 217.002C629.6 217.002 638.8 226.202 638.8 237.602C638.8 248.902 629.5 258.202 618.2 258.202ZM618.2 218.302C607.6 218.302 598.9 226.902 598.9 237.602C598.9 248.202 607.5 256.902 618.2 256.902C628.8 256.902 637.5 248.302 637.5 237.602C637.5 226.902 628.8 218.302 618.2 218.302Z" fill="white"/>
<path d="M618.9 248.502V250.902C618.9 251.302 618.5 251.702 618.1 251.702C617.7 251.702 617.3 251.302 617.3 250.902V248.702C617.3 248.602 617.2 248.502 617.1 248.502C615.3 248.502 613.8 248.102 612.6 247.502C612.2 247.302 612 246.902 612 246.502C612 245.702 612.9 245.102 613.6 245.502C613.9 245.602 614.1 245.702 614.4 245.802C615.3 246.102 616.2 246.302 617.1 246.302C617.2 246.302 617.3 246.202 617.3 246.102V238.502C617.3 238.402 617.2 238.302 617.2 238.302C615 237.202 613.6 236.202 612.9 235.302C612.5 234.702 612.2 234.002 612 233.302C611.6 231.202 612.3 229.002 614 227.602C614.9 226.902 615.9 226.402 617.1 226.202C617.2 226.202 617.3 226.102 617.3 226.002V224.202C617.3 223.802 617.7 223.402 618.1 223.402C618.5 223.402 618.9 223.802 618.9 224.202V225.902C618.9 226.002 619 226.102 619.1 226.102C620.5 226.202 621.6 226.302 622.3 226.602C622.8 226.802 623 227.202 623 227.702C623 228.502 622.2 229.102 621.5 228.802C620.8 228.502 620 228.402 619.1 228.302C619 228.302 618.9 228.402 618.9 228.502V236.302C618.9 236.402 619 236.502 619 236.502C621.1 237.502 622.5 238.502 623.3 239.402C624.1 240.402 624.5 241.402 624.5 242.702C624.5 244.202 624 245.402 623 246.402C622 247.402 620.7 248.002 619.1 248.302C619 248.302 618.9 248.402 618.9 248.502ZM617.3 235.202V228.702C617.3 228.602 617.2 228.402 617 228.502C616.3 228.702 615.7 229.102 615.2 229.602C614.7 230.202 614.4 230.902 614.4 231.802C614.4 232.702 614.6 233.402 615 234.002C615.4 234.502 616 235.002 616.9 235.502C617.1 235.502 617.3 235.402 617.3 235.202ZM618.9 239.602V245.902C618.9 246.002 619 246.202 619.2 246.102C621 245.602 621.9 244.602 621.9 242.902C621.9 241.602 621 240.402 619.2 239.302C619.1 239.302 618.9 239.402 618.9 239.602Z" fill="white"/>
<path d="M407 733.4C419.703 733.4 430 723.103 430 710.4C430 697.698 419.703 687.4 407 687.4C394.297 687.4 384 697.698 384 710.4C384 723.103 394.297 733.4 407 733.4Z" fill="#FFB73F"/>
<path d="M403.8 730.301C416.503 730.301 426.8 720.003 426.8 707.301C426.8 694.598 416.503 684.301 403.8 684.301C391.097 684.301 380.8 694.598 380.8 707.301C380.8 720.003 391.097 730.301 403.8 730.301Z" fill="#FFCE7D"/>
<path d="M403.8 727.901C392.4 727.901 383.2 718.701 383.2 707.301C383.2 695.901 392.4 686.701 403.8 686.701C415.2 686.701 424.4 695.901 424.4 707.301C424.4 718.701 415.2 727.901 403.8 727.901ZM403.8 688.101C393.2 688.101 384.5 696.701 384.5 707.401C384.5 718.001 393.1 726.701 403.8 726.701C414.4 726.701 423.1 718.101 423.1 707.401C423.1 696.701 414.5 688.101 403.8 688.101Z" fill="white"/>
<path d="M404.6 718.301V720.701C404.6 721.101 404.2 721.501 403.8 721.501C403.4 721.501 403 721.101 403 720.701V718.501C403 718.401 402.9 718.301 402.8 718.301C401 718.301 399.5 717.901 398.3 717.301C397.9 717.101 397.7 716.701 397.7 716.301C397.7 715.501 398.6 714.901 399.3 715.301C399.6 715.401 399.8 715.501 400.1 715.601C401 715.901 401.9 716.101 402.8 716.101C402.9 716.101 403 716.001 403 715.901V708.301C403 708.201 402.9 708.101 402.9 708.101C400.7 707.001 399.3 706.001 398.6 705.101C398.2 704.501 397.9 703.801 397.7 703.101C397.3 701.001 398 698.801 399.7 697.401C400.6 696.701 401.6 696.201 402.8 696.001C402.9 696.001 403 695.901 403 695.801V694.001C403 693.601 403.4 693.201 403.8 693.201C404.2 693.201 404.6 693.601 404.6 694.001V695.701C404.6 695.801 404.7 695.901 404.8 695.901C406.2 696.001 407.3 696.101 408 696.401C408.5 696.601 408.7 697.001 408.7 697.501C408.7 698.301 407.9 698.901 407.2 698.601C406.5 698.301 405.7 698.201 404.8 698.101C404.7 698.101 404.6 698.201 404.6 698.301V706.101C404.6 706.201 404.7 706.301 404.7 706.301C406.8 707.301 408.2 708.301 409 709.201C409.8 710.201 410.2 711.201 410.2 712.501C410.2 714.001 409.7 715.201 408.7 716.201C407.7 717.201 406.4 717.801 404.8 718.101C404.6 718.101 404.6 718.201 404.6 718.301ZM402.9 705.001V698.501C402.9 698.401 402.8 698.201 402.6 698.301C401.9 698.501 401.3 698.901 400.8 699.401C400.3 700.001 400 700.701 400 701.601C400 702.501 400.2 703.201 400.6 703.801C401 704.301 401.6 704.801 402.5 705.301C402.8 705.301 402.9 705.201 402.9 705.001ZM404.6 709.301V715.601C404.6 715.701 404.7 715.901 404.9 715.801C406.7 715.301 407.6 714.301 407.6 712.601C407.6 711.301 406.7 710.101 404.9 709.001C404.7 709.001 404.6 709.101 404.6 709.301Z" fill="white"/>
<g opacity="0.19">
<path opacity="0.19" d="M412.1 116.4L271.2 321.7V232.9L351.1 116.4H412.1Z" fill="white"/>
</g>
<g opacity="0.19">
<path opacity="0.19" d="M482.4 165.002V253.802L312.9 500.802H295.8C282.2 500.802 271.2 489.802 271.2 476.202V472.802L482.4 165.002Z" fill="white"/>
</g>
<path d="M264.5 328.502C264.5 328.502 288.4 391.602 302.9 414.902C320.5 443.202 341 541.302 341 541.302L272 510.002L258.1 494.702L250.7 353.102L264.5 328.502Z" fill="#F0BEBE"/>
<path d="M514.2 223.302C524 236.702 524.8 249.202 495.6 275.402C454.8 312.002 447 335.302 428.1 331.902C409.2 328.502 418.2 301.802 442.7 275.402C457.6 259.302 469.5 242.602 485 224.402C492.9 215.302 508 214.702 514.2 223.302Z" fill="#F0BEBE"/>
<g opacity="0.72">
<g opacity="0.72">
<g opacity="0.72">
<path opacity="0.72" d="M448.6 305.002C445.3 301.102 433.6 297.602 422.6 314.602C411.6 331.602 429.2 335.102 435.6 330.002C442 325.002 455.4 313.302 448.6 305.002Z" fill="#F5DFDF"/>
</g>
</g>
</g>
<g opacity="0.25">
<g opacity="0.25">
<path opacity="0.25" d="M514.1 38.9004C511.1 38.9004 508.7 41.3004 508.7 44.3004V78.0004V86.5004V100.8C508.7 101.9 509.9 102.5 510.8 101.9L529.7 88.0004C531 87.0004 532.6 86.5004 534.2 86.5004H559.8C562.8 86.5004 565.2 84.1004 565.2 81.1004V44.3004C565.2 41.3004 562.8 38.9004 559.8 38.9004H514.1Z" fill="#A6BDFF"/>
</g>
</g>
<path d="M526.7 75.7016C528.523 75.7016 530 74.2241 530 72.4016C530 70.579 528.523 69.1016 526.7 69.1016C524.878 69.1016 523.4 70.579 523.4 72.4016C523.4 74.2241 524.878 75.7016 526.7 75.7016Z" fill="#A6BDFF"/>
<path d="M522.5 62.7013C522.4 62.6013 522.3 62.4013 522.2 62.2013C522.1 61.7013 522.4 61.2013 522.9 61.1013C527.1 60.3013 531.3 61.6013 534.4 64.5013C537.4 67.5013 538.8 71.7013 538 75.9013C537.9 76.4013 537.4 76.8013 536.9 76.7013C536.4 76.6013 536 76.1013 536.1 75.6013C536.7 72.0013 535.6 68.4013 533 65.9013C530.4 63.4013 526.8 62.3013 523.2 63.0013C523 63.0013 522.7 62.9013 522.5 62.7013Z" fill="#A6BDFF"/>
<path d="M543.6 76.4018C543.4 76.2018 543.3 75.9018 543.3 75.6018C543.9 70.1018 542 64.7018 538 60.8018C534.1 56.9018 528.6 55.1018 523.2 55.8018C522.7 55.9018 522.2 55.5018 522.1 55.0018C522 54.5018 522.4 54.0018 522.9 53.9018C529 53.1018 535 55.2018 539.3 59.5018C543.7 63.8018 545.8 69.7018 545.1 75.8018C545 76.3018 544.6 76.7018 544.1 76.6018C543.9 76.6018 543.8 76.5018 543.6 76.4018Z" fill="#A6BDFF"/>
<path d="M522.4 49.1014C522.2 48.9014 522.1 48.7014 522.1 48.5014C522.1 48.0014 522.4 47.5014 523 47.5014C530.8 46.8014 538.4 49.5014 543.9 54.9014C549.5 60.4014 552.3 68.0014 551.7 75.7014C551.7 76.2014 551.2 76.6014 550.7 76.6014C550.2 76.6014 549.8 76.1014 549.8 75.6014C550.4 68.4014 547.7 61.3014 542.6 56.3014C537.4 51.2014 530.4 48.7014 523.2 49.4014C522.9 49.4014 522.6 49.3014 522.4 49.1014Z" fill="#A6BDFF"/>
<path d="M446.2 38.9007C446.2 22.1007 432.6 8.40069 415.9 8.20069C415.8 8.10069 415.5 8.20069 415.5 8.20069H414.7C398.2 8.60069 384.9 22.2007 384.9 38.8007C384.9 55.4007 398.2 69.0007 414.7 69.4007C414.9 69.4007 415.7 69.4007 415.9 69.4007C432.6 69.4007 446.2 55.7007 446.2 38.9007ZM444.9 38.3007H432.1C431.9 27.0007 426.6 16.5007 417.7 9.6007C432.7 10.7007 444.6 23.1007 444.9 38.3007ZM414.9 39.5007V68.1007C405.6 61.5007 400 50.9007 399.8 39.5007H414.9ZM399.7 38.3007C399.9 26.9007 405.5 16.3007 414.8 9.70069V38.3007H399.7ZM416.1 39.5007H430.8C430.6 50.7007 425.2 61.2007 416.1 67.8007V39.5007ZM416.1 38.3007V10.0007C425.2 16.6007 430.6 27.1007 430.8 38.3007H416.1ZM412.8 9.6007C404 16.5007 398.7 27.0007 398.5 38.3007H386.1C386.4 23.3007 398 11.0007 412.8 9.6007ZM386.1 39.5007H398.5C398.7 50.8007 404 61.3007 412.8 68.2007C398 66.9007 386.4 54.6007 386.1 39.5007ZM417.7 68.2007C426.6 61.3007 431.9 50.8007 432.1 39.5007H444.9C444.6 54.7007 432.7 67.1007 417.7 68.2007Z" fill="#A6BDFF" stroke="#A6BDFF" stroke-width="3" stroke-miterlimit="10"/>
<path d="M398.8 75.2016C398.7 75.2016 398.6 75.2016 398.5 75.1016C384.5 68.5016 375.5 54.3016 375.5 38.9016C375.5 23.4016 384.6 9.20156 398.6 2.70156C398.9 2.60156 399.3 2.70156 399.4 3.00156C399.5 3.30156 399.4 3.70156 399.1 3.80156C385.5 10.1016 376.8 23.9016 376.8 38.9016C376.8 52.8016 384.4 65.8016 396.4 72.6016L393.3 68.7016C393.1 68.4016 393.1 68.0016 393.4 67.8016C393.7 67.6016 394.1 67.6016 394.3 67.9016L399.3 74.1016C399.5 74.3016 399.5 74.7016 399.3 74.9016C399.1 75.1016 399 75.2016 398.8 75.2016Z" fill="#A6BDFF" stroke="#A6BDFF" stroke-width="3" stroke-miterlimit="10"/>
<path d="M398.8 75.2009H398.7L390.5 73.5009C390.2 73.4009 389.9 73.1009 390 72.8009C390.1 72.5009 390.4 72.2009 390.7 72.3009L398.9 74.0009C399.2 74.1009 399.5 74.4009 399.4 74.7009C399.3 75.0009 399.1 75.2009 398.8 75.2009Z" fill="#A6BDFF" stroke="#A6BDFF" stroke-width="3" stroke-miterlimit="10"/>
<path d="M431.9 75.2013C431.7 75.2013 431.4 75.1013 431.3 74.8013C431.2 74.5013 431.3 74.1013 431.6 74.0013C445.2 67.7013 453.9 53.9013 453.9 38.9013C453.9 25.0013 446.3 12.0013 434.3 5.20134L437.4 9.10134C437.6 9.40134 437.6 9.80134 437.3 10.0013C437 10.2013 436.6 10.2013 436.4 9.90134L431.4 3.70134C431.2 3.50134 431.2 3.10134 431.4 2.90134C431.6 2.70134 431.9 2.60134 432.2 2.70134C446.2 9.30134 455.2 23.5013 455.2 38.9013C455.2 54.4013 446.1 68.6013 432.1 75.1013C432.1 75.1013 432 75.2013 431.9 75.2013Z" fill="#A6BDFF" stroke="#A6BDFF" stroke-width="3" stroke-miterlimit="10"/>
<path d="M440.3 5.60126H440.2L432 3.90126C431.7 3.80126 431.4 3.50126 431.5 3.20126C431.6 2.90126 431.9 2.60126 432.2 2.70126L440.4 4.40126C440.7 4.50126 441 4.80126 440.9 5.10126C440.8 5.40126 440.6 5.60126 440.3 5.60126Z" fill="#A6BDFF" stroke="#A6BDFF" stroke-width="3" stroke-miterlimit="10"/>
<path d="M406.5 249.301H351.3C351 249.301 350.7 249.101 350.6 248.801L341.6 213.401C341.5 213.201 341.6 213.001 341.7 212.801C341.8 212.601 342 212.501 342.3 212.501H412.3L414.7 198.801C414.8 198.401 415.1 198.201 415.5 198.201C415.9 198.301 416.1 198.601 416.1 199.001L413.6 213.201L407.3 248.601C407.1 249.001 406.9 249.301 406.5 249.301ZM351.8 247.801H405.9L412 213.801H343.2L351.8 247.801Z" fill="white"/>
<path d="M418.5 202.601C420.544 202.601 422.2 200.945 422.2 198.901C422.2 196.858 420.544 195.201 418.5 195.201C416.457 195.201 414.8 196.858 414.8 198.901C414.8 200.945 416.457 202.601 418.5 202.601Z" fill="white"/>
<path d="M406.5 275.101H362C361.7 275.101 361.4 274.801 361.4 274.501C361.4 274.201 361.7 273.901 362 273.901H406V248.401C406 248.101 406.3 247.801 406.6 247.801C406.9 247.801 407.2 248.101 407.2 248.401V274.401C407.1 274.901 406.8 275.101 406.5 275.101Z" fill="white"/>
<path d="M364.2 283.002C365.967 283.002 367.4 281.569 367.4 279.802C367.4 278.034 365.967 276.602 364.2 276.602C362.433 276.602 361 278.034 361 279.802C361 281.569 362.433 283.002 364.2 283.002Z" fill="white"/>
<path d="M364.2 281.102C364.918 281.102 365.5 280.52 365.5 279.802C365.5 279.084 364.918 278.502 364.2 278.502C363.482 278.502 362.9 279.084 362.9 279.802C362.9 280.52 363.482 281.102 364.2 281.102Z" fill="white"/>
<path d="M403.7 283.002C405.467 283.002 406.9 281.569 406.9 279.802C406.9 278.034 405.467 276.602 403.7 276.602C401.933 276.602 400.5 278.034 400.5 279.802C400.5 281.569 401.933 283.002 403.7 283.002Z" fill="white"/>
<path d="M403.7 281.102C404.418 281.102 405 280.52 405 279.802C405 279.084 404.418 278.502 403.7 278.502C402.982 278.502 402.4 279.084 402.4 279.802C402.4 280.52 402.982 281.102 403.7 281.102Z" fill="white"/>
<path d="M378.3 249.102C378 249.102 377.7 248.802 377.7 248.502V213.102C377.7 212.802 378 212.502 378.3 212.502C378.6 212.502 378.9 212.802 378.9 213.102V248.502C378.9 248.902 378.6 249.102 378.3 249.102Z" fill="white"/>
<path d="M387.6 249.102C387.2 249.102 387 248.802 387 248.502L390.2 213.102C390.2 212.802 390.5 212.602 390.8 212.602C391.1 212.602 391.3 212.902 391.3 213.202L388.1 248.602C388.1 248.902 387.9 249.102 387.6 249.102Z" fill="white"/>
<path d="M397.9 249.102C397.8 249.102 397.8 249.102 397.9 249.102C397.5 249.002 397.3 248.802 397.3 248.502L402.6 213.102C402.6 212.802 402.9 212.602 403.2 212.602C403.5 212.602 403.7 212.902 403.7 213.202L398.4 248.602C398.4 248.902 398.1 249.102 397.9 249.102Z" fill="white"/>
<path d="M369.2 249.102C368.9 249.102 368.7 248.902 368.6 248.602L365.4 213.202C365.4 212.902 365.6 212.602 365.9 212.602C366.2 212.602 366.5 212.802 366.5 213.102L369.7 248.502C369.7 248.802 369.5 249.102 369.2 249.102Z" fill="white"/>
<path d="M358.9 249.102C358.6 249.102 358.4 248.902 358.3 248.602L353 213.202C353 212.902 353.2 212.602 353.5 212.602C353.8 212.602 354.1 212.802 354.1 213.102L359.4 248.502C359.5 248.802 359.3 249.002 358.9 249.102C359 249.102 358.9 249.102 358.9 249.102Z" fill="white"/>
</svg>
