<svg width="383" height="389" viewBox="0 0 383 389" fill="none" xmlns="http://www.w3.org/2000/svg">
<path d="M338.762 329.135C330.932 337.374 323.506 342.695 317.651 346.89C248.783 396.252 167.302 381.859 149.987 378.344C124.412 373.162 74.9868 363.131 39.2457 321.147C-14.811 257.629 -6.39724 157.558 35.5464 91.5117C43.2231 79.4249 83.7343 12.364 166.092 1.61097C215.935 -4.89089 274.038 8.22397 316.107 43.4424C404.431 117.352 398.145 266.687 338.762 329.135Z" fill="url(#paint0_linear)"/>
<path d="M4.78404 26.5064C4.36683 24.7559 6.84228 23.5889 8.35815 24.8115C23.7254 37.2595 60.6625 74.5479 51.4561 139.719C39.9132 221.479 59.6473 251.307 84.2211 269.506C84.2211 269.506 50.4687 260.948 29.2326 230.676C-22.891 156.349 12.127 57.7237 4.78404 26.5064Z" fill="#BDD0FB"/>
<path d="M16.4798 52.0417C18.399 61.1415 20.1235 70.2691 21.4446 79.4384C22.8214 88.6077 23.8784 97.7909 24.6015 107.002C25.283 116.213 25.7697 125.438 25.7975 134.663C25.8671 143.887 25.4916 153.098 25.0605 162.351C24.6989 171.604 24.2678 180.912 24.9492 190.303C25.6167 199.667 27.5915 209.114 31.4994 217.964C32.4729 220.173 33.502 222.368 34.6702 224.494C35.7967 226.633 37.0344 228.745 38.3 230.829C40.8728 234.983 43.7793 238.998 47.0197 242.804C53.5143 250.418 61.3439 257.17 69.9802 262.88C70.8842 263.477 72.1914 263.338 72.8868 262.546C73.5682 261.782 73.4153 260.685 72.553 260.073C70.4948 258.628 68.4644 257.17 66.5174 255.641C65.53 254.891 64.5843 254.099 63.6108 253.321C62.679 252.516 61.7194 251.738 60.8155 250.918C57.1579 247.653 53.7507 244.18 50.6772 240.512C44.4886 233.191 39.5238 225.036 35.7689 216.589C33.9471 212.337 32.4868 207.989 31.416 203.557C30.359 199.125 29.6915 194.61 29.316 190.053C28.5789 180.954 28.9127 171.729 29.1908 162.476C29.469 153.223 29.6637 143.915 29.4134 134.635C29.3021 129.994 29.1074 125.34 28.8015 120.7C28.6624 118.38 28.4816 116.06 28.3008 113.74C28.0922 111.42 27.8697 109.114 27.6194 106.793C26.618 97.5408 25.2969 88.3298 23.6419 79.1605C21.9314 70.0051 19.9427 60.8775 17.5367 51.8472C17.4672 51.5832 17.1752 51.4304 16.8692 51.486C16.605 51.5554 16.4242 51.7916 16.4798 52.0417Z" fill="#BDD0FB"/>
<path d="M44.5999 222.202C42.7086 224.202 39.3987 223.619 38.2722 221.118C32.0141 207.323 17.8567 166.714 41.2344 119.936C60.9824 80.4252 67.922 57.1407 70.3419 46.346C70.8564 44.0676 73.9855 43.7619 74.9312 45.9014C85.3615 69.5054 112.897 149.82 44.5999 222.202Z" fill="#91B3FA"/>
<path d="M41.1789 220.742C41.1094 220.756 41.0399 220.756 40.9703 220.756C40.3723 220.742 39.8995 220.256 39.9134 219.672C39.9273 219.006 41.2346 151.931 66.1977 95.7621C66.4341 95.2203 67.0738 94.9841 67.6162 95.2203C68.1586 95.4564 68.395 96.0955 68.1586 96.6373C43.3762 152.403 42.069 219.033 42.0551 219.7C42.0551 220.228 41.6657 220.659 41.1789 220.742Z" fill="white"/>
<path d="M353.517 356.365C348.552 305.948 336.133 180.745 333.422 162.448C330.014 139.442 302.02 144.527 302.02 144.527L296.026 377.287H335.049C340.292 377.287 345.298 375.009 348.803 371.022C352.335 367.021 354.046 361.714 353.517 356.365Z" fill="url(#paint1_linear)"/>
<path d="M37.7994 383.151C25.6168 382.887 15.9514 372.731 16.2018 360.464L20.1792 171.493C20.4017 161.073 28.6903 152.641 39.0371 152.335L311.365 144.194C319.459 143.958 326.148 150.515 326.134 158.67L325.481 375.329C325.453 382.998 319.195 389.152 311.587 388.986L37.7994 383.151Z" fill="url(#paint2_linear)"/>
<path d="M20.2488 367.284C16.3548 367.229 13.4065 363.7 14.0045 359.824C18.0236 334.094 30.6373 245.583 26.5904 172.103C26.4096 168.755 28.9824 165.907 32.3201 165.796L305.885 157.002C309.64 156.877 312.783 159.836 312.922 163.601C314.091 194.499 318.416 321.73 312.756 366.951C312.408 369.702 310.058 371.744 307.304 371.702L20.2488 367.284Z" fill="url(#paint3_linear)"/>
<path d="M27.1604 364.394C23.4055 364.338 20.5685 360.948 21.1526 357.211C25.0188 332.454 37.1596 247.277 33.2656 176.562C33.0848 173.339 35.5742 170.588 38.7728 170.491L302.033 162.031C305.649 161.919 308.667 164.753 308.806 168.393C309.932 198.124 314.091 320.562 308.639 364.088C308.305 366.742 306.038 368.701 303.396 368.659L27.1604 364.394Z" fill="#BDD0FB"/>
<path opacity="0.72" d="M188.969 215.421L188.566 234.51C188.51 237.427 190.819 239.831 193.725 239.845L213.167 239.956C216.004 239.97 218.313 237.691 218.382 234.843L218.8 214.768C218.869 211.753 216.38 209.308 213.39 209.447L193.92 210.322C191.194 210.433 189.025 212.67 188.969 215.421Z" fill="white"/>
<path opacity="0.72" d="M120.977 239.679L140.419 239.79C143.256 239.804 145.565 237.526 145.635 234.678L145.996 217.603C146.066 214.602 143.604 212.171 140.628 212.268L121.158 212.977C118.418 213.074 116.221 215.311 116.166 218.09L115.818 234.344C115.762 237.262 118.085 239.665 120.977 239.679Z" fill="white"/>
<path opacity="0.72" d="M138.014 324.73L119.517 324.549C116.416 324.521 113.871 327.008 113.802 330.12L113.44 347.57C113.37 350.668 115.776 353.252 118.85 353.377L137.332 354.169C140.503 354.308 143.159 351.793 143.229 348.598L143.604 330.551C143.688 327.383 141.171 324.757 138.014 324.73Z" fill="white"/>
<path opacity="0.72" d="M106.889 347.153L107.251 330.092C107.321 326.98 104.845 324.41 101.744 324.368L83.0528 324.188C80.0072 324.16 77.5039 326.605 77.4344 329.662L77.0867 346.111C77.0172 349.153 79.3814 351.696 82.4131 351.821L101.09 352.613C104.219 352.765 106.834 350.292 106.889 347.153Z" fill="white"/>
<path opacity="0.72" d="M108.517 270.147L108.809 256.143C108.878 252.767 106.18 249.988 102.815 249.988L84.9583 250.016C81.704 250.016 79.0617 252.642 78.9922 255.921L78.714 269.299C78.6445 272.606 81.2312 275.343 84.4993 275.454L102.342 276.037C105.666 276.149 108.447 273.495 108.517 270.147Z" fill="white"/>
<path opacity="0.72" d="M107.655 310.837L108.1 289.414C108.169 286.344 105.763 283.802 102.718 283.704L84.4576 283.107C81.1338 282.996 78.3524 285.649 78.2829 288.997L77.8239 310.601C77.7544 313.741 80.2716 316.325 83.3867 316.325H102.078C105.123 316.311 107.599 313.88 107.655 310.837Z" fill="white"/>
<path opacity="0.72" d="M157.345 239.887L176.787 239.998C179.624 240.012 181.932 237.733 182.002 234.885L182.391 216.283C182.461 213.282 179.999 210.851 177.023 210.948L157.553 211.657C154.813 211.754 152.616 213.991 152.561 216.769L152.185 234.552C152.129 237.47 154.452 239.873 157.345 239.887Z" fill="white"/>
<path opacity="0.72" d="M144.035 310.74L144.453 290.707C144.522 287.581 142.074 284.997 138.987 284.886L120.491 284.274C117.348 284.177 114.719 286.678 114.65 289.845L114.219 310.49C114.149 313.685 116.708 316.311 119.879 316.311H138.375C141.463 316.325 143.966 313.838 144.035 310.74Z" fill="white"/>
<path opacity="0.72" d="M177.301 249.848L156.065 249.889C153.729 249.889 151.837 251.765 151.782 254.113L151.378 273.368C151.323 275.73 153.172 277.703 155.523 277.772L176.745 278.467C179.137 278.55 181.126 276.647 181.181 274.244L181.598 254.238C181.654 251.834 179.707 249.848 177.301 249.848Z" fill="white"/>
<path opacity="0.72" d="M188.135 255.142L187.745 273.48C187.676 276.453 190.012 278.926 192.96 279.024L211.985 279.649C214.989 279.746 217.492 277.356 217.548 274.342L217.951 255.336C218.021 252.294 215.573 249.779 212.555 249.793L193.517 249.835C190.582 249.835 188.19 252.196 188.135 255.142Z" fill="white"/>
<path opacity="0.72" d="M119.183 276.593L140.406 277.287C142.798 277.371 144.786 275.467 144.842 273.064L145.231 254.322C145.287 251.891 143.34 249.904 140.934 249.904L119.698 249.946C117.362 249.946 115.47 251.822 115.415 254.169L115.039 272.161C114.983 274.55 116.833 276.523 119.183 276.593Z" fill="white"/>
<path opacity="0.72" d="M175.34 286.095L156.844 285.483C153.701 285.386 151.072 287.887 151.003 291.054L150.6 310.504C150.53 313.7 153.089 316.325 156.26 316.325H174.756C177.83 316.325 180.347 313.852 180.416 310.754L180.82 291.916C180.875 288.79 178.428 286.206 175.34 286.095Z" fill="white"/>
<path opacity="0.72" d="M212.319 287.316L192.529 286.663C189.748 286.566 187.412 288.789 187.356 291.595L186.939 311.17C186.883 314.004 189.136 316.324 191.945 316.324H211.749C214.475 316.324 216.7 314.129 216.755 311.392L217.159 292.47C217.228 289.706 215.073 287.4 212.319 287.316Z" fill="white"/>
<path opacity="0.72" d="M87.3363 239.235L102.092 239.319C106.013 239.346 109.24 236.193 109.323 232.233L109.588 219.966C109.671 216.257 106.639 213.256 102.954 213.381L86.5297 213.978C82.8026 214.117 79.8265 217.16 79.743 220.911L79.5205 231.15C79.4232 235.581 82.9417 239.207 87.3363 239.235Z" fill="white"/>
<path opacity="0.72" d="M70.8844 330.176C70.9539 326.827 68.2977 324.049 64.96 324.021L58.535 323.952C53.6536 323.91 49.6483 327.161 49.5649 331.259L49.3146 343.11C49.2311 347.167 53.0278 350.584 57.8674 350.779L64.7653 351.07C67.8805 351.209 70.495 348.736 70.5645 345.597L70.8844 330.176Z" fill="white"/>
<path opacity="0.72" d="M277.64 326.092L264.999 325.967C261.897 325.939 259.352 328.426 259.283 331.552L258.81 353.767C258.741 356.865 261.16 359.449 264.234 359.588L276.82 360.13C281.84 360.338 286.054 357.045 286.137 352.836L286.541 333.789C286.624 329.607 282.619 326.148 277.64 326.092Z" fill="white"/>
<path opacity="0.72" d="M59.0355 316.311H65.3075C68.5618 316.311 71.218 313.685 71.2876 310.407L71.7465 288.637C71.816 285.33 69.2293 282.593 65.9612 282.482L59.6474 282.274C54.6687 282.107 50.5244 285.4 50.427 289.567L50.0237 308.614C49.9403 312.838 54.015 316.311 59.0355 316.311Z" fill="white"/>
<path opacity="0.72" d="M59.5639 274.633L67.4631 274.897C69.9803 274.98 72.0803 272.98 72.1359 270.437L72.4697 254.711C72.5253 252.154 70.481 250.057 67.936 250.057L59.9533 250.071C55.1137 250.084 51.1919 253.321 51.1085 257.378L50.8999 266.964C50.8303 271.049 54.6826 274.466 59.5639 274.633Z" fill="white"/>
<path opacity="0.72" d="M279.657 207.002L266.974 207.46C264.123 207.558 261.842 209.892 261.772 212.767L261.313 234.704C261.244 237.733 263.664 240.233 266.668 240.247L279.726 240.317C284.594 240.345 288.571 237.094 288.655 233.009L289.044 214.657C289.128 210.336 284.816 206.807 279.657 207.002Z" fill="white"/>
<path opacity="0.72" d="M174.381 325.093L155.884 324.912C152.783 324.885 150.238 327.371 150.168 330.483L149.779 349.128C149.71 352.226 152.115 354.81 155.189 354.935L173.671 355.727C176.842 355.866 179.498 353.351 179.568 350.156L179.971 330.914C180.055 327.733 177.537 325.121 174.381 325.093Z" fill="white"/>
<path opacity="0.72" d="M279.115 249.668L266.264 249.696C263.33 249.696 260.938 252.058 260.882 255.017L260.437 275.884C260.368 278.857 262.704 281.33 265.652 281.427L278.558 281.858C283.537 282.024 287.681 278.732 287.779 274.564L288.14 257.365C288.238 253.127 284.149 249.654 279.115 249.668Z" fill="white"/>
<path opacity="0.72" d="M278.655 289.498L265.235 289.054C262.454 288.957 260.117 291.179 260.062 293.986L259.7 311.171C259.645 314.005 261.898 316.325 264.707 316.325H278.183C283.022 316.325 286.958 313.088 287.041 309.018L287.292 297.167C287.389 293.083 283.537 289.665 278.655 289.498Z" fill="white"/>
<path opacity="0.72" d="M223.709 292.804L223.319 311.184C223.264 314.019 225.517 316.339 228.326 316.339H248.13C250.855 316.339 253.08 314.144 253.136 311.407L253.512 293.679C253.567 290.915 251.412 288.622 248.672 288.525L228.882 287.872C226.101 287.775 223.778 289.984 223.709 292.804Z" fill="white"/>
<path opacity="0.72" d="M247.114 325.8L228.618 325.619C225.517 325.592 222.972 328.078 222.902 331.204L222.457 352.224C222.388 355.322 224.808 357.906 227.881 358.045L246.363 358.837C249.534 358.976 252.191 356.462 252.26 353.266L252.719 331.635C252.789 328.454 250.257 325.828 247.114 325.8Z" fill="white"/>
<path opacity="0.72" d="M60.6071 239.082L68.3394 239.123C70.8148 239.137 72.8314 237.151 72.887 234.664L73.2069 219.284C73.2625 216.672 71.1208 214.533 68.5202 214.63L60.3289 214.922C55.6423 215.089 51.9291 218.284 51.8456 222.216L51.6509 231.385C51.5675 235.595 55.6005 239.054 60.6071 239.082Z" fill="white"/>
<path opacity="0.72" d="M210.748 325.439L192.571 325.258C189.303 325.23 186.605 327.856 186.535 331.149L186.118 350.654C186.049 353.752 188.468 356.336 191.542 356.475L210.024 357.267C213.195 357.406 215.851 354.892 215.921 351.696L216.352 331.26C216.422 328.092 213.904 325.48 210.748 325.439Z" fill="white"/>
<path opacity="0.72" d="M225.378 214.087L224.947 234.51C224.877 237.538 227.297 240.039 230.301 240.053L249.326 240.164C252.274 240.178 254.68 237.816 254.749 234.843L255.194 213.629C255.264 210.503 252.705 207.974 249.604 208.086L230.551 208.78C227.714 208.877 225.433 211.211 225.378 214.087Z" fill="white"/>
<path opacity="0.72" d="M224.515 255.071L224.098 274.674C224.029 277.647 226.365 280.12 229.313 280.217L248.338 280.843C251.342 280.94 253.845 278.55 253.901 275.536L254.332 255.266C254.402 252.223 251.954 249.709 248.936 249.723L229.897 249.75C226.963 249.764 224.571 252.126 224.515 255.071Z" fill="white"/>
<path d="M58.4931 198.388L59.3693 204.848C59.6474 206.918 61.3858 208.474 63.4579 208.516H63.7639C66.0864 208.571 68.0194 206.71 68.0751 204.362L68.2141 197.749C68.2698 195.179 66.0725 193.15 63.5414 193.442L62.2202 193.595C59.856 193.859 58.1733 196.026 58.4931 198.388Z" fill="white"/>
<path d="M88.2961 196.722L89.1722 203.182C89.4504 205.252 91.1887 206.808 93.2609 206.85H93.5668C95.8893 206.905 97.8224 205.044 97.878 202.696L98.0171 196.083C98.0727 193.513 95.8754 191.484 93.3443 191.776L92.0232 191.929C89.659 192.193 87.9762 194.36 88.2961 196.722Z" fill="white"/>
<path d="M124.955 197.236L125.831 203.696C126.109 205.766 127.847 207.322 129.92 207.363H130.226C132.548 207.419 134.481 205.557 134.537 203.209L134.676 196.596C134.731 194.026 132.534 191.998 130.003 192.29L128.682 192.443C126.318 192.706 124.635 194.874 124.955 197.236Z" fill="white"/>
<path d="M160.682 195.624L161.558 202.084C161.836 204.154 163.575 205.71 165.647 205.752H165.953C168.275 205.808 170.208 203.946 170.264 201.598L170.403 194.985C170.459 192.415 168.261 190.387 165.73 190.678L164.409 190.831C162.045 191.095 160.362 193.262 160.682 195.624Z" fill="white"/>
<path d="M197.369 190.929L198.245 197.389C198.523 199.459 200.262 201.015 202.334 201.057H202.64C204.962 201.112 206.895 199.251 206.951 196.903L207.09 190.29C207.146 187.72 204.948 185.691 202.417 185.983L201.096 186.136C198.732 186.386 197.049 188.553 197.369 190.929Z" fill="white"/>
<path d="M236.239 191.763L237.115 198.223C237.394 200.293 239.132 201.849 241.204 201.891H241.51C243.832 201.946 245.766 200.085 245.821 197.737L245.96 191.124C246.016 188.554 243.819 186.525 241.287 186.817L239.966 186.97C237.602 187.22 235.919 189.387 236.239 191.763Z" fill="white"/>
<path d="M269.046 191.068L269.922 197.528C270.2 199.598 271.939 201.154 274.011 201.196H274.317C276.639 201.251 278.572 199.389 278.628 197.042L278.767 190.429C278.822 187.858 276.625 185.83 274.094 186.122L272.773 186.275C270.409 186.525 268.726 188.692 269.046 191.068Z" fill="white"/>
<path d="M255.959 264.741C255.876 263.338 254.429 262.741 253.359 263.588C250.341 265.978 249.117 269.701 247.629 273.16C245.89 277.203 244.236 281.274 242.761 285.414C241.204 289.776 239.883 294.222 238.867 298.737C236.865 293.347 234.542 288.095 231.594 283.121C230.815 281.802 228.604 282.566 229.035 284.149C231.58 293.277 234.723 302.224 237.129 311.407C237.977 314.644 242.372 313.88 242.706 310.768C243.596 302.266 245.64 294.138 248.533 286.108C249.91 282.288 251.439 278.537 253.039 274.8C254.457 271.493 256.182 268.409 255.959 264.741Z" fill="url(#paint4_linear)"/>
<path d="M260.103 271.521C257.475 271.021 256.529 274.411 258.935 275.481C274.845 282.538 276.931 302.405 265.43 314.436C260.117 320.007 253.053 324.328 246.377 328.038C239.604 331.802 232.039 334.678 224.168 333.886C205.936 332.039 203.46 313.353 208.912 298.946C214.155 285.081 225.378 274.369 239.132 269.243C240.912 268.576 240.216 265.672 238.395 266.325C225.503 270.98 214.516 280.177 207.73 292.194C201.471 303.253 197.716 318.854 205.908 329.955C214.377 341.444 230.468 341.653 242.581 336.859C255.904 331.594 272.509 321.813 277.807 307.643C283.356 292.764 276.5 274.606 260.103 271.521Z" fill="url(#paint5_linear)"/>
<path d="M326.148 373.689C325.772 373.689 325.466 373.383 325.453 372.994L324.618 251.001C324.618 250.612 324.924 250.307 325.3 250.307C325.675 250.307 325.981 250.612 325.995 251.001L326.829 372.994C326.843 373.37 326.537 373.689 326.148 373.689Z" fill="#91B3FA"/>
<path d="M325.119 223.674C324.743 223.674 324.438 223.369 324.424 222.98L324.132 180.37C324.132 179.981 324.438 179.676 324.813 179.676C325.189 179.676 325.494 179.981 325.508 180.37L325.8 222.98C325.814 223.369 325.508 223.674 325.119 223.674Z" fill="#91B3FA"/>
<path d="M65.8361 187.899C69.9145 187.899 73.2207 184.571 73.2207 180.466C73.2207 176.361 69.9145 173.033 65.8361 173.033C61.7576 173.033 58.4514 176.361 58.4514 180.466C58.4514 184.571 61.7576 187.899 65.8361 187.899Z" fill="#91B3FA"/>
<path d="M126.318 187.33C130.396 187.33 133.702 184.002 133.702 179.898C133.702 175.793 130.396 172.465 126.318 172.465C122.239 172.465 118.933 175.793 118.933 179.898C118.933 184.002 122.239 187.33 126.318 187.33Z" fill="#91B3FA"/>
<path d="M187.356 185.33C191.434 185.33 194.74 182.002 194.74 177.898C194.74 173.793 191.434 170.465 187.356 170.465C183.277 170.465 179.971 173.793 179.971 177.898C179.971 182.002 183.277 185.33 187.356 185.33Z" fill="#91B3FA"/>
<path d="M247.838 182.469C251.916 182.469 255.222 179.141 255.222 175.036C255.222 170.931 251.916 167.604 247.838 167.604C243.759 167.604 240.453 170.931 240.453 175.036C240.453 179.141 243.759 182.469 247.838 182.469Z" fill="#91B3FA"/>
<path d="M270.311 145.513C267.697 139.928 262.648 133.482 253.456 135.107C241.037 137.316 242.205 163.865 243.206 174.646C243.443 177.188 246.043 179.133 249.172 179.133C250.035 179.133 250.869 178.828 251.453 178.3C252.037 177.772 252.315 177.077 252.218 176.369C251.147 168.214 248.867 144.749 258.003 143.498C258.003 143.498 260.326 143.165 262.44 145.068C265.054 145.054 267.683 145.332 270.311 145.513Z" fill="url(#paint6_linear)"/>
<path d="M210.317 147.943C207.869 142.164 202.765 134.731 192.974 136.468C180.555 138.677 181.724 165.24 182.725 176.021C182.961 178.563 185.562 180.522 188.691 180.522C189.567 180.522 190.388 180.216 190.972 179.688C191.556 179.16 191.834 178.466 191.737 177.757C190.666 169.602 188.385 146.123 197.522 144.873C197.522 144.873 200.957 144.484 203.266 148.096C205.616 148.138 207.966 148.068 210.317 147.943Z" fill="url(#paint7_linear)"/>
<path d="M150.085 149.93C147.749 144.081 142.631 136.051 132.493 137.843C120.074 140.052 121.242 166.615 122.243 177.396C122.479 179.938 125.08 181.897 128.209 181.897C129.071 181.897 129.906 181.592 130.49 181.078C131.074 180.55 131.352 179.855 131.255 179.147C130.184 170.991 127.903 147.499 137.04 146.248C137.04 146.248 140.573 145.929 142.895 149.777C145.273 149.972 147.707 150.069 150.085 149.93Z" fill="url(#paint8_linear)"/>
<path d="M72.0108 139.441C59.5918 141.65 60.76 168.227 61.7613 179.008C61.9978 181.551 64.5984 183.523 67.7275 183.523C68.6036 183.523 69.4241 183.232 70.0082 182.704C70.5923 182.176 70.8704 181.481 70.7731 180.773C69.7023 172.618 67.4215 149.097 76.5584 147.847C76.5584 147.847 79.8405 147.458 82.1491 150.806C84.5967 150.889 87.0443 151.223 89.492 151.209C87.1 145.388 81.9961 137.663 72.0108 139.441Z" fill="url(#paint9_linear)"/>
<path d="M238.311 220.16C238.311 222.66 237.894 224.564 237.06 225.87C236.225 227.176 235.029 227.815 233.444 227.815C231.803 227.815 230.607 227.176 229.828 225.911C229.063 224.633 228.674 222.744 228.674 220.229C228.674 215.131 230.259 212.574 233.444 212.574C236.684 212.574 238.311 215.103 238.311 220.16ZM232.192 220.201C232.192 221.744 232.289 222.855 232.484 223.563C232.679 224.272 233.013 224.619 233.472 224.619C233.93 224.619 234.264 224.272 234.473 223.563C234.681 222.855 234.793 221.744 234.793 220.201C234.793 218.659 234.681 217.548 234.473 216.839C234.264 216.131 233.93 215.783 233.472 215.783C233.013 215.783 232.679 216.131 232.484 216.839C232.289 217.534 232.192 218.659 232.192 220.201ZM247.128 212.922L237.171 237.192H233.764L243.693 212.922H247.128ZM252.232 229.857C252.232 232.358 251.815 234.261 250.98 235.553C250.146 236.845 248.936 237.498 247.365 237.498C245.71 237.498 244.514 236.859 243.749 235.595C242.984 234.33 242.608 232.441 242.608 229.926C242.608 227.453 242.998 225.55 243.791 224.244C244.569 222.938 245.765 222.271 247.379 222.271C250.605 222.271 252.232 224.8 252.232 229.857ZM246.113 229.899C246.113 231.441 246.21 232.552 246.405 233.261C246.6 233.969 246.934 234.317 247.392 234.317C247.851 234.317 248.185 233.969 248.394 233.261C248.602 232.552 248.714 231.441 248.714 229.899C248.714 228.357 248.602 227.245 248.394 226.55C248.185 225.856 247.851 225.508 247.392 225.508C246.947 225.508 246.614 225.856 246.405 226.55C246.21 227.245 246.113 228.357 246.113 229.899Z" fill="url(#paint10_linear)"/>
<path d="M90.994 258.74C90.994 261.241 90.5768 263.144 89.7424 264.45C88.908 265.756 87.712 266.395 86.1266 266.395C84.4855 266.395 83.2895 265.756 82.5107 264.492C81.7458 263.213 81.3564 261.324 81.3564 258.809C81.3564 253.711 82.9418 251.154 86.1266 251.154C89.3669 251.14 90.994 253.669 90.994 258.74ZM84.8749 258.768C84.8749 260.31 84.9723 261.421 85.167 262.13C85.3617 262.838 85.6954 263.186 86.1544 263.186C86.6133 263.186 86.9471 262.838 87.1557 262.13C87.3643 261.421 87.4755 260.31 87.4755 258.768C87.4755 257.226 87.3643 256.114 87.1557 255.406C86.9471 254.697 86.6133 254.35 86.1544 254.35C85.6954 254.35 85.3617 254.697 85.167 255.406C84.9723 256.114 84.8749 257.226 84.8749 258.768ZM99.8111 251.488L89.8536 275.773H86.4464L96.376 251.502H99.8111V251.488ZM104.901 268.437C104.901 270.938 104.484 272.841 103.649 274.133C102.815 275.425 101.605 276.078 100.034 276.078C98.3787 276.078 97.1826 275.439 96.4178 274.175C95.6529 272.911 95.2774 271.021 95.2774 268.507C95.2774 266.034 95.6668 264.13 96.4595 262.824C97.2383 261.518 98.4343 260.852 100.048 260.852C103.288 260.838 104.901 263.38 104.901 268.437ZM98.782 268.465C98.782 270.007 98.8793 271.118 99.074 271.827C99.2687 272.535 99.6025 272.883 100.061 272.883C100.52 272.883 100.854 272.535 101.063 271.827C101.271 271.118 101.383 270.007 101.383 268.465C101.383 266.923 101.271 265.811 101.063 265.117C100.854 264.422 100.52 264.075 100.061 264.075C99.6164 264.075 99.2826 264.422 99.074 265.117C98.8932 265.811 98.782 266.923 98.782 268.465Z" fill="url(#paint11_linear)"/>
<path d="M355.311 182.759C355.256 182.732 324.702 129.272 320.571 124.243C319.876 123.395 318.805 122.965 317.72 123.09L309.195 124.104L299.168 145.763L315.857 136.052C314.202 147.458 335.647 164.421 343.003 170.617C343.754 171.242 343.81 172.368 343.143 173.076L340.208 176.146C345.034 181.023 350.597 184.163 356.869 185.608L355.311 182.759Z" fill="url(#paint12_linear)"/>
<path d="M341.891 174.48C341.891 174.48 340.013 175.092 339.388 176.759C339.082 177.551 339.415 178.454 340.111 178.954C343.198 181.163 353.378 188.29 358.079 189.693C358.468 189.804 358.83 189.457 358.746 189.068C358.51 187.984 357.731 185.803 355.214 182.608L355.436 183.066C355.728 183.636 355.089 184.247 354.532 183.928C351.375 182.163 344.978 178.273 341.891 174.48Z" fill="url(#paint13_linear)"/>
<path d="M343.407 195.874C343.351 195.847 338.776 184.802 338.72 184.774C334.52 159.211 324.257 137.302 321.239 131.55C320.724 130.578 319.765 129.939 318.666 129.855L310.113 129.119L295.914 148.305L314.23 142.165C310.294 153.001 327.872 173.951 333.811 181.495C334.409 182.259 334.242 183.371 333.449 183.926L329.959 186.344C333.686 192.095 338.497 196.291 344.352 198.986L343.407 195.874Z" fill="url(#paint14_linear)"/>
<path d="M331.933 185.066C331.933 185.066 329.973 185.275 329.013 186.789C328.554 187.512 328.693 188.456 329.277 189.081C331.85 191.874 340.375 200.904 344.686 203.224C345.034 203.419 345.465 203.141 345.465 202.752C345.451 201.641 345.131 199.348 343.309 195.722L343.435 196.208C343.601 196.834 342.864 197.292 342.378 196.861C339.68 194.5 334.186 189.401 331.933 185.066Z" fill="url(#paint15_linear)"/>
<path d="M270.047 125.078C270.047 125.078 262.301 136.581 261.675 141.833C261.035 147.084 263.817 148.89 271.924 149.571C296.039 151.558 307.93 144.347 307.93 144.347C309.585 133.844 310.753 131.163 324.535 125.453C324.535 125.453 307.109 126.828 303.605 125.481C300.072 124.105 270.047 125.078 270.047 125.078Z" fill="url(#paint16_linear)"/>
<path d="M300.921 60.6278C300.921 60.6278 295.525 54.251 289.795 62.0727C288.752 63.4897 284.775 62.3227 283.3 65.2819C282.549 66.8101 280.908 67.6854 279.24 67.3658C275.054 66.6017 268.211 66.5323 264.846 73.0758C262.273 78.0772 264.262 80.9947 266.834 82.6619C268.726 83.8844 269.407 86.3713 268.253 88.3163C267.154 90.1779 266.946 92.6925 269.783 95.735C276.138 102.529 288.696 91.4144 288.696 91.4144L298.682 67.8521L300.921 60.6278Z" fill="url(#paint17_linear)"/>
<path d="M290.977 123.548C290.977 123.548 299.989 114.976 304.425 109.294C306.831 106.224 307.582 102.181 306.469 98.4439C304.439 91.6225 300.837 84.565 300.517 83.4674C300.017 81.7864 289.906 81.8559 289.906 81.8559C289.906 81.8559 270.019 94.7484 262.189 116.602L270.965 119.339C270.965 119.339 276.152 110.628 281.298 105.099C281.298 105.099 272.411 116.824 272.105 121.617L290.977 123.548Z" fill="url(#paint18_linear)"/>
<path d="M308.166 126.938L301.393 119.575L293.564 121.673C293.564 121.673 284.441 123.09 279.226 121.673C274.011 120.256 274.011 120.256 274.011 120.256L262.217 116.588L260.368 121.825C259.895 123.159 260.368 124.632 261.522 125.438C262.537 126.16 263.733 126.952 264.498 127.285C266.056 127.966 300.295 127.494 300.295 127.494L308.166 126.938Z" fill="url(#paint19_linear)"/>
<path d="M296.86 69.7146L290.059 82.3432C290.504 85.094 297.458 85.1774 298.529 83.5241C298.64 83.3574 298.696 83.1629 298.737 82.9684L302.798 74.5354C302.979 73.7158 300.712 70.9372 299.975 70.5482L297.277 69.1172C296.248 68.5476 300.587 68.5059 296.86 69.7146Z" fill="url(#paint20_linear)"/>
<path d="M310.614 66.754C310.614 66.754 311.379 71.0191 308.027 76.4373C304.676 81.8555 301.338 81.6193 299.627 79.6743C297.931 77.7432 295.9 74.5201 296.818 69.1158C297.75 63.7114 309.446 61.308 310.614 66.754Z" fill="url(#paint21_linear)"/>
<path d="M300.879 69.6996C300.879 69.6996 306.317 62.5726 310.489 68.7827L310.419 70.9361C310.419 70.9361 315.843 70.686 315.259 65.6846C314.675 60.6971 310.239 57.2794 304.105 58.9883C297.972 60.6971 294.384 62.6421 293.689 66.8933C292.994 71.1445 296.471 70.4499 296.471 70.4499C296.471 70.4499 297.806 67.5185 299.405 67.3101C301.004 67.1156 300.434 69.4357 300.434 69.4357L300.879 69.6996Z" fill="url(#paint22_linear)"/>
<path d="M299.641 69.5189C299.641 69.5189 302.451 65.8651 299.892 65.1149C297.333 64.3508 297.43 68.6853 297.597 70.2969L299.641 69.5189Z" fill="url(#paint23_linear)"/>
<path d="M285.734 129.855C285.762 129.855 285.776 129.855 285.804 129.855L316.969 129.828C317.734 129.828 318.36 129.202 318.36 128.438C318.36 127.674 317.734 127.035 316.969 127.049L285.804 127.077C285.039 127.077 284.413 127.702 284.413 128.466C284.413 129.202 284.997 129.814 285.734 129.855Z" fill="url(#paint24_linear)"/>
<path d="M344.978 101.584H319.028C317.109 101.584 315.37 102.682 314.55 104.418L302.548 129.828H334.798C336.036 129.828 337.135 129.078 337.594 127.925L346.897 104.404C347.44 103.057 346.439 101.584 344.978 101.584Z" fill="url(#paint25_linear)"/>
<path d="M329.67 112.086C328.596 111.74 327.268 112.875 326.706 114.621C326.144 116.367 326.559 118.062 327.634 118.407C328.708 118.753 330.036 117.618 330.598 115.873C331.16 114.127 330.745 112.432 329.67 112.086Z" fill="#91B3FA"/>
<path d="M197.981 199.946C211.568 199.946 222.582 188.943 222.582 175.369C222.582 161.796 211.568 150.793 197.981 150.793C184.394 150.793 173.379 161.796 173.379 175.369C173.379 188.943 184.394 199.946 197.981 199.946Z" fill="url(#paint26_linear)"/>
<path d="M197.981 199.127C211.115 199.127 221.762 188.491 221.762 175.37C221.762 162.25 211.115 151.613 197.981 151.613C184.847 151.613 174.2 162.25 174.2 175.37C174.2 188.491 184.847 199.127 197.981 199.127Z" fill="url(#paint27_linear)"/>
<path opacity="0.58" d="M178.205 166.643C178.08 166.643 177.969 166.616 177.843 166.56C177.454 166.366 177.287 165.893 177.468 165.504C181.223 157.724 188.927 152.792 197.564 152.639C198.94 152.612 200.331 152.709 201.666 152.931C202.097 153.001 202.389 153.404 202.32 153.848C202.25 154.279 201.847 154.584 201.402 154.501C200.15 154.293 198.857 154.209 197.577 154.223C189.539 154.362 182.391 158.947 178.886 166.185C178.775 166.477 178.497 166.643 178.205 166.643Z" fill="white"/>
<path opacity="0.78" d="M198.509 195.972C209.623 195.972 218.633 186.971 218.633 175.869C218.633 164.766 209.623 155.766 198.509 155.766C187.395 155.766 178.386 164.766 178.386 175.869C178.386 186.971 187.395 195.972 198.509 195.972Z" fill="white"/>
<path d="M196.799 190.845L196.757 188.664C194.476 188.609 192.209 188.122 190.596 187.442C190.026 187.205 189.72 186.566 189.873 185.955L190.387 183.913C190.582 183.163 191.389 182.76 192.112 183.052C193.711 183.691 195.686 184.177 197.8 184.149C199.997 184.107 201.624 183.329 201.596 181.815C201.569 180.44 200.289 179.648 197.216 178.884C192.835 177.772 189.664 175.924 189.609 172.09C189.553 168.631 192.028 165.936 196.409 165.158L196.367 162.976C196.353 162.268 196.91 161.698 197.619 161.684L198.912 161.657C199.622 161.643 200.192 162.198 200.206 162.907L200.247 164.866C202.361 164.907 203.905 165.241 205.129 165.658C205.755 165.866 206.116 166.533 205.949 167.172L205.476 169.061C205.296 169.798 204.517 170.201 203.808 169.951C202.681 169.548 201.082 169.131 199.01 169.173C196.395 169.214 195.672 170.312 195.7 171.284C195.728 172.479 197.299 173.271 200.706 174.243C205.574 175.605 207.618 177.578 207.688 181.19C207.743 184.496 205.337 187.525 200.581 188.359L200.623 190.804C200.637 191.512 200.081 192.082 199.371 192.096L198.078 192.124C197.397 192.11 196.812 191.554 196.799 190.845Z" fill="url(#paint28_linear)"/>
<path d="M219.022 103.933C239.245 103.933 255.639 87.5559 255.639 67.3533C255.639 47.1508 239.245 30.7734 219.022 30.7734C198.799 30.7734 182.405 47.1508 182.405 67.3533C182.405 87.5559 198.799 103.933 219.022 103.933Z" fill="url(#paint29_linear)"/>
<path d="M219.022 102.725C238.577 102.725 254.429 86.8886 254.429 67.3536C254.429 47.8187 238.577 31.9824 219.022 31.9824C199.467 31.9824 183.615 47.8187 183.615 67.3536C183.615 86.8886 199.467 102.725 219.022 102.725Z" fill="url(#paint30_linear)"/>
<path opacity="0.58" d="M189.581 53.8633C189.483 53.8633 189.372 53.8494 189.275 53.7939C188.941 53.6271 188.788 53.2242 188.955 52.8908C194.462 41.4848 205.755 34.2605 218.424 34.0243C220.44 33.9826 222.471 34.1355 224.446 34.455C224.821 34.5106 225.072 34.8579 225.002 35.233C224.946 35.6081 224.599 35.8582 224.223 35.7887C222.332 35.4831 220.385 35.3441 218.438 35.3719C206.283 35.5942 195.463 42.5267 190.179 53.4604C190.068 53.7244 189.831 53.8633 189.581 53.8633Z" fill="white"/>
<path opacity="0.78" d="M219.801 98.0282C236.345 98.0282 249.757 84.6302 249.757 68.103C249.757 51.5757 236.345 38.1777 219.801 38.1777C203.257 38.1777 189.845 51.5757 189.845 68.103C189.845 84.6302 203.257 98.0282 219.801 98.0282Z" fill="white"/>
<path d="M217.27 90.4008L217.214 87.1499C213.821 87.0804 210.442 86.3302 208.036 85.3299C207.173 84.9687 206.728 84.024 206.951 83.121L207.73 80.0784C208.008 78.967 209.218 78.3696 210.289 78.7864C212.681 79.7311 215.615 80.4674 218.758 80.4119C222.026 80.3563 224.446 79.2032 224.404 76.9248C224.362 74.8686 222.457 73.6877 217.896 72.5485C211.373 70.8953 206.659 68.1445 206.561 62.4484C206.464 57.2941 210.163 53.293 216.7 52.126L216.644 48.8751C216.63 47.8331 217.465 46.9579 218.508 46.944L220.427 46.9162C221.47 46.9023 222.346 47.7359 222.36 48.7778L222.415 51.6953C225.558 51.7648 227.853 52.2649 229.689 52.8623C230.621 53.168 231.149 54.1683 230.913 55.1269L230.203 57.9471C229.925 59.0308 228.785 59.642 227.728 59.2669C226.045 58.6695 223.667 58.0444 220.594 58.0999C216.714 58.1694 215.629 59.7949 215.657 61.2397C215.684 63.018 218.035 64.185 223.111 65.6438C230.356 67.6721 233.416 70.6174 233.513 75.9939C233.597 80.9259 230.023 85.4272 222.944 86.6636L223.013 90.3036C223.027 91.3455 222.193 92.2208 221.15 92.2347L219.231 92.2625C218.146 92.2902 217.284 91.4567 217.27 90.4008Z" fill="url(#paint31_linear)"/>
<path d="M151.267 232.76C163.456 232.76 173.337 222.889 173.337 210.712C173.337 198.535 163.456 188.664 151.267 188.664C139.078 188.664 129.197 198.535 129.197 210.712C129.197 222.889 139.078 232.76 151.267 232.76Z" fill="url(#paint32_linear)"/>
<path d="M151.267 232.024C163.049 232.024 172.6 222.482 172.6 210.712C172.6 198.942 163.049 189.4 151.267 189.4C139.485 189.4 129.934 198.942 129.934 210.712C129.934 222.482 139.485 232.024 151.267 232.024Z" fill="url(#paint33_linear)"/>
<path opacity="0.58" d="M133.522 202.571C133.466 202.571 133.396 202.558 133.341 202.53C133.146 202.433 133.063 202.196 133.16 202.002C136.484 195.125 143.27 190.776 150.905 190.637C152.129 190.61 153.339 190.707 154.535 190.901C154.758 190.943 154.897 191.138 154.869 191.36C154.827 191.582 154.632 191.721 154.41 191.693C153.27 191.513 152.087 191.415 150.919 191.443C143.59 191.568 137.068 195.75 133.883 202.349C133.814 202.488 133.674 202.571 133.522 202.571Z" fill="white"/>
<path opacity="0.78" d="M151.74 229.203C161.709 229.203 169.791 221.129 169.791 211.17C169.791 201.21 161.709 193.137 151.74 193.137C141.77 193.137 133.688 201.21 133.688 211.17C133.688 221.129 141.77 229.203 151.74 229.203Z" fill="white"/>
<path d="M150.21 224.605L150.168 222.646C148.124 222.604 146.08 222.16 144.633 221.548C144.119 221.326 143.841 220.756 143.98 220.215L144.452 218.381C144.619 217.714 145.343 217.353 145.996 217.603C147.429 218.172 149.209 218.617 151.1 218.575C153.075 218.534 154.535 217.839 154.507 216.477C154.479 215.241 153.339 214.532 150.585 213.838C146.65 212.837 143.813 211.184 143.757 207.753C143.701 204.641 145.927 202.237 149.862 201.529L149.821 199.57C149.807 198.945 150.307 198.417 150.947 198.403L152.101 198.389C152.727 198.375 153.256 198.875 153.27 199.514L153.297 201.279C155.189 201.32 156.579 201.626 157.678 201.987C158.248 202.168 158.554 202.765 158.415 203.349L157.984 205.044C157.817 205.697 157.122 206.072 156.496 205.835C155.481 205.474 154.048 205.099 152.199 205.141C149.862 205.183 149.209 206.169 149.223 207.03C149.236 208.1 150.655 208.809 153.715 209.684C158.081 210.906 159.917 212.685 159.973 215.922C160.028 218.895 157.873 221.604 153.603 222.354L153.645 224.549C153.659 225.174 153.158 225.702 152.519 225.716L151.364 225.73C150.738 225.744 150.224 225.244 150.21 224.605Z" fill="url(#paint34_linear)"/>
<path d="M156.218 146.027C172.339 146.027 185.409 132.971 185.409 116.866C185.409 100.761 172.339 87.7051 156.218 87.7051C140.096 87.7051 127.027 100.761 127.027 116.866C127.027 132.971 140.096 146.027 156.218 146.027Z" fill="url(#paint35_linear)"/>
<path d="M156.218 145.069C171.809 145.069 184.449 132.442 184.449 116.867C184.449 101.291 171.809 88.6641 156.218 88.6641C140.626 88.6641 127.986 101.291 127.986 116.867C127.986 132.442 140.626 145.069 156.218 145.069Z" fill="url(#paint36_linear)"/>
<path opacity="0.58" d="M132.757 106.295C132.645 106.295 132.534 106.281 132.437 106.225C132.075 106.058 131.922 105.628 132.103 105.267C136.525 96.1111 145.579 90.3039 155.745 90.1233C157.358 90.0955 158.999 90.2067 160.585 90.4706C160.974 90.5401 161.238 90.9013 161.183 91.2903C161.113 91.6793 160.751 91.9572 160.362 91.8877C158.86 91.6376 157.316 91.5265 155.787 91.5543C146.163 91.721 137.596 97.2225 133.41 105.878C133.271 106.142 133.021 106.295 132.757 106.295Z" fill="white"/>
<path opacity="0.78" d="M156.843 141.345C170.039 141.345 180.736 130.659 180.736 117.477C180.736 104.295 170.039 93.6094 156.843 93.6094C143.648 93.6094 132.951 104.295 132.951 117.477C132.951 130.659 143.648 141.345 156.843 141.345Z" fill="white"/>
<path d="M154.827 135.259L154.785 132.661C152.073 132.606 149.389 132.008 147.47 131.216C146.789 130.925 146.427 130.174 146.608 129.452L147.22 127.021C147.442 126.132 148.402 125.659 149.264 125.993C151.169 126.743 153.506 127.326 156.023 127.285C158.638 127.243 160.557 126.312 160.529 124.506C160.501 122.867 158.985 121.922 155.328 121.019C150.126 119.699 146.372 117.518 146.288 112.961C146.219 108.849 149.167 105.667 154.368 104.723L154.326 102.125C154.312 101.291 154.98 100.597 155.814 100.583L157.344 100.555C158.179 100.541 158.874 101.208 158.888 102.041L158.93 104.375C161.433 104.431 163.269 104.82 164.729 105.306C165.48 105.556 165.897 106.348 165.702 107.112L165.132 109.363C164.91 110.224 164.006 110.724 163.157 110.419C161.808 109.933 159.917 109.446 157.469 109.488C154.368 109.544 153.506 110.836 153.534 111.989C153.561 113.406 155.439 114.337 159.486 115.504C165.271 117.129 167.691 119.463 167.774 123.756C167.844 127.688 164.993 131.272 159.347 132.258L159.402 135.162C159.416 135.996 158.749 136.69 157.914 136.704L156.385 136.732C155.522 136.76 154.841 136.093 154.827 135.259Z" fill="url(#paint37_linear)"/>
<defs>
<linearGradient id="paint0_linear" x1="432.614" y1="496.058" x2="91.8782" y2="72.4536" gradientUnits="userSpaceOnUse">
<stop stop-color="#DAE3FE"/>
<stop offset="1" stop-color="#E9EFFD"/>
</linearGradient>
<linearGradient id="paint1_linear" x1="331.04" y1="131.816" x2="325.472" y2="339.332" gradientUnits="userSpaceOnUse">
<stop stop-color="#43AF66"/>
<stop offset="1" stop-color="#117130"/>
</linearGradient>
<linearGradient id="paint2_linear" x1="26.0585" y1="146.358" x2="411.281" y2="453.072" gradientUnits="userSpaceOnUse">
<stop stop-color="#43AF66"/>
<stop offset="1" stop-color="#32E46C"/>
</linearGradient>
<linearGradient id="paint3_linear" x1="378.583" y1="414.672" x2="59.7193" y2="188.302" gradientUnits="userSpaceOnUse">
<stop stop-color="#4F52FF"/>
<stop offset="1" stop-color="#4042E2"/>
</linearGradient>
<linearGradient id="paint4_linear" x1="317.841" y1="200.99" x2="225.006" y2="310.431" gradientUnits="userSpaceOnUse">
<stop stop-color="#E1473D"/>
<stop offset="1" stop-color="#E9605A"/>
</linearGradient>
<linearGradient id="paint5_linear" x1="323.39" y1="205.699" x2="230.555" y2="315.14" gradientUnits="userSpaceOnUse">
<stop stop-color="#E1473D"/>
<stop offset="1" stop-color="#E9605A"/>
</linearGradient>
<linearGradient id="paint6_linear" x1="250.69" y1="48.2542" x2="255.712" y2="141.891" gradientUnits="userSpaceOnUse">
<stop stop-color="#4F52FF"/>
<stop offset="1" stop-color="#4042E2"/>
</linearGradient>
<linearGradient id="paint7_linear" x1="190.524" y1="51.4804" x2="195.546" y2="145.117" gradientUnits="userSpaceOnUse">
<stop stop-color="#4F52FF"/>
<stop offset="1" stop-color="#4042E2"/>
</linearGradient>
<linearGradient id="paint8_linear" x1="130.258" y1="54.7131" x2="135.28" y2="148.35" gradientUnits="userSpaceOnUse">
<stop stop-color="#4F52FF"/>
<stop offset="1" stop-color="#4042E2"/>
</linearGradient>
<linearGradient id="paint9_linear" x1="69.8182" y1="57.9553" x2="74.8405" y2="151.592" gradientUnits="userSpaceOnUse">
<stop stop-color="#4F52FF"/>
<stop offset="1" stop-color="#4042E2"/>
</linearGradient>
<linearGradient id="paint10_linear" x1="277.852" y1="123.613" x2="223.692" y2="270.702" gradientUnits="userSpaceOnUse">
<stop stop-color="#FF928E"/>
<stop offset="1" stop-color="#FE7062"/>
</linearGradient>
<linearGradient id="paint11_linear" x1="117.504" y1="199.097" x2="85.4779" y2="283.957" gradientUnits="userSpaceOnUse">
<stop stop-color="#FF928E"/>
<stop offset="1" stop-color="#FE7062"/>
</linearGradient>
<linearGradient id="paint12_linear" x1="362.63" y1="137.971" x2="314.475" y2="165.484" gradientUnits="userSpaceOnUse">
<stop stop-color="#FEBBBA"/>
<stop offset="1" stop-color="#FF928E"/>
</linearGradient>
<linearGradient id="paint13_linear" x1="356.331" y1="165.44" x2="334.668" y2="217.925" gradientUnits="userSpaceOnUse">
<stop stop-color="#4F52FF"/>
<stop offset="1" stop-color="#4042E2"/>
</linearGradient>
<linearGradient id="paint14_linear" x1="357.969" y1="144.822" x2="522.717" y2="41.5816" gradientUnits="userSpaceOnUse">
<stop stop-color="#FEBBBA"/>
<stop offset="1" stop-color="#FF928E"/>
</linearGradient>
<linearGradient id="paint15_linear" x1="347.915" y1="179.128" x2="316.079" y2="226.15" gradientUnits="userSpaceOnUse">
<stop stop-color="#4F52FF"/>
<stop offset="1" stop-color="#4042E2"/>
</linearGradient>
<linearGradient id="paint16_linear" x1="317.501" y1="103.479" x2="277.92" y2="146.899" gradientUnits="userSpaceOnUse">
<stop stop-color="#E1473D"/>
<stop offset="1" stop-color="#E9605A"/>
</linearGradient>
<linearGradient id="paint17_linear" x1="309.173" y1="44.6275" x2="288.25" y2="68.8065" gradientUnits="userSpaceOnUse">
<stop stop-color="#43AF66"/>
<stop offset="1" stop-color="#43AF66"/>
</linearGradient>
<linearGradient id="paint18_linear" x1="307.58" y1="85.509" x2="194.117" y2="195.068" gradientUnits="userSpaceOnUse">
<stop stop-color="#E1473D"/>
<stop offset="1" stop-color="#E9605A"/>
</linearGradient>
<linearGradient id="paint19_linear" x1="278.247" y1="122.136" x2="230.254" y2="122.136" gradientUnits="userSpaceOnUse">
<stop stop-color="#FEBBBA"/>
<stop offset="1" stop-color="#FF928E"/>
</linearGradient>
<linearGradient id="paint20_linear" x1="323.474" y1="32.4599" x2="281.548" y2="104.139" gradientUnits="userSpaceOnUse">
<stop stop-color="#FEBBBA"/>
<stop offset="1" stop-color="#FF928E"/>
</linearGradient>
<linearGradient id="paint21_linear" x1="296.147" y1="84.609" x2="316.997" y2="44.6665" gradientUnits="userSpaceOnUse">
<stop stop-color="#FEBBBA"/>
<stop offset="1" stop-color="#FF928E"/>
</linearGradient>
<linearGradient id="paint22_linear" x1="322.24" y1="61.9669" x2="292.999" y2="67.8398" gradientUnits="userSpaceOnUse">
<stop stop-color="#43AF66"/>
<stop offset="1" stop-color="#0A6929"/>
</linearGradient>
<linearGradient id="paint23_linear" x1="291.367" y1="82.1137" x2="312.216" y2="42.1717" gradientUnits="userSpaceOnUse">
<stop stop-color="#FEBBBA"/>
<stop offset="1" stop-color="#FF928E"/>
</linearGradient>
<linearGradient id="paint24_linear" x1="280.448" y1="121.582" x2="305.179" y2="129.702" gradientUnits="userSpaceOnUse">
<stop stop-color="#09005D"/>
<stop offset="1" stop-color="#1A0F91"/>
</linearGradient>
<linearGradient id="paint25_linear" x1="345.609" y1="117.545" x2="119.805" y2="98.528" gradientUnits="userSpaceOnUse">
<stop stop-color="#09005D"/>
<stop offset="1" stop-color="#1A0F91"/>
</linearGradient>
<linearGradient id="paint26_linear" x1="165.025" y1="214.992" x2="197.285" y2="176.116" gradientUnits="userSpaceOnUse">
<stop stop-color="#FE9D00"/>
<stop offset="1" stop-color="#FE9D00"/>
</linearGradient>
<linearGradient id="paint27_linear" x1="222.496" y1="110.238" x2="182.464" y2="216.784" gradientUnits="userSpaceOnUse">
<stop stop-color="#FE9D00"/>
<stop offset="1" stop-color="#FFB73F"/>
</linearGradient>
<linearGradient id="paint28_linear" x1="211.54" y1="127.352" x2="198.119" y2="178.733" gradientUnits="userSpaceOnUse">
<stop stop-color="#FE9D00"/>
<stop offset="1" stop-color="#FE9D00"/>
</linearGradient>
<linearGradient id="paint29_linear" x1="169.963" y1="126.342" x2="217.988" y2="68.4672" gradientUnits="userSpaceOnUse">
<stop stop-color="#FE9D00"/>
<stop offset="1" stop-color="#FE9D00"/>
</linearGradient>
<linearGradient id="paint30_linear" x1="249.602" y1="2.05314" x2="203.207" y2="101.303" gradientUnits="userSpaceOnUse">
<stop stop-color="#FFA412"/>
<stop offset="1" stop-color="#FFB73F"/>
</linearGradient>
<linearGradient id="paint31_linear" x1="134.718" y1="289.966" x2="169.596" y2="199.515" gradientUnits="userSpaceOnUse">
<stop stop-color="#FE9D00"/>
<stop offset="1" stop-color="#FE9D00"/>
</linearGradient>
<linearGradient id="paint32_linear" x1="121.707" y1="246.265" x2="150.648" y2="211.388" gradientUnits="userSpaceOnUse">
<stop stop-color="#FE9D00"/>
<stop offset="1" stop-color="#FE9D00"/>
</linearGradient>
<linearGradient id="paint33_linear" x1="179.505" y1="143.472" x2="135.939" y2="247.43" gradientUnits="userSpaceOnUse">
<stop stop-color="#FE9D00"/>
<stop offset="1" stop-color="#FFB73F"/>
</linearGradient>
<linearGradient id="paint34_linear" x1="113.599" y1="358.493" x2="124.393" y2="317.047" gradientUnits="userSpaceOnUse">
<stop stop-color="#FE9D00"/>
<stop offset="1" stop-color="#FE9D00"/>
</linearGradient>
<linearGradient id="paint35_linear" x1="117.109" y1="163.907" x2="155.401" y2="117.762" gradientUnits="userSpaceOnUse">
<stop stop-color="#FE9D00"/>
<stop offset="1" stop-color="#FE9D00"/>
</linearGradient>
<linearGradient id="paint36_linear" x1="168.333" y1="57.4058" x2="149.027" y2="152.385" gradientUnits="userSpaceOnUse">
<stop stop-color="#FE9D00"/>
<stop offset="1" stop-color="#FE9D00"/>
</linearGradient>
<linearGradient id="paint37_linear" x1="177.605" y1="42.2585" x2="156.414" y2="120.745" gradientUnits="userSpaceOnUse">
<stop stop-color="#FE9D00"/>
<stop offset="1" stop-color="#FE9D00"/>
</linearGradient>
</defs>
</svg>
