<svg width="468" height="342" viewBox="0 0 468 342" fill="none" xmlns="http://www.w3.org/2000/svg">
<g clip-path="url(#clip0)">
<path d="M21.1204 119.854C25.0746 113.706 29.8721 109.021 34.7633 104.204C36.3187 102.668 37.9491 101.187 39.617 99.7813C40.3666 99.1441 41.1162 98.5256 41.8658 97.9071C51.4795 89.8856 62.7237 84.1131 74.8111 81.2644C75.2047 81.1706 75.5795 81.0769 75.973 81.002C87.3483 78.5468 98.7986 77.1224 110.624 78.0408C122.674 78.4718 134.761 80.0836 147.186 81.9765C148.779 82.2202 150.372 82.4076 151.983 82.5575C157.118 83.0261 161.916 83.4197 166.769 83.1948C186.053 83.1385 202.526 75.5294 217.405 64.7715C224.845 59.3926 231.892 53.264 238.732 46.9293C281.722 -9.38994 369.482 -16.1557 422.367 32.8917C424.391 34.9158 425.684 37.0523 427.446 39.2639C432.824 46.6669 436.685 54.7634 438.746 63.7407C442.138 79.0903 439.796 93.5777 435.317 107.822C433.817 112.563 432.093 117.305 430.257 122.009C424.691 136.047 417.907 150.497 420.587 165.846C424.616 188.861 438.577 207.078 447.442 229.231C461.497 264.26 433.611 297.264 400.61 302.474C395.288 303.486 390.246 304.086 384.962 304.873C358.426 307.816 334.869 295.184 309.982 286.413C295.046 281.483 278.967 280.678 265.156 289.149C236.333 306.129 210.846 325.827 179.044 334.186C174.472 335.572 169.843 336.809 165.195 337.821C151.252 340.895 137.085 342.151 123.273 340.726C117.745 340.164 112.273 339.152 106.913 337.69C47.4879 323.671 -2.73592 269.789 0.112597 204.248C0.637323 192.329 1.61181 180.484 3.95434 168.882C5.95955 159.38 8.15215 150.141 11.5816 140.639C12.7622 137.715 13.6618 134.997 14.8799 132.092C16.8476 127.369 18.9278 123.265 21.1204 119.854Z" fill="#BFEBF2"/>
<path d="M273.645 313.589C276.643 308.716 281.066 305.23 285.826 303.525C290.586 301.838 295.721 301.913 300.181 304.124C304.641 306.336 307.546 310.29 308.651 314.882C309.738 319.474 308.951 324.759 305.99 329.632C303.011 334.505 298.401 338.084 293.397 339.884C288.375 341.683 283.015 341.702 278.573 339.49C274.132 337.279 271.396 333.23 270.534 328.526C269.653 323.841 270.646 318.481 273.645 313.589Z" fill="#BFEBF2"/>
<path d="M128.015 39.546C130.282 25.2647 145.124 16.2499 158.58 17.6555C165.739 18.3677 171.717 21.685 175.765 26.4267C179.794 31.1684 181.93 37.3345 181.199 43.8379C180.468 50.3226 177.039 55.9264 172.073 59.7122C160.904 68.1461 144.825 65.8971 134.724 56.6761C129.926 52.178 127.19 46.1432 128.015 39.546Z" fill="#BFEBF2"/>
<path d="M199.096 53.8076L205.093 49.1596C206.03 48.4474 207.323 48.4474 208.26 49.1596L212.683 52.5894C213.62 53.3016 214.913 53.3016 215.85 52.5894L220.273 49.1596C221.21 48.4474 222.503 48.4474 223.44 49.1596L227.862 52.5894C228.799 53.3016 230.093 53.3016 231.03 52.5894L235.452 49.1596C236.389 48.4474 237.682 48.4474 238.619 49.1596L243.023 52.5706C243.96 53.3016 245.272 53.2828 246.19 52.5706L252.112 47.9414" stroke="white" stroke-width="7.2385" stroke-miterlimit="10"/>
<path d="M65.1599 287.819L71.1568 283.171C72.0938 282.459 73.3869 282.459 74.3239 283.171L78.7466 286.601C79.6836 287.313 80.9767 287.313 81.9137 286.601L86.3364 283.171C87.2734 282.459 88.5664 282.459 89.5035 283.171L93.9262 286.601C94.8632 287.313 96.1562 287.313 97.0932 286.601L101.516 283.171C102.453 282.459 103.746 282.459 104.683 283.171L109.087 286.582C110.024 287.313 111.336 287.295 112.254 286.582L118.176 281.953" stroke="white" stroke-width="7.2385" stroke-miterlimit="10"/>
<path d="M361.555 297.677L367.552 293.029C368.489 292.317 369.782 292.317 370.719 293.029L375.142 296.459C376.079 297.171 377.372 297.171 378.309 296.459L382.732 293.029C383.669 292.317 384.962 292.317 385.899 293.029L390.321 296.459C391.258 297.171 392.551 297.171 393.488 296.459L397.911 293.029C398.848 292.317 400.141 292.317 401.078 293.029L405.482 296.44C406.419 297.171 407.731 297.152 408.649 296.44L414.571 291.811" stroke="white" stroke-width="7.2385" stroke-miterlimit="10"/>
<path d="M54.1406 48.8799C56.0036 48.8799 57.5138 47.3695 57.5138 45.5063C57.5138 43.6432 56.0036 42.1328 54.1406 42.1328C52.2776 42.1328 50.7673 43.6432 50.7673 45.5063C50.7673 47.3695 52.2776 48.8799 54.1406 48.8799Z" stroke="white" stroke-width="7.2385" stroke-miterlimit="10"/>
<path d="M111.823 123.772C112.475 123.772 113.004 123.243 113.004 122.591C113.004 121.939 112.475 121.41 111.823 121.41C111.171 121.41 110.642 121.939 110.642 122.591C110.642 123.243 111.171 123.772 111.823 123.772Z" stroke="white" stroke-width="7.2385" stroke-miterlimit="10"/>
<path d="M143.475 303.713C145.142 303.713 146.492 302.362 146.492 300.695C146.492 299.029 145.142 297.678 143.475 297.678C141.809 297.678 140.458 299.029 140.458 300.695C140.458 302.362 141.809 303.713 143.475 303.713Z" stroke="white" stroke-width="7.2385" stroke-miterlimit="10"/>
<path d="M32.758 252.922C34.1552 252.922 35.2879 251.789 35.2879 250.391C35.2879 248.994 34.1552 247.861 32.758 247.861C31.3607 247.861 30.228 248.994 30.228 250.391C30.228 251.789 31.3607 252.922 32.758 252.922Z" stroke="white" stroke-width="7.2385" stroke-miterlimit="10"/>
<path d="M432.505 133.405C433.437 133.405 434.192 132.65 434.192 131.718C434.192 130.786 433.437 130.031 432.505 130.031C431.574 130.031 430.819 130.786 430.819 131.718C430.819 132.65 431.574 133.405 432.505 133.405Z" stroke="white" stroke-width="7.2385" stroke-miterlimit="10"/>
<path d="M307.133 46.0686C308.22 46.0686 309.101 45.1875 309.101 44.1007C309.101 43.0139 308.22 42.1328 307.133 42.1328C306.047 42.1328 305.166 43.0139 305.166 44.1007C305.166 45.1875 306.047 46.0686 307.133 46.0686Z" stroke="white" stroke-width="5.5654" stroke-miterlimit="10"/>
<path d="M148.498 40.9331L151.384 38.0469" stroke="white" stroke-width="7.2385" stroke-miterlimit="10"/>
<path d="M153.651 35.7976L156.537 32.8926" stroke="white" stroke-width="7.2385" stroke-miterlimit="10"/>
<path d="M148.498 32.8926L151.384 35.7976" stroke="white" stroke-width="7.2385" stroke-miterlimit="10"/>
<path d="M153.651 38.0469L156.537 40.9331" stroke="white" stroke-width="7.2385" stroke-miterlimit="10"/>
<path d="M267.254 265.966L270.14 263.08" stroke="white" stroke-width="7.2385" stroke-miterlimit="10"/>
<path d="M272.408 260.812L275.294 257.926" stroke="white" stroke-width="7.2385" stroke-miterlimit="10"/>
<path d="M267.254 257.926L270.14 260.812" stroke="white" stroke-width="7.2385" stroke-miterlimit="10"/>
<path d="M272.408 263.08L275.294 265.966" stroke="white" stroke-width="7.2385" stroke-miterlimit="10"/>
<path d="M325.874 123.828L328.779 120.941" stroke="white" stroke-width="7.2385" stroke-miterlimit="10"/>
<path d="M331.027 118.673L333.932 115.787" stroke="white" stroke-width="7.2385" stroke-miterlimit="10"/>
<path d="M325.874 115.787L328.779 118.673" stroke="white" stroke-width="7.2385" stroke-miterlimit="10"/>
<path d="M331.027 120.941L333.932 123.828" stroke="white" stroke-width="7.2385" stroke-miterlimit="10"/>
<path opacity="0.19" d="M174.846 315.892L162.778 311.357L174.846 306.84H308.427V315.892H174.846Z" fill="#2D7C99"/>
<path d="M310.938 301.818H177.357V310.889H310.938V301.818Z" fill="#3D5473"/>
<path opacity="0.17" d="M177.357 310.889V306.354H310.938C310.938 308.865 310.938 308.265 310.938 310.889H177.357Z" fill="#081B33"/>
<path d="M165.307 306.785V305.811L177.357 302.381V310.215L165.307 306.785Z" fill="white"/>
<path d="M163.808 306.299C163.808 306.205 163.883 306.13 163.977 306.111L167.369 305.137V307.461L163.977 306.486C163.865 306.467 163.808 306.392 163.808 306.299Z" fill="#42474D"/>
<path d="M60.6246 165.473L59.4814 161.855" stroke="white" stroke-width="5.143" stroke-miterlimit="10"/>
<path d="M63.0046 165.66L65.6095 160.656" stroke="white" stroke-width="5.143" stroke-miterlimit="10"/>
<path d="M64.7288 167.666L68.3644 166.561" stroke="white" stroke-width="5.143" stroke-miterlimit="10"/>
<path opacity="0.19" d="M92.7452 262.499L47.5251 277.099C45.9321 277.624 44.208 276.743 43.6833 275.131L15.8728 188.9C15.3481 187.307 16.2289 185.583 17.8406 185.058L63.0607 170.458C64.6536 169.934 66.3777 170.814 66.9024 172.426L94.7317 258.657C95.2377 260.269 94.3569 261.975 92.7452 262.499Z" fill="#2D7C99"/>
<path d="M88.866 260.869L43.6459 275.469C42.0529 275.993 40.3288 275.112 39.8041 273.501L11.9749 187.269C11.4502 185.676 12.3309 183.952 13.9426 183.427L59.1628 168.827C60.7557 168.303 62.4798 169.184 63.0045 170.795L90.8337 257.027C91.3397 258.638 90.4589 260.344 88.866 260.869Z" fill="#48404E"/>
<path d="M87.704 258.489L43.1772 272.864C42.7087 273.014 42.184 272.751 42.0341 272.283L14.5234 186.951C14.3735 186.483 14.6359 185.958 15.1044 185.808L59.6311 171.433C60.0996 171.283 60.6244 171.545 60.7743 172.014L88.3037 257.327C88.4536 257.833 88.1912 258.339 87.704 258.489Z" fill="#48404E"/>
<g opacity="0.36">
<path opacity="0.36" d="M17.9155 188.187L27.5855 185.076" stroke="white" stroke-width="5.1393" stroke-miterlimit="10" stroke-linecap="round"/>
<path opacity="0.36" d="M53.6343 265.665L75.0356 258.768" stroke="white" stroke-width="5.1393" stroke-miterlimit="10" stroke-linecap="round"/>
<path opacity="0.36" d="M53.8218 176.604L58.6567 175.049" stroke="white" stroke-width="5.1393" stroke-miterlimit="10" stroke-linecap="round"/>
<path opacity="0.36" d="M50.2986 177.747L52.2288 177.109" stroke="white" stroke-width="5.1393" stroke-miterlimit="10" stroke-linecap="round"/>
</g>
<path opacity="0.19" d="M57.8135 192.366L13.3242 206.759C12.2935 207.097 11.7313 208.203 12.0686 209.233L16.6787 223.458C17.016 224.489 18.1217 225.052 19.1524 224.714L54.2154 213.375L59.219 215.193L58.3195 212.045L63.6417 210.32C64.6724 209.983 65.2346 208.877 64.8973 207.846L60.2872 193.621C59.9499 192.609 58.8442 192.028 57.8135 192.366Z" fill="#363636"/>
<path d="M54.5528 190.717L10.0635 205.111C9.03277 205.448 8.47056 206.554 8.80789 207.585L13.418 221.81C13.7553 222.841 14.861 223.403 15.8917 223.066L50.9546 211.727L55.9583 213.545L55.0587 210.396L60.381 208.672C61.4117 208.334 61.9739 207.229 61.6366 206.198L57.0265 191.973C56.7079 190.942 55.5835 190.38 54.5528 190.717Z" fill="#F2F2F2"/>
<path d="M16.7163 212.533L20.5581 214.482L23.6877 207.061" stroke="#05BD7A" stroke-width="7.6487" stroke-miterlimit="10" stroke-linecap="square"/>
<path d="M29.572 206.179L53.2409 198.514" stroke="#D4D4D4" stroke-width="6.2682" stroke-miterlimit="10" stroke-linecap="square"/>
<path d="M30.8464 210.096L39.3732 207.322" stroke="#D4D4D4" stroke-width="6.2682" stroke-miterlimit="10" stroke-linecap="square"/>
<path opacity="0.19" d="M66.5464 218.83L22.0571 233.224C21.0264 233.561 20.4642 234.667 20.8015 235.698L25.4116 249.923C25.749 250.954 26.8546 251.516 27.8853 251.179L62.9483 239.84L67.9519 241.658L67.0524 238.509L72.3746 236.785C73.4053 236.448 73.9675 235.342 73.6302 234.311L69.0201 220.086C68.6828 219.055 67.5771 218.493 66.5464 218.83Z" fill="#363636"/>
<path d="M63.2857 217.162L18.7964 231.556C17.7657 231.893 17.2035 232.999 17.5408 234.03L22.1509 248.255C22.4882 249.286 23.5939 249.848 24.6246 249.511L59.6875 238.172L64.6912 239.99L63.7917 236.841L69.1139 235.117C70.1446 234.78 70.7068 233.674 70.3695 232.643L65.7594 218.418C65.4221 217.387 64.3164 216.825 63.2857 217.162Z" fill="#F2F2F2"/>
<path d="M25.4492 238.977L29.291 240.945L32.4206 233.523" stroke="#05BD7A" stroke-width="7.6487" stroke-miterlimit="10" stroke-linecap="square"/>
<path d="M38.3049 232.625L61.9738 224.979" stroke="#D4D4D4" stroke-width="6.2682" stroke-miterlimit="10" stroke-linecap="square"/>
<path d="M39.5605 236.542L48.1061 233.787" stroke="#D4D4D4" stroke-width="6.2682" stroke-miterlimit="10" stroke-linecap="square"/>
<g opacity="0.14">
<g opacity="0.14">
<path opacity="0.14" d="M17.3347 123.509L76.1603 69.3262L97.9177 69.5886" stroke="#4D4D4D" stroke-width="17.5758" stroke-miterlimit="10" stroke-linecap="round"/>
<path opacity="0.14" d="M87.8168 58.6055L28.9725 112.788L27.4358 134.472" stroke="#4D4D4D" stroke-width="17.5758" stroke-miterlimit="10" stroke-linecap="round"/>
</g>
<g opacity="0.14">
<path opacity="0.14" d="M49.9052 99.9321C56.7641 107.391 56.2956 118.993 48.837 125.852C41.3784 132.712 29.7782 132.243 22.9193 124.784C16.0604 117.325 16.5289 105.723 23.9875 98.8638C27.7168 95.4341 32.4768 93.841 37.1618 94.0285C41.8469 94.2159 46.4757 96.2025 49.9052 99.9321Z" stroke="#4D4D4D" stroke-width="17.5758" stroke-miterlimit="10" stroke-linecap="round"/>
<path opacity="0.14" d="M75.8415 94.384C85.9741 94.384 94.1882 86.1692 94.1882 76.0358C94.1882 65.9023 85.9741 57.6875 75.8415 57.6875C65.709 57.6875 57.4949 65.9023 57.4949 76.0358C57.4949 86.1692 65.709 94.384 75.8415 94.384Z" stroke="#4D4D4D" stroke-width="17.5758" stroke-miterlimit="10" stroke-linecap="round"/>
</g>
<path opacity="0.14" d="M37.1619 94.0278L37.5554 92.8846C40.6288 84.0946 48.2936 77.7037 57.495 76.2793" stroke="#4D4D4D" stroke-width="14.8595" stroke-miterlimit="10" stroke-linecap="round"/>
</g>
<path d="M11.1504 124.97L60.0624 79.9333C67.7084 72.8863 77.7531 69.0442 88.1352 69.1567L94.4319 69.2317" stroke="#626B82" stroke-width="18.1632" stroke-miterlimit="10" stroke-linecap="round"/>
<path d="M83.9748 57.9121L35.775 102.312C27.6979 109.752 22.7505 120.004 21.9634 130.968L21.5886 136.309" stroke="#626B82" stroke-width="18.1632" stroke-miterlimit="10" stroke-linecap="round"/>
<g opacity="0.57">
<path opacity="0.57" d="M44.8079 100.607C51.8917 108.309 51.4045 120.304 43.7022 127.389C36 134.473 24.0063 133.986 16.9224 126.283C9.8199 118.599 10.3071 106.604 18.0094 99.5008C21.8699 95.9586 26.7798 94.3093 31.6335 94.4968C36.4872 94.7029 41.2473 96.7645 44.8079 100.607Z" fill="white"/>
<path opacity="0.57" d="M71.6065 94.8905C82.0806 94.8905 90.5716 86.3988 90.5716 75.9238C90.5716 65.4487 82.0806 56.957 71.6065 56.957C61.1323 56.957 52.6414 65.4487 52.6414 75.9238C52.6414 86.3988 61.1323 94.8905 71.6065 94.8905Z" fill="white"/>
</g>
<path d="M44.8079 100.607C51.8917 108.309 51.4045 120.304 43.7022 127.389C36 134.473 24.0063 133.986 16.9224 126.283C9.8199 118.599 10.3071 106.604 18.0094 99.5008C21.8699 95.9586 26.7798 94.3093 31.6335 94.4968C36.4872 94.7029 41.2473 96.7645 44.8079 100.607Z" stroke="#626B82" stroke-width="5.8582" stroke-miterlimit="10" stroke-linecap="round"/>
<path d="M71.6065 94.8905C82.0806 94.8905 90.5716 86.3988 90.5716 75.9238C90.5716 65.4487 82.0806 56.957 71.6065 56.957C61.1323 56.957 52.6414 65.4487 52.6414 75.9238C52.6414 86.3988 61.1323 94.8905 71.6065 94.8905Z" stroke="#626B82" stroke-width="5.8582" stroke-miterlimit="10" stroke-linecap="round"/>
<path d="M31.6335 94.5162L32.0458 93.3355C35.2317 84.2457 43.14 77.6486 52.6601 76.168" stroke="#626B82" stroke-width="5.8582" stroke-miterlimit="10" stroke-linecap="round"/>
<g opacity="0.69">
<path opacity="0.69" d="M89.3533 76.487C89.5033 73.0198 88.6412 69.74 87.0295 66.9474L60.3435 61.9434C57.1576 64.5485 54.8713 68.2406 54.0842 72.4763L89.091 79.0359C89.2222 78.2113 89.3159 77.3492 89.3533 76.487Z" fill="white"/>
</g>
<g opacity="0.69">
<path opacity="0.69" d="M48.6497 114.137C48.7996 110.67 47.9375 107.39 46.3259 104.598L19.621 99.5938C16.4352 102.199 14.1489 105.891 13.3618 110.127L48.3686 116.686C48.5185 115.843 48.6122 115 48.6497 114.137Z" fill="white"/>
</g>
<path opacity="0.19" d="M404.939 114.663C430.348 114.663 450.946 94.0631 450.946 68.6518C450.946 43.2405 430.348 22.6406 404.939 22.6406C379.53 22.6406 358.931 43.2405 358.931 68.6518C358.931 94.0631 379.53 114.663 404.939 114.663Z" fill="#2D7C99"/>
<path d="M399.635 108.198C425.044 108.198 445.642 87.5983 445.642 62.187C445.642 36.7757 425.044 16.1758 399.635 16.1758C374.226 16.1758 353.628 36.7757 353.628 62.187C353.628 87.5983 374.226 108.198 399.635 108.198Z" fill="#F2F2F2"/>
<path d="M423.154 79.543L436.816 89.3075" stroke="white" stroke-width="26.3973" stroke-miterlimit="10" stroke-linecap="round"/>
<path d="M399.635 92.8667C416.578 92.8667 430.313 79.1306 430.313 62.1863C430.313 45.2419 416.578 31.5059 399.635 31.5059C382.692 31.5059 368.958 45.2419 368.958 62.1863C368.958 79.1306 382.692 92.8667 399.635 92.8667Z" fill="white"/>
<path d="M399.635 87.7328C413.742 87.7328 425.178 76.2959 425.178 62.1877C425.178 48.0795 413.742 36.6426 399.635 36.6426C385.528 36.6426 374.092 48.0795 374.092 62.1877C374.092 76.2959 385.528 87.7328 399.635 87.7328Z" fill="#B38A5D"/>
<path d="M424.335 64.7368C424.335 77.0314 413.278 86.9833 399.635 86.9833C385.992 86.9833 374.936 77.0314 374.936 64.7368C374.936 56.6216 378.384 51.2614 385.58 47.3631C389.291 45.3577 396.243 47.3631 400.872 47.3631C406.607 47.3631 408.837 44.8517 413.034 47.8129C415.096 49.256 416.726 50.4368 418.188 52.3859C420.812 55.9281 424.335 60.1638 424.335 64.7368Z" fill="#61370B"/>
<path d="M386.311 59.6177C387.998 59.6177 389.365 58.2499 389.365 56.5627C389.365 54.8755 387.998 53.5078 386.311 53.5078C384.624 53.5078 383.256 54.8755 383.256 56.5627C383.256 58.2499 384.624 59.6177 386.311 59.6177Z" fill="#B38A5D"/>
<path d="M392.607 55.5326C393.725 55.5326 394.631 54.6264 394.631 53.5085C394.631 52.3906 393.725 51.4844 392.607 51.4844C391.49 51.4844 390.583 52.3906 390.583 53.5085C390.583 54.6264 391.49 55.5326 392.607 55.5326Z" fill="#B38A5D"/>
<path opacity="0.23" d="M375.292 75.2492C386.18 75.2492 395.006 66.4219 395.006 55.5328C395.006 44.6437 386.18 35.8164 375.292 35.8164C364.403 35.8164 355.577 44.6437 355.577 55.5328C355.577 66.4219 364.403 75.2492 375.292 75.2492Z" fill="white"/>
<path opacity="0.23" d="M378.745 64.161C394.494 50.3465 398.68 29.3634 388.094 17.2939C377.509 5.2244 356.161 6.63898 340.412 20.4535C324.664 34.2679 320.477 55.2511 331.063 67.3206C341.648 79.3901 362.996 77.9755 378.745 64.161Z" fill="white"/>
<path opacity="0.19" d="M432.993 241.937L361.874 211.07C360.506 210.47 359.868 208.877 360.468 207.509L391.914 135.053L467.999 168.076L436.553 240.532C435.954 241.9 434.361 242.518 432.993 241.937Z" fill="#2D7C99"/>
<path d="M432.843 239.314L356.758 206.291L389.778 130.199L465.863 163.222L432.843 239.314Z" fill="#F2F2F2"/>
<path d="M459.922 176.885L383.837 143.862L389.778 130.199L465.863 163.222L459.922 176.885Z" fill="url(#paint0_linear)"/>
<path opacity="0.38" d="M411.685 148.229L437.715 159.53" stroke="#FADDA3" stroke-width="11.3446" stroke-miterlimit="10" stroke-linecap="square"/>
<path d="M402.446 143.805L398.548 142.118L403.233 131.342L407.131 133.029L402.446 143.805Z" fill="#3C3542"/>
<path d="M451.171 164.946L447.273 163.259L451.939 152.482L455.837 154.169L451.171 164.946Z" fill="#3C3542"/>
<path d="M413.443 170.028L403.903 165.887L399.762 175.428L409.303 179.569L413.443 170.028Z" fill="#D8CCE8"/>
<path d="M429.22 176.881L419.68 172.74L415.539 182.282L425.08 186.423L429.22 176.881Z" fill="#D8CCE8"/>
<path d="M445.015 183.744L435.474 179.604L431.334 189.145L440.874 193.286L445.015 183.744Z" fill="#D8CCE8"/>
<path d="M391.387 177.594L381.846 173.453L377.706 182.995L387.246 187.136L391.387 177.594Z" fill="#D8CCE8"/>
<path d="M407.181 184.457L397.64 180.316L393.499 189.858L403.04 193.999L407.181 184.457Z" fill="#D8CCE8"/>
<path d="M422.965 191.293L413.424 187.152L409.284 196.694L418.824 200.835L422.965 191.293Z" fill="#D8CCE8"/>
<path d="M438.759 198.157L429.219 194.016L425.078 203.557L434.619 207.698L438.759 198.157Z" fill="#D8CCE8"/>
<path d="M385.124 192.026L375.583 187.885L371.442 197.426L380.983 201.567L385.124 192.026Z" fill="#D8CCE8"/>
<path d="M400.925 198.869L391.385 194.729L387.244 204.27L396.785 208.411L400.925 198.869Z" fill="#D8CCE8"/>
<path d="M416.703 205.723L407.163 201.582L403.022 211.124L412.563 215.264L416.703 205.723Z" fill="#FF4F70"/>
<path d="M451.342 223.364L448.694 221.012L444.474 225.762L447.122 228.114L451.342 223.364Z" fill="white"/>
<path d="M422.479 254.496L452.801 220.367L454.019 221.454L424.785 254.365C424.204 255.021 423.154 255.096 422.479 254.496Z" fill="#4B67A6"/>
<path opacity="0.15" d="M388.897 295.878L379.133 300.076L382.15 289.881L449.878 213.639C451.527 211.765 454.394 211.596 456.249 213.264C458.123 214.913 458.292 217.781 456.624 219.636L388.897 295.878Z" fill="#36367D"/>
<path d="M386.498 291.062L379.752 285.064L447.479 208.822C449.128 206.948 451.996 206.78 453.851 208.448C455.725 210.097 455.893 212.964 454.226 214.82L386.498 291.062Z" fill="#4B67A6"/>
<path opacity="0.17" d="M386.498 291.061L383.125 288.063L453.851 208.447C455.725 210.097 455.893 212.964 454.225 214.819L386.498 291.061Z" fill="#175196"/>
<path d="M428.019 244.316L421.266 238.316L419.773 239.998L426.526 245.998L428.019 244.316Z" fill="white"/>
<path d="M377.053 295.541L376.341 294.885L380.164 285.439L385.992 290.631L377.053 295.541Z" fill="white"/>
<path opacity="0.09" d="M377.053 295.541L376.341 294.885L383.706 288.588L385.992 290.631L377.053 295.541Z" fill="#36367D"/>
<path d="M375.891 296.103C375.835 296.047 375.798 295.953 375.835 295.878L376.903 293.217L378.627 294.754L376.116 296.141C376.06 296.178 375.966 296.159 375.891 296.103Z" fill="#177FFF"/>
<path d="M286.013 101.335L284.777 93.1074" stroke="#BB99E8" stroke-width="8.9713" stroke-miterlimit="10"/>
<path d="M291.111 102.554L298.42 92.6211" stroke="#BB99E8" stroke-width="8.9713" stroke-miterlimit="10"/>
<path d="M294.147 107.484L302.374 106.322" stroke="#BB99E8" stroke-width="8.9713" stroke-miterlimit="10"/>
<path opacity="0.24" d="M129.945 224.789L339.386 195.289C342.515 194.839 344.708 191.953 344.258 188.804L326.661 63.9275C326.211 60.7976 323.325 58.6048 320.177 59.0546L110.755 88.573C107.625 89.0228 105.433 91.9091 105.882 95.0577L123.48 219.935C123.911 223.046 126.797 225.239 129.945 224.789Z" fill="#4B979E"/>
<path d="M127.64 222.877L337.08 193.359C340.21 192.909 342.403 190.023 341.953 186.874L324.356 62.0349C323.906 58.905 321.02 56.7122 317.872 57.162L108.45 86.6617C105.32 87.1115 103.128 89.9977 103.577 93.1464L121.174 218.023C121.605 221.134 124.491 223.327 127.64 222.877Z" fill="#5D6FBA"/>
<path d="M207.942 211.576L337.08 193.378C340.21 192.928 342.403 190.042 341.953 186.893L324.356 62.0349C323.906 58.905 321.02 56.7122 317.872 57.162L261.52 65.1086L207.942 211.576Z" fill="#5163A8"/>
<path d="M165.251 161.853L136.86 165.864C134.93 166.145 133.149 164.796 132.868 162.865L130.263 144.442C129.982 142.512 131.332 140.731 133.262 140.45L161.672 136.439C163.602 136.158 165.383 137.508 165.664 139.438L168.269 157.861C168.531 159.792 167.182 161.591 165.251 161.853Z" fill="url(#paint1_linear)"/>
<path opacity="0.3" d="M126.065 107.821L179.906 100.23" stroke="white" stroke-width="19.3032" stroke-miterlimit="10" stroke-linecap="square"/>
<path opacity="0.3" d="M127.471 117.811L209.666 106.229" stroke="white" stroke-width="19.3032" stroke-miterlimit="10" stroke-linecap="square"/>
<path d="M306.346 176.36L289.649 178.721C288.581 178.871 287.775 177.803 288.187 176.828L296.039 158.218C296.227 157.768 296.639 157.449 297.108 157.393L313.805 155.032C314.873 154.882 315.679 155.95 315.267 156.925L307.415 175.535C307.227 175.985 306.815 176.285 306.346 176.36Z" fill="#F6921E"/>
<path d="M283.052 179.639L266.355 182.001C265.287 182.151 264.481 181.082 264.893 180.108L272.745 161.497C272.933 161.047 273.345 160.729 273.813 160.673L290.511 158.311C291.579 158.161 292.385 159.229 291.973 160.204L284.12 178.815C283.933 179.264 283.521 179.583 283.052 179.639Z" fill="#F6921E"/>
<g opacity="0.31">
<path opacity="0.31" d="M282.884 137.452C290.346 137.452 296.395 131.402 296.395 123.939C296.395 116.476 290.346 110.426 282.884 110.426C275.421 110.426 269.372 116.476 269.372 123.939C269.372 131.402 275.421 137.452 282.884 137.452Z" stroke="white" stroke-width="19.3032" stroke-miterlimit="10" stroke-linecap="square"/>
<path opacity="0.31" d="M282.884 144.106C294.02 144.106 303.048 135.077 303.048 123.94C303.048 112.802 294.02 103.773 282.884 103.773C271.747 103.773 262.719 112.802 262.719 123.94C262.719 135.077 271.747 144.106 282.884 144.106Z" stroke="white" stroke-width="19.3032" stroke-miterlimit="10" stroke-linecap="square"/>
<path opacity="0.31" d="M282.884 150.74C297.684 150.74 309.682 138.741 309.682 123.939C309.682 109.138 297.684 97.1387 282.884 97.1387C268.083 97.1387 256.085 109.138 256.085 123.939C256.085 138.741 268.083 150.74 282.884 150.74Z" stroke="white" stroke-width="19.3032" stroke-miterlimit="10" stroke-linecap="square"/>
</g>
<path opacity="0.24" d="M283.915 150.533L285.92 164.814L300.762 270.219L302.955 285.756L284.758 276.347L269.691 289.148L251.681 280.995L236.614 293.796L218.605 285.643L203.538 298.444L201.533 284.163L186.69 178.796L184.685 164.515L202.694 172.667L217.762 159.867L235.771 168.019L250.838 155.219L268.847 163.371L283.915 150.533Z" fill="#08494F"/>
<path d="M280.166 148.604L282.172 162.885L297.014 268.289L299.019 282.57L281.01 274.417L265.943 287.218L247.933 279.065L232.866 291.866L214.857 283.713L199.79 296.514L197.784 282.233L182.942 176.829L180.937 162.547L198.946 170.7L214.014 157.899L232.023 166.052L247.09 153.251L265.099 161.404L280.166 148.604Z" fill="#F2F2F2"/>
<path d="M203.332 211.632L236.464 206.965" stroke="#D4D4D4" stroke-width="12.8969" stroke-miterlimit="10" stroke-linecap="square"/>
<path d="M258.803 203.817L272.202 201.924" stroke="#D4D4D4" stroke-width="12.8969" stroke-miterlimit="10" stroke-linecap="square"/>
<path d="M204.55 220.292L228.706 216.881" stroke="#D4D4D4" stroke-width="12.8969" stroke-miterlimit="10" stroke-linecap="square"/>
<path d="M260.021 212.477L273.42 210.584" stroke="#D4D4D4" stroke-width="12.8969" stroke-miterlimit="10" stroke-linecap="square"/>
<path d="M205.768 228.949L238.9 224.264" stroke="#D4D4D4" stroke-width="12.8969" stroke-miterlimit="10" stroke-linecap="square"/>
<path d="M261.239 221.135L274.657 219.242" stroke="#D4D4D4" stroke-width="12.8969" stroke-miterlimit="10" stroke-linecap="square"/>
<path d="M206.986 237.609L240.119 232.924" stroke="#D4D4D4" stroke-width="12.8969" stroke-miterlimit="10" stroke-linecap="square"/>
<path d="M262.457 229.793L275.875 227.9" stroke="#D4D4D4" stroke-width="12.8969" stroke-miterlimit="10" stroke-linecap="square"/>
<path d="M208.204 246.247L237.008 242.199" stroke="#D4D4D4" stroke-width="12.8969" stroke-miterlimit="10" stroke-linecap="square"/>
<path d="M263.675 238.433L277.093 236.559" stroke="#D4D4D4" stroke-width="12.8969" stroke-miterlimit="10" stroke-linecap="square"/>
<path d="M209.422 254.907L242.574 250.24" stroke="#D4D4D4" stroke-width="12.8969" stroke-miterlimit="10" stroke-linecap="square"/>
<path d="M264.893 247.093L278.311 245.219" stroke="#D4D4D4" stroke-width="12.8969" stroke-miterlimit="10" stroke-linecap="square"/>
<path d="M213.226 192.591L257.453 186.369" stroke="#D4D4D4" stroke-width="12.8969" stroke-miterlimit="10" stroke-linecap="square"/>
<path d="M215.85 228.313L230.58 239.408L271.865 181.533" stroke="#78BA23" stroke-width="51.2126" stroke-miterlimit="10"/>
</g>
<defs>
<linearGradient id="paint0_linear" x1="409.725" y1="146.978" x2="485.815" y2="179.998" gradientUnits="userSpaceOnUse">
<stop stop-color="#EDA03C"/>
<stop offset="1" stop-color="#F5211B"/>
</linearGradient>
<linearGradient id="paint1_linear" x1="146.378" y1="130.664" x2="153.438" y2="180.774" gradientUnits="userSpaceOnUse">
<stop stop-color="#FFE887"/>
<stop offset="0.174" stop-color="#FDDF7B"/>
<stop offset="0.4853" stop-color="#F8C65D"/>
<stop offset="0.8953" stop-color="#EF9E2B"/>
<stop offset="1" stop-color="#ED931D"/>
</linearGradient>
<clipPath id="clip0">
<rect width="468" height="341.326" fill="white"/>
</clipPath>
</defs>
</svg>
