<svg width="667" height="482" viewBox="0 0 667 482" fill="none" xmlns="http://www.w3.org/2000/svg">
<path opacity="0.8" d="M649.284 426.968C667.244 396.66 672.576 360.459 660.509 324.82C646.477 283.006 618.134 268.133 606.348 233.055C597.929 207.798 598.209 182.261 605.225 158.688L604.944 158.408C609.154 137.922 608.312 116.594 601.016 95.2667C577.162 24.2681 493.816 -15.5809 414.679 5.74671C333.297 27.9162 316.741 89.6542 316.741 89.6542C304.674 125.574 273.805 155.602 230.588 167.388C187.091 179.174 159.309 169.913 123.389 179.735C31.6235 204.711 -20.2925 291.706 7.48958 374.21C14.2246 393.854 24.8884 411.533 38.3585 426.687H649.284V426.968Z" fill="#F4E6E6"/>
<g opacity="0.8">
<g opacity="0.8">
<path opacity="0.8" d="M524.405 413.216V368.035H511.215V290.021L503.919 278.796H471.927V350.075H449.477L442.742 339.692H428.711V246.243H415.521V218.461H405.138V247.927H398.403V353.162H381.566V372.245H372.866V273.464H363.325L340.313 308.262V377.015H328.246V356.529H320.389V288.618C320.389 288.618 317.302 261.678 300.464 261.678V242.034H290.642V373.367H282.224V389.082H248.829V333.799H242.094V314.716H230.027V310.787V292.546H212.909V379.541H204.49V357.371H183.162V312.19H178.392V413.497H524.405V413.216Z" fill="#F4E6E6"/>
</g>
</g>
<path d="M315.618 397.784L302.99 397.503C296.816 389.084 291.484 378.14 288.678 364.95L298.5 364.389L287.836 360.741C286.714 354.567 286.152 348.113 286.152 340.816C286.152 340.816 303.832 342.22 321.792 351.48L322.634 359.899L324.318 352.883C335.262 358.776 345.645 368.037 352.38 381.227L349.293 394.697L354.906 385.997C357.151 391.61 358.835 397.784 359.396 404.799C359.957 418.269 359.396 426.408 359.396 426.408H338.91C338.91 426.408 320.95 419.673 306.077 401.151L315.618 397.784Z" fill="#52C7A3"/>
<path d="M355.187 410.692C356.029 402.834 358.274 396.38 361.641 390.767L364.728 397.222L363.606 387.961C370.06 379.262 378.759 373.93 386.617 370.562L387.178 376.175L388.862 369.72C398.684 366.072 407.103 365.23 407.103 365.23C407.103 375.333 405.419 383.752 402.893 391.048L397.561 392.732L402.051 393.293C397.842 403.396 391.949 410.692 386.336 415.743L375.953 416.305L382.688 418.83C375.673 424.162 369.779 426.407 369.779 426.407H355.187C355.187 426.127 354.906 420.233 355.187 410.692Z" fill="#78C7C7"/>
<path opacity="0.25" d="M391.949 380.946C395.035 377.859 401.771 370.844 401.771 370.844C401.771 370.844 393.913 376.176 390.545 378.982C363.886 404.238 358.273 424.724 357.993 425.847L359.115 426.127H360.238C361.08 423.602 367.534 403.958 391.949 380.946Z" fill="white"/>
<path opacity="0.21" d="M351.819 426.128H354.064C352.1 419.393 339.752 382.631 302.429 352.884C299.342 350.358 291.765 346.43 291.765 346.43C291.765 346.43 297.658 352.042 300.465 354.287C336.665 382.911 349.294 417.99 351.819 426.128Z" fill="white"/>
<path d="M378.759 426.968C378.759 427.529 378.198 428.091 377.637 428.091H331.053C330.491 428.091 329.93 427.529 329.93 426.968C329.93 426.407 330.491 425.846 331.053 425.846H377.637C378.479 426.126 378.759 426.407 378.759 426.968Z" fill="#E8DBE0"/>
<path d="M139.665 480.846C144.716 463.167 149.206 450.258 152.012 444.645C187.933 430.053 205.893 376.173 209.821 366.631C213.75 357.09 222.169 350.916 236.481 353.722C250.793 356.248 270.156 361.019 282.504 355.687C294.851 350.355 291.203 340.533 276.611 336.323C262.018 332.114 236.481 321.45 236.481 321.45L226.659 235.298C226.659 235.298 165.202 190.959 150.89 203.306C150.89 203.306 92.8 289.739 90.555 309.103C88.31 330.992 87.7487 366.351 74.5593 410.97C70.9111 423.598 58.8442 449.977 43.4097 481.127H139.665V480.846Z" fill="url(#paint0_linear)"/>
<path opacity="0.3" d="M151.171 203.307C151.171 203.307 149.206 206.394 145.839 211.445C144.997 233.615 143.594 278.796 141.629 281.882C139.104 286.092 128.44 301.246 128.44 301.246C128.44 301.246 147.803 284.408 156.222 277.673C162.957 272.341 160.151 221.548 158.748 200.781C155.099 201.062 152.854 201.904 151.171 203.307Z" fill="#FEB783"/>
<path opacity="0.3" d="M232.553 331.273L231.991 327.344L167.728 327.905L160.993 346.146L237.043 332.956C234.236 332.114 232.553 331.273 232.553 331.273Z" fill="#FEB783"/>
<path d="M291.765 218.741C291.765 218.741 308.883 218.46 309.725 231.65C310.567 244.839 301.587 250.452 291.765 251.574H288.958L289.239 219.583L291.765 218.741Z" fill="url(#paint1_linear)"/>
<path d="M291.484 279.638C291.484 279.638 314.495 275.709 313.934 294.23C313.653 308.823 295.132 309.945 290.923 311.349L287.274 310.787L288.678 281.041L291.484 279.638Z" fill="url(#paint2_linear)"/>
<path opacity="0.2" d="M150.89 440.998C147.803 435.104 138.542 432.018 138.261 432.018H137.7C137.7 432.018 146.961 436.788 149.767 441.84C150.048 442.401 150.609 443.804 151.17 445.207C151.17 444.926 151.451 444.646 151.451 444.365C151.732 444.365 151.732 444.085 152.012 444.085C151.732 443.243 151.451 442.12 150.89 440.998Z" fill="#FEB783"/>
<path d="M165.482 38.2969C156.221 38.2969 148.645 45.8738 148.645 55.1345V317.801C148.645 327.062 156.221 334.639 165.482 334.639H275.488C284.749 334.639 292.326 327.062 292.326 317.801V55.1345C292.326 45.8738 284.749 38.2969 275.488 38.2969H165.482Z" fill="#EBEBEB"/>
<path d="M293.729 129.219C293.729 130.342 293.168 131.184 292.606 131.184C292.045 131.184 291.484 130.342 291.484 129.219V99.7534C291.484 98.6309 292.045 97.7891 292.606 97.7891C293.168 97.7891 293.729 98.6309 293.729 99.7534V129.219Z" fill="#EBEBEB"/>
<path d="M149.206 138.481C149.206 139.604 148.645 140.445 148.083 140.445C147.522 140.445 146.961 139.604 146.961 138.481V121.363C146.961 120.24 147.522 119.398 148.083 119.398C148.645 119.398 149.206 120.24 149.206 121.363V138.481Z" fill="#EBEBEB"/>
<path d="M149.206 114.628C149.206 115.75 148.645 116.592 148.083 116.592C147.522 116.592 146.961 115.75 146.961 114.628V97.5093C146.961 96.3868 147.522 95.5449 148.083 95.5449C148.645 95.5449 149.206 96.3868 149.206 97.5093V114.628Z" fill="#EBEBEB"/>
<path d="M149.206 89.0892C149.206 90.2118 148.645 91.0536 148.083 91.0536C147.522 91.0536 146.961 90.2118 146.961 89.0892V77.5835C146.961 76.461 147.522 75.6191 148.083 75.6191C148.645 75.6191 149.206 76.461 149.206 77.5835V89.0892Z" fill="#EBEBEB"/>
<path d="M291.484 317.801C291.484 326.781 284.188 333.797 275.488 333.797H165.483C156.502 333.797 149.487 326.501 149.487 317.801V55.1344C149.487 46.435 156.783 39.1387 165.483 39.1387H275.488C284.468 39.1387 291.484 46.435 291.484 55.1344V317.801Z" fill="url(#paint3_linear)"/>
<path opacity="0.2" d="M144.435 446.049C143.313 449.416 138.542 462.606 132.088 480.285H139.665C144.716 462.606 149.206 449.697 152.012 444.084C173.621 435.385 188.775 412.374 198.035 393.291C189.897 404.235 172.498 426.686 161.554 431.737C151.171 436.508 140.226 432.298 138.823 431.737C139.945 432.579 147.803 436.227 144.435 446.049Z" fill="#FEB783"/>
<path opacity="0.2" d="M199.438 318.365C199.438 321.171 201.683 323.697 204.77 323.697H234.797C237.604 323.697 240.129 321.452 240.129 318.365C240.129 315.559 237.884 313.033 234.797 313.033H204.77C201.683 313.033 199.438 315.278 199.438 318.365Z" fill="url(#paint4_linear)"/>
<path d="M286.994 70.0078H152.854V304.051H286.994V70.0078Z" fill="url(#paint5_linear)"/>
<path opacity="0.1" d="M283.626 304.051L152.854 112.382V151.39L256.967 304.051H283.626ZM152.854 70.0078V92.458L286.994 289.178V212.566L189.897 70.0078H152.854Z" fill="url(#paint6_linear)"/>
<path d="M277.733 160.653C277.733 162.617 276.049 164.301 274.085 164.301H166.044C164.079 164.301 162.396 162.617 162.396 160.653V102.002C162.396 100.037 164.079 98.3535 166.044 98.3535H274.085C276.049 98.3535 277.733 100.037 277.733 102.002V160.653Z" fill="#FCD652"/>
<path d="M243.497 136.799C243.497 139.324 241.532 141.289 239.007 141.289H175.866C173.34 141.289 171.375 139.324 171.375 136.799C171.375 134.273 173.34 132.309 175.866 132.309H239.007C241.532 132.309 243.497 134.273 243.497 136.799Z" fill="#FEAD30"/>
<path d="M267.911 115.754C267.911 118.28 265.947 120.244 263.421 120.244H200.28C197.754 120.244 195.79 118.28 195.79 115.754C195.79 113.228 197.754 111.264 200.28 111.264H263.421C265.666 110.983 267.911 113.228 267.911 115.754Z" fill="#FEAD30"/>
<path d="M210.102 151.392C210.102 153.918 208.138 155.882 205.612 155.882H175.866C173.34 155.882 171.375 153.918 171.375 151.392C171.375 148.867 173.34 146.902 175.866 146.902H205.612C208.138 146.902 210.102 148.867 210.102 151.392Z" fill="#FEAD30"/>
<path d="M270.437 154.48C270.437 157.006 268.472 158.97 265.947 158.97H255.002C252.477 158.97 250.512 157.006 250.512 154.48C250.512 151.955 252.477 149.99 255.002 149.99H265.947C268.192 149.99 270.437 151.955 270.437 154.48Z" fill="#FEAD30"/>
<path d="M176.988 118.557H185.968V115.19H176.988V118.557ZM175.865 115.47H172.217V118.838H175.865V115.47ZM175.865 110.98H172.217V114.348H175.865V110.98ZM185.968 110.98H176.988V114.348H185.968V110.98ZM185.407 120.522H177.549C176.988 120.522 176.427 120.241 176.146 119.68H172.217V121.925C172.217 123.047 173.059 124.17 174.462 124.17H188.494C189.616 124.17 190.739 123.328 190.739 121.925V119.68H186.81C186.529 120.241 185.968 120.522 185.407 120.522ZM188.494 105.648H174.462C173.34 105.648 172.217 106.49 172.217 107.893V110.138H176.146C176.427 109.858 176.988 109.297 177.549 109.297H185.407C185.968 109.297 186.529 109.577 186.81 110.138H190.739V107.893C190.739 106.771 189.616 105.648 188.494 105.648ZM187.091 114.348H190.739V110.98H187.091V114.348ZM187.091 118.557H190.739V115.19H187.091V118.557Z" fill="white"/>
<path d="M264.824 266.729C264.824 272.341 260.334 276.551 255.002 276.551H183.443C177.83 276.551 173.621 272.061 173.621 266.729C173.621 261.116 178.111 256.907 183.443 256.907H254.722C260.334 256.626 264.824 261.116 264.824 266.729Z" fill="url(#paint7_linear)"/>
<path d="M193.264 263.644H190.458V271.221H189.055V263.644H186.249V262.521H193.264V263.644Z" fill="white"/>
<path d="M198.315 267.851H196.632V271.218H195.229V262.238H198.315C198.877 262.238 199.157 262.238 199.719 262.519C199.999 262.519 200.56 262.8 200.841 263.08C201.122 263.361 201.402 263.641 201.402 263.922C201.683 264.203 201.683 264.764 201.683 265.045C201.683 265.606 201.402 266.167 201.122 266.448C200.841 266.728 200.56 267.29 199.999 267.29L201.964 270.938H200.28L198.315 267.851ZM196.632 266.448H198.315C198.596 266.448 198.877 266.448 199.157 266.448C199.438 266.448 199.438 266.167 199.719 266.167C199.719 266.167 199.999 265.886 199.999 265.606C199.999 265.325 199.999 265.325 199.999 265.045C199.999 264.764 199.999 264.483 199.999 264.483C199.999 264.203 199.719 264.203 199.719 263.922C199.719 263.922 199.438 263.641 199.157 263.641C198.877 263.641 198.596 263.641 198.315 263.641H196.632V266.448Z" fill="white"/>
<path d="M208.699 268.975H205.331L204.489 270.939H202.806L206.173 261.959H207.576L210.944 270.939H209.26L208.699 268.975ZM205.612 267.852H208.138L206.734 264.204L205.612 267.852Z" fill="white"/>
<path d="M219.643 271.218H218.24L214.311 265.045V271.218H212.908V262.238H214.311L218.24 268.693V262.238H219.643V271.218Z" fill="white"/>
<path d="M226.659 268.975C226.659 268.694 226.659 268.694 226.659 268.413L226.378 268.133C226.378 268.133 226.098 267.852 225.817 267.852C225.536 267.852 225.256 267.572 224.975 267.572C224.414 267.572 224.133 267.291 223.853 267.01C223.572 266.73 223.291 266.73 223.011 266.449C222.73 266.168 222.45 265.888 222.45 265.607C222.169 265.327 222.169 265.046 222.169 264.765C222.169 264.485 222.169 264.204 222.45 263.643C222.73 263.362 222.73 263.082 223.011 262.801C223.291 262.52 223.572 262.52 224.133 262.24C224.414 262.24 224.975 261.959 225.536 261.959C226.098 261.959 226.378 261.959 226.94 262.24C227.22 262.24 227.781 262.52 228.062 262.801C228.343 263.082 228.623 263.362 228.623 263.643C228.904 263.923 228.904 264.204 228.904 264.765H227.501C227.501 264.485 227.501 264.485 227.501 264.204C227.501 263.923 227.22 263.923 227.22 263.643C227.22 263.643 226.94 263.362 226.659 263.362C226.378 263.362 226.098 263.362 225.817 263.362C225.536 263.362 225.256 263.362 224.975 263.362C224.695 263.362 224.695 263.643 224.414 263.643L224.133 263.923C224.133 264.204 224.133 264.204 224.133 264.485C224.133 264.765 224.414 265.046 224.695 265.326C224.975 265.607 225.536 265.607 226.098 265.888C226.659 266.168 226.94 266.168 227.501 266.449C227.781 266.73 228.062 266.73 228.343 267.01C228.623 267.291 228.904 267.572 228.904 267.852C228.904 268.133 229.185 268.413 229.185 268.694C229.185 268.975 229.185 269.536 228.904 269.817C228.623 270.097 228.623 270.378 228.343 270.658C228.062 270.939 227.781 270.939 227.22 271.22C226.94 271.22 226.378 271.5 225.817 271.5C225.256 271.5 224.975 271.5 224.414 271.22C224.133 271.22 223.572 270.939 223.291 270.658C223.011 270.378 222.73 270.097 222.45 269.817C222.169 269.536 222.169 268.975 222.169 268.694H223.572C223.572 268.975 223.572 269.255 223.853 269.536C223.853 269.817 224.133 269.817 224.133 270.097C224.414 270.097 224.414 270.378 224.695 270.378C224.975 270.378 225.256 270.378 225.536 270.378C226.098 270.378 226.378 270.378 226.659 270.097C226.659 269.536 226.659 269.255 226.659 268.975Z" fill="white"/>
<path d="M235.358 267.291H231.71V270.939H230.307V261.959H235.919V263.081H231.71V265.607H235.358V267.291Z" fill="white"/>
<path d="M242.935 267.29H239.287V270.096H243.497V271.218H237.604V262.238H243.497V263.361H239.287V265.886H242.935V267.29Z" fill="white"/>
<path d="M248.548 267.851H246.864V271.218H245.461V262.238H248.548C249.109 262.238 249.39 262.238 249.951 262.519C250.232 262.519 250.793 262.8 251.073 263.08C251.354 263.361 251.635 263.641 251.635 263.922C251.915 264.203 251.915 264.764 251.915 265.045C251.915 265.606 251.635 266.167 251.354 266.448C251.073 266.728 250.793 267.29 250.232 267.29L252.196 270.938H250.512L248.548 267.851ZM246.864 266.448H248.548C248.828 266.448 249.109 266.448 249.39 266.448C249.67 266.448 249.67 266.167 249.951 266.167C249.951 266.167 250.232 265.886 250.232 265.606C250.232 265.325 250.232 265.325 250.232 265.045C250.232 264.764 250.232 264.483 250.232 264.483C250.232 264.203 249.951 264.203 249.951 263.922C249.951 263.922 249.67 263.641 249.39 263.641C249.109 263.641 248.828 263.641 248.548 263.641H246.864V266.448Z" fill="white"/>
<path d="M231.43 212.004C231.43 212.004 220.485 225.193 215.995 230.525C213.47 226.877 210.663 222.387 210.663 222.387C209.541 220.703 207.015 220.142 205.332 221.264C203.648 222.387 203.086 224.913 204.209 226.596L212.347 238.944C212.908 240.066 214.031 240.628 215.434 240.628C216.557 240.628 217.679 240.066 218.521 239.225L237.323 216.774C238.726 215.091 238.445 212.846 236.762 211.442C235.359 210.32 232.833 210.32 231.43 212.004Z" fill="white"/>
<path d="M202.806 194.606C202.806 194.326 202.806 194.045 202.806 193.764C202.806 193.484 202.525 193.203 202.244 193.203C201.964 192.923 201.683 192.923 201.402 192.642C201.122 192.361 200.561 192.361 200.28 192.081C199.719 191.8 198.877 191.519 198.316 191.239C197.754 190.958 197.193 190.677 196.912 190.116C196.632 189.836 196.071 189.274 196.071 188.713C195.79 188.152 195.79 187.591 195.79 187.029C195.79 186.468 195.79 185.907 196.071 185.346C196.351 184.784 196.632 184.504 196.912 183.942C197.193 183.662 197.754 183.381 198.316 183.101C198.877 182.82 199.438 182.82 199.999 182.539V180.014H201.683V182.539C202.244 182.539 202.806 182.82 203.367 183.101C203.928 183.381 204.209 183.662 204.489 184.223C204.77 184.784 205.051 185.065 205.331 185.626C205.612 186.187 205.612 186.749 205.612 187.591H203.086C203.086 187.029 203.086 186.749 202.806 186.468C202.806 186.187 202.525 185.907 202.244 185.626C201.964 185.346 201.683 185.065 201.402 185.065C201.122 185.065 200.841 184.784 200.561 184.784C200.28 184.784 199.719 184.784 199.438 185.065C199.157 185.065 198.877 185.346 198.877 185.626C198.596 185.907 198.596 186.187 198.596 186.187C198.596 186.468 198.596 186.749 198.596 187.029C198.596 187.31 198.596 187.591 198.596 187.871C198.596 188.152 198.877 188.432 199.157 188.432C199.438 188.713 199.719 188.713 199.999 188.994C200.28 189.274 200.841 189.274 201.402 189.555C202.244 189.836 202.806 190.116 203.367 190.397C203.928 190.677 204.489 190.958 204.77 191.519C205.051 191.8 205.331 192.361 205.612 192.923C205.892 193.484 205.892 194.045 205.892 194.606C205.892 195.168 205.892 195.729 205.612 196.29C205.331 196.851 205.051 197.132 204.77 197.693C204.489 197.974 203.928 198.254 203.367 198.535C202.806 198.816 202.244 198.816 201.683 199.096V201.341H199.999V199.096C199.438 199.096 198.877 198.816 198.316 198.816C197.754 198.535 197.193 198.254 196.912 197.974C196.632 197.693 196.071 197.132 195.79 196.571C195.509 196.009 195.509 195.168 195.509 194.326H198.035C198.035 194.887 198.035 195.448 198.316 195.729C198.596 196.009 198.596 196.29 198.877 196.571C199.157 196.851 199.438 196.851 199.719 197.132C199.999 197.132 200.28 197.132 200.561 197.132C201.402 197.132 201.964 196.851 202.525 196.571C202.525 195.729 202.806 195.168 202.806 194.606Z" fill="white"/>
<path d="M218.521 198.816H207.857V196.852L212.908 191.239C213.469 190.678 213.75 190.397 214.031 189.836C214.311 189.555 214.592 188.994 214.592 188.714C214.873 188.433 214.873 188.152 214.873 187.872C214.873 187.591 214.873 187.31 214.873 187.03C214.873 186.749 214.873 186.188 214.592 185.907C214.592 185.627 214.311 185.346 214.031 185.065C213.75 184.785 213.469 184.785 213.189 184.504C212.908 184.504 212.628 184.224 212.066 184.224C211.505 184.224 211.224 184.224 210.944 184.504C210.663 184.785 210.383 184.785 210.102 185.065C209.821 185.346 209.821 185.627 209.541 185.907C209.541 186.188 209.26 186.749 209.26 187.03H206.734C206.734 186.469 206.734 185.627 207.015 185.065C207.296 184.504 207.576 183.943 208.138 183.382C208.699 182.82 209.26 182.54 209.821 182.259C210.383 181.979 211.224 181.979 212.066 181.979C212.908 181.979 213.469 181.979 214.311 182.259C214.873 182.54 215.434 182.82 215.995 183.101C216.556 183.382 216.837 183.943 216.837 184.504C217.118 185.065 217.118 185.627 217.118 186.188C217.118 186.749 217.118 187.31 216.837 187.591C216.556 188.152 216.556 188.433 216.276 188.994C215.995 189.555 215.714 189.836 215.153 190.397C214.873 190.959 214.311 191.239 213.75 191.8L210.102 195.729H217.398V198.816H218.521Z" fill="white"/>
<path d="M231.149 192.081C231.149 193.484 231.149 194.326 230.869 195.168C230.588 196.01 230.307 196.852 229.746 197.413C229.185 197.974 228.624 198.255 228.062 198.535C227.501 198.816 226.659 198.816 225.817 198.816C224.975 198.816 224.414 198.816 223.572 198.535C223.011 198.255 222.45 197.974 221.888 197.413C221.327 196.852 221.047 196.29 220.766 195.168C220.485 194.326 220.485 193.203 220.485 192.081V189.555C220.485 188.433 220.485 187.31 220.766 186.468C221.047 185.627 221.327 184.785 221.888 184.223C222.45 183.662 223.011 183.382 223.572 183.101C224.134 182.82 224.975 182.82 225.817 182.82C226.659 182.82 227.22 182.82 228.062 183.101C228.624 183.382 229.185 183.662 229.746 184.223C230.307 184.785 230.588 185.346 230.869 186.468C231.149 187.31 231.149 188.433 231.149 189.555V192.081ZM228.624 188.994C228.624 188.152 228.624 187.591 228.343 187.03C228.343 186.468 228.062 185.907 227.782 185.627C227.501 185.346 227.22 185.065 226.94 184.785C226.659 184.504 226.379 184.504 225.817 184.504C225.537 184.504 224.975 184.504 224.695 184.785C224.414 185.065 224.134 185.065 223.853 185.627C223.572 185.907 223.572 186.468 223.292 187.03C223.292 187.591 223.011 188.152 223.011 188.994V192.362C223.011 193.203 223.011 193.765 223.292 194.326C223.292 194.887 223.572 195.449 223.853 195.729C224.134 196.01 224.414 196.29 224.695 196.571C224.975 196.852 225.256 196.852 225.817 196.852C226.098 196.852 226.659 196.852 226.94 196.571C227.22 196.29 227.501 196.29 227.782 195.729C228.062 195.449 228.062 194.887 228.343 194.326C228.343 193.765 228.624 193.203 228.624 192.362V188.994Z" fill="white"/>
<path d="M244.058 192.081C244.058 193.484 244.058 194.326 243.777 195.168C243.497 196.01 243.216 196.852 242.655 197.413C242.093 197.974 241.532 198.255 240.971 198.535C240.41 198.816 239.568 198.816 238.726 198.816C237.884 198.816 237.323 198.816 236.481 198.535C235.92 198.255 235.358 197.974 234.797 197.413C234.236 196.852 233.955 196.29 233.675 195.168C233.394 194.326 233.394 193.203 233.394 192.081V189.555C233.394 188.433 233.394 187.31 233.675 186.468C233.955 185.627 234.236 184.785 234.797 184.223C235.358 183.662 235.92 183.382 236.481 183.101C237.042 182.82 237.884 182.82 238.726 182.82C239.568 182.82 240.129 182.82 240.971 183.101C241.532 183.382 242.093 183.662 242.655 184.223C243.216 184.785 243.497 185.346 243.777 186.468C244.058 187.31 244.058 188.433 244.058 189.555V192.081ZM241.532 188.994C241.532 188.152 241.532 187.591 241.252 187.03C241.252 186.468 240.971 185.907 240.69 185.627C240.41 185.346 240.129 185.065 239.848 184.785C239.568 184.504 239.287 184.504 238.726 184.504C238.445 184.504 237.884 184.504 237.603 184.785C237.323 185.065 237.042 185.065 236.762 185.627C236.481 185.907 236.481 186.468 236.2 187.03C236.2 187.591 235.92 188.152 235.92 188.994V192.362C235.92 193.203 235.92 193.765 236.2 194.326C236.2 194.887 236.481 195.449 236.762 195.729C237.042 196.01 237.323 196.29 237.603 196.571C237.884 196.852 238.165 196.852 238.726 196.852C239.007 196.852 239.568 196.852 239.848 196.571C240.129 196.29 240.41 196.29 240.69 195.729C240.971 195.449 240.971 194.887 241.252 194.326C241.252 193.765 241.532 193.203 241.532 192.362V188.994Z" fill="white"/>
<path d="M116.653 313.312C116.653 313.312 152.293 277.392 165.482 273.182C177.549 269.253 206.173 269.534 214.592 273.182C222.45 276.55 219.924 302.929 176.708 307.699C170.253 313.873 157.344 380.662 120.301 406.199L116.653 313.312Z" fill="url(#paint8_linear)"/>
<path opacity="0.2" d="M157.906 349.513C149.206 369.998 137.139 392.449 119.179 405.077C119.179 405.077 130.966 400.587 137.42 392.168C153.977 371.682 162.396 345.023 168.85 326.782L170.815 320.889C170.815 320.889 161.835 340.252 157.906 349.513Z" fill="#FEB783"/>
<path opacity="0.2" d="M111.883 321.729L117.495 314.714C117.776 314.433 135.736 294.228 150.89 282.441C150.89 282.441 138.823 290.018 133.772 294.508C123.669 303.769 122.827 304.33 120.021 307.698C113.847 314.994 111.883 321.729 111.883 321.729Z" fill="#FEB783"/>
<path d="M212.066 273.463C205.612 271.499 191.861 270.937 185.407 271.779C189.616 274.586 192.703 281.04 193.264 283.285C196.632 283.846 207.857 279.076 212.628 276.269C214.031 275.708 213.189 274.024 212.066 273.463Z" fill="url(#paint9_linear)"/>
<path opacity="0.2" d="M161.834 275.99C161.834 275.99 171.095 280.76 173.901 285.812C175.024 287.776 177.269 294.792 177.269 294.792C177.269 294.792 177.269 289.74 174.743 284.689C171.656 278.796 162.396 275.709 162.115 275.709L161.834 275.99Z" fill="#FEB783"/>
<path d="M454.528 208.078C496.622 221.548 526.088 216.216 526.088 216.216C526.088 216.216 528.333 251.856 528.333 279.919C528.333 307.981 527.211 413.497 527.211 413.497L510.934 412.094C510.934 398.063 496.622 256.346 491.852 256.346C489.045 256.346 488.484 275.429 488.484 294.231C488.484 313.033 493.816 412.375 493.816 412.375L476.698 413.778C474.172 389.083 458.738 306.017 455.09 251.856C454.528 240.631 454.528 214.252 454.528 208.078Z" fill="url(#paint10_linear)"/>
<path d="M490.729 411.814L484.275 412.656C484.275 412.656 469.682 414.901 463.228 427.249L483.433 425.004C483.433 425.004 484.556 421.356 485.959 421.075C487.362 420.795 488.765 424.443 488.765 424.443L492.975 423.881L490.729 411.814Z" fill="url(#paint11_linear)"/>
<path d="M514.021 412.094L520.476 412.374C520.476 412.374 535.068 413.777 542.365 425.844L522.159 424.722C522.159 424.722 520.756 421.074 519.353 421.074C517.95 421.074 516.828 424.441 516.828 424.441L512.618 424.161L514.021 412.094Z" fill="url(#paint12_linear)"/>
<path d="M471.366 72.8171C471.366 72.8171 472.208 82.6391 473.331 88.8129C474.453 94.9867 478.943 101.722 482.591 101.441C486.24 101.16 497.184 98.3542 500.832 84.3228C501.955 83.7616 508.69 79.8328 506.725 72.8171C504.761 65.8015 499.148 80.3941 499.148 81.5166C499.148 82.9197 498.306 77.8684 498.587 75.3428C498.868 72.8171 498.868 61.592 492.694 61.592C486.52 61.8727 477.54 62.9952 473.05 61.592C469.402 60.7502 471.086 70.5721 471.366 72.8171Z" fill="#FABB85"/>
<path d="M479.223 45.8755C484.555 42.7886 498.025 42.7886 499.709 50.6462C499.709 50.6462 507.286 51.7687 507.847 58.7844C508.409 64.6775 507.847 68.6063 506.444 72.2545C504.48 66.0807 498.867 80.112 498.867 81.5152C498.867 82.9183 498.025 77.867 498.306 75.3414C498.587 72.8157 498.587 61.5906 492.413 61.5906C486.239 61.8713 477.259 62.9938 472.769 61.5906C469.963 60.7488 470.524 66.6419 470.805 70.2901H470.524C470.524 70.2901 469.401 66.6419 468.279 61.8713C467.718 57.1006 472.769 49.8043 479.223 45.8755Z" fill="#51341D"/>
<path d="M473.892 91.0566C475.575 96.3885 479.224 101.44 482.591 101.159C485.678 100.878 493.535 98.9141 498.306 90.2147C499.429 85.444 499.429 82.9184 497.464 87.1278C494.658 93.021 491.29 94.1435 489.887 94.4241C489.326 88.2503 484.836 87.689 483.433 87.689C482.03 87.689 480.907 88.2503 479.223 87.9697C475.295 87.1278 474.172 90.2147 473.892 91.0566ZM476.417 91.0566C476.978 89.3728 479.224 89.9341 480.346 89.9341C482.591 90.2147 483.152 89.3728 484.836 89.6534C486.239 89.934 487.923 92.4597 487.081 94.4241C486.239 96.3885 483.714 96.1078 482.591 95.5466C481.469 94.9853 481.749 96.1078 480.065 95.8272C478.101 96.1078 475.856 92.7403 476.417 91.0566Z" fill="#51341D"/>
<path d="M477.54 98.0737C479.223 100.038 480.907 101.441 482.591 101.441C486.239 101.161 497.184 98.3543 500.832 84.323C501.112 84.323 501.393 84.0423 501.674 83.7617C501.674 83.7617 501.674 83.7617 501.674 84.0423L503.077 103.406C503.077 103.406 498.025 116.595 487.081 116.034C476.137 115.473 477.259 103.686 477.259 103.686L477.54 98.0737Z" fill="#FABB85"/>
<path opacity="0.35" d="M482.591 101.441C486.239 101.161 497.184 98.3543 500.832 84.323C501.113 84.323 501.393 84.0423 501.674 83.7617C501.674 83.7617 501.674 83.7617 501.674 84.0423L502.235 91.6193C500.271 94.9868 494.097 103.125 483.714 102.844C480.907 102.844 478.943 102.283 477.259 101.161V98.0737C478.943 100.038 480.907 101.441 482.591 101.441Z" fill="#FFBF00"/>
<path d="M455.931 191.521C455.931 188.434 459.018 152.233 459.018 141.85C459.018 131.467 459.579 114.91 459.579 114.91C459.579 114.91 473.611 105.929 477.54 103.123C477.54 103.123 476.417 114.91 487.362 115.471C498.306 116.032 503.357 102.843 503.357 102.843V101.439C503.357 101.439 521.317 108.455 524.685 111.823C524.685 122.486 526.369 203.588 526.369 215.935C526.369 215.935 497.184 231.37 455.089 218.18C451.722 215.374 455.931 194.608 455.931 191.521Z" fill="#43AF66"/>
<path opacity="0.15" d="M506.164 207.516C493.816 213.69 484.275 207.797 496.623 188.153C508.97 168.79 489.888 146.059 481.188 132.308C475.014 122.486 471.928 112.384 470.524 107.613C473.331 105.929 475.856 104.246 477.259 103.123H477.54C477.54 103.123 476.418 114.91 487.362 115.471C498.306 116.032 503.358 102.843 503.358 102.843V101.439C503.358 101.439 521.318 108.455 524.685 111.823C524.685 122.486 526.369 203.588 526.369 215.935C526.369 215.935 521.037 218.461 511.777 220.425C516.267 212.006 512.618 204.43 506.164 207.516Z" fill="#C6C7FF"/>
<path d="M480.907 159.529C480.627 160.371 480.627 161.213 481.188 162.055C482.31 163.177 485.397 161.774 489.326 157.845C490.449 156.723 492.974 158.126 492.974 158.126C492.974 158.126 491.01 159.81 490.449 161.494C490.168 162.335 490.168 164.58 490.168 166.264C490.168 166.264 487.642 165.984 485.959 164.861C484.275 163.739 482.591 163.739 480.907 163.458C479.504 162.616 478.662 160.652 480.907 159.529Z" fill="#FAA378"/>
<path d="M501.112 163.461C501.674 163.18 501.674 167.389 503.357 169.634C504.199 170.476 504.76 171.038 505.602 171.599C502.235 172.16 500.551 170.196 499.99 168.793C499.429 167.389 498.587 166.267 498.025 165.706C499.148 164.583 500.551 163.461 501.112 163.461Z" fill="#FAA378"/>
<path d="M459.58 115.191C459.58 115.191 455.09 117.998 451.161 121.926C447.232 125.855 446.671 138.764 444.145 148.586C441.619 158.408 435.165 168.791 435.165 175.526C435.165 182.261 437.41 189.277 442.742 192.083C447.793 194.889 459.299 189.838 459.299 189.838C459.299 189.838 443.584 187.593 452.003 176.368C450.319 175.807 450.6 173.842 450.6 171.878C450.6 169.914 459.018 157.005 459.018 154.479L459.58 115.191Z" fill="#C6C7FF"/>
<path opacity="0.45" d="M508.97 169.07L525.527 178.611C525.527 182.54 525.527 186.469 525.808 189.837L506.445 177.77C505.603 176.928 504.761 173.841 503.358 173.841C501.955 173.841 498.306 173.841 498.306 171.315C498.306 168.789 495.781 165.703 495.781 165.703L499.148 164.58L508.97 169.07Z" fill="#175D2E"/>
<path opacity="0.3" d="M454.809 218.462C457.896 219.304 460.702 220.146 463.509 220.988C464.07 237.545 466.034 280.761 472.769 333.8C477.54 371.123 480.908 401.431 483.153 413.498L476.698 414.059C474.173 389.364 458.738 306.299 455.09 252.138C454.529 243.999 454.248 228.845 454.248 218.182C454.809 218.182 454.809 218.182 454.809 218.462Z" fill="url(#paint13_linear)"/>
<path d="M508.97 169.072C508.689 172.159 507.847 174.685 507.847 174.685C507.847 174.685 506.444 172.72 506.444 170.756C506.444 169.914 507.847 169.353 508.97 169.072Z" fill="#94B0C7"/>
<path opacity="0.45" d="M524.685 119.121C524.685 119.121 523.282 125.295 522.72 135.117C522.44 140.729 523.001 161.215 523.001 161.215L500.832 156.725L512.337 166.828L528.894 169.353L531.981 163.18L524.685 119.121Z" fill="#3A8D5A"/>
<path d="M524.405 112.105C524.405 112.105 533.104 116.315 535.349 121.366C537.594 126.698 547.135 162.338 549.381 174.124C551.626 185.91 548.258 191.523 532.824 185.91C517.108 180.298 507.848 174.685 507.848 174.685C507.848 174.685 511.496 165.986 507.006 158.97C507.006 158.97 519.915 163.18 525.527 164.302C525.527 164.302 523.563 147.745 523.563 134.836L524.405 112.105Z" fill="#339854"/>
<path d="M478.381 155.322C478.943 154.761 480.907 153.638 484.275 152.235C487.642 150.832 490.168 151.674 492.413 152.796C498.025 151.954 498.025 153.638 498.867 154.48C499.428 153.919 500.551 154.48 501.954 155.883C503.357 157.286 507.005 159.531 507.286 159.812C509.812 164.302 509.25 169.073 508.689 172.16C506.725 172.721 504.76 171.598 503.357 169.915C501.393 167.669 501.393 163.46 501.112 163.741C500.551 164.021 497.464 166.266 496.903 167.389C496.342 168.511 496.061 169.915 494.938 169.915C493.816 169.915 493.255 168.231 493.255 168.231C492.974 169.073 490.729 168.231 490.729 167.108C490.729 165.986 490.448 162.338 490.729 161.215C491.29 159.812 493.255 157.848 493.255 157.848C493.255 157.848 490.448 156.725 489.607 157.567C485.678 161.496 482.591 162.899 481.468 161.776C480.346 160.654 481.188 158.128 483.994 156.164C480.626 157.848 477.82 155.883 478.381 155.322Z" fill="#FABB85"/>
<path d="M493.816 164.301C492.974 165.704 492.694 168.23 492.694 168.23L492.974 167.949C492.974 167.949 492.974 168.23 493.255 168.23C493.255 168.23 493.536 165.985 494.377 164.582C495.219 163.179 498.587 159.531 498.587 159.25C498.587 159.25 494.658 162.898 493.816 164.301ZM483.152 156.444C483.433 156.444 483.433 156.444 483.714 156.163C483.714 156.163 487.362 154.199 487.362 153.918L483.433 155.882C483.152 156.163 483.152 156.444 483.152 156.444ZM493.255 157.847C493.255 157.847 496.622 155.882 496.622 155.602C496.622 155.602 493.255 157.286 492.974 157.566C492.974 157.847 493.255 157.847 493.255 157.847Z" fill="#FAA378"/>
<path opacity="0.45" d="M455.932 191.522C455.932 190.68 456.212 187.874 456.493 184.226L469.963 178.613L481.188 177.771L490.168 182.262C490.168 182.262 483.994 181.42 481.469 182.823C479.224 183.945 463.228 193.767 455.09 198.819C455.651 195.451 455.932 192.645 455.932 191.522Z" fill="#3A8D5A"/>
<path opacity="0.45" d="M459.299 121.084C459.299 121.084 460.422 139.044 460.422 143.253C460.422 147.463 460.702 153.075 462.947 154.759C465.754 156.724 471.647 158.688 476.698 161.775C479.224 163.178 455.37 162.056 455.37 162.056L453.967 149.427L459.299 121.084Z" fill="#C6C7FF"/>
<path d="M459.58 115.191C459.58 115.191 455.09 117.998 451.161 121.926C447.232 125.855 446.671 138.764 444.145 148.586C441.619 158.408 435.165 168.791 435.165 175.526C435.165 182.261 437.41 189.277 442.742 192.083C447.793 194.889 459.299 189.838 459.299 189.838C459.299 189.838 443.584 187.593 452.003 176.368C451.722 174.404 451.441 173.842 451.441 171.878C451.441 169.914 459.299 157.005 459.299 154.479L459.58 115.191Z" fill="#29904B"/>
<path opacity="0.3" d="M526.368 216.217C526.368 216.217 528.613 251.856 528.613 279.919C528.613 307.982 527.491 413.498 527.491 413.498L521.878 412.936C521.037 390.767 519.353 334.361 519.353 309.946C519.353 282.445 514.863 234.177 513.74 220.707C521.598 218.742 526.368 216.217 526.368 216.217Z" fill="url(#paint14_linear)"/>
<path opacity="0.45" d="M449.196 161.775C449.196 161.775 449.758 166.546 449.758 167.949C449.758 169.352 449.477 174.684 450.319 175.526C451.161 176.368 446.39 183.945 451.161 185.348C455.651 186.751 456.773 178.894 456.773 178.894L453.686 171.597L452.564 163.459L449.196 161.775Z" fill="#C6C7FF"/>
<path d="M394.474 62.9953C377.917 54.2959 345.365 78.1492 328.808 69.4497C332.736 62.4341 336.665 55.1377 340.875 48.1221C357.151 55.699 388.862 32.1263 404.858 39.9839C401.49 47.5608 397.842 55.4184 394.474 62.9953Z" fill="#FE9D00"/>
<path opacity="0.5" d="M400.648 39.985C384.933 36.8981 359.677 53.4551 343.962 50.6488C343.4 51.7713 341.997 52.3326 340.594 52.0519C337.788 57.1032 335.262 61.8739 332.456 66.9252C333.579 67.4864 334.14 68.6089 333.579 69.4508C349.574 73.099 375.392 56.542 391.388 60.1901C391.949 59.0676 393.352 58.2257 394.475 58.787C397 53.4551 399.245 48.1232 401.771 42.7913C400.648 42.23 400.087 41.1075 400.648 39.985Z" fill="white"/>
<path d="M378.479 51.7692C376.515 55.9786 369.779 60.7492 363.325 62.7136C356.871 64.678 353.784 62.7136 356.029 58.5042C358.274 54.2948 364.728 49.5241 371.183 47.5598C377.356 45.3147 380.724 47.2791 378.479 51.7692Z" fill="#FE9D00"/>
<path d="M391.107 49.8047C390.826 50.6466 389.423 51.4885 388.581 51.4885C387.459 51.4885 386.898 50.9272 387.459 50.0853C387.74 49.2435 389.143 48.4016 390.265 48.4016C391.107 48.121 391.668 48.6822 391.107 49.8047Z" fill="#FE9D00"/>
<path d="M347.61 60.1883C347.049 61.0302 345.926 61.8721 344.804 61.8721C343.681 61.8721 343.12 61.3108 343.681 60.4689C344.242 59.627 345.365 59.0658 346.487 58.7852C347.61 58.7852 348.171 59.3464 347.61 60.1883Z" fill="#FE9D00"/>
<g opacity="0.5">
<path opacity="0.5" d="M368.095 56.5411C368.095 56.2604 368.095 56.2604 368.095 56.2604V55.9798H367.815C367.534 55.9798 367.534 55.9798 367.254 55.9798C366.692 55.9798 366.412 55.9798 365.85 55.9798C365.57 55.9798 365.289 55.9798 365.009 55.6992C364.728 55.6992 364.728 55.4186 364.728 55.1379C364.728 54.8573 364.728 54.5767 365.009 54.2961C365.289 54.0154 365.289 53.7348 365.57 53.4542C365.85 53.1735 366.131 52.8929 366.692 52.6123C366.973 52.3317 367.534 52.051 368.095 51.7704C368.657 51.4898 368.937 51.2092 369.499 51.2092C369.779 50.9285 369.779 50.3673 370.06 50.0866C370.621 49.806 370.902 49.806 371.463 49.5254C371.182 49.806 371.182 50.3673 370.902 50.6479C371.463 50.6479 371.744 50.3673 372.024 50.3673C372.305 50.3673 372.585 50.3673 372.866 50.6479C373.147 50.6479 373.147 50.9285 373.147 51.2092C373.147 51.4898 373.147 51.7704 372.866 52.051C372.024 52.3317 371.182 52.6123 370.34 52.8929C370.621 52.3317 370.621 52.051 370.34 52.051C370.06 52.051 369.779 52.051 369.499 52.051C369.218 52.051 368.937 52.3317 368.937 52.3317C368.657 52.3317 368.657 52.6123 368.376 52.6123C368.095 52.6123 368.095 52.8929 367.815 52.8929L367.534 53.1735C367.534 53.4542 367.534 53.4542 367.534 53.4542V53.7348H367.815C368.095 53.7348 368.095 53.7348 368.657 53.7348C369.218 53.7348 369.499 53.7348 369.779 53.7348C370.06 53.7348 370.34 53.7348 370.621 54.0154C370.902 54.0154 370.902 54.296 370.902 54.5767C370.902 54.8573 370.902 55.1379 370.621 55.4186C370.34 55.6992 370.34 55.9798 370.06 56.2604C369.779 56.5411 369.499 56.8217 368.937 57.1023C368.657 57.3829 368.095 57.6636 367.534 57.9442C366.973 58.2248 366.692 58.5055 366.131 58.5055C365.85 58.7861 365.85 59.3473 365.57 59.628C365.009 59.628 364.728 59.9086 364.167 60.1892C364.447 59.9086 364.447 59.3473 364.728 59.0667C364.167 59.0667 363.886 59.3473 363.605 59.3473C363.325 59.3473 363.044 59.3473 362.764 59.3473C362.483 59.3473 362.483 59.0667 362.483 58.7861C362.483 58.5055 362.483 58.2248 362.764 57.6636C363.605 57.383 364.447 57.1023 365.289 56.8217C365.289 57.1023 365.009 57.3829 365.009 57.3829C365.009 57.6636 365.009 57.6636 365.289 57.6636C365.289 57.6636 365.57 57.6636 365.85 57.6636C366.131 57.6636 366.131 57.6636 366.412 57.3829C366.692 57.3829 366.973 57.1023 367.254 57.1023C367.534 57.1023 367.815 56.8217 367.815 56.8217C368.095 56.8217 368.095 56.5411 368.376 56.5411C367.815 56.8217 368.095 56.5411 368.095 56.5411Z" fill="white"/>
</g>
<path d="M460.14 128.943C462.385 139.888 466.314 149.71 470.524 159.532C469.121 163.18 467.437 166.828 466.034 170.196C456.773 158.129 446.39 146.623 434.323 136.52C443.022 133.995 451.722 131.469 460.14 128.943Z" fill="#FE9D00"/>
<path opacity="0.5" d="M438.812 138.203C448.354 147.183 456.773 157.005 464.63 166.827C464.911 166.266 465.753 166.547 466.314 167.388C467.436 164.863 468.559 162.618 469.681 160.092C469.401 159.531 469.401 158.408 469.681 157.847C465.753 149.428 462.105 140.729 459.579 131.749C458.456 132.029 457.334 131.749 457.053 131.188C451.441 132.871 445.828 134.555 439.935 136.239C440.216 137.081 439.935 137.923 438.812 138.203Z" fill="white"/>
<path d="M454.808 143.816C458.176 142.413 461.543 143.536 462.666 146.061C463.788 148.587 463.227 152.235 461.543 153.919C459.86 155.603 456.212 154.48 453.686 151.674C451.16 148.587 451.441 145.219 454.808 143.816Z" fill="#FE9D00"/>
<path d="M450.599 137.641C451.441 137.361 452.283 137.641 452.564 138.203C452.844 138.764 452.564 139.325 451.722 139.606C450.88 139.886 450.038 139.606 449.757 139.044C449.477 138.483 450.038 137.922 450.599 137.641Z" fill="#FE9D00"/>
<path d="M463.789 157.848C464.069 157.568 464.631 157.568 464.911 158.129C465.192 158.69 465.192 159.532 464.911 159.813C464.631 160.093 464.069 160.093 463.789 159.532C463.789 158.69 463.508 158.129 463.789 157.848Z" fill="#FE9D00"/>
<g opacity="0.5">
<path opacity="0.5" d="M458.737 147.186C458.737 147.466 458.456 147.466 458.737 147.186C458.456 147.466 458.456 147.466 458.456 147.747V148.028C458.456 148.028 458.456 148.308 458.456 148.589C458.456 148.869 458.456 149.15 458.737 149.431C458.737 149.711 458.737 149.992 458.737 150.273C458.737 150.553 458.737 150.553 458.456 150.834C458.456 151.114 458.176 151.114 457.895 151.395C457.615 151.395 457.615 151.676 457.334 151.676C457.053 151.676 457.053 151.676 456.773 151.676C456.492 151.676 456.492 151.395 456.211 151.395C455.931 151.114 455.931 151.114 455.65 150.834C455.37 151.114 455.089 151.114 454.808 151.395C454.528 151.114 454.528 151.114 454.247 150.834C454.528 150.553 454.808 150.553 455.089 150.273C455.089 149.992 454.808 149.711 454.808 149.711C454.808 149.431 454.808 149.15 454.808 149.15C454.808 148.869 455.089 148.869 455.089 148.589C455.37 148.308 455.37 148.308 455.65 148.028C455.931 148.308 456.211 148.869 456.492 149.15C456.211 149.431 455.931 149.431 455.931 149.711C455.931 149.992 455.931 149.992 456.211 150.273L456.492 150.553H456.773H457.053H457.334C457.334 150.553 457.615 150.553 457.615 150.273V149.992V149.711C457.615 149.711 457.615 149.431 457.615 149.15C457.615 148.869 457.615 148.589 457.334 148.308C457.334 148.028 457.334 147.747 457.334 147.747C457.334 147.466 457.334 147.466 457.615 147.186C457.615 146.905 457.895 146.905 458.176 146.624C458.456 146.624 458.737 146.344 458.737 146.344C459.018 146.344 459.018 146.344 459.298 146.344C459.579 146.344 459.579 146.624 459.86 146.624C460.14 146.624 460.14 146.905 460.421 147.186C460.701 147.186 460.982 146.905 460.982 146.905C460.982 147.186 461.263 147.186 461.263 147.466C460.982 147.466 460.701 147.747 460.701 147.747C460.701 148.028 460.982 148.308 460.982 148.308C460.982 148.589 460.982 148.869 460.982 148.869C460.982 149.15 460.982 149.431 460.701 149.431C460.701 149.711 460.421 149.711 460.14 149.992C459.86 149.711 459.579 149.15 459.579 148.869C459.86 148.869 459.86 148.589 459.86 148.589V148.308V148.028V147.747C459.86 147.747 459.86 147.466 459.579 147.466C459.579 147.466 459.298 147.466 459.298 147.186C459.298 147.186 459.018 147.186 458.737 147.186C459.018 147.186 458.737 147.186 458.737 147.186Z" fill="white"/>
</g>
<path d="M428.149 122.487C426.185 104.247 416.082 88.8122 401.771 81.5159C405.419 78.429 409.067 75.0615 412.715 71.9746C430.675 76.184 444.706 87.9704 450.319 103.124C443.023 109.298 435.446 116.033 428.149 122.487Z" fill="#FE9D00"/>
<path opacity="0.5" d="M447.512 100.88C441.9 88.2521 430.394 78.1496 415.802 73.3789C415.24 73.9402 413.837 73.9402 412.715 73.6595C410.189 75.9046 407.663 78.1496 405.138 80.3946C406.26 80.9558 406.541 81.7977 405.98 82.359C417.766 89.3746 426.465 102.003 429.272 117.157C430.394 116.315 431.517 116.315 431.517 117.718C436.568 113.228 441.339 109.019 446.39 104.529C446.109 103.406 446.39 102.003 447.512 100.88Z" fill="white"/>
<path d="M432.639 96.6709C429.272 99.7578 424.782 98.916 422.256 95.5484C419.731 91.9003 419.45 87.6909 422.256 85.1652C425.062 82.6396 430.114 82.6396 433.481 85.4459C436.849 88.5327 436.007 93.584 432.639 96.6709Z" fill="#FE9D00"/>
<path d="M436.848 105.088C436.007 105.649 435.165 105.649 434.884 104.807C434.603 103.966 434.884 102.843 435.726 102.282C436.568 101.721 437.41 101.721 437.69 102.562C437.971 103.404 437.69 104.527 436.848 105.088Z" fill="#FE9D00"/>
<path d="M417.485 81.5156C416.924 82.0769 416.082 81.7962 415.24 81.5156C414.398 80.9544 414.398 80.3931 414.679 79.8319C415.24 79.5512 416.082 79.2706 416.924 79.8319C417.766 80.3931 418.047 81.235 417.485 81.5156Z" fill="#FE9D00"/>
<g opacity="0.5">
<path opacity="0.5" d="M427.307 92.7408L427.588 92.4602V92.1796C427.588 92.1796 427.588 91.8989 427.588 91.6183C427.588 91.3377 427.588 91.3377 427.307 91.0571C427.027 90.7764 427.027 90.2152 427.027 89.9346C427.027 89.6539 426.746 89.3733 426.746 89.0927C426.746 88.8121 426.746 88.5314 426.746 88.2508C426.746 87.9702 427.027 87.6895 427.307 87.4089C427.588 87.1283 427.868 87.1283 428.149 86.8477C428.43 86.8477 428.71 86.8477 428.991 86.8477C429.272 86.8477 429.552 86.8477 429.833 87.1283C430.113 87.1283 430.394 87.4089 430.675 87.6895C430.955 87.4089 431.236 87.1283 431.517 86.8477C431.797 87.1283 432.078 87.4089 432.078 87.4089C431.797 87.6895 431.517 87.9702 431.236 88.2508C431.517 88.5314 431.517 88.8121 431.517 89.0927C431.517 89.3733 431.517 89.6539 431.517 89.9346C431.517 90.2152 431.236 90.4958 431.236 90.7764C430.955 91.0571 430.955 91.3377 430.675 91.6183C430.394 91.0571 429.833 90.7764 429.552 90.2152C429.833 89.9346 430.113 89.6539 430.113 89.3733C430.113 89.0927 430.113 88.8121 429.833 88.5314L429.552 88.2508H429.272H428.991C428.991 88.2508 428.71 88.2508 428.71 88.5314L428.43 88.812V89.0927C428.43 89.0927 428.43 89.3733 428.43 89.6539C428.43 89.9346 428.43 89.9346 428.71 90.2152C428.71 90.4958 428.991 91.0571 428.991 91.3377C428.991 91.6183 428.991 91.8989 428.991 92.1796C428.991 92.4602 428.991 92.7408 428.71 93.0215C428.71 93.3021 428.43 93.5827 428.149 93.8633C427.868 94.144 427.588 94.144 427.307 94.4246C427.027 94.4246 426.746 94.4246 426.465 94.4246C426.185 94.4246 425.904 94.4246 425.623 94.144C425.343 93.8633 425.062 93.8633 424.782 93.5827C424.501 93.8633 424.22 94.144 423.94 94.4246C423.659 94.144 423.659 93.8633 423.378 93.5827C423.659 93.3021 423.94 93.0215 424.22 92.7408C423.94 92.4602 423.94 92.1796 423.659 91.899C423.659 91.6183 423.378 91.3377 423.378 91.0571C423.378 90.7764 423.378 90.4958 423.659 90.2152C423.94 89.9346 423.94 89.6539 424.22 89.3733C424.501 89.6539 425.062 90.2152 425.343 90.4958C425.062 90.7764 425.062 90.7764 425.062 91.0571C425.062 91.3377 425.062 91.3377 425.062 91.6183C425.062 91.8989 425.062 91.8989 425.062 92.1796C425.062 92.4602 425.343 92.4602 425.343 92.4602C425.343 92.7408 425.623 92.7408 425.623 92.7408H425.904H426.185C427.027 93.0215 427.307 92.7408 427.307 92.7408Z" fill="white"/>
</g>
<path opacity="0.2" d="M286.152 83.4824C270.157 98.6363 254.722 107.616 241.252 110.703C248.548 116.035 255.003 122.77 261.176 131.189C269.034 130.347 282.504 125.015 291.484 119.683C291.204 106.494 286.152 96.3913 286.152 83.4824Z" fill="black"/>
<path d="M319.266 89.0951C299.061 112.387 278.856 125.015 262.018 127.822C255.844 119.683 249.39 112.948 242.094 107.897C259.773 102.846 280.82 87.9726 301.867 62.4355C308.041 69.7318 313.934 78.7119 319.266 89.0951Z" fill="#FE9D00"/>
<path opacity="0.5" d="M298.781 69.1713C280.82 89.6571 263.141 102.285 247.706 107.617C248.829 108.459 248.548 109.582 247.426 109.862C252.196 113.791 256.686 118.281 261.176 123.613C262.299 123.332 263.983 124.174 265.105 125.297C279.979 121.649 296.816 110.424 314.215 91.9021C313.373 90.499 313.934 87.9733 315.338 86.2896C311.409 79.5545 307.48 73.3807 303.551 68.0488C301.587 70.0132 299.622 70.2938 298.781 69.1713Z" fill="white"/>
<path d="M289.8 96.1114C293.168 100.601 291.765 108.459 286.713 111.827C281.662 115.194 274.927 113.23 271.559 109.02C267.911 104.811 269.034 99.7596 274.085 95.8308C279.136 92.1826 286.433 91.3408 289.8 96.1114Z" fill="#FE9D00"/>
<path d="M301.306 85.1661C301.867 86.008 301.586 87.6918 300.464 88.8143C299.341 89.9368 297.938 89.9368 297.377 88.8143C296.816 87.9724 297.096 86.2887 297.938 85.1661C299.341 84.3243 300.744 84.0436 301.306 85.1661Z" fill="#FE9D00"/>
<path d="M264.544 112.668C265.386 113.51 265.105 114.351 264.263 114.913C263.421 115.193 262.018 114.913 261.176 114.071C260.334 113.229 260.615 112.387 261.457 112.106C262.299 111.545 263.702 111.826 264.544 112.668Z" fill="#FE9D00"/>
<g opacity="0.5">
<path opacity="0.5" d="M283.346 104.249C283.346 103.968 283.066 103.968 283.066 103.968C282.785 103.968 282.785 103.688 282.504 103.688C282.224 103.688 282.224 103.688 281.943 103.688C281.662 103.688 281.382 103.688 281.101 103.968C280.54 104.249 279.979 104.249 279.417 104.249C278.856 104.249 278.576 104.249 278.014 104.249C277.453 104.249 277.172 104.249 276.892 103.968C276.611 103.688 276.05 103.407 275.769 103.126C275.489 102.846 275.208 102.565 275.208 102.004C275.208 101.723 275.208 101.443 275.208 100.881C275.208 100.601 275.489 100.32 275.769 99.7588C276.05 99.4781 276.331 99.1975 276.611 98.6363C276.331 98.3556 276.05 97.7944 275.489 97.5138C275.769 97.2331 276.331 96.9525 276.611 96.6719C276.892 96.9525 277.453 97.5138 277.734 97.7944C278.295 97.5138 278.576 97.2331 279.137 97.2331C279.698 97.2331 279.979 96.9525 280.54 97.2331C280.821 97.2331 281.382 97.5138 281.662 97.5138C281.943 97.7944 282.504 98.075 282.785 98.3556C282.224 98.9169 281.382 99.4781 280.821 99.7588C280.54 99.1975 279.979 98.9169 279.698 98.9169C279.417 98.9169 278.856 98.9169 278.576 99.1975C278.295 99.4781 278.295 99.4781 278.014 99.7588C278.014 100.039 277.734 100.039 277.734 100.32C277.734 100.601 277.734 100.601 277.734 100.881C277.734 101.162 278.014 101.162 278.014 101.443C278.014 101.723 278.295 101.723 278.295 101.723C278.295 101.723 278.576 101.723 278.856 102.004C279.137 102.004 279.137 102.004 279.417 102.004C279.698 102.004 279.979 102.004 280.259 101.723C280.821 101.443 281.382 101.443 281.943 101.162C282.504 101.162 282.785 100.881 283.346 101.162C283.907 101.162 284.188 101.162 284.469 101.443C284.749 101.723 285.03 102.004 285.591 102.284C285.872 102.565 286.152 103.126 286.152 103.407C286.152 103.688 286.152 104.249 286.152 104.529C286.152 104.81 285.872 105.371 285.591 105.652C285.311 105.933 285.03 106.494 284.749 106.774C285.03 107.055 285.311 107.616 285.591 108.178C285.311 108.458 284.749 108.739 284.469 109.019C284.188 108.458 283.907 108.178 283.627 107.897C283.346 108.178 282.785 108.178 282.504 108.458C281.943 108.458 281.662 108.458 281.101 108.458C280.54 108.458 280.259 108.178 279.698 107.897C279.137 107.616 278.856 107.336 278.576 106.774C279.137 106.213 279.979 105.933 280.54 105.371C280.821 105.652 281.101 105.933 281.101 105.933C281.382 105.933 281.662 106.213 281.662 106.213C281.943 106.213 282.224 106.213 282.224 106.213C282.504 106.213 282.504 105.933 282.785 105.933C283.066 105.652 283.066 105.652 283.346 105.371C283.346 105.091 283.627 105.091 283.627 104.81C283.627 104.529 283.627 104.529 283.627 104.249C283.627 104.529 283.627 104.529 283.346 104.249Z" fill="white"/>
</g>
<path d="M457.896 189.557C457.896 189.557 467.157 185.628 470.805 184.506C474.453 183.383 484.556 179.455 486.52 178.613C488.484 177.771 487.081 175.806 483.714 176.368C480.346 176.929 473.892 179.455 473.892 179.455C473.892 179.455 480.907 174.684 482.591 174.123C484.275 173.561 482.591 170.755 477.54 172.72C472.489 174.684 469.682 175.807 468.56 175.807C467.437 175.807 466.595 174.965 467.718 173.842C468.841 172.72 471.086 170.475 471.647 169.913C472.489 169.071 473.05 167.949 472.208 167.107C471.366 166.265 469.682 165.704 467.157 168.23C464.631 170.755 460.702 174.123 459.019 172.439C457.335 170.755 456.212 171.597 455.09 170.755C454.248 169.913 453.125 164.581 450.319 164.301C449.197 164.301 450.319 169.633 450.319 170.755C450.319 172.158 450.319 174.965 451.161 176.648C448.916 178.052 446.39 184.506 451.161 187.312C455.09 188.996 457.896 189.557 457.896 189.557Z" fill="#FABB85"/>
<path d="M486.52 178.614C488.484 177.772 487.081 175.807 483.714 176.369C481.188 176.93 476.979 178.333 474.734 178.894H474.453C476.417 177.772 481.188 174.685 482.311 174.124C483.994 173.562 482.311 170.756 477.259 172.72C472.208 174.685 469.402 175.807 468.279 175.807C467.157 175.807 466.315 174.965 467.437 173.843C468.56 172.72 470.805 170.475 471.366 169.914C472.208 169.072 472.769 167.95 471.927 167.108C471.086 166.266 469.402 165.705 466.876 168.23C464.351 170.756 460.422 174.124 458.738 172.44C457.054 170.756 455.932 171.598 454.809 170.756C453.967 169.914 452.845 164.582 450.039 164.302L443.865 155.883L476.979 162.618L490.729 183.104L481.188 180.859C483.994 179.736 485.959 178.894 486.52 178.614Z" fill="url(#paint15_linear)"/>
<path d="M444.706 155.602L445.267 154.199L478.381 160.934L492.413 181.701L491.571 182.823L477.82 162.057L444.706 155.602Z" fill="url(#paint16_linear)"/>
<path opacity="0.6" d="M492.413 181.7L478.382 160.934L445.268 154.199L442.181 97.793L508.689 107.896L492.413 181.7Z" fill="url(#paint17_linear)"/>
<path d="M366.131 101.157C371.4 101.157 375.672 97.1369 375.672 92.1773C375.672 87.2178 371.4 83.1973 366.131 83.1973C360.861 83.1973 356.589 87.2178 356.589 92.1773C356.589 97.1369 360.861 101.157 366.131 101.157Z" fill="#DEA61C"/>
<path d="M364.447 101.157C369.717 101.157 373.988 97.1369 373.988 92.1773C373.988 87.2178 369.717 83.1973 364.447 83.1973C359.178 83.1973 354.906 87.2178 354.906 92.1773C354.906 97.1369 359.178 101.157 364.447 101.157Z" fill="#FFDE00"/>
<path d="M364.447 100.035C369.097 100.035 372.866 96.5175 372.866 92.1779C372.866 87.8383 369.097 84.3203 364.447 84.3203C359.798 84.3203 356.028 87.8383 356.028 92.1779C356.028 96.5175 359.798 100.035 364.447 100.035Z" fill="#FFBF00"/>
<path opacity="0.3" d="M364.447 84.3203C361.921 84.3203 359.957 85.1622 358.273 86.8459C359.676 85.4428 361.921 84.6009 364.166 84.6009C368.937 84.6009 372.585 88.2491 372.585 92.4585C372.585 94.7035 371.743 96.3873 370.34 98.071C372.024 96.6679 372.866 94.7035 372.866 92.1779C372.866 87.9685 369.217 84.3203 364.447 84.3203Z" fill="#FFBF00"/>
<path d="M365.569 93.8607V93.58C365.569 93.58 365.569 93.2994 365.289 93.2994L365.008 93.0188C364.727 93.0188 364.727 92.7382 364.447 92.7382C364.166 92.7382 363.886 92.4575 363.605 92.4575C363.324 92.4575 363.044 92.1769 363.044 91.8963C362.763 91.6157 362.763 91.6157 362.763 91.335C362.763 91.0544 362.482 90.7738 362.482 90.4932C362.482 90.2125 362.482 89.9319 362.482 89.6513C362.482 89.3706 362.763 89.3706 362.763 89.09C363.044 88.8094 363.044 88.8094 363.324 88.8094C363.605 88.8094 363.886 88.5288 364.166 88.5288V87.4062H365.008V88.5288C365.289 88.5288 365.569 88.5288 365.85 88.8094C366.131 88.8094 366.131 89.09 366.411 89.3706C366.692 89.6513 366.692 89.6513 366.692 89.9319C366.692 90.2125 366.692 90.4931 366.692 90.7738H365.569C365.569 90.4931 365.569 90.4931 365.569 90.2125C365.569 89.9319 365.569 89.9319 365.289 89.9319L365.008 89.6513C365.008 89.6513 364.727 89.6513 364.447 89.6513C364.166 89.6513 364.166 89.6513 363.886 89.6513C363.886 89.6513 363.605 89.6513 363.605 89.9319L363.324 90.2125V90.4932V90.7738C363.324 90.7738 363.324 91.0544 363.605 91.0544L363.886 91.335C364.166 91.335 364.166 91.6157 364.447 91.6157C364.727 91.6157 365.008 91.8963 365.289 91.8963C365.569 91.8963 365.85 92.1769 365.85 92.4575C366.131 92.7382 366.131 92.7382 366.131 93.0188C366.131 93.2994 366.411 93.58 366.411 93.8607C366.411 94.1413 366.411 94.4219 366.131 94.7026C366.131 94.9832 365.85 94.9832 365.85 95.2638C365.569 95.5444 365.569 95.5444 365.289 95.5444C365.008 95.5444 364.727 95.8251 364.447 95.8251V96.6669H363.605V95.8251C363.324 95.8251 363.044 95.8251 362.763 95.5444C362.482 95.5444 362.202 95.2638 362.202 95.2638C361.921 94.9832 361.921 94.9832 361.641 94.7026C361.641 94.4219 361.36 94.1413 361.36 93.8607H362.482C362.482 94.1413 362.482 94.4219 362.482 94.4219C362.482 94.7026 362.763 94.7026 362.763 94.7026L363.044 94.9832C363.324 94.9832 363.324 94.9832 363.605 94.9832C363.886 94.9832 364.166 94.9832 364.447 94.7026C365.569 94.4219 365.569 94.1413 365.569 93.8607Z" fill="#CC961C"/>
<path d="M420.338 54.7512C419.783 57.6432 423.282 60.7451 428.153 61.6795C433.023 62.6139 437.422 61.0269 437.976 58.1349C438.531 55.2429 435.032 52.141 430.162 51.2066C425.291 50.2722 420.893 51.8592 420.338 54.7512Z" fill="#DEA61C"/>
<path d="M420.482 53.9871C419.928 56.8791 423.428 59.9798 428.298 60.9127C433.169 61.8456 437.567 60.2574 438.121 57.3654C438.675 54.4734 435.175 51.3726 430.304 50.4398C425.433 49.5069 421.036 51.0951 420.482 53.9871Z" fill="#FFDE00"/>
<path d="M421.574 54.2431C421.079 56.8309 424.133 59.5902 428.395 60.406C432.658 61.2219 436.515 59.7854 437.01 57.1975C437.505 54.6096 434.451 51.8503 430.189 51.0345C425.927 50.2187 422.07 51.6552 421.574 54.2431Z" fill="#FFBF00"/>
<path opacity="0.3" d="M437.13 57.0974C437.411 55.6942 436.569 54.5717 435.446 53.4492C436.569 54.5717 437.13 55.6942 437.13 57.0974C436.288 59.3424 432.64 60.7455 428.15 59.9036C426.186 59.623 424.221 58.7811 423.099 57.6586C424.221 58.7811 426.186 59.623 428.431 60.1843C432.64 61.0261 436.569 59.623 437.13 57.0974Z" fill="#FFBF00"/>
<path d="M427.588 55.9767H427.869H428.15C428.15 55.9767 428.43 55.9767 428.43 55.6961L428.711 55.4155C428.711 55.1349 428.992 55.1348 429.272 55.1348C429.553 55.1348 429.553 54.8542 429.834 54.8542C430.114 54.8542 430.114 54.8542 430.395 54.8542C430.675 54.8542 430.956 54.8542 431.237 54.8542C431.517 54.8542 431.798 54.8542 432.079 55.1348C432.359 55.1348 432.359 55.4155 432.64 55.4155C432.92 55.4155 432.92 55.6961 432.92 55.6961C432.92 55.6961 432.92 55.9767 432.92 56.2574L434.043 56.538V57.0992L432.92 56.8186C432.92 57.0992 432.64 57.0992 432.64 57.0992C432.64 57.0992 432.359 57.3799 432.079 57.3799C431.798 57.3799 431.517 57.3799 431.517 57.3799C431.237 57.3799 430.956 57.3799 430.675 57.3799V56.8186C430.956 56.8186 430.956 56.8186 431.237 56.8186C431.517 56.8186 431.517 56.8186 431.517 56.8186H431.798C431.798 56.8186 431.798 56.8186 431.798 56.538V56.2574C431.798 56.2574 431.798 55.9767 431.517 55.9767C431.517 55.9767 431.237 55.9767 431.237 55.6961H430.956H430.675H430.395C430.395 55.6961 430.114 55.6961 430.114 55.9767L429.834 56.2574C429.834 56.538 429.553 56.538 429.272 56.538C428.992 56.538 428.992 56.8186 428.711 56.8186C428.43 56.8186 428.43 56.8186 428.15 56.8186C427.869 56.8186 427.588 56.8186 427.308 56.8186C427.027 56.8186 426.747 56.8186 426.466 56.538C426.185 56.538 426.185 56.2574 425.905 56.2574L425.624 55.9767C425.624 55.6961 425.624 55.6961 425.624 55.4155L424.782 55.1348V54.5736L425.624 54.8542C425.624 54.5736 425.624 54.5736 425.905 54.5736C425.905 54.5736 426.185 54.293 426.466 54.293C426.747 54.293 426.747 54.293 427.027 54.293C427.308 54.293 427.589 54.293 427.869 54.293V54.8542C427.589 54.8542 427.308 54.8542 427.308 54.8542C427.027 54.8542 427.027 54.8542 427.027 54.8542C427.027 54.8542 426.747 54.8542 426.747 55.1348V55.4155C426.747 55.6961 426.747 55.6961 427.027 55.9767C427.027 55.9767 427.308 55.9767 427.588 55.9767Z" fill="#CC961C"/>
<path d="M457.987 112.122C456.388 113.073 456.442 116.112 458.106 118.909C459.771 121.706 462.416 123.203 464.014 122.251C465.613 121.3 465.559 118.262 463.894 115.465C462.23 112.668 459.585 111.171 457.987 112.122Z" fill="#DEA61C"/>
<path d="M458.667 111.706C457.069 112.657 457.121 115.695 458.784 118.493C460.447 121.291 463.091 122.788 464.69 121.838C466.289 120.888 466.237 117.849 464.574 115.051C462.91 112.254 460.266 110.756 458.667 111.706Z" fill="#FFDE00"/>
<path d="M459.114 112.433C457.648 113.303 457.615 115.954 459.039 118.352C460.464 120.751 462.807 121.99 464.273 121.119C465.738 120.249 465.772 117.598 464.348 115.2C462.923 112.801 460.58 111.562 459.114 112.433Z" fill="#FFBF00"/>
<path opacity="0.3" d="M464.35 121.365C465.192 120.803 465.473 119.961 465.473 118.839C465.192 119.961 464.912 120.803 464.35 121.365C462.947 121.926 460.702 120.803 459.018 118.278C458.177 117.155 457.896 115.752 457.896 114.91C457.896 116.033 458.177 117.436 459.018 118.558C460.422 120.803 462.947 122.206 464.35 121.365Z" fill="#FFBF00"/>
<path d="M460.702 116.313C460.702 116.313 460.983 116.313 460.702 116.313C460.983 116.594 460.983 116.594 460.983 116.594C460.983 116.594 460.983 116.594 461.263 116.594H461.544H461.825H462.105C462.105 116.594 462.386 116.594 462.386 116.875L462.667 117.155C462.667 117.436 462.947 117.436 462.947 117.716V117.997V118.278C462.947 118.278 462.947 118.558 462.667 118.558L462.947 119.12L462.667 119.4V118.839H462.386C462.386 118.839 462.105 118.839 462.105 118.558L461.825 118.278C461.825 118.278 461.544 117.997 461.544 117.716L461.825 117.436C461.825 117.436 461.825 117.716 462.105 117.716C462.105 117.716 462.105 117.716 462.386 117.997C462.386 117.997 462.386 117.997 462.667 117.997C462.667 117.997 462.667 117.997 462.947 117.997C462.947 117.997 462.947 117.997 462.947 117.716C462.947 117.716 462.947 117.717 462.947 117.436V117.155C462.947 117.155 462.947 117.155 462.947 116.875C462.947 116.875 462.947 116.875 462.667 116.875C462.667 116.875 462.667 116.875 462.386 116.875H462.105H461.825H461.544C461.544 116.875 461.263 116.875 461.263 116.594L460.983 116.313C460.983 116.033 460.702 116.033 460.702 115.752V115.471V115.191C460.702 115.191 460.702 114.91 460.983 114.91L460.702 114.349L460.983 114.068L461.263 114.63H461.544H461.825L462.105 114.91C462.105 114.91 462.386 115.191 462.386 115.471L462.105 115.752L461.825 115.471C461.825 115.471 461.544 115.471 461.544 115.191C461.544 115.191 461.544 115.191 461.263 115.191C461.263 115.191 461.263 115.191 460.983 115.191L460.702 115.471C460.702 115.752 460.702 116.033 460.702 116.313Z" fill="#CC961C"/>
<path d="M311.615 56.09C312.48 57.9098 316.585 57.7673 320.785 55.7717C324.984 53.7761 327.687 50.6831 326.823 48.8633C325.958 47.0436 321.852 47.1861 317.653 49.1817C313.453 51.1773 310.75 54.2703 311.615 56.09Z" fill="#DEA61C"/>
<path d="M311.383 55.5186C312.246 57.339 316.352 57.1992 320.553 55.2064C324.753 53.2136 327.459 50.1224 326.595 48.302C325.732 46.4816 321.626 46.6214 317.425 48.6142C313.224 50.607 310.519 53.6982 311.383 55.5186Z" fill="#FFDE00"/>
<path d="M312.384 55.0231C313.114 56.5637 316.657 56.4142 320.299 54.6891C323.94 52.964 326.301 50.3166 325.571 48.776C324.841 47.2353 321.297 47.3848 317.656 49.1099C314.014 50.835 311.654 53.4824 312.384 55.0231Z" fill="#FFBF00"/>
<path opacity="0.3" d="M325.44 48.6831C325.159 47.8412 324.037 47.5605 322.353 47.5605C323.756 47.5605 324.878 47.8412 325.44 48.6831C326.001 50.3668 323.475 52.8925 319.827 54.5762C318.143 55.4181 316.179 55.9794 314.776 55.9794C316.179 55.9794 318.143 55.4181 320.108 54.5762C324.037 52.8925 326.282 50.3668 325.44 48.6831Z" fill="#FFBF00"/>
<path d="M317.863 52.8922C317.863 52.8922 318.143 52.8922 318.143 52.6116C318.143 52.6116 318.424 52.6116 318.424 52.331C318.424 52.331 318.424 52.0503 318.704 52.0503V51.7697C318.704 51.4891 318.704 51.4891 318.985 51.2084L319.266 50.9278L319.546 50.6472C319.827 50.6472 319.827 50.3666 320.108 50.3666C320.388 50.3666 320.669 50.0859 320.669 50.0859C320.949 50.0859 320.949 50.0859 321.23 50.0859C321.511 50.0859 321.511 50.0859 321.511 50.0859C321.511 50.0859 321.791 50.0859 321.791 50.3666L322.633 50.0859V50.3666L321.791 50.6472V50.9278L321.511 51.2084C321.511 51.2084 321.23 51.4891 320.949 51.4891C320.669 51.4891 320.388 51.7697 320.388 51.7697L320.108 51.4891C320.388 51.4891 320.388 51.2084 320.669 51.2084L320.949 50.9278C320.949 50.9278 320.949 50.6472 321.23 50.6472C321.23 50.6472 321.23 50.6472 321.23 50.3666C321.23 50.3666 321.23 50.3666 320.949 50.3666H320.669H320.388C320.388 50.3666 320.108 50.3666 320.108 50.6472C320.108 50.6472 319.827 50.6472 319.827 50.9278C319.827 50.9278 319.827 51.2084 319.546 51.2084V51.4891C319.546 51.7697 319.546 51.7697 319.266 52.0503L318.985 52.331L318.704 52.6116C318.424 52.6116 318.424 52.8922 318.143 52.8922C317.863 52.8922 317.582 53.1728 317.582 53.1728C317.301 53.1728 317.301 53.1728 317.021 53.1728C316.74 53.1728 316.74 53.1728 316.459 53.1728C316.459 53.1728 316.179 53.1728 316.179 52.8922L315.337 53.1728V52.8922L316.179 52.6116V52.331C316.179 52.331 316.179 52.0503 316.459 52.0503C316.459 52.0503 316.74 51.7697 317.021 51.7697C317.301 51.4891 317.582 51.4891 317.863 51.2084L318.143 51.4891C317.863 51.4891 317.863 51.7697 317.582 51.7697L317.301 52.0503V52.331C317.301 52.331 317.301 52.331 317.301 52.6116L317.582 52.8922C317.301 52.8922 317.582 52.8922 317.863 52.8922Z" fill="#CC961C"/>
<path d="M560.605 236.141C559.763 236.141 559.202 236.702 559.202 237.544C559.202 238.386 559.763 238.947 560.605 238.947H574.637C575.479 238.947 576.04 238.386 576.04 237.544C576.04 236.702 575.479 236.141 574.637 236.141H560.605Z" fill="#B5B3E6"/>
<path d="M580.53 236.141C579.688 236.141 579.126 236.702 579.126 237.544C579.126 238.386 579.688 238.947 580.53 238.947H583.055C583.897 238.947 584.458 238.386 584.458 237.544C584.458 236.702 583.897 236.141 583.055 236.141H580.53Z" fill="#B5B3E6"/>
<path d="M36.6746 326.785C35.8327 326.785 35.2715 327.346 35.2715 328.188C35.2715 329.03 35.8327 329.591 36.6746 329.591H50.706C51.5478 329.591 52.1091 329.03 52.1091 328.188C52.1091 327.346 51.5478 326.785 50.706 326.785H36.6746Z" fill="#B5B3E6"/>
<path d="M56.8797 326.785C56.0378 326.785 55.4766 327.346 55.4766 328.188C55.4766 329.03 56.0378 329.591 56.8797 329.591H59.4053C60.2472 329.591 60.8085 329.03 60.8085 328.188C60.8085 327.346 60.2472 326.785 59.4053 326.785H56.8797Z" fill="#B5B3E6"/>
<path d="M397 168.789C396.158 168.789 395.597 169.35 395.597 170.192C395.597 171.034 396.158 171.595 397 171.595H411.031C411.873 171.595 412.434 171.034 412.434 170.192C412.434 169.35 411.873 168.789 411.031 168.789H397Z" fill="#B5B3E6"/>
<path d="M416.924 168.789C416.082 168.789 415.521 169.35 415.521 170.192C415.521 171.034 416.082 171.595 416.924 171.595H419.45C420.292 171.595 420.853 171.034 420.853 170.192C420.853 169.35 420.292 168.789 419.45 168.789H416.924Z" fill="#B5B3E6"/>
<path d="M98.4124 208.922C97.5705 208.922 97.0093 209.483 97.0093 210.325C97.0093 211.167 97.5705 211.728 98.4124 211.728H112.444C113.286 211.728 113.847 211.167 113.847 210.325C113.847 209.483 113.286 208.922 112.444 208.922H98.4124Z" fill="#B5B3E6"/>
<path d="M118.617 208.922C117.776 208.922 117.214 209.483 117.214 210.325C117.214 211.167 117.776 211.728 118.617 211.728H121.143C121.985 211.728 122.546 211.167 122.546 210.325C122.546 209.483 121.985 208.922 121.143 208.922H118.617Z" fill="#B5B3E6"/>
<path d="M631.604 317.241L629.078 314.716L631.604 312.19C632.165 311.629 632.165 310.787 631.604 310.226C631.043 309.664 630.201 309.664 629.64 310.226L627.114 312.751L624.588 310.226C624.027 309.664 623.185 309.664 622.624 310.226C622.063 310.787 622.063 311.629 622.624 312.19L625.15 314.716L622.624 317.241C622.063 317.803 622.063 318.644 622.624 319.206C623.185 319.767 624.027 319.767 624.588 319.206L627.114 316.68L629.64 319.206C630.201 319.767 631.043 319.767 631.604 319.206C632.165 318.644 632.165 317.803 631.604 317.241Z" fill="#B5B3E6"/>
<path d="M325.72 160.091L323.195 157.565L325.72 155.04C326.282 154.478 326.282 153.636 325.72 153.075C325.159 152.514 324.317 152.514 323.756 153.075L321.23 155.601L318.705 153.075C318.143 152.514 317.302 152.514 316.74 153.075C316.179 153.636 316.179 154.478 316.74 155.04L319.266 157.565L316.74 160.091C316.179 160.652 316.179 161.494 316.74 162.055C317.302 162.617 318.143 162.617 318.705 162.055L321.23 159.53L323.756 162.055C324.317 162.617 325.159 162.617 325.72 162.055C326.282 161.494 326.282 160.652 325.72 160.091Z" fill="#B5B3E6"/>
<path d="M121.705 96.3897L119.179 93.8641L121.705 91.3385C122.266 90.7772 122.266 89.9353 121.705 89.3741C121.143 88.8128 120.302 88.8128 119.74 89.3741L117.215 91.8997L114.689 89.3741C114.128 88.8128 113.286 88.8128 112.725 89.3741C112.163 89.9353 112.163 90.7772 112.725 91.3385L115.25 93.8641L112.725 96.3897C112.163 96.951 112.163 97.7929 112.725 98.3541C113.286 98.9154 114.128 98.9154 114.689 98.3541L117.215 95.8285L119.74 98.3541C120.302 98.9154 121.143 98.9154 121.705 98.3541C122.266 97.7929 122.266 96.951 121.705 96.3897Z" fill="#B5B3E6"/>
<path d="M345.364 243.437C345.364 247.366 348.732 250.733 352.661 250.733C356.589 250.733 359.957 247.366 359.957 243.437C359.957 239.508 356.589 236.141 352.661 236.141C348.732 236.141 345.364 239.228 345.364 243.437ZM348.171 243.437C348.171 240.911 350.135 238.947 352.661 238.947C355.186 238.947 357.151 240.911 357.151 243.437C357.151 245.963 355.186 247.927 352.661 247.927C350.135 247.927 348.171 245.682 348.171 243.437Z" fill="#B5B3E6"/>
<path d="M562.289 95.5483C562.289 99.477 565.657 102.845 569.585 102.845C573.514 102.845 576.882 99.477 576.882 95.5483C576.882 91.6195 573.514 88.252 569.585 88.252C565.657 88.252 562.289 91.6195 562.289 95.5483ZM565.095 95.5483C565.095 93.0226 567.06 91.0582 569.585 91.0582C572.111 91.0582 574.075 93.0226 574.075 95.5483C574.075 98.0739 572.111 100.038 569.585 100.038C567.34 100.038 565.095 98.0739 565.095 95.5483Z" fill="#B5B3E6"/>
<defs>
<linearGradient id="paint0_linear" x1="127.659" y1="391.382" x2="220.529" y2="276.499" gradientUnits="userSpaceOnUse">
<stop stop-color="#FEBD85"/>
<stop offset="1" stop-color="#FFD9B8"/>
</linearGradient>
<linearGradient id="paint1_linear" x1="280.785" y1="235.19" x2="310.75" y2="234.713" gradientUnits="userSpaceOnUse">
<stop stop-color="#FEBD85"/>
<stop offset="1" stop-color="#FFD9B8"/>
</linearGradient>
<linearGradient id="paint2_linear" x1="281.737" y1="295.32" x2="311.704" y2="294.843" gradientUnits="userSpaceOnUse">
<stop stop-color="#FEBD85"/>
<stop offset="1" stop-color="#FFD9B8"/>
</linearGradient>
<linearGradient id="paint3_linear" x1="152.552" y1="186.517" x2="255.3" y2="186.517" gradientUnits="userSpaceOnUse">
<stop stop-color="#2F2C33"/>
<stop offset="1" stop-color="#323033"/>
</linearGradient>
<linearGradient id="paint4_linear" x1="229.744" y1="332.591" x2="191.777" y2="278.64" gradientUnits="userSpaceOnUse">
<stop stop-color="#814DB0"/>
<stop offset="1" stop-color="#BE6FD3"/>
</linearGradient>
<linearGradient id="paint5_linear" x1="285.177" y1="370.293" x2="175.025" y2="60.7236" gradientUnits="userSpaceOnUse">
<stop stop-color="#059BC7"/>
<stop offset="1" stop-color="#059BC7"/>
</linearGradient>
<linearGradient id="paint6_linear" x1="286.315" y1="368.398" x2="176.636" y2="60.157" gradientUnits="userSpaceOnUse">
<stop stop-color="#059BC7"/>
<stop offset="1" stop-color="#059BC7"/>
</linearGradient>
<linearGradient id="paint7_linear" x1="219.192" y1="276.755" x2="219.192" y2="251.481" gradientUnits="userSpaceOnUse">
<stop stop-color="#F5AB2E"/>
<stop offset="1" stop-color="#FFCB5A"/>
</linearGradient>
<linearGradient id="paint8_linear" x1="103.268" y1="380.819" x2="196.743" y2="265.187" gradientUnits="userSpaceOnUse">
<stop stop-color="#FEBD85"/>
<stop offset="1" stop-color="#FFD9B8"/>
</linearGradient>
<linearGradient id="paint9_linear" x1="186.274" y1="279.817" x2="197.213" y2="275.063" gradientUnits="userSpaceOnUse">
<stop stop-color="#FCD7F9"/>
<stop offset="1" stop-color="#FCEBF9"/>
</linearGradient>
<linearGradient id="paint10_linear" x1="496.288" y1="322.191" x2="492.074" y2="254.194" gradientUnits="userSpaceOnUse">
<stop stop-color="#3D342B"/>
<stop offset="1" stop-color="#291C17"/>
</linearGradient>
<linearGradient id="paint11_linear" x1="478.129" y1="427.245" x2="476.829" y2="415.516" gradientUnits="userSpaceOnUse">
<stop stop-color="#3D342B"/>
<stop offset="1" stop-color="#291C17"/>
</linearGradient>
<linearGradient id="paint12_linear" x1="527.479" y1="426.781" x2="528.171" y2="415.003" gradientUnits="userSpaceOnUse">
<stop stop-color="#3D342B"/>
<stop offset="1" stop-color="#291C17"/>
</linearGradient>
<linearGradient id="paint13_linear" x1="468.982" y1="326.757" x2="465.026" y2="262.925" gradientUnits="userSpaceOnUse">
<stop stop-color="#3D342B"/>
<stop offset="1" stop-color="#291C17"/>
</linearGradient>
<linearGradient id="paint14_linear" x1="524.724" y1="326.058" x2="520.765" y2="262.158" gradientUnits="userSpaceOnUse">
<stop stop-color="#3D342B"/>
<stop offset="1" stop-color="#291C17"/>
</linearGradient>
<linearGradient id="paint15_linear" x1="473.561" y1="160.431" x2="461.161" y2="180.62" gradientUnits="userSpaceOnUse">
<stop stop-color="#BABABA"/>
<stop offset="1" stop-color="#363636"/>
</linearGradient>
<linearGradient id="paint16_linear" x1="471.212" y1="162.984" x2="460.255" y2="187.063" gradientUnits="userSpaceOnUse">
<stop stop-color="#EDEDED"/>
<stop offset="1" stop-color="#363636"/>
</linearGradient>
<linearGradient id="paint17_linear" x1="450.574" y1="167.594" x2="484.526" y2="111.384" gradientUnits="userSpaceOnUse">
<stop stop-color="white"/>
<stop offset="0.0918383" stop-color="#D1D1D1"/>
<stop offset="0.2304" stop-color="#929292"/>
<stop offset="0.3632" stop-color="#5E5E5E"/>
<stop offset="0.4865" stop-color="#353535"/>
<stop offset="0.5981" stop-color="#181818"/>
<stop offset="0.6943" stop-color="#060606"/>
<stop offset="0.764"/>
</linearGradient>
</defs>
</svg>
