<svg xmlns="http://www.w3.org/2000/svg" viewBox="0 0 683 428" width="683" height="428">
	<defs>
		<linearGradient id="grd1" gradientUnits="userSpaceOnUse"  x1="127.659" y1="393.382" x2="220.529" y2="278.499">
			<stop offset="0" stop-color="#febd85"  />
			<stop offset="1" stop-color="#ffd9b8"  />
		</linearGradient>
		<linearGradient id="grd2" gradientUnits="userSpaceOnUse"  x1="280.785" y1="237.19" x2="310.75" y2="236.713">
			<stop offset="0" stop-color="#febd85"  />
			<stop offset="1" stop-color="#ffd9b8"  />
		</linearGradient>
		<linearGradient id="grd3" gradientUnits="userSpaceOnUse"  x1="281.737" y1="297.32" x2="311.704" y2="296.843">
			<stop offset="0" stop-color="#febd85"  />
			<stop offset="1" stop-color="#ffd9b8"  />
		</linearGradient>
		<linearGradient id="grd4" gradientUnits="userSpaceOnUse"  x1="152.552" y1="188.517" x2="255.3" y2="188.517">
			<stop offset="0" stop-color="#2f2c33"  />
			<stop offset="1" stop-color="#323033"  />
		</linearGradient>
		<linearGradient id="grd5" gradientUnits="userSpaceOnUse"  x1="229.744" y1="334.591" x2="191.777" y2="280.64">
			<stop offset="0" stop-color="#814db0"  />
			<stop offset="1" stop-color="#be6fd3"  />
		</linearGradient>
		<linearGradient id="grd6" gradientUnits="userSpaceOnUse"  x1="285.177" y1="372.293" x2="175.025" y2="62.724">
			<stop offset="0" stop-color="#059bc7"  />
			<stop offset="1" stop-color="#059bc7"  />
		</linearGradient>
		<linearGradient id="grd7" gradientUnits="userSpaceOnUse"  x1="286.315" y1="370.398" x2="176.636" y2="62.157">
			<stop offset="0" stop-color="#059bc7"  />
			<stop offset="1" stop-color="#059bc7"  />
		</linearGradient>
		<linearGradient id="grd8" gradientUnits="userSpaceOnUse"  x1="219.192" y1="278.755" x2="219.192" y2="253.481">
			<stop offset="0" stop-color="#f5ab2e"  />
			<stop offset="1" stop-color="#ffcb5a"  />
		</linearGradient>
		<linearGradient id="grd9" gradientUnits="userSpaceOnUse"  x1="103.268" y1="382.819" x2="196.743" y2="267.187">
			<stop offset="0" stop-color="#febd85"  />
			<stop offset="1" stop-color="#ffd9b8"  />
		</linearGradient>
		<linearGradient id="grd10" gradientUnits="userSpaceOnUse"  x1="186.274" y1="281.817" x2="197.213" y2="277.063">
			<stop offset="0" stop-color="#fcd7f9"  />
			<stop offset="1" stop-color="#fcebf9"  />
		</linearGradient>
		<linearGradient id="grd11" gradientUnits="userSpaceOnUse"  x1="496.288" y1="324.191" x2="492.074" y2="256.194">
			<stop offset="0" stop-color="#3d342b"  />
			<stop offset="1" stop-color="#291c17"  />
		</linearGradient>
		<linearGradient id="grd12" gradientUnits="userSpaceOnUse"  x1="478.129" y1="429.245" x2="476.829" y2="417.516">
			<stop offset="0" stop-color="#3d342b"  />
			<stop offset="1" stop-color="#291c17"  />
		</linearGradient>
		<linearGradient id="grd13" gradientUnits="userSpaceOnUse"  x1="527.479" y1="428.781" x2="528.171" y2="417.003">
			<stop offset="0" stop-color="#3d342b"  />
			<stop offset="1" stop-color="#291c17"  />
		</linearGradient>
		<linearGradient id="grd14" gradientUnits="userSpaceOnUse"  x1="468.982" y1="328.757" x2="465.026" y2="264.925">
			<stop offset="0" stop-color="#3d342b"  />
			<stop offset="1" stop-color="#291c17"  />
		</linearGradient>
		<linearGradient id="grd15" gradientUnits="userSpaceOnUse"  x1="524.724" y1="328.058" x2="520.765" y2="264.158">
			<stop offset="0" stop-color="#3d342b"  />
			<stop offset="1" stop-color="#291c17"  />
		</linearGradient>
		<linearGradient id="grd16" gradientUnits="userSpaceOnUse"  x1="473.561" y1="162.431" x2="461.161" y2="182.62">
			<stop offset="0" stop-color="#bababa"  />
			<stop offset="1" stop-color="#363636"  />
		</linearGradient>
		<linearGradient id="grd17" gradientUnits="userSpaceOnUse"  x1="471.212" y1="164.984" x2="460.255" y2="189.063">
			<stop offset="0" stop-color="#ededed"  />
			<stop offset="1" stop-color="#363636"  />
		</linearGradient>
		<linearGradient id="grd18" gradientUnits="userSpaceOnUse"  x1="450.574" y1="169.594" x2="484.526" y2="113.384">
			<stop offset="0" stop-color="#ffffff"  />
			<stop offset="0.092" stop-color="#d1d1d1"  />
			<stop offset="0.23" stop-color="#929292"  />
			<stop offset="0.363" stop-color="#5e5e5e"  />
			<stop offset="0.487" stop-color="#353535"  />
			<stop offset="0.598" stop-color="#181818"  />
			<stop offset="0.694" stop-color="#060606"  />
			<stop offset="0.764" stop-color="#000000"  />
		</linearGradient>
	</defs>
	<style>
		tspan { white-space:pre }
		.shp0 { opacity: 0.8;fill: #f4e6e6 } 
		.shp1 { fill: #52c7a3 } 
		.shp2 { fill: #78c7c7 } 
		.shp3 { opacity: 0.251;fill: #ffffff } 
		.shp4 { opacity: 0.212;fill: #ffffff } 
		.shp5 { fill: #e8dbe0 } 
		.shp6 { fill: url(#grd1) } 
		.shp7 { opacity: 0.302;fill: #feb783 } 
		.shp8 { fill: url(#grd2) } 
		.shp9 { fill: url(#grd3) } 
		.shp10 { opacity: 0.2;fill: #feb783 } 
		.shp11 { fill: #ebebeb } 
		.shp12 { fill: url(#grd4) } 
		.shp13 { opacity: 0.2;fill: url(#grd5) } 
		.shp14 { fill: url(#grd6) } 
		.shp15 { opacity: 0.102;fill: url(#grd7) } 
		.shp16 { fill: #fcd652 } 
		.shp17 { fill: #fead30 } 
		.shp18 { fill: #ffffff } 
		.shp19 { fill: url(#grd8) } 
		.shp20 { fill: url(#grd9) } 
		.shp21 { fill: url(#grd10) } 
		.shp22 { fill: url(#grd11) } 
		.shp23 { fill: url(#grd12) } 
		.shp24 { fill: url(#grd13) } 
		.shp25 { fill: #fabb85 } 
		.shp26 { fill: #51341d } 
		.shp27 { opacity: 0.349;fill: #ffbf00 } 
		.shp28 { fill: #43af66 } 
		.shp29 { opacity: 0.149;fill: #c6c7ff } 
		.shp30 { fill: #faa378 } 
		.shp31 { fill: #c6c7ff } 
		.shp32 { opacity: 0.451;fill: #175d2e } 
		.shp33 { opacity: 0.302;fill: url(#grd14) } 
		.shp34 { fill: #94b0c7 } 
		.shp35 { opacity: 0.451;fill: #3a8d5a } 
		.shp36 { fill: #339854 } 
		.shp37 { opacity: 0.451;fill: #c6c7ff } 
		.shp38 { fill: #29904b } 
		.shp39 { opacity: 0.302;fill: url(#grd15) } 
		.shp40 { fill: #fe9d00 } 
		.shp41 { opacity: 0.502;fill: #ffffff } 
		.shp42 { opacity: 0.2;fill: #000000 } 
		.shp43 { fill: url(#grd16) } 
		.shp44 { fill: url(#grd17) } 
		.shp45 { opacity: 0.6;fill: url(#grd18) } 
		.shp46 { fill: #dea61c } 
		.shp47 { fill: #ffde00 } 
		.shp48 { fill: #ffbf00 } 
		.shp49 { opacity: 0.302;fill: #ffbf00 } 
		.shp50 { fill: #cc961c } 
		.shp51 { fill: #b5b3e6 } 
	</style>
	<path id="Layer" class="shp0" d="M649.28 428.97C667.24 398.66 672.58 362.46 660.51 326.82C646.48 285.01 618.13 270.13 606.35 235.06C597.93 209.8 598.21 184.26 605.23 160.69L604.94 160.41C609.15 139.92 608.31 118.59 601.02 97.27C577.16 26.27 493.82 -13.58 414.68 7.75C333.3 29.92 316.74 91.65 316.74 91.65C304.67 127.57 273.81 157.6 230.59 169.39C187.09 181.17 159.31 171.91 123.39 181.74C31.62 206.71 -20.29 293.71 7.49 376.21C14.22 395.85 24.89 413.53 38.36 428.69L649.28 428.69L649.28 428.97Z" />
	<g id="Layer" style="opacity: 0.8">
		<g id="Layer" style="opacity: 0.8">
			<path id="Layer" class="shp0" d="M524.4 415.22L524.4 370.04L511.21 370.04L511.21 292.02L503.92 280.8L471.93 280.8L471.93 352.07L449.48 352.07L442.74 341.69L428.71 341.69L428.71 248.24L415.52 248.24L415.52 220.46L405.14 220.46L405.14 249.93L398.4 249.93L398.4 355.16L381.57 355.16L381.57 374.25L372.87 374.25L372.87 275.46L363.32 275.46L340.31 310.26L340.31 379.01L328.25 379.01L328.25 358.53L320.39 358.53L320.39 290.62C320.39 290.62 317.3 263.68 300.46 263.68L300.46 244.03L290.64 244.03L290.64 375.37L282.22 375.37L282.22 391.08L248.83 391.08L248.83 335.8L242.09 335.8L242.09 316.72L230.03 316.72L230.03 312.79L230.03 294.55L212.91 294.55L212.91 381.54L204.49 381.54L204.49 359.37L183.16 359.37L183.16 314.19L178.39 314.19L178.39 415.5L524.4 415.5L524.4 415.22Z" />
		</g>
	</g>
	<path id="Layer" class="shp1" d="M315.62 399.78L302.99 399.5C296.82 391.08 291.48 380.14 288.68 366.95L298.5 366.39L287.84 362.74C286.71 356.57 286.15 350.11 286.15 342.82C286.15 342.82 303.83 344.22 321.79 353.48L322.63 361.9L324.32 354.88C335.26 360.78 345.64 370.04 352.38 383.23L349.29 396.7L354.91 388C357.15 393.61 358.83 399.78 359.4 406.8C359.96 420.27 359.4 428.41 359.4 428.41L338.91 428.41C338.91 428.41 320.95 421.67 306.08 403.15L315.62 399.78Z" />
	<path id="Layer" class="shp2" d="M355.19 412.69C356.03 404.83 358.27 398.38 361.64 392.77L364.73 399.22L363.61 389.96C370.06 381.26 378.76 375.93 386.62 372.56L387.18 378.18L388.86 371.72C398.68 368.07 407.1 367.23 407.1 367.23C407.1 377.33 405.42 385.75 402.89 393.05L397.56 394.73L402.05 395.29C397.84 405.4 391.95 412.69 386.34 417.74L375.95 418.31L382.69 420.83C375.67 426.16 369.78 428.41 369.78 428.41L355.19 428.41C355.19 428.13 354.91 422.23 355.19 412.69Z" />
	<path id="Layer" class="shp3" d="M391.95 382.95C395.04 379.86 401.77 372.84 401.77 372.84C401.77 372.84 393.91 378.18 390.55 380.98C363.89 406.24 358.27 426.72 357.99 427.85L359.12 428.13L360.24 428.13C361.08 425.6 367.53 405.96 391.95 382.95Z" />
	<path id="Layer" class="shp4" d="M351.82 428.13L354.06 428.13C352.1 421.39 339.75 384.63 302.43 354.88C299.34 352.36 291.76 348.43 291.76 348.43C291.76 348.43 297.66 354.04 300.46 356.29C336.67 384.91 349.29 419.99 351.82 428.13Z" />
	<path id="Layer" class="shp5" d="M378.76 428.97C378.76 429.53 378.2 430.09 377.64 430.09L331.05 430.09C330.49 430.09 329.93 429.53 329.93 428.97C329.93 428.41 330.49 427.85 331.05 427.85L377.64 427.85C378.48 428.13 378.76 428.41 378.76 428.97Z" />
	<path id="Layer" class="shp6" d="M139.66 482.85C144.72 465.17 149.21 452.26 152.01 446.64C187.93 432.05 205.89 378.17 209.82 368.63C213.75 359.09 222.17 352.92 236.48 355.72C250.79 358.25 270.16 363.02 282.5 357.69C294.85 352.36 291.2 342.53 276.61 338.32C262.02 334.11 236.48 323.45 236.48 323.45L226.66 237.3C226.66 237.3 165.2 192.96 150.89 205.31C150.89 205.31 92.8 291.74 90.56 311.1C88.31 332.99 87.75 368.35 74.56 412.97C70.91 425.6 58.84 451.98 43.41 483.13L139.66 483.13L139.66 482.85Z" />
	<path id="Layer" class="shp7" d="M151.17 205.31C151.17 205.31 149.21 208.39 145.84 213.44C145 235.62 143.59 280.8 141.63 283.88C139.1 288.09 128.44 303.25 128.44 303.25C128.44 303.25 147.8 286.41 156.22 279.67C162.96 274.34 160.15 223.55 158.75 202.78C155.1 203.06 152.85 203.9 151.17 205.31Z" />
	<path id="Layer" class="shp7" d="M232.55 333.27L231.99 329.34L167.73 329.9L160.99 348.15L237.04 334.96C234.24 334.11 232.55 333.27 232.55 333.27Z" />
	<path id="Layer" class="shp8" d="M291.76 220.74C291.76 220.74 308.88 220.46 309.73 233.65C310.57 246.84 301.59 252.45 291.76 253.57L288.96 253.57L289.24 221.58L291.76 220.74Z" />
	<path id="Layer" class="shp9" d="M291.48 281.64C291.48 281.64 314.5 277.71 313.93 296.23C313.65 310.82 295.13 311.94 290.92 313.35L287.27 312.79L288.68 283.04L291.48 281.64Z" />
	<path id="Layer" class="shp10" d="M150.89 443C147.8 437.1 138.54 434.02 138.26 434.02L137.7 434.02C137.7 434.02 146.96 438.79 149.77 443.84C150.05 444.4 150.61 445.8 151.17 447.21C151.17 446.93 151.45 446.65 151.45 446.37C151.73 446.37 151.73 446.08 152.01 446.08C151.73 445.24 151.45 444.12 150.89 443Z" />
	<path id="Layer" class="shp11" d="M165.48 40.3C156.22 40.3 148.65 47.87 148.65 57.13L148.65 319.8C148.65 329.06 156.22 336.64 165.48 336.64L275.49 336.64C284.75 336.64 292.33 329.06 292.33 319.8L292.33 57.13C292.33 47.87 284.75 40.3 275.49 40.3L165.48 40.3Z" />
	<path id="Layer" class="shp11" d="M293.73 131.22C293.73 132.34 293.17 133.18 292.61 133.18C292.05 133.18 291.48 132.34 291.48 131.22L291.48 101.75C291.48 100.63 292.05 99.79 292.61 99.79C293.17 99.79 293.73 100.63 293.73 101.75L293.73 131.22Z" />
	<path id="Layer" class="shp11" d="M149.21 140.48C149.21 141.6 148.65 142.44 148.08 142.44C147.52 142.44 146.96 141.6 146.96 140.48L146.96 123.36C146.96 122.24 147.52 121.4 148.08 121.4C148.65 121.4 149.21 122.24 149.21 123.36L149.21 140.48Z" />
	<path id="Layer" class="shp11" d="M149.21 116.63C149.21 117.75 148.65 118.59 148.08 118.59C147.52 118.59 146.96 117.75 146.96 116.63L146.96 99.51C146.96 98.39 147.52 97.54 148.08 97.54C148.65 97.54 149.21 98.39 149.21 99.51L149.21 116.63Z" />
	<path id="Layer" class="shp11" d="M149.21 91.09C149.21 92.21 148.65 93.05 148.08 93.05C147.52 93.05 146.96 92.21 146.96 91.09L146.96 79.58C146.96 78.46 147.52 77.62 148.08 77.62C148.65 77.62 149.21 78.46 149.21 79.58L149.21 91.09Z" />
	<path id="Layer" class="shp12" d="M291.48 319.8C291.48 328.78 284.19 335.8 275.49 335.8L165.48 335.8C156.5 335.8 149.49 328.5 149.49 319.8L149.49 57.13C149.49 48.44 156.78 41.14 165.48 41.14L275.49 41.14C284.47 41.14 291.48 48.44 291.48 57.13L291.48 319.8Z" />
	<path id="Layer" class="shp10" d="M144.44 448.05C143.31 451.42 138.54 464.61 132.09 482.29L139.66 482.29C144.72 464.61 149.21 451.7 152.01 446.08C173.62 437.38 188.78 414.37 198.03 395.29C189.9 406.24 172.5 428.69 161.55 433.74C151.17 438.51 140.23 434.3 138.82 433.74C139.94 434.58 147.8 438.23 144.44 448.05Z" />
	<path id="Layer" class="shp13" d="M199.44 320.37C199.44 323.17 201.68 325.7 204.77 325.7L234.8 325.7C237.6 325.7 240.13 323.45 240.13 320.37C240.13 317.56 237.88 315.03 234.8 315.03L204.77 315.03C201.68 315.03 199.44 317.28 199.44 320.37Z" />
	<path id="Layer" class="shp14" d="M286.99 72.01L152.85 72.01L152.85 306.05L286.99 306.05L286.99 72.01Z" />
	<path id="Layer" class="shp15" d="M283.63 306.05L152.85 114.38L152.85 153.39L256.97 306.05L283.63 306.05ZM152.85 72.01L152.85 94.46L286.99 291.18L286.99 214.57L189.9 72.01L152.85 72.01Z" />
	<path id="Layer" class="shp16" d="M277.73 162.65C277.73 164.62 276.05 166.3 274.08 166.3L166.04 166.3C164.08 166.3 162.4 164.62 162.4 162.65L162.4 104C162.4 102.04 164.08 100.35 166.04 100.35L274.08 100.35C276.05 100.35 277.73 102.04 277.73 104L277.73 162.65Z" />
	<path id="Layer" class="shp17" d="M243.5 138.8C243.5 141.32 241.53 143.29 239.01 143.29L175.87 143.29C173.34 143.29 171.38 141.32 171.38 138.8C171.38 136.27 173.34 134.31 175.87 134.31L239.01 134.31C241.53 134.31 243.5 136.27 243.5 138.8Z" />
	<path id="Layer" class="shp17" d="M267.91 117.75C267.91 120.28 265.95 122.24 263.42 122.24L200.28 122.24C197.75 122.24 195.79 120.28 195.79 117.75C195.79 115.23 197.75 113.26 200.28 113.26L263.42 113.26C265.67 112.98 267.91 115.23 267.91 117.75Z" />
	<path id="Layer" class="shp17" d="M210.1 153.39C210.1 155.92 208.14 157.88 205.61 157.88L175.87 157.88C173.34 157.88 171.38 155.92 171.38 153.39C171.38 150.87 173.34 148.9 175.87 148.9L205.61 148.9C208.14 148.9 210.1 150.87 210.1 153.39Z" />
	<path id="Layer" class="shp17" d="M270.44 156.48C270.44 159.01 268.47 160.97 265.95 160.97L255 160.97C252.48 160.97 250.51 159.01 250.51 156.48C250.51 153.96 252.48 151.99 255 151.99L265.95 151.99C268.19 151.99 270.44 153.96 270.44 156.48Z" />
	<path id="Layer" class="shp18" d="M176.99 120.56L185.97 120.56L185.97 117.19L176.99 117.19L176.99 120.56ZM175.87 117.47L172.22 117.47L172.22 120.84L175.87 120.84L175.87 117.47ZM175.87 112.98L172.22 112.98L172.22 116.35L175.87 116.35L175.87 112.98ZM185.97 112.98L176.99 112.98L176.99 116.35L185.97 116.35L185.97 112.98ZM185.41 122.52L177.55 122.52C176.99 122.52 176.43 122.24 176.15 121.68L172.22 121.68L172.22 123.92C172.22 125.05 173.06 126.17 174.46 126.17L188.49 126.17C189.62 126.17 190.74 125.33 190.74 123.92L190.74 121.68L186.81 121.68C186.53 122.24 185.97 122.52 185.41 122.52ZM188.49 107.65L174.46 107.65C173.34 107.65 172.22 108.49 172.22 109.89L172.22 112.14L176.15 112.14C176.43 111.86 176.99 111.3 177.55 111.3L185.41 111.3C185.97 111.3 186.53 111.58 186.81 112.14L190.74 112.14L190.74 109.89C190.74 108.77 189.62 107.65 188.49 107.65ZM187.09 116.35L190.74 116.35L190.74 112.98L187.09 112.98L187.09 116.35ZM187.09 120.56L190.74 120.56L190.74 117.19L187.09 117.19L187.09 120.56Z" />
	<path id="Layer" class="shp19" d="M264.82 268.73C264.82 274.34 260.33 278.55 255 278.55L183.44 278.55C177.83 278.55 173.62 274.06 173.62 268.73C173.62 263.12 178.11 258.91 183.44 258.91L254.72 258.91C260.33 258.63 264.82 263.12 264.82 268.73Z" />
	<path id="Layer" class="shp18" d="M193.26 265.64L190.46 265.64L190.46 273.22L189.06 273.22L189.06 265.64L186.25 265.64L186.25 264.52L193.26 264.52L193.26 265.64Z" />
	<path id="Layer" fill-rule="evenodd" class="shp18" d="M198.31 269.85L196.63 269.85L196.63 273.22L195.23 273.22L195.23 264.24L198.31 264.24C198.88 264.24 199.16 264.24 199.72 264.52C200 264.52 200.56 264.8 200.84 265.08C201.12 265.36 201.4 265.64 201.4 265.92C201.68 266.2 201.68 266.76 201.68 267.05C201.68 267.61 201.4 268.17 201.12 268.45C200.84 268.73 200.56 269.29 200 269.29L201.96 272.94L200.28 272.94L198.31 269.85ZM196.63 268.45C196.91 268.45 198.88 268.45 199.16 268.45C199.44 268.45 199.44 268.17 199.72 268.17C199.72 268.17 200 267.89 200 267.61C200 267.32 200 267.32 200 267.05C200 266.76 200 266.48 200 266.48C200 266.2 199.72 266.2 199.72 265.92C199.72 265.92 199.44 265.64 199.16 265.64C198.88 265.64 198.6 265.64 198.31 265.64L196.63 265.64L196.63 268.45Z" />
	<path id="Layer" fill-rule="evenodd" class="shp18" d="M208.7 270.98L205.33 270.98L204.49 272.94L202.81 272.94L206.17 263.96L207.58 263.96L210.94 272.94L209.26 272.94L208.7 270.98ZM205.61 269.85L208.14 269.85L206.73 266.2L205.61 269.85Z" />
	<path id="Layer" class="shp18" d="M219.64 273.22L218.24 273.22L214.31 267.05L214.31 273.22L212.91 273.22L212.91 264.24L214.31 264.24L218.24 270.69L218.24 264.24L219.64 264.24L219.64 273.22Z" />
	<path id="Layer" class="shp18" d="M226.66 270.98C226.66 270.69 226.66 270.69 226.66 270.41L226.38 270.13C226.38 270.13 226.1 269.85 225.82 269.85C225.54 269.85 225.26 269.57 224.97 269.57C224.41 269.57 224.13 269.29 223.85 269.01C223.57 268.73 223.29 268.73 223.01 268.45C222.73 268.17 222.45 267.89 222.45 267.61C222.17 267.33 222.17 267.05 222.17 266.76C222.17 266.49 222.17 266.2 222.45 265.64C222.73 265.36 222.73 265.08 223.01 264.8C223.29 264.52 223.57 264.52 224.13 264.24C224.41 264.24 224.97 263.96 225.54 263.96C226.1 263.96 226.38 263.96 226.94 264.24C227.22 264.24 227.78 264.52 228.06 264.8C228.34 265.08 228.62 265.36 228.62 265.64C228.9 265.92 228.9 266.2 228.9 266.76L227.5 266.76C227.5 266.49 227.5 266.49 227.5 266.2C227.5 265.92 227.22 265.92 227.22 265.64C227.22 265.64 226.94 265.36 226.66 265.36C226.38 265.36 226.1 265.36 225.82 265.36C225.54 265.36 225.26 265.36 224.97 265.36C224.69 265.36 224.69 265.64 224.41 265.64L224.13 265.92C224.13 266.2 224.13 266.2 224.13 266.49C224.13 266.76 224.41 267.05 224.69 267.33C224.97 267.61 225.54 267.61 226.1 267.89C226.66 268.17 226.94 268.17 227.5 268.45C227.78 268.73 228.06 268.73 228.34 269.01C228.62 269.29 228.9 269.57 228.9 269.85C228.9 270.13 229.19 270.41 229.19 270.69C229.19 270.98 229.19 271.54 228.9 271.82C228.62 272.1 228.62 272.38 228.34 272.66C228.06 272.94 227.78 272.94 227.22 273.22C226.94 273.22 226.38 273.5 225.82 273.5C225.26 273.5 224.97 273.5 224.41 273.22C224.13 273.22 223.57 272.94 223.29 272.66C223.01 272.38 222.73 272.1 222.45 271.82C222.17 271.54 222.17 270.98 222.17 270.69L223.57 270.69C223.57 270.98 223.57 271.25 223.85 271.54C223.85 271.82 224.13 271.82 224.13 272.1C224.41 272.1 224.41 272.38 224.69 272.38C224.97 272.38 225.26 272.38 225.54 272.38C226.1 272.38 226.38 272.38 226.66 272.1C226.66 271.54 226.66 271.25 226.66 270.98Z" />
	<path id="Layer" class="shp18" d="M235.36 269.29L231.71 269.29L231.71 272.94L230.31 272.94L230.31 263.96L235.92 263.96L235.92 265.08L231.71 265.08L231.71 267.61L235.36 267.61L235.36 269.29Z" />
	<path id="Layer" class="shp18" d="M242.94 269.29L239.29 269.29L239.29 272.1L243.5 272.1L243.5 273.22L237.6 273.22L237.6 264.24L243.5 264.24L243.5 265.36L239.29 265.36L239.29 267.89L242.94 267.89L242.94 269.29Z" />
	<path id="Layer" fill-rule="evenodd" class="shp18" d="M248.55 269.85L246.86 269.85L246.86 273.22L245.46 273.22L245.46 264.24L248.55 264.24C249.11 264.24 249.39 264.24 249.95 264.52C250.23 264.52 250.79 264.8 251.07 265.08C251.35 265.36 251.63 265.64 251.63 265.92C251.91 266.2 251.91 266.76 251.91 267.05C251.91 267.61 251.63 268.17 251.35 268.45C251.07 268.73 250.79 269.29 250.23 269.29L252.2 272.94L250.51 272.94L248.55 269.85ZM246.86 268.45C247.14 268.45 249.11 268.45 249.39 268.45C249.67 268.45 249.67 268.17 249.95 268.17C249.95 268.17 250.23 267.89 250.23 267.61C250.23 267.32 250.23 267.32 250.23 267.05C250.23 266.76 250.23 266.48 250.23 266.48C250.23 266.2 249.95 266.2 249.95 265.92C249.95 265.92 249.67 265.64 249.39 265.64C249.11 265.64 248.83 265.64 248.55 265.64L246.86 265.64L246.86 268.45Z" />
	<path id="Layer" class="shp18" d="M231.43 214C231.43 214 220.49 227.19 216 232.53C213.47 228.88 210.66 224.39 210.66 224.39C209.54 222.7 207.01 222.14 205.33 223.26C203.65 224.39 203.09 226.91 204.21 228.6L212.35 240.94C212.91 242.07 214.03 242.63 215.43 242.63C216.56 242.63 217.68 242.07 218.52 241.22L237.32 218.77C238.73 217.09 238.44 214.85 236.76 213.44C235.36 212.32 232.83 212.32 231.43 214Z" />
	<path id="Layer" class="shp18" d="M202.81 196.61C202.81 196.33 202.81 196.04 202.81 195.76C202.81 195.48 202.53 195.2 202.24 195.2C201.96 194.92 201.68 194.92 201.4 194.64C201.12 194.36 200.56 194.36 200.28 194.08C199.72 193.8 198.88 193.52 198.32 193.24C197.75 192.96 197.19 192.68 196.91 192.12C196.63 191.84 196.07 191.27 196.07 190.71C195.79 190.15 195.79 189.59 195.79 189.03C195.79 188.47 195.79 187.91 196.07 187.35C196.35 186.78 196.63 186.5 196.91 185.94C197.19 185.66 197.75 185.38 198.32 185.1C198.88 184.82 199.44 184.82 200 184.54L200 182.01L201.68 182.01L201.68 184.54C202.24 184.54 202.81 184.82 203.37 185.1C203.93 185.38 204.21 185.66 204.49 186.22C204.77 186.78 205.05 187.06 205.33 187.63C205.61 188.19 205.61 188.75 205.61 189.59L203.09 189.59C203.09 189.03 203.09 188.75 202.81 188.47C202.81 188.19 202.53 187.91 202.24 187.63C201.96 187.35 201.68 187.06 201.4 187.06C201.12 187.06 200.84 186.78 200.56 186.78C200.28 186.78 199.72 186.78 199.44 187.06C199.16 187.06 198.88 187.35 198.88 187.63C198.6 187.91 198.6 188.19 198.6 188.19C198.6 188.47 198.6 188.75 198.6 189.03C198.6 189.31 198.6 189.59 198.6 189.87C198.6 190.15 198.88 190.43 199.16 190.43C199.44 190.71 199.72 190.71 200 190.99C200.28 191.27 200.84 191.27 201.4 191.56C202.24 191.84 202.81 192.12 203.37 192.4C203.93 192.68 204.49 192.96 204.77 193.52C205.05 193.8 205.33 194.36 205.61 194.92C205.89 195.48 205.89 196.04 205.89 196.61C205.89 197.17 205.89 197.73 205.61 198.29C205.33 198.85 205.05 199.13 204.77 199.69C204.49 199.97 203.93 200.25 203.37 200.53C202.81 200.82 202.24 200.82 201.68 201.1L201.68 203.34L200 203.34L200 201.1C199.44 201.1 198.88 200.82 198.32 200.82C197.75 200.53 197.19 200.25 196.91 199.97C196.63 199.69 196.07 199.13 195.79 198.57C195.51 198.01 195.51 197.17 195.51 196.33L198.03 196.33C198.03 196.89 198.03 197.45 198.32 197.73C198.6 198.01 198.6 198.29 198.88 198.57C199.16 198.85 199.44 198.85 199.72 199.13C200 199.13 200.28 199.13 200.56 199.13C201.4 199.13 201.96 198.85 202.53 198.57C202.53 197.73 202.81 197.17 202.81 196.61Z" />
	<path id="Layer" class="shp18" d="M218.52 200.82L207.86 200.82L207.86 198.85L212.91 193.24C213.47 192.68 213.75 192.4 214.03 191.84C214.31 191.56 214.59 190.99 214.59 190.71C214.87 190.43 214.87 190.15 214.87 189.87C214.87 189.59 214.87 189.31 214.87 189.03C214.87 188.75 214.87 188.19 214.59 187.91C214.59 187.63 214.31 187.35 214.03 187.06C213.75 186.78 213.47 186.78 213.19 186.5C212.91 186.5 212.63 186.22 212.07 186.22C211.5 186.22 211.22 186.22 210.94 186.5C210.66 186.78 210.38 186.78 210.1 187.06C209.82 187.35 209.82 187.63 209.54 187.91C209.54 188.19 209.26 188.75 209.26 189.03L206.73 189.03C206.73 188.47 206.73 187.63 207.01 187.06C207.3 186.5 207.58 185.94 208.14 185.38C208.7 184.82 209.26 184.54 209.82 184.26C210.38 183.98 211.22 183.98 212.07 183.98C212.91 183.98 213.47 183.98 214.31 184.26C214.87 184.54 215.43 184.82 216 185.1C216.56 185.38 216.84 185.94 216.84 186.5C217.12 187.06 217.12 187.63 217.12 188.19C217.12 188.75 217.12 189.31 216.84 189.59C216.56 190.15 216.56 190.43 216.28 190.99C216 191.56 215.71 191.84 215.15 192.4C214.87 192.96 214.31 193.24 213.75 193.8L210.1 197.73L217.4 197.73L217.4 200.82L218.52 200.82Z" />
	<path id="Layer" fill-rule="evenodd" class="shp18" d="M231.15 194.08C231.15 195.48 231.15 196.33 230.87 197.17C230.59 198.01 230.31 198.85 229.75 199.41C229.19 199.97 228.62 200.25 228.06 200.53C227.5 200.82 226.66 200.82 225.82 200.82C224.97 200.82 224.41 200.82 223.57 200.53C223.01 200.25 222.45 199.97 221.89 199.41C221.33 198.85 221.05 198.29 220.77 197.17C220.49 196.33 220.49 195.2 220.49 194.08L220.49 191.56C220.49 190.43 220.49 189.31 220.77 188.47C221.05 187.63 221.33 186.78 221.89 186.22C222.45 185.66 223.01 185.38 223.57 185.1C224.13 184.82 224.97 184.82 225.82 184.82C226.66 184.82 227.22 184.82 228.06 185.1C228.62 185.38 229.19 185.66 229.75 186.22C230.31 186.78 230.59 187.35 230.87 188.47C231.15 189.31 231.15 190.43 231.15 191.56L231.15 194.08ZM228.62 190.99C228.62 190.15 228.62 189.59 228.34 189.03C228.34 188.47 228.06 187.91 227.78 187.63C227.5 187.35 227.22 187.06 226.94 186.78C226.66 186.5 226.38 186.5 225.82 186.5C225.54 186.5 224.97 186.5 224.69 186.78C224.41 187.06 224.13 187.06 223.85 187.63C223.57 187.91 223.57 188.47 223.29 189.03C223.29 189.59 223.01 190.15 223.01 190.99L223.01 194.36C223.01 195.2 223.01 195.76 223.29 196.33C223.29 196.89 223.57 197.45 223.85 197.73C224.13 198.01 224.41 198.29 224.69 198.57C224.97 198.85 225.26 198.85 225.82 198.85C226.1 198.85 226.66 198.85 226.94 198.57C227.22 198.29 227.5 198.29 227.78 197.73C228.06 197.45 228.06 196.89 228.34 196.33C228.34 195.76 228.62 195.2 228.62 194.36L228.62 190.99Z" />
	<path id="Layer" fill-rule="evenodd" class="shp18" d="M244.06 194.08C244.06 195.48 244.06 196.33 243.78 197.17C243.5 198.01 243.22 198.85 242.66 199.41C242.09 199.97 241.53 200.25 240.97 200.53C240.41 200.82 239.57 200.82 238.73 200.82C237.88 200.82 237.32 200.82 236.48 200.53C235.92 200.25 235.36 199.97 234.8 199.41C234.24 198.85 233.96 198.29 233.68 197.17C233.39 196.33 233.39 195.2 233.39 194.08L233.39 191.56C233.39 190.43 233.39 189.31 233.68 188.47C233.96 187.63 234.24 186.78 234.8 186.22C235.36 185.66 235.92 185.38 236.48 185.1C237.04 184.82 237.88 184.82 238.73 184.82C239.57 184.82 240.13 184.82 240.97 185.1C241.53 185.38 242.09 185.66 242.66 186.22C243.22 186.78 243.5 187.35 243.78 188.47C244.06 189.31 244.06 190.43 244.06 191.56L244.06 194.08ZM241.53 190.99C241.53 190.15 241.53 189.59 241.25 189.03C241.25 188.47 240.97 187.91 240.69 187.63C240.41 187.35 240.13 187.06 239.85 186.78C239.57 186.5 239.29 186.5 238.73 186.5C238.44 186.5 237.88 186.5 237.6 186.78C237.32 187.06 237.04 187.06 236.76 187.63C236.48 187.91 236.48 188.47 236.2 189.03C236.2 189.59 235.92 190.15 235.92 190.99L235.92 194.36C235.92 195.2 235.92 195.76 236.2 196.33C236.2 196.89 236.48 197.45 236.76 197.73C237.04 198.01 237.32 198.29 237.6 198.57C237.88 198.85 238.16 198.85 238.73 198.85C239.01 198.85 239.57 198.85 239.85 198.57C240.13 198.29 240.41 198.29 240.69 197.73C240.97 197.45 240.97 196.89 241.25 196.33C241.25 195.76 241.53 195.2 241.53 194.36L241.53 190.99Z" />
	<path id="Layer" class="shp20" d="M116.65 315.31C116.65 315.31 152.29 279.39 165.48 275.18C177.55 271.25 206.17 271.53 214.59 275.18C222.45 278.55 219.92 304.93 176.71 309.7C170.25 315.87 157.34 382.66 120.3 408.2L116.65 315.31Z" />
	<path id="Layer" class="shp10" d="M157.91 351.51C149.21 372 137.14 394.45 119.18 407.08C119.18 407.08 130.97 402.59 137.42 394.17C153.98 373.68 162.4 347.02 168.85 328.78L170.81 322.89C170.81 322.89 161.84 342.25 157.91 351.51Z" />
	<path id="Layer" class="shp10" d="M111.88 323.73L117.5 316.71C117.78 316.43 135.74 296.23 150.89 284.44C150.89 284.44 138.82 292.02 133.77 296.51C123.67 305.77 122.83 306.33 120.02 309.7C113.85 316.99 111.88 323.73 111.88 323.73Z" />
	<path id="Layer" class="shp21" d="M212.07 275.46C205.61 273.5 191.86 272.94 185.41 273.78C189.62 276.59 192.7 283.04 193.26 285.29C196.63 285.85 207.86 281.08 212.63 278.27C214.03 277.71 213.19 276.02 212.07 275.46Z" />
	<path id="Layer" class="shp10" d="M161.83 277.99C161.83 277.99 171.09 282.76 173.9 287.81C175.02 289.78 177.27 296.79 177.27 296.79C177.27 296.79 177.27 291.74 174.74 286.69C171.66 280.8 162.4 277.71 162.12 277.71L161.83 277.99Z" />
	<path id="Layer" class="shp22" d="M454.53 210.08C496.62 223.55 526.09 218.22 526.09 218.22C526.09 218.22 528.33 253.86 528.33 281.92C528.33 309.98 527.21 415.5 527.21 415.5L510.93 414.09C510.93 400.06 496.62 258.35 491.85 258.35C489.05 258.35 488.48 277.43 488.48 296.23C488.48 315.03 493.82 414.38 493.82 414.38L476.7 415.78C474.17 391.08 458.74 308.02 455.09 253.86C454.53 242.63 454.53 216.25 454.53 210.08Z" />
	<path id="Layer" class="shp23" d="M490.73 413.81L484.27 414.66C484.27 414.66 469.68 416.9 463.23 429.25L483.43 427C483.43 427 484.56 423.36 485.96 423.07C487.36 422.8 488.76 426.44 488.76 426.44L492.98 425.88L490.73 413.81Z" />
	<path id="Layer" class="shp24" d="M514.02 414.09L520.48 414.37C520.48 414.37 535.07 415.78 542.37 427.84L522.16 426.72C522.16 426.72 520.76 423.07 519.35 423.07C517.95 423.07 516.83 426.44 516.83 426.44L512.62 426.16L514.02 414.09Z" />
	<path id="Layer" class="shp25" d="M471.37 74.82C471.37 74.82 472.21 84.64 473.33 90.81C474.45 96.99 478.94 103.72 482.59 103.44C486.24 103.16 497.18 100.35 500.83 86.32C501.95 85.76 508.69 81.83 506.73 74.82C504.76 67.8 499.15 82.39 499.15 83.52C499.15 84.92 498.31 79.87 498.59 77.34C498.87 74.82 498.87 63.59 492.69 63.59C486.52 63.87 477.54 65 473.05 63.59C469.4 62.75 471.09 72.57 471.37 74.82Z" />
	<path id="Layer" class="shp26" d="M479.22 47.88C484.56 44.79 498.02 44.79 499.71 52.65C499.71 52.65 507.29 53.77 507.85 60.78C508.41 66.68 507.85 70.61 506.44 74.25C504.48 68.08 498.87 82.11 498.87 83.52C498.87 84.92 498.02 79.87 498.31 77.34C498.59 74.82 498.59 63.59 492.41 63.59C486.24 63.87 477.26 64.99 472.77 63.59C469.96 62.75 470.52 68.64 470.81 72.29L470.52 72.29C470.52 72.29 469.4 68.64 468.28 63.87C467.72 59.1 472.77 51.8 479.22 47.88Z" />
	<path id="Layer" fill-rule="evenodd" class="shp26" d="M479.22 89.97C480.91 90.25 482.03 89.69 483.43 89.69C484.84 89.69 489.33 90.25 489.89 96.42C491.29 96.14 494.66 95.02 497.46 89.13C499.43 84.92 499.43 87.44 498.31 92.21C493.54 100.91 485.68 102.88 482.59 103.16C479.22 103.44 475.57 98.39 473.89 93.06C474.17 92.21 475.3 89.13 479.22 89.97ZM480.06 97.83C481.75 98.11 481.47 96.99 482.59 97.55C483.71 98.11 486.24 98.39 487.08 96.42C487.92 94.46 486.24 91.93 484.84 91.65C483.15 91.37 482.59 92.21 480.35 91.93C479.22 91.93 476.98 91.37 476.42 93.06C475.86 94.74 478.1 98.11 480.06 97.83Z" />
	<path id="Layer" class="shp25" d="M477.54 100.07C479.22 102.04 480.91 103.44 482.59 103.44C486.24 103.16 497.18 100.35 500.83 86.32C501.11 86.32 501.39 86.04 501.67 85.76C501.67 85.76 501.67 85.76 501.67 86.04L503.08 105.41C503.08 105.41 498.02 118.59 487.08 118.03C476.14 117.47 477.26 105.69 477.26 105.69L477.54 100.07Z" />
	<path id="Layer" class="shp27" d="M482.59 103.44C486.24 103.16 497.18 100.35 500.83 86.32C501.11 86.32 501.39 86.04 501.67 85.76C501.67 85.76 501.67 85.76 501.67 86.04L502.24 93.62C500.27 96.99 494.1 105.13 483.71 104.84C480.91 104.84 478.94 104.28 477.26 103.16L477.26 100.07C478.94 102.04 480.91 103.44 482.59 103.44Z" />
	<path id="Layer" class="shp28" d="M455.93 193.52C455.93 190.43 459.02 154.23 459.02 143.85C459.02 133.47 459.58 116.91 459.58 116.91C459.58 116.91 473.61 107.93 477.54 105.12C477.54 105.12 476.42 116.91 487.36 117.47C498.31 118.03 503.36 104.84 503.36 104.84L503.36 103.44C503.36 103.44 521.32 110.45 524.68 113.82C524.68 124.49 526.37 205.59 526.37 217.94C526.37 217.94 497.18 233.37 455.09 220.18C451.72 217.37 455.93 196.61 455.93 193.52Z" />
	<path id="Layer" class="shp29" d="M506.16 209.52C493.82 215.69 484.27 209.8 496.62 190.15C508.97 170.79 489.89 148.06 481.19 134.31C475.01 124.49 471.93 114.38 470.52 109.61C473.33 107.93 475.86 106.25 477.26 105.12L477.54 105.12C477.54 105.12 476.42 116.91 487.36 117.47C498.31 118.03 503.36 104.84 503.36 104.84L503.36 103.44C503.36 103.44 521.32 110.45 524.68 113.82C524.68 124.49 526.37 205.59 526.37 217.94C526.37 217.94 521.04 220.46 511.78 222.43C516.27 214.01 512.62 206.43 506.16 209.52Z" />
	<path id="Layer" class="shp30" d="M480.91 161.53C480.63 162.37 480.63 163.21 481.19 164.06C482.31 165.18 485.4 163.77 489.33 159.84C490.45 158.72 492.97 160.13 492.97 160.13C492.97 160.13 491.01 161.81 490.45 163.49C490.17 164.34 490.17 166.58 490.17 168.26C490.17 168.26 487.64 167.98 485.96 166.86C484.27 165.74 482.59 165.74 480.91 165.46C479.5 164.62 478.66 162.65 480.91 161.53Z" />
	<path id="Layer" class="shp30" d="M501.11 165.46C501.67 165.18 501.67 169.39 503.36 171.63C504.2 172.48 504.76 173.04 505.6 173.6C502.24 174.16 500.55 172.2 499.99 170.79C499.43 169.39 498.59 168.27 498.02 167.71C499.15 166.58 500.55 165.46 501.11 165.46Z" />
	<path id="Layer" class="shp31" d="M459.58 117.19C459.58 117.19 455.09 120 451.16 123.93C447.23 127.86 446.67 140.76 444.14 150.59C441.62 160.41 435.17 170.79 435.17 177.53C435.17 184.26 437.41 191.28 442.74 194.08C447.79 196.89 459.3 191.84 459.3 191.84C459.3 191.84 443.58 189.59 452 178.37C450.32 177.81 450.6 175.84 450.6 173.88C450.6 171.91 459.02 159 459.02 156.48L459.58 117.19Z" />
	<path id="Layer" class="shp32" d="M508.97 171.07L525.53 180.61C525.53 184.54 525.53 188.47 525.81 191.84L506.44 179.77C505.6 178.93 504.76 175.84 503.36 175.84C501.95 175.84 498.31 175.84 498.31 173.31C498.31 170.79 495.78 167.7 495.78 167.7L499.15 166.58L508.97 171.07Z" />
	<path id="Layer" class="shp33" d="M454.81 220.46C457.9 221.3 460.7 222.15 463.51 222.99C464.07 239.54 466.03 282.76 472.77 335.8C477.54 373.12 480.91 403.43 483.15 415.5L476.7 416.06C474.17 391.36 458.74 308.3 455.09 254.14C454.53 246 454.25 230.84 454.25 220.18C454.81 220.18 454.81 220.18 454.81 220.46Z" />
	<path id="Layer" class="shp34" d="M508.97 171.07C508.69 174.16 507.85 176.69 507.85 176.69C507.85 176.69 506.44 174.72 506.44 172.76C506.44 171.91 507.85 171.35 508.97 171.07Z" />
	<path id="Layer" class="shp35" d="M524.68 121.12C524.68 121.12 523.28 127.3 522.72 137.12C522.44 142.73 523 163.22 523 163.22L500.83 158.72L512.34 168.83L528.89 171.35L531.98 165.18L524.68 121.12Z" />
	<path id="Layer" class="shp36" d="M524.4 114.11C524.4 114.11 533.1 118.31 535.35 123.37C537.59 128.7 547.13 164.34 549.38 176.12C551.63 187.91 548.26 193.52 532.82 187.91C517.11 182.3 507.85 176.69 507.85 176.69C507.85 176.69 511.5 167.99 507.01 160.97C507.01 160.97 519.91 165.18 525.53 166.3C525.53 166.3 523.56 149.75 523.56 136.84L524.4 114.11Z" />
	<path id="Layer" class="shp25" d="M478.38 157.32C478.94 156.76 480.91 155.64 484.27 154.24C487.64 152.83 490.17 153.67 492.41 154.8C498.02 153.95 498.02 155.64 498.87 156.48C499.43 155.92 500.55 156.48 501.95 157.88C503.36 159.29 507 161.53 507.29 161.81C509.81 166.3 509.25 171.07 508.69 174.16C506.73 174.72 504.76 173.6 503.36 171.91C501.39 169.67 501.39 165.46 501.11 165.74C500.55 166.02 497.46 168.27 496.9 169.39C496.34 170.51 496.06 171.91 494.94 171.91C493.82 171.91 493.25 170.23 493.25 170.23C492.97 171.07 490.73 170.23 490.73 169.11C490.73 167.99 490.45 164.34 490.73 163.22C491.29 161.81 493.25 159.85 493.25 159.85C493.25 159.85 490.45 158.72 489.61 159.57C485.68 163.5 482.59 164.9 481.47 163.78C480.35 162.65 481.19 160.13 483.99 158.16C480.63 159.85 477.82 157.88 478.38 157.32Z" />
	<path id="Layer" class="shp30" d="M493.82 166.3C492.97 167.7 492.69 170.23 492.69 170.23L492.97 169.95C492.97 169.95 492.97 170.23 493.25 170.23C493.25 170.23 493.54 167.99 494.38 166.58C495.22 165.18 498.59 161.53 498.59 161.25C498.59 161.25 494.66 164.9 493.82 166.3ZM483.15 158.44C483.43 158.44 483.43 158.44 483.71 158.16C483.71 158.16 487.36 156.2 487.36 155.92L483.43 157.88C483.15 158.16 483.15 158.44 483.15 158.44ZM493.25 159.85C493.25 159.85 496.62 157.88 496.62 157.6C496.62 157.6 493.25 159.29 492.97 159.57C492.97 159.85 493.25 159.85 493.25 159.85Z" />
	<path id="Layer" class="shp35" d="M455.93 193.52C455.93 192.68 456.21 189.87 456.49 186.23L469.96 180.61L481.19 179.77L490.17 184.26C490.17 184.26 483.99 183.42 481.47 184.82C479.22 185.94 463.23 195.77 455.09 200.82C455.65 197.45 455.93 194.65 455.93 193.52Z" />
	<path id="Layer" class="shp37" d="M459.3 123.08C459.3 123.08 460.42 141.04 460.42 145.25C460.42 149.46 460.7 155.07 462.95 156.76C465.75 158.72 471.65 160.69 476.7 163.78C479.22 165.18 455.37 164.06 455.37 164.06L453.97 151.43L459.3 123.08Z" />
	<path id="Layer" class="shp38" d="M459.58 117.19C459.58 117.19 455.09 120 451.16 123.93C447.23 127.86 446.67 140.76 444.14 150.59C441.62 160.41 435.17 170.79 435.17 177.53C435.17 184.26 437.41 191.28 442.74 194.08C447.79 196.89 459.3 191.84 459.3 191.84C459.3 191.84 443.58 189.59 452 178.37C451.72 176.4 451.44 175.84 451.44 173.88C451.44 171.91 459.3 159 459.3 156.48L459.58 117.19Z" />
	<path id="Layer" class="shp39" d="M526.37 218.22C526.37 218.22 528.61 253.86 528.61 281.92C528.61 309.98 527.49 415.5 527.49 415.5L521.88 414.94C521.04 392.77 519.35 336.36 519.35 311.95C519.35 284.44 514.86 236.18 513.74 222.71C521.6 220.74 526.37 218.22 526.37 218.22Z" />
	<path id="Layer" class="shp37" d="M449.2 163.78C449.2 163.78 449.76 168.55 449.76 169.95C449.76 171.35 449.48 176.68 450.32 177.53C451.16 178.37 446.39 185.94 451.16 187.35C455.65 188.75 456.77 180.89 456.77 180.89L453.69 173.6L452.56 165.46L449.2 163.78Z" />
	<path id="Layer" class="shp40" d="M394.47 65C377.92 56.3 345.37 80.15 328.81 71.45C332.74 64.43 336.67 57.14 340.88 50.12C357.15 57.7 388.86 34.13 404.86 41.98C401.49 49.56 397.84 57.42 394.47 65Z" />
	<path id="Layer" class="shp41" d="M400.65 41.98C384.93 38.9 359.68 55.46 343.96 52.65C343.4 53.77 342 54.33 340.59 54.05C337.79 59.1 335.26 63.87 332.46 68.93C333.58 69.49 334.14 70.61 333.58 71.45C349.57 75.1 375.39 58.54 391.39 62.19C391.95 61.07 393.35 60.23 394.48 60.79C397 55.46 399.25 50.12 401.77 44.79C400.65 44.23 400.09 43.11 400.65 41.98Z" />
	<path id="Layer" class="shp40" d="M378.48 53.77C376.51 57.98 369.78 62.75 363.32 64.71C356.87 66.68 353.78 64.71 356.03 60.5C358.27 56.29 364.73 51.52 371.18 49.56C377.36 47.31 380.72 49.28 378.48 53.77Z" />
	<path id="Layer" class="shp40" d="M391.11 51.8C390.83 52.65 389.42 53.49 388.58 53.49C387.46 53.49 386.9 52.93 387.46 52.09C387.74 51.24 389.14 50.4 390.26 50.4C391.11 50.12 391.67 50.68 391.11 51.8Z" />
	<path id="Layer" class="shp40" d="M347.61 62.19C347.05 63.03 345.93 63.87 344.8 63.87C343.68 63.87 343.12 63.31 343.68 62.47C344.24 61.63 345.37 61.07 346.49 60.79C347.61 60.79 348.17 61.35 347.61 62.19Z" />
	<g id="Layer" style="opacity: 0.502">
		<path id="Layer" class="shp41" d="M368.1 58.54C368.1 58.26 368.1 58.26 368.1 58.26L368.1 57.98L367.81 57.98C367.53 57.98 367.53 57.98 367.25 57.98C366.69 57.98 366.41 57.98 365.85 57.98C365.57 57.98 365.29 57.98 365.01 57.7C364.73 57.7 364.73 57.42 364.73 57.14C364.73 56.86 364.73 56.58 365.01 56.3C365.29 56.02 365.29 55.73 365.57 55.45C365.85 55.17 366.13 54.89 366.69 54.61C366.97 54.33 367.53 54.05 368.1 53.77C368.66 53.49 368.94 53.21 369.5 53.21C369.78 52.93 369.78 52.37 370.06 52.09C370.62 51.81 370.9 51.81 371.46 51.53C371.18 51.81 371.18 52.37 370.9 52.65C371.46 52.65 371.74 52.37 372.02 52.37C372.31 52.37 372.58 52.37 372.87 52.65C373.15 52.65 373.15 52.93 373.15 53.21C373.15 53.49 373.15 53.77 372.87 54.05C372.02 54.33 371.18 54.61 370.34 54.89C370.62 54.33 370.62 54.05 370.34 54.05C370.06 54.05 369.78 54.05 369.5 54.05C369.22 54.05 368.94 54.33 368.94 54.33C368.66 54.33 368.66 54.61 368.38 54.61C368.1 54.61 368.1 54.89 367.81 54.89L367.53 55.17C367.53 55.45 367.53 55.45 367.53 55.45L367.53 55.73L367.81 55.73C368.1 55.73 368.1 55.73 368.66 55.73C369.22 55.73 369.5 55.73 369.78 55.73C370.06 55.73 370.34 55.73 370.62 56.02C370.9 56.02 370.9 56.3 370.9 56.58C370.9 56.86 370.9 57.14 370.62 57.42C370.34 57.7 370.34 57.98 370.06 58.26C369.78 58.54 369.5 58.82 368.94 59.1C368.66 59.38 368.1 59.66 367.53 59.94C366.97 60.22 366.69 60.51 366.13 60.51C365.85 60.79 365.85 61.35 365.57 61.63C365.01 61.63 364.73 61.91 364.17 62.19C364.45 61.91 364.45 61.35 364.73 61.07C364.17 61.07 363.89 61.35 363.61 61.35C363.32 61.35 363.04 61.35 362.76 61.35C362.48 61.35 362.48 61.07 362.48 60.79C362.48 60.51 362.48 60.22 362.76 59.66C363.61 59.38 364.45 59.1 365.29 58.82C365.29 59.1 365.01 59.38 365.01 59.38C365.01 59.66 365.01 59.66 365.29 59.66C365.29 59.66 365.57 59.66 365.85 59.66C366.13 59.66 366.13 59.66 366.41 59.38C366.69 59.38 366.97 59.1 367.25 59.1C367.53 59.1 367.81 58.82 367.81 58.82C368.1 58.82 368.1 58.54 368.38 58.54C367.81 58.82 368.1 58.54 368.1 58.54Z" />
	</g>
	<path id="Layer" class="shp40" d="M460.14 130.94C462.38 141.89 466.31 151.71 470.52 161.53C469.12 165.18 467.44 168.83 466.03 172.2C456.77 160.13 446.39 148.62 434.32 138.52C443.02 136 451.72 133.47 460.14 130.94Z" />
	<path id="Layer" class="shp41" d="M438.81 140.2C448.35 149.18 456.77 159 464.63 168.83C464.91 168.27 465.75 168.55 466.31 169.39C467.44 166.86 468.56 164.62 469.68 162.09C469.4 161.53 469.4 160.41 469.68 159.85C465.75 151.43 462.11 142.73 459.58 133.75C458.46 134.03 457.33 133.75 457.05 133.19C451.44 134.87 445.83 136.56 439.94 138.24C440.22 139.08 439.94 139.92 438.81 140.2Z" />
	<path id="Layer" class="shp40" d="M454.81 145.82C458.18 144.41 461.54 145.54 462.67 148.06C463.79 150.59 463.23 154.24 461.54 155.92C459.86 157.6 456.21 156.48 453.69 153.67C451.16 150.59 451.44 147.22 454.81 145.82Z" />
	<path id="Layer" class="shp40" d="M450.6 139.64C451.44 139.36 452.28 139.64 452.56 140.2C452.84 140.76 452.56 141.32 451.72 141.61C450.88 141.89 450.04 141.61 449.76 141.04C449.48 140.48 450.04 139.92 450.6 139.64Z" />
	<path id="Layer" class="shp40" d="M463.79 159.85C464.07 159.57 464.63 159.57 464.91 160.13C465.19 160.69 465.19 161.53 464.91 161.81C464.63 162.09 464.07 162.09 463.79 161.53C463.79 160.69 463.51 160.13 463.79 159.85Z" />
	<g id="Layer" style="opacity: 0.502">
		<path id="Layer" class="shp41" d="M458.74 149.19C458.74 149.47 458.46 149.47 458.74 149.19C458.46 149.47 458.46 149.47 458.46 149.75L458.46 150.03C458.46 150.03 458.46 150.31 458.46 150.59C458.46 150.87 458.46 151.15 458.74 151.43C458.74 151.71 458.74 151.99 458.74 152.27C458.74 152.55 458.74 152.55 458.46 152.83C458.46 153.11 458.18 153.11 457.89 153.4C457.62 153.4 457.62 153.68 457.33 153.68C457.05 153.68 457.05 153.68 456.77 153.68C456.49 153.68 456.49 153.4 456.21 153.4C455.93 153.11 455.93 153.11 455.65 152.83C455.37 153.11 455.09 153.11 454.81 153.4C454.53 153.11 454.53 153.11 454.25 152.83C454.53 152.55 454.81 152.55 455.09 152.27C455.09 151.99 454.81 151.71 454.81 151.71C454.81 151.43 454.81 151.15 454.81 151.15C454.81 150.87 455.09 150.87 455.09 150.59C455.37 150.31 455.37 150.31 455.65 150.03C455.93 150.31 456.21 150.87 456.49 151.15C456.21 151.43 455.93 151.43 455.93 151.71C455.93 151.99 455.93 151.99 456.21 152.27L456.49 152.55L456.77 152.55L457.05 152.55L457.33 152.55C457.33 152.55 457.62 152.55 457.62 152.27L457.62 151.99L457.62 151.71C457.62 151.71 457.62 151.43 457.62 151.15C457.62 150.87 457.62 150.59 457.33 150.31C457.33 150.03 457.33 149.75 457.33 149.75C457.33 149.47 457.33 149.47 457.62 149.19C457.62 148.91 457.89 148.91 458.18 148.62C458.46 148.62 458.74 148.34 458.74 148.34C459.02 148.34 459.02 148.34 459.3 148.34C459.58 148.34 459.58 148.62 459.86 148.62C460.14 148.62 460.14 148.91 460.42 149.19C460.7 149.19 460.98 148.91 460.98 148.91C460.98 149.19 461.26 149.19 461.26 149.47C460.98 149.47 460.7 149.75 460.7 149.75C460.7 150.03 460.98 150.31 460.98 150.31C460.98 150.59 460.98 150.87 460.98 150.87C460.98 151.15 460.98 151.43 460.7 151.43C460.7 151.71 460.42 151.71 460.14 151.99C459.86 151.71 459.58 151.15 459.58 150.87C459.86 150.87 459.86 150.59 459.86 150.59L459.86 150.31L459.86 150.03L459.86 149.75C459.86 149.75 459.86 149.47 459.58 149.47C459.58 149.47 459.3 149.47 459.3 149.19C459.3 149.19 459.02 149.19 458.74 149.19C459.02 149.19 458.74 149.19 458.74 149.19Z" />
	</g>
	<path id="Layer" class="shp40" d="M428.15 124.49C426.19 106.25 416.08 90.81 401.77 83.52C405.42 80.43 409.07 77.06 412.71 73.97C430.68 78.18 444.71 89.97 450.32 105.12C443.02 111.3 435.45 118.03 428.15 124.49Z" />
	<path id="Layer" class="shp41" d="M447.51 102.88C441.9 90.25 430.39 80.15 415.8 75.38C415.24 75.94 413.84 75.94 412.71 75.66C410.19 77.9 407.66 80.15 405.14 82.39C406.26 82.96 406.54 83.8 405.98 84.36C417.77 91.37 426.46 104 429.27 119.16C430.39 118.31 431.52 118.31 431.52 119.72C436.57 115.23 441.34 111.02 446.39 106.53C446.11 105.41 446.39 104 447.51 102.88Z" />
	<path id="Layer" class="shp40" d="M432.64 98.67C429.27 101.76 424.78 100.92 422.26 97.55C419.73 93.9 419.45 89.69 422.26 87.17C425.06 84.64 430.11 84.64 433.48 87.45C436.85 90.53 436.01 95.58 432.64 98.67Z" />
	<path id="Layer" class="shp40" d="M436.85 107.09C436.01 107.65 435.17 107.65 434.88 106.81C434.6 105.97 434.88 104.84 435.73 104.28C436.57 103.72 437.41 103.72 437.69 104.56C437.97 105.4 437.69 106.53 436.85 107.09Z" />
	<path id="Layer" class="shp40" d="M417.49 83.52C416.92 84.08 416.08 83.8 415.24 83.52C414.4 82.95 414.4 82.39 414.68 81.83C415.24 81.55 416.08 81.27 416.92 81.83C417.77 82.39 418.05 83.23 417.49 83.52Z" />
	<g id="Layer" style="opacity: 0.502">
		<path id="Layer" class="shp41" d="M427.31 94.74L427.59 94.46L427.59 94.18C427.59 94.18 427.59 93.9 427.59 93.62C427.59 93.34 427.59 93.34 427.31 93.06C427.03 92.78 427.03 92.22 427.03 91.93C427.03 91.65 426.75 91.37 426.75 91.09C426.75 90.81 426.75 90.53 426.75 90.25C426.75 89.97 427.03 89.69 427.31 89.41C427.59 89.13 427.87 89.13 428.15 88.85C428.43 88.85 428.71 88.85 428.99 88.85C429.27 88.85 429.55 88.85 429.83 89.13C430.11 89.13 430.39 89.41 430.68 89.69C430.95 89.41 431.24 89.13 431.52 88.85C431.8 89.13 432.08 89.41 432.08 89.41C431.8 89.69 431.52 89.97 431.24 90.25C431.52 90.53 431.52 90.81 431.52 91.09C431.52 91.37 431.52 91.65 431.52 91.93C431.52 92.22 431.24 92.5 431.24 92.78C430.95 93.06 430.95 93.34 430.68 93.62C430.39 93.06 429.83 92.78 429.55 92.22C429.83 91.93 430.11 91.65 430.11 91.37C430.11 91.09 430.11 90.81 429.83 90.53L429.55 90.25L429.27 90.25L428.99 90.25C428.99 90.25 428.71 90.25 428.71 90.53L428.43 90.81L428.43 91.09C428.43 91.09 428.43 91.37 428.43 91.65C428.43 91.93 428.43 91.93 428.71 92.22C428.71 92.5 428.99 93.06 428.99 93.34C428.99 93.62 428.99 93.9 428.99 94.18C428.99 94.46 428.99 94.74 428.71 95.02C428.71 95.3 428.43 95.58 428.15 95.86C427.87 96.14 427.59 96.14 427.31 96.42C427.03 96.42 426.75 96.42 426.46 96.42C426.19 96.42 425.9 96.42 425.62 96.14C425.34 95.86 425.06 95.86 424.78 95.58C424.5 95.86 424.22 96.14 423.94 96.42C423.66 96.14 423.66 95.86 423.38 95.58C423.66 95.3 423.94 95.02 424.22 94.74C423.94 94.46 423.94 94.18 423.66 93.9C423.66 93.62 423.38 93.34 423.38 93.06C423.38 92.78 423.38 92.5 423.66 92.22C423.94 91.93 423.94 91.65 424.22 91.37C424.5 91.65 425.06 92.22 425.34 92.5C425.06 92.78 425.06 92.78 425.06 93.06C425.06 93.34 425.06 93.34 425.06 93.62C425.06 93.9 425.06 93.9 425.06 94.18C425.06 94.46 425.34 94.46 425.34 94.46C425.34 94.74 425.62 94.74 425.62 94.74L425.9 94.74L426.19 94.74C427.03 95.02 427.31 94.74 427.31 94.74Z" />
	</g>
	<path id="Layer" class="shp42" d="M286.15 85.48C270.16 100.64 254.72 109.62 241.25 112.7C248.55 118.03 255 124.77 261.18 133.19C269.03 132.35 282.5 127.02 291.48 121.68C291.2 108.49 286.15 98.39 286.15 85.48Z" />
	<path id="Layer" class="shp40" d="M319.27 91.1C299.06 114.39 278.86 127.02 262.02 129.82C255.84 121.68 249.39 114.95 242.09 109.9C259.77 104.85 280.82 89.97 301.87 64.44C308.04 71.73 313.93 80.71 319.27 91.1Z" />
	<path id="Layer" class="shp41" d="M298.78 71.17C280.82 91.66 263.14 104.28 247.71 109.62C248.83 110.46 248.55 111.58 247.43 111.86C252.2 115.79 256.69 120.28 261.18 125.61C262.3 125.33 263.98 126.17 265.11 127.3C279.98 123.65 296.82 112.42 314.21 93.9C313.37 92.5 313.93 89.97 315.34 88.29C311.41 81.55 307.48 75.38 303.55 70.05C301.59 72.01 299.62 72.29 298.78 71.17Z" />
	<path id="Layer" class="shp40" d="M289.8 98.11C293.17 102.6 291.76 110.46 286.71 113.83C281.66 117.19 274.93 115.23 271.56 111.02C267.91 106.81 269.03 101.76 274.08 97.83C279.14 94.18 286.43 93.34 289.8 98.11Z" />
	<path id="Layer" class="shp40" d="M301.31 87.17C301.87 88.01 301.59 89.69 300.46 90.81C299.34 91.94 297.94 91.94 297.38 90.81C296.82 89.97 297.1 88.29 297.94 87.17C299.34 86.32 300.74 86.04 301.31 87.17Z" />
	<path id="Layer" class="shp40" d="M264.54 114.67C265.39 115.51 265.11 116.35 264.26 116.91C263.42 117.19 262.02 116.91 261.18 116.07C260.33 115.23 260.62 114.39 261.46 114.11C262.3 113.55 263.7 113.83 264.54 114.67Z" />
	<g id="Layer" style="opacity: 0.502">
		<path id="Layer" class="shp41" d="M283.35 106.25C283.35 105.97 283.07 105.97 283.07 105.97C282.79 105.97 282.79 105.69 282.5 105.69C282.22 105.69 282.22 105.69 281.94 105.69C281.66 105.69 281.38 105.69 281.1 105.97C280.54 106.25 279.98 106.25 279.42 106.25C278.86 106.25 278.58 106.25 278.01 106.25C277.45 106.25 277.17 106.25 276.89 105.97C276.61 105.69 276.05 105.41 275.77 105.13C275.49 104.85 275.21 104.56 275.21 104C275.21 103.72 275.21 103.44 275.21 102.88C275.21 102.6 275.49 102.32 275.77 101.76C276.05 101.48 276.33 101.2 276.61 100.64C276.33 100.36 276.05 99.79 275.49 99.51C275.77 99.23 276.33 98.95 276.61 98.67C276.89 98.95 277.45 99.51 277.73 99.79C278.3 99.51 278.58 99.23 279.14 99.23C279.7 99.23 279.98 98.95 280.54 99.23C280.82 99.23 281.38 99.51 281.66 99.51C281.94 99.79 282.5 100.08 282.79 100.36C282.22 100.92 281.38 101.48 280.82 101.76C280.54 101.2 279.98 100.92 279.7 100.92C279.42 100.92 278.86 100.92 278.58 101.2C278.3 101.48 278.3 101.48 278.01 101.76C278.01 102.04 277.73 102.04 277.73 102.32C277.73 102.6 277.73 102.6 277.73 102.88C277.73 103.16 278.01 103.16 278.01 103.44C278.01 103.72 278.3 103.72 278.3 103.72C278.3 103.72 278.58 103.72 278.86 104C279.14 104 279.14 104 279.42 104C279.7 104 279.98 104 280.26 103.72C280.82 103.44 281.38 103.44 281.94 103.16C282.5 103.16 282.79 102.88 283.35 103.16C283.91 103.16 284.19 103.16 284.47 103.44C284.75 103.72 285.03 104 285.59 104.28C285.87 104.56 286.15 105.13 286.15 105.41C286.15 105.69 286.15 106.25 286.15 106.53C286.15 106.81 285.87 107.37 285.59 107.65C285.31 107.93 285.03 108.49 284.75 108.77C285.03 109.06 285.31 109.62 285.59 110.18C285.31 110.46 284.75 110.74 284.47 111.02C284.19 110.46 283.91 110.18 283.63 109.9C283.35 110.18 282.79 110.18 282.5 110.46C281.94 110.46 281.66 110.46 281.1 110.46C280.54 110.46 280.26 110.18 279.7 109.9C279.14 109.62 278.86 109.34 278.58 108.77C279.14 108.21 279.98 107.93 280.54 107.37C280.82 107.65 281.1 107.93 281.1 107.93C281.38 107.93 281.66 108.21 281.66 108.21C281.94 108.21 282.22 108.21 282.22 108.21C282.5 108.21 282.5 107.93 282.79 107.93C283.07 107.65 283.07 107.65 283.35 107.37C283.35 107.09 283.63 107.09 283.63 106.81C283.63 106.53 283.63 106.53 283.63 106.25C283.63 106.53 283.63 106.53 283.35 106.25Z" />
	</g>
	<path id="Layer" class="shp25" d="M457.9 191.56C457.9 191.56 467.16 187.63 470.81 186.51C474.45 185.38 484.56 181.46 486.52 180.61C488.48 179.77 487.08 177.81 483.71 178.37C480.35 178.93 473.89 181.46 473.89 181.46C473.89 181.46 480.91 176.68 482.59 176.12C484.27 175.56 482.59 172.75 477.54 174.72C472.49 176.68 469.68 177.81 468.56 177.81C467.44 177.81 466.6 176.97 467.72 175.84C468.84 174.72 471.09 172.47 471.65 171.91C472.49 171.07 473.05 169.95 472.21 169.11C471.37 168.26 469.68 167.7 467.16 170.23C464.63 172.75 460.7 176.12 459.02 174.44C457.33 172.75 456.21 173.6 455.09 172.75C454.25 171.91 453.13 166.58 450.32 166.3C449.2 166.3 450.32 171.63 450.32 172.75C450.32 174.16 450.32 176.97 451.16 178.65C448.92 180.05 446.39 186.51 451.16 189.31C455.09 191 457.9 191.56 457.9 191.56Z" />
	<path id="Layer" class="shp43" d="M486.52 180.61C488.48 179.77 487.08 177.81 483.71 178.37C481.19 178.93 476.98 180.33 474.73 180.89L474.45 180.89C476.42 179.77 481.19 176.69 482.31 176.12C483.99 175.56 482.31 172.76 477.26 174.72C472.21 176.69 469.4 177.81 468.28 177.81C467.16 177.81 466.31 176.97 467.44 175.84C468.56 174.72 470.81 172.47 471.37 171.91C472.21 171.07 472.77 169.95 471.93 169.11C471.09 168.27 469.4 167.71 466.88 170.23C464.35 172.76 460.42 176.12 458.74 174.44C457.05 172.76 455.93 173.6 454.81 172.76C453.97 171.91 452.85 166.58 450.04 166.3L443.87 157.88L476.98 164.62L490.73 185.1L481.19 182.86C483.99 181.74 485.96 180.89 486.52 180.61Z" />
	<path id="Layer" class="shp44" d="M444.71 157.6L445.27 156.2L478.38 162.93L492.41 183.7L491.57 184.82L477.82 164.06L444.71 157.6Z" />
	<path id="Layer" class="shp45" d="M492.41 183.7L478.38 162.93L445.27 156.2L442.18 99.79L508.69 109.9L492.41 183.7Z" />
	<path id="Layer" class="shp46" d="M366.13 103.16C371.4 103.16 375.67 99.14 375.67 94.18C375.67 89.22 371.4 85.2 366.13 85.2C360.86 85.2 356.59 89.22 356.59 94.18C356.59 99.14 360.86 103.16 366.13 103.16Z" />
	<path id="Layer" class="shp47" d="M364.45 103.16C369.72 103.16 373.99 99.14 373.99 94.18C373.99 89.22 369.72 85.2 364.45 85.2C359.18 85.2 354.91 89.22 354.91 94.18C354.91 99.14 359.18 103.16 364.45 103.16Z" />
	<path id="Layer" class="shp48" d="M364.45 102.03C369.1 102.03 372.87 98.52 372.87 94.18C372.87 89.84 369.1 86.32 364.45 86.32C359.8 86.32 356.03 89.84 356.03 94.18C356.03 98.52 359.8 102.03 364.45 102.03Z" />
	<path id="Layer" class="shp49" d="M364.45 86.32C361.92 86.32 359.96 87.16 358.27 88.85C359.68 87.44 361.92 86.6 364.17 86.6C368.94 86.6 372.58 90.25 372.58 94.46C372.58 96.7 371.74 98.39 370.34 100.07C372.02 98.67 372.87 96.7 372.87 94.18C372.87 89.97 369.22 86.32 364.45 86.32Z" />
	<path id="Layer" class="shp50" d="M365.57 95.86L365.57 95.58C365.57 95.58 365.57 95.3 365.29 95.3L365.01 95.02C364.73 95.02 364.73 94.74 364.45 94.74C364.17 94.74 363.89 94.46 363.61 94.46C363.32 94.46 363.04 94.18 363.04 93.9C362.76 93.62 362.76 93.62 362.76 93.33C362.76 93.05 362.48 92.77 362.48 92.49C362.48 92.21 362.48 91.93 362.48 91.65C362.48 91.37 362.76 91.37 362.76 91.09C363.04 90.81 363.04 90.81 363.32 90.81C363.61 90.81 363.89 90.53 364.17 90.53L364.17 89.41L365.01 89.41L365.01 90.53C365.29 90.53 365.57 90.53 365.85 90.81C366.13 90.81 366.13 91.09 366.41 91.37C366.69 91.65 366.69 91.65 366.69 91.93C366.69 92.21 366.69 92.49 366.69 92.77L365.57 92.77C365.57 92.49 365.57 92.49 365.57 92.21C365.57 91.93 365.57 91.93 365.29 91.93L365.01 91.65C365.01 91.65 364.73 91.65 364.45 91.65C364.17 91.65 364.17 91.65 363.89 91.65C363.89 91.65 363.61 91.65 363.61 91.93L363.32 92.21L363.32 92.49L363.32 92.77C363.32 92.77 363.32 93.05 363.61 93.05L363.89 93.33C364.17 93.33 364.17 93.62 364.45 93.62C364.73 93.62 365.01 93.9 365.29 93.9C365.57 93.9 365.85 94.18 365.85 94.46C366.13 94.74 366.13 94.74 366.13 95.02C366.13 95.3 366.41 95.58 366.41 95.86C366.41 96.14 366.41 96.42 366.13 96.7C366.13 96.98 365.85 96.98 365.85 97.26C365.57 97.54 365.57 97.54 365.29 97.54C365.01 97.54 364.73 97.83 364.45 97.83L364.45 98.67L363.61 98.67L363.61 97.83C363.32 97.83 363.04 97.83 362.76 97.54C362.48 97.54 362.2 97.26 362.2 97.26C361.92 96.98 361.92 96.98 361.64 96.7C361.64 96.42 361.36 96.14 361.36 95.86L362.48 95.86C362.48 96.14 362.48 96.42 362.48 96.42C362.48 96.7 362.76 96.7 362.76 96.7L363.04 96.98C363.32 96.98 363.32 96.98 363.61 96.98C363.89 96.98 364.17 96.98 364.45 96.7C365.57 96.42 365.57 96.14 365.57 95.86Z" />
	<path id="Layer" class="shp46" d="M420.34 56.75C419.78 59.64 423.28 62.75 428.15 63.68C433.02 64.61 437.42 63.03 437.98 60.13C438.53 57.24 435.03 54.14 430.16 53.21C425.29 52.27 420.89 53.86 420.34 56.75Z" />
	<path id="Layer" class="shp47" d="M420.48 55.99C419.93 58.88 423.43 61.98 428.3 62.91C433.17 63.85 437.57 62.26 438.12 59.37C438.68 56.47 435.18 53.37 430.3 52.44C425.43 51.51 421.04 53.1 420.48 55.99Z" />
	<path id="Layer" class="shp48" d="M421.57 56.24C421.08 58.83 424.13 61.59 428.39 62.41C432.66 63.22 436.51 61.79 437.01 59.2C437.5 56.61 434.45 53.85 430.19 53.03C425.93 52.22 422.07 53.66 421.57 56.24Z" />
	<path id="Layer" class="shp49" d="M437.13 59.1C437.41 57.69 436.57 56.57 435.45 55.45C436.57 56.57 437.13 57.69 437.13 59.1C436.29 61.34 432.64 62.75 428.15 61.9C426.19 61.62 424.22 60.78 423.1 59.66C424.22 60.78 426.19 61.62 428.43 62.18C432.64 63.03 436.57 61.62 437.13 59.1Z" />
	<path id="Layer" class="shp50" d="M427.59 57.98L427.87 57.98L428.15 57.98C428.15 57.98 428.43 57.98 428.43 57.7L428.71 57.42C428.71 57.13 428.99 57.13 429.27 57.13C429.55 57.13 429.55 56.85 429.83 56.85C430.11 56.85 430.11 56.85 430.39 56.85C430.68 56.85 430.96 56.85 431.24 56.85C431.52 56.85 431.8 56.85 432.08 57.13C432.36 57.13 432.36 57.42 432.64 57.42C432.92 57.42 432.92 57.7 432.92 57.7C432.92 57.7 432.92 57.98 432.92 58.26L434.04 58.54L434.04 59.1L432.92 58.82C432.92 59.1 432.64 59.1 432.64 59.1C432.64 59.1 432.36 59.38 432.08 59.38C431.8 59.38 431.52 59.38 431.52 59.38C431.24 59.38 430.96 59.38 430.68 59.38L430.68 58.82C430.96 58.82 430.96 58.82 431.24 58.82C431.52 58.82 431.52 58.82 431.52 58.82L431.8 58.82C431.8 58.82 431.8 58.82 431.8 58.54L431.8 58.26C431.8 58.26 431.8 57.98 431.52 57.98C431.52 57.98 431.24 57.98 431.24 57.7L430.96 57.7L430.68 57.7L430.39 57.7C430.39 57.7 430.11 57.7 430.11 57.98L429.83 58.26C429.83 58.54 429.55 58.54 429.27 58.54C428.99 58.54 428.99 58.82 428.71 58.82C428.43 58.82 428.43 58.82 428.15 58.82C427.87 58.82 427.59 58.82 427.31 58.82C427.03 58.82 426.75 58.82 426.47 58.54C426.19 58.54 426.19 58.26 425.9 58.26L425.62 57.98C425.62 57.7 425.62 57.7 425.62 57.42L424.78 57.13L424.78 56.57L425.62 56.85C425.62 56.57 425.62 56.57 425.9 56.57C425.9 56.57 426.19 56.29 426.47 56.29C426.75 56.29 426.75 56.29 427.03 56.29C427.31 56.29 427.59 56.29 427.87 56.29L427.87 56.85C427.59 56.85 427.31 56.85 427.31 56.85C427.03 56.85 427.03 56.85 427.03 56.85C427.03 56.85 426.75 56.85 426.75 57.13L426.75 57.42C426.75 57.7 426.75 57.7 427.03 57.98C427.03 57.98 427.31 57.98 427.59 57.98Z" />
	<path id="Layer" class="shp46" d="M457.99 114.12C456.39 115.07 456.44 118.11 458.11 120.91C459.77 123.71 462.42 125.2 464.01 124.25C465.61 123.3 465.56 120.26 463.89 117.47C462.23 114.67 459.58 113.17 457.99 114.12Z" />
	<path id="Layer" class="shp47" d="M458.67 113.71C457.07 114.66 457.12 117.69 458.78 120.49C460.45 123.29 463.09 124.79 464.69 123.84C466.29 122.89 466.24 119.85 464.57 117.05C462.91 114.25 460.27 112.76 458.67 113.71Z" />
	<path id="Layer" class="shp48" d="M459.11 114.43C457.65 115.3 457.62 117.95 459.04 120.35C460.46 122.75 462.81 123.99 464.27 123.12C465.74 122.25 465.77 119.6 464.35 117.2C462.92 114.8 460.58 113.56 459.11 114.43Z" />
	<path id="Layer" class="shp49" d="M464.35 123.36C465.19 122.8 465.47 121.96 465.47 120.84C465.19 121.96 464.91 122.8 464.35 123.36C462.95 123.93 460.7 122.8 459.02 120.28C458.18 119.16 457.9 117.75 457.9 116.91C457.9 118.03 458.18 119.44 459.02 120.56C460.42 122.8 462.95 124.21 464.35 123.36Z" />
	<path id="Layer" class="shp50" d="M460.7 118.31C460.7 118.31 460.98 118.31 460.7 118.31C460.98 118.59 460.98 118.59 460.98 118.59C460.98 118.59 460.98 118.59 461.26 118.59L461.54 118.59L461.82 118.59L462.11 118.59C462.11 118.59 462.39 118.59 462.39 118.88L462.67 119.16C462.67 119.44 462.95 119.44 462.95 119.72L462.95 120L462.95 120.28C462.95 120.28 462.95 120.56 462.67 120.56L462.95 121.12L462.67 121.4L462.67 120.84L462.39 120.84C462.39 120.84 462.11 120.84 462.11 120.56L461.82 120.28C461.82 120.28 461.54 120 461.54 119.72L461.82 119.44C461.82 119.44 461.82 119.72 462.11 119.72C462.11 119.72 462.11 119.72 462.39 120C462.39 120 462.39 120 462.67 120C462.67 120 462.67 120 462.95 120C462.95 120 462.95 120 462.95 119.72C462.95 119.72 462.95 119.72 462.95 119.44L462.95 119.16C462.95 119.16 462.95 119.16 462.95 118.88C462.95 118.88 462.95 118.88 462.67 118.88C462.67 118.88 462.67 118.88 462.39 118.88L462.11 118.88L461.82 118.88L461.54 118.88C461.54 118.88 461.26 118.88 461.26 118.59L460.98 118.31C460.98 118.03 460.7 118.03 460.7 117.75L460.7 117.47L460.7 117.19C460.7 117.19 460.7 116.91 460.98 116.91L460.7 116.35L460.98 116.07L461.26 116.63L461.54 116.63L461.82 116.63L462.11 116.91C462.11 116.91 462.39 117.19 462.39 117.47L462.11 117.75L461.82 117.47C461.82 117.47 461.54 117.47 461.54 117.19C461.54 117.19 461.54 117.19 461.26 117.19C461.26 117.19 461.26 117.19 460.98 117.19L460.7 117.47C460.7 117.75 460.7 118.03 460.7 118.31Z" />
	<path id="Layer" class="shp46" d="M311.62 58.09C312.48 59.91 316.58 59.77 320.79 57.77C324.98 55.78 327.69 52.68 326.82 50.86C325.96 49.04 321.85 49.19 317.65 51.18C313.45 53.18 310.75 56.27 311.62 58.09Z" />
	<path id="Layer" class="shp47" d="M311.38 57.52C312.25 59.34 316.35 59.2 320.55 57.21C324.75 55.21 327.46 52.12 326.6 50.3C325.73 48.48 321.63 48.62 317.43 50.61C313.22 52.61 310.52 55.7 311.38 57.52Z" />
	<path id="Layer" class="shp48" d="M312.38 57.02C313.11 58.56 316.66 58.41 320.3 56.69C323.94 54.96 326.3 52.32 325.57 50.78C324.84 49.24 321.3 49.38 317.66 51.11C314.01 52.84 311.65 55.48 312.38 57.02Z" />
	<path id="Layer" class="shp49" d="M325.44 50.68C325.16 49.84 324.04 49.56 322.35 49.56C323.76 49.56 324.88 49.84 325.44 50.68C326 52.37 323.48 54.89 319.83 56.58C318.14 57.42 316.18 57.98 314.78 57.98C316.18 57.98 318.14 57.42 320.11 56.58C324.04 54.89 326.28 52.37 325.44 50.68Z" />
	<path id="Layer" class="shp50" d="M317.86 54.89C317.86 54.89 318.14 54.89 318.14 54.61C318.14 54.61 318.42 54.61 318.42 54.33C318.42 54.33 318.42 54.05 318.7 54.05L318.7 53.77C318.7 53.49 318.7 53.49 318.99 53.21L319.27 52.93L319.55 52.65C319.83 52.65 319.83 52.37 320.11 52.37C320.39 52.37 320.67 52.09 320.67 52.09C320.95 52.09 320.95 52.09 321.23 52.09C321.51 52.09 321.51 52.09 321.51 52.09C321.51 52.09 321.79 52.09 321.79 52.37L322.63 52.09L322.63 52.37L321.79 52.65L321.79 52.93L321.51 53.21C321.51 53.21 321.23 53.49 320.95 53.49C320.67 53.49 320.39 53.77 320.39 53.77L320.11 53.49C320.39 53.49 320.39 53.21 320.67 53.21L320.95 52.93C320.95 52.93 320.95 52.65 321.23 52.65C321.23 52.65 321.23 52.65 321.23 52.37C321.23 52.37 321.23 52.37 320.95 52.37L320.67 52.37L320.39 52.37C320.39 52.37 320.11 52.37 320.11 52.65C320.11 52.65 319.83 52.65 319.83 52.93C319.83 52.93 319.83 53.21 319.55 53.21L319.55 53.49C319.55 53.77 319.55 53.77 319.27 54.05L318.99 54.33L318.7 54.61C318.42 54.61 318.42 54.89 318.14 54.89C317.86 54.89 317.58 55.17 317.58 55.17C317.3 55.17 317.3 55.17 317.02 55.17C316.74 55.17 316.74 55.17 316.46 55.17C316.46 55.17 316.18 55.17 316.18 54.89L315.34 55.17L315.34 54.89L316.18 54.61L316.18 54.33C316.18 54.33 316.18 54.05 316.46 54.05C316.46 54.05 316.74 53.77 317.02 53.77C317.3 53.49 317.58 53.49 317.86 53.21L318.14 53.49C317.86 53.49 317.86 53.77 317.58 53.77L317.3 54.05L317.3 54.33C317.3 54.33 317.3 54.33 317.3 54.61L317.58 54.89C317.3 54.89 317.58 54.89 317.86 54.89Z" />
	<path id="Layer" class="shp51" d="M560.61 238.14C559.76 238.14 559.2 238.7 559.2 239.54C559.2 240.39 559.76 240.95 560.61 240.95L574.64 240.95C575.48 240.95 576.04 240.39 576.04 239.54C576.04 238.7 575.48 238.14 574.64 238.14L560.61 238.14Z" />
	<path id="Layer" class="shp51" d="M580.53 238.14C579.69 238.14 579.13 238.7 579.13 239.54C579.13 240.39 579.69 240.95 580.53 240.95L583.05 240.95C583.9 240.95 584.46 240.39 584.46 239.54C584.46 238.7 583.9 238.14 583.05 238.14L580.53 238.14Z" />
	<path id="Layer" class="shp51" d="M36.67 328.79C35.83 328.79 35.27 329.35 35.27 330.19C35.27 331.03 35.83 331.59 36.67 331.59L50.71 331.59C51.55 331.59 52.11 331.03 52.11 330.19C52.11 329.35 51.55 328.79 50.71 328.79L36.67 328.79Z" />
	<path id="Layer" class="shp51" d="M56.88 328.79C56.04 328.79 55.48 329.35 55.48 330.19C55.48 331.03 56.04 331.59 56.88 331.59L59.41 331.59C60.25 331.59 60.81 331.03 60.81 330.19C60.81 329.35 60.25 328.79 59.41 328.79L56.88 328.79Z" />
	<path id="Layer" class="shp51" d="M397 170.79C396.16 170.79 395.6 171.35 395.6 172.19C395.6 173.03 396.16 173.59 397 173.59L411.03 173.59C411.87 173.59 412.43 173.03 412.43 172.19C412.43 171.35 411.87 170.79 411.03 170.79L397 170.79Z" />
	<path id="Layer" class="shp51" d="M416.92 170.79C416.08 170.79 415.52 171.35 415.52 172.19C415.52 173.03 416.08 173.59 416.92 173.59L419.45 173.59C420.29 173.59 420.85 173.03 420.85 172.19C420.85 171.35 420.29 170.79 419.45 170.79L416.92 170.79Z" />
	<path id="Layer" class="shp51" d="M98.41 210.92C97.57 210.92 97.01 211.48 97.01 212.32C97.01 213.17 97.57 213.73 98.41 213.73L112.44 213.73C113.29 213.73 113.85 213.17 113.85 212.32C113.85 211.48 113.29 210.92 112.44 210.92L98.41 210.92Z" />
	<path id="Layer" class="shp51" d="M118.62 210.92C117.78 210.92 117.21 211.48 117.21 212.32C117.21 213.17 117.78 213.73 118.62 213.73L121.14 213.73C121.98 213.73 122.55 213.17 122.55 212.32C122.55 211.48 121.98 210.92 121.14 210.92L118.62 210.92Z" />
	<path id="Layer" class="shp51" d="M631.6 319.24L629.08 316.72L631.6 314.19C632.16 313.63 632.16 312.79 631.6 312.23C631.04 311.66 630.2 311.66 629.64 312.23L627.11 314.75L624.59 312.23C624.03 311.66 623.18 311.66 622.62 312.23C622.06 312.79 622.06 313.63 622.62 314.19L625.15 316.72L622.62 319.24C622.06 319.8 622.06 320.64 622.62 321.21C623.18 321.77 624.03 321.77 624.59 321.21L627.11 318.68L629.64 321.21C630.2 321.77 631.04 321.77 631.6 321.21C632.16 320.64 632.16 319.8 631.6 319.24Z" />
	<path id="Layer" class="shp51" d="M325.72 162.09L323.19 159.56L325.72 157.04C326.28 156.48 326.28 155.64 325.72 155.07C325.16 154.51 324.32 154.51 323.76 155.07L321.23 157.6L318.7 155.07C318.14 154.51 317.3 154.51 316.74 155.07C316.18 155.64 316.18 156.48 316.74 157.04L319.27 159.56L316.74 162.09C316.18 162.65 316.18 163.49 316.74 164.06C317.3 164.62 318.14 164.62 318.7 164.06L321.23 161.53L323.76 164.06C324.32 164.62 325.16 164.62 325.72 164.06C326.28 163.49 326.28 162.65 325.72 162.09Z" />
	<path id="Layer" class="shp51" d="M121.7 98.39L119.18 95.86L121.7 93.34C122.27 92.78 122.27 91.94 121.7 91.37C121.14 90.81 120.3 90.81 119.74 91.37L117.22 93.9L114.69 91.37C114.13 90.81 113.29 90.81 112.72 91.37C112.16 91.94 112.16 92.78 112.72 93.34L115.25 95.86L112.72 98.39C112.16 98.95 112.16 99.79 112.72 100.35C113.29 100.92 114.13 100.92 114.69 100.35L117.22 97.83L119.74 100.35C120.3 100.92 121.14 100.92 121.7 100.35C122.27 99.79 122.27 98.95 121.7 98.39Z" />
	<path id="Layer" fill-rule="evenodd" class="shp51" d="M352.66 238.14C356.59 238.14 359.96 241.51 359.96 245.44C359.96 249.37 356.59 252.73 352.66 252.73C348.73 252.73 345.36 249.37 345.36 245.44C345.36 241.23 348.73 238.14 352.66 238.14ZM352.66 249.93C355.19 249.93 357.15 247.96 357.15 245.44C357.15 242.91 355.19 240.95 352.66 240.95C350.13 240.95 348.17 242.91 348.17 245.44C348.17 247.68 350.13 249.93 352.66 249.93Z" />
	<path id="Layer" fill-rule="evenodd" class="shp51" d="M569.59 90.25C573.51 90.25 576.88 93.62 576.88 97.55C576.88 101.48 573.51 104.84 569.59 104.84C565.66 104.84 562.29 101.48 562.29 97.55C562.29 93.62 565.66 90.25 569.59 90.25ZM569.59 102.04C572.11 102.04 574.08 100.07 574.08 97.55C574.08 95.02 572.11 93.06 569.59 93.06C567.06 93.06 565.1 95.02 565.1 97.55C565.1 100.07 567.34 102.04 569.59 102.04Z" />
</svg>