<svg width="1108" height="488" viewBox="0 0 1108 488" fill="none" xmlns="http://www.w3.org/2000/svg">
<path d="M1063.22 485.971C1063.22 485.971 1154.65 314.679 1047.02 232.956C986.98 187.333 904.998 268.315 844.098 145.885C808.651 74.6211 684.663 52.9998 622.669 150.295C560.676 247.552 507.388 247.084 464.601 229.092C415.529 208.446 393.98 146.354 317.191 159.467C228.416 174.649 240.323 266.675 174.894 250.635C48.7596 219.725 -44.6603 396.286 42.5134 487.181L1063.22 485.971Z" fill="#E9F3FE"/>
<path d="M569.342 382.235C569.342 382.235 551.54 395.466 548.066 394.646C544.591 393.826 561.066 380.362 561.066 380.362C554.859 377.396 535.573 379.269 535.573 379.269C535.573 379.269 529.171 399.954 525.97 398.354C522.808 396.714 532.606 380.323 532.606 380.323C525.697 379.894 517.225 385.045 517.225 385.045C505.631 394.217 518.006 408.618 518.006 408.618C518.006 408.618 515.624 415.76 508.285 422.238C508.285 422.238 497.823 429.966 497.081 443.782L498.994 443.938C498.994 443.938 502 431.059 507.465 424.97C507.661 424.736 507.973 424.424 508.363 424.034C509.261 423.214 509.886 422.59 510.315 422.121C513.048 419.506 516.796 416.189 518.591 415.838C518.591 415.838 518.513 415.487 518.513 414.94C518.552 415.213 518.552 415.526 518.591 415.838C519.216 423.136 533.348 429.498 542.054 430.785C550.759 432.112 548.066 428.522 545.06 423.214C542.054 417.906 532.567 415.526 530.42 413.106C528.273 410.647 532.724 410.647 537.955 413.067C543.186 415.448 543.928 421.848 552.321 425.868C560.714 429.888 573.363 415.955 573.363 415.955C566.648 415.604 557.084 408.345 557.435 406.12C557.786 403.895 573.675 409.945 576.408 410.257C579.141 410.53 585.309 407.174 586.246 396.246C587.261 385.279 569.342 382.235 569.342 382.235Z" fill="#43AF66"/>
<path d="M474.829 390.431C474.829 390.431 494.505 379.425 485.33 364.478C485.33 364.478 477.991 355.306 470.144 352.965C470.144 352.965 474.322 375.249 470.144 375.757C465.967 376.264 467.256 350.584 467.256 350.584C467.256 350.584 446.565 340.632 438.406 341.412C438.406 341.412 451.25 363.151 447.072 362.643C442.895 362.136 428.451 340.125 428.451 340.125C428.451 340.125 407.214 336.183 403.817 348.789C400.421 361.356 405.926 367.639 409.049 368.459C412.211 369.239 432.394 368.966 431.847 371.62C431.34 374.235 417.676 378.45 410.103 376.069C410.103 376.069 418.496 396.753 429.505 395.739C440.514 394.685 443.91 387.894 450.742 387.348C457.574 386.84 462.532 388.675 459.135 390.509C455.739 392.343 444.184 391.094 438.679 395.778C433.175 400.461 428.724 403.349 438.952 405.418C449.181 407.525 467.529 406.198 471.198 398.354C474.829 390.431 474.829 390.431 474.829 390.431Z" fill="#58CC4B"/>
<path d="M480.06 409.555C474.556 399.329 474.829 390.431 474.829 390.431C468.544 370.527 413.499 352.691 413.499 352.691C483.496 380.986 471.159 398.276 471.159 398.276C473.033 399.368 475.883 404.637 477.835 408.657C478.108 409.359 478.577 410.296 479.201 411.584C479.475 412.169 479.67 412.638 479.826 412.989C483.418 422.004 481.505 437.576 481.505 437.576L483.691 438.162C488.532 422.434 480.06 409.555 480.06 409.555Z" fill="#43AF66"/>
<path d="M506.099 375.249C506.099 375.249 480.177 360.731 492.279 341.061C492.279 341.061 501.961 328.962 512.306 325.879C512.306 325.879 506.763 355.228 512.306 355.93C517.85 356.633 516.093 322.757 516.093 322.757C516.093 322.757 543.381 309.644 554.117 310.658C554.117 310.658 537.174 339.343 542.718 338.641C548.261 337.938 567.234 308.941 567.234 308.941C567.234 308.941 595.225 303.75 599.714 320.337C604.204 336.924 596.942 345.198 592.804 346.251C588.666 347.305 562.042 346.954 562.744 350.388C563.447 353.823 581.405 359.365 591.438 356.242C591.438 356.242 580.39 383.523 565.868 382.157C551.345 380.791 546.856 371.775 537.877 371.112C528.898 370.409 522.339 372.829 526.829 375.249C531.318 377.668 546.504 376.029 553.766 382.196C561.027 388.362 566.883 392.148 553.414 394.919C539.946 397.69 515.742 395.972 510.901 385.591C506.099 375.249 506.099 375.249 506.099 375.249Z" fill="#58CC4B"/>
<path d="M586.949 325.527C586.949 325.527 514.376 349.022 506.099 375.248C506.099 375.248 506.451 386.996 499.189 400.46C499.189 400.46 487.985 417.437 494.388 438.122L497.277 437.341C497.277 437.341 494.778 416.813 499.502 404.948C499.697 404.519 499.97 403.895 500.322 403.114C501.18 401.436 501.766 400.187 502.156 399.25C504.733 393.943 508.481 387.035 510.94 385.591C510.94 385.63 494.7 362.838 586.949 325.527Z" fill="#43AF66"/>
<path d="M454.451 432.229C454.451 460.25 477.171 482.964 505.201 482.964C533.231 482.964 555.952 460.25 555.952 432.229H454.451Z" fill="#F1A34F"/>
<path d="M550.408 479.842H459.994C456.52 479.842 453.748 482.652 453.748 486.086H556.693C556.693 482.652 553.883 479.842 550.408 479.842Z" fill="#F1A34F"/>
<path d="M556.342 433.79H453.553C453.123 433.79 452.772 433.438 452.772 433.009C452.772 432.58 453.123 432.229 453.553 432.229H556.342C556.771 432.229 557.123 432.58 557.123 433.009C557.123 433.438 556.771 433.79 556.342 433.79Z" fill="#D86713"/>
<path d="M666.549 486.126H863.968C870.175 486.126 875.211 481.052 875.211 474.886V80.2009C875.211 73.9955 870.136 68.9609 863.968 68.9609H666.549C660.342 68.9609 655.306 74.0345 655.306 80.2009V474.886C655.306 481.052 660.381 486.126 666.549 486.126Z" fill="#1A2629"/>
<path d="M645.234 486.126H842.653C848.86 486.126 853.896 481.052 853.896 474.886V80.2009C853.896 73.9955 848.821 68.9609 842.653 68.9609H645.234C639.027 68.9609 633.99 74.0345 633.99 80.2009V474.886C633.99 481.052 639.066 486.126 645.234 486.126Z" fill="#323232"/>
<path d="M711.717 89.1777H768.87C770.08 89.1777 771.095 88.1629 771.095 86.9531C771.095 85.7432 770.08 84.7285 768.87 84.7285H711.717C710.507 84.7285 709.492 85.7432 709.492 86.9531C709.492 88.1629 710.507 89.1777 711.717 89.1777Z" fill="white"/>
<path d="M779.059 89.1777C780.269 89.1777 781.284 88.1629 781.284 86.9531C781.284 85.7432 780.269 84.7285 779.059 84.7285C777.849 84.7285 776.834 85.7432 776.834 86.9531C776.834 88.1629 777.81 89.1777 779.059 89.1777Z" fill="white"/>
<path d="M741.23 477.384C749.143 477.384 755.557 470.972 755.557 463.061C755.557 455.151 749.143 448.738 741.23 448.738C733.317 448.738 726.903 455.151 726.903 463.061C726.903 470.972 733.317 477.384 741.23 477.384Z" fill="white"/>
<path d="M835.626 102.018H652.768V439.449H835.626V102.018Z" fill="white"/>
<path d="M289.473 112.127H466.436C471.98 112.127 476.508 116.654 476.508 122.196V476.019C476.508 481.561 471.98 486.089 466.436 486.089H289.473C283.93 486.089 279.401 481.561 279.401 476.019V122.235C279.362 116.693 283.93 112.127 289.473 112.127Z" fill="#1A2629"/>
<path d="M308.563 112.127H485.526C491.069 112.127 495.598 116.654 495.598 122.196V476.019C495.598 481.561 491.069 486.089 485.526 486.089H308.563C303.019 486.089 298.491 481.561 298.491 476.019V122.235C298.491 116.693 303.019 112.127 308.563 112.127Z" fill="#323232"/>
<path d="M488.142 142.021H305.518V445.07H488.142V142.021Z" fill="white"/>
<path d="M374.695 126.293H425.953C427.046 126.293 427.944 127.191 427.944 128.283C427.944 129.376 427.046 130.274 425.953 130.274H374.695C373.601 130.274 372.704 129.376 372.704 128.283C372.704 127.191 373.601 126.293 374.695 126.293Z" fill="white"/>
<path d="M365.599 126.293C366.692 126.293 367.59 127.191 367.59 128.283C367.59 129.376 366.692 130.274 365.599 130.274C364.506 130.274 363.608 129.376 363.608 128.283C363.608 127.191 364.506 126.293 365.599 126.293Z" fill="white"/>
<path d="M396.869 478.321C402.518 478.321 407.097 473.744 407.097 468.096C407.097 462.449 402.518 457.871 396.869 457.871C391.22 457.871 386.641 462.449 386.641 468.096C386.641 473.744 391.22 478.321 396.869 478.321Z" fill="white"/>
<path d="M93.5762 485.893C93.5762 485.893 77.1018 486.479 74.6423 485.893C74.5252 485.425 71.4802 466.223 71.4802 466.223L68.9427 448.466C68.5913 445.968 71.5583 444.329 73.3931 446.046C74.291 446.866 75.1498 448.115 75.7354 449.871C77.8045 456.115 83.9336 466.223 92.9906 468.838C102.555 471.57 93.5762 485.893 93.5762 485.893Z" fill="#163560"/>
<path d="M179.5 396.793L177.861 397.378C177.861 397.378 173.606 390.197 164.939 393.085C164.939 393.085 161.465 394.529 163.534 396.442C165.603 398.354 165.095 397.339 167.906 400.071C170.756 402.803 174.621 404.169 177.275 403.232L180.242 402.179L179.5 396.793Z" fill="#E49963"/>
<path d="M252.621 456.896C252.621 456.896 192.149 410.688 174.933 410.18C157.717 409.673 101.931 486.05 101.931 486.05H122.816C122.816 486.05 159.63 466.458 172.591 447.842C173.879 445.968 176.69 446.047 177.9 447.998C184.615 458.691 202.104 484.918 213.426 486.05C225.567 487.26 252.621 456.896 252.621 456.896Z" fill="#163560"/>
<path d="M246.804 331.187C246.804 331.187 247.194 334.231 247.663 337.939C248.326 342.778 249.185 348.828 249.771 350.701L267.963 355.306L269.29 342.076C269.29 342.076 264.723 332.944 264.762 320.025L246.804 331.187Z" fill="#FFB27D"/>
<path d="M262.653 358.701L236.81 390.353L227.753 401.437C227.753 401.437 211.551 404.481 203.041 405.222C196.912 405.769 177.314 403.271 177.314 403.271L177.861 397.378C177.861 397.378 190.002 392.226 195.78 391.016C201.675 389.767 216.548 386.411 216.548 386.411C222.17 384.382 243.563 356.75 243.563 356.75L262.653 358.701Z" fill="#29921E"/>
<path d="M279.518 471.766L226.66 467.434C226.66 467.434 226.504 466.38 226.269 464.585C226.191 464.038 226.152 463.453 226.152 462.867C226.035 457.599 228.104 450.457 229.002 443.471C229.588 438.865 229.666 434.299 228.26 430.318C226.621 425.752 225.879 417.127 225.567 408.892C225.137 398.589 225.371 388.988 225.371 388.91C224.825 382.354 226.386 375.055 229.002 368.148C234.155 354.488 243.759 346.76 248.287 342.194C248.287 342.194 253.792 343.56 268.158 339.267C268.587 339.15 269.798 340.945 270.344 341.999C270.344 341.999 276.551 349.844 279.089 369.006C281.353 386.139 279.518 471.766 279.518 471.766Z" fill="#58CC4B"/>
<path d="M266.284 376.85C266.167 379.27 244.891 446.944 247.506 451.939C260.116 476.097 228.299 465.209 226.581 459.003C227.167 454.398 229.626 434.299 228.182 430.357C226.542 425.791 225.801 417.166 225.488 408.931C226.035 405.926 227.284 402.843 228.963 399.838C236.849 398.628 267.065 358.234 266.284 376.85Z" fill="#29921E"/>
<path d="M160.528 390.079L167.086 385.591C167.125 385.552 167.203 385.513 167.282 385.513L168.531 385.006L174.582 404.051L169.312 408.305L168.375 408.735C167.945 408.891 167.399 408.618 167.164 408.071L160.333 391.328C160.059 390.821 160.176 390.314 160.528 390.079Z" fill="#373480"/>
<path d="M175.87 402.881L169.624 408.111C169.194 408.462 168.492 408.228 168.218 407.565L161.387 390.822C161.191 390.354 161.308 389.807 161.66 389.573L168.218 385.085C168.648 384.773 169.311 385.046 169.546 385.67L176.065 401.671C176.26 402.14 176.182 402.647 175.87 402.881Z" fill="#575B9F"/>
<path d="M174.855 400.852L168.687 406.004L162.519 390.822L168.96 386.373L174.855 400.852Z" fill="#E2E7F2"/>
<path d="M172.435 404.326C172.357 404.014 172.474 403.701 172.708 403.584C172.942 403.506 173.215 403.662 173.294 403.975C173.372 404.287 173.255 404.599 173.02 404.716C172.786 404.794 172.513 404.638 172.435 404.326Z" fill="#373480"/>
<path d="M163.456 391.094L168.687 387.387L174.113 400.422L168.765 404.598L163.456 391.094Z" fill="#CED4EA"/>
<path d="M164.822 391.875L168.492 389.299L172.279 398.431L168.57 401.319L164.822 391.875Z" fill="#BCC5DD"/>
<path d="M178.759 406.043L175.44 405.925C175.44 405.925 172.122 399.057 164.549 402.296C164.549 402.296 161.503 403.896 163.182 405.652C164.861 407.408 164.47 406.472 166.774 409.048C169.077 411.584 172.356 412.755 174.699 411.741L177.275 410.57L178.759 406.043Z" fill="#E49963"/>
<path d="M261.365 342.311C261.365 342.311 248.365 347.774 241.651 359.522C237.161 367.327 229.431 380.597 224.747 388.597C222.248 392.851 218.11 395.856 213.308 396.949L197.537 400.422L175.402 405.964C175.402 405.964 174.894 406.901 175.011 408.423C175.206 410.609 176.612 411.038 176.612 411.038C176.612 411.038 197.263 415.994 204.642 416.58C222.756 417.946 231.344 415.565 233.999 414.589C234.584 414.355 235.131 414.043 235.599 413.653C238.371 411.389 249.029 402.491 254.611 393.944C260.077 385.67 275.107 364.127 275.107 364.127L261.365 342.311Z" fill="#58CC4B"/>
<path d="M279.87 451.315C279.87 451.315 285.101 486.011 269.095 486.011C253.089 486.011 93.1078 486.011 93.1078 486.011C93.1078 486.011 88.267 482.733 87.9157 476.488C87.5643 469.853 89.6334 467.512 89.6334 467.512C89.6334 467.512 152.642 465.326 165.408 461.033C229.549 439.568 279.87 451.315 279.87 451.315Z" fill="#1C468A"/>
<path d="M246.804 331.187C246.804 331.187 247.194 334.231 247.663 337.939C264.488 333.022 264.762 320.025 264.762 320.025L246.804 331.187Z" fill="#E8945B"/>
<path d="M244.149 332.163C244.149 332.163 264.566 332.787 264.761 320.025C264.957 307.303 267.689 298.795 254.65 297.897C241.611 296.96 238.996 301.8 237.903 306.015C236.849 310.23 238.84 331.656 244.149 332.163Z" fill="#FFB27D"/>
<path d="M265.152 325.022C265.152 325.022 263.004 324.67 263.356 321.704C263.707 318.738 263.707 314.835 261.287 315.577C258.866 316.318 258.749 318.231 257.773 317.099C256.797 315.967 256.758 311.206 249.575 310.894C242.392 310.581 239.464 313.079 236.107 311.596C232.749 310.113 232.593 305.079 232.593 305.079C232.593 305.079 233.53 306.874 234.975 307.459C234.975 307.459 229.392 299.81 235.873 294.58C242.353 289.35 248.911 292.785 252.659 292.98C260.896 293.487 266.206 293.956 268.899 299.381C271.554 304.766 270.422 319.792 265.152 325.022Z" fill="#2B478B"/>
<path d="M779.176 27.6314L833.986 43.7108L800.491 13.0352L797.446 20.8797L783.47 21.387L779.176 27.6314Z" fill="#58CC4B"/>
<path d="M833.987 43.7105L790.888 12.9569L745.563 4.05859L833.987 43.7105Z" fill="#43AF66"/>
<path d="M800.491 13.0352L833.986 43.7108L810.954 0L800.491 13.0352Z" fill="#43AF66"/>
<path d="M932.677 110.877C936.307 108.653 942.085 111.307 942.085 111.307C940.094 108.497 932.794 109.433 932.794 109.433C947.316 106.35 950.361 115.639 950.595 116.497C961.136 106.974 978.001 127.269 978.001 127.269L953.797 159.349C953.797 159.349 951.571 154.237 948.683 155.837C944.115 158.335 935.331 148.266 938.142 135.035C938.454 133.591 938.806 132.303 939.235 131.093C938.298 131.523 937.205 131.835 936.229 131.835C933.575 131.835 929.593 125.083 929.046 122.82C928.46 120.556 929.046 113.102 932.677 110.877Z" fill="#233862"/>
<path d="M1001.93 250.596C1017.27 244.937 1032.03 218.71 1032.03 218.71L1027.19 215.315C1023.17 221.208 1005.05 232.526 1005.05 232.526C1004.63 227.569 1004.04 223.042 1003.3 218.983C998.262 191.235 986.745 183.039 983.661 181.283C983.154 181.01 982.88 180.893 982.88 180.893C982.88 180.893 982.88 181.088 982.919 181.478C982.958 182.298 983.076 183.976 983.232 186.317C984.442 203.45 989.127 255.318 1001.93 250.596Z" fill="#FFB27D"/>
<path d="M927.797 278.89C935.37 261.913 939.001 257.113 939.118 251.766C939.235 247.551 937.127 242.985 933.067 231.784C932.13 229.13 931.466 226.437 931.037 223.705C927.836 202.162 940.289 178.824 948.058 177.262C950.205 176.677 953.875 168.911 953.835 156.344L954.811 156.539L971.13 159.778C971.13 159.778 970.739 164.93 970.739 169.769C970.739 173.789 970.973 177.614 971.871 178.082C973.043 178.199 973.745 178.277 973.745 178.277C973.745 178.277 987.37 197.167 988.502 214.729C989.634 232.291 977.61 239.941 988.58 275.026C999.862 310.893 923.62 288.296 927.797 278.89Z" fill="#FFB27D"/>
<path d="M971.169 159.778C971.169 159.778 970.778 164.93 970.778 169.769C961.643 169.496 956.803 161.183 954.851 156.578L971.169 159.778Z" fill="#E8945B"/>
<path d="M953.172 154.784C953.172 154.784 948.37 147.213 947.238 140.773C946.418 136.168 948.761 119.035 965.977 121.533C965.977 121.533 970.974 122.04 975.658 125.201C979.406 127.738 984.793 133.163 978.742 148.11L977.181 153.145L953.172 154.784Z" fill="#233862"/>
<path d="M974.214 164.346C974.214 164.346 952.626 164.697 952.587 151.233C952.587 137.768 949.776 128.753 963.556 127.972C977.337 127.192 980.031 132.304 981.124 136.792C982.256 141.32 979.836 163.916 974.214 164.346Z" fill="#FFB27D"/>
<path d="M946.926 441.909C952.352 463.53 960.55 480.117 960.55 480.117L967.695 479.609C967.695 479.609 964.181 462.984 964.415 440.543C964.571 424.854 966.484 406.277 972.692 388.597C994.007 327.714 990.571 283.418 990.571 283.418L950.478 288.101L948.604 288.335C948.448 306.756 947.98 331.734 947.55 351.287C947.199 368.849 946.848 382.04 946.848 382.04C939.157 398.588 941.929 422.005 946.926 441.909Z" fill="#163560"/>
<path d="M923.932 438.474C926.235 463.062 936.385 478.985 936.385 478.985L939.782 481.444C939.782 481.444 943.022 464.115 945.286 443.509C947.472 423.917 950.439 403.194 953.796 396.832C967.148 371.737 971.208 276.979 971.208 276.979L930.568 274.949C926.469 281.818 924.713 293.097 924.283 305.898C923.229 338.252 930.803 380.401 931.974 386.49C932.052 386.958 931.935 387.426 931.701 387.856C923.581 403.896 922.409 422.2 923.932 438.474Z" fill="#1C468A"/>
<path d="M958.403 145.768C949.307 148.11 945.403 145.651 945.403 145.651C945.403 145.651 952.352 140.109 953.797 130.47C953.797 130.47 957.779 117.903 973.238 127.347C974.643 126.137 977.181 125.24 980.499 129.299C985.496 135.387 981.046 146.08 981.046 146.08C978.977 146.315 978.508 139.251 977.415 135.855C976.634 133.319 974.019 130.743 972.691 129.572C972.262 131.172 967.89 146.237 957.076 151.271C957.076 151.271 962.073 146.822 965.743 140.695C963.673 143.114 961.175 145.066 958.403 145.768Z" fill="#233862"/>
<path d="M896.136 301.8C897.776 300.746 899.376 297.585 899.962 296.336C904.998 283.847 910.776 259.572 912.689 255.123C913.391 253.484 914.719 245.835 916.475 235.922C919.638 218.203 924.088 193.343 928.577 183.469C929.124 182.298 930.647 181.283 932.677 180.424C938.767 177.888 949.19 176.795 949.19 176.795L943.724 200.368L942.124 207.275C942.124 207.275 937.283 224.369 933.535 238.302C931.701 245.054 930.178 251.064 929.514 254.069C927.562 263.319 906.169 298.795 906.169 298.795C906.169 298.795 905.506 299.224 904.764 301.371C904.022 303.517 897.971 314.991 895.355 314.991C892.74 314.991 892.232 311.089 891.686 308.63C891.178 306.249 894.106 303.088 896.136 301.8Z" fill="#FFB27D"/>
<path d="M1027.23 215.314C1027.23 214.651 1026.68 205.011 1028.4 202.982C1030.12 200.952 1033.63 198.064 1034.72 198.142C1035.82 198.22 1040.15 203.957 1038.86 208.367C1037.57 212.777 1032.11 218.71 1032.11 218.71L1027.23 215.314Z" fill="#FFB27D"/>
<path d="M1019.34 203.53L1029.34 206.535C1029.69 206.652 1030 206.457 1030.12 206.105L1035.82 187.021C1035.93 186.67 1035.74 186.357 1035.39 186.24L1025.39 183.235C1025.04 183.118 1024.73 183.313 1024.61 183.665L1018.91 202.749C1018.8 203.061 1018.99 203.412 1019.34 203.53Z" fill="#575B9F"/>
<path d="M1021.92 204.309L1030.98 207.041C1031.56 207.237 1032.19 206.885 1032.34 206.3L1037.77 188.152C1037.96 187.567 1037.61 186.942 1037.03 186.786L1027.97 184.054C1027.38 183.859 1026.76 184.21 1026.6 184.796L1021.18 202.944C1021.02 203.49 1021.33 204.114 1021.92 204.309Z" fill="#373480"/>
<path d="M923.932 438.475C926.235 463.062 936.385 478.985 936.385 478.985L939.86 482.146C939.86 482.146 943.022 464.155 945.286 443.509C942.905 443.665 932.325 444.056 923.932 438.475Z" fill="#FFB27D"/>
<path d="M933.457 239.12C931.037 239.784 923.307 241.228 914.406 236.35C918.076 218.475 923.268 193.458 928.499 183.506C928.734 183.038 929.202 182.57 929.788 182.14C929.749 182.101 929.749 182.062 929.749 182.062C934.629 178.511 944.623 177.418 944.623 177.418C944.623 177.418 947.707 191.078 949.659 192.834C951.611 194.629 979.797 197.517 980.46 194.278C981.085 191.195 973.121 179.135 972.535 178.081C972.496 178.042 973.824 178.199 973.824 178.199C977.025 178.628 979.289 178.94 980.929 179.213C984.13 179.76 986.082 181.126 986.277 181.36C990.064 184.248 999.004 193.068 1002.48 214.338C1002.48 214.338 998.067 220.387 991.86 222.183C991.703 222.222 991.547 222.261 991.352 222.3C992.445 240.33 999.082 270.343 996.661 287.71C994.358 304.414 959.262 300.12 952.274 298.598C947.511 297.545 943.803 292.51 941.187 283.534C940.328 289.817 938.376 297.154 933.965 297.623C926.782 298.364 923.815 297.115 922.956 294.423C922.722 293.642 922.644 292.549 922.722 291.183C923.19 281.778 930.334 259.688 933.457 239.12Z" fill="#059BC7"/>
<path d="M946.926 441.909C952.352 463.53 960.55 480.117 960.55 480.117L967.694 479.609C967.694 479.609 964.181 462.984 964.415 440.543C961.995 441.753 956.998 443.002 946.926 441.909Z" fill="#D9935C"/>
<path d="M956.45 486.087H961.018C962.54 485.853 963.673 485.423 965.234 485.189C967.615 484.877 968.709 485.853 968.904 486.087C968.943 486.126 968.943 486.126 968.943 486.126H988.267C988.735 485.423 988.267 483.823 987.838 482.652C987.525 481.833 986.862 481.247 986.042 481.013C984.012 480.428 979.952 479.881 976.243 476.525C974.174 474.652 966.21 469.617 966.21 469.617H966.171C966.015 469.617 965.156 469.89 961.525 472.935C959.652 474.496 956.45 470.71 956.45 470.71C956.45 470.71 955.865 471.217 955.396 472.115C955.045 472.856 954.772 473.832 954.967 475.081C955.24 476.837 954.342 480.037 953.601 482.262C953.132 483.589 952.781 484.526 952.781 484.526C952.781 484.526 952.546 485.579 956.45 486.087Z" fill="#233862"/>
<path d="M955.397 472.115C956.491 472.895 958.794 474.379 960.277 474.574C962.346 474.847 966.172 469.617 966.172 469.617H966.133C965.977 469.617 965.118 469.89 961.487 472.935C959.614 474.496 956.412 470.71 956.412 470.71C956.412 470.71 955.827 471.178 955.397 472.115Z" fill="#466AA5"/>
<path d="M956.451 486.086H961.019C962.541 485.852 963.673 485.423 965.235 485.189C967.616 484.876 968.709 485.852 968.905 486.086C968.944 486.125 968.944 486.125 968.944 486.125H988.268C988.736 485.423 988.268 483.823 987.838 482.652C987.253 482.145 987.097 484.916 986.745 485.345C986.433 485.774 970.974 485.501 970.076 484.877C969.178 484.213 966.523 483.081 962.776 483.979C959.535 484.759 954.734 482.769 953.562 482.223C953.094 483.55 952.743 484.486 952.743 484.486C952.743 484.486 952.547 485.579 956.451 486.086Z" fill="#466AA5"/>
<path d="M932.169 486.087H936.737C938.259 485.853 939.391 485.423 940.953 485.189C943.334 484.877 944.427 485.853 944.622 486.087C944.661 486.126 944.661 486.126 944.661 486.126H963.986C964.454 485.423 963.986 483.823 963.556 482.652C963.244 481.833 962.58 481.247 961.761 481.013C959.731 480.428 955.67 479.881 951.962 476.525C949.893 474.652 941.929 469.617 941.929 469.617H941.89C941.734 469.617 940.875 469.89 937.244 472.935C935.37 474.496 932.169 470.71 932.169 470.71C932.169 470.71 931.583 471.217 931.115 472.115C930.764 472.856 930.49 473.832 930.685 475.081C930.959 476.837 930.061 480.037 929.319 482.262C928.851 483.589 928.499 484.526 928.499 484.526C928.499 484.526 928.265 485.579 932.169 486.087Z" fill="#233862"/>
<path d="M931.115 472.115C932.208 472.895 934.512 474.379 935.995 474.574C938.064 474.847 941.89 469.617 941.89 469.617H941.851C941.695 469.617 940.836 469.89 937.205 472.935C935.331 474.496 932.13 470.71 932.13 470.71C932.13 470.71 931.584 471.178 931.115 472.115Z" fill="#466AA5"/>
<path d="M932.169 486.086H936.737C938.259 485.852 939.391 485.423 940.953 485.189C943.334 484.876 944.427 485.852 944.622 486.086C944.661 486.125 944.661 486.125 944.661 486.125H963.986C964.454 485.423 963.986 483.823 963.556 482.652C962.971 482.145 962.815 484.916 962.463 485.345C962.151 485.774 946.691 485.501 945.794 484.877C944.896 484.213 942.241 483.081 938.493 483.979C935.253 484.759 930.451 482.769 929.28 482.223C928.812 483.55 928.46 484.486 928.46 484.486C928.46 484.486 928.265 485.579 932.169 486.086Z" fill="#466AA5"/>
<path d="M922.722 291.146C927.563 289.546 933.731 285.253 941.187 275.652C960.863 250.206 942.866 220.35 940.445 219.804C938.025 219.258 933.496 239.123 933.496 239.123C930.334 259.69 923.19 281.78 922.722 291.146Z" fill="#075B74"/>
<path d="M1035.54 198.806C1035.54 198.806 1032.38 195.957 1029.81 198.65C1027.23 201.343 1030.78 206.182 1033.4 207.353C1036.01 208.524 1036.87 209.148 1036.87 209.148L1035.54 198.806Z" fill="#FFB27D"/>
<path d="M969.998 156.384C969.998 156.384 970.388 157.984 974.331 157.711C974.331 157.711 977.649 157.516 977.532 155.759C977.532 155.759 974.331 154.51 969.998 156.384Z" fill="white"/>
<path d="M805.683 364.789L805.722 301.643C805.722 299.457 803.927 297.662 801.741 297.662L686.615 297.623C684.429 297.623 682.633 299.418 682.633 301.604L682.594 364.75C682.594 366.936 684.39 368.731 686.576 368.731L801.702 368.77C803.927 368.77 805.683 366.975 805.683 364.789Z" fill="#699FF0"/>
<path d="M805.722 308.199H682.672V322.288H805.722V308.199Z" fill="#FFE600"/>
<path d="M767.23 326.191H691.924V337.236H767.23V326.191Z" fill="#DEA61C"/>
<path d="M707.267 357.14V349.062C707.267 347.423 705.939 346.057 704.261 346.057H694.891C693.213 346.057 691.885 347.384 691.885 349.062V357.14C691.885 358.819 693.213 360.146 694.891 360.146H704.261C705.9 360.146 707.267 358.78 707.267 357.14Z" fill="#DEA61C"/>
<path opacity="0.2" d="M721.321 347.501L795.299 347.54C795.924 347.54 796.47 347.032 796.47 346.369V345.237C796.47 344.613 795.963 344.066 795.299 344.066L721.321 344.027C720.696 344.027 720.149 344.535 720.149 345.198V346.33C720.149 346.954 720.657 347.501 721.321 347.501Z" fill="#DEA61C"/>
<path opacity="0.2" d="M721.282 353.979L795.26 354.018C795.885 354.018 796.392 353.511 796.392 352.887V351.794C796.392 351.169 795.885 350.662 795.26 350.662L721.282 350.623C720.657 350.623 720.149 351.13 720.149 351.755V352.848C720.149 353.472 720.657 353.979 721.282 353.979Z" fill="#DEA61C"/>
<path opacity="0.2" d="M796.431 359.131V357.921C796.431 357.257 795.885 356.75 795.26 356.75L721.36 356.711C720.696 356.711 720.188 357.257 720.188 357.882V359.092C720.188 359.755 720.735 360.262 721.36 360.262L795.26 360.301C795.924 360.301 796.431 359.794 796.431 359.131Z" fill="#DEA61C"/>
<path d="M449.532 323.382H344.166C340.262 323.382 337.1 320.221 337.1 316.318V251.142C337.1 247.239 340.262 244.078 344.166 244.078H449.532C453.436 244.078 456.598 247.239 456.598 251.142V316.318C456.598 320.221 453.436 323.382 449.532 323.382Z" fill="#086B88"/>
<path d="M438.445 221.09H342.214V270.226H438.445V221.09Z" fill="#58CC4B"/>
<path d="M437.937 220.348H341.707V269.483H437.937V220.348Z" fill="#58CC4B"/>
<path d="M437.235 219.725H341.004V268.86H437.235V219.725Z" fill="#58CC4B"/>
<path d="M436.571 219.1H340.34V268.235H436.571V219.1Z" fill="#58CC4B"/>
<path d="M344.127 222.807V264.566H432.823V222.807H344.127ZM429.466 261.327H347.484V226.046H429.466V261.327Z" fill="#58CC4B"/>
<path d="M344.127 222.807V232.29C344.791 232.485 345.532 232.603 346.274 232.603C350.568 232.603 354.004 229.129 354.004 224.875C354.004 224.173 353.887 223.47 353.73 222.807H344.127Z" fill="#58CC4B"/>
<path d="M432.823 222.768H423.337C423.142 223.431 423.024 224.173 423.024 224.914C423.024 229.207 426.499 232.642 430.754 232.642C431.457 232.642 432.159 232.524 432.823 232.368V222.768Z" fill="#58CC4B"/>
<path d="M432.823 264.567H423.337C423.142 263.904 423.024 263.162 423.024 262.421C423.024 258.128 426.499 254.693 430.754 254.693C431.457 254.693 432.159 254.81 432.823 254.967V264.567Z" fill="#58CC4B"/>
<path d="M344.127 264.528V255.045C344.791 254.849 345.532 254.732 346.274 254.732C350.568 254.732 354.004 258.206 354.004 262.46C354.004 263.162 353.887 263.865 353.73 264.528H344.127Z" fill="#58CC4B"/>
<path d="M388.475 254.108C394.232 254.108 398.898 249.443 398.898 243.688C398.898 237.933 394.232 233.268 388.475 233.268C382.718 233.268 378.052 237.933 378.052 243.688C378.052 249.443 382.718 254.108 388.475 254.108Z" fill="#58CC4B"/>
<path d="M425.445 268.898C436.376 268.898 445.238 260.039 445.238 249.111C445.238 238.183 436.376 229.324 425.445 229.324C414.514 229.324 405.652 238.183 405.652 249.111C405.652 260.039 414.514 268.898 425.445 268.898Z" fill="#E2810E"/>
<path d="M423.727 269.131C434.658 269.131 443.52 260.272 443.52 249.344C443.52 238.416 434.658 229.557 423.727 229.557C412.796 229.557 403.935 238.416 403.935 249.344C403.935 260.272 412.796 269.131 423.727 269.131Z" fill="#FFB93E"/>
<path d="M425.991 267.415C416.115 268.663 407.097 261.638 405.887 251.764C404.637 241.891 411.664 232.875 421.541 231.665C431.418 230.416 440.436 237.441 441.646 247.315C442.856 257.189 435.829 266.205 425.991 267.415ZM421.658 232.758C412.406 233.929 405.769 242.398 406.941 251.647C408.112 260.897 416.583 267.532 425.874 266.361C435.127 265.19 441.724 256.721 440.592 247.432C439.421 238.183 430.91 231.587 421.658 232.758Z" fill="#FFA412"/>
<path d="M426.851 254.419C426.851 254.029 426.772 253.678 426.694 253.405C426.577 253.092 426.382 252.819 426.148 252.585C425.914 252.351 425.562 252.117 425.172 251.921C424.782 251.726 424.274 251.531 423.727 251.336C422.752 250.985 421.854 250.634 421.034 250.282C420.214 249.892 419.55 249.463 418.965 248.994C418.379 248.487 417.95 247.941 417.637 247.277C417.325 246.614 417.169 245.833 417.13 244.936C417.13 244.155 417.247 243.413 417.52 242.75C417.794 242.087 418.184 241.54 418.731 241.033C419.238 240.564 419.863 240.135 420.604 239.823C421.346 239.511 422.127 239.316 423.064 239.238V236.232H425.484V239.277C426.343 239.394 427.124 239.589 427.827 239.94C428.529 240.291 429.115 240.721 429.622 241.267C430.13 241.813 430.481 242.477 430.754 243.218C431.028 243.96 431.145 244.818 431.184 245.755L426.851 245.794C426.851 244.662 426.577 243.843 426.109 243.296C425.601 242.75 424.938 242.477 424.118 242.477C423.649 242.477 423.259 242.555 422.947 242.672C422.634 242.789 422.361 242.984 422.127 243.179C421.932 243.413 421.776 243.648 421.658 243.96C421.541 244.272 421.502 244.584 421.502 244.936C421.502 245.287 421.541 245.599 421.658 245.872C421.776 246.145 421.932 246.419 422.166 246.653C422.4 246.887 422.752 247.121 423.142 247.316C423.532 247.511 424.04 247.746 424.664 247.941C425.64 248.292 426.538 248.682 427.319 249.033C428.1 249.424 428.803 249.853 429.388 250.321C429.974 250.829 430.403 251.375 430.715 252.039C431.028 252.702 431.184 253.483 431.223 254.38C431.223 255.2 431.106 255.941 430.793 256.605C430.52 257.268 430.13 257.815 429.583 258.322C429.076 258.79 428.451 259.181 427.709 259.493C426.968 259.805 426.148 259.961 425.25 260.078V262.849H422.869V260.078C422.049 260 421.229 259.805 420.448 259.532C419.667 259.259 418.965 258.868 418.379 258.322C417.794 257.815 417.286 257.151 416.935 256.332C416.583 255.551 416.388 254.575 416.388 253.444L420.721 253.405C420.721 254.068 420.839 254.614 420.995 255.044C421.19 255.473 421.424 255.824 421.737 256.097C422.049 256.371 422.4 256.527 422.791 256.644C423.181 256.761 423.61 256.8 424.001 256.8C424.469 256.8 424.899 256.722 425.25 256.605C425.601 256.488 425.914 256.293 426.148 256.097C426.382 255.863 426.577 255.629 426.694 255.317C426.812 255.122 426.851 254.771 426.851 254.419Z" fill="#FFA412"/>
<path d="M441.724 329.587H344.166C340.262 329.587 337.1 326.426 337.1 322.523V257.347C337.1 253.444 340.262 250.283 344.166 250.283H441.724C445.628 250.283 448.79 253.444 448.79 257.347V322.523C448.79 326.426 445.628 329.587 441.724 329.587Z" fill="#059BC7"/>
<path d="M452.109 300.783H417.442C411.469 300.783 406.589 295.944 406.589 289.934C406.589 283.962 411.43 279.084 417.442 279.084H452.109V300.783Z" fill="#086B88"/>
<path d="M417.442 298.481C422.142 298.481 425.953 294.672 425.953 289.973C425.953 285.274 422.142 281.465 417.442 281.465C412.742 281.465 408.932 285.274 408.932 289.973C408.932 294.672 412.742 298.481 417.442 298.481Z" fill="#E9F3FE"/>
<path d="M741.23 218.906C755.805 218.906 767.62 207.094 767.62 192.523C767.62 177.953 755.805 166.141 741.23 166.141C726.655 166.141 714.84 177.953 714.84 192.523C714.84 207.094 726.655 218.906 741.23 218.906Z" fill="#43AF66"/>
<path d="M725.849 194.318L734.476 202.944C734.945 203.412 735.569 203.685 736.233 203.685H737.482C738.146 203.685 738.771 203.412 739.239 202.944L756.533 185.654C758.134 184.054 757.002 181.361 754.777 181.361H753.957C753.293 181.361 752.669 181.635 752.2 182.064L738.029 195.919C737.053 196.894 735.452 196.855 734.515 195.88L729.401 190.767C728.933 190.299 728.269 190.025 727.606 190.025C725.38 190.064 724.287 192.757 725.849 194.318Z" fill="white"/>
<path d="M241.65 202.358C240.909 202.436 240.167 202.553 239.425 202.631C238.605 202.748 237.825 202.124 237.746 201.304C237.629 200.484 238.254 199.704 239.074 199.626C240.401 199.47 241.728 199.314 243.095 199.118C243.915 199.001 244.695 199.587 244.813 200.406C244.93 201.226 244.344 202.007 243.524 202.124C242.861 202.202 242.275 202.28 241.65 202.358ZM247.506 201.577C246.686 201.694 245.945 201.109 245.828 200.289C245.71 199.47 246.296 198.689 247.116 198.572C248.443 198.377 249.77 198.182 251.098 197.987C251.957 197.87 252.698 198.416 252.815 199.275C252.933 200.094 252.386 200.875 251.527 200.992C250.2 201.187 248.873 201.382 247.506 201.577ZM235.443 203.099C235.404 203.099 235.404 203.099 235.443 203.099C234.038 203.255 232.671 203.373 231.344 203.49C230.524 203.568 229.783 202.943 229.704 202.124C229.626 201.304 230.251 200.563 231.071 200.484C232.359 200.367 233.725 200.25 235.092 200.094C235.912 200.016 236.692 200.602 236.771 201.46C236.849 202.241 236.263 202.982 235.443 203.099ZM255.548 200.328C254.728 200.445 253.987 199.86 253.87 199.079C253.752 198.26 254.299 197.479 255.119 197.323C256.446 197.089 257.773 196.894 259.101 196.66C259.921 196.504 260.701 197.089 260.857 197.909C261.014 198.728 260.428 199.509 259.608 199.665C258.242 199.899 256.915 200.133 255.587 200.328C255.548 200.328 255.548 200.328 255.548 200.328ZM227.362 203.841C227.323 203.841 227.284 203.841 227.284 203.841C225.879 203.958 224.512 204.036 223.185 204.075C222.365 204.114 221.623 203.451 221.584 202.631C221.545 201.811 222.209 201.07 223.029 201.031C224.317 200.953 225.683 200.875 227.05 200.797C227.87 200.758 228.611 201.382 228.689 202.202C228.729 203.021 228.143 203.724 227.362 203.841ZM263.551 198.962C262.77 199.079 261.99 198.533 261.872 197.714C261.716 196.894 262.263 196.113 263.083 195.957C264.41 195.723 265.737 195.489 267.065 195.216C267.884 195.06 268.665 195.606 268.821 196.426C268.978 197.245 268.431 198.026 267.611 198.182C266.245 198.416 264.918 198.689 263.59 198.923C263.59 198.962 263.551 198.962 263.551 198.962ZM219.242 204.192C219.203 204.192 219.125 204.192 219.086 204.192C217.641 204.231 216.275 204.231 214.987 204.192C214.128 204.192 213.464 203.49 213.503 202.631C213.503 201.772 214.206 201.109 215.065 201.148C216.314 201.187 217.681 201.187 219.047 201.148C219.906 201.148 220.569 201.811 220.608 202.631C220.569 203.451 220.023 204.075 219.242 204.192ZM271.515 197.479C270.734 197.596 269.993 197.05 269.836 196.269C269.68 195.45 270.227 194.63 271.047 194.474C272.374 194.24 273.701 193.967 275.029 193.694C275.848 193.538 276.668 194.084 276.824 194.904C276.98 195.723 276.434 196.543 275.614 196.699C274.287 196.972 272.96 197.206 271.632 197.479C271.593 197.479 271.554 197.479 271.515 197.479ZM279.479 195.918C278.698 196.035 277.956 195.489 277.8 194.708C277.644 193.889 278.152 193.069 278.971 192.913C280.299 192.64 281.626 192.367 282.953 192.094C283.773 191.937 284.593 192.445 284.749 193.264C284.905 194.084 284.398 194.904 283.578 195.06C282.251 195.333 280.923 195.606 279.596 195.879C279.557 195.879 279.518 195.918 279.479 195.918ZM287.443 194.24C286.662 194.357 285.92 193.811 285.764 193.03C285.608 192.211 286.116 191.391 286.935 191.235C288.263 190.962 289.551 190.689 290.917 190.376C291.737 190.181 292.557 190.728 292.713 191.547C292.908 192.367 292.362 193.186 291.542 193.342C290.215 193.616 288.887 193.928 287.56 194.201C287.521 194.24 287.482 194.24 287.443 194.24ZM211.122 203.997C211.005 203.997 210.927 203.997 210.81 203.997C209.326 203.88 207.96 203.724 206.672 203.529C205.852 203.412 205.266 202.631 205.383 201.811C205.5 200.992 206.281 200.406 207.101 200.523C208.311 200.719 209.639 200.836 211.005 200.953C211.825 201.031 212.488 201.733 212.41 202.592C212.41 203.333 211.825 203.919 211.122 203.997ZM295.368 192.523C294.587 192.64 293.845 192.133 293.689 191.352C293.494 190.532 294.04 189.713 294.86 189.557C296.188 189.284 297.476 188.971 298.803 188.659C299.623 188.464 300.443 188.971 300.638 189.791C300.833 190.61 300.326 191.43 299.506 191.625C298.179 191.937 296.851 192.211 295.524 192.523C295.446 192.523 295.407 192.523 295.368 192.523ZM303.293 190.767C302.512 190.884 301.809 190.376 301.614 189.596C301.419 188.776 301.926 187.957 302.746 187.761C304.073 187.449 305.362 187.176 306.689 186.864C307.509 186.669 308.329 187.176 308.524 187.996C308.719 188.815 308.212 189.635 307.392 189.83C306.064 190.142 304.737 190.454 303.449 190.728C303.371 190.767 303.332 190.767 303.293 190.767ZM311.178 188.932C310.398 189.049 309.695 188.542 309.5 187.761C309.305 186.942 309.812 186.122 310.632 185.927C311.959 185.615 313.248 185.303 314.575 184.991C315.395 184.795 316.215 185.303 316.41 186.122C316.605 186.942 316.097 187.761 315.278 187.957C313.95 188.269 312.623 188.581 311.335 188.893C311.296 188.932 311.257 188.932 311.178 188.932ZM203.119 202.748C202.924 202.787 202.729 202.748 202.533 202.709C200.972 202.28 199.606 201.772 198.434 201.148C197.693 200.758 197.419 199.821 197.81 199.079C198.2 198.338 199.137 198.065 199.879 198.455C200.855 198.962 201.987 199.392 203.353 199.782C204.173 200.016 204.642 200.836 204.407 201.655C204.251 202.241 203.744 202.67 203.119 202.748ZM319.103 187.059C318.362 187.137 317.62 186.669 317.425 185.888C317.23 185.069 317.737 184.249 318.557 184.054C319.884 183.742 321.172 183.429 322.5 183.117C323.32 182.922 324.139 183.429 324.335 184.249C324.53 185.069 324.022 185.888 323.202 186.083C321.875 186.396 320.548 186.708 319.26 187.059C319.181 187.02 319.142 187.059 319.103 187.059ZM326.989 185.108C326.247 185.186 325.506 184.717 325.311 183.976C325.115 183.156 325.623 182.337 326.404 182.142C327.731 181.829 329.019 181.478 330.347 181.166C331.166 180.971 331.986 181.478 332.181 182.259C332.377 183.078 331.869 183.898 331.088 184.093C329.761 184.405 328.473 184.756 327.145 185.069C327.106 185.108 327.028 185.108 326.989 185.108ZM334.836 183.156C334.094 183.234 333.353 182.766 333.157 182.024C332.962 181.205 333.431 180.385 334.25 180.19C335.578 179.878 336.866 179.527 338.193 179.214C339.013 179.019 339.833 179.488 340.028 180.307C340.223 181.127 339.755 181.946 338.935 182.142C337.608 182.493 336.32 182.805 334.992 183.156C334.992 183.156 334.914 183.156 334.836 183.156ZM342.722 181.166C341.98 181.244 341.238 180.776 341.043 180.034C340.848 179.214 341.316 178.395 342.136 178.2C343.425 177.849 344.752 177.536 346.079 177.185C346.899 176.99 347.719 177.458 347.914 178.278C348.109 179.097 347.641 179.917 346.821 180.112C345.494 180.463 344.205 180.776 342.878 181.127C342.839 181.127 342.8 181.166 342.722 181.166ZM350.569 179.136C349.827 179.214 349.085 178.746 348.89 178.005C348.695 177.185 349.163 176.365 349.983 176.131C351.271 175.78 352.599 175.429 353.887 175.117C354.707 174.921 355.527 175.39 355.761 176.209C355.956 177.029 355.488 177.848 354.668 178.083C353.34 178.434 352.052 178.785 350.764 179.097C350.686 179.097 350.647 179.136 350.569 179.136ZM196.248 198.728C195.702 198.806 195.155 198.572 194.804 198.104C194.726 197.987 194.648 197.87 194.531 197.714C193.789 196.543 193.164 195.372 192.696 194.201C192.383 193.42 192.774 192.523 193.555 192.211C194.335 191.898 195.233 192.289 195.546 193.069C195.936 194.045 196.443 195.06 197.107 196.074C197.146 196.152 197.224 196.23 197.263 196.309C197.771 196.972 197.615 197.948 196.912 198.416C196.756 198.611 196.521 198.728 196.248 198.728ZM358.415 177.068C357.674 177.146 356.971 176.678 356.737 175.936C356.503 175.117 357.01 174.297 357.83 174.063C359.118 173.712 360.445 173.36 361.734 173.009C362.554 172.775 363.373 173.282 363.608 174.102C363.842 174.921 363.334 175.741 362.515 175.975C361.187 176.326 359.899 176.678 358.572 177.029C358.533 177.029 358.494 177.068 358.415 177.068ZM366.262 174.96C365.521 175.039 364.818 174.609 364.584 173.829C364.349 173.009 364.857 172.19 365.638 171.955C366.965 171.604 368.253 171.253 369.581 170.902C370.4 170.667 371.22 171.175 371.454 171.955C371.689 172.775 371.181 173.595 370.4 173.829C369.073 174.18 367.785 174.531 366.457 174.882C366.379 174.96 366.34 174.96 366.262 174.96ZM374.109 172.853C373.367 172.931 372.665 172.502 372.469 171.76C372.235 170.941 372.743 170.121 373.523 169.887C374.812 169.536 376.139 169.184 377.427 168.833C378.247 168.599 379.067 169.106 379.301 169.887C379.535 170.706 379.028 171.526 378.247 171.76C376.959 172.111 375.632 172.463 374.343 172.814C374.265 172.814 374.187 172.853 374.109 172.853ZM381.956 170.706C381.214 170.785 380.511 170.355 380.316 169.614C380.082 168.794 380.551 167.975 381.37 167.74C382.659 167.389 383.986 167.038 385.274 166.648C386.094 166.413 386.914 166.882 387.148 167.701C387.382 168.521 386.914 169.341 386.094 169.575C384.806 169.926 383.478 170.316 382.19 170.667C382.073 170.667 381.995 170.706 381.956 170.706ZM389.764 168.521C389.022 168.599 388.319 168.17 388.124 167.428C387.89 166.609 388.358 165.789 389.178 165.555C390.466 165.204 391.794 164.813 393.082 164.462C393.902 164.228 394.722 164.696 394.956 165.516C395.19 166.335 394.722 167.155 393.902 167.389C392.614 167.74 391.286 168.131 389.998 168.482C389.92 168.521 389.842 168.521 389.764 168.521ZM397.571 166.335C396.83 166.413 396.127 165.984 395.932 165.243C395.698 164.423 396.166 163.603 396.986 163.369C398.274 163.018 399.601 162.628 400.89 162.277C401.71 162.042 402.529 162.511 402.764 163.33C402.998 164.15 402.529 164.969 401.71 165.204C400.421 165.555 399.094 165.945 397.806 166.296C397.728 166.296 397.65 166.335 397.571 166.335ZM405.379 164.111C404.637 164.189 403.935 163.76 403.74 163.018C403.505 162.198 403.974 161.379 404.794 161.145C406.082 160.754 407.409 160.403 408.698 160.013C409.517 159.779 410.337 160.247 410.571 161.067C410.806 161.886 410.337 162.706 409.517 162.94C408.229 163.33 406.902 163.682 405.613 164.072C405.535 164.111 405.457 164.111 405.379 164.111ZM193.398 191.235H193.359C192.54 191.313 191.798 190.689 191.72 189.869C191.564 188.386 191.681 186.864 192.032 185.42C192.227 184.6 193.047 184.093 193.867 184.288C194.687 184.483 195.194 185.303 194.999 186.122C194.726 187.293 194.648 188.464 194.765 189.635C194.804 190.415 194.218 191.157 193.398 191.235ZM413.187 161.886C412.445 161.964 411.743 161.535 411.547 160.793C411.313 159.974 411.782 159.154 412.601 158.92C413.89 158.53 415.217 158.179 416.505 157.788C417.325 157.554 418.145 158.023 418.379 158.842C418.613 159.662 418.145 160.481 417.325 160.715C416.037 161.106 414.709 161.457 413.421 161.847C413.343 161.847 413.265 161.886 413.187 161.886ZM420.995 159.623C420.253 159.701 419.55 159.271 419.355 158.53C419.121 157.71 419.589 156.891 420.409 156.657C421.697 156.266 423.025 155.915 424.313 155.525C425.133 155.291 425.953 155.759 426.187 156.539C426.421 157.359 425.953 158.179 425.172 158.413C423.884 158.803 422.595 159.154 421.268 159.545C421.151 159.584 421.073 159.623 420.995 159.623ZM428.763 157.359C428.022 157.437 427.319 157.008 427.124 156.266C426.89 155.447 427.358 154.627 428.139 154.393C429.427 154.003 430.754 153.612 432.043 153.261C432.863 153.027 433.682 153.495 433.917 154.276C434.151 155.095 433.682 155.915 432.902 156.149C431.613 156.539 430.325 156.93 428.998 157.281C428.92 157.32 428.842 157.359 428.763 157.359ZM436.571 155.056C435.829 155.134 435.127 154.705 434.932 153.964C434.697 153.144 435.166 152.325 435.947 152.09C437.235 151.7 438.562 151.31 439.85 150.92C440.67 150.685 441.49 151.154 441.724 151.934C441.959 152.754 441.49 153.573 440.709 153.808C439.421 154.198 438.133 154.588 436.805 154.978C436.727 155.017 436.649 155.056 436.571 155.056ZM444.34 152.754C443.598 152.832 442.896 152.403 442.7 151.661C442.466 150.841 442.935 150.022 443.715 149.788C445.004 149.397 446.331 149.007 447.619 148.617C448.439 148.383 449.259 148.851 449.493 149.632C449.727 150.451 449.259 151.271 448.478 151.505C447.19 151.895 445.902 152.285 444.574 152.676C444.496 152.715 444.418 152.754 444.34 152.754ZM195.116 183.507C194.804 183.547 194.491 183.507 194.179 183.351C193.437 182.961 193.164 182.024 193.555 181.283C194.218 180.073 195.038 178.902 196.014 177.731C196.561 177.107 197.497 176.99 198.161 177.536C198.786 178.083 198.903 179.019 198.356 179.683C197.497 180.698 196.795 181.712 196.248 182.766C196.014 183.195 195.585 183.468 195.116 183.507ZM452.109 150.412C451.367 150.49 450.664 150.061 450.469 149.358C450.235 148.539 450.664 147.719 451.484 147.446C452.772 147.056 454.1 146.666 455.388 146.275C456.208 146.041 457.028 146.47 457.301 147.29C457.535 148.11 457.106 148.929 456.286 149.202C454.998 149.593 453.709 149.983 452.382 150.373C452.304 150.412 452.226 150.412 452.109 150.412ZM459.916 148.071C459.175 148.149 458.472 147.719 458.277 147.017C458.043 146.197 458.472 145.378 459.292 145.104C460.58 144.714 461.907 144.324 463.157 143.934C463.976 143.699 464.796 144.129 465.07 144.948C465.343 145.768 464.874 146.587 464.055 146.861C462.766 147.251 461.478 147.641 460.151 148.031C460.073 148.071 459.995 148.071 459.916 148.071ZM467.685 145.729C466.982 145.807 466.241 145.378 466.046 144.675C465.811 143.856 466.241 143.036 467.061 142.763C468.349 142.372 469.676 141.982 470.925 141.592C471.745 141.358 472.565 141.787 472.838 142.607C473.073 143.426 472.643 144.246 471.823 144.519C470.535 144.909 469.247 145.3 467.919 145.69C467.841 145.69 467.763 145.69 467.685 145.729ZM475.415 143.348C474.712 143.426 474.009 142.997 473.775 142.294C473.541 141.475 473.97 140.655 474.79 140.382C476.118 139.992 477.406 139.563 478.655 139.172C479.475 138.938 480.295 139.367 480.568 140.187C480.802 141.007 480.373 141.826 479.553 142.099C478.265 142.49 476.976 142.88 475.688 143.309C475.61 143.309 475.532 143.348 475.415 143.348ZM200.23 177.302C199.762 177.38 199.254 177.185 198.903 176.795C198.356 176.17 198.395 175.195 199.02 174.648C199.996 173.751 201.089 172.853 202.299 171.994C202.963 171.487 203.939 171.643 204.407 172.307C204.915 172.97 204.759 173.946 204.095 174.414C203.002 175.234 201.987 176.053 201.05 176.873C200.816 177.146 200.543 177.263 200.23 177.302ZM483.184 140.968C482.481 141.046 481.778 140.616 481.544 139.914C481.31 139.094 481.739 138.275 482.559 138.001C483.886 137.611 485.175 137.182 486.424 136.792C487.205 136.557 488.063 136.987 488.337 137.806C488.571 138.626 488.142 139.445 487.322 139.719C486.033 140.109 484.745 140.499 483.457 140.928C483.379 140.928 483.262 140.928 483.184 140.968ZM490.952 138.548C490.25 138.626 489.547 138.197 489.313 137.494C489.078 136.674 489.508 135.855 490.328 135.582C491.655 135.152 492.943 134.762 494.193 134.372C495.012 134.138 495.832 134.567 496.105 135.387C496.34 136.206 495.91 137.026 495.09 137.299C493.841 137.689 492.514 138.118 491.226 138.509C491.108 138.509 491.03 138.548 490.952 138.548ZM498.721 136.128C498.018 136.206 497.316 135.777 497.081 135.074C496.847 134.255 497.277 133.435 498.096 133.162C499.424 132.733 500.712 132.342 501.961 131.952C502.742 131.718 503.601 132.147 503.874 132.928C504.108 133.747 503.679 134.567 502.898 134.84C501.649 135.23 500.361 135.66 499.033 136.05C498.877 136.089 498.799 136.089 498.721 136.128ZM206.75 172.463C206.164 172.541 205.578 172.268 205.266 171.76C204.837 171.058 205.032 170.121 205.735 169.653C206.867 168.95 208.038 168.248 209.326 167.545C210.068 167.155 211.005 167.389 211.395 168.131C211.786 168.872 211.551 169.809 210.81 170.199C209.599 170.863 208.467 171.526 207.374 172.229C207.179 172.385 206.984 172.463 206.75 172.463ZM506.451 133.669C505.748 133.747 505.045 133.318 504.811 132.616C504.577 131.796 505.006 130.976 505.787 130.703C507.114 130.274 508.403 129.884 509.652 129.493C510.472 129.22 511.292 129.689 511.565 130.469C511.838 131.289 511.37 132.108 510.589 132.381C509.34 132.772 508.051 133.201 506.724 133.591C506.646 133.63 506.529 133.669 506.451 133.669ZM514.18 131.211C513.478 131.289 512.775 130.859 512.541 130.157C512.268 129.376 512.736 128.518 513.517 128.245C514.883 127.815 516.171 127.386 517.382 126.996C518.201 126.722 519.021 127.191 519.294 127.971C519.568 128.752 519.099 129.61 518.318 129.884C517.108 130.274 515.781 130.703 514.454 131.133C514.376 131.172 514.298 131.211 514.18 131.211ZM213.855 168.521C213.23 168.599 212.605 168.287 212.293 167.701C211.903 166.96 212.215 166.023 212.996 165.672C214.167 165.087 215.455 164.501 216.705 163.916C217.485 163.564 218.383 163.916 218.735 164.696C219.086 165.477 218.735 166.374 217.954 166.726C216.705 167.272 215.494 167.857 214.323 168.443C214.167 168.482 214.011 168.521 213.855 168.521ZM521.949 128.752C521.246 128.83 520.544 128.401 520.31 127.698C520.036 126.918 520.505 126.059 521.285 125.786C522.691 125.317 523.979 124.927 525.15 124.537C525.931 124.264 526.79 124.732 527.063 125.513C527.336 126.293 526.868 127.152 526.087 127.425C524.916 127.815 523.628 128.206 522.222 128.674C522.144 128.713 522.027 128.713 521.949 128.752ZM529.718 126.215C529.015 126.293 528.312 125.864 528.078 125.161C527.805 124.381 528.273 123.522 529.054 123.249C531.436 122.468 532.724 122.039 532.724 122.039C533.505 121.766 534.363 122.195 534.637 123.015C534.91 123.795 534.481 124.654 533.661 124.927C533.661 124.927 532.372 125.357 529.991 126.137C529.874 126.215 529.796 126.215 529.718 126.215ZM221.272 165.204C220.608 165.282 219.945 164.93 219.672 164.267C219.359 163.486 219.711 162.589 220.491 162.277C221.702 161.769 222.99 161.262 224.317 160.754C225.098 160.442 225.996 160.833 226.269 161.613C226.581 162.394 226.191 163.291 225.41 163.564C224.122 164.072 222.873 164.54 221.662 165.047C221.506 165.165 221.389 165.165 221.272 165.204ZM228.846 162.277C228.143 162.355 227.479 161.964 227.206 161.262C226.933 160.481 227.323 159.584 228.143 159.31C229.392 158.881 230.719 158.413 232.008 157.983C232.789 157.71 233.647 158.14 233.921 158.959C234.194 159.74 233.765 160.598 232.945 160.872C231.656 161.301 230.368 161.73 229.119 162.198C229.08 162.238 228.963 162.277 228.846 162.277ZM236.575 159.701C235.873 159.779 235.17 159.349 234.936 158.647C234.701 157.827 235.131 157.008 235.951 156.735C237.239 156.344 238.527 155.954 239.855 155.525C240.674 155.291 241.494 155.759 241.728 156.539C241.963 157.359 241.494 158.179 240.713 158.413C239.386 158.803 238.098 159.193 236.849 159.584C236.731 159.701 236.653 159.701 236.575 159.701ZM244.344 157.398C243.602 157.476 242.9 157.047 242.704 156.305C242.47 155.486 242.939 154.666 243.758 154.432C245.047 154.081 246.374 153.69 247.701 153.378C248.521 153.183 249.341 153.651 249.575 154.471C249.809 155.291 249.302 156.11 248.482 156.344C247.194 156.696 245.867 157.047 244.578 157.398C244.5 157.398 244.422 157.398 244.344 157.398ZM252.23 155.33C251.488 155.408 250.746 154.939 250.551 154.198C250.356 153.378 250.824 152.559 251.644 152.364C252.933 152.051 254.299 151.7 255.626 151.388C256.446 151.193 257.266 151.7 257.461 152.52C257.656 153.339 257.149 154.159 256.329 154.354C255.002 154.666 253.674 154.978 252.386 155.33C252.347 155.291 252.269 155.33 252.23 155.33ZM260.155 153.456C259.374 153.573 258.671 153.066 258.476 152.285C258.281 151.466 258.827 150.646 259.647 150.451C260.975 150.139 262.341 149.866 263.629 149.593C264.449 149.436 265.269 149.944 265.425 150.763C265.581 151.583 265.074 152.403 264.254 152.559C262.966 152.832 261.599 153.105 260.311 153.417C260.233 153.456 260.194 153.456 260.155 153.456ZM268.119 151.778C267.338 151.895 266.596 151.349 266.44 150.568C266.284 149.749 266.83 148.929 267.65 148.773C270.188 148.266 271.671 148.031 271.71 148.031C272.53 147.875 273.311 148.461 273.467 149.28C273.623 150.1 273.038 150.88 272.218 151.037C272.218 151.037 270.734 151.31 268.236 151.778C268.197 151.778 268.158 151.778 268.119 151.778Z" fill="#43AF66"/>
<path d="M551.111 146.705L604.087 107.014L552.36 116.732L557.513 125.044L548.261 138.353L551.111 146.705Z" fill="#58CC4B"/>
<path d="M604.087 107.014L545.607 125.63L505.865 161.496L604.087 107.014Z" fill="#43AF66"/>
<path d="M552.361 116.731L604.087 107.013L547.52 97.998L552.361 116.731Z" fill="#43AF66"/>
<path d="M461.4 412.598H332.299C329.019 412.598 326.365 409.944 326.365 406.666V383.913C326.365 380.634 329.019 377.98 332.299 377.98H461.4C464.679 377.98 467.334 380.634 467.334 383.913V406.666C467.334 409.944 464.679 412.598 461.4 412.598Z" fill="#58CC4B"/>
<path d="M351.076 387.504C351.233 387.504 351.389 387.582 351.506 387.699C351.623 387.816 351.701 387.972 351.701 388.128V389.728C351.701 389.885 351.623 390.041 351.506 390.158C351.389 390.275 351.233 390.353 351.076 390.353H347.055V402.608C347.055 402.764 346.977 402.92 346.86 403.037C346.743 403.154 346.587 403.232 346.431 403.232H344.635C344.479 403.232 344.323 403.154 344.206 403.037C344.088 402.92 344.01 402.764 344.01 402.608V390.275H340.028C339.872 390.275 339.716 390.197 339.599 390.08C339.482 389.963 339.404 389.806 339.404 389.65V388.05C339.404 387.894 339.482 387.738 339.599 387.621C339.716 387.504 339.872 387.426 340.028 387.426H351.076V387.504Z" fill="white"/>
<path d="M360.29 387.504C362.163 387.504 363.569 387.933 364.545 388.792C365.521 389.65 365.989 390.86 365.989 392.382C365.989 393.475 365.755 394.412 365.248 395.153C364.74 395.934 363.998 396.48 363.061 396.87L366.145 402.373C366.184 402.451 366.223 402.529 366.223 402.607C366.223 402.725 366.184 402.842 366.067 402.959C365.989 403.037 365.872 403.115 365.716 403.115H363.803C363.491 403.115 363.296 403.037 363.139 402.92C362.983 402.764 362.905 402.647 362.827 402.529L359.899 397.339H356.932V402.529C356.932 402.686 356.854 402.842 356.737 402.959C356.62 403.076 356.464 403.154 356.308 403.154H354.512C354.356 403.154 354.2 403.076 354.082 402.959C353.965 402.842 353.887 402.686 353.887 402.529V388.089C353.887 387.933 353.965 387.777 354.082 387.66C354.2 387.543 354.356 387.465 354.512 387.465H360.29V387.504ZM356.932 394.529H360.172C361.031 394.529 361.695 394.373 362.202 394.1C362.71 393.787 362.944 393.241 362.944 392.421C362.944 391.602 362.71 391.016 362.202 390.743C361.695 390.47 361.031 390.314 360.172 390.314H356.932V394.529Z" fill="white"/>
<path d="M376.256 387.504C376.491 387.504 376.686 387.582 376.803 387.699C376.92 387.816 377.037 388.011 377.115 388.284L382.581 402.412C382.581 402.451 382.62 402.49 382.62 402.569C382.62 402.725 382.542 402.881 382.424 402.998C382.307 403.115 382.151 403.193 381.995 403.193H380.394C380.082 403.193 379.887 403.115 379.77 402.998C379.653 402.881 379.575 402.764 379.536 402.647L378.56 400.149H371.494L370.518 402.647C370.479 402.764 370.401 402.881 370.283 402.998C370.166 403.115 369.971 403.193 369.659 403.193H368.058C367.902 403.193 367.746 403.115 367.629 402.998C367.512 402.881 367.434 402.725 367.434 402.569C367.434 402.49 367.434 402.451 367.473 402.412L372.938 388.284C373.016 388.05 373.133 387.855 373.25 387.699C373.367 387.582 373.563 387.504 373.797 387.504H376.256ZM377.467 397.3L375.007 390.938L372.548 397.3H377.467Z" fill="white"/>
<path d="M394.761 403.115C394.527 403.115 394.331 403.037 394.175 402.92C394.058 402.803 393.941 402.686 393.902 402.608L387.656 393.319V402.529C387.656 402.686 387.578 402.842 387.461 402.959C387.344 403.076 387.187 403.154 387.031 403.154H385.235C385.079 403.154 384.923 403.076 384.806 402.959C384.689 402.842 384.611 402.686 384.611 402.529V388.089C384.611 387.933 384.689 387.777 384.806 387.66C384.923 387.543 385.079 387.465 385.235 387.465H386.797C387.031 387.465 387.226 387.543 387.383 387.66C387.5 387.777 387.617 387.894 387.656 387.972L393.902 397.261V388.05C393.902 387.894 393.98 387.738 394.097 387.621C394.214 387.504 394.371 387.426 394.527 387.426H396.322C396.479 387.426 396.635 387.504 396.752 387.621C396.869 387.738 396.947 387.894 396.947 388.05V402.49C396.947 402.647 396.869 402.803 396.752 402.92C396.635 403.037 396.479 403.115 396.322 403.115H394.761Z" fill="white"/>
<path d="M405.77 387.27C406.785 387.27 407.644 387.387 408.424 387.66C409.205 387.933 409.83 388.245 410.337 388.675C410.845 389.065 411.235 389.533 411.469 390.001C411.743 390.47 411.86 390.938 411.899 391.367C411.899 391.563 411.86 391.68 411.743 391.797C411.625 391.914 411.469 391.953 411.313 391.953H409.752C409.517 391.953 409.322 391.914 409.166 391.797C409.049 391.719 408.932 391.563 408.815 391.406C408.58 391.016 408.268 390.704 407.8 390.431C407.331 390.158 406.668 390.001 405.77 390.001C405.379 390.001 405.028 390.04 404.677 390.119C404.325 390.197 404.013 390.314 403.779 390.47C403.505 390.626 403.31 390.821 403.154 391.055C402.998 391.289 402.92 391.524 402.92 391.797C402.92 392.148 402.998 392.421 403.115 392.616C403.271 392.85 403.505 393.007 403.818 393.163C404.169 393.319 404.599 393.475 405.145 393.592C405.692 393.709 406.394 393.865 407.214 394.06C408.112 394.255 408.893 394.49 409.517 394.724C410.181 394.997 410.689 395.309 411.118 395.66C411.508 396.012 411.821 396.441 412.016 396.909C412.211 397.378 412.328 397.924 412.328 398.549C412.328 399.212 412.172 399.836 411.899 400.422C411.586 401.007 411.157 401.476 410.611 401.905C410.064 402.295 409.4 402.646 408.58 402.881C407.761 403.115 406.863 403.232 405.887 403.232C405.067 403.232 404.247 403.115 403.505 402.92C402.764 402.724 402.061 402.412 401.475 402.061C400.89 401.671 400.421 401.241 400.07 400.695C399.719 400.149 399.523 399.563 399.484 398.9C399.484 398.705 399.523 398.588 399.641 398.47C399.758 398.353 399.914 398.314 400.07 398.314H401.632C401.866 398.314 402.061 398.353 402.217 398.431C402.334 398.509 402.451 398.666 402.568 398.822C402.686 399.017 402.803 399.212 402.959 399.407C403.115 399.602 403.31 399.758 403.544 399.914C403.779 400.071 404.13 400.188 404.481 400.266C404.872 400.344 405.34 400.422 405.887 400.422C406.316 400.422 406.785 400.383 407.175 400.305C407.604 400.227 407.956 400.11 408.268 399.954C408.58 399.797 408.815 399.602 409.01 399.368C409.205 399.134 409.283 398.861 409.283 398.509C409.283 398.197 409.166 397.924 408.971 397.69C408.776 397.495 408.463 397.3 408.034 397.144C407.604 396.987 407.097 396.87 406.472 396.714C405.848 396.597 405.106 396.402 404.286 396.207C403.544 396.012 402.881 395.817 402.334 395.582C401.788 395.348 401.319 395.036 400.968 394.685C400.617 394.334 400.343 393.904 400.148 393.436C399.953 392.968 399.875 392.382 399.875 391.719C399.875 391.055 400.031 390.431 400.304 389.845C400.617 389.299 401.007 388.792 401.514 388.401C402.022 388.011 402.647 387.699 403.388 387.465C404.169 387.387 404.95 387.27 405.77 387.27Z" fill="white"/>
<path d="M425.016 387.504C425.172 387.504 425.328 387.582 425.445 387.699C425.562 387.816 425.64 387.972 425.64 388.128V389.728C425.64 389.885 425.562 390.041 425.445 390.158C425.328 390.275 425.172 390.353 425.016 390.353H417.872V394.685H424.547C424.703 394.685 424.86 394.763 424.977 394.88C425.094 394.997 425.172 395.153 425.172 395.309V396.91C425.172 397.066 425.094 397.222 424.977 397.339C424.86 397.456 424.703 397.534 424.547 397.534H417.872V402.647C417.872 402.803 417.794 402.959 417.677 403.076C417.559 403.193 417.403 403.271 417.247 403.271H415.451C415.295 403.271 415.139 403.193 415.022 403.076C414.905 402.959 414.827 402.803 414.827 402.647V388.206C414.827 388.05 414.905 387.894 415.022 387.777C415.139 387.66 415.295 387.582 415.451 387.582H425.016V387.504Z" fill="white"/>
<path d="M438.641 400.344C438.797 400.344 438.953 400.422 439.07 400.539C439.187 400.656 439.265 400.812 439.265 400.968V402.569C439.265 402.725 439.187 402.881 439.07 402.998C438.953 403.115 438.797 403.193 438.641 403.193H428.842C428.686 403.193 428.53 403.115 428.412 402.998C428.295 402.881 428.217 402.725 428.217 402.569V388.128C428.217 387.972 428.295 387.816 428.412 387.699C428.53 387.582 428.686 387.504 428.842 387.504H438.484C438.641 387.504 438.797 387.582 438.914 387.699C439.031 387.816 439.109 387.972 439.109 388.128V389.728C439.109 389.885 439.031 390.041 438.914 390.158C438.797 390.275 438.641 390.353 438.484 390.353H431.262V393.904H437.977C438.133 393.904 438.289 393.982 438.406 394.1C438.523 394.217 438.602 394.373 438.602 394.529V396.129C438.602 396.285 438.523 396.441 438.406 396.558C438.289 396.675 438.133 396.753 437.977 396.753H431.262V400.461H438.641V400.344Z" fill="white"/>
<path d="M448.361 387.504C450.235 387.504 451.641 387.933 452.617 388.792C453.593 389.65 454.061 390.86 454.061 392.382C454.061 393.475 453.827 394.412 453.319 395.153C452.812 395.934 452.07 396.48 451.133 396.87L454.217 402.373C454.256 402.451 454.295 402.529 454.295 402.607C454.295 402.725 454.256 402.842 454.139 402.959C454.061 403.037 453.944 403.115 453.788 403.115H451.875C451.563 403.115 451.367 403.037 451.211 402.92C451.055 402.803 450.977 402.647 450.899 402.529L447.971 397.339H445.004V402.529C445.004 402.686 444.926 402.842 444.809 402.959C444.692 403.076 444.536 403.154 444.379 403.154H442.584C442.427 403.154 442.271 403.076 442.154 402.959C442.037 402.842 441.959 402.686 441.959 402.529V388.089C441.959 387.933 442.037 387.777 442.154 387.66C442.271 387.543 442.427 387.465 442.584 387.465H448.361V387.504ZM445.004 394.529H448.244C449.103 394.529 449.767 394.373 450.274 394.1C450.782 393.787 451.016 393.241 451.016 392.421C451.016 391.602 450.782 391.016 450.274 390.743C449.767 390.47 449.103 390.314 448.244 390.314H445.004V394.529Z" fill="white"/>
<path d="M1.05405 488H1106.91C1107.49 488 1107.96 487.532 1107.96 486.946C1107.96 486.361 1107.49 485.893 1106.91 485.893H1.05405C0.468466 485.893 0 486.361 0 486.946C0 487.532 0.468466 488 1.05405 488Z" fill="#2E3552"/>
</svg>
