<svg width="832" height="740" viewBox="0 0 832 740" fill="none" xmlns="http://www.w3.org/2000/svg">
<path d="M761.058 476.508H759.299V476.069H761.058V476.508ZM761.058 465.415H759.299V454.8H761.058V465.415ZM761.058 444.145H759.299V433.531H761.058V444.145ZM761.058 422.876H759.299V412.261H761.058V422.876ZM761.058 401.646H759.299V391.032H761.058V401.646ZM759.259 380.377V369.762H761.018V380.377H759.259ZM761.018 359.108H759.259V348.493H761.018V359.108ZM761.018 337.838H759.259V327.223H761.018V337.838ZM761.018 316.569H759.259V305.954H761.018V316.569ZM761.018 295.339H759.259V284.724H761.018V295.339ZM761.018 274.07H759.259V263.455H761.018V274.07Z" fill="#708FFF"/>
<path d="M172.579 142.142H170.82V131.527H172.579V142.142ZM172.579 120.873H170.82V110.258H172.579V120.873ZM172.579 99.6032H170.82V88.9885H172.579V99.6032ZM172.579 78.3338H170.82V67.7191H172.579V78.3338ZM172.579 57.0644H170.82V46.4497H172.579V57.0644ZM172.579 35.795H170.82V25.1803H172.579V35.795ZM172.579 14.5655H170.82V9.05859H172.579V14.5655Z" fill="#708FFF"/>
<path d="M611.021 85.2773H609.262V90.5847H611.021V85.2773Z" fill="#708FFF"/>
<path d="M611.021 423.312H609.262V412.897H611.021V423.312ZM611.021 402.522H609.262V392.107H611.021V402.522ZM611.021 381.731H609.262V371.316H611.021V381.731ZM611.021 360.941H609.262V350.525H611.021V360.941ZM611.021 340.15H609.262V329.735H611.021V340.15ZM611.021 319.36H609.262V308.944H611.021V319.36ZM611.021 298.529H609.262V288.114H611.021V298.529ZM611.021 277.739H609.262V267.363H611.021V277.739ZM611.021 256.948H609.262V246.533H611.021V256.948ZM611.021 236.157H609.262V225.742H611.021V236.157ZM611.021 215.367H609.262V204.952H611.021V215.367ZM611.021 194.576H609.262V184.161H611.021V194.576ZM611.021 173.746H609.262V163.331H611.021V173.746ZM611.021 152.955H609.262V142.54H611.021V152.955ZM611.021 132.165H609.262V121.75H611.021V132.165ZM611.021 111.374H609.262V100.959H611.021V111.374Z" fill="#708FFF"/>
<path d="M611.021 439.916H604.826V438.16H609.262V433.73H611.021V439.916Z" fill="#708FFF"/>
<path d="M594.394 439.912H583.963V438.156H594.394V439.912ZM573.531 439.912H563.1V438.156H573.531V439.912ZM552.708 439.912H542.277V438.156H552.708V439.912Z" fill="#708FFF"/>
<path d="M531.845 438.156H526.53V439.912H531.845V438.156Z" fill="#708FFF"/>
<path d="M761.018 143.539H759.259V148.846H761.018V143.539Z" fill="#708FFF"/>
<path d="M761.058 249.568H759.299V239.512H761.058V249.568ZM761.058 229.416H759.299V219.36H761.058V229.416ZM761.058 209.264H759.299V199.208H761.058V209.264ZM761.058 189.152H759.299V179.095H761.058V189.152ZM761.058 168.999H759.299V158.943H761.058V168.999Z" fill="#708FFF"/>
<path d="M761.058 265.849H754.823V264.093H759.259V259.664H761.058V265.849Z" fill="#708FFF"/>
<path d="M744.272 265.85H733.72V264.094H744.272V265.85ZM723.169 265.85H712.618V264.094H723.169V265.85ZM702.066 265.85H691.515V264.094H702.066V265.85ZM680.963 265.85H670.412V264.094H680.963V265.85ZM659.821 265.85H649.269V264.094H659.821V265.85ZM638.718 265.85H628.167V264.094H638.718V265.85Z" fill="#708FFF"/>
<path d="M617.615 264.094H612.3V265.85H617.615V264.094Z" fill="#708FFF"/>
<path d="M832 231.209H688.317V298.569H832V231.209Z" fill="#708FFF"/>
<path d="M832 231.209H688.317V233.124H832V231.209Z" fill="#91A9FF"/>
<path d="M826.565 236.637H693.713V293.142H826.565V236.637Z" fill="#ABC2FE"/>
<path d="M693.713 250.923C701.627 250.923 708.021 244.538 708.021 236.637H693.713V250.923Z" fill="#708FFF"/>
<path d="M826.565 250.923C818.651 250.923 812.256 244.538 812.256 236.637H826.565V250.923Z" fill="#708FFF"/>
<path d="M693.713 278.855C701.627 278.855 708.021 285.24 708.021 293.141H693.713V278.855Z" fill="#708FFF"/>
<path d="M826.565 278.855C818.651 278.855 812.256 285.24 812.256 293.141H826.565V278.855Z" fill="#708FFF"/>
<path d="M760.139 286.796C772.257 286.796 782.081 276.988 782.081 264.888C782.081 252.789 772.257 242.98 760.139 242.98C748.02 242.98 738.197 252.789 738.197 264.888C738.197 276.988 748.02 286.796 760.139 286.796Z" fill="#708FFF"/>
<path d="M769.691 270.995C769.691 265.408 765.255 263.972 761.618 262.535V255.871C762.377 256.07 763.016 256.47 763.576 257.028C764.415 257.946 765.814 258.106 766.893 257.467C768.372 256.589 768.692 254.554 767.493 253.317C765.934 251.641 763.896 250.723 761.618 250.444V248.608C761.618 247.611 760.818 246.812 759.819 246.812C758.82 246.812 758.02 247.611 758.02 248.608V250.404C754.184 251.082 750.946 253.756 750.946 258.345C750.946 263.293 754.543 265.209 758.02 266.605V273.669C757.021 273.389 756.262 272.871 755.622 272.152C754.743 271.155 753.344 270.875 752.185 271.554L751.985 271.673C750.547 272.511 750.187 274.387 751.226 275.664C752.825 277.619 755.143 278.856 758.02 279.215V281.131C758.02 282.128 758.82 282.927 759.819 282.927C760.818 282.927 761.618 282.128 761.618 281.131V279.295C766.254 278.737 769.691 275.823 769.691 270.995ZM756.422 258.425C756.422 257.347 756.981 256.47 758.02 255.991V260.819C756.861 260.101 756.422 259.383 756.422 258.425ZM761.618 273.828V268.082C763.256 268.84 764.175 269.638 764.175 271.035C764.136 272.272 763.376 273.429 761.618 273.828Z" fill="#E2EAFE"/>
<path d="M526.53 272.232C526.53 272.232 548.432 258.864 546.873 230.85C545.274 202.837 520.774 210.379 520.774 210.379L526.53 272.232Z" fill="#FFB1D0"/>
<path d="M188.966 476.507C211.467 373.192 226.655 346.376 232.49 326.543C238.325 306.71 287.365 191.385 308.388 194.258C329.411 197.131 325.894 214.45 317.74 248.329C309.587 282.209 291.002 326.503 291.002 326.503L293.16 413.217L188.966 476.507Z" fill="#FFB1D0"/>
<path d="M191.284 468.287L292.001 368.045L290.962 326.544C290.962 326.544 297.397 311.18 304.351 291.627L290.962 207.547C290.962 207.547 283.049 314.093 279.611 337.917L242.282 355.675C242.282 355.675 217.143 384.606 205.072 412.619C201.236 425.109 196.12 449.132 191.284 468.287Z" fill="#FE7592"/>
<path d="M528.448 426.425C528.448 426.425 549.671 403.241 556.785 379.337C563.859 355.434 567.137 345.977 553.228 335.362C544.795 328.937 515.179 384.605 515.179 384.605V439.395L528.448 426.425Z" fill="#FFB1D0"/>
<path d="M524.971 291.826C524.971 291.826 543.995 284.563 551.07 299.288C558.144 314.013 557.464 326.384 542.597 345.977C527.729 365.571 515.179 384.605 515.179 384.605L524.971 291.826Z" fill="#FFB1D0"/>
<path d="M546.833 337.317C546.833 337.317 531.566 350.605 530.287 368.962C529.008 387.318 535.283 418.125 535.283 418.125L506.146 452.603L518.217 296.095L524.931 291.785C524.931 291.785 525.81 338.115 529.647 339.871C533.484 341.667 546.833 337.317 546.833 337.317Z" fill="#FE7592"/>
<path d="M288.524 607.475L328.212 633.134C328.212 633.134 393.598 607.475 419.257 576.03C444.956 544.545 497.473 469.962 497.473 469.962L327.053 371.756L279.651 375.986L258.189 488.558L288.524 607.475Z" fill="#FFB1D0"/>
<path d="M496.714 469.482L347.196 383.367L294.04 400.127L271.978 416.329L264.744 454.239L276.094 502.444L307.708 560.785C307.708 560.785 319.978 552.884 324.095 542.109L455.628 528.183C473.533 503.761 490.559 479.738 495.835 472.276L496.714 469.482Z" fill="#FE7592"/>
<path d="M184.449 578.305L108.551 712.905H301.394L328.212 633.094L291.002 578.305H184.449Z" fill="#FFB1D0"/>
<path d="M333.447 27.6143V130.17H278.173V27.6143C278.173 19.9924 281.25 13.0889 286.286 8.10073C291.242 3.07269 298.156 0 305.79 0C321.058 0 333.447 12.3706 333.447 27.6143Z" fill="#ABC2FE"/>
<path d="M278.173 65.5625V102.555C278.173 110.176 275.095 117.08 270.059 122.068C265.063 127.056 258.149 130.169 250.515 130.169C235.248 130.169 222.898 117.798 222.898 102.594V65.6024H278.173V65.5625Z" fill="white"/>
<path d="M290.922 89.8262V130.17H250.515C258.149 130.17 265.063 127.098 270.059 122.069C275.055 117.081 278.173 110.178 278.173 102.556V89.8262H290.922Z" fill="#ABC2FE"/>
<path d="M507.585 525.152H309.427C299.195 525.152 290.922 516.892 290.922 506.676V90.3862C290.922 80.1705 299.195 71.9102 309.427 71.9102H507.585C517.817 71.9102 526.09 80.1705 526.09 90.3862V506.636C526.09 516.852 517.817 525.152 507.585 525.152Z" stroke="#231F20" stroke-width="1.2386" stroke-miterlimit="10"/>
<path d="M301.354 493.826V103.235C301.354 100.362 303.712 98.0078 306.589 98.0078H510.423C513.301 98.0078 515.659 100.362 515.659 103.235V493.826C515.659 496.7 513.301 499.054 510.423 499.054H306.589C303.712 499.054 301.354 496.7 301.354 493.826Z" stroke="#231F20" stroke-width="1.2386" stroke-miterlimit="10"/>
<path d="M507.585 525.152H309.427C299.195 525.152 290.922 516.892 290.922 506.676V90.3862C290.922 80.1705 299.195 71.9102 309.427 71.9102H507.585C517.817 71.9102 526.09 80.1705 526.09 90.3862V506.636C526.09 516.852 517.817 525.152 507.585 525.152Z" fill="url(#paint0_linear)"/>
<path d="M301.354 493.826V103.235C301.354 100.362 303.712 98.0078 306.589 98.0078H510.423C513.301 98.0078 515.659 100.362 515.659 103.235V493.826C515.659 496.7 513.301 499.054 510.423 499.054H306.589C303.712 499.054 301.354 496.7 301.354 493.826Z" fill="#D6E3FF"/>
<path d="M407.147 90.1462C410.392 90.1462 413.023 87.5198 413.023 84.2801C413.023 81.0404 410.392 78.4141 407.147 78.4141C403.903 78.4141 401.272 81.0404 401.272 84.2801C401.272 87.5198 403.903 90.1462 407.147 90.1462Z" stroke="#231F20" stroke-width="1.2386" stroke-miterlimit="10"/>
<path d="M407.147 90.1462C410.392 90.1462 413.023 87.5198 413.023 84.2801C413.023 81.0404 410.392 78.4141 407.147 78.4141C403.903 78.4141 401.272 81.0404 401.272 84.2801C401.272 87.5198 403.903 90.1462 407.147 90.1462Z" fill="#221473"/>
<path opacity="0.2" d="M526.09 90.3875C526.09 81.8877 520.375 74.7447 512.541 72.5898L338.004 519.806L416.06 523.517L526.13 177.021V90.3875H526.09Z" fill="white"/>
<path opacity="0.2" d="M472.534 71.9102H455.628L455.188 72.5486L290.922 493.388V506.636C290.922 512.502 293.64 517.73 297.917 521.122L329.131 523.516L472.534 71.9102Z" fill="white"/>
<path d="M483.125 465.613H333.887C319.699 465.613 308.188 454.12 308.188 439.954C308.188 425.788 319.699 414.295 333.887 414.295H483.085C497.274 414.295 508.784 425.788 508.784 439.954C508.824 454.12 497.314 465.613 483.125 465.613Z" fill="#FEAB00"/>
<path d="M350.314 436.802C350.314 441.072 347.036 444.065 342.88 444.065H340.122V450.29H334.806V429.539H342.88C347.076 429.539 350.314 432.532 350.314 436.802ZM344.998 436.802C344.998 435.485 344.079 434.607 342.88 434.607H340.122V439.036H342.88C344.079 439.036 344.998 438.119 344.998 436.802Z" fill="white"/>
<path d="M365.261 447.338H358.347L357.468 450.331H351.713L358.587 429.58H365.062L371.936 450.331H366.221L365.261 447.338ZM363.863 442.749L361.744 435.686L359.666 442.749H363.863Z" fill="white"/>
<path d="M384.366 442.349V450.33H379.05V442.388L372.056 429.539H378.011L381.688 437.241L385.405 429.539H391.36L384.366 442.349Z" fill="white"/>
<path d="M422.495 429.539V450.29H418.378L411.024 439.835V450.29H405.708V429.539H409.825L417.179 439.994V429.539H422.495Z" fill="white"/>
<path d="M427.93 439.955C427.93 433.849 432.766 429.141 438.841 429.141C444.916 429.141 449.752 433.849 449.752 439.955C449.752 446.06 444.916 450.769 438.841 450.769C432.766 450.769 427.93 446.06 427.93 439.955ZM444.477 439.955C444.477 436.643 442.039 434.328 438.841 434.328C435.644 434.328 433.206 436.643 433.206 439.955C433.206 443.267 435.644 445.581 438.841 445.581C442.039 445.581 444.477 443.267 444.477 439.955Z" fill="white"/>
<path d="M452.67 429.539H458.425L461.623 442.628L465.34 429.539H469.536L473.253 442.628L476.491 429.539H482.206L476.411 450.29H470.775L467.458 438.558L464.141 450.29H458.505L452.67 429.539Z" fill="white"/>
<path d="M408.506 355.994C439.431 355.994 464.5 330.963 464.5 300.087C464.5 269.21 439.431 244.18 408.506 244.18C377.581 244.18 352.512 269.21 352.512 300.087C352.512 330.963 377.581 355.994 408.506 355.994Z" fill="white"/>
<path d="M408.506 310.103C422.876 310.103 434.525 298.472 434.525 284.125C434.525 269.777 422.876 258.146 408.506 258.146C394.136 258.146 382.487 269.777 382.487 284.125C382.487 298.472 394.136 310.103 408.506 310.103Z" fill="#482AF6"/>
<path d="M408.506 355.993C422.455 355.993 435.204 350.885 444.996 342.465C439.481 327.66 425.212 317.125 408.506 317.125C391.76 317.125 377.491 327.66 372.016 342.465C381.808 350.885 394.557 355.993 408.506 355.993Z" fill="#482AF6"/>
<path d="M439.521 373.791H377.491C375.533 373.791 373.934 372.194 373.934 370.239C373.934 368.284 375.533 366.688 377.491 366.688H439.561C441.519 366.688 443.118 368.284 443.118 370.239C443.078 372.194 441.479 373.791 439.521 373.791Z" fill="white"/>
<path d="M427.171 388.835H389.801C387.843 388.835 386.244 387.239 386.244 385.284C386.244 383.329 387.843 381.732 389.801 381.732H427.171C429.129 381.732 430.728 383.329 430.728 385.284C430.728 387.239 429.129 388.835 427.171 388.835Z" fill="white"/>
<path d="M310.986 184.681C310.986 174.506 319.219 166.285 329.411 166.285H490.399C500.591 166.285 508.824 174.506 508.824 184.681C508.824 194.857 500.591 203.078 490.399 203.078H329.411C319.259 203.078 310.986 194.817 310.986 184.681Z" fill="#708FFF"/>
<path d="M490.399 195.694H329.411C323.336 195.694 318.38 190.746 318.38 184.641C318.38 178.575 323.336 173.627 329.411 173.627H490.399C496.474 173.627 501.43 178.575 501.43 184.641C501.43 190.746 496.474 195.694 490.399 195.694Z" fill="#3955BF"/>
<path d="M333.448 0V27.5744C333.448 12.3307 321.058 0 305.83 0H333.448Z" fill="white"/>
<path d="M333.447 0V195.695H486.363V28.0932C486.363 12.5701 473.773 0 458.226 0H333.447Z" fill="white"/>
<path d="M381.528 88.073H351.753C350.194 88.073 348.955 86.7961 348.955 85.2797C348.955 83.7234 350.234 82.4863 351.753 82.4863H381.528C383.087 82.4863 384.326 83.7633 384.326 85.2797C384.366 86.7961 383.087 88.073 381.528 88.073Z" fill="#7FA0FF"/>
<path d="M424.493 54.7918H394.717C393.159 54.7918 391.92 53.5148 391.92 51.9984C391.92 50.4421 393.199 49.2051 394.717 49.2051H424.493C426.052 49.2051 427.291 50.482 427.291 51.9984C427.291 53.5547 426.052 54.7918 424.493 54.7918Z" fill="#7FA0FF"/>
<path d="M467.458 88.073H459.624C458.066 88.073 456.827 86.7961 456.827 85.2797C456.827 83.7234 458.106 82.4863 459.624 82.4863H467.418C468.977 82.4863 470.216 83.7633 470.216 85.2797C470.256 86.7961 469.017 88.073 467.458 88.073Z" fill="#7FA0FF"/>
<path d="M367.939 99.1238H351.793C350.234 99.1238 348.995 97.8468 348.995 96.3304C348.995 94.7742 350.274 93.5371 351.793 93.5371H367.939C369.498 93.5371 370.737 94.8141 370.737 96.3304C370.737 97.8867 369.498 99.1238 367.939 99.1238Z" fill="#7FA0FF"/>
<path d="M398.075 99.1238H377.212C375.653 99.1238 374.414 97.8468 374.414 96.3304C374.414 94.7742 375.693 93.5371 377.212 93.5371H398.075C399.633 93.5371 400.872 94.8141 400.872 96.3304C400.872 97.8867 399.633 99.1238 398.075 99.1238Z" fill="#7FA0FF"/>
<path d="M467.458 99.1238H459.624C458.066 99.1238 456.827 97.8468 456.827 96.3304C456.827 94.7742 458.106 93.5371 459.624 93.5371H467.418C468.977 93.5371 470.216 94.8141 470.216 96.3304C470.256 97.8867 469.017 99.1238 467.458 99.1238Z" fill="#7FA0FF"/>
<path d="M375.933 110.179H351.793C350.234 110.179 348.995 108.902 348.995 107.385C348.995 105.829 350.274 104.592 351.793 104.592H375.933C377.492 104.592 378.731 105.869 378.731 107.385C378.731 108.941 377.452 110.179 375.933 110.179Z" fill="#7FA0FF"/>
<path d="M390.601 110.179H385.165C383.607 110.179 382.368 108.902 382.368 107.385C382.368 105.829 383.647 104.592 385.165 104.592H390.601C392.16 104.592 393.399 105.869 393.399 107.385C393.439 108.941 392.16 110.179 390.601 110.179Z" fill="#7FA0FF"/>
<path d="M467.458 110.179H459.624C458.066 110.179 456.827 108.902 456.827 107.385C456.827 105.829 458.106 104.592 459.624 104.592H467.418C468.977 104.592 470.216 105.869 470.216 107.385C470.256 108.941 469.017 110.179 467.458 110.179Z" fill="#7FA0FF"/>
<path d="M381.528 121.233H351.753C350.194 121.233 348.955 119.956 348.955 118.44C348.955 116.884 350.234 115.646 351.753 115.646H381.528C383.087 115.646 384.326 116.923 384.326 118.44C384.366 119.996 383.087 121.233 381.528 121.233Z" fill="#7FA0FF"/>
<path d="M467.458 121.233H459.624C458.066 121.233 456.827 119.956 456.827 118.44C456.827 116.884 458.106 115.646 459.624 115.646H467.418C468.977 115.646 470.216 116.923 470.216 118.44C470.256 119.996 469.017 121.233 467.458 121.233Z" fill="#7FA0FF"/>
<path d="M367.939 132.286H351.793C350.234 132.286 348.995 131.009 348.995 129.493C348.995 127.936 350.274 126.699 351.793 126.699H367.939C369.498 126.699 370.737 127.976 370.737 129.493C370.737 131.049 369.498 132.286 367.939 132.286Z" fill="#7FA0FF"/>
<path d="M398.075 132.286H377.212C375.653 132.286 374.414 131.009 374.414 129.493C374.414 127.936 375.693 126.699 377.212 126.699H398.075C399.633 126.699 400.872 127.976 400.872 129.493C400.872 131.049 399.633 132.286 398.075 132.286Z" fill="#7FA0FF"/>
<path d="M467.458 132.286H459.624C458.066 132.286 456.827 131.009 456.827 129.493C456.827 127.936 458.106 126.699 459.624 126.699H467.418C468.977 126.699 470.216 127.976 470.216 129.493C470.256 131.049 469.017 132.286 467.458 132.286Z" fill="#7FA0FF"/>
<path d="M375.933 169.718H351.793C350.234 169.718 348.995 168.441 348.995 166.924C348.995 165.368 350.274 164.131 351.793 164.131H375.933C377.492 164.131 378.731 165.408 378.731 166.924C378.731 168.481 377.452 169.718 375.933 169.718Z" fill="#7FA0FF"/>
<path d="M390.601 169.718H385.165C383.607 169.718 382.368 168.441 382.368 166.924C382.368 165.368 383.647 164.131 385.165 164.131H390.601C392.16 164.131 393.399 165.408 393.399 166.924C393.439 168.481 392.16 169.718 390.601 169.718Z" fill="#7FA0FF"/>
<path d="M470.855 168.68C470.855 164.37 467.458 163.293 464.66 162.175V157.068C465.26 157.227 465.739 157.507 466.139 157.946C466.779 158.624 467.858 158.784 468.657 158.305C469.816 157.626 470.016 156.07 469.137 155.112C467.938 153.835 466.379 153.117 464.62 152.878V151.521C464.62 150.763 464.021 150.164 463.261 150.164C462.502 150.164 461.902 150.763 461.902 151.521V152.918C458.945 153.436 456.467 155.471 456.467 159.023C456.467 162.814 459.225 164.29 461.902 165.368V170.795C461.143 170.556 460.544 170.196 460.064 169.638C459.385 168.88 458.305 168.68 457.426 169.159L457.266 169.239C456.187 169.877 455.867 171.314 456.667 172.311C457.866 173.788 459.664 174.746 461.902 175.025V176.501C461.902 177.26 462.502 177.858 463.261 177.858C464.021 177.858 464.62 177.26 464.62 176.501V175.065C468.217 174.626 470.855 172.391 470.855 168.68ZM460.664 159.023C460.664 158.185 461.103 157.507 461.902 157.147V160.859C461.023 160.3 460.664 159.781 460.664 159.023ZM464.66 170.835V166.445C465.899 167.044 466.619 167.642 466.619 168.72C466.619 169.638 466.019 170.556 464.66 170.835Z" fill="#7FA0FF"/>
<path d="M470.256 142.023H348.955V143.54H470.256V142.023Z" fill="#7FA0FF"/>
<path d="M470.256 71.8301H348.955V73.3465H470.256V71.8301Z" fill="#7FA0FF"/>
<path d="M437.243 21.5898H381.968C377.731 21.5898 374.294 25.0217 374.294 29.2516C374.294 33.4816 377.731 36.9134 381.968 36.9134H437.243C441.479 36.9134 444.916 33.4816 444.916 29.2516C444.916 25.0217 441.479 21.5898 437.243 21.5898Z" fill="#7FA0FF"/>
<path d="M184.449 578.304C184.449 578.304 176.456 499.052 195.16 458.23C213.825 417.447 236.007 371.955 245.359 362.657C254.712 353.319 283.888 356.831 314.223 353.319C344.558 349.807 374.494 335.841 376.452 356.831C378.411 377.821 350.394 402.722 320.058 405.994C289.723 409.266 285.766 419.921 285.766 419.921L275.295 454.718C275.295 454.718 339.922 542.15 288.564 607.395L184.449 578.304Z" fill="#FFB1D0"/>
<path d="M355.589 345.977C355.589 345.977 357.947 360.502 351.513 364.971C347.476 367.765 339.003 369.72 333.168 370.798C329.731 371.436 326.373 369.241 325.614 365.809C324.575 361.141 323.496 354.955 324.135 351.883L355.589 345.977Z" fill="#FFD4E5"/>
<path d="M337.244 740.002C335.925 727.032 325.774 656.52 258.828 638.603C185.009 618.85 107.872 640.239 107.872 640.239L81.6932 654.405C78.4159 656.201 75.5782 658.715 73.4599 661.827L20.2234 740.002H337.244Z" fill="#FFC31B"/>
<path d="M248.757 657.715C307.748 681.1 331.889 729.465 336.565 740H338.363L358.187 696.104C358.187 696.104 356.069 648.817 275.974 602.327C195.88 555.838 131.812 591.952 131.812 591.952L107.872 640.277C107.872 640.237 182.331 631.378 248.757 657.715Z" fill="#E6EEFF"/>
<path d="M153.994 604.202C145.441 602.246 132.172 628.504 145.761 630.499C159.35 632.454 167.343 607.274 153.994 604.202Z" fill="#FFC31B"/>
<path d="M636.44 204.674H583.883C578.247 204.674 573.651 200.085 573.651 194.458V141.983C573.651 136.357 578.247 131.768 583.883 131.768H636.44C642.075 131.768 646.672 136.357 646.672 141.983V194.458C646.672 200.125 642.075 204.674 636.44 204.674Z" fill="#FFD769"/>
<path d="M603.427 149.207C596.632 149.207 591.077 154.754 591.077 161.538C591.077 162.495 591.876 163.294 592.836 163.294C593.795 163.294 594.594 162.495 594.594 161.538C594.594 156.669 598.551 152.719 603.427 152.719C604.386 152.719 605.185 151.921 605.185 150.963C605.225 150.005 604.426 149.207 603.427 149.207Z" fill="white"/>
<path d="M635.201 187.235L624.09 176.142C623.41 175.463 622.291 175.463 621.612 176.142L621.092 176.66L618.375 173.947C621.172 170.595 622.891 166.245 622.891 161.536C622.891 150.842 614.178 142.143 603.467 142.143C592.756 142.143 584.043 150.842 584.043 161.536C584.043 172.231 592.756 180.93 603.467 180.93C608.183 180.93 612.499 179.254 615.897 176.421L618.614 179.135L618.095 179.653C617.415 180.332 617.415 181.449 618.095 182.127L629.206 193.221C629.885 193.899 630.764 194.259 631.684 194.259C632.603 194.259 633.522 193.899 634.162 193.221L635.201 192.184C635.88 191.505 636.24 190.627 636.24 189.709C636.24 188.792 635.88 187.914 635.201 187.235ZM587.56 161.536C587.56 152.797 594.674 145.694 603.427 145.694C612.18 145.694 619.294 152.797 619.294 161.536C619.294 165.886 617.535 169.797 614.698 172.67C614.658 172.71 614.658 172.71 614.618 172.75C614.578 172.79 614.578 172.79 614.538 172.83C611.66 175.663 607.743 177.419 603.387 177.419C594.674 177.419 587.56 170.276 587.56 161.536ZM632.723 189.749L631.684 190.787L621.812 180.93L622.331 180.412L622.851 179.893L632.723 189.749Z" fill="white"/>
<path d="M786.437 414.176H733.88C728.245 414.176 723.649 409.587 723.649 403.961V351.485C723.649 345.859 728.245 341.27 733.88 341.27H786.437C792.073 341.27 796.669 345.859 796.669 351.485V403.961C796.669 409.587 792.073 414.176 786.437 414.176Z" fill="#FFD769"/>
<path d="M760.139 404.081C745.591 404.081 733.72 392.269 733.72 377.703C733.72 363.178 745.551 351.326 760.139 351.326C774.727 351.326 786.557 363.138 786.557 377.703C786.557 392.269 774.727 404.081 760.139 404.081ZM760.139 354.878C747.509 354.878 737.238 365.133 737.238 377.743C737.238 390.353 747.509 400.609 760.139 400.609C772.768 400.609 783.04 390.353 783.04 377.743C783.04 365.133 772.768 354.878 760.139 354.878Z" fill="white"/>
<path d="M760.139 370.681C757.221 370.681 754.863 368.327 754.863 365.414C754.863 362.501 757.221 360.146 760.139 360.146C763.056 360.146 765.414 362.501 765.414 365.414C765.414 368.327 763.056 370.681 760.139 370.681ZM760.139 363.658C759.179 363.658 758.38 364.456 758.38 365.414C758.38 366.372 759.179 367.17 760.139 367.17C761.098 367.17 761.897 366.372 761.897 365.414C761.897 364.456 761.138 363.658 760.139 363.658Z" fill="white"/>
<path d="M760.139 395.302C757.221 395.302 754.863 392.948 754.863 390.035V377.744C754.863 374.831 757.221 372.477 760.139 372.477C763.056 372.477 765.414 374.831 765.414 377.744V390.035C765.414 392.948 763.056 395.302 760.139 395.302ZM760.139 375.948C759.179 375.948 758.38 376.746 758.38 377.704V389.995C758.38 390.953 759.179 391.751 760.139 391.751C761.098 391.751 761.897 390.953 761.897 389.995V377.704C761.897 376.746 761.138 375.948 760.139 375.948Z" fill="white"/>
<path d="M636.44 301.363H583.883C578.247 301.363 573.651 296.773 573.651 291.147V238.632C573.651 233.005 578.247 228.416 583.883 228.416H636.44C642.075 228.416 646.672 233.005 646.672 238.632V291.107C646.672 296.773 642.075 301.363 636.44 301.363Z" fill="#ABC2FE"/>
<path d="M632.603 270.117C632.603 268.521 631.764 267.124 630.525 266.326C630.884 265.687 631.124 264.929 631.124 264.131C631.124 261.657 629.126 259.662 626.648 259.662H611.66V247.69C611.66 245.216 609.662 243.221 607.184 243.221H605.585C604.026 243.221 602.747 244.378 602.587 245.934C602.428 247.85 601.828 251.481 599.91 254.354C598.151 256.948 596.912 259.542 596.153 261.338C595.833 261.218 595.513 261.178 595.154 261.178H590.677C589.039 261.178 587.68 262.535 587.68 264.171V283.605C587.68 285.241 589.039 286.598 590.677 286.598H595.154C596.592 286.598 597.791 285.6 598.071 284.243C599.79 285.361 602.148 286.598 604.146 286.598H623.61C626.088 286.598 628.087 284.602 628.087 282.128C628.087 281.53 627.967 280.971 627.767 280.452C629.685 279.933 631.084 278.178 631.084 276.142C631.084 275.344 630.884 274.586 630.485 273.948C631.764 273.11 632.603 271.713 632.603 270.117ZM595.154 283.565H590.677V264.131H595.154V283.565ZM626.608 277.619H623.61H620.613C619.773 277.619 619.134 278.297 619.134 279.095C619.134 279.933 619.813 280.572 620.613 280.572H623.61C624.45 280.572 625.089 281.25 625.089 282.048C625.089 282.886 624.41 283.525 623.61 283.525H604.146C602.548 283.525 599.83 281.849 598.151 280.572V264.37C598.471 263.453 599.91 259.662 602.388 255.99C604.666 252.559 605.345 248.368 605.545 246.174H607.144C607.983 246.174 608.623 246.852 608.623 247.65V261.098C608.623 261.936 609.302 262.575 610.101 262.575H626.568C627.407 262.575 628.047 263.253 628.047 264.051C628.047 264.889 627.367 265.528 626.568 265.528H622.092H620.613C619.773 265.528 619.134 266.206 619.134 267.004C619.134 267.842 619.813 268.481 620.613 268.481H622.092H626.568H628.047C628.886 268.481 629.525 269.159 629.525 269.957C629.525 270.755 628.846 271.434 628.047 271.434H626.568H622.092H620.613C619.773 271.434 619.134 272.112 619.134 272.91C619.134 273.748 619.813 274.387 620.613 274.387H622.092H626.568C627.407 274.387 628.047 275.065 628.047 275.863C628.127 276.941 627.447 277.619 626.608 277.619Z" fill="white"/>
<path d="M619.773 98.6455H600.469C598.391 98.6455 596.712 96.9694 596.712 94.8944V75.6202C596.712 73.5452 598.391 71.8691 600.469 71.8691H619.773C621.852 71.8691 623.53 73.5452 623.53 75.6202V94.8944C623.53 96.9694 621.852 98.6455 619.773 98.6455Z" fill="#ABC2FE"/>
<path d="M769.811 472.557H750.507C748.428 472.557 746.75 470.882 746.75 468.806V449.532C746.75 447.457 748.428 445.781 750.507 445.781H769.811C771.889 445.781 773.568 447.457 773.568 449.532V468.806C773.568 470.882 771.889 472.557 769.811 472.557Z" fill="#ABC2FE"/>
<path d="M770.65 169.598H749.627C747.349 169.598 745.551 167.762 745.551 165.527V144.537C745.551 142.263 747.389 140.467 749.627 140.467H770.65C772.928 140.467 774.727 142.302 774.727 144.537V165.527C774.767 167.802 772.928 169.598 770.65 169.598Z" fill="#FFD769"/>
<path d="M625.928 392.188H594.314C590.917 392.188 588.159 389.434 588.159 386.042V354.477C588.159 351.085 590.917 348.332 594.314 348.332H625.928C629.326 348.332 632.083 351.085 632.083 354.477V386.042C632.123 389.434 629.366 392.188 625.928 392.188Z" fill="#FFD769"/>
<path d="M181.332 34.956H162.028C159.949 34.956 158.271 33.28 158.271 31.2049V11.9308C158.271 9.8557 159.949 8.17969 162.028 8.17969H181.332C183.41 8.17969 185.089 9.8557 185.089 11.9308V31.2049C185.089 33.28 183.41 34.956 181.332 34.956Z" fill="#FFD769"/>
<path d="M187.487 115.367H155.873C152.475 115.367 149.718 112.614 149.718 109.222V77.6571C149.718 74.2652 152.475 71.5117 155.873 71.5117H187.487C190.884 71.5117 193.642 74.2652 193.642 77.6571V109.222C193.682 112.614 190.924 115.367 187.487 115.367Z" fill="#FFD769"/>
<path d="M169.062 328.578H167.303V317.963H169.062V328.578ZM169.062 307.308H167.303V296.694H169.062V307.308ZM169.062 286.039H167.303V275.424H169.062V286.039ZM169.062 264.809H167.303V254.195H169.062V264.809ZM169.062 243.54H167.303V232.925H169.062V243.54ZM169.062 222.271H167.303V211.656H169.062V222.271ZM169.062 201.001H167.303V190.386H169.062V201.001ZM290.922 186.236H280.291V184.48H290.922V186.236ZM269.62 186.236H258.988V184.48H269.62V186.236ZM248.317 186.236H237.686V184.48H248.317V186.236ZM227.014 186.236H216.383V184.48H227.014V186.236ZM205.712 186.236H195.081V184.48H205.712V186.236ZM184.449 186.236H173.818V184.48H184.449V186.236Z" fill="#708FFF"/>
<path d="M47.4013 434.885H45.6428V424.27H47.4013V434.885ZM47.4013 413.615H45.6428V403.001H47.4013V413.615ZM47.4013 392.346H45.6428V381.731H47.4013V392.346ZM47.4013 371.117H45.6428V360.502H47.4013V371.117ZM47.4013 349.847H45.6428V339.192H47.4013V349.847ZM47.4013 328.578H45.6428V317.963H47.4013V328.578ZM47.4013 307.308H45.6428V296.694H47.4013V307.308ZM47.4013 286.039H45.6428V275.424H47.4013V286.039ZM47.4013 264.809H45.6428V254.195H47.4013V264.809ZM47.4013 243.54H45.6428V232.925H47.4013V243.54ZM47.4013 222.271H45.6428V211.656H47.4013V222.271ZM47.4013 201.001H45.6428V190.386H47.4013V201.001ZM169.222 186.236H158.59V184.48H169.222V186.236ZM147.919 186.236H137.288V184.48H147.919V186.236ZM126.657 186.236H116.025V184.48H126.657V186.236ZM105.354 186.236H94.7226V184.48H105.354V186.236ZM84.0514 186.236H73.4201V184.48H84.0514V186.236ZM62.7488 186.236H52.1175V184.48H62.7488V186.236Z" fill="#708FFF"/>
<path d="M194.481 346.575H141.884C136.249 346.575 131.652 341.986 131.652 336.359V283.884C131.652 278.257 136.249 273.668 141.884 273.668H194.441C200.076 273.668 204.673 278.257 204.673 283.884V336.359C204.713 341.986 200.116 346.575 194.481 346.575Z" fill="#ABC2FE"/>
<path d="M168.183 311.816C175.736 311.816 181.891 305.671 181.891 298.129C181.891 290.587 175.736 284.441 168.183 284.441C160.629 284.441 154.474 290.587 154.474 298.129C154.474 305.671 160.629 311.816 168.183 311.816ZM168.183 287.833C173.858 287.833 178.494 292.462 178.494 298.129C178.494 303.795 173.858 308.424 168.183 308.424C162.507 308.424 157.871 303.795 157.871 298.129C157.911 292.462 162.507 287.833 168.183 287.833Z" fill="white"/>
<path d="M167.503 299.844H168.862C169.421 299.844 169.901 300.323 169.901 300.882C169.901 301.44 169.421 301.919 168.862 301.919H167.503C167.063 301.919 166.624 301.6 166.504 301.201C166.224 300.283 165.265 299.764 164.386 300.044C163.466 300.323 162.947 301.281 163.226 302.159C163.666 303.715 164.945 304.872 166.504 305.231C166.504 305.271 166.504 305.311 166.504 305.351C166.544 305.471 166.544 305.55 166.584 305.67C166.624 305.79 166.664 305.87 166.744 305.95C166.824 306.029 166.864 306.149 166.943 306.189C167.023 306.269 167.103 306.349 167.183 306.389C167.263 306.468 167.383 306.508 167.463 306.548C167.583 306.588 167.663 306.628 167.783 306.628C167.903 306.668 168.023 306.668 168.102 306.668C168.222 306.668 168.342 306.668 168.422 306.628C168.542 306.588 168.622 306.588 168.742 306.548C168.862 306.508 168.942 306.468 169.022 306.389C169.102 306.309 169.222 306.269 169.302 306.189C169.381 306.109 169.461 306.029 169.501 305.95C169.581 305.87 169.621 305.75 169.661 305.67C169.701 305.55 169.741 305.471 169.741 305.351C169.741 305.311 169.741 305.271 169.741 305.231C171.7 304.792 173.178 302.997 173.178 300.882C173.178 298.407 171.18 296.412 168.702 296.412H167.343C166.784 296.412 166.304 295.933 166.304 295.375C166.304 294.816 166.784 294.337 167.343 294.337H168.702C169.142 294.337 169.541 294.616 169.661 295.055C169.941 295.933 170.94 296.452 171.819 296.133C172.699 295.853 173.218 294.856 172.899 293.978C172.419 292.501 171.18 291.384 169.661 291.065C169.661 291.025 169.661 290.985 169.661 290.945C169.621 290.825 169.621 290.746 169.581 290.626C169.541 290.506 169.501 290.426 169.421 290.347C169.341 290.267 169.302 290.147 169.222 290.067C169.142 289.987 169.062 289.908 168.942 289.868C168.862 289.788 168.742 289.748 168.662 289.708C168.542 289.668 168.462 289.628 168.342 289.628C167.783 289.509 167.183 289.708 166.784 290.107C166.704 290.187 166.624 290.267 166.584 290.386C166.504 290.466 166.464 290.586 166.424 290.666C166.384 290.786 166.344 290.865 166.344 290.985C166.344 291.025 166.344 291.065 166.344 291.105C164.386 291.544 162.907 293.339 162.907 295.454C163.027 297.849 165.025 299.844 167.503 299.844Z" fill="white"/>
<path d="M191.643 317.841C190.205 316.883 188.406 316.724 186.807 317.362L173.258 322.989C173.298 322.709 173.338 322.39 173.338 322.111C173.338 319.278 171.02 316.963 168.183 316.963H160.109C158.67 316.045 154.354 313.531 151.037 313.531C147 313.531 143.363 317.043 142.963 317.442C142.643 317.761 142.444 318.2 142.444 318.639V334.042C142.444 335 143.203 335.758 144.162 335.758H171.62C171.939 335.758 172.219 335.679 172.499 335.519L193.082 323.547C193.602 323.228 193.921 322.67 193.921 322.071C193.921 320.395 193.042 318.799 191.643 317.841ZM171.14 332.366H145.881V319.397C147 318.44 149.158 316.923 151.037 316.923C153.435 316.923 157.351 319.198 158.67 320.076C158.95 320.275 159.27 320.355 159.63 320.355H168.222C169.182 320.355 169.941 321.113 169.941 322.071C169.941 323.029 169.182 323.787 168.222 323.787H157.911C156.952 323.787 156.192 324.545 156.192 325.503C156.192 326.461 156.952 327.219 157.911 327.219H171.62C171.86 327.219 172.059 327.179 172.299 327.099L188.126 320.515C188.646 320.275 189.245 320.355 189.725 320.674C189.965 320.834 190.125 321.033 190.284 321.233L171.14 332.366Z" fill="white"/>
<path d="M171.7 231.289C197.481 231.289 218.381 210.421 218.381 184.679C218.381 158.938 197.481 138.07 171.7 138.07C145.918 138.07 125.018 158.938 125.018 184.679C125.018 210.421 145.918 231.289 171.7 231.289Z" fill="#FFC31B"/>
<path d="M171.7 142.141C196.799 142.141 217.262 161.934 218.341 186.715C218.381 186.036 218.381 185.358 218.381 184.679C218.381 158.941 197.479 138.07 171.7 138.07C145.921 138.07 125.018 158.941 125.018 184.679C125.018 185.358 125.018 186.036 125.058 186.715C126.097 161.894 146.6 142.141 171.7 142.141Z" fill="#FFDC7D"/>
<path d="M171.7 220.593C191.566 220.593 207.67 204.513 207.67 184.678C207.67 164.843 191.566 148.764 171.7 148.764C151.834 148.764 135.729 164.843 135.729 184.678C135.729 204.513 151.834 220.593 171.7 220.593Z" fill="#FFAD24"/>
<path d="M187.327 194.656C187.327 185.478 180.053 183.123 174.058 180.769V169.795C175.337 170.114 176.376 170.753 177.255 171.671C178.654 173.147 180.932 173.466 182.691 172.429C185.129 170.992 185.648 167.68 183.69 165.605C181.132 162.891 177.775 161.335 174.058 160.856V157.943C174.058 156.307 172.739 154.99 171.1 154.99C169.461 154.99 168.142 156.307 168.142 157.943V160.896C161.868 162.014 156.512 166.403 156.512 173.945C156.512 182.086 162.387 185.198 168.142 187.513V199.125C166.544 198.646 165.225 197.808 164.186 196.651C162.747 195.015 160.429 194.576 158.55 195.654L158.231 195.853C155.912 197.21 155.273 200.322 156.952 202.398C159.55 205.59 163.386 207.585 168.103 208.224V211.336C168.103 212.972 169.421 214.289 171.06 214.289C172.699 214.289 174.018 212.972 174.018 211.336V208.303C181.691 207.386 187.327 202.597 187.327 194.656ZM165.585 174.065C165.585 172.269 166.504 170.833 168.222 170.074V177.976C166.264 176.778 165.585 175.621 165.585 174.065ZM174.098 199.325V189.907C176.775 191.144 178.294 192.461 178.294 194.736C178.254 196.771 177.015 198.646 174.098 199.325Z" fill="#FFE08A"/>
<path d="M43.8042 486.523C32.3336 482.572 22.9013 475.948 15.7071 466.849C10.1117 459.746 5.91515 451.167 3.23733 441.35C-1.19904 425.029 0.159849 410.743 0.199817 410.144L0.839294 403.68H7.87355C16.7463 403.68 24.8597 401.445 31.9739 397.016C37.2096 393.743 40.0473 390.431 40.2871 390.152L46.5619 383.887L52.7169 390.152C52.9567 390.471 55.7944 393.783 60.9901 397.016C68.1043 401.445 76.2177 403.68 85.0904 403.68H92.1247L92.7642 410.144C92.8042 410.743 94.163 424.989 89.7267 441.35C87.0489 451.167 82.8923 459.746 77.2569 466.849C70.0627 475.948 60.6304 482.532 49.1598 486.523L46.482 487.44L43.8042 486.523Z" fill="#ABC2FE"/>
<path d="M46.522 394.381C46.522 394.381 33.6525 410.862 7.91353 410.862C7.91353 410.862 2.59788 464.694 46.522 479.858V394.381Z" fill="#708FFF"/>
<path d="M46.522 394.381C46.522 394.381 59.3915 410.862 85.1304 410.862C85.1304 410.862 90.4461 464.694 46.522 479.858V394.381Z" fill="#7FA0FF"/>
<path d="M57.433 200.083H38.1288C36.0505 200.083 34.3719 198.407 34.3719 196.332V177.058C34.3719 174.983 36.0505 173.307 38.1288 173.307H57.433C59.5113 173.307 61.19 174.983 61.19 177.058V196.332C61.19 198.407 59.5113 200.083 57.433 200.083Z" fill="#ABC2FE"/>
<path d="M74.0595 346.575H21.5025C15.8671 346.575 11.2708 341.986 11.2708 336.359V283.884C11.2708 278.257 15.8671 273.668 21.5025 273.668H74.0595C79.6949 273.668 84.2911 278.257 84.2911 283.884V336.359C84.2911 341.986 79.6949 346.575 74.0595 346.575Z" fill="#FFD769"/>
<path d="M71.7813 289.55H64.9069V286.118C64.9069 285.161 64.1475 284.402 63.1883 284.402C62.2291 284.402 61.4697 285.161 61.4697 286.118V289.55H34.0521V286.118C34.0521 285.161 33.2928 284.402 32.3335 284.402C31.3743 284.402 30.615 285.161 30.615 286.118V289.55H23.7406C22.7814 289.55 22.022 290.308 22.022 291.266V334.084C22.022 335.042 22.7814 335.8 23.7406 335.8H71.7813C72.7405 335.8 73.4999 335.042 73.4999 334.084V291.266C73.4999 290.348 72.7405 289.55 71.7813 289.55ZM30.615 292.982V296.414C30.615 297.372 31.3743 298.13 32.3335 298.13C33.2928 298.13 34.0521 297.372 34.0521 296.414V292.982H61.5097V296.414C61.5097 297.372 62.2691 298.13 63.2283 298.13C64.1875 298.13 64.9469 297.372 64.9469 296.414V292.982H70.1027V301.641H25.4592V292.982H30.615ZM25.4592 332.368V305.073H70.0627V332.368H25.4592Z" fill="white"/>
<path d="M44.3238 311.818H42.6052C41.646 311.818 40.8866 312.577 40.8866 313.534C40.8866 314.492 41.646 315.25 42.6052 315.25H44.3238C45.283 315.25 46.0424 314.492 46.0424 313.534C46.0424 312.616 45.283 311.818 44.3238 311.818Z" fill="white"/>
<path d="M35.7707 311.818H34.0521C33.0929 311.818 32.3335 312.577 32.3335 313.534C32.3335 314.492 33.0929 315.25 34.0521 315.25H35.7707C36.7299 315.25 37.4893 314.492 37.4893 313.534C37.4893 312.616 36.6899 311.818 35.7707 311.818Z" fill="white"/>
<path d="M61.5098 311.818H59.7912C58.832 311.818 58.0726 312.577 58.0726 313.534C58.0726 314.492 58.832 315.25 59.7912 315.25H61.5098C62.469 315.25 63.2284 314.492 63.2284 313.534C63.1884 312.616 62.429 311.818 61.5098 311.818Z" fill="white"/>
<path d="M52.9168 311.818H51.1982C50.239 311.818 49.4796 312.577 49.4796 313.534C49.4796 314.492 50.239 315.25 51.1982 315.25H52.9168C53.876 315.25 54.6354 314.492 54.6354 313.534C54.6354 312.616 53.876 311.818 52.9168 311.818Z" fill="white"/>
<path d="M44.3238 322.113H42.6052C41.646 322.113 40.8866 322.871 40.8866 323.829C40.8866 324.787 41.646 325.545 42.6052 325.545H44.3238C45.283 325.545 46.0424 324.787 46.0424 323.829C46.0424 322.871 45.283 322.113 44.3238 322.113Z" fill="white"/>
<path d="M35.7707 322.113H34.0521C33.0929 322.113 32.3335 322.871 32.3335 323.829C32.3335 324.787 33.0929 325.545 34.0521 325.545H35.7707C36.7299 325.545 37.4893 324.787 37.4893 323.829C37.4893 322.871 36.6899 322.113 35.7707 322.113Z" fill="white"/>
<path d="M61.5098 322.113H59.7912C58.832 322.113 58.0726 322.871 58.0726 323.829C58.0726 324.787 58.832 325.545 59.7912 325.545H61.5098C62.469 325.545 63.2284 324.787 63.2284 323.829C63.1884 322.871 62.429 322.113 61.5098 322.113Z" fill="white"/>
<path d="M52.9168 322.113H51.1982C50.239 322.113 49.4796 322.871 49.4796 323.829C49.4796 324.787 50.239 325.545 51.1982 325.545H52.9168C53.876 325.545 54.6354 324.787 54.6354 323.829C54.6354 322.871 53.876 322.113 52.9168 322.113Z" fill="white"/>
<defs>
<linearGradient id="paint0_linear" x1="353.969" y1="567.553" x2="458.218" y2="51.636" gradientUnits="userSpaceOnUse">
<stop stop-color="#333366"/>
<stop offset="1" stop-color="#5959B3"/>
</linearGradient>
</defs>
</svg>
