<svg xmlns="http://www.w3.org/2000/svg" viewBox="0 0 925 739" width="925" height="739">
	<defs>
		<clipPath clipPathUnits="userSpaceOnUse" id="cp1">
			<path d="M0 -93L925 -93L925 739L0 739L0 -93Z" />
		</clipPath>
	</defs>
	<style>
		tspan { white-space:pre }
		.shp0 { fill: #7de07d } 
		.shp1 { fill: #00c700 } 
		.shp2 { fill: #e5a062 } 
		.shp3 { fill: #da924f } 
		.shp4 { fill: #999999 } 
		.shp5 { fill: #808080 } 
		.shp6 { fill: #f4f4f4 } 
		.shp7 { fill: #e6e6e6 } 
		.shp8 { fill: #f7f7f7 } 
		.shp9 { fill: #ffffff } 
		.shp10 { fill: #b3b3b3 } 
		.shp11 { fill: #00b9f7 } 
		.shp12 { fill: #cccccc } 
		.shp13 { fill: #100d04 } 
		.shp14 { fill: #fbb570 } 
		.shp15 { fill: #fdca9e } 
		.shp16 { fill: #333333 } 
	</style>
	<g id="Clip-Path" clip-path="url(#cp1)">
		<g id="Layer">
			<path id="Layer" fill-rule="evenodd" class="shp0" d="M152.74 217.77C133.89 227.95 118.49 249.59 125.81 276.33C130.56 293.72 129.22 322.84 126.05 330.57C123.59 336.55 116.9 354.74 113.02 363.53L124.55 363.53C126.29 354.06 129.93 339.32 135.67 326.41C144.15 307.19 168.5 275.58 163.67 250.58C160.19 232.67 155.83 224.74 152.74 217.77Z" />
			<path id="Layer" fill-rule="evenodd" class="shp1" d="M135.67 326.37C144.15 307.15 168.5 275.54 163.67 250.54C160.23 232.67 155.83 224.74 152.74 217.77C135.16 244.08 142.05 263.02 138.33 290.99C135 315.95 122.33 346.38 114.25 363.49L124.55 363.49C126.29 354.06 129.97 339.32 135.67 326.37Z" />
			<path id="Layer" fill-rule="evenodd" class="shp0" d="M111.56 123.76C94.65 147.29 84.31 186.27 98.88 222.69C108.35 246.38 114.53 290.19 113.26 303.03C112.11 314.56 109.3 352.91 107.56 363.49L121.02 363.49C119.83 352.4 118.8 320.98 122.13 292.57C125.93 260.24 142.96 202.44 131.44 167.5C123.16 142.53 116.55 132.75 111.56 123.76Z" />
			<path id="Layer" fill-rule="evenodd" class="shp0" d="M206.96 170.94C210.4 193.61 219.67 221.74 199.83 257.95C190.32 275.26 173.25 291.19 164.78 312.38C157.69 330.09 153.38 355.85 152.19 363.49L123.48 363.49C128.43 356.36 139.91 338.69 147.16 318.76C160.7 281.44 155.99 260.17 163.39 233.07C173.41 196.42 192.38 183.11 206.96 170.94Z" />
			<path id="Layer" fill-rule="evenodd" class="shp1" d="M170.09 293.76C203.47 250.66 210.91 235.72 205.13 181.84C195.07 193.96 190.6 208.82 183.55 244.67C178.36 271.06 162.36 286.04 149.18 321.34C142.13 340.16 130.84 356.76 125.93 363.49L146.92 363.49C152.15 344.95 155.83 312.14 170.09 293.76Z" />
			<path id="Layer" fill-rule="evenodd" class="shp0" d="M163.47 363.49C158.96 324.39 162.25 277.4 214.04 294.71C246.08 305.41 253.53 296.5 265.64 285.48C254.79 260.13 167.67 260.8 158.52 311.51C156.54 322.64 154.8 353.27 154.29 363.49L163.47 363.49Z" />
			<path id="Layer" fill-rule="evenodd" class="shp1" d="M233.13 282.94C250.63 286.51 258.71 287.03 265.64 285.48C254.79 260.13 167.67 260.8 158.52 311.51C158.28 312.82 158.05 314.4 157.81 316.19C163 298.6 175.87 271.34 233.13 282.94Z" />
			<path id="Layer" fill-rule="evenodd" class="shp1" d="M122.13 292.57C125.93 260.24 142.96 202.44 131.44 167.5C123.2 142.53 116.58 132.71 111.56 123.76C100.19 170.67 112.27 195.7 115.67 238.89C119.08 281.8 113.77 337.58 109.54 363.53L121.02 363.53C119.83 352.44 118.76 320.98 122.13 292.57Z" />
			<path id="Layer" fill-rule="evenodd" class="shp0" d="M0.04 244.63C13.78 241.82 14.65 231.6 28.79 232.27C54.21 233.5 79.08 263.33 87.44 281.56C94.65 297.29 95.4 312.7 96.43 319.2C97.3 324.78 97.7 335.92 97.3 345.5C96.98 353.78 96.39 360.76 96.59 363.49C94.77 363.49 92.98 363.49 91.16 363.49C89.34 363.49 87.56 363.49 85.74 363.49C86.61 360.76 88.31 354.93 89.46 346.73C90.81 337.1 91.4 323.87 87.72 310.28C85.54 302.28 80.23 293.17 72.03 285.52C64.31 278.35 54.17 273.44 44.71 270.39C36.16 267.65 28.35 266.66 22.1 265C11.29 262.18 1.98 254.1 0.04 244.63Z" />
			<path id="Layer" fill-rule="evenodd" class="shp1" d="M88.11 310.2C85.89 302.16 80.55 293.05 72.31 285.4C64.55 278.23 54.29 273.36 44.83 270.35C27.72 264.96 6.69 262.5 2.18 245.66C19.36 249.07 26.26 240.99 40.55 245.03C75.4 254.94 93.54 289.52 93.58 324.15C93.62 343.4 91.4 356.6 91.52 363.45C90.61 363.45 89.74 363.45 88.86 363.45C87.99 363.45 87.08 363.45 86.21 363.45C87.12 360.72 88.83 354.89 89.97 346.65C91.28 337.06 91.87 323.79 88.11 310.2Z" />
			<path id="Layer" fill-rule="evenodd" class="shp1" d="M124.55 363.49C127.28 337.42 110.09 300.54 75.32 311.23C59.68 316.03 52.75 342.73 33.9 339.32C19.01 336.63 10.57 325.97 0 327.52C10.1 318.4 20.28 286.83 47.96 280.96C67.16 276.92 82.45 283.22 98.96 294.59C112.11 303.63 130.84 325.22 132.07 363.49L124.55 363.49Z" />
			<path id="Layer" fill-rule="evenodd" class="shp0" d="M47.96 281C67.16 276.96 82.45 283.26 98.96 294.63C110.57 302.64 126.56 320.43 131 350.89C117.54 303.39 80.03 279.86 36 304.26C21.78 312.07 13.86 322.92 0 327.52C10.1 318.4 20.28 286.83 47.96 281Z" />
			<path id="Layer" fill-rule="evenodd" class="shp0" d="M97.89 181.52C83.28 199.39 74.33 228.98 86.92 256.6C95.12 274.58 100.47 307.87 99.36 317.61C98.37 326.37 95.95 355.49 94.41 363.53L106.05 363.53C105.02 355.13 104.11 331.24 107 309.69C110.29 285.12 125.02 241.26 115.04 214.76C107.95 195.78 102.21 188.33 97.89 181.52Z" />
			<path id="Layer" fill-rule="evenodd" class="shp1" d="M107.04 309.65C110.33 285.08 125.06 241.23 115.08 214.72C107.95 195.78 102.25 188.33 97.89 181.52C104.86 209.93 91.76 225.14 99.28 264.36C105.77 298.12 97.97 342.85 94.41 363.49L106.05 363.49C105.06 355.09 104.15 331.24 107.04 309.65Z" />
			<path id="Layer" fill-rule="evenodd" class="shp2" d="M175.39 579.85L65.46 579.85C59.92 579.85 55.32 575.81 54.61 570.34L26.85 363.53L214 363.53L186.28 570.34C185.53 575.81 180.94 579.85 175.39 579.85Z" />
			<path id="Layer" fill-rule="evenodd" class="shp3" d="M30.18 388.17L29.07 380.21L211.75 380.21L210.68 388.17L30.18 388.17Z" />
			<path id="Layer" fill-rule="evenodd" class="shp2" d="M26.26 363.49L214.6 363.49C219.19 363.49 222.95 367.25 222.95 371.85C222.95 376.45 219.19 380.21 214.6 380.21L26.26 380.21C21.66 380.21 17.9 376.45 17.9 371.85C17.9 367.25 21.66 363.49 26.26 363.49Z" />
			<path id="Layer" fill-rule="evenodd" class="shp3" d="M220.46 345.34C230.52 345.34 238.72 353.7 238.72 364.04C238.72 374.38 230.56 382.74 220.46 382.74C210.4 382.74 202.2 374.38 202.2 364.04C202.2 353.74 210.4 345.34 220.46 345.34Z" />
			<path id="Layer" fill-rule="evenodd" class="shp3" d="M175.39 579.85L65.46 579.85C61.7 579.85 58.37 577.99 56.39 575.1L184.46 575.1C182.48 577.99 179.16 579.85 175.39 579.85Z" />
			<path id="Layer" fill-rule="evenodd" class="shp4" d="M93.38 579.85L925 579.85L925 629.53L93.38 629.53L93.38 579.85Z" />
			<path id="Layer" fill-rule="evenodd" class="shp5" d="M93.38 739L925 739L925 629.53L93.38 629.53L93.38 739Z" />
			<path id="Layer" fill-rule="evenodd" class="shp6" d="M232.06 97.21L548.83 97.21L548.83 519.79L232.06 519.79L232.06 97.21Z" />
			<path id="Layer" fill-rule="evenodd" class="shp7" d="M260.57 576.13L577.34 576.13L548.83 519.79L232.06 519.79L260.57 576.13Z" />
			<path id="Layer" fill-rule="evenodd" class="shp8" d="M260.57 576.13L577.34 576.13L548.83 519.79C497.27 571.85 260.57 576.13 260.57 576.13Z" />
			<path id="Layer" fill-rule="evenodd" class="shp9" d="M232.06 519.79L226.75 519.79L200.03 576.09L201.57 579.85L255.31 579.85L260.57 579.85L260.57 576.13L232.06 519.79Z" />
			<path id="Layer" fill-rule="evenodd" class="shp4" d="M204.7 575.89L226.75 575.85L226.75 528.38L204.7 575.89Z" />
			<path id="Layer" fill-rule="evenodd" class="shp10" d="M232.06 575.85L255.43 575.81L232.06 528.82L232.06 575.85Z" />
			<path id="Layer" fill-rule="evenodd" class="shp9" d="M229.41 97.21C227.94 97.21 226.75 98.4 226.75 99.87L226.75 575.85L232.06 575.85L232.06 99.87C232.06 98.4 230.87 97.21 229.41 97.21Z" />
			<path id="Layer" fill-rule="evenodd" class="shp11" d="M232.06 196.42L548.83 196.42L548.83 432.75L232.06 432.75L232.06 196.42Z" />
			<path id="Layer" fill-rule="evenodd" class="shp12" d="M260.57 576.13L577.34 576.13L577.34 579.85L260.57 579.85L260.57 576.13Z" />
			<path id="Layer" fill-rule="evenodd" class="shp11" d="M281.92 452.75C290.55 452.75 297.56 459.76 297.56 468.4C297.56 477.04 290.55 484.05 281.92 484.05C273.29 484.05 266.28 477.04 266.28 468.4C266.28 459.76 273.29 452.75 281.92 452.75Z" />
			<path id="Layer" fill-rule="evenodd" class="shp11" d="M354.27 452.75C362.9 452.75 369.91 459.76 369.91 468.4C369.91 477.04 362.9 484.05 354.27 484.05C345.64 484.05 338.63 477.04 338.63 468.4C338.63 459.76 345.64 452.75 354.27 452.75Z" />
			<path id="Layer" fill-rule="evenodd" class="shp11" d="M426.62 452.75C435.25 452.75 442.26 459.76 442.26 468.4C442.26 477.04 435.25 484.05 426.62 484.05C417.99 484.05 410.98 477.04 410.98 468.4C410.98 459.76 417.95 452.75 426.62 452.75Z" />
			<path id="Layer" fill-rule="evenodd" class="shp11" d="M498.97 452.75C507.61 452.75 514.62 459.76 514.62 468.4C514.62 477.04 507.61 484.05 498.97 484.05C490.34 484.05 483.33 477.04 483.33 468.4C483.33 459.76 490.3 452.75 498.97 452.75Z" />
			<path id="Layer" fill-rule="evenodd" class="shp9" d="M321.05 229.89L459.85 229.89C465.35 229.89 469.83 234.37 469.83 239.88L469.83 378.39C469.83 383.89 465.35 388.37 459.85 388.37L321.05 388.37C315.54 388.37 311.07 383.89 311.07 378.39L311.07 239.88C311.07 234.37 315.54 229.89 321.05 229.89Z" />
			<path id="Layer" fill-rule="evenodd" class="shp13" d="M324.41 328.07L370.19 328.07L370.19 372.29L324.41 372.29L324.41 328.07ZM331.3 365.67L363.34 365.67L363.34 334.65L331.3 334.65L331.3 365.67ZM448.72 353.35L455.25 353.35L455.25 359.65L448.72 359.65L448.72 365.99L455.25 365.99L455.25 372.29L442.19 372.29L442.19 359.65L448.72 359.65L448.72 353.35ZM416.01 365.99L422.54 365.99L422.54 372.29L416.01 372.29L416.01 365.99ZM389.83 321.77L389.83 328.07L376.76 328.07L376.76 321.77L389.83 321.77ZM376.72 315.47L376.72 321.77L363.66 321.77L363.66 315.47L376.72 315.47ZM383.3 334.37L389.79 334.37L389.79 334.41L389.83 334.41L389.83 347.01L376.76 347.01L376.76 340.71L383.3 340.71L383.3 334.37ZM389.79 334.37L389.79 328.11L396.37 328.11L396.37 334.41L389.83 334.41L389.83 334.37L389.79 334.37ZM435.61 347.05L442.14 347.05L442.14 353.35L429.08 353.35L429.08 359.65L435.61 359.65L435.61 365.95L422.54 365.95L422.54 359.65L416.01 359.65L416.01 365.95L409.47 365.95L409.47 372.25L396.41 372.25L396.41 365.95L383.34 365.95L383.34 359.65L376.8 359.65L376.8 353.35L389.87 353.35L389.87 347.05L396.41 347.05L396.41 334.41L402.94 334.41L402.94 340.71L409.47 340.71L409.47 334.41L416.05 334.41L416.05 340.71L422.58 340.71L422.58 328.07L416.05 328.07L416.05 321.77L402.98 321.77L402.98 328.07L396.45 328.07L396.45 315.43L409.51 315.43L409.51 309.13L402.98 309.13L402.98 302.83L416.01 302.83L416.01 315.47L422.54 315.47L422.54 309.13L429.08 309.13L429.08 315.47L435.61 315.47L435.61 321.77L429.08 321.77L429.08 334.65L435.61 334.65L435.61 347.05ZM383.34 302.83L383.34 309.13L389.83 309.13L389.83 315.43L383.3 315.43L383.3 309.13L376.8 309.13L376.8 302.83L383.34 302.83L383.34 296.53L396.41 296.53L396.41 283.9L389.87 283.9L389.87 277.6L402.94 277.6L402.94 302.83L383.34 302.83ZM416.01 347.05L402.94 347.05L402.94 353.35L416.01 353.35L416.01 347.05ZM455.25 245.98L455.25 290.19L409.47 290.19L409.47 245.98L455.25 245.98ZM448.36 252.56L416.32 252.56L416.32 283.58L448.36 283.58L448.36 252.56ZM370.19 245.98L370.19 290.19L324.41 290.19L324.41 245.98L370.19 245.98ZM363.34 252.56L331.3 252.56L331.3 283.58L363.34 283.58L363.34 252.56ZM357.12 277.56L337.48 277.56L337.48 258.62L357.12 258.62L357.12 277.56ZM331.02 315.47L331.02 309.17L324.45 309.17L324.45 296.53L330.99 296.53L330.99 302.83L337.52 302.83L337.52 296.53L344.05 296.53L344.05 302.83L350.59 302.83L350.59 296.53L370.19 296.53L370.19 302.83L363.66 302.83L363.66 309.13L357.12 309.13L357.12 321.77L344.05 321.77L344.05 315.47L331.02 315.47ZM330.99 321.77L324.45 321.77L324.45 315.47L330.99 315.47L330.99 321.77ZM337.52 340.75L357.16 340.75L357.16 359.69L337.52 359.69L337.52 340.75ZM376.76 365.99L383.3 365.99L383.3 372.29L376.76 372.29L376.76 365.99ZM448.72 309.13L448.72 315.43L442.19 315.43L442.19 309.13L448.72 309.13ZM448.72 302.83L455.25 302.83L455.25 309.13L448.72 309.13L448.72 302.83L422.54 302.83L422.54 296.53L448.72 296.53L448.72 302.83ZM402.94 334.41L402.94 328.11L409.47 328.11L409.47 334.41L402.94 334.41ZM442.19 340.75L455.25 340.75L455.25 347.05L442.19 347.05L442.19 340.75ZM442.19 321.77L455.25 321.77L455.25 334.41L442.19 334.41L442.19 321.77ZM383.3 290.19L376.76 290.19L376.76 283.9L383.3 283.9L383.3 290.19ZM383.3 258.58L376.76 258.58L376.76 252.28L383.3 252.28L383.3 246.02L396.37 246.02L396.37 252.32L402.9 252.32L402.9 258.62L389.83 258.62L389.83 252.32L383.3 252.32L383.3 258.58ZM389.83 271.26L389.83 277.56L376.76 277.56L376.76 271.26L389.83 271.26ZM396.37 271.22L389.83 271.22L389.83 264.92L396.37 264.92L396.37 271.22ZM442.19 277.56L422.54 277.56L422.54 258.62L442.19 258.62L442.19 277.56ZM389.83 258.62L389.83 264.92L383.3 264.92L383.3 258.62L389.83 258.62Z" />
			<path id="Layer" fill-rule="evenodd" class="shp12" d="M226.75 390.83C228.18 392.41 229.96 393.76 232.22 394.79C243.43 399.82 253.96 396.57 260.34 402.48C257.76 391.74 265.44 365.91 249.6 349.27C242.87 342.22 235.31 338.41 226.75 336.55L226.75 390.83Z" />
			<path id="Layer" fill-rule="evenodd" class="shp1" d="M142.6 363.49C143.36 357.98 146.01 344.24 155.63 336.55C168.42 326.33 195 321.22 200.1 333.5C205.21 345.78 200.74 364.96 214.91 371.33C226.12 376.37 236.66 373.12 243.03 379.02C240.46 368.28 248.14 342.45 232.3 325.81C221.29 314.28 208.18 311.47 191.91 311.47C175.91 311.51 145.38 320.38 125.89 363.49L142.6 363.49Z" />
			<path id="Layer" fill-rule="evenodd" class="shp0" d="M232.34 325.81C221.33 314.28 208.22 311.47 191.95 311.47C180.5 311.47 161.61 316.03 144.66 334.41C175.51 308.78 211.39 310.28 229.69 346.85C235.55 358.62 235.9 369.51 243.07 378.98C240.5 368.28 248.18 342.45 232.34 325.81Z" />
			<path id="Layer" fill-rule="evenodd" class="shp14" d="M480.72 177.52L528.08 240.31C536.12 250.97 552.63 254.66 562.1 245.23C571.56 235.76 575.05 221.89 567.01 211.19L519.64 148.4C511.61 137.74 496.32 135.48 485.63 143.49C474.94 151.49 472.68 166.86 480.72 177.52Z" />
			<path id="Layer" fill-rule="evenodd" class="shp14" d="M776.34 469.99C776.34 469.99 804.49 474.3 804.49 441.26C804.49 409.29 792.57 353.98 792.57 323.63C792.57 286.79 812.85 272.84 828.89 277C834.04 294.63 862.75 404.38 869.8 442.89C876.85 481.36 876.85 490.59 871.97 524.74C867.1 558.89 855.74 647.8 855.74 669.47C855.74 689.6 868.81 707.86 888.01 739L681.93 739L673.65 705.25C673.65 705.25 538.77 600.81 536.32 441.07C533.86 281.36 776.34 469.99 776.34 469.99Z" />
			<path id="Layer" fill-rule="evenodd" class="shp2" d="M800.02 392.53C796.65 367.45 792.57 341.31 792.57 323.6C792.57 294.79 804.93 280.01 818 276.88C805.84 285.2 797.88 343.25 800.02 392.53Z" />
			<path id="Layer" fill-rule="evenodd" class="shp2" d="M776.34 469.99C776.34 469.99 800.3 473.67 804.02 448.32C802.48 482.19 818.71 537.1 801.84 566.02C792.77 581.55 770.2 587.26 738.28 587.26C682.05 587.26 625.06 572.8 600.55 572.8C584.31 572.8 579.52 591.66 579.36 592.29C565.3 567.45 552.91 539 545.07 507.51C582.65 491.26 685.06 464.48 749.92 450.85C766.12 462.06 776.34 469.99 776.34 469.99Z" />
			<path id="Layer" fill-rule="evenodd" class="shp15" d="M829.52 279.26C832.85 284.06 839.74 299.23 841.13 322.92C836.73 323.56 831.66 323.91 827.42 321.26C821.84 317.65 818.83 283.74 829.52 279.26Z" />
			<path id="Layer" fill-rule="evenodd" class="shp16" d="M558.14 0.54L752.3 0.54C775.27 0.54 793.92 19.2 793.92 42.18L793.92 519.95C793.92 542.93 775.27 561.59 752.3 561.59L558.14 561.59C535.17 561.59 516.52 542.93 516.52 519.95L516.52 42.18C516.52 19.2 535.17 0.54 558.14 0.54Z" />
			<path id="Layer" fill-rule="evenodd" class="shp16" d="M516.55 76.37C517.47 76.37 518.18 77.08 518.18 78L518.18 95.94C518.18 96.85 517.47 97.57 516.55 97.57C515.64 97.57 514.93 96.85 514.93 95.94L514.93 78C514.93 77.08 515.64 76.37 516.55 76.37ZM516.55 115.83C517.47 115.83 518.18 116.54 518.18 117.46L518.18 155.49C518.18 156.4 517.47 157.12 516.55 157.12C515.64 157.12 514.93 156.4 514.93 155.49L514.93 117.46C514.93 116.54 515.64 115.83 516.55 115.83ZM793.92 130.06C794.83 130.06 795.54 130.77 795.54 131.68L795.54 193.13C795.54 194.04 794.83 194.75 793.92 194.75C793.01 194.75 792.3 194.04 792.3 193.13L792.3 131.68C792.3 130.77 793.05 130.06 793.92 130.06ZM516.55 167.06C517.47 167.06 518.18 167.77 518.18 168.68L518.18 206.68C518.18 207.59 517.47 208.3 516.55 208.3C515.64 208.3 514.93 207.59 514.93 206.68L514.93 168.68C514.93 167.81 515.64 167.1 516.55 167.06Z" />
			<path id="Layer" fill-rule="evenodd" class="shp9" d="M751.51 17.26L725.53 17.26C723.71 17.26 722.24 18.73 722.24 20.55L722.24 23.2C722.24 27.76 718.12 36.56 708.66 36.56L600.47 36.56C600.35 36.56 600.23 36.56 600.11 36.56C592.79 36.56 586.73 30.81 586.33 23.48L586.33 20.51C586.33 18.69 584.87 17.22 583.04 17.22L556.71 17.22C543.29 17.22 532.4 28.12 532.4 41.55L532.4 521.53C532.4 534.21 542.65 544.47 555.33 544.47L752.89 544.47C765.57 544.47 775.82 534.21 775.82 521.53L775.82 41.59C775.82 28.16 764.93 17.26 751.51 17.26Z" />
			<path id="Layer" fill-rule="evenodd" class="shp5" d="M638.37 21.18L670.17 21.18C670.92 21.18 671.51 21.78 671.51 22.53L671.51 23.32C671.51 24.08 670.92 24.67 670.17 24.67L638.37 24.67C637.62 24.67 637.02 24.08 637.02 23.32L637.02 22.53C637.02 21.78 637.62 21.18 638.37 21.18Z" />
			<path id="Layer" fill-rule="evenodd" class="shp5" d="M687.32 23.08C687.32 23.13 687.32 23.13 687.32 23.17C687.32 24.71 686.05 25.98 684.5 25.98C682.96 25.98 681.69 24.71 681.69 23.17C681.69 21.62 682.96 20.35 684.5 20.35C686.05 20.35 687.27 21.58 687.32 23.08Z" />
			<path id="Layer" fill-rule="evenodd" class="shp5" d="M706.2 23.08C706.2 23.13 706.2 23.13 706.2 23.17C706.2 24.71 704.94 25.98 703.39 25.98C701.85 25.98 700.58 24.71 700.58 23.17C700.58 21.62 701.85 20.35 703.39 20.35C704.94 20.35 706.16 21.58 706.2 23.08Z" />
			<path id="Layer" fill-rule="evenodd" class="shp5" d="M628.39 23.08C628.39 23.13 628.39 23.13 628.39 23.17C628.39 24.71 627.12 25.98 625.58 25.98C624.03 25.98 622.76 24.71 622.76 23.17C622.76 21.62 624.03 20.35 625.58 20.35C627.12 20.35 628.35 21.58 628.39 23.08Z" />
			<path id="Layer" fill-rule="evenodd" class="shp5" d="M608.98 23.08C608.98 23.13 608.98 23.13 608.98 23.17C608.98 24.71 607.72 25.98 606.17 25.98C604.63 25.98 603.36 24.71 603.36 23.17C603.36 21.62 604.63 20.35 606.17 20.35C607.68 20.35 608.94 21.58 608.98 23.08Z" />
			<path id="Layer" fill-rule="evenodd" class="shp11" d="M532.4 136.47L775.82 136.47L775.82 396.85L532.4 396.85L532.4 136.47Z" />
			<path id="Layer" class="shp5" d="M553.11 469L556.67 469C557.07 469 557.3 469.39 557.19 469.75L555.21 475.18L560 473.99C560.32 473.91 560.55 474.23 560.43 474.5L554.18 488.37C553.94 488.92 553.07 488.65 553.23 488.05L555.76 478.03L550.61 479.53C550.41 479.61 550.18 479.42 550.18 479.22C550.18 479.18 550.18 479.18 550.18 479.14L552.55 469.43C552.63 469.15 552.83 469 553.11 469Z" />
			<path id="Layer" class="shp5" d="M658.96 515.99C658.72 515.99 658.49 515.87 658.29 515.71L643.83 501.25C643.44 500.85 643.44 500.26 643.83 499.86C644.23 499.46 644.82 499.46 645.22 499.86L659.67 514.32C660.07 514.72 660.07 515.31 659.67 515.71C659.48 515.9 659.24 515.99 659 515.99L658.96 515.99Z" />
			<path id="Layer" class="shp5" d="M644.51 515.99C644.27 515.99 644.03 515.87 643.83 515.71C643.44 515.31 643.44 514.72 643.83 514.32L658.29 499.86C658.68 499.46 659.28 499.46 659.67 499.86C660.07 500.26 660.07 500.85 659.67 501.25L645.22 515.71C645.02 515.9 644.78 515.99 644.55 515.99L644.51 515.99Z" />
			<path id="Layer" class="shp5" d="M738.76 421.69L564.91 421.69L564.91 421.06L738.76 421.06L564.91 421.06L564.91 420.42L738.76 420.42L738.76 421.69Z" />
			<path id="Layer" class="shp5" d="M573.38 421.06C573.38 425.73 569.58 429.54 564.91 429.54C560.24 429.54 556.43 425.73 556.43 421.06C556.43 416.38 560.24 412.58 564.91 412.58C569.58 412.58 573.38 416.38 573.38 421.06Z" />
			<path id="Layer" fill-rule="evenodd" class="shp5" d="M748.66 475.02C750.6 475.02 752.18 476.6 752.18 478.54C752.18 480.49 750.6 482.07 748.66 482.07C746.72 482.07 745.13 480.49 745.13 478.54C745.13 476.6 746.72 475.02 748.66 475.02ZM740.26 479.53C739.71 479.53 739.27 479.1 739.27 478.54C739.27 473.43 743.43 469.23 748.58 469.23C751.07 469.23 753.37 470.18 755.07 471.85L755.9 471.1C756.06 470.98 756.3 471.06 756.34 471.25L757.21 475.61C757.25 475.81 757.05 476.01 756.85 475.93L752.89 474.5C752.74 474.42 752.66 474.19 752.82 474.07L753.65 473.28C752.3 472.01 750.52 471.29 748.62 471.29C744.54 471.29 741.25 474.62 741.25 478.66C741.25 479.18 740.82 479.65 740.26 479.53ZM758 478.58C758 483.7 753.84 487.89 748.7 487.89C746.2 487.89 743.9 486.94 742.2 485.28L741.41 486.03C741.25 486.15 741.01 486.07 740.97 485.87L740.1 481.52C740.06 481.28 740.26 481.12 740.46 481.2L744.42 482.63C744.58 482.71 744.66 482.94 744.5 483.06L743.67 483.85C745.01 485.12 746.79 485.84 748.7 485.84C752.77 485.84 756.06 482.51 756.06 478.47C756.06 477.91 756.5 477.48 757.05 477.48C757.61 477.48 758.04 477.95 758 478.58ZM748.62 476.09C747.23 476.09 746.12 477.2 746.12 478.58C746.12 478.98 746.44 479.26 746.79 479.26C747.19 479.26 747.47 478.94 747.47 478.58C747.47 477.91 748.02 477.4 748.66 477.4C749.05 477.4 749.33 477.08 749.33 476.72C749.33 476.37 749.05 476.05 748.62 476.09Z" />
			<path id="Layer" fill-rule="evenodd" class="shp9" d="M576.99 175.66L731.19 175.66C737.29 175.66 742.28 180.61 742.28 186.75L742.28 340.67C742.28 346.77 737.33 351.76 731.19 351.76L576.99 351.76C570.89 351.76 565.9 346.81 565.9 340.67L565.9 186.75C565.94 180.61 570.89 175.66 576.99 175.66Z" />
			<path id="Layer" fill-rule="evenodd" class="shp14" d="M500.16 347.49C506.89 351.09 510.22 352.87 516.95 356.44C530.81 363.85 548.2 358.54 555.56 344.67C562.97 330.81 557.66 313.41 543.8 306.04C537.07 302.44 533.74 300.66 527.01 297.09C513.15 289.68 495.76 294.99 488.4 308.86C481.03 322.72 486.3 340.12 500.16 347.49Z" />
			<path id="Layer" fill-rule="evenodd" class="shp14" d="M491.29 405.41L510.58 415.71C523.8 422.76 540.43 417.73 547.48 404.5C554.53 391.26 549.5 374.62 536.28 367.57L516.99 357.27C503.76 350.22 487.13 355.25 480.08 368.48C472.99 381.72 478.06 398.32 491.29 405.41Z" />
			<path id="Layer" fill-rule="evenodd" class="shp14" d="M491.29 471.57L500.6 476.56C513.39 483.38 529.43 478.5 536.24 465.71C543.05 452.91 538.18 436.87 525.39 430.05L516.08 425.06C503.29 418.24 487.25 423.12 480.44 435.91C473.63 448.67 478.5 464.72 491.29 471.57Z" />
			<path id="Layer" fill-rule="evenodd" class="shp15" d="M498.1 460.36C489.71 457.98 491.37 448.08 492.56 443.72C494.26 437.3 505.43 426.01 518.81 430.88C506.3 435.44 498.77 449.66 498.1 460.36Z" />
			<path id="Layer" fill-rule="evenodd" class="shp15" d="M509.98 398.99C501.59 396.61 496.91 387.46 500.95 377.79C506.58 364.28 519.61 365.91 526.73 369.47C514.5 375.97 510.62 388.29 509.98 398.99Z" />
			<path id="Layer" fill-rule="evenodd" class="shp15" d="M522.1 343.33C513.7 340.95 504.64 329.94 509.82 318.09C515.68 304.7 529.66 306 540.63 313.18C528.44 319.63 522.69 329.74 522.1 343.33Z" />
			<path id="Layer" fill-rule="evenodd" class="shp13" d="M584.43 285.08L633.5 285.08L633.5 334.05L584.43 334.05L584.43 285.08ZM591.8 326.72L626.13 326.72L626.13 292.37L591.8 292.37L591.8 326.72ZM717.61 313.1L724.62 313.1L724.62 320.07L717.61 320.07L717.61 327.04L724.62 327.04L724.62 334.05L710.6 334.05L710.6 320.07L717.61 320.07L717.61 313.1ZM703.59 306.08L710.6 306.08L710.6 313.1L696.58 313.1L696.58 320.07L703.59 320.07L703.59 327.08L689.57 327.08L689.57 334.05L682.56 334.05L682.56 327.08L675.55 327.08L675.55 334.09L661.53 334.09L661.53 327.08L647.52 327.08L647.52 334.05L640.51 334.05L640.51 327.04L647.52 327.04L647.52 320.11L640.51 320.11L640.51 313.1L654.52 313.1L654.52 306.12L640.51 306.12L640.51 299.11L647.52 299.11L647.52 292.1L654.52 292.1L654.52 306.08L661.53 306.08L661.53 292.1L668.54 292.1L668.54 299.11L675.55 299.11L675.55 292.1L682.56 292.1L682.56 299.07L689.57 299.07L689.57 285.08L682.56 285.08L682.56 278.07L668.54 278.07L668.54 285.08L661.53 285.08L661.53 271.1L675.55 271.1L675.55 264.05L668.54 264.05L668.54 257.07L647.52 257.07L647.52 264.05L640.51 264.05L640.51 257.03L647.52 257.03L647.52 250.06L661.53 250.06L661.53 236.08L654.52 236.08L654.52 229.14L640.51 229.14L640.51 222.13L654.53 222.13L654.52 215.16L661.53 215.16L661.53 222.17L654.52 222.17L654.52 229.06L668.54 229.06L668.54 257.03L682.56 257.03L682.56 271.06L689.57 271.06L689.57 264.09L696.58 264.09L696.58 271.1L703.59 271.1L703.59 278.11L696.58 278.11L696.58 292.37L703.59 292.37L703.59 306.08ZM689.57 320.11L682.56 320.11L682.56 327.04L689.57 327.04L689.57 320.11ZM654.52 278.11L654.52 285.12L640.51 285.12L640.51 278.11L654.52 278.11ZM640.51 271.1L640.51 278.11L626.49 278.11L626.49 271.1L640.51 271.1ZM682.56 306.08L668.54 306.08L668.54 313.1L682.56 313.1L682.56 306.08ZM724.62 194.16L724.62 243.13L675.55 243.13L675.55 194.16L724.62 194.16ZM717.25 201.41L682.92 201.41L682.92 235.76L717.25 235.76L717.25 201.41ZM633.5 243.13L584.43 243.13L584.43 194.16L633.5 194.16L633.5 243.13ZM626.13 201.41L591.8 201.41L591.8 235.76L626.13 235.76L626.13 201.41ZM619.48 229.14L598.45 229.14L598.45 208.14L619.48 208.14L619.48 229.14ZM591.44 271.1L591.44 264.09L584.43 264.09L584.43 250.1L591.44 250.1L591.44 257.07L598.45 257.07L598.45 250.1L605.46 250.1L605.46 257.07L612.47 257.07L612.47 250.1L633.5 250.1L633.5 257.11L626.49 257.11L626.49 264.09L619.48 264.09L619.48 278.11L605.46 278.11L605.46 271.1L591.44 271.1ZM591.44 278.11L584.43 278.11L584.43 271.1L591.44 271.1L591.44 278.11ZM598.45 299.07L619.48 299.07L619.48 320.07L598.45 320.07L598.45 299.07ZM710.6 264.09L717.61 264.09L717.61 257.15L689.57 257.15L689.57 250.14L717.61 250.14L717.61 257.11L724.62 257.11L724.62 264.13L717.61 264.13L717.61 271.1L710.6 271.1L710.6 264.09ZM654.57 292.1L654.57 285.08L661.53 285.08L661.53 292.1L654.57 292.1ZM668.54 292.1L668.54 285.08L675.55 285.08L675.55 292.1L668.54 292.1ZM710.6 299.07L724.62 299.07L724.62 306.08L710.6 306.08L710.6 299.07ZM647.52 271.1L647.52 264.09L654.52 264.09L654.52 271.1L647.52 271.1ZM710.6 278.11L724.62 278.11L724.62 292.1L710.6 292.1L710.6 278.11ZM647.52 243.13L640.51 243.13L640.51 236.12L647.52 236.12L647.52 243.13ZM647.52 201.13L647.52 208.14L640.51 208.14L640.51 201.13L647.52 201.13ZM654.52 201.13L647.52 201.13L647.52 194.12L661.53 194.12L661.53 201.13L668.54 201.13L668.54 208.14L654.52 208.14L654.52 201.13ZM710.6 229.14L689.57 229.14L689.57 208.14L710.6 208.14L710.6 229.14ZM654.52 208.14L654.52 215.16L647.52 215.16L647.52 208.14L654.52 208.14Z" />
		</g>
	</g>
</svg>