<svg width="33" height="33" viewBox="0 0 33 33" fill="none" xmlns="http://www.w3.org/2000/svg">
<g clip-path="url(#clip0)">
<path d="M23.3709 0H8.67435C3.89123 0 0 3.97967 0 8.8715V23.9023C0 28.7939 3.89123 32.7735 8.67435 32.7735H23.3711C28.154 32.7735 32.0452 28.7939 32.0452 23.9023V8.8715C32.0452 3.97967 28.154 0 23.3709 0V0ZM16.0226 25.348C11.1911 25.348 7.26049 21.3281 7.26049 16.3868C7.26049 11.4454 11.1911 7.4255 16.0226 7.4255C20.8541 7.4255 24.7847 11.4454 24.7847 16.3868C24.7847 21.3281 20.8541 25.348 16.0226 25.348ZM24.9943 9.53886C23.5665 9.53886 22.4052 8.35116 22.4052 6.89091C22.4052 5.43067 23.5665 4.24272 24.9943 4.24272C26.4221 4.24272 27.5836 5.43067 27.5836 6.89091C27.5836 8.35116 26.4221 9.53886 24.9943 9.53886Z" fill="white"/>
<path d="M16.0227 9.34668C12.2273 9.34668 9.13916 12.5047 9.13916 16.3866C9.13916 20.2683 12.2273 23.4265 16.0227 23.4265C19.8183 23.4265 22.9061 20.2683 22.9061 16.3866C22.9061 12.5047 19.8183 9.34668 16.0227 9.34668Z" fill="white"/>
<path d="M24.9942 6.16406C24.6025 6.16406 24.2837 6.49012 24.2837 6.89069C24.2837 7.29125 24.6025 7.61731 24.9942 7.61731C25.3861 7.61731 25.7049 7.2915 25.7049 6.89069C25.7049 6.48987 25.3861 6.16406 24.9942 6.16406Z" fill="white"/>
</g>
<defs>
<clipPath id="clip0">
<rect width="32.0453" height="32.7736" fill="white"/>
</clipPath>
</defs>
</svg>
