<svg width="33" height="27" viewBox="0 0 33 27" fill="none" xmlns="http://www.w3.org/2000/svg">
<path d="M32.7736 3.22467C31.5548 3.75929 30.2562 4.11366 28.9022 4.28572C30.2951 3.45409 31.3582 2.14724 31.858 0.572063C30.5593 1.34634 29.1255 1.89325 27.5974 2.19845C26.3643 0.88546 24.6068 0.0722656 22.6896 0.0722656C18.9698 0.0722656 15.9751 3.09153 15.9751 6.7929C15.9751 7.32547 16.0201 7.83756 16.1307 8.32506C10.5449 8.05263 5.60223 5.37544 2.28186 1.29718C1.70218 2.30292 1.36215 3.45409 1.36215 4.69334C1.36215 7.02027 2.56044 9.08295 4.3466 10.2771C3.26712 10.2567 2.20812 9.94326 1.31094 9.44961C1.31094 9.47009 1.31094 9.49672 1.31094 9.52335C1.31094 12.7884 3.63992 15.5004 6.694 16.1252C6.1471 16.2747 5.55103 16.3464 4.93242 16.3464C4.50227 16.3464 4.06802 16.3218 3.6604 16.2317C4.53095 18.8925 7.00126 20.8487 9.93859 20.9122C7.65263 22.7004 4.75012 23.7778 1.60795 23.7778C1.05695 23.7778 0.528474 23.7532 0 23.6856C2.97625 25.6049 6.50351 26.7008 10.3073 26.7008C22.6711 26.7008 29.4307 16.4591 29.4307 7.58151C29.4307 7.2845 29.4204 6.99773 29.4061 6.71301C30.7396 5.76668 31.86 4.58478 32.7736 3.22467Z" fill="white"/>
</svg>
