<svg width="24" height="22" viewBox="0 0 24 22" fill="none" xmlns="http://www.w3.org/2000/svg">
<path d="M23.599 0.200001C23.399 7.59959e-07 22.999 0 22.699 0L16.999 1.7V21.8L23.299 20C23.699 19.9 23.999 19.5 23.999 19V1C23.999 0.7 23.899 0.400001 23.599 0.200001Z" fill="#2D9CDB"/>
<path d="M14.999 1.7002L8.99902 0.200195V20.3002L14.999 21.8002V1.7002Z" fill="#2EC5CE"/>
<path d="M6.99902 0.200195L0.699024 2.00019C0.299024 2.20019 -0.000976562 2.60019 -0.000976562 3.00019V21.0002C-0.000976562 21.3002 0.099023 21.6002 0.399023 21.8002C0.599023 21.9002 0.799023 22.0002 0.999023 22.0002H1.29902L6.99902 20.3002V0.200195Z" fill="#27AE60"/>
</svg>
