<svg width="23" height="22" viewBox="0 0 23 22" fill="none" xmlns="http://www.w3.org/2000/svg">
<path d="M8.99805 9H1.99805C1.73283 9 1.47848 8.89464 1.29094 8.70711C1.1034 8.51957 0.998047 8.26522 0.998047 8V1C0.998047 0.734784 1.1034 0.480429 1.29094 0.292892C1.47848 0.105356 1.73283 0 1.99805 0H8.99805C9.26326 0 9.51762 0.105356 9.70515 0.292892C9.89269 0.480429 9.99805 0.734784 9.99805 1V8C9.99805 8.26522 9.89269 8.51957 9.70515 8.70711C9.51762 8.89464 9.26326 9 8.99805 9Z" fill="#27AE60"/>
<path d="M8.99805 22H1.99805C1.73283 22 1.47848 21.8946 1.29094 21.7071C1.1034 21.5196 0.998047 21.2652 0.998047 21V14C0.998047 13.7348 1.1034 13.4804 1.29094 13.2929C1.47848 13.1054 1.73283 13 1.99805 13H8.99805C9.26326 13 9.51762 13.1054 9.70515 13.2929C9.89269 13.4804 9.99805 13.7348 9.99805 14V21C9.99805 21.2652 9.89269 21.5196 9.70515 21.7071C9.51762 21.8946 9.26326 22 8.99805 22Z" fill="#27AE60"/>
<path d="M12.998 1H22.998V3H12.998V1Z" fill="#2EC5CE"/>
<path d="M22.998 14H12.998V16H22.998V14Z" fill="#2EC5CE"/>
<path d="M22.998 19H12.998V21H22.998V19Z" fill="#2D9CDB"/>
<path d="M22.998 6H12.998V8H22.998V6Z" fill="#2D9CDB"/>
</svg>
