<svg width="21" height="16" viewBox="0 0 21 16" fill="none" xmlns="http://www.w3.org/2000/svg">
<path d="M18.834 0.835937L2.58398 0.835938C2.06315 0.835938 1.62044 1.01823 1.25586 1.38281C0.891276 1.7474 0.708984 2.1901 0.708984 2.71094L0.708984 13.9609C0.708984 14.4818 0.891276 14.9245 1.25586 15.2891C1.62044 15.6536 2.06315 15.8359 2.58398 15.8359H18.834C19.3548 15.8359 19.7975 15.6536 20.1621 15.2891C20.5267 14.9245 20.709 14.4818 20.709 13.9609V2.71094C20.709 2.1901 20.5267 1.7474 20.1621 1.38281C19.7975 1.01823 19.3548 0.835937 18.834 0.835937ZM2.58398 2.08594L18.834 2.08594C19.0163 2.08594 19.1595 2.15104 19.2637 2.28125C19.3939 2.38542 19.459 2.52865 19.459 2.71094V4.3125C18.5475 5.09375 16.5814 6.68229 13.5605 9.07812L13.1699 9.39062C12.6491 9.83333 12.2454 10.1458 11.959 10.3281C11.4642 10.6667 11.0475 10.8359 10.709 10.8359C10.3704 10.8359 9.95378 10.6667 9.45898 10.3281C9.14648 10.1458 8.72982 9.83333 8.20898 9.39062L7.85742 9.07812C4.83659 6.68229 2.87044 5.09375 1.95898 4.3125L1.95898 2.71094C1.95898 2.52865 2.01107 2.38542 2.11523 2.28125C2.24544 2.15104 2.40169 2.08594 2.58398 2.08594ZM18.834 14.5859H2.58398C2.40169 14.5859 2.24544 14.5339 2.11523 14.4297C2.01107 14.2995 1.95898 14.1432 1.95898 13.9609L1.95898 5.95312C2.87044 6.68229 4.57617 8.04948 7.07617 10.0547L7.4668 10.3672C8.06576 10.888 8.56055 11.2656 8.95117 11.5C9.60221 11.8906 10.1882 12.0859 10.709 12.0859C11.2298 12.0859 11.8158 11.8906 12.4668 11.5C12.8314 11.2656 13.3262 10.888 13.9512 10.3672L14.3418 10.0547C16.8418 8.04948 18.5475 6.68229 19.459 5.95312V13.9609C19.459 14.1432 19.3939 14.2995 19.2637 14.4297C19.1595 14.5339 19.0163 14.5859 18.834 14.5859Z" fill="#0F001A"/>
</svg>
