<svg width="16" height="21" viewBox="0 0 16 21" fill="none" xmlns="http://www.w3.org/2000/svg">
<path d="M8.20947 4.07324C7.16781 4.07324 6.28239 4.43783 5.55322 5.16699C4.82406 5.89616 4.45947 6.78158 4.45947 7.82324C4.45947 8.86491 4.82406 9.75033 5.55322 10.4795C6.28239 11.2087 7.16781 11.5732 8.20947 11.5732C9.25114 11.5732 10.1366 11.2087 10.8657 10.4795C11.5949 9.75033 11.9595 8.86491 11.9595 7.82324C11.9595 6.78158 11.5949 5.89616 10.8657 5.16699C10.1366 4.43783 9.25114 4.07324 8.20947 4.07324ZM8.20947 10.3232C7.53239 10.3232 6.94645 10.0758 6.45166 9.58105C5.95687 9.08626 5.70947 8.50033 5.70947 7.82324C5.70947 7.14616 5.95687 6.56022 6.45166 6.06543C6.94645 5.57064 7.53239 5.32324 8.20947 5.32324C8.88656 5.32324 9.47249 5.57064 9.96729 6.06543C10.4621 6.56022 10.7095 7.14616 10.7095 7.82324C10.7095 8.50033 10.4621 9.08626 9.96729 9.58105C9.47249 10.0758 8.88656 10.3232 8.20947 10.3232ZM8.20947 0.323242C6.85531 0.323242 5.60531 0.661784 4.45947 1.33887C3.31364 2.01595 2.40218 2.92741 1.7251 4.07324C1.04801 5.21908 0.709473 6.46908 0.709473 7.82324C0.709473 8.65658 0.813639 9.39876 1.02197 10.0498C1.23031 10.6748 1.63395 11.4561 2.23291 12.3936C2.64958 13.0446 3.50895 14.3076 4.81104 16.1826L7.42822 19.9326C7.61051 20.193 7.87093 20.3232 8.20947 20.3232C8.54801 20.3232 8.80843 20.193 8.99072 19.9326L11.6079 16.1826C12.91 14.3076 13.7694 13.0446 14.186 12.3936C14.785 11.4561 15.1886 10.6748 15.397 10.0498C15.6053 9.39876 15.7095 8.65658 15.7095 7.82324C15.7095 6.46908 15.3709 5.21908 14.6938 4.07324C14.0168 2.92741 13.1053 2.01595 11.9595 1.33887C10.8136 0.661784 9.56364 0.323242 8.20947 0.323242ZM8.20947 18.8389C7.58447 17.9274 6.77718 16.7686 5.7876 15.3623C4.5376 13.5654 3.71729 12.3805 3.32666 11.8076C2.77979 10.9222 2.4152 10.2191 2.23291 9.69824C2.05062 9.15137 1.95947 8.52637 1.95947 7.82324C1.95947 6.98991 2.11572 6.19564 2.42822 5.44043C2.74072 4.68522 3.19645 4.00814 3.79541 3.40918C4.39437 2.81022 5.07145 2.35449 5.82666 2.04199C6.58187 1.72949 7.37614 1.57324 8.20947 1.57324C9.04281 1.57324 9.83708 1.72949 10.5923 2.04199C11.3475 2.35449 12.0246 2.81022 12.6235 3.40918C13.2225 4.00814 13.6782 4.68522 13.9907 5.44043C14.3032 6.19564 14.4595 6.98991 14.4595 7.82324C14.4595 8.52637 14.3683 9.15137 14.186 9.69824C14.0037 10.2191 13.6392 10.9222 13.0923 11.8076C12.7017 12.3805 11.8813 13.5654 10.6313 15.3623L8.20947 18.8389Z" fill="#0F001A"/>
</svg>
