<svg width="21" height="21" viewBox="0 0 21 21" fill="none" xmlns="http://www.w3.org/2000/svg">
<path d="M19.3413 20.0625L20.2397 16.1172C20.3179 15.8307 20.2788 15.5573 20.1226 15.2969C19.9924 15.0365 19.797 14.8411 19.5366 14.7109L15.3179 12.9141C15.0575 12.8099 14.797 12.7839 14.5366 12.8359C14.2762 12.9141 14.0549 13.0573 13.8726 13.2656L12.1538 15.375C10.7996 14.6979 9.5887 13.8255 8.521 12.7578C7.45329 11.6901 6.58089 10.4792 5.90381 9.125L8.01318 7.40625C8.22152 7.22396 8.35173 7.0026 8.40381 6.74219C8.48193 6.48177 8.46891 6.22135 8.36475 5.96094L6.56787 1.74219C6.43766 1.48177 6.24235 1.27344 5.98193 1.11719C5.72152 0.986979 5.44808 0.960937 5.16162 1.03906L1.21631 1.9375C0.955892 2.01562 0.734538 2.15885 0.552246 2.36719C0.369954 2.60156 0.278809 2.86198 0.278809 3.14844C0.278809 6.3776 1.0861 9.3724 2.70068 12.1328C4.28923 14.8411 6.42464 16.9766 9.10693 18.5391C11.8934 20.1797 14.9142 21 18.1694 21C18.4299 21 18.6642 20.9089 18.8726 20.7266C19.1069 20.5443 19.2632 20.3229 19.3413 20.0625ZM1.52881 3.14844L5.43506 2.25L7.23193 6.46875L4.38037 8.77344C5.31787 10.8047 6.3986 12.4323 7.62256 13.6562C8.84652 14.8802 10.4741 15.9609 12.5054 16.8984L14.8101 14.0469L19.0288 15.8438L18.1304 19.75C15.1356 19.75 12.3491 18.9948 9.771 17.4844C7.24495 16 5.25277 14.0078 3.79443 11.5078C2.28402 8.92969 1.52881 6.14323 1.52881 3.14844Z" fill="#0F001A"/>
</svg>
