<svg width="20" height="21" viewBox="0 0 20 21" fill="none" xmlns="http://www.w3.org/2000/svg">
<path d="M19.0067 0.741211H0.993158C0.559952 0.741211 0.209961 1.0912 0.209961 1.52441V19.5379C0.209961 19.9711 0.559952 20.3211 0.993158 20.3211H19.0067C19.4399 20.3211 19.7899 19.9711 19.7899 19.5379V1.52441C19.7899 1.0912 19.4399 0.741211 19.0067 0.741211ZM16.7452 6.4561H15.1813C13.9551 6.4561 13.7177 7.0386 13.7177 7.89522V9.78224H16.6449L16.263 12.7364H13.7177V20.3211H10.6656V12.7388H8.1129V9.78224H10.6656V7.60397C10.6656 5.07571 12.21 3.69778 14.4666 3.69778C15.5484 3.69778 16.476 3.77855 16.7476 3.81526V6.4561H16.7452Z" fill="#A9A9A9"/>
</svg>
