<svg width="21" height="21" viewBox="0 0 21 21" fill="none" xmlns="http://www.w3.org/2000/svg">
<path d="M19.6004 0.741211H1.58691C1.1537 0.741211 0.803711 1.0912 0.803711 1.52441V19.5379C0.803711 19.9711 1.1537 20.3211 1.58691 20.3211H19.6004C20.0336 20.3211 20.3836 19.9711 20.3836 19.5379V1.52441C20.3836 1.0912 20.0336 0.741211 19.6004 0.741211ZM6.6116 17.4257H3.70643V8.08123H6.6116V17.4257ZM5.16024 6.80364C4.8272 6.80364 4.50164 6.70488 4.22473 6.51986C3.94782 6.33483 3.73199 6.07185 3.60455 5.76416C3.4771 5.45647 3.44375 5.1179 3.50872 4.79126C3.5737 4.46462 3.73407 4.16459 3.96956 3.92909C4.20506 3.6936 4.5051 3.53322 4.83174 3.46825C5.15837 3.40328 5.49694 3.43663 5.80463 3.56407C6.11232 3.69152 6.3753 3.90735 6.56033 4.18426C6.74536 4.46117 6.84411 4.78673 6.84411 5.11977C6.84167 6.04982 6.08784 6.80364 5.16024 6.80364ZM17.4882 17.4257H14.5855V12.8808C14.5855 11.7965 14.5659 10.4039 13.0754 10.4039C11.5653 10.4039 11.3328 11.5836 11.3328 12.8024V17.4257H8.43254V8.08123H11.2178V9.35882H11.2569C11.6436 8.62457 12.5908 7.84872 14.0055 7.84872C16.9474 7.84872 17.4882 9.78468 17.4882 12.3007V17.4257Z" fill="#A9A9A9"/>
</svg>
