<svg width="21" height="17" viewBox="0 0 21 17" fill="none" xmlns="http://www.w3.org/2000/svg">
<path d="M20.5872 2.22413C19.8383 2.5472 19.0233 2.77971 18.1838 2.87027C19.0554 2.35247 19.7081 1.53443 20.0194 0.56963C19.2016 1.05616 18.3056 1.39733 17.3712 1.578C16.9807 1.16052 16.5084 0.827938 15.9838 0.600976C15.4591 0.374015 14.8933 0.257536 14.3217 0.258799C12.0088 0.258799 10.1487 2.13358 10.1487 4.43422C10.1487 4.75729 10.1879 5.08035 10.2515 5.39119C6.78829 5.21007 3.69956 3.55557 1.64612 1.02242C1.27196 1.66149 1.07589 2.38916 1.0783 3.1297C1.0783 4.57862 1.815 5.85621 2.93839 6.60759C2.27636 6.58151 1.62982 6.39955 1.05138 6.07648V6.12788C1.05138 8.15685 2.48561 9.83827 4.3971 10.225C4.03819 10.3182 3.66899 10.3659 3.29817 10.3669C3.0265 10.3669 2.76952 10.34 2.51008 10.3033C3.03874 11.9578 4.57821 13.1595 6.41138 13.1987C4.97715 14.3221 3.18069 14.9829 1.23005 14.9829C0.880054 14.9829 0.556986 14.9707 0.22168 14.9315C2.07198 16.1185 4.26738 16.8038 6.63165 16.8038C14.307 16.8038 18.5069 10.4453 18.5069 4.92616C18.5069 4.74505 18.5069 4.56393 18.4946 4.38282C19.3072 3.78808 20.0194 3.05138 20.5872 2.22413Z" fill="#A9A9A9"/>
</svg>
